<svg width="33" height="32" viewBox="0 0 33 32" fill="none" xmlns="http://www.w3.org/2000/svg">
<path d="M6.11366 5.39441H4.38425C2.65678 5.39441 1.79305 5.39441 1.34243 5.93725C0.891809 6.4801 1.07918 7.29489 1.45392 8.92447L2.01599 11.3687C2.86137 15.0448 5.95415 17.7784 9.70996 18.3411" stroke="white" stroke-width="2.15778" stroke-linecap="round" stroke-linejoin="round"/>
<path d="M16.105 22.6567C20.4505 22.6567 24.1104 15.9502 25.2105 6.81984C25.5148 4.29479 25.6669 3.03227 24.8611 2.05556C24.0553 1.07886 22.7542 1.07886 20.1522 1.07886H12.0579C9.45582 1.07886 8.1548 1.07886 7.34899 2.05556C6.54318 3.03227 6.69531 4.29479 6.99955 6.81984C8.09966 15.9502 11.7596 22.6567 16.105 22.6567Z" stroke="white" stroke-width="2.15778" stroke-linecap="round"/>
<path d="M26.0963 5.39441H27.8257C29.5532 5.39441 30.4169 5.39441 30.8675 5.93725C31.3182 6.4801 31.1308 7.29489 30.756 8.92447L30.194 11.3687C29.3486 15.0448 26.2558 17.7784 22.5 18.3411" stroke="white" stroke-width="2.15778" stroke-linecap="round" stroke-linejoin="round"/>
<path d="M16.4794 22.7504C14.0719 22.7504 11.9764 24.5702 10.8946 27.2547C10.3779 28.5368 11.1193 29.943 12.1046 29.943H20.8543C21.8395 29.943 22.581 28.5368 22.0643 27.2547C20.9824 24.5702 18.887 22.7504 16.4794 22.7504Z" stroke="white" stroke-width="2.15778" stroke-linecap="round"/>
</svg>
