<?xml version="1.0" encoding="UTF-8"?>
<svg id="Layer_2" data-name="Layer 2" xmlns="http://www.w3.org/2000/svg" viewBox="0 0 382.27 268.77">
  <g id="Layer_1-2" data-name="Layer 1">
    <g>
      <path d="M382.27,29.11v210.54c-1.05,3.24-1.97,6.45-3.52,9.75l-115.76-115.02,115.76-115.02c1.55,3.3,2.47,6.5,3.52,9.75Z"/>
      <path d="M214.8,150.79c-13.12,13.05-34.22,13.01-47.13.17L19.38,3.52C23.55,1.42,27.87,0,33.03,0h316.21c5.17,0,9.48,1.42,13.65,3.52l-148.09,147.26Z"/>
      <path d="M362.81,265.16c-4.18,2.45-8.9,3.61-14.33,3.61H33.03c-5.17,0-9.46-1.42-13.66-3.52l115.71-114.97,17.21,16.98c21.6,21.3,56.49,20.93,78.06-.36l16.82-16.61,115.62,114.87Z"/>
      <path d="M3.63,249.31c-1.88-3.48-3.6-7.53-3.6-12.05l-.03-205.03c.42-4.89,1.4-8.81,3.52-12.88l115.76,115.03L3.63,249.31Z"/>
    </g>
  </g>
</svg>