<?xml version="1.0" encoding="UTF-8"?>
<svg id="Layer_2" data-name="Layer 2" xmlns="http://www.w3.org/2000/svg" viewBox="0 0 384 269.98">
  <g id="Layer_1-2" data-name="Layer 1">
    <path d="M384,29.24v211.5c-3.14,16.42-16.17,29.24-33.87,29.24H33.87c-17.7,0-30.75-12.85-33.87-29.24V29.24C3.18,12.99,15.94.06,33.12.05L350.13,0c17.66,0,30.73,12.76,33.87,29.24ZM200.47,167.56L345.1,22.48H38.91s144.85,145.28,144.85,145.28c5.15,3.76,11.31,3.95,16.71-.2ZM119.31,135.01L22.51,37.87v194.19s96.8-97.04,96.8-97.04ZM361.46,232.04l.03-194.12-96.78,97.05,96.75,97.08ZM248.85,150.95l-33.11,33.15c-13.69,12.09-34.19,12.02-47.72-.26l-32.87-32.88-96.2,96.53h306.12s-96.22-96.54-96.22-96.54Z"/>
  </g>
</svg>