<svg width="19" height="31" viewBox="0 0 19 31" fill="none" xmlns="http://www.w3.org/2000/svg">
<path fill-rule="evenodd" clip-rule="evenodd" d="M12.8604 13.2024C14.104 11.6581 15.7371 9.5012 16.7714 7.635C17.3426 6.60422 17.9408 5.28397 18.4668 4.03219C19.2843 2.08664 17.8199 0 15.7095 0H2.98735C0.877027 0 -0.587415 2.08665 0.230107 4.03219C0.756111 5.28397 1.35426 6.60422 1.92553 7.635C2.9598 9.5012 4.59293 11.6581 5.83647 13.2024C6.80282 14.4024 6.80282 16.1376 5.83647 17.3376C4.59293 18.8819 2.9598 21.0388 1.92553 22.905C1.35426 23.9358 0.756111 25.256 0.230107 26.5078C-0.587416 28.4534 0.877027 30.54 2.98735 30.54H15.7095C17.8199 30.54 19.2843 28.4534 18.4668 26.5078C17.9408 25.256 17.3426 23.9358 16.7714 22.905C15.7371 21.0388 14.104 18.8819 12.8604 17.3376C11.8941 16.1376 11.8941 14.4024 12.8604 13.2024ZM16.3008 2.58728C16.4134 2.75045 16.4423 2.93745 16.3551 3.14486C15.8395 4.37202 15.279 5.60263 14.768 6.52469C14.3362 7.30384 13.777 8.1569 13.179 9C12.4845 9.97915 11.7375 10.9449 11.0764 11.7658C10.2348 12.8109 9.82467 14.0905 9.84595 15.3642C9.86618 16.5751 10.2763 17.7806 11.0764 18.7742C12.3067 20.302 13.8347 22.3313 14.768 24.0153C14.9572 24.3567 15.1532 24.7404 15.3512 25.1506C15.6879 25.8482 16.0304 26.6224 16.3551 27.3951C16.4423 27.6025 16.4134 27.7896 16.3008 27.9527C16.1829 28.1236 15.981 28.2495 15.7095 28.2495H2.98735C2.71589 28.2495 2.51402 28.1236 2.3961 27.9527C2.28352 27.7896 2.2546 27.6025 2.34175 27.3951C2.64105 26.6829 2.95546 25.9694 3.26653 25.3159C3.49139 24.8434 3.71452 24.4022 3.92893 24.0153C4.86223 22.3313 6.39019 20.302 7.62046 18.7742C8.42056 17.7806 8.83072 16.5751 8.85095 15.3642C8.87222 14.0905 8.46206 12.8109 7.62046 11.7658C6.73424 10.6652 5.69355 9.30448 4.83193 8C4.49744 7.49357 4.18993 6.99563 3.92893 6.52469C3.41791 5.60263 2.85741 4.37202 2.34175 3.14487C2.2546 2.93745 2.28352 2.75045 2.3961 2.58728C2.51402 2.41637 2.71589 2.2905 2.98735 2.2905H15.7095C15.981 2.2905 16.1829 2.41637 16.3008 2.58728Z" fill="white"/>
<path fill-rule="evenodd" clip-rule="evenodd" d="M11.0764 11.7658C11.7375 10.9449 12.4845 9.97915 13.179 9C13.0728 8.66667 11.8702 7.5 10.5 7.5C9.6742 7.5 8.99996 7.95459 8.39384 8.36326C7.89894 8.69694 7.44945 9 6.99996 9C6.19996 9 5.22125 8.33333 4.8319 8C5.69351 9.30448 6.7342 10.6652 7.62043 11.7658C8.46203 12.8109 8.87219 14.0905 8.85091 15.3642V25.1506C8.40059 25.6004 7.19996 26.4 5.99996 26C5.76004 25.92 5.56123 25.8524 5.39105 25.7944C4.49779 25.4904 4.39277 25.4546 3.26649 25.3159C2.95542 25.9694 2.64102 26.6829 2.34172 27.3951C2.25456 27.6025 2.28348 27.7896 2.39606 27.9527C2.51398 28.1236 2.71585 28.2495 2.98732 28.2495H15.7095C15.981 28.2495 16.1828 28.1236 16.3008 27.9527C16.4133 27.7896 16.4423 27.6025 16.3551 27.3951C16.0304 26.6224 15.6879 25.8482 15.3512 25.1506C14.6433 25.0275 13.9621 25.2821 13.0397 25.6268C12.7248 25.7445 12.3818 25.8727 12 26C10.8 26.4 10.0639 25.6004 9.84591 25.1506V15.3642C9.82464 14.0905 10.2348 12.8109 11.0764 11.7658Z" fill="#DBDBDB"/>
</svg>
