<svg width="7315" height="366" viewBox="0 0 7315 366" fill="none" xmlns="http://www.w3.org/2000/svg">
<rect width="365.723" height="365.723" rx="19.1579" transform="matrix(1 -8.74228e-08 -8.74228e-08 -1 0 365.724)" fill="#1F1F1A"/>
<path d="M592.137 345.946C592.137 356.536 583.514 365.224 572.963 364.117C555.465 362.28 538.289 357.935 521.973 351.189C499.728 341.992 479.516 328.511 462.49 311.516C445.465 294.522 431.96 274.347 422.746 252.142C413.531 229.938 408.789 206.14 408.789 182.106C408.789 158.072 413.531 134.274 422.746 112.07C431.96 89.8653 445.465 69.69 462.49 52.6956C479.516 35.7012 499.728 22.2205 521.973 13.0232C538.289 6.2769 555.465 1.93215 572.963 0.0955042C583.514 -1.01189 592.137 7.67647 592.137 18.2659L592.137 345.946Z" fill="#1F1F1A"/>
<path d="M793.963 352.28L647.24 26.6962C641.597 14.1746 650.756 0.00166953 664.49 0.00166833L741.387 0.0016616C748.88 0.00166095 755.666 4.42286 758.694 11.2763L902.536 336.86C908.062 349.368 898.903 363.427 885.229 363.427L811.213 363.427C803.772 363.427 797.021 359.064 793.963 352.28Z" fill="#1F1F1A"/>
<path fill-rule="evenodd" clip-rule="evenodd" d="M976.402 365.137C962.919 365.137 953.708 351.507 958.736 338.997L1017.68 192.353L1088.34 12.0932C1094.61 -3.90358 1117.19 -4.06842 1123.69 11.8351L1184.33 160.159L1196.96 192.353L1225.07 262.648L1255.84 338.98C1260.89 351.492 1251.67 365.137 1238.18 365.137L976.402 365.137Z" fill="#1F1F1A"/>
<path d="M1300.32 345.946C1300.32 356.536 1308.94 365.224 1319.49 364.117C1336.99 362.28 1354.16 357.935 1370.48 351.189C1392.73 341.992 1412.94 328.511 1429.96 311.516C1446.99 294.522 1460.49 274.347 1469.71 252.142C1478.92 229.938 1483.66 206.14 1483.66 182.106C1483.66 158.072 1478.92 134.274 1469.71 112.07C1460.49 89.8653 1446.99 69.69 1429.96 52.6956C1412.94 35.7012 1392.73 22.2205 1370.48 13.0232C1354.16 6.27693 1336.99 1.93217 1319.49 0.0955329C1308.94 -1.01186 1300.32 7.6765 1300.32 18.2659L1300.32 345.946Z" fill="#1F1F1A"/>
<circle cx="182.106" cy="182.106" r="182.106" transform="matrix(1 -8.74228e-08 -8.74228e-08 -1 1526.73 364.212)" fill="#1F1F1A"/>
<path fill-rule="evenodd" clip-rule="evenodd" d="M1953.07 0.00102851C1939.59 0.00102969 1930.38 13.6302 1935.41 26.1405L1994.35 172.785L2065.01 353.044C2071.28 369.041 2093.86 369.206 2100.36 353.303L2161 204.978L2173.63 172.785L2201.75 102.49L2232.51 26.1579C2237.56 13.6452 2228.35 0.00100444 2214.86 0.00100562L1953.07 0.00102851Z" fill="#1F1F1A"/>
<path d="M2460.33 345.946C2460.33 356.536 2451.71 365.224 2441.16 364.117C2423.66 362.28 2406.48 357.935 2390.17 351.189C2367.92 341.992 2347.71 328.511 2330.69 311.516C2313.66 294.522 2300.16 274.347 2290.94 252.142C2281.73 229.938 2276.98 206.14 2276.98 182.106C2276.98 158.072 2281.73 134.274 2290.94 112.07C2300.16 89.8653 2313.66 69.69 2330.69 52.6956C2347.71 35.7012 2367.92 22.2205 2390.17 13.0232C2406.48 6.2769 2423.66 1.93215 2441.16 0.0955042C2451.71 -1.01189 2460.33 7.67647 2460.33 18.2659L2460.33 345.946Z" fill="#1F1F1A"/>
<path d="M2623.72 352.28L2770.44 26.6962C2776.08 14.1745 2766.92 0.00162345 2753.19 0.00162465L2676.29 0.00163138C2668.8 0.00163203 2662.01 4.42284 2658.99 11.2763L2515.14 336.86C2509.62 349.368 2518.78 363.427 2532.45 363.427L2606.47 363.427C2613.91 363.427 2620.66 359.064 2623.72 352.28Z" fill="#1F1F1A"/>
<path d="M2984.29 352.28L2837.57 26.6962C2831.93 14.1746 2841.08 0.00166953 2854.82 0.00166833L2931.72 0.0016616C2939.21 0.00166095 2945.99 4.42286 2949.02 11.2763L3092.86 336.86C3098.39 349.368 3089.23 363.427 3075.56 363.427L3001.54 363.427C2994.1 363.427 2987.35 359.064 2984.29 352.28Z" fill="#1F1F1A"/>
<path d="M3147.68 345.946C3147.68 356.536 3156.3 365.224 3166.85 364.117C3184.35 362.28 3201.52 357.935 3217.84 351.189C3240.08 341.992 3260.3 328.511 3277.32 311.516C3294.35 294.522 3307.85 274.347 3317.07 252.142C3326.28 229.938 3331.02 206.14 3331.02 182.106C3331.02 158.072 3326.28 134.274 3317.07 112.07C3307.85 89.8653 3294.35 69.69 3277.32 52.6956C3260.3 35.7012 3240.08 22.2205 3217.84 13.0232C3201.52 6.27693 3184.35 1.93217 3166.85 0.0955329C3156.3 -1.01186 3147.68 7.6765 3147.68 18.2659L3147.68 345.946Z" fill="#1F1F1A"/>
<circle cx="182.106" cy="182.106" r="182.106" transform="matrix(1 -8.74228e-08 -8.74228e-08 -1 3374.09 364.212)" fill="#1F1F1A"/>
<path d="M3901.69 352.28L4048.41 26.6962C4054.05 14.1745 4044.89 0.00162345 4031.16 0.00162465L3954.26 0.00163138C3946.77 0.00163203 3939.98 4.42284 3936.95 11.2763L3793.11 336.86C3787.59 349.368 3796.75 363.427 3810.42 363.427L3884.43 363.427C3891.88 363.427 3898.63 359.064 3901.69 352.28Z" fill="#1F1F1A"/>
<path fill-rule="evenodd" clip-rule="evenodd" d="M4122.57 365.137C4109.08 365.137 4099.87 351.507 4104.9 338.997L4163.85 192.353L4234.5 12.0932C4240.77 -3.90358 4263.35 -4.06842 4269.85 11.8351L4330.49 160.159L4343.12 192.353L4371.24 262.648L4402.01 338.98C4407.05 351.492 4397.84 365.137 4384.35 365.137L4122.57 365.137Z" fill="#1F1F1A"/>
<path fill-rule="evenodd" clip-rule="evenodd" d="M4465.53 0.00102851C4452.05 0.00102969 4442.84 13.6302 4447.87 26.1405L4506.82 172.785L4577.47 353.044C4583.74 369.041 4606.32 369.206 4612.82 353.303L4673.46 204.978L4686.09 172.785L4714.21 102.49L4744.98 26.1579C4750.02 13.6452 4740.81 0.00100444 4727.32 0.00100562L4465.53 0.00102851Z" fill="#1F1F1A"/>
<path d="M4972.8 345.946C4972.8 356.536 4964.18 365.224 4953.63 364.117C4936.13 362.28 4918.95 357.935 4902.64 351.189C4880.39 341.992 4860.18 328.511 4843.15 311.516C4826.13 294.522 4812.62 274.347 4803.41 252.142C4794.2 229.938 4789.45 206.14 4789.45 182.106C4789.45 158.072 4794.2 134.274 4803.41 112.07C4812.62 89.8653 4826.13 69.69 4843.15 52.6956C4860.18 35.7012 4880.39 22.2205 4902.64 13.0232C4918.95 6.2769 4936.13 1.93215 4953.63 0.0955042C4964.18 -1.01189 4972.8 7.67647 4972.8 18.2659L4972.8 345.946Z" fill="#1F1F1A"/>
<circle cx="182.106" cy="182.106" r="182.106" transform="matrix(1 -8.74228e-08 -8.74228e-08 -1 5015.87 364.212)" fill="#1F1F1A"/>
<path d="M5423.15 345.946C5423.15 356.536 5431.78 365.224 5442.33 364.117C5459.82 362.28 5477 357.935 5493.32 351.189C5515.56 341.992 5535.77 328.511 5552.8 311.516C5569.82 294.522 5583.33 274.347 5592.54 252.142C5601.76 229.938 5606.5 206.14 5606.5 182.106C5606.5 158.072 5601.76 134.274 5592.54 112.07C5583.33 89.8653 5569.82 69.69 5552.8 52.6956C5535.77 35.7012 5515.56 22.2205 5493.32 13.0232C5477 6.27693 5459.82 1.93217 5442.33 0.0955329C5431.78 -1.01186 5423.15 7.6765 5423.15 18.2659L5423.15 345.946Z" fill="#1F1F1A"/>
<path d="M5769.88 352.28L5916.6 26.6962C5922.25 14.1745 5913.09 0.00162345 5899.35 0.00162465L5822.46 0.00163138C5814.96 0.00163203 5808.18 4.42284 5805.15 11.2763L5661.31 336.86C5655.78 349.368 5664.94 363.427 5678.61 363.427L5752.63 363.427C5760.07 363.427 5766.82 359.064 5769.88 352.28Z" fill="#1F1F1A"/>
<path fill-rule="evenodd" clip-rule="evenodd" d="M5990.76 365.137C5977.28 365.137 5968.07 351.507 5973.1 338.997L6032.04 192.353L6102.7 12.0932C6108.97 -3.90358 6131.55 -4.06842 6138.05 11.8351L6198.69 160.159L6211.32 192.353L6239.43 262.648L6270.2 338.98C6275.25 351.492 6266.03 365.137 6252.54 365.137L5990.76 365.137Z" fill="#1F1F1A"/>
<path d="M6498.02 345.946C6498.02 356.536 6489.4 365.224 6478.85 364.117C6461.35 362.28 6444.17 357.935 6427.86 351.189C6405.61 341.992 6385.4 328.511 6368.37 311.516C6351.35 294.522 6337.84 274.347 6328.63 252.142C6319.41 229.938 6314.67 206.14 6314.67 182.106C6314.67 158.072 6319.41 134.274 6328.63 112.07C6337.84 89.8653 6351.35 69.69 6368.37 52.6956C6385.4 35.7012 6405.61 22.2205 6427.86 13.0232C6444.17 6.2769 6461.35 1.93215 6478.85 0.0955042C6489.4 -1.01189 6498.02 7.67647 6498.02 18.2659L6498.02 345.946Z" fill="#1F1F1A"/>
<circle cx="182.106" cy="182.106" r="182.106" transform="matrix(1 -8.74228e-08 -8.74228e-08 -1 6541.09 364.212)" fill="#1F1F1A"/>
<rect width="365.723" height="365.723" rx="19.1579" transform="matrix(1 -8.74228e-08 -8.74228e-08 -1 6948.38 365.724)" fill="#1F1F1A"/>
</svg>
