<svg width="7314" height="835" viewBox="0 0 7314 835" fill="none" xmlns="http://www.w3.org/2000/svg">
<path fill-rule="evenodd" clip-rule="evenodd" d="M4.45236 823.067C2.32248 828.351 6.21202 834.113 11.9089 834.113C15.1909 834.113 18.1435 832.118 19.3679 829.072L27.1715 809.666L27.1777 809.647L37.9417 782.882L48.7056 756.117L54.4096 741.585L76.0059 686.499C80.5026 675.03 96.6915 674.911 101.355 686.314L123.961 741.585L129.665 756.117L142.361 787.849L157.571 825.565C159.654 830.73 164.665 834.113 170.234 834.113H286.846C294.323 834.113 299.305 826.393 296.226 819.58C296.201 819.58 296.178 819.566 296.167 819.543L279.976 783.625L188.858 581.496C186.652 576.6 181.781 573.453 176.411 573.453H113.699C108.117 573.453 103.097 576.851 101.023 582.033L17.8876 789.738L9.69783 810.199C9.57694 810.491 9.44282 810.776 9.29546 811.053L4.45236 823.067Z" fill="#1F1F1A"/>
<path fill-rule="evenodd" clip-rule="evenodd" d="M4.45236 249.614C2.32248 254.898 6.21202 260.659 11.9089 260.659C15.1909 260.659 18.1435 258.664 19.3679 255.619L27.1715 236.213L27.1777 236.194L37.9417 209.429L48.7056 182.664L54.4096 168.132L76.0059 113.046C80.5026 101.576 96.6915 101.458 101.355 112.861L123.961 168.132L129.665 182.664L142.361 214.396L157.571 252.112C159.654 257.277 164.665 260.659 170.234 260.659H286.846C294.323 260.659 299.305 252.94 296.226 246.127C296.201 246.127 296.178 246.113 296.167 246.09L279.976 210.172L188.858 8.04259C186.652 3.14732 181.781 0 176.411 0H113.699C108.117 0 103.097 3.39779 101.023 8.58007L17.8876 216.285L9.69783 236.746C9.57694 237.038 9.44282 237.322 9.29546 237.6L4.45236 249.614Z" fill="#1F1F1A"/>
<path fill-rule="evenodd" clip-rule="evenodd" d="M4.45236 297.769C2.32248 292.485 6.21202 286.723 11.9089 286.723C15.1909 286.723 18.1435 288.718 19.3679 291.763L27.1715 311.17L27.1777 311.189L37.9417 337.954L48.7056 364.719L54.4096 379.251L76.0059 434.337C80.5026 445.806 96.6915 445.925 101.355 434.522L123.961 379.251L129.665 364.719L142.361 332.987L157.571 295.271C159.654 290.106 164.665 286.723 170.234 286.723H286.846C294.323 286.723 299.305 294.443 296.226 301.256C296.201 301.256 296.178 301.27 296.167 301.293L279.976 337.211L188.858 539.34C186.652 544.235 181.781 547.383 176.411 547.383H113.699C108.117 547.383 103.097 543.985 101.023 538.803L17.8876 331.098L9.69783 310.637C9.57694 310.345 9.44282 310.06 9.29546 309.783L4.45236 297.769Z" fill="#1F1F1A"/>
<path fill-rule="evenodd" clip-rule="evenodd" d="M456.499 823.067C454.369 828.351 458.259 834.113 463.956 834.113C467.238 834.113 470.19 832.118 471.415 829.072L479.218 809.666L479.225 809.647L489.989 782.882L500.752 756.117L506.456 741.585L528.053 686.499C532.549 675.03 548.738 674.911 553.402 686.314L576.008 741.585L581.712 756.117L594.408 787.849L609.618 825.565C611.7 830.73 616.711 834.113 622.281 834.113H738.893C746.369 834.113 751.352 826.393 748.273 819.58C748.247 819.58 748.225 819.566 748.214 819.543L732.023 783.625L640.905 581.496C638.699 576.6 633.827 573.453 628.458 573.453H565.746C560.164 573.453 555.144 576.851 553.07 582.033L469.934 789.738L461.745 810.199C461.624 810.491 461.49 810.776 461.342 811.053L456.499 823.067Z" fill="#1F1F1A"/>
<path fill-rule="evenodd" clip-rule="evenodd" d="M456.499 249.614C454.369 254.898 458.259 260.659 463.956 260.659C467.238 260.659 470.19 258.664 471.415 255.619L479.218 236.213L479.225 236.194L489.989 209.429L500.752 182.664L506.456 168.132L528.053 113.046C532.549 101.576 548.738 101.458 553.402 112.861L576.008 168.132L581.712 182.664L594.408 214.396L609.618 252.112C611.7 257.277 616.711 260.659 622.281 260.659H738.893C746.369 260.659 751.352 252.94 748.273 246.127C748.247 246.127 748.225 246.113 748.214 246.09L732.023 210.172L640.905 8.04259C638.699 3.14732 633.827 0 628.458 0H565.746C560.164 0 555.144 3.39779 553.07 8.58007L469.934 216.285L461.745 236.746C461.624 237.038 461.49 237.322 461.342 237.6L456.499 249.614Z" fill="#1F1F1A"/>
<path fill-rule="evenodd" clip-rule="evenodd" d="M456.499 297.769C454.369 292.485 458.259 286.723 463.956 286.723C467.238 286.723 470.19 288.718 471.415 291.763L479.218 311.17L479.225 311.189L489.989 337.954L500.752 364.719L506.456 379.251L528.053 434.337C532.549 445.806 548.738 445.925 553.402 434.522L576.008 379.251L581.712 364.719L594.408 332.987L609.618 295.271C611.7 290.106 616.711 286.723 622.281 286.723H738.893C746.369 286.723 751.352 294.443 748.273 301.256C748.247 301.256 748.225 301.27 748.214 301.293L732.023 337.211L640.905 539.34C638.699 544.235 633.827 547.383 628.458 547.383H565.746C560.164 547.383 555.144 543.985 553.07 538.803L469.934 331.098L461.745 310.637C461.624 310.345 461.49 310.06 461.342 309.783L456.499 297.769Z" fill="#1F1F1A"/>
<path fill-rule="evenodd" clip-rule="evenodd" d="M230.476 584.495C228.346 579.211 232.235 573.45 237.932 573.45C241.214 573.45 244.167 575.445 245.391 578.49L253.195 597.896L253.201 597.915L263.965 624.68L274.729 651.445L280.433 665.978L302.029 721.063C306.526 732.533 322.715 732.651 327.379 721.248L349.985 665.978L355.689 651.445L368.385 619.714L383.594 581.997C385.677 576.832 390.688 573.45 396.257 573.45H512.87C520.346 573.45 525.328 581.169 522.249 587.982C522.224 587.982 522.201 587.997 522.191 588.02L505.999 623.938L414.882 826.067C412.675 830.962 407.804 834.109 402.434 834.109H339.723C334.141 834.109 329.121 830.712 327.047 825.529L243.911 617.825L235.721 597.364C235.6 597.072 235.466 596.787 235.319 596.51L230.476 584.495Z" fill="#1F1F1A"/>
<path fill-rule="evenodd" clip-rule="evenodd" d="M230.476 11.0459C228.346 5.76222 232.235 0.000701904 237.932 0.000701904C241.214 0.000701904 244.167 1.99576 245.391 5.04083L253.195 24.4471L253.201 24.4663L263.965 51.2312L274.729 77.9962L280.433 92.5284L302.029 147.614C306.526 159.084 322.715 159.202 327.379 147.799L349.985 92.5284L355.689 77.9962L368.385 46.2645L383.594 8.54802C385.677 3.38306 390.688 0.000701904 396.257 0.000701904H512.87C520.346 0.000701904 525.328 7.71989 522.249 14.5329C522.224 14.5329 522.201 14.5476 522.191 14.5706L505.999 50.4883L414.882 252.618C412.675 257.513 407.804 260.66 402.434 260.66H339.723C334.141 260.66 329.121 257.262 327.047 252.08L243.911 44.3755L235.721 23.9144C235.6 23.6223 235.466 23.3377 235.319 23.0605L230.476 11.0459Z" fill="#1F1F1A"/>
<path fill-rule="evenodd" clip-rule="evenodd" d="M230.476 536.341C228.346 541.624 232.235 547.386 237.932 547.386C241.214 547.386 244.167 545.391 245.391 542.346L253.195 522.94L253.201 522.92L263.965 496.156L274.729 469.391L280.433 454.858L302.029 399.773C306.526 388.303 322.715 388.185 327.379 399.588L349.985 454.858L355.689 469.391L368.385 501.122L383.594 538.839C385.677 544.004 390.688 547.386 396.257 547.386H512.87C520.346 547.386 525.328 539.667 522.249 532.854C522.224 532.854 522.201 532.839 522.191 532.816L505.999 496.898L414.882 294.769C412.675 289.874 407.804 286.727 402.434 286.727H339.723C334.141 286.727 329.121 290.124 327.047 295.307L243.911 503.011L235.721 523.472C235.6 523.764 235.466 524.049 235.319 524.326L230.476 536.341Z" fill="#1F1F1A"/>
<path fill-rule="evenodd" clip-rule="evenodd" d="M682.523 584.495C680.393 579.211 684.282 573.45 689.979 573.45C693.261 573.45 696.214 575.445 697.438 578.49L705.242 597.896L705.248 597.915L716.012 624.68L726.776 651.445L732.48 665.978L754.076 721.063C758.573 732.533 774.762 732.651 779.426 721.248L802.032 665.978L807.736 651.445L820.431 619.714L835.641 581.997C837.724 576.832 842.735 573.45 848.304 573.45H964.916C972.393 573.45 977.375 581.169 974.296 587.982C974.271 587.982 974.248 587.997 974.238 588.02L958.046 623.938L866.929 826.067C864.722 830.962 859.851 834.109 854.481 834.109H791.769C786.187 834.109 781.168 830.712 779.093 825.529L695.958 617.825L687.768 597.364C687.647 597.072 687.513 596.787 687.366 596.51L682.523 584.495Z" fill="#1F1F1A"/>
<path fill-rule="evenodd" clip-rule="evenodd" d="M682.523 11.0459C680.393 5.76222 684.282 0.000701904 689.979 0.000701904C693.261 0.000701904 696.214 1.99576 697.438 5.04083L705.242 24.4471L705.248 24.4663L716.012 51.2312L726.776 77.9962L732.48 92.5284L754.076 147.614C758.573 159.084 774.762 159.202 779.426 147.799L802.032 92.5284L807.736 77.9962L820.431 46.2645L835.641 8.54802C837.724 3.38306 842.735 0.000701904 848.304 0.000701904H964.916C972.393 0.000701904 977.375 7.71989 974.296 14.5329C974.271 14.5329 974.248 14.5476 974.238 14.5706L958.046 50.4883L866.929 252.618C864.722 257.513 859.851 260.66 854.481 260.66H791.769C786.187 260.66 781.168 257.262 779.093 252.08L695.958 44.3755L687.768 23.9144C687.647 23.6223 687.513 23.3377 687.366 23.0605L682.523 11.0459Z" fill="#1F1F1A"/>
<path fill-rule="evenodd" clip-rule="evenodd" d="M682.523 536.341C680.393 541.624 684.282 547.386 689.979 547.386C693.261 547.386 696.214 545.391 697.438 542.346L705.242 522.94L705.248 522.92L716.012 496.156L726.776 469.391L732.48 454.858L754.076 399.773C758.573 388.303 774.762 388.185 779.426 399.588L802.032 454.858L807.736 469.391L820.431 501.122L835.641 538.839C837.724 544.004 842.735 547.386 848.304 547.386H964.916C972.393 547.386 977.375 539.667 974.296 532.854C974.271 532.854 974.248 532.839 974.238 532.816L958.046 496.898L866.929 294.769C864.722 289.874 859.851 286.727 854.481 286.727H791.769C786.187 286.727 781.168 290.124 779.093 295.307L695.958 503.011L687.768 523.472C687.647 523.764 687.513 524.049 687.366 524.326L682.523 536.341Z" fill="#1F1F1A"/>
<path fill-rule="evenodd" clip-rule="evenodd" d="M3623.68 823.067C3621.55 828.351 3625.44 834.113 3631.14 834.113C3634.42 834.113 3637.37 832.118 3638.59 829.072L3646.4 809.666L3646.4 809.647L3657.17 782.882L3667.93 756.117L3673.64 741.585L3695.23 686.499C3699.73 675.03 3715.92 674.911 3720.58 686.314L3743.19 741.585L3748.89 756.117L3761.59 787.849L3776.8 825.565C3778.88 830.73 3783.89 834.113 3789.46 834.113H3906.07C3913.55 834.113 3918.53 826.393 3915.45 819.58C3915.43 819.58 3915.4 819.566 3915.39 819.543L3899.2 783.625L3808.08 581.496C3805.88 576.6 3801.01 573.453 3795.64 573.453H3732.93C3727.34 573.453 3722.32 576.851 3720.25 582.033L3637.11 789.738L3628.92 810.199C3628.8 810.491 3628.67 810.776 3628.52 811.053L3623.68 823.067Z" fill="#1F1F1A"/>
<path fill-rule="evenodd" clip-rule="evenodd" d="M3623.68 249.614C3621.55 254.898 3625.44 260.659 3631.14 260.659C3634.42 260.659 3637.37 258.664 3638.59 255.619L3646.4 236.213L3646.4 236.194L3657.17 209.429L3667.93 182.664L3673.64 168.132L3695.23 113.046C3699.73 101.576 3715.92 101.458 3720.58 112.861L3743.19 168.132L3748.89 182.664L3761.59 214.396L3776.8 252.112C3778.88 257.277 3783.89 260.659 3789.46 260.659H3906.07C3913.55 260.659 3918.53 252.94 3915.45 246.127C3915.43 246.127 3915.4 246.113 3915.39 246.09L3899.2 210.172L3808.08 8.04259C3805.88 3.14732 3801.01 0 3795.64 0H3732.93C3727.34 0 3722.32 3.39779 3720.25 8.58007L3637.11 216.285L3628.92 236.746C3628.8 237.038 3628.67 237.322 3628.52 237.6L3623.68 249.614Z" fill="#1F1F1A"/>
<path fill-rule="evenodd" clip-rule="evenodd" d="M3623.68 297.769C3621.55 292.485 3625.44 286.723 3631.14 286.723C3634.42 286.723 3637.37 288.718 3638.59 291.763L3646.4 311.17L3646.4 311.189L3657.17 337.954L3667.93 364.719L3673.64 379.251L3695.23 434.337C3699.73 445.806 3715.92 445.925 3720.58 434.522L3743.19 379.251L3748.89 364.719L3761.59 332.987L3776.8 295.271C3778.88 290.106 3783.89 286.723 3789.46 286.723H3906.07C3913.55 286.723 3918.53 294.443 3915.45 301.256C3915.43 301.256 3915.4 301.27 3915.39 301.293L3899.2 337.211L3808.08 539.34C3805.88 544.235 3801.01 547.383 3795.64 547.383H3732.93C3727.34 547.383 3722.32 543.985 3720.25 538.803L3637.11 331.098L3628.92 310.637C3628.8 310.345 3628.67 310.06 3628.52 309.783L3623.68 297.769Z" fill="#1F1F1A"/>
<path fill-rule="evenodd" clip-rule="evenodd" d="M4075.73 823.067C4073.6 828.351 4077.49 834.113 4083.18 834.113C4086.46 834.113 4089.42 832.118 4090.64 829.072L4098.44 809.666L4098.45 809.647L4109.22 782.882L4119.98 756.117L4125.68 741.585L4147.28 686.499C4151.78 675.03 4167.96 674.911 4172.63 686.314L4195.23 741.585L4200.94 756.117L4213.63 787.849L4228.84 825.565C4230.93 830.73 4235.94 834.113 4241.51 834.113H4358.12C4365.6 834.113 4370.58 826.393 4367.5 819.58C4367.47 819.58 4367.45 819.566 4367.44 819.543L4351.25 783.625L4260.13 581.496C4257.93 576.6 4253.05 573.453 4247.68 573.453H4184.97C4179.39 573.453 4174.37 576.851 4172.3 582.033L4089.16 789.738L4080.97 810.199C4080.85 810.491 4080.72 810.776 4080.57 811.053L4075.73 823.067Z" fill="#1F1F1A"/>
<path fill-rule="evenodd" clip-rule="evenodd" d="M4075.73 249.614C4073.6 254.898 4077.49 260.659 4083.18 260.659C4086.46 260.659 4089.42 258.664 4090.64 255.619L4098.44 236.213L4098.45 236.194L4109.22 209.429L4119.98 182.664L4125.68 168.132L4147.28 113.046C4151.78 101.576 4167.96 101.458 4172.63 112.861L4195.23 168.132L4200.94 182.664L4213.63 214.396L4228.84 252.112C4230.93 257.277 4235.94 260.659 4241.51 260.659H4358.12C4365.6 260.659 4370.58 252.94 4367.5 246.127C4367.47 246.127 4367.45 246.113 4367.44 246.09L4351.25 210.172L4260.13 8.04259C4257.93 3.14732 4253.05 0 4247.68 0H4184.97C4179.39 0 4174.37 3.39779 4172.3 8.58007L4089.16 216.285L4080.97 236.746C4080.85 237.038 4080.72 237.322 4080.57 237.6L4075.73 249.614Z" fill="#1F1F1A"/>
<path fill-rule="evenodd" clip-rule="evenodd" d="M4075.73 297.769C4073.6 292.485 4077.49 286.723 4083.18 286.723C4086.46 286.723 4089.42 288.718 4090.64 291.763L4098.44 311.17L4098.45 311.189L4109.22 337.954L4119.98 364.719L4125.68 379.251L4147.28 434.337C4151.78 445.806 4167.96 445.925 4172.63 434.522L4195.23 379.251L4200.94 364.719L4213.63 332.987L4228.84 295.271C4230.93 290.106 4235.94 286.723 4241.51 286.723H4358.12C4365.6 286.723 4370.58 294.443 4367.5 301.256C4367.47 301.256 4367.45 301.27 4367.44 301.293L4351.25 337.211L4260.13 539.34C4257.93 544.235 4253.05 547.383 4247.68 547.383H4184.97C4179.39 547.383 4174.37 543.985 4172.3 538.803L4089.16 331.098L4080.97 310.637C4080.85 310.345 4080.72 310.06 4080.57 309.783L4075.73 297.769Z" fill="#1F1F1A"/>
<path fill-rule="evenodd" clip-rule="evenodd" d="M3849.7 584.495C3847.57 579.211 3851.46 573.45 3857.16 573.45C3860.44 573.45 3863.39 575.445 3864.62 578.49L3872.42 597.896L3872.43 597.915L3883.19 624.68L3893.96 651.445L3899.66 665.978L3921.26 721.063C3925.75 732.533 3941.94 732.651 3946.61 721.248L3969.21 665.978L3974.92 651.445L3987.61 619.714L4002.82 581.997C4004.9 576.832 4009.91 573.45 4015.48 573.45H4132.1C4139.57 573.45 4144.55 581.169 4141.48 587.982C4141.45 587.982 4141.43 587.997 4141.42 588.02L4125.23 623.938L4034.11 826.067C4031.9 830.962 4027.03 834.109 4021.66 834.109H3958.95C3953.37 834.109 3948.35 830.712 3946.27 825.529L3863.14 617.825L3854.95 597.364C3854.83 597.072 3854.69 596.787 3854.55 596.51L3849.7 584.495Z" fill="#1F1F1A"/>
<path fill-rule="evenodd" clip-rule="evenodd" d="M3849.7 11.0459C3847.57 5.76222 3851.46 0.000701904 3857.16 0.000701904C3860.44 0.000701904 3863.39 1.99576 3864.62 5.04083L3872.42 24.4471L3872.43 24.4663L3883.19 51.2312L3893.96 77.9962L3899.66 92.5284L3921.26 147.614C3925.75 159.084 3941.94 159.202 3946.61 147.799L3969.21 92.5284L3974.92 77.9962L3987.61 46.2645L4002.82 8.54802C4004.9 3.38306 4009.91 0.000701904 4015.48 0.000701904H4132.1C4139.57 0.000701904 4144.55 7.71989 4141.48 14.5329C4141.45 14.5329 4141.43 14.5476 4141.42 14.5706L4125.23 50.4883L4034.11 252.618C4031.9 257.513 4027.03 260.66 4021.66 260.66H3958.95C3953.37 260.66 3948.35 257.262 3946.27 252.08L3863.14 44.3755L3854.95 23.9144C3854.83 23.6223 3854.69 23.3377 3854.55 23.0605L3849.7 11.0459Z" fill="#1F1F1A"/>
<path fill-rule="evenodd" clip-rule="evenodd" d="M3849.7 536.341C3847.57 541.624 3851.46 547.386 3857.16 547.386C3860.44 547.386 3863.39 545.391 3864.62 542.346L3872.42 522.94L3872.43 522.92L3883.19 496.156L3893.96 469.391L3899.66 454.858L3921.26 399.773C3925.75 388.303 3941.94 388.185 3946.61 399.588L3969.21 454.858L3974.92 469.391L3987.61 501.122L4002.82 538.839C4004.9 544.004 4009.91 547.386 4015.48 547.386H4132.1C4139.57 547.386 4144.55 539.667 4141.48 532.854C4141.45 532.854 4141.43 532.839 4141.42 532.816L4125.23 496.898L4034.11 294.769C4031.9 289.874 4027.03 286.727 4021.66 286.727H3958.95C3953.37 286.727 3948.35 290.124 3946.27 295.307L3863.14 503.011L3854.95 523.472C3854.83 523.764 3854.69 524.049 3854.55 524.326L3849.7 536.341Z" fill="#1F1F1A"/>
<path fill-rule="evenodd" clip-rule="evenodd" d="M4301.75 584.495C4299.62 579.211 4303.51 573.45 4309.21 573.45C4312.49 573.45 4315.44 575.445 4316.66 578.49L4324.47 597.896L4324.47 597.915L4335.24 624.68L4346 651.445L4351.71 665.978L4373.3 721.063C4377.8 732.533 4393.99 732.651 4398.65 721.248L4421.26 665.978L4426.96 651.445L4439.66 619.714L4454.87 581.997C4456.95 576.832 4461.96 573.45 4467.53 573.45H4584.14C4591.62 573.45 4596.6 581.169 4593.52 587.982C4593.5 587.982 4593.47 587.997 4593.46 588.02L4577.27 623.938L4486.16 826.067C4483.95 830.962 4479.08 834.109 4473.71 834.109H4411C4405.41 834.109 4400.39 830.712 4398.32 825.529L4315.18 617.825L4306.99 597.364C4306.87 597.072 4306.74 596.787 4306.59 596.51L4301.75 584.495Z" fill="#1F1F1A"/>
<path fill-rule="evenodd" clip-rule="evenodd" d="M4301.75 11.0459C4299.62 5.76222 4303.51 0.000701904 4309.21 0.000701904C4312.49 0.000701904 4315.44 1.99576 4316.66 5.04083L4324.47 24.4471L4324.47 24.4663L4335.24 51.2312L4346 77.9962L4351.71 92.5284L4373.3 147.614C4377.8 159.084 4393.99 159.202 4398.65 147.799L4421.26 92.5284L4426.96 77.9962L4439.66 46.2645L4454.87 8.54802C4456.95 3.38306 4461.96 0.000701904 4467.53 0.000701904H4584.14C4591.62 0.000701904 4596.6 7.71989 4593.52 14.5329C4593.5 14.5329 4593.47 14.5476 4593.46 14.5706L4577.27 50.4883L4486.16 252.618C4483.95 257.513 4479.08 260.66 4473.71 260.66H4411C4405.41 260.66 4400.39 257.262 4398.32 252.08L4315.18 44.3755L4306.99 23.9144C4306.87 23.6223 4306.74 23.3377 4306.59 23.0605L4301.75 11.0459Z" fill="#1F1F1A"/>
<path fill-rule="evenodd" clip-rule="evenodd" d="M4301.75 536.341C4299.62 541.624 4303.51 547.386 4309.21 547.386C4312.49 547.386 4315.44 545.391 4316.66 542.346L4324.47 522.94L4324.47 522.92L4335.24 496.156L4346 469.391L4351.71 454.858L4373.3 399.773C4377.8 388.303 4393.99 388.185 4398.65 399.588L4421.26 454.858L4426.96 469.391L4439.66 501.122L4454.87 538.839C4456.95 544.004 4461.96 547.386 4467.53 547.386H4584.14C4591.62 547.386 4596.6 539.667 4593.52 532.854C4593.5 532.854 4593.47 532.839 4593.46 532.816L4577.27 496.898L4486.16 294.769C4483.95 289.874 4479.08 286.727 4473.71 286.727H4411C4405.41 286.727 4400.39 290.124 4398.32 295.307L4315.18 503.011L4306.99 523.472C4306.87 523.764 4306.74 524.049 4306.59 524.326L4301.75 536.341Z" fill="#1F1F1A"/>
<path fill-rule="evenodd" clip-rule="evenodd" d="M1814.06 823.067C1811.93 828.351 1815.82 834.113 1821.52 834.113C1824.8 834.113 1827.75 832.118 1828.98 829.072L1836.78 809.666L1836.79 809.647L1847.55 782.882L1858.31 756.117L1864.02 741.585L1885.62 686.499C1890.11 675.03 1906.3 674.911 1910.96 686.314L1933.57 741.585L1939.27 756.117L1951.97 787.849L1967.18 825.565C1969.26 830.73 1974.27 834.113 1979.84 834.113H2096.46C2103.93 834.113 2108.91 826.393 2105.84 819.58C2105.81 819.58 2105.79 819.566 2105.78 819.543L2089.59 783.625L1998.47 581.496C1996.26 576.6 1991.39 573.453 1986.02 573.453H1923.31C1917.73 573.453 1912.71 576.851 1910.63 582.033L1827.5 789.738L1819.31 810.199C1819.19 810.491 1819.05 810.776 1818.9 811.053L1814.06 823.067Z" fill="#1F1F1A"/>
<path fill-rule="evenodd" clip-rule="evenodd" d="M1814.06 249.614C1811.93 254.898 1815.82 260.659 1821.52 260.659C1824.8 260.659 1827.75 258.664 1828.98 255.619L1836.78 236.213L1836.79 236.194L1847.55 209.429L1858.31 182.664L1864.02 168.132L1885.62 113.046C1890.11 101.576 1906.3 101.458 1910.96 112.861L1933.57 168.132L1939.27 182.664L1951.97 214.396L1967.18 252.112C1969.26 257.277 1974.27 260.659 1979.84 260.659H2096.46C2103.93 260.659 2108.91 252.94 2105.84 246.127C2105.81 246.127 2105.79 246.113 2105.78 246.09L2089.59 210.172L1998.47 8.04259C1996.26 3.14732 1991.39 0 1986.02 0H1923.31C1917.73 0 1912.71 3.39779 1910.63 8.58007L1827.5 216.285L1819.31 236.746C1819.19 237.038 1819.05 237.322 1818.9 237.6L1814.06 249.614Z" fill="#1F1F1A"/>
<path fill-rule="evenodd" clip-rule="evenodd" d="M1814.06 297.769C1811.93 292.485 1815.82 286.723 1821.52 286.723C1824.8 286.723 1827.75 288.718 1828.98 291.763L1836.78 311.17L1836.79 311.189L1847.55 337.954L1858.31 364.719L1864.02 379.251L1885.62 434.337C1890.11 445.806 1906.3 445.925 1910.96 434.522L1933.57 379.251L1939.27 364.719L1951.97 332.987L1967.18 295.271C1969.26 290.106 1974.27 286.723 1979.84 286.723H2096.46C2103.93 286.723 2108.91 294.443 2105.84 301.256C2105.81 301.256 2105.79 301.27 2105.78 301.293L2089.59 337.211L1998.47 539.34C1996.26 544.235 1991.39 547.383 1986.02 547.383H1923.31C1917.73 547.383 1912.71 543.985 1910.63 538.803L1827.5 331.098L1819.31 310.637C1819.19 310.345 1819.05 310.06 1818.9 309.783L1814.06 297.769Z" fill="#1F1F1A"/>
<path fill-rule="evenodd" clip-rule="evenodd" d="M2266.11 823.067C2263.98 828.351 2267.87 834.113 2273.57 834.113C2276.85 834.113 2279.8 832.118 2281.02 829.072L2288.83 809.666L2288.83 809.647L2299.6 782.882L2310.36 756.117L2316.07 741.585L2337.66 686.499C2342.16 675.03 2358.35 674.911 2363.01 686.314L2385.62 741.585L2391.32 756.117L2404.02 787.849L2419.23 825.565C2421.31 830.73 2426.32 834.113 2431.89 834.113H2548.5C2555.98 834.113 2560.96 826.393 2557.88 819.58C2557.86 819.58 2557.83 819.566 2557.82 819.543L2541.63 783.625L2450.51 581.496C2448.31 576.6 2443.44 573.453 2438.07 573.453H2375.36C2369.77 573.453 2364.75 576.851 2362.68 582.033L2279.54 789.738L2271.35 810.199C2271.23 810.491 2271.1 810.776 2270.95 811.053L2266.11 823.067Z" fill="#1F1F1A"/>
<path fill-rule="evenodd" clip-rule="evenodd" d="M2266.11 249.614C2263.98 254.898 2267.87 260.659 2273.57 260.659C2276.85 260.659 2279.8 258.664 2281.02 255.619L2288.83 236.213L2288.83 236.194L2299.6 209.429L2310.36 182.664L2316.07 168.132L2337.66 113.046C2342.16 101.576 2358.35 101.458 2363.01 112.861L2385.62 168.132L2391.32 182.664L2404.02 214.396L2419.23 252.112C2421.31 257.277 2426.32 260.659 2431.89 260.659H2548.5C2555.98 260.659 2560.96 252.94 2557.88 246.127C2557.86 246.127 2557.83 246.113 2557.82 246.09L2541.63 210.172L2450.51 8.04259C2448.31 3.14732 2443.44 0 2438.07 0H2375.36C2369.77 0 2364.75 3.39779 2362.68 8.58007L2279.54 216.285L2271.35 236.746C2271.23 237.038 2271.1 237.322 2270.95 237.6L2266.11 249.614Z" fill="#1F1F1A"/>
<path fill-rule="evenodd" clip-rule="evenodd" d="M2266.11 297.769C2263.98 292.485 2267.87 286.723 2273.57 286.723C2276.85 286.723 2279.8 288.718 2281.02 291.763L2288.83 311.17L2288.83 311.189L2299.6 337.954L2310.36 364.719L2316.07 379.251L2337.66 434.337C2342.16 445.806 2358.35 445.925 2363.01 434.522L2385.62 379.251L2391.32 364.719L2404.02 332.987L2419.23 295.271C2421.31 290.106 2426.32 286.723 2431.89 286.723H2548.5C2555.98 286.723 2560.96 294.443 2557.88 301.256C2557.86 301.256 2557.83 301.27 2557.82 301.293L2541.63 337.211L2450.51 539.34C2448.31 544.235 2443.44 547.383 2438.07 547.383H2375.36C2369.77 547.383 2364.75 543.985 2362.68 538.803L2279.54 331.098L2271.35 310.637C2271.23 310.345 2271.1 310.06 2270.95 309.783L2266.11 297.769Z" fill="#1F1F1A"/>
<path fill-rule="evenodd" clip-rule="evenodd" d="M2040.09 584.495C2037.96 579.211 2041.84 573.45 2047.54 573.45C2050.82 573.45 2053.78 575.445 2055 578.49L2062.8 597.896L2062.81 597.915L2073.57 624.68L2084.34 651.445L2090.04 665.978L2111.64 721.063C2116.14 732.533 2132.32 732.651 2136.99 721.248L2159.59 665.978L2165.3 651.445L2177.99 619.714L2193.2 581.997C2195.29 576.832 2200.3 573.45 2205.87 573.45H2322.48C2329.96 573.45 2334.94 581.169 2331.86 587.982C2331.83 587.982 2331.81 587.997 2331.8 588.02L2315.61 623.938L2224.49 826.067C2222.28 830.962 2217.41 834.109 2212.04 834.109H2149.33C2143.75 834.109 2138.73 830.712 2136.66 825.529L2053.52 617.825L2045.33 597.364C2045.21 597.072 2045.08 596.787 2044.93 596.51L2040.09 584.495Z" fill="#1F1F1A"/>
<path fill-rule="evenodd" clip-rule="evenodd" d="M2040.09 11.0459C2037.96 5.76222 2041.84 0.000701904 2047.54 0.000701904C2050.82 0.000701904 2053.78 1.99576 2055 5.04083L2062.8 24.4471L2062.81 24.4663L2073.57 51.2312L2084.34 77.9962L2090.04 92.5284L2111.64 147.614C2116.14 159.084 2132.32 159.202 2136.99 147.799L2159.59 92.5284L2165.3 77.9962L2177.99 46.2645L2193.2 8.54802C2195.29 3.38306 2200.3 0.000701904 2205.87 0.000701904H2322.48C2329.96 0.000701904 2334.94 7.71989 2331.86 14.5329C2331.83 14.5329 2331.81 14.5476 2331.8 14.5706L2315.61 50.4883L2224.49 252.618C2222.28 257.513 2217.41 260.66 2212.04 260.66H2149.33C2143.75 260.66 2138.73 257.262 2136.66 252.08L2053.52 44.3755L2045.33 23.9144C2045.21 23.6223 2045.08 23.3377 2044.93 23.0605L2040.09 11.0459Z" fill="#1F1F1A"/>
<path fill-rule="evenodd" clip-rule="evenodd" d="M2040.09 536.341C2037.96 541.624 2041.84 547.386 2047.54 547.386C2050.82 547.386 2053.78 545.391 2055 542.346L2062.8 522.94L2062.81 522.92L2073.57 496.156L2084.34 469.391L2090.04 454.858L2111.64 399.773C2116.14 388.303 2132.32 388.185 2136.99 399.588L2159.59 454.858L2165.3 469.391L2177.99 501.122L2193.2 538.839C2195.29 544.004 2200.3 547.386 2205.87 547.386H2322.48C2329.96 547.386 2334.94 539.667 2331.86 532.854C2331.83 532.854 2331.81 532.839 2331.8 532.816L2315.61 496.898L2224.49 294.769C2222.28 289.874 2217.41 286.727 2212.04 286.727H2149.33C2143.75 286.727 2138.73 290.124 2136.66 295.307L2053.52 503.011L2045.33 523.472C2045.21 523.764 2045.08 524.049 2044.93 524.326L2040.09 536.341Z" fill="#1F1F1A"/>
<path fill-rule="evenodd" clip-rule="evenodd" d="M2492.13 584.495C2490 579.211 2493.89 573.45 2499.59 573.45C2502.87 573.45 2505.82 575.445 2507.05 578.49L2514.85 597.896L2514.86 597.915L2525.62 624.68L2536.39 651.445L2542.09 665.978L2563.69 721.063C2568.18 732.533 2584.37 732.651 2589.03 721.248L2611.64 665.978L2617.34 651.445L2630.04 619.714L2645.25 581.997C2647.33 576.832 2652.34 573.45 2657.91 573.45H2774.53C2782 573.45 2786.98 581.169 2783.91 587.982C2783.88 587.982 2783.86 587.997 2783.85 588.02L2767.66 623.938L2676.54 826.067C2674.33 830.962 2669.46 834.109 2664.09 834.109H2601.38C2595.8 834.109 2590.78 830.712 2588.7 825.529L2505.57 617.825L2497.38 597.364C2497.26 597.072 2497.12 596.787 2496.98 596.51L2492.13 584.495Z" fill="#1F1F1A"/>
<path fill-rule="evenodd" clip-rule="evenodd" d="M2492.13 11.0459C2490 5.76222 2493.89 0.000701904 2499.59 0.000701904C2502.87 0.000701904 2505.82 1.99576 2507.05 5.04083L2514.85 24.4471L2514.86 24.4663L2525.62 51.2312L2536.39 77.9962L2542.09 92.5284L2563.69 147.614C2568.18 159.084 2584.37 159.202 2589.03 147.799L2611.64 92.5284L2617.34 77.9962L2630.04 46.2645L2645.25 8.54802C2647.33 3.38306 2652.34 0.000701904 2657.91 0.000701904H2774.53C2782 0.000701904 2786.98 7.71989 2783.91 14.5329C2783.88 14.5329 2783.86 14.5476 2783.85 14.5706L2767.66 50.4883L2676.54 252.618C2674.33 257.513 2669.46 260.66 2664.09 260.66H2601.38C2595.8 260.66 2590.78 257.262 2588.7 252.08L2505.57 44.3755L2497.38 23.9144C2497.26 23.6223 2497.12 23.3377 2496.98 23.0605L2492.13 11.0459Z" fill="#1F1F1A"/>
<path fill-rule="evenodd" clip-rule="evenodd" d="M2492.13 536.341C2490 541.624 2493.89 547.386 2499.59 547.386C2502.87 547.386 2505.82 545.391 2507.05 542.346L2514.85 522.94L2514.86 522.92L2525.62 496.156L2536.39 469.391L2542.09 454.858L2563.69 399.773C2568.18 388.303 2584.37 388.185 2589.03 399.588L2611.64 454.858L2617.34 469.391L2630.04 501.122L2645.25 538.839C2647.33 544.004 2652.34 547.386 2657.91 547.386H2774.53C2782 547.386 2786.98 539.667 2783.91 532.854C2783.88 532.854 2783.86 532.839 2783.85 532.816L2767.66 496.898L2676.54 294.769C2674.33 289.874 2669.46 286.727 2664.09 286.727H2601.38C2595.8 286.727 2590.78 290.124 2588.7 295.307L2505.57 503.011L2497.38 523.472C2497.26 523.764 2497.12 524.049 2496.98 524.326L2492.13 536.341Z" fill="#1F1F1A"/>
<path fill-rule="evenodd" clip-rule="evenodd" d="M5433.29 823.067C5431.16 828.351 5435.05 834.113 5440.74 834.113C5444.03 834.113 5446.98 832.118 5448.2 829.072L5456.01 809.666L5456.01 809.647L5466.78 782.882L5477.54 756.117L5483.25 741.585L5504.84 686.499C5509.34 675.03 5525.53 674.911 5530.19 686.314L5552.8 741.585L5558.5 756.117L5571.2 787.849L5586.41 825.565C5588.49 830.73 5593.5 834.113 5599.07 834.113H5715.68C5723.16 834.113 5728.14 826.393 5725.06 819.58C5725.04 819.58 5725.01 819.566 5725 819.543L5708.81 783.625L5617.69 581.496C5615.49 576.6 5610.62 573.453 5605.25 573.453H5542.54C5536.95 573.453 5531.93 576.851 5529.86 582.033L5446.72 789.738L5438.53 810.199C5438.41 810.491 5438.28 810.776 5438.13 811.053L5433.29 823.067Z" fill="#1F1F1A"/>
<path fill-rule="evenodd" clip-rule="evenodd" d="M5433.29 249.614C5431.16 254.898 5435.05 260.659 5440.74 260.659C5444.03 260.659 5446.98 258.664 5448.2 255.619L5456.01 236.213L5456.01 236.194L5466.78 209.429L5477.54 182.664L5483.25 168.132L5504.84 113.046C5509.34 101.576 5525.53 101.458 5530.19 112.861L5552.8 168.132L5558.5 182.664L5571.2 214.396L5586.41 252.112C5588.49 257.277 5593.5 260.659 5599.07 260.659H5715.68C5723.16 260.659 5728.14 252.94 5725.06 246.127C5725.04 246.127 5725.01 246.113 5725 246.09L5708.81 210.172L5617.69 8.04259C5615.49 3.14732 5610.62 0 5605.25 0H5542.54C5536.95 0 5531.93 3.39779 5529.86 8.58007L5446.72 216.285L5438.53 236.746C5438.41 237.038 5438.28 237.322 5438.13 237.6L5433.29 249.614Z" fill="#1F1F1A"/>
<path fill-rule="evenodd" clip-rule="evenodd" d="M5433.29 297.769C5431.16 292.485 5435.05 286.723 5440.74 286.723C5444.03 286.723 5446.98 288.718 5448.2 291.763L5456.01 311.17L5456.01 311.189L5466.78 337.954L5477.54 364.719L5483.25 379.251L5504.84 434.337C5509.34 445.806 5525.53 445.925 5530.19 434.522L5552.8 379.251L5558.5 364.719L5571.2 332.987L5586.41 295.271C5588.49 290.106 5593.5 286.723 5599.07 286.723H5715.68C5723.16 286.723 5728.14 294.443 5725.06 301.256C5725.04 301.256 5725.01 301.27 5725 301.293L5708.81 337.211L5617.69 539.34C5615.49 544.235 5610.62 547.383 5605.25 547.383H5542.54C5536.95 547.383 5531.93 543.985 5529.86 538.803L5446.72 331.098L5438.53 310.637C5438.41 310.345 5438.28 310.06 5438.13 309.783L5433.29 297.769Z" fill="#1F1F1A"/>
<path fill-rule="evenodd" clip-rule="evenodd" d="M5885.34 823.067C5883.21 828.351 5887.09 834.113 5892.79 834.113C5896.07 834.113 5899.03 832.118 5900.25 829.072L5908.05 809.666L5908.06 809.647L5918.82 782.882L5929.59 756.117L5935.29 741.585L5956.89 686.499C5961.39 675.03 5977.57 674.911 5982.24 686.314L6004.84 741.585L6010.55 756.117L6023.24 787.849L6038.45 825.565C6040.54 830.73 6045.55 834.113 6051.12 834.113H6167.73C6175.21 834.113 6180.19 826.393 6177.11 819.58C6177.08 819.58 6177.06 819.566 6177.05 819.543L6160.86 783.625L6069.74 581.496C6067.53 576.6 6062.66 573.453 6057.29 573.453H5994.58C5989 573.453 5983.98 576.851 5981.91 582.033L5898.77 789.738L5890.58 810.199C5890.46 810.491 5890.33 810.776 5890.18 811.053L5885.34 823.067Z" fill="#1F1F1A"/>
<path fill-rule="evenodd" clip-rule="evenodd" d="M5885.34 249.614C5883.21 254.898 5887.09 260.659 5892.79 260.659C5896.07 260.659 5899.03 258.664 5900.25 255.619L5908.05 236.213L5908.06 236.194L5918.82 209.429L5929.59 182.664L5935.29 168.132L5956.89 113.046C5961.39 101.576 5977.57 101.458 5982.24 112.861L6004.84 168.132L6010.55 182.664L6023.24 214.396L6038.45 252.112C6040.54 257.277 6045.55 260.659 6051.12 260.659H6167.73C6175.21 260.659 6180.19 252.94 6177.11 246.127C6177.08 246.127 6177.06 246.113 6177.05 246.09L6160.86 210.172L6069.74 8.04259C6067.53 3.14732 6062.66 0 6057.29 0H5994.58C5989 0 5983.98 3.39779 5981.91 8.58007L5898.77 216.285L5890.58 236.746C5890.46 237.038 5890.33 237.322 5890.18 237.6L5885.34 249.614Z" fill="#1F1F1A"/>
<path fill-rule="evenodd" clip-rule="evenodd" d="M5885.34 297.769C5883.21 292.485 5887.09 286.723 5892.79 286.723C5896.07 286.723 5899.03 288.718 5900.25 291.763L5908.05 311.17L5908.06 311.189L5918.82 337.954L5929.59 364.719L5935.29 379.251L5956.89 434.337C5961.39 445.806 5977.57 445.925 5982.24 434.522L6004.84 379.251L6010.55 364.719L6023.24 332.987L6038.45 295.271C6040.54 290.106 6045.55 286.723 6051.12 286.723H6167.73C6175.21 286.723 6180.19 294.443 6177.11 301.256C6177.08 301.256 6177.06 301.27 6177.05 301.293L6160.86 337.211L6069.74 539.34C6067.53 544.235 6062.66 547.383 6057.29 547.383H5994.58C5989 547.383 5983.98 543.985 5981.91 538.803L5898.77 331.098L5890.58 310.637C5890.46 310.345 5890.33 310.06 5890.18 309.783L5885.34 297.769Z" fill="#1F1F1A"/>
<path fill-rule="evenodd" clip-rule="evenodd" d="M5659.31 584.495C5657.18 579.211 5661.07 573.45 5666.77 573.45C5670.05 573.45 5673 575.445 5674.23 578.49L5682.03 597.896L5682.04 597.915L5692.8 624.68L5703.56 651.445L5709.27 665.978L5730.87 721.063C5735.36 732.533 5751.55 732.651 5756.21 721.248L5778.82 665.978L5784.52 651.445L5797.22 619.714L5812.43 581.997C5814.51 576.832 5819.52 573.45 5825.09 573.45H5941.71C5949.18 573.45 5954.16 581.169 5951.09 587.982C5951.06 587.982 5951.04 587.997 5951.03 588.02L5934.84 623.938L5843.72 826.067C5841.51 830.962 5836.64 834.109 5831.27 834.109H5768.56C5762.98 834.109 5757.96 830.712 5755.88 825.529L5672.75 617.825L5664.56 597.364C5664.44 597.072 5664.3 596.787 5664.15 596.51L5659.31 584.495Z" fill="#1F1F1A"/>
<path fill-rule="evenodd" clip-rule="evenodd" d="M5659.32 11.0459C5657.19 5.76222 5661.08 0.000701904 5666.78 0.000701904C5670.06 0.000701904 5673.01 1.99576 5674.24 5.04083L5682.04 24.4471L5682.04 24.4663L5692.81 51.2312L5703.57 77.9962L5709.28 92.5284L5730.87 147.614C5735.37 159.084 5751.56 159.202 5756.22 147.799L5778.83 92.5284L5784.53 77.9962L5797.23 46.2645L5812.44 8.54802C5814.52 3.38306 5819.53 0.000701904 5825.1 0.000701904H5941.71C5949.19 0.000701904 5954.17 7.71989 5951.09 14.5329C5951.07 14.5329 5951.04 14.5476 5951.03 14.5706L5934.84 50.4883L5843.73 252.618C5841.52 257.513 5836.65 260.66 5831.28 260.66H5768.57C5762.98 260.66 5757.96 257.262 5755.89 252.08L5672.75 44.3755L5664.57 23.9144C5664.44 23.6223 5664.31 23.3377 5664.16 23.0605L5659.32 11.0459Z" fill="#1F1F1A"/>
<path fill-rule="evenodd" clip-rule="evenodd" d="M5659.31 536.341C5657.18 541.624 5661.07 547.386 5666.77 547.386C5670.05 547.386 5673 545.391 5674.23 542.346L5682.03 522.94L5682.04 522.92L5692.8 496.156L5703.56 469.391L5709.27 454.858L5730.87 399.773C5735.36 388.303 5751.55 388.185 5756.21 399.588L5778.82 454.858L5784.52 469.391L5797.22 501.122L5812.43 538.839C5814.51 544.004 5819.52 547.386 5825.09 547.386H5941.71C5949.18 547.386 5954.16 539.667 5951.09 532.854C5951.06 532.854 5951.04 532.839 5951.03 532.816L5934.84 496.898L5843.72 294.769C5841.51 289.874 5836.64 286.727 5831.27 286.727H5768.56C5762.98 286.727 5757.96 290.124 5755.88 295.307L5672.75 503.011L5664.56 523.472C5664.44 523.764 5664.3 524.049 5664.15 524.326L5659.31 536.341Z" fill="#1F1F1A"/>
<path fill-rule="evenodd" clip-rule="evenodd" d="M6111.36 584.495C6109.23 579.211 6113.12 573.45 6118.82 573.45C6122.1 573.45 6125.05 575.445 6126.27 578.49L6134.08 597.896L6134.08 597.915L6144.85 624.68L6155.61 651.445L6161.32 665.978L6182.91 721.063C6187.41 732.533 6203.6 732.651 6208.26 721.248L6230.87 665.978L6236.57 651.445L6249.27 619.714L6264.48 581.997C6266.56 576.832 6271.57 573.45 6277.14 573.45H6393.75C6401.23 573.45 6406.21 581.169 6403.13 587.982C6403.11 587.982 6403.08 587.997 6403.07 588.02L6386.88 623.938L6295.76 826.067C6293.56 830.962 6288.69 834.109 6283.32 834.109H6220.61C6215.02 834.109 6210 830.712 6207.93 825.529L6124.79 617.825L6116.6 597.364C6116.48 597.072 6116.35 596.787 6116.2 596.51L6111.36 584.495Z" fill="#1F1F1A"/>
<path fill-rule="evenodd" clip-rule="evenodd" d="M6111.36 11.0459C6109.23 5.76222 6113.12 0.000701904 6118.82 0.000701904C6122.1 0.000701904 6125.05 1.99576 6126.27 5.04083L6134.08 24.4471L6134.08 24.4663L6144.85 51.2312L6155.61 77.9962L6161.32 92.5284L6182.91 147.614C6187.41 159.084 6203.6 159.202 6208.26 147.799L6230.87 92.5284L6236.57 77.9962L6249.27 46.2645L6264.48 8.54802C6266.56 3.38306 6271.57 0.000701904 6277.14 0.000701904H6393.75C6401.23 0.000701904 6406.21 7.71989 6403.13 14.5329C6403.11 14.5329 6403.08 14.5476 6403.07 14.5706L6386.88 50.4883L6295.76 252.618C6293.56 257.513 6288.69 260.66 6283.32 260.66H6220.61C6215.02 260.66 6210 257.262 6207.93 252.08L6124.79 44.3755L6116.6 23.9144C6116.48 23.6223 6116.35 23.3377 6116.2 23.0605L6111.36 11.0459Z" fill="#1F1F1A"/>
<path fill-rule="evenodd" clip-rule="evenodd" d="M6111.36 536.341C6109.23 541.624 6113.12 547.386 6118.82 547.386C6122.1 547.386 6125.05 545.391 6126.27 542.346L6134.08 522.94L6134.08 522.92L6144.85 496.156L6155.61 469.391L6161.32 454.858L6182.91 399.773C6187.41 388.303 6203.6 388.185 6208.26 399.588L6230.87 454.858L6236.57 469.391L6249.27 501.122L6264.48 538.839C6266.56 544.004 6271.57 547.386 6277.14 547.386H6393.75C6401.23 547.386 6406.21 539.667 6403.13 532.854C6403.11 532.854 6403.08 532.839 6403.07 532.816L6386.88 496.898L6295.76 294.769C6293.56 289.874 6288.69 286.727 6283.32 286.727H6220.61C6215.02 286.727 6210 290.124 6207.93 295.307L6124.79 503.011L6116.6 523.472C6116.48 523.764 6116.35 524.049 6116.2 524.326L6111.36 536.341Z" fill="#1F1F1A"/>
<path fill-rule="evenodd" clip-rule="evenodd" d="M908.749 823.067C906.619 828.351 910.509 834.113 916.206 834.113C919.488 834.113 922.44 832.118 923.665 829.072L931.468 809.666L931.475 809.647L942.239 782.882L953.002 756.117L958.706 741.585L980.303 686.499C984.799 675.03 1000.99 674.911 1005.65 686.314L1028.26 741.585L1033.96 756.117L1046.66 787.849L1061.87 825.565C1063.95 830.73 1068.96 834.113 1074.53 834.113H1191.14C1198.62 834.113 1203.6 826.393 1200.52 819.58C1200.5 819.58 1200.47 819.566 1200.46 819.543L1184.27 783.625L1093.16 581.496C1090.95 576.6 1086.08 573.453 1080.71 573.453H1018C1012.41 573.453 1007.39 576.851 1005.32 582.033L922.184 789.738L913.995 810.199C913.874 810.491 913.74 810.776 913.592 811.053L908.749 823.067Z" fill="#1F1F1A"/>
<path fill-rule="evenodd" clip-rule="evenodd" d="M908.749 249.614C906.619 254.898 910.509 260.659 916.206 260.659C919.488 260.659 922.44 258.664 923.665 255.619L931.468 236.213L931.475 236.194L942.239 209.429L953.002 182.664L958.706 168.132L980.303 113.046C984.799 101.576 1000.99 101.458 1005.65 112.861L1028.26 168.132L1033.96 182.664L1046.66 214.396L1061.87 252.112C1063.95 257.277 1068.96 260.659 1074.53 260.659H1191.14C1198.62 260.659 1203.6 252.94 1200.52 246.127C1200.5 246.127 1200.47 246.113 1200.46 246.09L1184.27 210.172L1093.16 8.04259C1090.95 3.14732 1086.08 0 1080.71 0H1018C1012.41 0 1007.39 3.39779 1005.32 8.58007L922.184 216.285L913.995 236.746C913.874 237.038 913.74 237.322 913.592 237.6L908.749 249.614Z" fill="#1F1F1A"/>
<path fill-rule="evenodd" clip-rule="evenodd" d="M908.749 297.769C906.619 292.485 910.509 286.723 916.206 286.723C919.488 286.723 922.44 288.718 923.665 291.763L931.468 311.17L931.475 311.189L942.239 337.954L953.002 364.719L958.706 379.251L980.303 434.337C984.799 445.806 1000.99 445.925 1005.65 434.522L1028.26 379.251L1033.96 364.719L1046.66 332.987L1061.87 295.271C1063.95 290.106 1068.96 286.723 1074.53 286.723H1191.14C1198.62 286.723 1203.6 294.443 1200.52 301.256C1200.5 301.256 1200.47 301.27 1200.46 301.293L1184.27 337.211L1093.16 539.34C1090.95 544.235 1086.08 547.383 1080.71 547.383H1018C1012.41 547.383 1007.39 543.985 1005.32 538.803L922.184 331.098L913.995 310.637C913.874 310.345 913.74 310.06 913.592 309.783L908.749 297.769Z" fill="#1F1F1A"/>
<path fill-rule="evenodd" clip-rule="evenodd" d="M1360.8 823.067C1358.67 828.351 1362.56 834.113 1368.25 834.113C1371.53 834.113 1374.49 832.118 1375.71 829.072L1383.52 809.666L1383.52 809.647L1394.29 782.882L1405.05 756.117L1410.75 741.585L1432.35 686.499C1436.85 675.03 1453.04 674.911 1457.7 686.314L1480.3 741.585L1486.01 756.117L1498.7 787.849L1513.91 825.565C1516 830.73 1521.01 834.113 1526.58 834.113H1643.19C1650.67 834.113 1655.65 826.393 1652.57 819.58C1652.54 819.58 1652.52 819.566 1652.51 819.543L1636.32 783.625L1545.2 581.496C1543 576.6 1538.12 573.453 1532.75 573.453H1470.04C1464.46 573.453 1459.44 576.851 1457.37 582.033L1374.23 789.738L1366.04 810.199C1365.92 810.491 1365.79 810.776 1365.64 811.053L1360.8 823.067Z" fill="#1F1F1A"/>
<path fill-rule="evenodd" clip-rule="evenodd" d="M1360.8 249.614C1358.67 254.898 1362.56 260.659 1368.25 260.659C1371.53 260.659 1374.49 258.664 1375.71 255.619L1383.52 236.213L1383.52 236.194L1394.29 209.429L1405.05 182.664L1410.75 168.132L1432.35 113.046C1436.85 101.576 1453.04 101.458 1457.7 112.861L1480.3 168.132L1486.01 182.664L1498.7 214.396L1513.91 252.112C1516 257.277 1521.01 260.659 1526.58 260.659H1643.19C1650.67 260.659 1655.65 252.94 1652.57 246.127C1652.54 246.127 1652.52 246.113 1652.51 246.09L1636.32 210.172L1545.2 8.04259C1543 3.14732 1538.12 0 1532.75 0H1470.04C1464.46 0 1459.44 3.39779 1457.37 8.58007L1374.23 216.285L1366.04 236.746C1365.92 237.038 1365.79 237.322 1365.64 237.6L1360.8 249.614Z" fill="#1F1F1A"/>
<path fill-rule="evenodd" clip-rule="evenodd" d="M1360.8 297.769C1358.67 292.485 1362.56 286.723 1368.25 286.723C1371.53 286.723 1374.49 288.718 1375.71 291.763L1383.52 311.17L1383.52 311.189L1394.29 337.954L1405.05 364.719L1410.75 379.251L1432.35 434.337C1436.85 445.806 1453.04 445.925 1457.7 434.522L1480.3 379.251L1486.01 364.719L1498.7 332.987L1513.91 295.271C1516 290.106 1521.01 286.723 1526.58 286.723H1643.19C1650.67 286.723 1655.65 294.443 1652.57 301.256C1652.54 301.256 1652.52 301.27 1652.51 301.293L1636.32 337.211L1545.2 539.34C1543 544.235 1538.12 547.383 1532.75 547.383H1470.04C1464.46 547.383 1459.44 543.985 1457.37 538.803L1374.23 331.098L1366.04 310.637C1365.92 310.345 1365.79 310.06 1365.64 309.783L1360.8 297.769Z" fill="#1F1F1A"/>
<path fill-rule="evenodd" clip-rule="evenodd" d="M1134.77 584.495C1132.64 579.211 1136.53 573.45 1142.23 573.45C1145.51 573.45 1148.46 575.445 1149.69 578.49L1157.49 597.896L1157.5 597.915L1168.26 624.68L1179.03 651.445L1184.73 665.978L1206.33 721.063C1210.82 732.533 1227.01 732.651 1231.68 721.248L1254.28 665.978L1259.99 651.445L1272.68 619.714L1287.89 581.997C1289.97 576.832 1294.98 573.45 1300.55 573.45H1417.17C1424.64 573.45 1429.63 581.169 1426.55 587.982C1426.52 587.982 1426.5 587.997 1426.49 588.02L1410.3 623.938L1319.18 826.067C1316.97 830.962 1312.1 834.109 1306.73 834.109H1244.02C1238.44 834.109 1233.42 830.712 1231.34 825.529L1148.21 617.825L1140.02 597.364C1139.9 597.072 1139.76 596.787 1139.62 596.51L1134.77 584.495Z" fill="#1F1F1A"/>
<path fill-rule="evenodd" clip-rule="evenodd" d="M1134.77 11.0459C1132.64 5.76222 1136.53 0.000701904 1142.23 0.000701904C1145.51 0.000701904 1148.46 1.99576 1149.69 5.04083L1157.49 24.4471L1157.5 24.4663L1168.26 51.2312L1179.03 77.9962L1184.73 92.5284L1206.33 147.614C1210.82 159.084 1227.01 159.202 1231.68 147.799L1254.28 92.5284L1259.99 77.9962L1272.68 46.2645L1287.89 8.54802C1289.97 3.38306 1294.98 0.000701904 1300.55 0.000701904H1417.17C1424.64 0.000701904 1429.63 7.71989 1426.55 14.5329C1426.52 14.5329 1426.5 14.5476 1426.49 14.5706L1410.3 50.4883L1319.18 252.618C1316.97 257.513 1312.1 260.66 1306.73 260.66H1244.02C1238.44 260.66 1233.42 257.262 1231.34 252.08L1148.21 44.3755L1140.02 23.9144C1139.9 23.6223 1139.76 23.3377 1139.62 23.0605L1134.77 11.0459Z" fill="#1F1F1A"/>
<path fill-rule="evenodd" clip-rule="evenodd" d="M1134.77 536.341C1132.64 541.624 1136.53 547.386 1142.23 547.386C1145.51 547.386 1148.46 545.391 1149.69 542.346L1157.49 522.94L1157.5 522.92L1168.26 496.156L1179.03 469.391L1184.73 454.858L1206.33 399.773C1210.82 388.303 1227.01 388.185 1231.68 399.588L1254.28 454.858L1259.99 469.391L1272.68 501.122L1287.89 538.839C1289.97 544.004 1294.98 547.386 1300.55 547.386H1417.17C1424.64 547.386 1429.63 539.667 1426.55 532.854C1426.52 532.854 1426.5 532.839 1426.49 532.816L1410.3 496.898L1319.18 294.769C1316.97 289.874 1312.1 286.727 1306.73 286.727H1244.02C1238.44 286.727 1233.42 290.124 1231.34 295.307L1148.21 503.011L1140.02 523.472C1139.9 523.764 1139.76 524.049 1139.62 524.326L1134.77 536.341Z" fill="#1F1F1A"/>
<path fill-rule="evenodd" clip-rule="evenodd" d="M1586.82 584.495C1584.69 579.211 1588.58 573.45 1594.28 573.45C1597.56 573.45 1600.51 575.445 1601.74 578.49L1609.54 597.896L1609.54 597.915L1620.31 624.68L1631.07 651.445L1636.78 665.978L1658.37 721.063C1662.87 732.533 1679.06 732.651 1683.72 721.248L1706.33 665.978L1712.03 651.445L1724.73 619.714L1739.94 581.997C1742.02 576.832 1747.03 573.45 1752.6 573.45H1869.21C1876.69 573.45 1881.67 581.169 1878.59 587.982C1878.57 587.982 1878.54 587.997 1878.53 588.02L1862.34 623.938L1771.23 826.067C1769.02 830.962 1764.15 834.109 1758.78 834.109H1696.07C1690.48 834.109 1685.46 830.712 1683.39 825.529L1600.25 617.825L1592.07 597.364C1591.94 597.072 1591.81 596.787 1591.66 596.51L1586.82 584.495Z" fill="#1F1F1A"/>
<path fill-rule="evenodd" clip-rule="evenodd" d="M1586.82 11.0459C1584.69 5.76222 1588.58 0.000701904 1594.28 0.000701904C1597.56 0.000701904 1600.51 1.99576 1601.74 5.04083L1609.54 24.4471L1609.54 24.4663L1620.31 51.2312L1631.07 77.9962L1636.78 92.5284L1658.37 147.614C1662.87 159.084 1679.06 159.202 1683.72 147.799L1706.33 92.5284L1712.03 77.9962L1724.73 46.2645L1739.94 8.54802C1742.02 3.38306 1747.03 0.000701904 1752.6 0.000701904H1869.21C1876.69 0.000701904 1881.67 7.71989 1878.59 14.5329C1878.57 14.5329 1878.54 14.5476 1878.53 14.5706L1862.34 50.4883L1771.23 252.618C1769.02 257.513 1764.15 260.66 1758.78 260.66H1696.07C1690.48 260.66 1685.46 257.262 1683.39 252.08L1600.25 44.3755L1592.07 23.9144C1591.94 23.6223 1591.81 23.3377 1591.66 23.0605L1586.82 11.0459Z" fill="#1F1F1A"/>
<path fill-rule="evenodd" clip-rule="evenodd" d="M1586.82 536.341C1584.69 541.624 1588.58 547.386 1594.28 547.386C1597.56 547.386 1600.51 545.391 1601.74 542.346L1609.54 522.94L1609.54 522.92L1620.31 496.156L1631.07 469.391L1636.78 454.858L1658.37 399.773C1662.87 388.303 1679.06 388.185 1683.72 399.588L1706.33 454.858L1712.03 469.391L1724.73 501.122L1739.94 538.839C1742.02 544.004 1747.03 547.386 1752.6 547.386H1869.21C1876.69 547.386 1881.67 539.667 1878.59 532.854C1878.57 532.854 1878.54 532.839 1878.53 532.816L1862.34 496.898L1771.23 294.769C1769.02 289.874 1764.15 286.727 1758.78 286.727H1696.07C1690.48 286.727 1685.46 290.124 1683.39 295.307L1600.25 503.011L1592.07 523.472C1591.94 523.764 1591.81 524.049 1591.66 524.326L1586.82 536.341Z" fill="#1F1F1A"/>
<path fill-rule="evenodd" clip-rule="evenodd" d="M4527.98 823.067C4525.85 828.351 4529.74 834.113 4535.43 834.113C4538.71 834.113 4541.67 832.118 4542.89 829.072L4550.69 809.666L4550.7 809.647L4561.47 782.882L4572.23 756.117L4577.93 741.585L4599.53 686.499C4604.03 675.03 4620.21 674.911 4624.88 686.314L4647.48 741.585L4653.19 756.117L4665.88 787.849L4681.09 825.565C4683.18 830.73 4688.19 834.113 4693.76 834.113H4810.37C4817.85 834.113 4822.83 826.393 4819.75 819.58C4819.72 819.58 4819.7 819.566 4819.69 819.543L4803.5 783.625L4712.38 581.496C4710.18 576.6 4705.3 573.453 4699.93 573.453H4637.22C4631.64 573.453 4626.62 576.851 4624.55 582.033L4541.41 789.738L4533.22 810.199C4533.1 810.491 4532.97 810.776 4532.82 811.053L4527.98 823.067Z" fill="#1F1F1A"/>
<path fill-rule="evenodd" clip-rule="evenodd" d="M4527.98 249.614C4525.85 254.898 4529.74 260.659 4535.43 260.659C4538.71 260.659 4541.67 258.664 4542.89 255.619L4550.69 236.213L4550.7 236.194L4561.47 209.429L4572.23 182.664L4577.93 168.132L4599.53 113.046C4604.03 101.576 4620.21 101.458 4624.88 112.861L4647.48 168.132L4653.19 182.664L4665.88 214.396L4681.09 252.112C4683.18 257.277 4688.19 260.659 4693.76 260.659H4810.37C4817.85 260.659 4822.83 252.94 4819.75 246.127C4819.72 246.127 4819.7 246.113 4819.69 246.09L4803.5 210.172L4712.38 8.04259C4710.18 3.14732 4705.3 0 4699.93 0H4637.22C4631.64 0 4626.62 3.39779 4624.55 8.58007L4541.41 216.285L4533.22 236.746C4533.1 237.038 4532.97 237.322 4532.82 237.6L4527.98 249.614Z" fill="#1F1F1A"/>
<path fill-rule="evenodd" clip-rule="evenodd" d="M4527.98 297.769C4525.85 292.485 4529.74 286.723 4535.43 286.723C4538.71 286.723 4541.67 288.718 4542.89 291.763L4550.69 311.17L4550.7 311.189L4561.47 337.954L4572.23 364.719L4577.93 379.251L4599.53 434.337C4604.03 445.806 4620.21 445.925 4624.88 434.522L4647.48 379.251L4653.19 364.719L4665.88 332.987L4681.09 295.271C4683.18 290.106 4688.19 286.723 4693.76 286.723H4810.37C4817.85 286.723 4822.83 294.443 4819.75 301.256C4819.72 301.256 4819.7 301.27 4819.69 301.293L4803.5 337.211L4712.38 539.34C4710.18 544.235 4705.3 547.383 4699.93 547.383H4637.22C4631.64 547.383 4626.62 543.985 4624.55 538.803L4541.41 331.098L4533.22 310.637C4533.1 310.345 4532.97 310.06 4532.82 309.783L4527.98 297.769Z" fill="#1F1F1A"/>
<path fill-rule="evenodd" clip-rule="evenodd" d="M4980.02 823.067C4977.89 828.351 4981.78 834.113 4987.48 834.113C4990.76 834.113 4993.71 832.118 4994.94 829.072L5002.74 809.666L5002.75 809.647L5013.51 782.882L5024.28 756.117L5029.98 741.585L5051.58 686.499C5056.07 675.03 5072.26 674.911 5076.93 686.314L5099.53 741.585L5105.24 756.117L5117.93 787.849L5133.14 825.565C5135.22 830.73 5140.23 834.113 5145.8 834.113H5262.42C5269.89 834.113 5274.88 826.393 5271.8 819.58C5271.77 819.58 5271.75 819.566 5271.74 819.543L5255.55 783.625L5164.43 581.496C5162.22 576.6 5157.35 573.453 5151.98 573.453H5089.27C5083.69 573.453 5078.67 576.851 5076.59 582.033L4993.46 789.738L4985.27 810.199C4985.15 810.491 4985.01 810.776 4984.87 811.053L4980.02 823.067Z" fill="#1F1F1A"/>
<path fill-rule="evenodd" clip-rule="evenodd" d="M4980.02 249.614C4977.89 254.898 4981.78 260.659 4987.48 260.659C4990.76 260.659 4993.71 258.664 4994.94 255.619L5002.74 236.213L5002.75 236.194L5013.51 209.429L5024.28 182.664L5029.98 168.132L5051.58 113.046C5056.07 101.576 5072.26 101.458 5076.93 112.861L5099.53 168.132L5105.24 182.664L5117.93 214.396L5133.14 252.112C5135.22 257.277 5140.23 260.659 5145.8 260.659H5262.42C5269.89 260.659 5274.88 252.94 5271.8 246.127C5271.77 246.127 5271.75 246.113 5271.74 246.09L5255.55 210.172L5164.43 8.04259C5162.22 3.14732 5157.35 0 5151.98 0H5089.27C5083.69 0 5078.67 3.39779 5076.59 8.58007L4993.46 216.285L4985.27 236.746C4985.15 237.038 4985.01 237.322 4984.87 237.6L4980.02 249.614Z" fill="#1F1F1A"/>
<path fill-rule="evenodd" clip-rule="evenodd" d="M4980.02 297.769C4977.89 292.485 4981.78 286.723 4987.48 286.723C4990.76 286.723 4993.71 288.718 4994.94 291.763L5002.74 311.17L5002.75 311.189L5013.51 337.954L5024.28 364.719L5029.98 379.251L5051.58 434.337C5056.07 445.806 5072.26 445.925 5076.93 434.522L5099.53 379.251L5105.24 364.719L5117.93 332.987L5133.14 295.271C5135.22 290.106 5140.23 286.723 5145.8 286.723H5262.42C5269.89 286.723 5274.88 294.443 5271.8 301.256C5271.77 301.256 5271.75 301.27 5271.74 301.293L5255.55 337.211L5164.43 539.34C5162.22 544.235 5157.35 547.383 5151.98 547.383H5089.27C5083.69 547.383 5078.67 543.985 5076.59 538.803L4993.46 331.098L4985.27 310.637C4985.15 310.345 4985.01 310.06 4984.87 309.783L4980.02 297.769Z" fill="#1F1F1A"/>
<path fill-rule="evenodd" clip-rule="evenodd" d="M4754 584.495C4751.87 579.211 4755.76 573.45 4761.46 573.45C4764.74 573.45 4767.69 575.445 4768.91 578.49L4776.72 597.896L4776.72 597.915L4787.49 624.68L4798.25 651.445L4803.96 665.978L4825.55 721.063C4830.05 732.533 4846.24 732.651 4850.9 721.248L4873.51 665.978L4879.21 651.445L4891.91 619.714L4907.12 581.997C4909.2 576.832 4914.21 573.45 4919.78 573.45H5036.39C5043.87 573.45 5048.85 581.169 5045.77 587.982C5045.75 587.982 5045.72 587.997 5045.71 588.02L5029.52 623.938L4938.41 826.067C4936.2 830.962 4931.33 834.109 4925.96 834.109H4863.25C4857.66 834.109 4852.64 830.712 4850.57 825.529L4767.43 617.825L4759.24 597.364C4759.12 597.072 4758.99 596.787 4758.84 596.51L4754 584.495Z" fill="#1F1F1A"/>
<path fill-rule="evenodd" clip-rule="evenodd" d="M4754 11.0459C4751.87 5.76222 4755.76 0.000701904 4761.46 0.000701904C4764.74 0.000701904 4767.69 1.99576 4768.91 5.04083L4776.72 24.4471L4776.72 24.4663L4787.49 51.2312L4798.25 77.9962L4803.96 92.5284L4825.55 147.614C4830.05 159.084 4846.24 159.202 4850.9 147.799L4873.51 92.5284L4879.21 77.9962L4891.91 46.2645L4907.12 8.54802C4909.2 3.38306 4914.21 0.000701904 4919.78 0.000701904H5036.39C5043.87 0.000701904 5048.85 7.71989 5045.77 14.5329C5045.75 14.5329 5045.72 14.5476 5045.71 14.5706L5029.52 50.4883L4938.41 252.618C4936.2 257.513 4931.33 260.66 4925.96 260.66H4863.25C4857.66 260.66 4852.64 257.262 4850.57 252.08L4767.43 44.3755L4759.24 23.9144C4759.12 23.6223 4758.99 23.3377 4758.84 23.0605L4754 11.0459Z" fill="#1F1F1A"/>
<path fill-rule="evenodd" clip-rule="evenodd" d="M4754 536.341C4751.87 541.624 4755.76 547.386 4761.46 547.386C4764.74 547.386 4767.69 545.391 4768.91 542.346L4776.72 522.94L4776.72 522.92L4787.49 496.156L4798.25 469.391L4803.96 454.858L4825.55 399.773C4830.05 388.303 4846.24 388.185 4850.9 399.588L4873.51 454.858L4879.21 469.391L4891.91 501.122L4907.12 538.839C4909.2 544.004 4914.21 547.386 4919.78 547.386H5036.39C5043.87 547.386 5048.85 539.667 5045.77 532.854C5045.75 532.854 5045.72 532.839 5045.71 532.816L5029.52 496.898L4938.41 294.769C4936.2 289.874 4931.33 286.727 4925.96 286.727H4863.25C4857.66 286.727 4852.64 290.124 4850.57 295.307L4767.43 503.011L4759.24 523.472C4759.12 523.764 4758.99 524.049 4758.84 524.326L4754 536.341Z" fill="#1F1F1A"/>
<path fill-rule="evenodd" clip-rule="evenodd" d="M5206.05 584.495C5203.92 579.211 5207.81 573.45 5213.5 573.45C5216.78 573.45 5219.74 575.445 5220.96 578.49L5228.77 597.896L5228.77 597.915L5239.54 624.68L5250.3 651.445L5256 665.978L5277.6 721.063C5282.1 732.533 5298.29 732.651 5302.95 721.248L5325.55 665.978L5331.26 651.445L5343.95 619.714L5359.16 581.997C5361.25 576.832 5366.26 573.45 5371.83 573.45H5488.44C5495.92 573.45 5500.9 581.169 5497.82 587.982C5497.79 587.982 5497.77 587.997 5497.76 588.02L5481.57 623.938L5390.45 826.067C5388.25 830.962 5383.37 834.109 5378 834.109H5315.29C5309.71 834.109 5304.69 830.712 5302.62 825.529L5219.48 617.825L5211.29 597.364C5211.17 597.072 5211.04 596.787 5210.89 596.51L5206.05 584.495Z" fill="#1F1F1A"/>
<path fill-rule="evenodd" clip-rule="evenodd" d="M5206.05 11.0459C5203.92 5.76222 5207.81 0.000701904 5213.5 0.000701904C5216.78 0.000701904 5219.74 1.99576 5220.96 5.04083L5228.77 24.4471L5228.77 24.4663L5239.54 51.2312L5250.3 77.9962L5256 92.5284L5277.6 147.614C5282.1 159.084 5298.29 159.202 5302.95 147.799L5325.55 92.5284L5331.26 77.9962L5343.95 46.2645L5359.16 8.54802C5361.25 3.38306 5366.26 0.000701904 5371.83 0.000701904H5488.44C5495.92 0.000701904 5500.9 7.71989 5497.82 14.5329C5497.79 14.5329 5497.77 14.5476 5497.76 14.5706L5481.57 50.4883L5390.45 252.618C5388.25 257.513 5383.37 260.66 5378 260.66H5315.29C5309.71 260.66 5304.69 257.262 5302.62 252.08L5219.48 44.3755L5211.29 23.9144C5211.17 23.6223 5211.04 23.3377 5210.89 23.0605L5206.05 11.0459Z" fill="#1F1F1A"/>
<path fill-rule="evenodd" clip-rule="evenodd" d="M5206.05 536.341C5203.92 541.624 5207.81 547.386 5213.5 547.386C5216.78 547.386 5219.74 545.391 5220.96 542.346L5228.77 522.94L5228.77 522.92L5239.54 496.156L5250.3 469.391L5256 454.858L5277.6 399.773C5282.1 388.303 5298.29 388.185 5302.95 399.588L5325.55 454.858L5331.26 469.391L5343.95 501.122L5359.16 538.839C5361.25 544.004 5366.26 547.386 5371.83 547.386H5488.44C5495.92 547.386 5500.9 539.667 5497.82 532.854C5497.79 532.854 5497.77 532.839 5497.76 532.816L5481.57 496.898L5390.45 294.769C5388.25 289.874 5383.37 286.727 5378 286.727H5315.29C5309.71 286.727 5304.69 290.124 5302.62 295.307L5219.48 503.011L5211.29 523.472C5211.17 523.764 5211.04 524.049 5210.89 524.326L5206.05 536.341Z" fill="#1F1F1A"/>
<path fill-rule="evenodd" clip-rule="evenodd" d="M2718.36 823.067C2716.23 828.351 2720.12 834.113 2725.82 834.113C2729.1 834.113 2732.05 832.118 2733.27 829.072L2741.08 809.666L2741.08 809.647L2751.85 782.882L2762.61 756.117L2768.32 741.585L2789.91 686.499C2794.41 675.03 2810.6 674.911 2815.26 686.314L2837.87 741.585L2843.57 756.117L2856.27 787.849L2871.48 825.565C2873.56 830.73 2878.57 834.113 2884.14 834.113H3000.75C3008.23 834.113 3013.21 826.393 3010.13 819.58C3010.11 819.58 3010.08 819.566 3010.07 819.543L2993.88 783.625L2902.76 581.496C2900.56 576.6 2895.69 573.453 2890.32 573.453H2827.61C2822.02 573.453 2817 576.851 2814.93 582.033L2731.79 789.738L2723.6 810.199C2723.48 810.491 2723.35 810.776 2723.2 811.053L2718.36 823.067Z" fill="#1F1F1A"/>
<path fill-rule="evenodd" clip-rule="evenodd" d="M2718.36 249.614C2716.23 254.898 2720.12 260.659 2725.82 260.659C2729.1 260.659 2732.05 258.664 2733.27 255.619L2741.08 236.213L2741.08 236.194L2751.85 209.429L2762.61 182.664L2768.32 168.132L2789.91 113.046C2794.41 101.576 2810.6 101.458 2815.26 112.861L2837.87 168.132L2843.57 182.664L2856.27 214.396L2871.48 252.112C2873.56 257.277 2878.57 260.659 2884.14 260.659H3000.75C3008.23 260.659 3013.21 252.94 3010.13 246.127C3010.11 246.127 3010.08 246.113 3010.07 246.09L2993.88 210.172L2902.76 8.04259C2900.56 3.14732 2895.69 0 2890.32 0H2827.61C2822.02 0 2817 3.39779 2814.93 8.58007L2731.79 216.285L2723.6 236.746C2723.48 237.038 2723.35 237.322 2723.2 237.6L2718.36 249.614Z" fill="#1F1F1A"/>
<path fill-rule="evenodd" clip-rule="evenodd" d="M2718.36 297.769C2716.23 292.485 2720.12 286.723 2725.82 286.723C2729.1 286.723 2732.05 288.718 2733.27 291.763L2741.08 311.17L2741.08 311.189L2751.85 337.954L2762.61 364.719L2768.32 379.251L2789.91 434.337C2794.41 445.806 2810.6 445.925 2815.26 434.522L2837.87 379.251L2843.57 364.719L2856.27 332.987L2871.48 295.271C2873.56 290.106 2878.57 286.723 2884.14 286.723H3000.75C3008.23 286.723 3013.21 294.443 3010.13 301.256C3010.11 301.256 3010.08 301.27 3010.07 301.293L2993.88 337.211L2902.76 539.34C2900.56 544.235 2895.69 547.383 2890.32 547.383H2827.61C2822.02 547.383 2817 543.985 2814.93 538.803L2731.79 331.098L2723.6 310.637C2723.48 310.345 2723.35 310.06 2723.2 309.783L2718.36 297.769Z" fill="#1F1F1A"/>
<path fill-rule="evenodd" clip-rule="evenodd" d="M3170.41 823.067C3168.28 828.351 3172.17 834.113 3177.86 834.113C3181.14 834.113 3184.1 832.118 3185.32 829.072L3193.12 809.666L3193.13 809.647L3203.89 782.882L3214.66 756.117L3220.36 741.585L3241.96 686.499C3246.46 675.03 3262.64 674.911 3267.31 686.314L3289.91 741.585L3295.62 756.117L3308.31 787.849L3323.52 825.565C3325.61 830.73 3330.62 834.113 3336.19 834.113H3452.8C3460.28 834.113 3465.26 826.393 3462.18 819.58C3462.15 819.58 3462.13 819.566 3462.12 819.543L3445.93 783.625L3354.81 581.496C3352.6 576.6 3347.73 573.453 3342.36 573.453H3279.65C3274.07 573.453 3269.05 576.851 3266.98 582.033L3183.84 789.738L3175.65 810.199C3175.53 810.491 3175.4 810.776 3175.25 811.053L3170.41 823.067Z" fill="#1F1F1A"/>
<path fill-rule="evenodd" clip-rule="evenodd" d="M3170.41 249.614C3168.28 254.898 3172.17 260.659 3177.86 260.659C3181.14 260.659 3184.1 258.664 3185.32 255.619L3193.12 236.213L3193.13 236.194L3203.89 209.429L3214.66 182.664L3220.36 168.132L3241.96 113.046C3246.46 101.576 3262.64 101.458 3267.31 112.861L3289.91 168.132L3295.62 182.664L3308.31 214.396L3323.52 252.112C3325.61 257.277 3330.62 260.659 3336.19 260.659H3452.8C3460.28 260.659 3465.26 252.94 3462.18 246.127C3462.15 246.127 3462.13 246.113 3462.12 246.09L3445.93 210.172L3354.81 8.04259C3352.6 3.14732 3347.73 0 3342.36 0H3279.65C3274.07 0 3269.05 3.39779 3266.98 8.58007L3183.84 216.285L3175.65 236.746C3175.53 237.038 3175.4 237.322 3175.25 237.6L3170.41 249.614Z" fill="#1F1F1A"/>
<path fill-rule="evenodd" clip-rule="evenodd" d="M3170.41 297.769C3168.28 292.485 3172.17 286.723 3177.86 286.723C3181.14 286.723 3184.1 288.718 3185.32 291.763L3193.12 311.17L3193.13 311.189L3203.89 337.954L3214.66 364.719L3220.36 379.251L3241.96 434.337C3246.46 445.806 3262.64 445.925 3267.31 434.522L3289.91 379.251L3295.62 364.719L3308.31 332.987L3323.52 295.271C3325.61 290.106 3330.62 286.723 3336.19 286.723H3452.8C3460.28 286.723 3465.26 294.443 3462.18 301.256C3462.15 301.256 3462.13 301.27 3462.12 301.293L3445.93 337.211L3354.81 539.34C3352.6 544.235 3347.73 547.383 3342.36 547.383H3279.65C3274.07 547.383 3269.05 543.985 3266.98 538.803L3183.84 331.098L3175.65 310.637C3175.53 310.345 3175.4 310.06 3175.25 309.783L3170.41 297.769Z" fill="#1F1F1A"/>
<path fill-rule="evenodd" clip-rule="evenodd" d="M2944.38 584.495C2942.25 579.211 2946.14 573.45 2951.84 573.45C2955.12 573.45 2958.07 575.445 2959.3 578.49L2967.1 597.896L2967.11 597.915L2977.87 624.68L2988.64 651.445L2994.34 665.978L3015.94 721.063C3020.43 732.533 3036.62 732.651 3041.28 721.248L3063.89 665.978L3069.59 651.445L3082.29 619.714L3097.5 581.997C3099.58 576.832 3104.59 573.45 3110.16 573.45H3226.78C3234.25 573.45 3239.23 581.169 3236.16 587.982C3236.13 587.982 3236.11 587.997 3236.1 588.02L3219.91 623.938L3128.79 826.067C3126.58 830.962 3121.71 834.109 3116.34 834.109H3053.63C3048.05 834.109 3043.03 830.712 3040.95 825.529L2957.82 617.825L2949.63 597.364C2949.51 597.072 2949.37 596.787 2949.23 596.51L2944.38 584.495Z" fill="#1F1F1A"/>
<path fill-rule="evenodd" clip-rule="evenodd" d="M2944.38 11.0459C2942.25 5.76222 2946.14 0.000701904 2951.84 0.000701904C2955.12 0.000701904 2958.07 1.99576 2959.3 5.04083L2967.1 24.4471L2967.11 24.4663L2977.87 51.2312L2988.64 77.9962L2994.34 92.5284L3015.94 147.614C3020.43 159.084 3036.62 159.202 3041.28 147.799L3063.89 92.5284L3069.59 77.9962L3082.29 46.2645L3097.5 8.54802C3099.58 3.38306 3104.59 0.000701904 3110.16 0.000701904H3226.78C3234.25 0.000701904 3239.23 7.71989 3236.16 14.5329C3236.13 14.5329 3236.11 14.5476 3236.1 14.5706L3219.91 50.4883L3128.79 252.618C3126.58 257.513 3121.71 260.66 3116.34 260.66H3053.63C3048.05 260.66 3043.03 257.262 3040.95 252.08L2957.82 44.3755L2949.63 23.9144C2949.51 23.6223 2949.37 23.3377 2949.23 23.0605L2944.38 11.0459Z" fill="#1F1F1A"/>
<path fill-rule="evenodd" clip-rule="evenodd" d="M2944.38 536.341C2942.25 541.624 2946.14 547.386 2951.84 547.386C2955.12 547.386 2958.07 545.391 2959.3 542.346L2967.1 522.94L2967.11 522.92L2977.87 496.156L2988.64 469.391L2994.34 454.858L3015.94 399.773C3020.43 388.303 3036.62 388.185 3041.28 399.588L3063.89 454.858L3069.59 469.391L3082.29 501.122L3097.5 538.839C3099.58 544.004 3104.59 547.386 3110.16 547.386H3226.78C3234.25 547.386 3239.23 539.667 3236.16 532.854C3236.13 532.854 3236.11 532.839 3236.1 532.816L3219.91 496.898L3128.79 294.769C3126.58 289.874 3121.71 286.727 3116.34 286.727H3053.63C3048.05 286.727 3043.03 290.124 3040.95 295.307L2957.82 503.011L2949.63 523.472C2949.51 523.764 2949.37 524.049 2949.23 524.326L2944.38 536.341Z" fill="#1F1F1A"/>
<path fill-rule="evenodd" clip-rule="evenodd" d="M3396.43 584.495C3394.3 579.211 3398.19 573.45 3403.89 573.45C3407.17 573.45 3410.12 575.445 3411.34 578.49L3419.15 597.896L3419.15 597.915L3429.92 624.68L3440.68 651.445L3446.39 665.978L3467.98 721.063C3472.48 732.533 3488.67 732.651 3493.33 721.248L3515.94 665.978L3521.64 651.445L3534.34 619.714L3549.55 581.997C3551.63 576.832 3556.64 573.45 3562.21 573.45H3678.82C3686.3 573.45 3691.28 581.169 3688.2 587.982C3688.18 587.982 3688.15 587.997 3688.14 588.02L3671.95 623.938L3580.83 826.067C3578.63 830.962 3573.76 834.109 3568.39 834.109H3505.68C3500.09 834.109 3495.07 830.712 3493 825.529L3409.86 617.825L3401.67 597.364C3401.55 597.072 3401.42 596.787 3401.27 596.51L3396.43 584.495Z" fill="#1F1F1A"/>
<path fill-rule="evenodd" clip-rule="evenodd" d="M3396.43 11.0459C3394.3 5.76222 3398.19 0.000701904 3403.89 0.000701904C3407.17 0.000701904 3410.12 1.99576 3411.34 5.04083L3419.15 24.4471L3419.15 24.4663L3429.92 51.2312L3440.68 77.9962L3446.39 92.5284L3467.98 147.614C3472.48 159.084 3488.67 159.202 3493.33 147.799L3515.94 92.5284L3521.64 77.9962L3534.34 46.2645L3549.55 8.54802C3551.63 3.38306 3556.64 0.000701904 3562.21 0.000701904H3678.82C3686.3 0.000701904 3691.28 7.71989 3688.2 14.5329C3688.18 14.5329 3688.15 14.5476 3688.14 14.5706L3671.95 50.4883L3580.83 252.618C3578.63 257.513 3573.76 260.66 3568.39 260.66H3505.68C3500.09 260.66 3495.07 257.262 3493 252.08L3409.86 44.3755L3401.67 23.9144C3401.55 23.6223 3401.42 23.3377 3401.27 23.0605L3396.43 11.0459Z" fill="#1F1F1A"/>
<path fill-rule="evenodd" clip-rule="evenodd" d="M3396.43 536.341C3394.3 541.624 3398.19 547.386 3403.89 547.386C3407.17 547.386 3410.12 545.391 3411.34 542.346L3419.15 522.94L3419.15 522.92L3429.92 496.156L3440.68 469.391L3446.39 454.858L3467.98 399.773C3472.48 388.303 3488.67 388.185 3493.33 399.588L3515.94 454.858L3521.64 469.391L3534.34 501.122L3549.55 538.839C3551.63 544.004 3556.64 547.386 3562.21 547.386H3678.82C3686.3 547.386 3691.28 539.667 3688.2 532.854C3688.18 532.854 3688.15 532.839 3688.14 532.816L3671.95 496.898L3580.83 294.769C3578.63 289.874 3573.76 286.727 3568.39 286.727H3505.68C3500.09 286.727 3495.07 290.124 3493 295.307L3409.86 503.011L3401.67 523.472C3401.55 523.764 3401.42 524.049 3401.27 524.326L3396.43 536.341Z" fill="#1F1F1A"/>
<path fill-rule="evenodd" clip-rule="evenodd" d="M6337.59 823.067C6335.46 828.351 6339.34 834.113 6345.04 834.113C6348.32 834.113 6351.28 832.118 6352.5 829.072L6360.3 809.666L6360.31 809.647L6371.07 782.882L6381.84 756.117L6387.54 741.585L6409.14 686.499C6413.64 675.03 6429.82 674.911 6434.49 686.314L6457.09 741.585L6462.8 756.117L6475.49 787.849L6490.7 825.565C6492.79 830.73 6497.8 834.113 6503.37 834.113H6619.98C6627.46 834.113 6632.44 826.393 6629.36 819.58C6629.33 819.58 6629.31 819.566 6629.3 819.543L6613.11 783.625L6521.99 581.496C6519.78 576.6 6514.91 573.453 6509.54 573.453H6446.83C6441.25 573.453 6436.23 576.851 6434.16 582.033L6351.02 789.738L6342.83 810.199C6342.71 810.491 6342.58 810.776 6342.43 811.053L6337.59 823.067Z" fill="#1F1F1A"/>
<path fill-rule="evenodd" clip-rule="evenodd" d="M6337.59 249.614C6335.46 254.898 6339.34 260.659 6345.04 260.659C6348.32 260.659 6351.28 258.664 6352.5 255.619L6360.3 236.213L6360.31 236.194L6371.07 209.429L6381.84 182.664L6387.54 168.132L6409.14 113.046C6413.64 101.576 6429.82 101.458 6434.49 112.861L6457.09 168.132L6462.8 182.664L6475.49 214.396L6490.7 252.112C6492.79 257.277 6497.8 260.659 6503.37 260.659H6619.98C6627.46 260.659 6632.44 252.94 6629.36 246.127C6629.33 246.127 6629.31 246.113 6629.3 246.09L6613.11 210.172L6521.99 8.04259C6519.78 3.14732 6514.91 0 6509.54 0H6446.83C6441.25 0 6436.23 3.39779 6434.16 8.58007L6351.02 216.285L6342.83 236.746C6342.71 237.038 6342.58 237.322 6342.43 237.6L6337.59 249.614Z" fill="#1F1F1A"/>
<path fill-rule="evenodd" clip-rule="evenodd" d="M6337.59 297.769C6335.46 292.485 6339.34 286.723 6345.04 286.723C6348.32 286.723 6351.28 288.718 6352.5 291.763L6360.3 311.17L6360.31 311.189L6371.07 337.954L6381.84 364.719L6387.54 379.251L6409.14 434.337C6413.64 445.806 6429.82 445.925 6434.49 434.522L6457.09 379.251L6462.8 364.719L6475.49 332.987L6490.7 295.271C6492.79 290.106 6497.8 286.723 6503.37 286.723H6619.98C6627.46 286.723 6632.44 294.443 6629.36 301.256C6629.33 301.256 6629.31 301.27 6629.3 301.293L6613.11 337.211L6521.99 539.34C6519.78 544.235 6514.91 547.383 6509.54 547.383H6446.83C6441.25 547.383 6436.23 543.985 6434.16 538.803L6351.02 331.098L6342.83 310.637C6342.71 310.345 6342.58 310.06 6342.43 309.783L6337.59 297.769Z" fill="#1F1F1A"/>
<path fill-rule="evenodd" clip-rule="evenodd" d="M6789.63 823.067C6787.5 828.351 6791.39 834.113 6797.09 834.113C6800.37 834.113 6803.32 832.118 6804.55 829.072L6812.35 809.666L6812.36 809.647L6823.12 782.882L6833.89 756.117L6839.59 741.585L6861.19 686.499C6865.68 675.03 6881.87 674.911 6886.53 686.314L6909.14 741.585L6914.84 756.117L6927.54 787.849L6942.75 825.565C6944.83 830.73 6949.84 834.113 6955.41 834.113H7072.03C7079.5 834.113 7084.48 826.393 7081.41 819.58C7081.38 819.58 7081.36 819.566 7081.35 819.543L7065.16 783.625L6974.04 581.496C6971.83 576.6 6966.96 573.453 6961.59 573.453H6898.88C6893.3 573.453 6888.28 576.851 6886.2 582.033L6803.07 789.738L6794.88 810.199C6794.76 810.491 6794.62 810.776 6794.48 811.053L6789.63 823.067Z" fill="#1F1F1A"/>
<path fill-rule="evenodd" clip-rule="evenodd" d="M6789.63 249.614C6787.5 254.898 6791.39 260.659 6797.09 260.659C6800.37 260.659 6803.32 258.664 6804.55 255.619L6812.35 236.213L6812.36 236.194L6823.12 209.429L6833.89 182.664L6839.59 168.132L6861.19 113.046C6865.68 101.576 6881.87 101.458 6886.53 112.861L6909.14 168.132L6914.84 182.664L6927.54 214.396L6942.75 252.112C6944.83 257.277 6949.84 260.659 6955.41 260.659H7072.03C7079.5 260.659 7084.48 252.94 7081.41 246.127C7081.38 246.127 7081.36 246.113 7081.35 246.09L7065.16 210.172L6974.04 8.04259C6971.83 3.14732 6966.96 0 6961.59 0H6898.88C6893.3 0 6888.28 3.39779 6886.2 8.58007L6803.07 216.285L6794.88 236.746C6794.76 237.038 6794.62 237.322 6794.48 237.6L6789.63 249.614Z" fill="#1F1F1A"/>
<path fill-rule="evenodd" clip-rule="evenodd" d="M6789.63 297.769C6787.5 292.485 6791.39 286.723 6797.09 286.723C6800.37 286.723 6803.32 288.718 6804.55 291.763L6812.35 311.17L6812.36 311.189L6823.12 337.954L6833.89 364.719L6839.59 379.251L6861.19 434.337C6865.68 445.806 6881.87 445.925 6886.53 434.522L6909.14 379.251L6914.84 364.719L6927.54 332.987L6942.75 295.271C6944.83 290.106 6949.84 286.723 6955.41 286.723H7072.03C7079.5 286.723 7084.48 294.443 7081.41 301.256C7081.38 301.256 7081.36 301.27 7081.35 301.293L7065.16 337.211L6974.04 539.34C6971.83 544.235 6966.96 547.383 6961.59 547.383H6898.88C6893.3 547.383 6888.28 543.985 6886.2 538.803L6803.07 331.098L6794.88 310.637C6794.76 310.345 6794.62 310.06 6794.48 309.783L6789.63 297.769Z" fill="#1F1F1A"/>
<path fill-rule="evenodd" clip-rule="evenodd" d="M6563.61 584.495C6561.48 579.211 6565.37 573.45 6571.07 573.45C6574.35 573.45 6577.3 575.445 6578.52 578.49L6586.33 597.896L6586.33 597.915L6597.1 624.68L6607.86 651.445L6613.57 665.978L6635.16 721.063C6639.66 732.533 6655.85 732.651 6660.51 721.248L6683.12 665.978L6688.82 651.445L6701.52 619.714L6716.73 581.997C6718.81 576.832 6723.82 573.45 6729.39 573.45H6846C6853.48 573.45 6858.46 581.169 6855.38 587.982C6855.36 587.982 6855.33 587.997 6855.32 588.02L6839.13 623.938L6748.01 826.067C6745.81 830.962 6740.94 834.109 6735.57 834.109H6672.86C6667.27 834.109 6662.25 830.712 6660.18 825.529L6577.04 617.825L6568.85 597.364C6568.73 597.072 6568.6 596.787 6568.45 596.51L6563.61 584.495Z" fill="#1F1F1A"/>
<path fill-rule="evenodd" clip-rule="evenodd" d="M6563.61 11.0459C6561.48 5.76222 6565.37 0.000701904 6571.07 0.000701904C6574.35 0.000701904 6577.3 1.99576 6578.52 5.04083L6586.33 24.4471L6586.33 24.4663L6597.1 51.2312L6607.86 77.9962L6613.57 92.5284L6635.16 147.614C6639.66 159.084 6655.85 159.202 6660.51 147.799L6683.12 92.5284L6688.82 77.9962L6701.52 46.2645L6716.73 8.54802C6718.81 3.38306 6723.82 0.000701904 6729.39 0.000701904H6846C6853.48 0.000701904 6858.46 7.71989 6855.38 14.5329C6855.36 14.5329 6855.33 14.5476 6855.32 14.5706L6839.13 50.4883L6748.01 252.618C6745.81 257.513 6740.94 260.66 6735.57 260.66H6672.86C6667.27 260.66 6662.25 257.262 6660.18 252.08L6577.04 44.3755L6568.85 23.9144C6568.73 23.6223 6568.6 23.3377 6568.45 23.0605L6563.61 11.0459Z" fill="#1F1F1A"/>
<path fill-rule="evenodd" clip-rule="evenodd" d="M6563.61 536.341C6561.48 541.624 6565.37 547.386 6571.07 547.386C6574.35 547.386 6577.3 545.391 6578.52 542.346L6586.33 522.94L6586.33 522.92L6597.1 496.156L6607.86 469.391L6613.57 454.858L6635.16 399.773C6639.66 388.303 6655.85 388.185 6660.51 399.588L6683.12 454.858L6688.82 469.391L6701.52 501.122L6716.73 538.839C6718.81 544.004 6723.82 547.386 6729.39 547.386H6846C6853.48 547.386 6858.46 539.667 6855.38 532.854C6855.36 532.854 6855.33 532.839 6855.32 532.816L6839.13 496.898L6748.01 294.769C6745.81 289.874 6740.94 286.727 6735.57 286.727H6672.86C6667.27 286.727 6662.25 290.124 6660.18 295.307L6577.04 503.011L6568.85 523.472C6568.73 523.764 6568.6 524.049 6568.45 524.326L6563.61 536.341Z" fill="#1F1F1A"/>
<path fill-rule="evenodd" clip-rule="evenodd" d="M7015.66 584.495C7013.53 579.211 7017.42 573.45 7023.11 573.45C7026.39 573.45 7029.35 575.445 7030.57 578.49L7038.37 597.896L7038.38 597.915L7049.14 624.68L7059.91 651.445L7065.61 665.978L7087.21 721.063C7091.71 732.533 7107.89 732.651 7112.56 721.248L7135.16 665.978L7140.87 651.445L7153.56 619.714L7168.77 581.997C7170.86 576.832 7175.87 573.45 7181.44 573.45H7298.05C7305.53 573.45 7310.51 581.169 7307.43 587.982C7307.4 587.982 7307.38 587.997 7307.37 588.02L7291.18 623.938L7200.06 826.067C7197.85 830.962 7192.98 834.109 7187.61 834.109H7124.9C7119.32 834.109 7114.3 830.712 7112.23 825.529L7029.09 617.825L7020.9 597.364C7020.78 597.072 7020.65 596.787 7020.5 596.51L7015.66 584.495Z" fill="#1F1F1A"/>
<path fill-rule="evenodd" clip-rule="evenodd" d="M7015.66 11.0459C7013.53 5.76222 7017.42 0.000701904 7023.11 0.000701904C7026.39 0.000701904 7029.35 1.99576 7030.57 5.04083L7038.37 24.4471L7038.38 24.4663L7049.14 51.2312L7059.91 77.9962L7065.61 92.5284L7087.21 147.614C7091.71 159.084 7107.89 159.202 7112.56 147.799L7135.16 92.5284L7140.87 77.9962L7153.56 46.2645L7168.77 8.54802C7170.86 3.38306 7175.87 0.000701904 7181.44 0.000701904H7298.05C7305.53 0.000701904 7310.51 7.71989 7307.43 14.5329C7307.4 14.5329 7307.38 14.5476 7307.37 14.5706L7291.18 50.4883L7200.06 252.618C7197.85 257.513 7192.98 260.66 7187.61 260.66H7124.9C7119.32 260.66 7114.3 257.262 7112.23 252.08L7029.09 44.3755L7020.9 23.9144C7020.78 23.6223 7020.65 23.3377 7020.5 23.0605L7015.66 11.0459Z" fill="#1F1F1A"/>
<path fill-rule="evenodd" clip-rule="evenodd" d="M7015.66 536.341C7013.53 541.624 7017.42 547.386 7023.11 547.386C7026.39 547.386 7029.35 545.391 7030.57 542.346L7038.37 522.94L7038.38 522.92L7049.14 496.156L7059.91 469.391L7065.61 454.858L7087.21 399.773C7091.71 388.303 7107.89 388.185 7112.56 399.588L7135.16 454.858L7140.87 469.391L7153.56 501.122L7168.77 538.839C7170.86 544.004 7175.87 547.386 7181.44 547.386H7298.05C7305.53 547.386 7310.51 539.667 7307.43 532.854C7307.4 532.854 7307.38 532.839 7307.37 532.816L7291.18 496.898L7200.06 294.769C7197.85 289.874 7192.98 286.727 7187.61 286.727H7124.9C7119.32 286.727 7114.3 290.124 7112.23 295.307L7029.09 503.011L7020.9 523.472C7020.78 523.764 7020.65 524.049 7020.5 524.326L7015.66 536.341Z" fill="#1F1F1A"/>
</svg>
