<svg width="7314" height="366" viewBox="0 0 7314 366" fill="none" xmlns="http://www.w3.org/2000/svg">
<path fill-rule="evenodd" clip-rule="evenodd" d="M19.1984 2.28857e-05C5.71544 2.40645e-05 -3.49529 13.6292 1.53317 26.1395L60.4797 172.784L131.136 353.043C137.405 369.04 159.983 369.205 166.485 353.302L227.125 204.977L239.756 172.784L267.87 102.489L298.639 26.1569C303.683 13.6442 294.472 -1.17942e-06 280.981 0L19.1984 2.28857e-05Z" fill="#1F1F1A"/>
<path fill-rule="evenodd" clip-rule="evenodd" d="M311.448 365.136C297.965 365.136 288.755 351.506 293.783 338.996L352.73 192.352L423.386 12.0922C429.655 -3.90458 452.233 -4.06942 458.735 11.8341L519.375 160.158L532.006 192.352L560.12 262.647L590.889 338.979C595.933 351.491 586.722 365.136 573.231 365.136L311.448 365.136Z" fill="#1F1F1A"/>
<path fill-rule="evenodd" clip-rule="evenodd" d="M603.698 2.28857e-05C590.215 2.40645e-05 581.005 13.6292 586.033 26.1395L644.98 172.784L715.636 353.043C721.905 369.04 744.483 369.205 750.985 353.302L811.625 204.977L824.256 172.784L852.37 102.489L883.139 26.1569C888.183 13.6442 878.972 -1.17942e-06 865.481 0L603.698 2.28857e-05Z" fill="#1F1F1A"/>
<path fill-rule="evenodd" clip-rule="evenodd" d="M895.948 365.136C882.465 365.136 873.255 351.506 878.283 338.996L937.23 192.352L1007.89 12.0922C1014.15 -3.90458 1036.73 -4.06942 1043.24 11.8341L1103.88 160.158L1116.51 192.352L1144.62 262.647L1175.39 338.979C1180.43 351.491 1171.22 365.136 1157.73 365.136L895.948 365.136Z" fill="#1F1F1A"/>
<path fill-rule="evenodd" clip-rule="evenodd" d="M1188.2 2.28857e-05C1174.72 2.40645e-05 1165.5 13.6292 1170.53 26.1395L1229.48 172.784L1300.14 353.043C1306.4 369.04 1328.98 369.205 1335.49 353.302L1396.13 204.977L1408.76 172.784L1436.87 102.489L1467.64 26.1569C1472.68 13.6442 1463.47 -1.17942e-06 1449.98 0L1188.2 2.28857e-05Z" fill="#1F1F1A"/>
<path fill-rule="evenodd" clip-rule="evenodd" d="M1480.44 365.136C1466.96 365.136 1457.75 351.506 1462.78 338.996L1521.72 192.352L1592.38 12.0922C1598.65 -3.90458 1621.23 -4.06942 1627.73 11.8341L1688.37 160.158L1701 192.352L1729.11 262.647L1759.88 338.979C1764.93 351.491 1755.71 365.136 1742.22 365.136L1480.44 365.136Z" fill="#1F1F1A"/>
<path fill-rule="evenodd" clip-rule="evenodd" d="M1772.69 2.28857e-05C1759.21 2.40645e-05 1750 13.6292 1755.03 26.1395L1813.97 172.784L1884.63 353.043C1890.9 369.04 1913.48 369.205 1919.98 353.302L1980.62 204.977L1993.25 172.784L2021.36 102.489L2052.13 26.1569C2057.18 13.6442 2047.96 -1.17942e-06 2034.47 0L1772.69 2.28857e-05Z" fill="#1F1F1A"/>
<path fill-rule="evenodd" clip-rule="evenodd" d="M2064.94 365.136C2051.46 365.136 2042.25 351.506 2047.28 338.996L2106.22 192.352L2176.88 12.0922C2183.15 -3.90458 2205.73 -4.06942 2212.23 11.8341L2272.87 160.158L2285.5 192.352L2313.61 262.647L2344.38 338.979C2349.43 351.491 2340.21 365.136 2326.72 365.136L2064.94 365.136Z" fill="#1F1F1A"/>
<path fill-rule="evenodd" clip-rule="evenodd" d="M2357.19 2.28857e-05C2343.71 2.40645e-05 2334.5 13.6292 2339.53 26.1395L2398.47 172.784L2469.13 353.043C2475.4 369.04 2497.98 369.205 2504.48 353.302L2565.12 204.977L2577.75 172.784L2605.86 102.489L2636.63 26.1569C2641.68 13.6442 2632.46 -1.17942e-06 2618.97 0L2357.19 2.28857e-05Z" fill="#1F1F1A"/>
<path fill-rule="evenodd" clip-rule="evenodd" d="M2649.43 365.136C2635.95 365.136 2626.74 351.506 2631.77 338.996L2690.71 192.352L2761.37 12.0922C2767.64 -3.90458 2790.22 -4.06942 2796.72 11.8341L2857.36 160.158L2869.99 192.352L2898.1 262.647L2928.87 338.979C2933.92 351.491 2924.71 365.136 2911.22 365.136L2649.43 365.136Z" fill="#1F1F1A"/>
<path fill-rule="evenodd" clip-rule="evenodd" d="M2941.68 2.28857e-05C2928.2 2.40645e-05 2918.99 13.6292 2924.02 26.1395L2982.96 172.784L3053.62 353.043C3059.89 369.04 3082.47 369.205 3088.97 353.302L3149.61 204.977L3162.24 172.784L3190.35 102.489L3221.12 26.1569C3226.17 13.6442 3216.96 -1.17942e-06 3203.47 0L2941.68 2.28857e-05Z" fill="#1F1F1A"/>
<path fill-rule="evenodd" clip-rule="evenodd" d="M3233.93 365.136C3220.45 365.136 3211.24 351.506 3216.27 338.996L3275.21 192.352L3345.87 12.0922C3352.14 -3.90458 3374.72 -4.06942 3381.22 11.8341L3441.86 160.158L3454.49 192.352L3482.6 262.647L3513.37 338.979C3518.42 351.491 3509.21 365.136 3495.72 365.136L3233.93 365.136Z" fill="#1F1F1A"/>
<path fill-rule="evenodd" clip-rule="evenodd" d="M3526.18 2.28857e-05C3512.7 2.40645e-05 3503.49 13.6292 3508.52 26.1395L3567.46 172.784L3638.12 353.043C3644.39 369.04 3666.97 369.205 3673.47 353.302L3734.11 204.977L3746.74 172.784L3774.85 102.489L3805.62 26.1569C3810.67 13.6442 3801.46 -1.17942e-06 3787.97 0L3526.18 2.28857e-05Z" fill="#1F1F1A"/>
<path fill-rule="evenodd" clip-rule="evenodd" d="M3818.43 365.136C3804.95 365.136 3795.74 351.506 3800.77 338.996L3859.71 192.352L3930.37 12.0922C3936.64 -3.90458 3959.22 -4.06942 3965.72 11.8341L4026.36 160.158L4038.99 192.352L4067.1 262.647L4097.87 338.979C4102.92 351.491 4093.71 365.136 4080.22 365.136L3818.43 365.136Z" fill="#1F1F1A"/>
<path fill-rule="evenodd" clip-rule="evenodd" d="M4110.68 2.28857e-05C4097.19 2.40645e-05 4087.98 13.6292 4093.01 26.1395L4151.96 172.784L4222.61 353.043C4228.88 369.04 4251.46 369.205 4257.96 353.302L4318.6 204.977L4331.23 172.784L4359.35 102.489L4390.12 26.1569C4395.16 13.6442 4385.95 -1.17942e-06 4372.46 0L4110.68 2.28857e-05Z" fill="#1F1F1A"/>
<path fill-rule="evenodd" clip-rule="evenodd" d="M4402.93 365.136C4389.44 365.136 4380.23 351.506 4385.26 338.996L4444.21 192.352L4514.86 12.0922C4521.13 -3.90458 4543.71 -4.06942 4550.21 11.8341L4610.85 160.158L4623.48 192.352L4651.6 262.647L4682.37 338.979C4687.41 351.491 4678.2 365.136 4664.71 365.136L4402.93 365.136Z" fill="#1F1F1A"/>
<path fill-rule="evenodd" clip-rule="evenodd" d="M4695.18 2.28857e-05C4681.69 2.40645e-05 4672.48 13.6292 4677.51 26.1395L4736.46 172.784L4807.11 353.043C4813.38 369.04 4835.96 369.205 4842.46 353.302L4903.1 204.977L4915.73 172.784L4943.85 102.489L4974.62 26.1569C4979.66 13.6442 4970.45 -1.17942e-06 4956.96 0L4695.18 2.28857e-05Z" fill="#1F1F1A"/>
<path fill-rule="evenodd" clip-rule="evenodd" d="M4987.43 365.136C4973.94 365.136 4964.73 351.506 4969.76 338.996L5028.71 192.352L5099.36 12.0922C5105.63 -3.90458 5128.21 -4.06942 5134.71 11.8341L5195.35 160.158L5207.98 192.352L5236.1 262.647L5266.87 338.979C5271.91 351.491 5262.7 365.136 5249.21 365.136L4987.43 365.136Z" fill="#1F1F1A"/>
<path fill-rule="evenodd" clip-rule="evenodd" d="M5279.67 2.28857e-05C5266.18 2.40645e-05 5256.97 13.6292 5262 26.1395L5320.95 172.784L5391.6 353.043C5397.87 369.04 5420.45 369.205 5426.95 353.302L5487.59 204.977L5500.23 172.784L5528.34 102.489L5559.11 26.1569C5564.15 13.6442 5554.94 -1.17942e-06 5541.45 0L5279.67 2.28857e-05Z" fill="#1F1F1A"/>
<path fill-rule="evenodd" clip-rule="evenodd" d="M5571.92 365.136C5558.43 365.136 5549.22 351.506 5554.25 338.996L5613.2 192.352L5683.85 12.0922C5690.12 -3.90458 5712.7 -4.06942 5719.2 11.8341L5779.84 160.158L5792.48 192.352L5820.59 262.647L5851.36 338.979C5856.4 351.491 5847.19 365.136 5833.7 365.136L5571.92 365.136Z" fill="#1F1F1A"/>
<path fill-rule="evenodd" clip-rule="evenodd" d="M5864.17 2.28857e-05C5850.68 2.40645e-05 5841.47 13.6292 5846.5 26.1395L5905.45 172.784L5976.1 353.043C5982.37 369.04 6004.95 369.205 6011.45 353.302L6072.09 204.977L6084.73 172.784L6112.84 102.489L6143.61 26.1569C6148.65 13.6442 6139.44 -1.17942e-06 6125.95 0L5864.17 2.28857e-05Z" fill="#1F1F1A"/>
<path fill-rule="evenodd" clip-rule="evenodd" d="M6156.42 365.136C6142.93 365.136 6133.72 351.506 6138.75 338.996L6197.7 192.352L6268.35 12.0922C6274.62 -3.90458 6297.2 -4.06942 6303.7 11.8341L6364.34 160.158L6376.98 192.352L6405.09 262.647L6435.86 338.979C6440.9 351.491 6431.69 365.136 6418.2 365.136L6156.42 365.136Z" fill="#1F1F1A"/>
<path fill-rule="evenodd" clip-rule="evenodd" d="M6448.66 2.28857e-05C6435.18 2.40645e-05 6425.97 13.6292 6430.99 26.1395L6489.94 172.784L6560.6 353.043C6566.87 369.04 6589.44 369.205 6595.95 353.302L6656.59 204.977L6669.22 172.784L6697.33 102.489L6728.1 26.1569C6733.14 13.6442 6723.93 -1.17942e-06 6710.44 0L6448.66 2.28857e-05Z" fill="#1F1F1A"/>
<path fill-rule="evenodd" clip-rule="evenodd" d="M6740.91 365.136C6727.43 365.136 6718.22 351.506 6723.24 338.996L6782.19 192.352L6852.85 12.0922C6859.12 -3.90458 6881.69 -4.06942 6888.2 11.8341L6948.84 160.158L6961.47 192.352L6989.58 262.647L7020.35 338.979C7025.39 351.491 7016.18 365.136 7002.69 365.136L6740.91 365.136Z" fill="#1F1F1A"/>
<path fill-rule="evenodd" clip-rule="evenodd" d="M7033.16 2.28857e-05C7019.68 2.40645e-05 7010.47 13.6292 7015.49 26.1395L7074.44 172.784L7145.1 353.043C7151.37 369.04 7173.94 369.205 7180.45 353.302L7241.09 204.977L7253.72 172.784L7281.83 102.489L7312.6 26.1569C7317.64 13.6442 7308.43 -1.17942e-06 7294.94 0L7033.16 2.28857e-05Z" fill="#1F1F1A"/>
</svg>
