<svg xmlns="http://www.w3.org/2000/svg" viewBox="0 0 64 64">
  <g transform="translate(8.157 55.624) scale(0.062663 -0.062663)">
    <path fill="#B99A5B" d="M747 55C723 79 711 99 693 132C628 249 545 504 484 694C471 733 446 760 377 760C319 760 281 746 281 726C281 711 296 696 296 663C296 647 292 624 280 595L149 274C94 139 74 103 14 49C5 41 4 36 4 31C4 6 57 -6 110 -6C171 -6 221 7 221 30C221 37 219 41 208 56C191 79 177 104 177 134C177 228 239 267 346 267C453 267 505 227 505 126C505 92 498 77 490 61C483 47 476 41 476 34C476 4 555 -6 622 -6C701 -6 757 11 757 36C757 41 756 46 747 55ZM348 317C277 317 254 323 254 348C254 359 257 374 276 424L354 624C370 589 391 540 407 494C432 425 450 360 450 347C450 325 431 317 348 317Z"/>
  </g>
</svg>
