<svg width="140" height="203" viewBox="0 0 140 203" fill="none" xmlns="http://www.w3.org/2000/svg">
<path d="M70 10V130" stroke="black"/>
<path d="M10 70L130 70" stroke="black"/>
<path d="M27.5781 27.5732L112.431 112.426" stroke="black"/>
<path d="M27.5781 112.427L112.431 27.5739" stroke="black"/>
<path d="M35.1025 175.08C37.8965 175.432 39.0185 176.906 39.0185 178.666C39.0185 181.306 37.1045 183 34.2885 183H27.2925V167.6H33.8045C36.6205 167.6 38.4025 169.14 38.4025 171.472C38.4025 173.276 37.3465 174.552 35.1025 175.08ZM29.6025 169.624V174.2H33.5405C35.1685 174.2 35.9385 173.43 35.9385 171.78C35.9385 170.306 35.1245 169.624 33.6065 169.624H29.6025ZM33.9145 180.976C35.6965 180.976 36.5545 180.162 36.5545 178.424C36.5545 176.884 35.6085 176.158 33.7165 176.158H29.6025V180.976H33.9145ZM49.6223 172.44H51.8663V183H49.6223V180.822C48.8963 182.34 47.5763 183.22 45.8163 183.22C42.7803 183.22 40.8883 181.02 40.8883 177.72C40.8883 174.42 42.7583 172.22 45.7283 172.22C47.5323 172.22 48.8963 173.1 49.6223 174.662V172.44ZM46.4323 181.174C48.6763 181.174 49.7323 180.074 49.7323 177.72C49.7323 175.366 48.6763 174.266 46.4323 174.266C44.1883 174.266 43.1543 175.366 43.1543 177.72C43.1543 180.074 44.1883 181.174 46.4323 181.174ZM59.9874 181.196C61.6814 181.196 62.5614 180.558 62.9574 178.512L65.1794 179.062C64.4974 181.966 62.4954 183.22 60.0094 183.22C56.7314 183.22 54.5094 181.02 54.5094 177.72C54.5094 174.42 56.7314 172.22 60.0094 172.22C62.5614 172.22 64.5194 173.54 65.1794 176.378L62.9574 176.928C62.5614 174.882 61.6814 174.244 59.9874 174.244C57.8094 174.244 56.7754 175.344 56.7754 177.72C56.7754 180.096 57.8094 181.196 59.9874 181.196ZM74.1198 174.442H70.9078V180.998H73.7898V183H71.5898C69.8298 183 68.6638 181.834 68.6638 180.074V174.442H66.4418V172.44H68.6638V169.206H70.9078V172.44H74.1198V174.442ZM85.5782 177.5C85.5782 177.83 85.5782 178.006 85.5562 178.424H77.6802C77.8342 180.558 78.7362 181.394 80.7162 181.394C82.1902 181.394 82.8282 181.02 83.3122 179.744L85.3362 180.492C84.5882 182.34 82.8502 183.22 80.6942 183.22C77.4822 183.22 75.3922 181.064 75.3922 177.742C75.3922 174.442 77.5482 172.22 80.5842 172.22C83.5322 172.22 85.5782 174.266 85.5782 177.5ZM80.6062 173.98C78.8462 173.98 77.9002 174.86 77.7022 176.774H83.3342C83.2462 174.75 82.4322 173.98 80.6062 173.98ZM93.695 172.242C94.157 172.242 94.619 172.264 94.949 172.418V174.596C94.641 174.464 94.311 174.332 93.519 174.332C91.517 174.332 90.417 175.938 90.417 178.424V183H88.173V172.44H90.417V175.52C90.747 173.826 91.583 172.242 93.695 172.242ZM98.233 170.262C97.265 170.262 96.715 169.712 96.693 168.744C96.671 167.798 97.243 167.292 98.233 167.292C99.201 167.292 99.751 167.798 99.773 168.744C99.795 169.712 99.245 170.262 98.233 170.262ZM97.089 183V172.44H99.333V183H97.089ZM110.702 172.44H112.946V183H110.702V180.822C109.976 182.34 108.656 183.22 106.896 183.22C103.86 183.22 101.968 181.02 101.968 177.72C101.968 174.42 103.838 172.22 106.808 172.22C108.612 172.22 109.976 173.1 110.702 174.662V172.44ZM107.512 181.174C109.756 181.174 110.812 180.074 110.812 177.72C110.812 175.366 109.756 174.266 107.512 174.266C105.268 174.266 104.234 175.366 104.234 177.72C104.234 180.074 105.268 181.174 107.512 181.174Z" fill="black"/>
</svg>
