<svg width="157" height="200" viewBox="0 0 157 200" fill="none" xmlns="http://www.w3.org/2000/svg">
<circle cx="55.8047" cy="100.819" r="31.8887" transform="rotate(45 55.8047 100.819)" stroke="black"/>
<circle cx="78.707" cy="77.917" r="31.8887" transform="rotate(45 78.707 77.917)" stroke="black"/>
<circle cx="100.818" cy="55.8045" r="31.8887" transform="rotate(45 100.818 55.8045)" stroke="black"/>
<path d="M47.5393 180.71C50.7073 180.71 52.2253 179.434 52.7313 176.178L55.0193 176.728C54.3153 180.71 51.4993 182.844 47.5393 182.844C43.1833 182.844 39.6413 179.566 39.6413 174.88C39.6413 170.194 43.1833 167.004 47.5393 167.004C51.4993 167.004 54.3153 169.138 55.0193 173.12L52.7313 173.67C52.2253 170.414 50.7073 169.138 47.5393 169.138C43.9753 169.138 42.0613 171.14 42.0613 174.88C42.0613 178.686 43.9753 180.71 47.5393 180.71ZM65.4748 172.064H67.7188V182.624H65.4748V180.446C64.7488 181.964 63.4288 182.844 61.6688 182.844C58.6328 182.844 56.7408 180.644 56.7408 177.344C56.7408 174.044 58.6108 171.844 61.5808 171.844C63.3848 171.844 64.7488 172.724 65.4748 174.286V172.064ZM62.2848 180.798C64.5288 180.798 65.5848 179.698 65.5848 177.344C65.5848 174.99 64.5288 173.89 62.2848 173.89C60.0408 173.89 59.0068 174.99 59.0068 177.344C59.0068 179.698 60.0408 180.798 62.2848 180.798ZM76.6979 171.866C77.1599 171.866 77.6219 171.888 77.9519 172.042V174.22C77.6439 174.088 77.3139 173.956 76.5219 173.956C74.5199 173.956 73.4199 175.562 73.4199 178.048V182.624H71.1759V172.064H73.4199V175.144C73.7499 173.45 74.5859 171.866 76.6979 171.866ZM86.2299 171.844C89.2219 171.844 91.0919 174.044 91.0919 177.344C91.0919 180.644 89.1999 182.844 86.1639 182.844C84.3819 182.844 83.0619 181.942 82.3359 180.402V182.624H80.0919V167.224H82.3359V174.308C83.0619 172.746 84.4259 171.844 86.2299 171.844ZM85.5479 180.798C87.7699 180.798 88.8259 179.698 88.8259 177.344C88.8259 174.99 87.7699 173.89 85.5479 173.89C83.3039 173.89 82.2479 174.99 82.2479 177.344C82.2479 179.698 83.3039 180.798 85.5479 180.798ZM98.443 171.844C101.523 171.844 104.009 174 104.009 177.344C104.009 180.688 101.523 182.844 98.443 182.844C95.385 182.844 92.899 180.688 92.899 177.344C92.899 174 95.385 171.844 98.443 171.844ZM98.443 180.798C100.687 180.798 101.743 179.698 101.743 177.344C101.743 174.99 100.687 173.89 98.443 173.89C96.221 173.89 95.165 174.99 95.165 177.344C95.165 179.698 96.221 180.798 98.443 180.798ZM112.565 171.844C115.051 171.844 116.349 173.34 116.349 176.134V182.624H114.105V176.288C114.105 174.704 113.225 173.89 111.795 173.89C110.013 173.89 108.869 175.21 108.869 177.652V182.624H106.625V172.064H108.869V174.616C109.375 172.922 110.497 171.844 112.565 171.844Z" fill="black"/>
</svg>
