<svg width="140" height="203" viewBox="0 0 140 203" fill="none" xmlns="http://www.w3.org/2000/svg">
<rect x="10.5" y="10.5" width="119" height="119" stroke="black"/>
<rect x="40.502" y="40.5" width="59" height="57.8889" stroke="black"/>
<path d="M52.8893 169.756H45.6733V173.782H52.5373V175.96H45.6733V183H43.3413V167.6H52.8893V169.756ZM62.7154 172.44H64.9594V183H62.7154V180.448C62.2094 182.142 61.0874 183.22 59.0194 183.22C56.5334 183.22 55.2354 181.724 55.2354 178.93V172.44H57.4794V178.776C57.4794 180.36 58.3594 181.174 59.7894 181.174C61.5714 181.174 62.7154 179.854 62.7154 177.412V172.44ZM74.3259 172.22C76.8119 172.22 78.1099 173.716 78.1099 176.51V183H75.8659V176.664C75.8659 175.08 74.9859 174.266 73.5559 174.266C71.7739 174.266 70.6299 175.586 70.6299 178.028V183H68.3859V172.44H70.6299V174.992C71.1359 173.298 72.2579 172.22 74.3259 172.22ZM88.9944 172.44H91.2164V182.098C91.2164 185.068 89.2144 186.96 85.8924 186.96C83.2084 186.96 81.3824 185.992 80.7224 184.034L82.8784 183.11C83.3844 184.694 84.1324 185.09 85.9584 185.09C88.0484 185.09 88.9944 184.232 88.9944 182.362V180.228C88.2904 181.636 87.0144 182.472 85.2764 182.472C82.5044 182.472 80.6344 180.382 80.6344 177.346C80.6344 174.31 82.4824 172.22 85.2544 172.22C86.9924 172.22 88.2904 173.078 88.9944 174.53V172.44ZM85.9804 180.47C88.0924 180.47 89.1044 179.48 89.1044 177.368C89.1044 175.234 88.1144 174.222 86.0024 174.222C83.8904 174.222 82.9004 175.234 82.9004 177.368C82.9004 179.48 83.8904 180.47 85.9804 180.47ZM95.8053 170.262C94.8373 170.262 94.2873 169.712 94.2653 168.744C94.2433 167.798 94.8153 167.292 95.8053 167.292C96.7733 167.292 97.3233 167.798 97.3453 168.744C97.3673 169.712 96.8173 170.262 95.8053 170.262ZM94.6613 183V172.44H96.9053V183H94.6613Z" fill="black"/>
</svg>
