<svg width="139" height="203" viewBox="0 0 139 203" fill="none" xmlns="http://www.w3.org/2000/svg">
<path d="M69.4541 10.5C102.01 10.5 128.409 37.1348 128.409 70C128.409 102.865 102.009 129.5 69.4541 129.5C36.8989 129.5 10.5 102.865 10.5 70C10.5 37.1349 36.8989 10.5002 69.4541 10.5Z" stroke="black"/>
<path d="M69.998 73.7727C85.3866 73.7727 97.8621 86.2475 97.8623 101.636C97.8623 117.025 85.3867 129.5 69.998 129.5C54.6095 129.5 42.1348 117.025 42.1348 101.636C42.1349 86.2476 54.6097 73.7729 69.998 73.7727Z" stroke="black"/>
<path d="M70.001 41.0454C94.4269 41.0456 114.228 60.847 114.228 85.2729C114.227 109.699 94.4268 129.499 70.001 129.5C45.575 129.5 25.7736 109.699 25.7734 85.2729C25.7734 60.8469 45.5749 41.0454 70.001 41.0454Z" stroke="black"/>
<path d="M31.806 167.6H35.832V183H33.5V169.14L32.818 171.78L28.616 183H25.756L21.532 171.78L20.872 169.25V183H18.54V167.6H22.566L25.888 176.884L27.186 180.976L28.484 176.884L31.806 167.6ZM47.4441 172.44H49.6881V183H47.4441V180.822C46.7181 182.34 45.3981 183.22 43.6381 183.22C40.6021 183.22 38.7101 181.02 38.7101 177.72C38.7101 174.42 40.5801 172.22 43.5501 172.22C45.3541 172.22 46.7181 173.1 47.4441 174.662V172.44ZM44.2541 181.174C46.4981 181.174 47.5541 180.074 47.5541 177.72C47.5541 175.366 46.4981 174.266 44.2541 174.266C42.0101 174.266 40.9761 175.366 40.9761 177.72C40.9761 180.074 42.0101 181.174 44.2541 181.174ZM66.5652 172.22C69.0512 172.22 70.3492 173.76 70.3492 176.62V183H68.1052V176.752C68.1052 175.102 67.2472 174.266 65.8172 174.266C63.8152 174.266 62.8692 175.762 62.8692 178.578V183H60.6252V176.664C60.6252 175.08 59.7452 174.266 58.3152 174.266C56.5332 174.266 55.3892 175.586 55.3892 178.028V183H53.1452V172.44H55.3892V174.992C55.8952 173.298 57.0172 172.22 59.0852 172.22C61.1092 172.22 62.3412 173.21 62.7372 175.058C63.3532 173.21 64.6292 172.22 66.5652 172.22ZM87.1042 172.22C89.5902 172.22 90.8882 173.76 90.8882 176.62V183H88.6442V176.752C88.6442 175.102 87.7862 174.266 86.3562 174.266C84.3542 174.266 83.4082 175.762 83.4082 178.578V183H81.1642V176.664C81.1642 175.08 80.2842 174.266 78.8542 174.266C77.0722 174.266 75.9282 175.586 75.9282 178.028V183H73.6842V172.44H75.9282V174.992C76.4342 173.298 77.5562 172.22 79.6242 172.22C81.6482 172.22 82.8802 173.21 83.2762 175.058C83.8922 173.21 85.1682 172.22 87.1042 172.22ZM102.143 172.44H104.387V183H102.143V180.822C101.417 182.34 100.097 183.22 98.3373 183.22C95.3013 183.22 93.4093 181.02 93.4093 177.72C93.4093 174.42 95.2793 172.22 98.2493 172.22C100.053 172.22 101.417 173.1 102.143 174.662V172.44ZM98.9533 181.174C101.197 181.174 102.253 180.074 102.253 177.72C102.253 175.366 101.197 174.266 98.9533 174.266C96.7093 174.266 95.6753 175.366 95.6753 177.72C95.6753 180.074 96.7093 181.174 98.9533 181.174ZM107.844 183V167.6H110.088V183H107.844ZM117.146 183.22C114.638 183.22 112.966 181.966 112.57 180.03L114.726 179.392C114.968 180.932 115.738 181.416 117.3 181.416C118.62 181.416 119.324 180.998 119.324 180.162C119.324 179.37 119.016 179.062 117.762 178.842L115.848 178.49C114.132 178.204 112.878 177.302 112.878 175.41C112.878 173.452 114.44 172.22 116.926 172.22C119.368 172.22 120.908 173.21 121.304 175.41L119.236 175.938C119.06 174.288 118.378 173.98 117.014 173.98C115.738 173.98 115.122 174.398 115.122 175.278C115.122 176.004 115.43 176.378 116.442 176.532L118.818 176.95C120.468 177.236 121.546 178.16 121.546 179.854C121.546 181.922 119.874 183.22 117.146 183.22Z" fill="black"/>
</svg>
