<svg width="87" height="203" viewBox="0 0 87 203" fill="none" xmlns="http://www.w3.org/2000/svg">
<path d="M76.668 10V130" stroke="black"/>
<path d="M43.334 10V130" stroke="black"/>
<path d="M10 10V130" stroke="black"/>
<path d="M30.9726 167.6H34.9986V183H32.6666V169.14L31.9846 171.78L27.7826 183H24.9226L20.6986 171.78L20.0386 169.25V183H17.7066V167.6H21.7326L25.0546 176.884L26.3526 180.976L27.6506 176.884L30.9726 167.6ZM43.4206 172.22C46.5006 172.22 48.9866 174.376 48.9866 177.72C48.9866 181.064 46.5006 183.22 43.4206 183.22C40.3626 183.22 37.8766 181.064 37.8766 177.72C37.8766 174.376 40.3626 172.22 43.4206 172.22ZM43.4206 181.174C45.6646 181.174 46.7206 180.074 46.7206 177.72C46.7206 175.366 45.6646 174.266 43.4206 174.266C41.1986 174.266 40.1426 175.366 40.1426 177.72C40.1426 180.074 41.1986 181.174 43.4206 181.174ZM55.2107 183.22C52.7027 183.22 51.0307 181.966 50.6347 180.03L52.7907 179.392C53.0327 180.932 53.8027 181.416 55.3647 181.416C56.6847 181.416 57.3887 180.998 57.3887 180.162C57.3887 179.37 57.0807 179.062 55.8267 178.842L53.9127 178.49C52.1967 178.204 50.9427 177.302 50.9427 175.41C50.9427 173.452 52.5047 172.22 54.9907 172.22C57.4327 172.22 58.9727 173.21 59.3687 175.41L57.3007 175.938C57.1247 174.288 56.4427 173.98 55.0787 173.98C53.8027 173.98 53.1867 174.398 53.1867 175.278C53.1867 176.004 53.4947 176.378 54.5067 176.532L56.8827 176.95C58.5327 177.236 59.6107 178.16 59.6107 179.854C59.6107 181.922 57.9387 183.22 55.2107 183.22ZM65.7381 183.22C63.2301 183.22 61.5581 181.966 61.1621 180.03L63.3181 179.392C63.5601 180.932 64.3301 181.416 65.8921 181.416C67.2121 181.416 67.9161 180.998 67.9161 180.162C67.9161 179.37 67.6081 179.062 66.3541 178.842L64.4401 178.49C62.7241 178.204 61.4701 177.302 61.4701 175.41C61.4701 173.452 63.0321 172.22 65.5181 172.22C67.9601 172.22 69.5001 173.21 69.8961 175.41L67.8281 175.938C67.6521 174.288 66.9701 173.98 65.6061 173.98C64.3301 173.98 63.7141 174.398 63.7141 175.278C63.7141 176.004 64.0221 176.378 65.0341 176.532L67.4101 176.95C69.0601 177.236 70.1381 178.16 70.1381 179.854C70.1381 181.922 68.4661 183.22 65.7381 183.22Z" fill="black"/>
</svg>
