<svg width="201" height="310" viewBox="0 0 201 310" fill="none" xmlns="http://www.w3.org/2000/svg">
<path d="M116.051 170.694C115.788 170.431 115.361 170.431 115.098 170.694L110.809 174.983C110.546 175.246 110.546 175.673 110.809 175.936C111.072 176.199 111.499 176.199 111.762 175.936L115.574 172.124L119.387 175.936C119.65 176.199 120.077 176.199 120.34 175.936C120.603 175.673 120.603 175.246 120.34 174.983L116.051 170.694ZM115.574 171.171H114.901V186.897H115.574H116.248V171.171H115.574Z" fill="black"/>
<path d="M177.04 170.695C176.776 170.432 176.35 170.432 176.086 170.695L171.798 174.984C171.535 175.247 171.535 175.674 171.798 175.937C172.061 176.2 172.488 176.2 172.751 175.937L176.563 172.125L180.375 175.937C180.638 176.2 181.065 176.2 181.328 175.937C181.591 175.674 181.591 175.247 181.328 174.984L177.04 170.695ZM176.563 171.172H175.889V186.898H176.563H177.237V171.172H176.563Z" fill="black"/>
<path d="M165.808 247.071C165.544 246.808 165.118 246.808 164.855 247.071L160.566 251.36C160.303 251.623 160.303 252.049 160.566 252.313C160.829 252.576 161.256 252.576 161.519 252.313L165.331 248.5L169.143 252.313C169.406 252.576 169.833 252.576 170.096 252.313C170.359 252.049 170.359 251.623 170.096 251.36L165.808 247.071ZM165.331 247.547H164.657V263.273H165.331H166.005V247.547H165.331Z" fill="black"/>
<path d="M89.8811 217.474C90.1442 217.21 90.1442 216.784 89.8811 216.521L85.5924 212.232C85.3292 211.969 84.9025 211.969 84.6393 212.232C84.3761 212.495 84.3761 212.922 84.6393 213.185L88.4515 216.997L84.6393 220.809C84.3761 221.072 84.3761 221.499 84.6393 221.762C84.9025 222.025 85.3292 222.025 85.5924 221.762L89.8811 217.474ZM65.566 216.521C65.3028 216.784 65.3028 217.21 65.566 217.474L69.8547 221.762C70.1179 222.025 70.5446 222.025 70.8078 221.762C71.0709 221.499 71.0709 221.072 70.8078 220.809L66.9956 216.997L70.8078 213.185C71.0709 212.922 71.0709 212.495 70.8078 212.232C70.5446 211.969 70.1179 211.969 69.8547 212.232L65.566 216.521ZM89.4045 216.997V216.323H66.0425V216.997V217.671H89.4045V216.997Z" fill="black"/>
<path d="M36.8128 191.416C37.076 191.679 37.5027 191.679 37.7658 191.416L42.0545 187.127C42.3177 186.864 42.3177 186.437 42.0545 186.174C41.7913 185.911 41.3647 185.911 41.1015 186.174L37.2893 189.986L33.4771 186.174C33.214 185.911 32.7873 185.911 32.5241 186.174C32.2609 186.437 32.2609 186.864 32.5241 187.127L36.8128 191.416ZM37.7658 147.782C37.5027 147.519 37.076 147.519 36.8128 147.782L32.5241 152.071C32.2609 152.334 32.2609 152.761 32.5241 153.024C32.7873 153.287 33.214 153.287 33.4771 153.024L37.2893 149.212L41.1015 153.024C41.3647 153.287 41.7913 153.287 42.0545 153.024C42.3177 152.761 42.3177 152.334 42.0545 152.071L37.7658 147.782ZM37.2893 190.939H37.9632V170.722H37.2893H36.6154V190.939H37.2893ZM37.2893 170.722H37.9632L37.9632 148.259H37.2893H36.6154L36.6154 170.722H37.2893Z" fill="black"/>
<rect x="92.5496" y="186.793" width="107.825" height="58.1615" rx="4.04342" stroke="black" stroke-width="0.898538"/>
<path d="M113.092 219.461L116.136 211.756H117.54L120.595 219.461H119.438L118.685 217.552H114.934L114.193 219.461H113.092ZM115.282 216.642H118.326L117.394 214.227C117.371 214.16 117.338 214.066 117.293 213.946C117.248 213.826 117.199 213.695 117.147 213.553C117.094 213.403 117.042 213.254 116.989 213.104C116.937 212.947 116.888 212.804 116.843 212.677H116.776C116.724 212.827 116.664 212.999 116.596 213.194C116.529 213.388 116.462 213.579 116.394 213.766C116.327 213.946 116.271 214.1 116.226 214.227L115.282 216.642ZM121.444 219.461V213.553H122.242L122.332 214.53H122.41C122.47 214.343 122.553 214.167 122.657 214.002C122.762 213.83 122.904 213.692 123.084 213.587C123.264 213.474 123.485 213.418 123.747 213.418C123.859 213.418 123.96 213.429 124.05 213.452C124.147 213.467 124.219 213.486 124.264 213.508V214.418H123.893C123.638 214.418 123.417 214.463 123.23 214.553C123.051 214.635 122.901 214.755 122.781 214.912C122.661 215.069 122.571 215.257 122.511 215.474C122.459 215.691 122.433 215.923 122.433 216.17V219.461H121.444ZM127.074 219.596C126.588 219.596 126.168 219.487 125.816 219.27C125.472 219.053 125.202 218.716 125.008 218.259C124.821 217.795 124.727 217.196 124.727 216.462C124.727 215.766 124.824 215.193 125.019 214.744C125.214 214.294 125.483 213.961 125.828 213.744C126.172 213.527 126.573 213.418 127.03 213.418C127.292 213.418 127.535 213.448 127.76 213.508C127.984 213.568 128.183 213.662 128.355 213.789C128.535 213.916 128.692 214.085 128.827 214.294H128.894V211.34H129.882V219.461H129.085L128.995 218.619H128.916C128.714 218.948 128.452 219.195 128.13 219.36C127.808 219.517 127.456 219.596 127.074 219.596ZM127.31 218.731C127.685 218.731 127.988 218.649 128.22 218.484C128.452 218.319 128.621 218.079 128.726 217.765C128.838 217.45 128.894 217.061 128.894 216.597V216.417C128.894 216.013 128.853 215.672 128.77 215.395C128.688 215.118 128.576 214.897 128.433 214.732C128.291 214.568 128.126 214.452 127.939 214.384C127.752 214.317 127.554 214.283 127.344 214.283C126.977 214.283 126.678 214.358 126.445 214.508C126.213 214.65 126.041 214.878 125.929 215.193C125.816 215.5 125.76 215.9 125.76 216.395V216.631C125.76 217.14 125.82 217.552 125.94 217.866C126.06 218.173 126.232 218.394 126.457 218.529C126.689 218.663 126.973 218.731 127.31 218.731ZM133.267 219.596C132.698 219.596 132.242 219.45 131.897 219.158C131.553 218.866 131.381 218.356 131.381 217.63V213.553H132.369V217.495C132.369 217.742 132.399 217.945 132.459 218.102C132.519 218.259 132.605 218.383 132.717 218.473C132.829 218.562 132.96 218.626 133.11 218.663C133.267 218.701 133.436 218.72 133.616 218.72C133.9 218.72 134.162 218.652 134.402 218.517C134.641 218.383 134.836 218.188 134.986 217.933C135.143 217.671 135.222 217.368 135.222 217.024V213.553H136.21V219.461H135.413L135.323 218.574H135.244C135.087 218.813 134.907 219.008 134.705 219.158C134.51 219.307 134.29 219.416 134.042 219.483C133.803 219.558 133.544 219.596 133.267 219.596ZM137.744 212.441V211.34H138.732V212.441H137.744ZM137.744 219.461V213.553H138.732V219.461H137.744ZM140.266 219.461V213.553H141.064L141.154 214.44H141.232C141.389 214.201 141.565 214.006 141.76 213.856C141.962 213.707 142.183 213.598 142.423 213.531C142.67 213.456 142.932 213.418 143.209 213.418C143.583 213.418 143.909 213.482 144.186 213.609C144.471 213.736 144.692 213.942 144.849 214.227C145.014 214.511 145.096 214.897 145.096 215.384V219.461H144.108V215.519C144.108 215.272 144.074 215.069 144.006 214.912C143.947 214.755 143.86 214.631 143.748 214.541C143.643 214.452 143.512 214.388 143.355 214.351C143.205 214.313 143.037 214.294 142.85 214.294C142.573 214.294 142.31 214.362 142.063 214.497C141.816 214.631 141.618 214.826 141.468 215.081C141.326 215.335 141.255 215.638 141.255 215.99V219.461H140.266ZM149.021 219.596C148.422 219.596 147.917 219.487 147.505 219.27C147.101 219.045 146.79 218.705 146.573 218.248C146.363 217.791 146.258 217.211 146.258 216.507C146.258 215.796 146.363 215.215 146.573 214.766C146.79 214.309 147.101 213.972 147.505 213.755C147.917 213.531 148.422 213.418 149.021 213.418C149.62 213.418 150.122 213.531 150.526 213.755C150.938 213.972 151.249 214.309 151.458 214.766C151.668 215.215 151.773 215.796 151.773 216.507C151.773 217.211 151.668 217.791 151.458 218.248C151.249 218.705 150.938 219.045 150.526 219.27C150.122 219.487 149.62 219.596 149.021 219.596ZM149.021 218.765C149.403 218.765 149.721 218.69 149.976 218.54C150.23 218.39 150.421 218.158 150.549 217.844C150.683 217.522 150.751 217.117 150.751 216.631V216.383C150.751 215.889 150.683 215.485 150.549 215.17C150.421 214.856 150.23 214.624 149.976 214.474C149.721 214.324 149.403 214.249 149.021 214.249C148.639 214.249 148.317 214.324 148.055 214.474C147.801 214.624 147.61 214.856 147.482 215.17C147.355 215.485 147.291 215.889 147.291 216.383V216.631C147.291 217.117 147.355 217.522 147.482 217.844C147.61 218.158 147.801 218.39 148.055 218.54C148.317 218.69 148.639 218.765 149.021 218.765ZM158.661 219.596C158.01 219.596 157.448 219.491 156.977 219.281C156.505 219.072 156.142 218.742 155.887 218.293C155.64 217.836 155.516 217.252 155.516 216.541V211.756H156.583V216.653C156.583 217.327 156.763 217.832 157.123 218.169C157.489 218.506 158.002 218.675 158.661 218.675C159.328 218.675 159.848 218.506 160.223 218.169C160.597 217.832 160.784 217.327 160.784 216.653V211.756H161.84V216.541C161.84 217.252 161.713 217.836 161.458 218.293C161.203 218.742 160.837 219.072 160.357 219.281C159.886 219.491 159.32 219.596 158.661 219.596ZM163.754 219.461V211.756H164.788L168.528 216.833C168.565 216.878 168.614 216.945 168.674 217.035C168.734 217.125 168.794 217.215 168.854 217.304C168.913 217.387 168.962 217.462 169 217.529H169.044C169.044 217.409 169.044 217.293 169.044 217.181C169.044 217.061 169.044 216.945 169.044 216.833V211.756H170.089V219.461H169.112L165.327 214.294C165.274 214.212 165.196 214.096 165.091 213.946C164.994 213.796 164.911 213.677 164.844 213.587H164.788C164.788 213.707 164.788 213.826 164.788 213.946C164.788 214.058 164.788 214.175 164.788 214.294V219.461H163.754ZM175.484 219.596C174.683 219.596 173.994 219.45 173.417 219.158C172.848 218.866 172.406 218.424 172.092 217.832C171.785 217.241 171.631 216.5 171.631 215.608C171.631 214.71 171.785 213.969 172.092 213.385C172.406 212.793 172.848 212.351 173.417 212.059C173.994 211.767 174.683 211.621 175.484 211.621C176.285 211.621 176.97 211.767 177.539 212.059C178.116 212.351 178.558 212.793 178.865 213.385C179.179 213.969 179.336 214.71 179.336 215.608C179.336 216.5 179.179 217.241 178.865 217.832C178.558 218.424 178.116 218.866 177.539 219.158C176.97 219.45 176.285 219.596 175.484 219.596ZM175.484 218.675C175.903 218.675 176.281 218.619 176.618 218.506C176.963 218.394 177.251 218.218 177.483 217.978C177.723 217.731 177.906 217.424 178.034 217.057C178.161 216.683 178.224 216.241 178.224 215.732V215.496C178.224 214.979 178.161 214.538 178.034 214.171C177.906 213.796 177.723 213.489 177.483 213.25C177.251 213.003 176.963 212.823 176.618 212.711C176.281 212.598 175.903 212.542 175.484 212.542C175.057 212.542 174.675 212.598 174.338 212.711C174.001 212.823 173.713 213.003 173.473 213.25C173.234 213.489 173.05 213.796 172.923 214.171C172.803 214.538 172.743 214.979 172.743 215.496V215.732C172.743 216.241 172.803 216.683 172.923 217.057C173.05 217.424 173.234 217.731 173.473 217.978C173.713 218.218 174.001 218.394 174.338 218.506C174.675 218.619 175.057 218.675 175.484 218.675Z" fill="black"/>
<rect x="92.5496" y="122.651" width="49.9683" height="45.3762" rx="4.04342" stroke="black" stroke-width="0.898538"/>
<path d="M107.564 143.57V135.865H108.631V142.638H112.461V143.57H107.564ZM113.586 143.57V135.865H119.516V136.786H114.653V139.167H119.022V140.088H114.653V142.649H119.584V143.57H113.586ZM121.187 143.57V135.865H124.062C124.871 135.865 125.56 136 126.129 136.269C126.698 136.539 127.132 136.958 127.432 137.527C127.739 138.089 127.892 138.819 127.892 139.717C127.892 140.601 127.739 141.327 127.432 141.896C127.132 142.465 126.698 142.888 126.129 143.166C125.56 143.435 124.871 143.57 124.062 143.57H121.187ZM122.254 142.649H124.04C124.467 142.649 124.849 142.596 125.185 142.492C125.522 142.379 125.811 142.211 126.05 141.986C126.29 141.762 126.47 141.473 126.589 141.121C126.717 140.762 126.78 140.335 126.78 139.841V139.616C126.78 139.107 126.717 138.677 126.589 138.325C126.47 137.965 126.29 137.673 126.05 137.449C125.818 137.224 125.534 137.059 125.197 136.954C124.86 136.842 124.474 136.786 124.04 136.786H122.254V142.649ZM108.898 155.57V149.662H109.695L109.785 150.639H109.864C109.924 150.452 110.006 150.276 110.111 150.111C110.216 149.939 110.358 149.801 110.538 149.696C110.717 149.583 110.938 149.527 111.2 149.527C111.313 149.527 111.414 149.538 111.504 149.561C111.601 149.576 111.672 149.595 111.717 149.617V150.527H111.346C111.092 150.527 110.871 150.572 110.684 150.662C110.504 150.744 110.354 150.864 110.234 151.021C110.115 151.178 110.025 151.365 109.965 151.583C109.912 151.8 109.886 152.032 109.886 152.279V155.57H108.898ZM112.627 148.55V147.449H113.615V148.55H112.627ZM112.627 155.57V149.662H113.615V155.57H112.627ZM115.15 155.57V149.662H115.947L116.037 150.549H116.116C116.273 150.31 116.449 150.115 116.644 149.965C116.846 149.815 117.067 149.707 117.306 149.64C117.553 149.565 117.815 149.527 118.093 149.527C118.467 149.527 118.793 149.591 119.07 149.718C119.354 149.845 119.575 150.051 119.732 150.336C119.897 150.62 119.979 151.006 119.979 151.493V155.57H118.991V151.628C118.991 151.38 118.957 151.178 118.89 151.021C118.83 150.864 118.744 150.74 118.632 150.65C118.527 150.561 118.396 150.497 118.239 150.459C118.089 150.422 117.92 150.403 117.733 150.403C117.456 150.403 117.194 150.471 116.947 150.605C116.7 150.74 116.501 150.935 116.352 151.19C116.209 151.444 116.138 151.747 116.138 152.099V155.57H115.15ZM122.478 157.614C122.194 157.614 121.932 157.554 121.692 157.434C121.452 157.322 121.261 157.157 121.119 156.94C120.977 156.723 120.906 156.465 120.906 156.165C120.906 155.836 120.996 155.562 121.175 155.345C121.363 155.128 121.583 154.967 121.838 154.862C121.651 154.772 121.505 154.649 121.4 154.492C121.295 154.327 121.243 154.147 121.243 153.953C121.243 153.69 121.336 153.47 121.524 153.29C121.718 153.11 121.954 152.99 122.231 152.93C121.977 152.766 121.774 152.556 121.625 152.301C121.482 152.039 121.411 151.751 121.411 151.437C121.411 151.062 121.497 150.733 121.67 150.448C121.849 150.164 122.119 149.939 122.478 149.774C122.845 149.61 123.291 149.527 123.815 149.527C124.054 149.527 124.279 149.546 124.489 149.583C124.698 149.613 124.886 149.666 125.05 149.741C125.312 149.621 125.507 149.467 125.634 149.28C125.769 149.093 125.852 148.902 125.881 148.707H126.859C126.859 148.932 126.806 149.145 126.701 149.348C126.604 149.542 126.469 149.707 126.297 149.842C126.125 149.969 125.915 150.055 125.668 150.1C125.855 150.28 125.994 150.482 126.084 150.707C126.181 150.931 126.23 151.175 126.23 151.437C126.23 151.811 126.14 152.144 125.96 152.436C125.788 152.721 125.526 152.945 125.174 153.11C124.822 153.275 124.38 153.357 123.849 153.357H122.928C122.725 153.357 122.561 153.398 122.433 153.481C122.306 153.556 122.242 153.679 122.242 153.851C122.242 154.001 122.306 154.125 122.433 154.222C122.561 154.312 122.725 154.357 122.928 154.357H125.331C125.765 154.357 126.121 154.503 126.398 154.795C126.675 155.079 126.814 155.446 126.814 155.896C126.814 156.218 126.731 156.506 126.567 156.76C126.409 157.023 126.185 157.228 125.893 157.378C125.608 157.535 125.275 157.614 124.893 157.614H122.478ZM122.759 156.862H124.882C125.054 156.862 125.211 156.824 125.354 156.749C125.496 156.682 125.608 156.584 125.691 156.457C125.773 156.33 125.814 156.191 125.814 156.042C125.814 155.787 125.739 155.585 125.589 155.435C125.44 155.285 125.252 155.21 125.028 155.21H122.759C122.519 155.21 122.317 155.293 122.153 155.458C121.988 155.615 121.905 155.809 121.905 156.042C121.905 156.289 121.988 156.487 122.153 156.637C122.317 156.787 122.519 156.862 122.759 156.862ZM123.826 152.616C124.305 152.616 124.661 152.511 124.893 152.301C125.125 152.092 125.241 151.804 125.241 151.437C125.241 151.077 125.125 150.793 124.893 150.583C124.661 150.373 124.305 150.269 123.826 150.269C123.347 150.269 122.987 150.373 122.748 150.583C122.516 150.793 122.4 151.077 122.4 151.437C122.4 151.669 122.452 151.875 122.557 152.054C122.662 152.234 122.819 152.373 123.029 152.47C123.238 152.567 123.504 152.616 123.826 152.616Z" fill="black"/>
<rect x="12.5796" y="194.084" width="49.9683" height="45.3762" rx="4.04342" stroke="black" stroke-width="0.898538"/>
<path d="M20.8619 220.656V212.951H21.9289V219.724H25.7589V220.656H20.8619ZM28.1752 220.791C27.9581 220.791 27.7409 220.764 27.5238 220.712C27.3067 220.66 27.1045 220.573 26.9173 220.454C26.7301 220.334 26.5803 220.169 26.468 219.959C26.3557 219.742 26.2995 219.473 26.2995 219.151C26.2995 218.746 26.3969 218.413 26.5916 218.151C26.7862 217.889 27.0558 217.687 27.4002 217.545C27.7522 217.395 28.1678 217.294 28.647 217.241C29.1262 217.181 29.6466 217.151 30.2082 217.151V216.478C30.2082 216.26 30.1707 216.073 30.0959 215.916C30.021 215.759 29.8862 215.639 29.6915 215.557C29.5043 215.467 29.2348 215.422 28.8828 215.422C28.5459 215.422 28.2763 215.467 28.0742 215.557C27.8795 215.639 27.7409 215.748 27.6586 215.882C27.5837 216.017 27.5463 216.167 27.5463 216.332V216.5H26.5916C26.5841 216.463 26.5803 216.425 26.5803 216.388C26.5803 216.35 26.5803 216.305 26.5803 216.253C26.5803 215.894 26.6777 215.594 26.8724 215.354C27.0745 215.107 27.3553 214.924 27.7147 214.804C28.0742 214.677 28.486 214.613 28.9502 214.613C29.4444 214.613 29.8563 214.684 30.1857 214.827C30.5227 214.969 30.7735 215.171 30.9382 215.433C31.1105 215.695 31.1966 216.01 31.1966 216.377V219.578C31.1966 219.72 31.2303 219.821 31.2977 219.881C31.3651 219.933 31.4474 219.959 31.5448 219.959H31.9828V220.611C31.878 220.656 31.7619 220.693 31.6346 220.723C31.5073 220.761 31.3613 220.779 31.1966 220.779C31.0019 220.779 30.8409 220.738 30.7136 220.656C30.5863 220.581 30.489 220.476 30.4216 220.341C30.3542 220.199 30.3093 220.042 30.2868 219.87H30.2082C30.0734 220.057 29.9012 220.221 29.6915 220.364C29.4894 220.499 29.261 220.603 29.0064 220.678C28.7518 220.753 28.4748 220.791 28.1752 220.791ZM28.4223 219.959C28.6619 219.959 28.8866 219.922 29.0962 219.847C29.3134 219.772 29.5043 219.667 29.6691 219.533C29.8338 219.39 29.9648 219.222 30.0622 219.027C30.1595 218.833 30.2082 218.619 30.2082 218.387V217.893C29.6017 217.893 29.085 217.926 28.6582 217.994C28.2314 218.061 27.9019 218.181 27.6698 218.353C27.4452 218.526 27.3329 218.769 27.3329 219.083C27.3329 219.286 27.3778 219.45 27.4676 219.578C27.5575 219.705 27.6848 219.802 27.8495 219.87C28.0143 219.929 28.2052 219.959 28.4223 219.959ZM32.8131 222.599V214.748H33.5993L33.7004 215.59H33.779C33.9812 215.261 34.2395 215.017 34.554 214.86C34.8685 214.695 35.2241 214.613 35.621 214.613C36.1152 214.613 36.5345 214.722 36.879 214.939C37.2234 215.156 37.4892 215.497 37.6764 215.961C37.8636 216.418 37.9572 217.013 37.9572 217.747C37.9572 218.436 37.8599 219.008 37.6652 219.465C37.478 219.914 37.2122 220.248 36.8677 220.465C36.5233 220.682 36.1227 220.791 35.6659 220.791C35.4113 220.791 35.1717 220.761 34.9471 220.701C34.7225 220.641 34.5203 220.547 34.3406 220.42C34.1609 220.285 34.0036 220.117 33.8688 219.914H33.8015V222.599H32.8131ZM35.3514 219.926C35.7183 219.926 36.0179 219.855 36.25 219.712C36.4821 219.563 36.6543 219.334 36.7666 219.027C36.879 218.713 36.9351 218.312 36.9351 217.825V217.59C36.9351 217.073 36.8752 216.661 36.7554 216.354C36.6356 216.04 36.4596 215.815 36.2275 215.68C36.0029 215.545 35.7221 215.478 35.3851 215.478C35.0182 215.478 34.715 215.56 34.4754 215.725C34.2432 215.882 34.071 216.122 33.9587 216.444C33.8539 216.766 33.8015 217.159 33.8015 217.623V217.792C33.8015 218.204 33.8389 218.548 33.9138 218.825C33.9961 219.095 34.1085 219.312 34.2507 219.476C34.4005 219.641 34.569 219.757 34.7562 219.825C34.9434 219.892 35.1418 219.926 35.3514 219.926ZM40.5673 220.791C40.2603 220.791 40.0206 220.734 39.8484 220.622C39.6762 220.502 39.5527 220.349 39.4778 220.162C39.4029 219.967 39.3655 219.761 39.3655 219.544V215.579H38.6017V214.748H39.3879L39.5676 213.097H40.3539V214.748H41.4658V215.579H40.3539V219.398C40.3539 219.585 40.3876 219.727 40.4549 219.825C40.5223 219.914 40.6496 219.959 40.8368 219.959H41.4658V220.611C41.3909 220.648 41.3011 220.678 41.1962 220.701C41.0914 220.723 40.9828 220.742 40.8705 220.757C40.7657 220.779 40.6646 220.791 40.5673 220.791ZM44.9462 220.791C44.3472 220.791 43.8418 220.682 43.4299 220.465C43.0256 220.24 42.7149 219.9 42.4977 219.443C42.2881 218.986 42.1832 218.406 42.1832 217.702C42.1832 216.991 42.2881 216.41 42.4977 215.961C42.7149 215.504 43.0256 215.167 43.4299 214.95C43.8418 214.725 44.3472 214.613 44.9462 214.613C45.5453 214.613 46.0469 214.725 46.4513 214.95C46.8631 215.167 47.1739 215.504 47.3835 215.961C47.5932 216.41 47.698 216.991 47.698 217.702C47.698 218.406 47.5932 218.986 47.3835 219.443C47.1739 219.9 46.8631 220.24 46.4513 220.465C46.0469 220.682 45.5453 220.791 44.9462 220.791ZM44.9462 219.959C45.3281 219.959 45.6463 219.885 45.9009 219.735C46.1555 219.585 46.3465 219.353 46.4737 219.038C46.6085 218.716 46.6759 218.312 46.6759 217.825V217.578C46.6759 217.084 46.6085 216.68 46.4737 216.365C46.3465 216.051 46.1555 215.819 45.9009 215.669C45.6463 215.519 45.3281 215.444 44.9462 215.444C44.5643 215.444 44.2424 215.519 43.9803 215.669C43.7257 215.819 43.5348 216.051 43.4075 216.365C43.2802 216.68 43.2165 217.084 43.2165 217.578V217.825C43.2165 218.312 43.2802 218.716 43.4075 219.038C43.5348 219.353 43.7257 219.585 43.9803 219.735C44.2424 219.885 44.5643 219.959 44.9462 219.959ZM48.9258 222.599V214.748H49.712L49.8131 215.59H49.8917C50.0939 215.261 50.3522 215.017 50.6667 214.86C50.9812 214.695 51.3368 214.613 51.7337 214.613C52.2279 214.613 52.6472 214.722 52.9917 214.939C53.3361 215.156 53.6019 215.497 53.7891 215.961C53.9763 216.418 54.0699 217.013 54.0699 217.747C54.0699 218.436 53.9726 219.008 53.7779 219.465C53.5907 219.914 53.3249 220.248 52.9804 220.465C52.636 220.682 52.2354 220.791 51.7786 220.791C51.524 220.791 51.2844 220.761 51.0598 220.701C50.8352 220.641 50.633 220.547 50.4533 220.42C50.2736 220.285 50.1163 220.117 49.9816 219.914H49.9142V222.599H48.9258ZM51.4641 219.926C51.831 219.926 52.1306 219.855 52.3627 219.712C52.5948 219.563 52.767 219.334 52.8793 219.027C52.9917 218.713 53.0478 218.312 53.0478 217.825V217.59C53.0478 217.073 52.9879 216.661 52.8681 216.354C52.7483 216.04 52.5723 215.815 52.3402 215.68C52.1156 215.545 51.8348 215.478 51.4978 215.478C51.1309 215.478 50.8277 215.56 50.5881 215.725C50.3559 215.882 50.1837 216.122 50.0714 216.444C49.9666 216.766 49.9142 217.159 49.9142 217.623V217.792C49.9142 218.204 49.9516 218.548 50.0265 218.825C50.1088 219.095 50.2212 219.312 50.3634 219.476C50.5132 219.641 50.6817 219.757 50.8689 219.825C51.0561 219.892 51.2545 219.926 51.4641 219.926Z" fill="black"/>
<rect x="150.505" y="122.651" width="49.9683" height="45.3762" rx="4.04342" stroke="black" stroke-width="0.898538"/>
<path d="M159.101 149.222V141.517H163.077C163.519 141.517 163.9 141.596 164.222 141.753C164.544 141.903 164.791 142.116 164.964 142.393C165.143 142.67 165.233 143 165.233 143.382C165.233 143.674 165.181 143.943 165.076 144.19C164.971 144.437 164.825 144.643 164.638 144.808C164.451 144.973 164.237 145.096 163.998 145.179V145.224C164.267 145.283 164.511 145.392 164.728 145.549C164.945 145.706 165.117 145.916 165.244 146.178C165.379 146.433 165.447 146.747 165.447 147.122C165.447 147.623 165.342 148.028 165.132 148.335C164.923 148.642 164.642 148.866 164.29 149.009C163.938 149.151 163.534 149.222 163.077 149.222H159.101ZM160.168 148.301H163.066C163.447 148.301 163.758 148.204 163.998 148.009C164.237 147.807 164.357 147.474 164.357 147.009C164.357 146.725 164.305 146.489 164.2 146.302C164.095 146.107 163.942 145.965 163.739 145.875C163.537 145.778 163.283 145.729 162.976 145.729H160.168V148.301ZM160.168 144.819H162.875C163.129 144.819 163.35 144.771 163.537 144.673C163.724 144.568 163.87 144.426 163.975 144.246C164.088 144.059 164.144 143.85 164.144 143.617C164.144 143.213 164.035 142.917 163.818 142.73C163.601 142.535 163.313 142.438 162.953 142.438H160.168V144.819ZM168.583 149.357C168.014 149.357 167.557 149.211 167.213 148.919C166.868 148.627 166.696 148.118 166.696 147.391V143.314H167.684V147.256C167.684 147.504 167.714 147.706 167.774 147.863C167.834 148.02 167.92 148.144 168.033 148.234C168.145 148.323 168.276 148.387 168.426 148.425C168.583 148.462 168.751 148.481 168.931 148.481C169.216 148.481 169.478 148.413 169.717 148.279C169.957 148.144 170.152 147.949 170.301 147.695C170.459 147.432 170.537 147.129 170.537 146.785V143.314H171.526V149.222H170.728L170.638 148.335H170.56C170.403 148.574 170.223 148.769 170.021 148.919C169.826 149.069 169.605 149.177 169.358 149.244C169.118 149.319 168.86 149.357 168.583 149.357ZM172.632 149.222V148.694L175.923 144.145H172.868V143.314H177.338V143.831L174.036 148.391H177.518V149.222H172.632ZM178.226 149.222V148.694L181.517 144.145H178.462V143.314H182.932V143.831L179.63 148.391H183.112V149.222H178.226ZM186.386 149.357C185.802 149.357 185.308 149.248 184.904 149.031C184.507 148.806 184.204 148.466 183.994 148.009C183.792 147.552 183.691 146.972 183.691 146.268C183.691 145.557 183.792 144.976 183.994 144.527C184.204 144.07 184.511 143.733 184.915 143.516C185.319 143.292 185.825 143.179 186.431 143.179C186.985 143.179 187.45 143.288 187.824 143.505C188.198 143.715 188.479 144.033 188.666 144.46C188.861 144.879 188.958 145.407 188.958 146.043V146.515H184.713C184.728 146.987 184.795 147.376 184.915 147.683C185.042 147.983 185.229 148.204 185.477 148.346C185.724 148.481 186.034 148.548 186.409 148.548C186.663 148.548 186.884 148.518 187.071 148.458C187.266 148.391 187.427 148.297 187.554 148.177C187.689 148.058 187.79 147.915 187.858 147.751C187.925 147.586 187.962 147.406 187.97 147.212H188.936C188.928 147.526 188.868 147.818 188.756 148.088C188.644 148.35 188.479 148.574 188.262 148.762C188.045 148.949 187.779 149.095 187.465 149.2C187.15 149.304 186.791 149.357 186.386 149.357ZM184.735 145.774H187.936C187.936 145.444 187.899 145.167 187.824 144.943C187.749 144.718 187.64 144.535 187.498 144.392C187.363 144.25 187.202 144.149 187.015 144.089C186.836 144.022 186.63 143.988 186.398 143.988C186.053 143.988 185.761 144.052 185.521 144.179C185.282 144.306 185.098 144.501 184.971 144.763C184.844 145.025 184.765 145.362 184.735 145.774ZM190.181 149.222V143.314H190.978L191.068 144.291H191.147C191.207 144.104 191.289 143.928 191.394 143.763C191.499 143.591 191.641 143.453 191.821 143.348C192 143.236 192.221 143.179 192.483 143.179C192.596 143.179 192.697 143.191 192.787 143.213C192.884 143.228 192.955 143.247 193 143.269V144.179H192.629C192.375 144.179 192.154 144.224 191.967 144.314C191.787 144.396 191.637 144.516 191.518 144.673C191.398 144.83 191.308 145.018 191.248 145.235C191.196 145.452 191.169 145.684 191.169 145.931V149.222H190.181Z" fill="black"/>
<rect x="130.737" y="263.721" width="69.6367" height="45.3762" rx="4.04342" stroke="black" stroke-width="0.898538"/>
<path d="M138.544 284.003L141.588 276.298H142.992L146.047 284.003H144.89L144.138 282.093H140.386L139.645 284.003H138.544ZM140.734 281.183H143.778L142.846 278.769C142.823 278.701 142.79 278.608 142.745 278.488C142.7 278.368 142.651 278.237 142.599 278.095C142.546 277.945 142.494 277.795 142.442 277.645C142.389 277.488 142.341 277.346 142.296 277.219H142.228C142.176 277.368 142.116 277.541 142.048 277.735C141.981 277.93 141.914 278.121 141.846 278.308C141.779 278.488 141.723 278.641 141.678 278.769L140.734 281.183ZM146.897 276.983V275.882H147.885V276.983H146.897ZM146.897 284.003V278.095H147.885V284.003H146.897ZM149.419 284.003V278.095H150.217L150.307 279.072H150.385C150.445 278.885 150.527 278.709 150.632 278.544C150.737 278.372 150.879 278.233 151.059 278.128C151.239 278.016 151.46 277.96 151.722 277.96C151.834 277.96 151.935 277.971 152.025 277.994C152.122 278.009 152.194 278.027 152.238 278.05V278.96H151.868C151.613 278.96 151.392 279.004 151.205 279.094C151.025 279.177 150.876 279.296 150.756 279.454C150.636 279.611 150.546 279.798 150.486 280.015C150.434 280.232 150.408 280.465 150.408 280.712V284.003H149.419ZM160.892 285.463L159.511 284.104C159.413 284.119 159.316 284.126 159.219 284.126C159.121 284.134 159.024 284.137 158.927 284.137C158.126 284.137 157.437 283.991 156.86 283.699C156.291 283.407 155.849 282.966 155.535 282.374C155.228 281.782 155.074 281.041 155.074 280.15C155.074 279.252 155.228 278.51 155.535 277.926C155.849 277.335 156.291 276.893 156.86 276.601C157.437 276.309 158.126 276.163 158.927 276.163C159.728 276.163 160.413 276.309 160.982 276.601C161.559 276.893 162.001 277.335 162.308 277.926C162.622 278.51 162.779 279.252 162.779 280.15C162.779 281.124 162.592 281.917 162.218 282.531C161.843 283.145 161.319 283.587 160.645 283.857L162.296 285.463H160.892ZM158.927 283.216C159.346 283.216 159.724 283.16 160.061 283.048C160.406 282.936 160.694 282.76 160.926 282.52C161.166 282.273 161.349 281.966 161.476 281.599C161.604 281.225 161.667 280.783 161.667 280.274V280.038C161.667 279.521 161.604 279.079 161.476 278.712C161.349 278.338 161.166 278.031 160.926 277.791C160.694 277.544 160.406 277.365 160.061 277.252C159.724 277.14 159.346 277.084 158.927 277.084C158.5 277.084 158.118 277.14 157.781 277.252C157.444 277.365 157.156 277.544 156.916 277.791C156.677 278.031 156.493 278.338 156.366 278.712C156.246 279.079 156.186 279.521 156.186 280.038V280.274C156.186 280.783 156.246 281.225 156.366 281.599C156.493 281.966 156.677 282.273 156.916 282.52C157.156 282.76 157.444 282.936 157.781 283.048C158.118 283.16 158.5 283.216 158.927 283.216ZM165.959 284.137C165.39 284.137 164.933 283.991 164.589 283.699C164.244 283.407 164.072 282.898 164.072 282.172V278.095H165.06V282.037C165.06 282.284 165.09 282.486 165.15 282.644C165.21 282.801 165.296 282.924 165.408 283.014C165.521 283.104 165.652 283.168 165.802 283.205C165.959 283.243 166.127 283.261 166.307 283.261C166.592 283.261 166.854 283.194 167.093 283.059C167.333 282.924 167.528 282.73 167.677 282.475C167.835 282.213 167.913 281.91 167.913 281.565V278.095H168.902V284.003H168.104L168.014 283.115H167.936C167.778 283.355 167.599 283.55 167.396 283.699C167.202 283.849 166.981 283.958 166.734 284.025C166.494 284.1 166.236 284.137 165.959 284.137ZM171.918 284.137C171.7 284.137 171.483 284.111 171.266 284.059C171.049 284.006 170.847 283.92 170.66 283.8C170.472 283.681 170.323 283.516 170.21 283.306C170.098 283.089 170.042 282.82 170.042 282.498C170.042 282.093 170.139 281.76 170.334 281.498C170.529 281.236 170.798 281.034 171.143 280.891C171.494 280.742 171.91 280.641 172.389 280.588C172.868 280.528 173.389 280.498 173.95 280.498V279.824C173.95 279.607 173.913 279.42 173.838 279.263C173.763 279.106 173.628 278.986 173.434 278.903C173.247 278.814 172.977 278.769 172.625 278.769C172.288 278.769 172.019 278.814 171.816 278.903C171.622 278.986 171.483 279.094 171.401 279.229C171.326 279.364 171.289 279.514 171.289 279.678V279.847H170.334C170.326 279.809 170.323 279.772 170.323 279.735C170.323 279.697 170.323 279.652 170.323 279.6C170.323 279.24 170.42 278.941 170.615 278.701C170.817 278.454 171.098 278.271 171.457 278.151C171.816 278.024 172.228 277.96 172.692 277.96C173.187 277.96 173.599 278.031 173.928 278.173C174.265 278.316 174.516 278.518 174.681 278.78C174.853 279.042 174.939 279.356 174.939 279.723V282.924C174.939 283.067 174.973 283.168 175.04 283.228C175.107 283.28 175.19 283.306 175.287 283.306H175.725V283.958C175.62 284.003 175.504 284.04 175.377 284.07C175.25 284.107 175.104 284.126 174.939 284.126C174.744 284.126 174.583 284.085 174.456 284.003C174.329 283.928 174.231 283.823 174.164 283.688C174.096 283.546 174.052 283.389 174.029 283.216H173.95C173.816 283.404 173.643 283.568 173.434 283.711C173.232 283.845 173.003 283.95 172.749 284.025C172.494 284.1 172.217 284.137 171.918 284.137ZM172.165 283.306C172.404 283.306 172.629 283.269 172.839 283.194C173.056 283.119 173.247 283.014 173.411 282.879C173.576 282.737 173.707 282.569 173.804 282.374C173.902 282.179 173.95 281.966 173.95 281.734V281.24C173.344 281.24 172.827 281.273 172.4 281.341C171.974 281.408 171.644 281.528 171.412 281.7C171.187 281.872 171.075 282.116 171.075 282.43C171.075 282.632 171.12 282.797 171.21 282.924C171.3 283.052 171.427 283.149 171.592 283.216C171.757 283.276 171.947 283.306 172.165 283.306ZM176.555 284.003V275.882H177.544V284.003H176.555ZM179.078 276.983V275.882H180.066V276.983H179.078ZM179.078 284.003V278.095H180.066V284.003H179.078ZM182.982 284.137C182.675 284.137 182.436 284.081 182.264 283.969C182.091 283.849 181.968 283.696 181.893 283.508C181.818 283.314 181.781 283.108 181.781 282.891V278.926H181.017V278.095H181.803L181.983 276.444H182.769V278.095H183.881V278.926H182.769V282.745C182.769 282.932 182.803 283.074 182.87 283.171C182.937 283.261 183.065 283.306 183.252 283.306H183.881V283.958C183.806 283.995 183.716 284.025 183.611 284.048C183.506 284.07 183.398 284.089 183.286 284.104C183.181 284.126 183.08 284.137 182.982 284.137ZM185.441 286.047C185.261 286.047 185.104 286.032 184.969 286.002C184.842 285.979 184.756 285.964 184.711 285.957V285.238H185.205C185.385 285.238 185.56 285.201 185.733 285.126C185.905 285.051 186.066 284.924 186.216 284.744C186.365 284.564 186.493 284.317 186.598 284.003L184.306 278.095H185.34L186.519 281.139C186.571 281.281 186.631 281.457 186.699 281.666C186.774 281.869 186.845 282.078 186.912 282.295C186.987 282.513 187.047 282.703 187.092 282.868H187.159C187.189 282.748 187.227 282.614 187.271 282.464C187.316 282.314 187.361 282.161 187.406 282.003C187.459 281.839 187.507 281.685 187.552 281.543C187.605 281.393 187.646 281.262 187.676 281.15L188.675 278.095H189.675L187.676 283.834C187.563 284.156 187.44 284.452 187.305 284.721C187.17 284.998 187.021 285.234 186.856 285.429C186.691 285.624 186.493 285.773 186.261 285.878C186.028 285.991 185.755 286.047 185.441 286.047ZM151.124 296.137C150.72 296.137 150.364 296.096 150.057 296.014C149.75 295.931 149.495 295.812 149.293 295.654C149.091 295.497 148.938 295.31 148.833 295.093C148.728 294.876 148.675 294.629 148.675 294.352C148.675 294.314 148.675 294.28 148.675 294.25C148.675 294.213 148.679 294.183 148.687 294.161H149.664C149.656 294.191 149.653 294.217 149.653 294.239C149.653 294.262 149.653 294.284 149.653 294.307C149.66 294.569 149.727 294.775 149.855 294.924C149.99 295.074 150.173 295.179 150.405 295.239C150.637 295.299 150.896 295.329 151.18 295.329C151.427 295.329 151.656 295.299 151.865 295.239C152.075 295.171 152.24 295.074 152.359 294.947C152.487 294.812 152.55 294.644 152.55 294.441C152.55 294.194 152.468 294.007 152.303 293.88C152.146 293.745 151.936 293.64 151.674 293.565C151.412 293.49 151.139 293.412 150.854 293.329C150.615 293.262 150.375 293.187 150.136 293.105C149.896 293.022 149.679 292.921 149.484 292.802C149.297 292.682 149.143 292.528 149.024 292.341C148.911 292.146 148.855 291.903 148.855 291.611C148.855 291.349 148.908 291.117 149.012 290.915C149.125 290.712 149.282 290.54 149.484 290.398C149.686 290.256 149.93 290.151 150.214 290.083C150.506 290.009 150.828 289.971 151.18 289.971C151.555 289.971 151.88 290.012 152.157 290.095C152.442 290.177 152.678 290.293 152.865 290.443C153.052 290.593 153.191 290.765 153.28 290.96C153.37 291.147 153.415 291.349 153.415 291.566C153.415 291.611 153.415 291.656 153.415 291.701C153.415 291.738 153.412 291.768 153.404 291.791H152.438V291.667C152.438 291.517 152.397 291.375 152.315 291.24C152.24 291.098 152.105 290.986 151.91 290.903C151.723 290.814 151.461 290.769 151.124 290.769C150.907 290.769 150.72 290.787 150.562 290.825C150.405 290.855 150.274 290.907 150.169 290.982C150.064 291.049 149.986 291.132 149.933 291.229C149.881 291.319 149.855 291.424 149.855 291.544C149.855 291.738 149.918 291.888 150.046 291.993C150.173 292.098 150.341 292.184 150.551 292.251C150.768 292.319 151 292.393 151.248 292.476C151.51 292.551 151.775 292.629 152.045 292.712C152.322 292.787 152.573 292.884 152.798 293.004C153.03 293.124 153.213 293.288 153.348 293.498C153.49 293.7 153.561 293.97 153.561 294.307C153.561 294.621 153.501 294.894 153.382 295.127C153.262 295.359 153.09 295.55 152.865 295.699C152.648 295.849 152.389 295.958 152.09 296.025C151.798 296.1 151.476 296.137 151.124 296.137ZM157.142 296.137C156.558 296.137 156.063 296.029 155.659 295.812C155.262 295.587 154.959 295.246 154.749 294.79C154.547 294.333 154.446 293.753 154.446 293.049C154.446 292.337 154.547 291.757 154.749 291.308C154.959 290.851 155.266 290.514 155.67 290.297C156.075 290.072 156.58 289.96 157.186 289.96C157.741 289.96 158.205 290.068 158.579 290.286C158.954 290.495 159.234 290.814 159.422 291.24C159.616 291.66 159.714 292.188 159.714 292.824V293.296H155.468C155.483 293.767 155.55 294.157 155.67 294.464C155.797 294.763 155.985 294.984 156.232 295.127C156.479 295.261 156.79 295.329 157.164 295.329C157.419 295.329 157.639 295.299 157.827 295.239C158.021 295.171 158.182 295.078 158.31 294.958C158.444 294.838 158.546 294.696 158.613 294.531C158.68 294.367 158.718 294.187 158.725 293.992H159.691C159.684 294.307 159.624 294.599 159.511 294.868C159.399 295.13 159.234 295.355 159.017 295.542C158.8 295.729 158.534 295.875 158.22 295.98C157.905 296.085 157.546 296.137 157.142 296.137ZM155.49 292.554H158.692C158.692 292.225 158.654 291.948 158.579 291.723C158.504 291.499 158.396 291.315 158.253 291.173C158.119 291.031 157.958 290.93 157.771 290.87C157.591 290.802 157.385 290.769 157.153 290.769C156.808 290.769 156.516 290.832 156.277 290.96C156.037 291.087 155.854 291.282 155.726 291.544C155.599 291.806 155.52 292.143 155.49 292.554ZM160.936 296.003V290.095H161.734L161.824 290.982H161.902C162.059 290.742 162.235 290.548 162.43 290.398C162.632 290.248 162.853 290.14 163.093 290.072C163.34 289.997 163.602 289.96 163.879 289.96C164.253 289.96 164.579 290.024 164.856 290.151C165.141 290.278 165.362 290.484 165.519 290.769C165.683 291.053 165.766 291.439 165.766 291.925V296.003H164.777V292.06C164.777 291.813 164.744 291.611 164.676 291.454C164.616 291.296 164.53 291.173 164.418 291.083C164.313 290.993 164.182 290.93 164.025 290.892C163.875 290.855 163.707 290.836 163.52 290.836C163.242 290.836 162.98 290.903 162.733 291.038C162.486 291.173 162.288 291.368 162.138 291.622C161.996 291.877 161.925 292.18 161.925 292.532V296.003H160.936ZM169.332 296.137C168.927 296.137 168.572 296.096 168.265 296.014C167.958 295.931 167.703 295.812 167.501 295.654C167.299 295.497 167.145 295.31 167.04 295.093C166.936 294.876 166.883 294.629 166.883 294.352C166.883 294.314 166.883 294.28 166.883 294.25C166.883 294.213 166.887 294.183 166.894 294.161H167.872C167.864 294.191 167.86 294.217 167.86 294.239C167.86 294.262 167.86 294.284 167.86 294.307C167.868 294.569 167.935 294.775 168.062 294.924C168.197 295.074 168.381 295.179 168.613 295.239C168.845 295.299 169.103 295.329 169.388 295.329C169.635 295.329 169.863 295.299 170.073 295.239C170.283 295.171 170.447 295.074 170.567 294.947C170.694 294.812 170.758 294.644 170.758 294.441C170.758 294.194 170.676 294.007 170.511 293.88C170.354 293.745 170.144 293.64 169.882 293.565C169.62 293.49 169.347 293.412 169.062 293.329C168.822 293.262 168.583 293.187 168.343 293.105C168.104 293.022 167.887 292.921 167.692 292.802C167.505 292.682 167.351 292.528 167.231 292.341C167.119 292.146 167.063 291.903 167.063 291.611C167.063 291.349 167.115 291.117 167.22 290.915C167.332 290.712 167.49 290.54 167.692 290.398C167.894 290.256 168.137 290.151 168.422 290.083C168.714 290.009 169.036 289.971 169.388 289.971C169.762 289.971 170.088 290.012 170.365 290.095C170.65 290.177 170.885 290.293 171.073 290.443C171.26 290.593 171.398 290.765 171.488 290.96C171.578 291.147 171.623 291.349 171.623 291.566C171.623 291.611 171.623 291.656 171.623 291.701C171.623 291.738 171.619 291.768 171.612 291.791H170.646V291.667C170.646 291.517 170.605 291.375 170.522 291.24C170.447 291.098 170.313 290.986 170.118 290.903C169.931 290.814 169.669 290.769 169.332 290.769C169.115 290.769 168.927 290.787 168.77 290.825C168.613 290.855 168.482 290.907 168.377 290.982C168.272 291.049 168.194 291.132 168.141 291.229C168.089 291.319 168.062 291.424 168.062 291.544C168.062 291.738 168.126 291.888 168.253 291.993C168.381 292.098 168.549 292.184 168.759 292.251C168.976 292.319 169.208 292.393 169.455 292.476C169.717 292.551 169.983 292.629 170.253 292.712C170.53 292.787 170.781 292.884 171.005 293.004C171.237 293.124 171.421 293.288 171.556 293.498C171.698 293.7 171.769 293.97 171.769 294.307C171.769 294.621 171.709 294.894 171.589 295.127C171.469 295.359 171.297 295.55 171.073 295.699C170.855 295.849 170.597 295.958 170.298 296.025C170.006 296.1 169.684 296.137 169.332 296.137ZM175.417 296.137C174.818 296.137 174.312 296.029 173.9 295.812C173.496 295.587 173.185 295.246 172.968 294.79C172.758 294.333 172.654 293.753 172.654 293.049C172.654 292.337 172.758 291.757 172.968 291.308C173.185 290.851 173.496 290.514 173.9 290.297C174.312 290.072 174.818 289.96 175.417 289.96C176.016 289.96 176.517 290.072 176.922 290.297C177.334 290.514 177.644 290.851 177.854 291.308C178.064 291.757 178.168 292.337 178.168 293.049C178.168 293.753 178.064 294.333 177.854 294.79C177.644 295.246 177.334 295.587 176.922 295.812C176.517 296.029 176.016 296.137 175.417 296.137ZM175.417 295.306C175.799 295.306 176.117 295.231 176.371 295.082C176.626 294.932 176.817 294.7 176.944 294.385C177.079 294.063 177.146 293.659 177.146 293.172V292.925C177.146 292.431 177.079 292.027 176.944 291.712C176.817 291.398 176.626 291.165 176.371 291.016C176.117 290.866 175.799 290.791 175.417 290.791C175.035 290.791 174.713 290.866 174.451 291.016C174.196 291.165 174.005 291.398 173.878 291.712C173.751 292.027 173.687 292.431 173.687 292.925V293.172C173.687 293.659 173.751 294.063 173.878 294.385C174.005 294.7 174.196 294.932 174.451 295.082C174.713 295.231 175.035 295.306 175.417 295.306ZM179.396 296.003V290.095H180.194L180.283 291.072H180.362C180.422 290.885 180.504 290.709 180.609 290.544C180.714 290.372 180.856 290.233 181.036 290.128C181.216 290.016 181.437 289.96 181.699 289.96C181.811 289.96 181.912 289.971 182.002 289.994C182.099 290.009 182.17 290.027 182.215 290.05V290.96H181.845C181.59 290.96 181.369 291.004 181.182 291.094C181.002 291.177 180.853 291.296 180.733 291.454C180.613 291.611 180.523 291.798 180.463 292.015C180.411 292.232 180.385 292.465 180.385 292.712V296.003H179.396Z" fill="black"/>
<rect x="0.449269" y="0.449269" width="76.825" height="144.665" rx="4.04342" stroke="black" stroke-width="0.898538"/>
<path d="M17.4765 70.6513V62.9464H21.284C21.8157 62.9464 22.2574 63.0475 22.6094 63.2496C22.9613 63.4443 23.2234 63.7176 23.3956 64.0695C23.5753 64.4215 23.6652 64.8296 23.6652 65.2938C23.6652 65.7655 23.5678 66.1849 23.3731 66.5518C23.1784 66.9112 22.9014 67.192 22.542 67.3941C22.1901 67.5963 21.767 67.6974 21.2728 67.6974H18.5435V70.6513H17.4765ZM18.5435 66.7764H21.2054C21.6247 66.7764 21.9579 66.6454 22.205 66.3833C22.4596 66.1212 22.5869 65.7618 22.5869 65.305C22.5869 64.998 22.5345 64.7397 22.4297 64.53C22.3248 64.3204 22.1713 64.1594 21.9692 64.0471C21.767 63.9273 21.5124 63.8674 21.2054 63.8674H18.5435V66.7764ZM24.7551 70.6513V64.7434H25.5525L25.6424 65.7206H25.721C25.7809 65.5334 25.8633 65.3574 25.9681 65.1927C26.0729 65.0205 26.2152 64.882 26.3949 64.7771C26.5746 64.6648 26.7955 64.6087 27.0576 64.6087C27.1699 64.6087 27.271 64.6199 27.3608 64.6424C27.4582 64.6573 27.5293 64.6761 27.5742 64.6985V65.6083H27.2036C26.949 65.6083 26.7281 65.6532 26.5409 65.7431C26.3612 65.8254 26.2115 65.9452 26.0916 66.1025C25.9718 66.2597 25.882 66.4469 25.8221 66.6641C25.7697 66.8812 25.7435 67.1133 25.7435 67.3604V70.6513H24.7551ZM30.8007 70.7861C30.2017 70.7861 29.6963 70.6775 29.2844 70.4604C28.8801 70.2358 28.5694 69.8951 28.3522 69.4383C28.1426 68.9816 28.0377 68.4012 28.0377 67.6974C28.0377 66.986 28.1426 66.4057 28.3522 65.9565C28.5694 65.4997 28.8801 65.1628 29.2844 64.9456C29.6963 64.721 30.2017 64.6087 30.8007 64.6087C31.3998 64.6087 31.9014 64.721 32.3058 64.9456C32.7176 65.1628 33.0284 65.4997 33.238 65.9565C33.4477 66.4057 33.5525 66.986 33.5525 67.6974C33.5525 68.4012 33.4477 68.9816 33.238 69.4383C33.0284 69.8951 32.7176 70.2358 32.3058 70.4604C31.9014 70.6775 31.3998 70.7861 30.8007 70.7861ZM30.8007 69.955C31.1826 69.955 31.5008 69.8801 31.7554 69.7303C32.01 69.5806 32.2009 69.3485 32.3282 69.034C32.463 68.712 32.5304 68.3076 32.5304 67.8209V67.5738C32.5304 67.0796 32.463 66.6753 32.3282 66.3608C32.2009 66.0463 32.01 65.8142 31.7554 65.6644C31.5008 65.5147 31.1826 65.4398 30.8007 65.4398C30.4188 65.4398 30.0969 65.5147 29.8348 65.6644C29.5802 65.8142 29.3893 66.0463 29.262 66.3608C29.1347 66.6753 29.071 67.0796 29.071 67.5738V67.8209C29.071 68.3076 29.1347 68.712 29.262 69.034C29.3893 69.3485 29.5802 69.5806 29.8348 69.7303C30.0969 69.8801 30.4188 69.955 30.8007 69.955ZM36.1618 70.7861C35.8548 70.7861 35.6152 70.73 35.4429 70.6176C35.2707 70.4978 35.1472 70.3443 35.0723 70.1571C34.9974 69.9625 34.96 69.7565 34.96 69.5394V65.5746H34.1962V64.7434H34.9824L35.1621 63.0924H35.9484V64.7434H37.0603V65.5746H35.9484V69.3934C35.9484 69.5806 35.9821 69.7228 36.0495 69.8202C36.1168 69.91 36.2441 69.955 36.4313 69.955H37.0603V70.6064C36.9854 70.6438 36.8956 70.6738 36.7907 70.6963C36.6859 70.7187 36.5773 70.7374 36.465 70.7524C36.3602 70.7749 36.2591 70.7861 36.1618 70.7861ZM40.5407 70.7861C39.9417 70.7861 39.4363 70.6775 39.0245 70.4604C38.6201 70.2358 38.3094 69.8951 38.0922 69.4383C37.8826 68.9816 37.7777 68.4012 37.7777 67.6974C37.7777 66.986 37.8826 66.4057 38.0922 65.9565C38.3094 65.4997 38.6201 65.1628 39.0245 64.9456C39.4363 64.721 39.9417 64.6087 40.5407 64.6087C41.1398 64.6087 41.6415 64.721 42.0458 64.9456C42.4576 65.1628 42.7684 65.4997 42.978 65.9565C43.1877 66.4057 43.2925 66.986 43.2925 67.6974C43.2925 68.4012 43.1877 68.9816 42.978 69.4383C42.7684 69.8951 42.4576 70.2358 42.0458 70.4604C41.6415 70.6775 41.1398 70.7861 40.5407 70.7861ZM40.5407 69.955C40.9226 69.955 41.2409 69.8801 41.4954 69.7303C41.75 69.5806 41.941 69.3485 42.0683 69.034C42.203 68.712 42.2704 68.3076 42.2704 67.8209V67.5738C42.2704 67.0796 42.203 66.6753 42.0683 66.3608C41.941 66.0463 41.75 65.8142 41.4954 65.6644C41.2409 65.5147 40.9226 65.4398 40.5407 65.4398C40.1589 65.4398 39.8369 65.5147 39.5748 65.6644C39.3202 65.8142 39.1293 66.0463 39.002 66.3608C38.8747 66.6753 38.8111 67.0796 38.8111 67.5738V67.8209C38.8111 68.3076 38.8747 68.712 39.002 69.034C39.1293 69.3485 39.3202 69.5806 39.5748 69.7303C39.8369 69.8801 40.1589 69.955 40.5407 69.955ZM44.5203 72.5944V64.7434H45.3065L45.4076 65.5858H45.4862C45.6884 65.2564 45.9467 65.013 46.2612 64.8558C46.5757 64.691 46.9314 64.6087 47.3282 64.6087C47.8224 64.6087 48.2417 64.7172 48.5862 64.9344C48.9306 65.1515 49.1964 65.4922 49.3836 65.9565C49.5708 66.4132 49.6644 67.0085 49.6644 67.7423C49.6644 68.4312 49.5671 69.004 49.3724 69.4608C49.1852 69.91 48.9194 70.2433 48.5749 70.4604C48.2305 70.6775 47.8299 70.7861 47.3731 70.7861C47.1186 70.7861 46.8789 70.7562 46.6543 70.6963C46.4297 70.6364 46.2275 70.5428 46.0478 70.4155C45.8681 70.2807 45.7108 70.1122 45.5761 69.91H45.5087V72.5944H44.5203ZM47.0587 69.9213C47.4256 69.9213 47.7251 69.8501 47.9572 69.7079C48.1893 69.5581 48.3615 69.3297 48.4739 69.0227C48.5862 68.7082 48.6423 68.3076 48.6423 67.8209V67.5851C48.6423 67.0684 48.5824 66.6566 48.4626 66.3496C48.3428 66.0351 48.1669 65.8105 47.9347 65.6757C47.7101 65.5409 47.4293 65.4735 47.0923 65.4735C46.7254 65.4735 46.4222 65.5559 46.1826 65.7206C45.9505 65.8779 45.7782 66.1175 45.6659 66.4394C45.5611 66.7614 45.5087 67.1545 45.5087 67.6188V67.7872C45.5087 68.1991 45.5461 68.5435 45.621 68.8206C45.7034 69.0901 45.8157 69.3073 45.9579 69.472C46.1077 69.6367 46.2762 69.7528 46.4634 69.8202C46.6506 69.8876 46.849 69.9213 47.0587 69.9213ZM50.893 63.6315V62.5308H51.8814V63.6315H50.893ZM50.893 70.6513V64.7434H51.8814V70.6513H50.893ZM55.7744 70.7861C55.1903 70.7861 54.6961 70.6775 54.2918 70.4604C53.8949 70.2358 53.5917 69.8951 53.382 69.4383C53.1799 68.9816 53.0788 68.4012 53.0788 67.6974C53.0788 66.986 53.1799 66.4057 53.382 65.9565C53.5917 65.4997 53.8987 65.1628 54.303 64.9456C54.7074 64.721 55.2128 64.6087 55.8193 64.6087C56.3734 64.6087 56.8377 64.7172 57.212 64.9344C57.5864 65.144 57.8672 65.4623 58.0544 65.8891C58.2491 66.3084 58.3465 66.8363 58.3465 67.4728V67.9445H54.1009C54.1158 68.4162 54.1832 68.8056 54.303 69.1126C54.4303 69.4121 54.6175 69.633 54.8646 69.7753C55.1117 69.91 55.4225 69.9774 55.7968 69.9774C56.0514 69.9774 56.2723 69.9475 56.4595 69.8876C56.6542 69.8202 56.8152 69.7266 56.9425 69.6068C57.0773 69.487 57.1784 69.3447 57.2457 69.18C57.3131 69.0152 57.3506 68.8355 57.3581 68.6409H58.324C58.3165 68.9553 58.2566 69.2474 58.1443 69.5169C58.032 69.779 57.8672 70.0036 57.6501 70.1908C57.4329 70.378 57.1671 70.524 56.8526 70.6289C56.5381 70.7337 56.1787 70.7861 55.7744 70.7861ZM54.1233 67.2032H57.3244C57.3244 66.8737 57.2869 66.5967 57.212 66.372C57.1372 66.1474 57.0286 65.964 56.8863 65.8217C56.7515 65.6794 56.5906 65.5783 56.4034 65.5184C56.2237 65.451 56.0177 65.4174 55.7856 65.4174C55.4412 65.4174 55.1492 65.481 54.9095 65.6083C54.6699 65.7356 54.4865 65.9303 54.3592 66.1923C54.2319 66.4544 54.1533 66.7914 54.1233 67.2032ZM15.7719 84.5944V76.7434H16.5581L16.6592 77.5858H16.7378C16.94 77.2564 17.1983 77.013 17.5128 76.8558C17.8273 76.691 18.183 76.6087 18.5798 76.6087C19.074 76.6087 19.4933 76.7172 19.8378 76.9344C20.1822 77.1515 20.448 77.4922 20.6352 77.9565C20.8224 78.4132 20.916 79.0085 20.916 79.7423C20.916 80.4312 20.8187 81.004 20.624 81.4608C20.4368 81.91 20.171 82.2433 19.8265 82.4604C19.4821 82.6775 19.0815 82.7861 18.6247 82.7861C18.3702 82.7861 18.1305 82.7562 17.9059 82.6963C17.6813 82.6364 17.4791 82.5428 17.2994 82.4155C17.1197 82.2807 16.9624 82.1122 16.8277 81.91H16.7603V84.5944H15.7719ZM18.3103 81.9213C18.6772 81.9213 18.9767 81.8501 19.2088 81.7079C19.4409 81.5581 19.6131 81.3297 19.7255 81.0227C19.8378 80.7082 19.8939 80.3076 19.8939 79.8209V79.5851C19.8939 79.0684 19.834 78.6566 19.7142 78.3496C19.5944 78.0351 19.4185 77.8105 19.1863 77.6757C18.9617 77.5409 18.6809 77.4735 18.344 77.4735C17.977 77.4735 17.6738 77.5559 17.4342 77.7206C17.2021 77.8779 17.0298 78.1175 16.9175 78.4394C16.8127 78.7614 16.7603 79.1545 16.7603 79.6188V79.7872C16.7603 80.1991 16.7977 80.5435 16.8726 80.8206C16.955 81.0901 17.0673 81.3073 17.2095 81.472C17.3593 81.6367 17.5278 81.7528 17.715 81.8202C17.9022 81.8876 18.1006 81.9213 18.3103 81.9213ZM22.1446 82.6513V76.7434H22.942L23.0319 77.7206H23.1105C23.1704 77.5334 23.2528 77.3574 23.3576 77.1927C23.4624 77.0205 23.6047 76.882 23.7844 76.7771C23.9641 76.6648 24.185 76.6087 24.4471 76.6087C24.5594 76.6087 24.6605 76.6199 24.7503 76.6424C24.8477 76.6573 24.9188 76.6761 24.9637 76.6985V77.6083H24.5931C24.3385 77.6083 24.1176 77.6532 23.9304 77.7431C23.7507 77.8254 23.601 77.9452 23.4811 78.1025C23.3613 78.2597 23.2715 78.4469 23.2116 78.6641C23.1592 78.8812 23.133 79.1133 23.133 79.3604V82.6513H22.1446ZM28.1902 82.7861C27.5912 82.7861 27.0858 82.6775 26.6739 82.4604C26.2696 82.2358 25.9589 81.8951 25.7417 81.4383C25.5321 80.9816 25.4272 80.4012 25.4272 79.6974C25.4272 78.986 25.5321 78.4057 25.7417 77.9565C25.9589 77.4997 26.2696 77.1628 26.6739 76.9456C27.0858 76.721 27.5912 76.6087 28.1902 76.6087C28.7893 76.6087 29.2909 76.721 29.6953 76.9456C30.1071 77.1628 30.4179 77.4997 30.6275 77.9565C30.8372 78.4057 30.942 78.986 30.942 79.6974C30.942 80.4012 30.8372 80.9816 30.6275 81.4383C30.4179 81.8951 30.1071 82.2358 29.6953 82.4604C29.2909 82.6775 28.7893 82.7861 28.1902 82.7861ZM28.1902 81.955C28.5721 81.955 28.8903 81.8801 29.1449 81.7303C29.3995 81.5806 29.5904 81.3485 29.7177 81.034C29.8525 80.712 29.9199 80.3076 29.9199 79.8209V79.5738C29.9199 79.0796 29.8525 78.6753 29.7177 78.3608C29.5904 78.0463 29.3995 77.8142 29.1449 77.6644C28.8903 77.5147 28.5721 77.4398 28.1902 77.4398C27.8083 77.4398 27.4864 77.5147 27.2243 77.6644C26.9697 77.8142 26.7788 78.0463 26.6515 78.3608C26.5242 78.6753 26.4605 79.0796 26.4605 79.5738V79.8209C26.4605 80.3076 26.5242 80.712 26.6515 81.034C26.7788 81.3485 26.9697 81.5806 27.2243 81.7303C27.4864 81.8801 27.8083 81.955 28.1902 81.955ZM33.5513 82.7861C33.2443 82.7861 33.0047 82.73 32.8324 82.6176C32.6602 82.4978 32.5367 82.3443 32.4618 82.1571C32.3869 81.9625 32.3495 81.7565 32.3495 81.5394V77.5746H31.5857V76.7434H32.3719L32.5516 75.0924H33.3379V76.7434H34.4498V77.5746H33.3379V81.3934C33.3379 81.5806 33.3716 81.7228 33.439 81.8202C33.5063 81.91 33.6336 81.955 33.8208 81.955H34.4498V82.6064C34.3749 82.6438 34.2851 82.6738 34.1802 82.6963C34.0754 82.7187 33.9668 82.7374 33.8545 82.7524C33.7497 82.7749 33.6486 82.7861 33.5513 82.7861ZM37.9302 82.7861C37.3312 82.7861 36.8258 82.6775 36.414 82.4604C36.0096 82.2358 35.6989 81.8951 35.4817 81.4383C35.2721 80.9816 35.1672 80.4012 35.1672 79.6974C35.1672 78.986 35.2721 78.4057 35.4817 77.9565C35.6989 77.4997 36.0096 77.1628 36.414 76.9456C36.8258 76.721 37.3312 76.6087 37.9302 76.6087C38.5293 76.6087 39.031 76.721 39.4353 76.9456C39.8471 77.1628 40.1579 77.4997 40.3675 77.9565C40.5772 78.4057 40.682 78.986 40.682 79.6974C40.682 80.4012 40.5772 80.9816 40.3675 81.4383C40.1579 81.8951 39.8471 82.2358 39.4353 82.4604C39.031 82.6775 38.5293 82.7861 37.9302 82.7861ZM37.9302 81.955C38.3121 81.955 38.6304 81.8801 38.8849 81.7303C39.1395 81.5806 39.3305 81.3485 39.4578 81.034C39.5925 80.712 39.6599 80.3076 39.6599 79.8209V79.5738C39.6599 79.0796 39.5925 78.6753 39.4578 78.3608C39.3305 78.0463 39.1395 77.8142 38.8849 77.6644C38.6304 77.5147 38.3121 77.4398 37.9302 77.4398C37.5484 77.4398 37.2264 77.5147 36.9643 77.6644C36.7097 77.8142 36.5188 78.0463 36.3915 78.3608C36.2642 78.6753 36.2006 79.0796 36.2006 79.5738V79.8209C36.2006 80.3076 36.2642 80.712 36.3915 81.034C36.5188 81.3485 36.7097 81.5806 36.9643 81.7303C37.2264 81.8801 37.5484 81.955 37.9302 81.955ZM43.2913 82.7861C42.9843 82.7861 42.7447 82.73 42.5725 82.6176C42.4002 82.4978 42.2767 82.3443 42.2018 82.1571C42.1269 81.9625 42.0895 81.7565 42.0895 81.5394V77.5746H41.3257V76.7434H42.112L42.2917 75.0924H43.0779V76.7434H44.1898V77.5746H43.0779V81.3934C43.0779 81.5806 43.1116 81.7228 43.179 81.8202C43.2464 81.91 43.3737 81.955 43.5608 81.955H44.1898V82.6064C44.1149 82.6438 44.0251 82.6738 43.9203 82.6963C43.8154 82.7187 43.7069 82.7374 43.5945 82.7524C43.4897 82.7749 43.3886 82.7861 43.2913 82.7861ZM45.7496 84.6955C45.5699 84.6955 45.4127 84.6805 45.2779 84.6506C45.1506 84.6281 45.0645 84.6131 45.0196 84.6057V83.8868H45.5138C45.6935 83.8868 45.8694 83.8494 46.0417 83.7745C46.2139 83.6996 46.3749 83.5723 46.5246 83.3926C46.6744 83.2129 46.8017 82.9658 46.9065 82.6513L44.6152 76.7434H45.6485L46.8279 79.7872C46.8803 79.9295 46.9402 80.1055 47.0076 80.3151C47.0825 80.5173 47.1536 80.727 47.221 80.9441C47.2959 81.1613 47.3558 81.3522 47.4007 81.5169H47.4681C47.498 81.3971 47.5355 81.2623 47.5804 81.1126C47.6253 80.9628 47.6703 80.8093 47.7152 80.6521C47.7676 80.4874 47.8163 80.3339 47.8612 80.1916C47.9136 80.0418 47.9548 79.9108 47.9847 79.7985L48.9844 76.7434H49.984L47.9847 82.4829C47.8724 82.8048 47.7489 83.1006 47.6141 83.3702C47.4793 83.6472 47.3296 83.8831 47.1648 84.0778C47.0001 84.2724 46.8017 84.4222 46.5695 84.527C46.3374 84.6394 46.0641 84.6955 45.7496 84.6955ZM50.9039 84.5944V76.7434H51.6902L51.7912 77.5858H51.8699C52.072 77.2564 52.3304 77.013 52.6449 76.8558C52.9593 76.691 53.315 76.6087 53.7119 76.6087C54.2061 76.6087 54.6254 76.7172 54.9698 76.9344C55.3143 77.1515 55.5801 77.4922 55.7673 77.9565C55.9545 78.4132 56.0481 79.0085 56.0481 79.7423C56.0481 80.4312 55.9507 81.004 55.756 81.4608C55.5689 81.91 55.303 82.2433 54.9586 82.4604C54.6142 82.6775 54.2136 82.7861 53.7568 82.7861C53.5022 82.7861 53.2626 82.7562 53.038 82.6963C52.8133 82.6364 52.6112 82.5428 52.4315 82.4155C52.2517 82.2807 52.0945 82.1122 51.9597 81.91H51.8923V84.5944H50.9039ZM53.4423 81.9213C53.8092 81.9213 54.1087 81.8501 54.3409 81.7079C54.573 81.5581 54.7452 81.3297 54.8575 81.0227C54.9698 80.7082 55.026 80.3076 55.026 79.8209V79.5851C55.026 79.0684 54.9661 78.6566 54.8463 78.3496C54.7265 78.0351 54.5505 77.8105 54.3184 77.6757C54.0938 77.5409 53.813 77.4735 53.476 77.4735C53.1091 77.4735 52.8058 77.5559 52.5662 77.7206C52.3341 77.8779 52.1619 78.1175 52.0496 78.4394C51.9447 78.7614 51.8923 79.1545 51.8923 79.6188V79.7872C51.8923 80.1991 51.9298 80.5435 52.0047 80.8206C52.087 81.0901 52.1993 81.3073 52.3416 81.472C52.4914 81.6367 52.6598 81.7528 52.847 81.8202C53.0342 81.8876 53.2327 81.9213 53.4423 81.9213ZM59.6353 82.7861C59.0512 82.7861 58.557 82.6775 58.1527 82.4604C57.7559 82.2358 57.4526 81.8951 57.2429 81.4383C57.0408 80.9816 56.9397 80.4012 56.9397 79.6974C56.9397 78.986 57.0408 78.4057 57.2429 77.9565C57.4526 77.4997 57.7596 77.1628 58.1639 76.9456C58.5683 76.721 59.0737 76.6087 59.6802 76.6087C60.2343 76.6087 60.6986 76.7172 61.073 76.9344C61.4473 77.144 61.7281 77.4623 61.9153 77.8891C62.11 78.3084 62.2074 78.8363 62.2074 79.4728V79.9445H57.9618C57.9767 80.4162 58.0441 80.8056 58.1639 81.1126C58.2912 81.4121 58.4784 81.633 58.7255 81.7753C58.9726 81.91 59.2834 81.9774 59.6578 81.9774C59.9123 81.9774 60.1332 81.9475 60.3204 81.8876C60.5151 81.8202 60.6761 81.7266 60.8034 81.6068C60.9382 81.487 61.0393 81.3447 61.1066 81.18C61.174 81.0152 61.2115 80.8355 61.219 80.6409H62.1849C62.1774 80.9553 62.1175 81.2474 62.0052 81.5169C61.8929 81.779 61.7281 82.0036 61.511 82.1908C61.2938 82.378 61.028 82.524 60.7135 82.6289C60.3991 82.7337 60.0396 82.7861 59.6353 82.7861ZM57.9842 79.2032H61.1853C61.1853 78.8737 61.1478 78.5967 61.073 78.372C60.9981 78.1474 60.8895 77.964 60.7472 77.8217C60.6125 77.6794 60.4515 77.5783 60.2643 77.5184C60.0846 77.451 59.8786 77.4174 59.6465 77.4174C59.3021 77.4174 59.0101 77.481 58.7704 77.6083C58.5308 77.7356 58.3474 77.9303 58.2201 78.1923C58.0928 78.4544 58.0142 78.7914 57.9842 79.2032Z" fill="black"/>
</svg>
