<svg width="99" height="152" viewBox="0 0 99 152" fill="none" xmlns="http://www.w3.org/2000/svg">
<rect x="11" y="10" width="77" height="76" rx="15" fill="#F2EFE6"/>
<path d="M38.6017 47.4952C39.3216 45.4144 39.7224 43.1043 39.7224 40.6719C39.7224 37.8528 39.1841 35.1982 38.2345 32.8742M60.3383 47.4956C59.6184 45.4147 59.2176 43.1047 59.2176 40.6722C59.2176 37.8532 59.7559 35.1985 60.7055 32.8745M32.899 58.2176L29 57.2429M32.899 58.2176C32.899 60.9093 36.9287 63.0914 40.6971 63.0914C44.4656 63.0914 46.5457 60.9093 46.5457 58.2176C46.5457 55.5259 44.4656 53.3438 40.6971 53.3438C36.9287 53.3438 32.899 55.5259 32.899 58.2176ZM69.94 57.2429L66.041 58.2176M66.041 58.2176C66.041 60.9093 62.0113 63.0914 58.2429 63.0914C54.4744 63.0914 52.3943 60.9093 52.3943 58.2176C52.3943 55.5259 54.4744 53.3438 58.2429 53.3438C62.0113 53.3438 66.041 55.5259 66.041 58.2176ZM46.5457 56.2681C46.5457 56.2681 47.5205 55.2933 49.47 55.2933C51.4195 55.2933 52.3943 56.2681 52.3943 56.2681M30.0909 45.5509C31.0998 37.0024 38.602 28 49.47 28C60.338 28 67.8402 37.0024 68.8491 45.5509C68.9753 46.6202 68.0924 47.4952 67.0157 47.4952H31.9243C30.8476 47.4952 29.9647 46.6202 30.0909 45.5509Z" stroke="#54514C" stroke-width="2.23" stroke-linecap="round" stroke-linejoin="round"/>
<path d="M22.0535 111L27.0735 97.62H29.1735L34.1735 111H32.1735L31.1535 108.08H25.0735L24.0535 111H22.0535ZM25.6535 106.46H30.5735L28.1135 99.52L25.6535 106.46ZM39.753 111.24C38.8064 111.24 37.9864 111.02 37.293 110.58C36.5997 110.127 36.0664 109.513 35.693 108.74C35.3197 107.967 35.133 107.08 35.133 106.08C35.133 105.093 35.3264 104.213 35.713 103.44C36.113 102.653 36.673 102.04 37.393 101.6C38.113 101.147 38.9597 100.92 39.933 100.92C40.8264 100.92 41.593 101.14 42.233 101.58C42.873 102.02 43.353 102.547 43.673 103.16L42.133 103.72C41.9197 103.32 41.6064 103 41.193 102.76C40.7797 102.52 40.3197 102.4 39.813 102.4C39.3197 102.4 38.853 102.533 38.413 102.8C37.973 103.053 37.6197 103.453 37.353 104C37.0864 104.533 36.953 105.22 36.953 106.06C36.953 106.887 37.0864 107.58 37.353 108.14C37.633 108.687 37.9864 109.093 38.413 109.36C38.853 109.627 39.3197 109.76 39.813 109.76C40.3597 109.76 40.833 109.64 41.233 109.4C41.6464 109.147 41.9597 108.833 42.173 108.46L43.713 109.02C43.3397 109.66 42.8064 110.193 42.113 110.62C41.4197 111.033 40.633 111.24 39.753 111.24ZM55.233 114.46C54.7797 114.46 54.353 114.373 53.953 114.2C53.553 114.027 53.2264 113.727 52.973 113.3C52.733 112.887 52.613 112.3 52.613 111.54V109.5C52.3197 110.033 51.8997 110.46 51.353 110.78C50.8197 111.087 50.1597 111.24 49.373 111.24C48.6264 111.24 47.9264 111.04 47.273 110.64C46.633 110.227 46.113 109.633 45.713 108.86C45.3264 108.087 45.133 107.16 45.133 106.08C45.133 104.987 45.3264 104.06 45.713 103.3C46.113 102.527 46.633 101.94 47.273 101.54C47.9264 101.127 48.6264 100.92 49.373 100.92C50.1597 100.92 50.8197 101.08 51.353 101.4C51.8997 101.707 52.3197 102.12 52.613 102.64L53.073 101.08H54.293V111.48C54.293 111.84 54.3997 112.16 54.613 112.44C54.8397 112.733 55.2064 112.88 55.713 112.88C56.0597 112.88 56.4664 112.793 56.933 112.62V114.18C56.6797 114.26 56.4064 114.327 56.113 114.38C55.8197 114.433 55.5264 114.46 55.233 114.46ZM49.833 109.8C50.6864 109.8 51.3664 109.473 51.873 108.82C52.393 108.167 52.653 107.253 52.653 106.08C52.653 104.893 52.393 103.98 51.873 103.34C51.3664 102.687 50.6864 102.36 49.833 102.36C48.9797 102.36 48.293 102.687 47.773 103.34C47.253 103.98 46.993 104.893 46.993 106.08C46.993 107.253 47.253 108.167 47.773 108.82C48.293 109.473 48.9797 109.8 49.833 109.8ZM60.4365 111.24C59.6632 111.24 59.0432 111.08 58.5765 110.76C58.1098 110.427 57.7698 109.973 57.5565 109.4C57.3565 108.813 57.2565 108.147 57.2565 107.4V101.06H58.9365V107C58.9365 107.733 59.0232 108.3 59.1965 108.7C59.3698 109.1 59.6098 109.38 59.9165 109.54C60.2365 109.687 60.6032 109.76 61.0165 109.76C61.8032 109.76 62.4165 109.487 62.8565 108.94C63.3098 108.38 63.5365 107.573 63.5365 106.52V101.06H65.2165V111H63.9565L63.5365 109.56C63.2565 110.04 62.8765 110.44 62.3965 110.76C61.9165 111.08 61.2632 111.24 60.4365 111.24ZM70.7991 111.24C70.1725 111.24 69.5991 111.127 69.0791 110.9C68.5591 110.673 68.1458 110.347 67.8391 109.92C67.5325 109.493 67.3791 108.98 67.3791 108.38C67.3791 107.593 67.6525 106.973 68.1991 106.52C68.7591 106.067 69.5391 105.72 70.5391 105.48C71.5525 105.227 72.7325 105.027 74.0791 104.88C74.1058 104.04 73.9391 103.393 73.5791 102.94C73.2191 102.487 72.6391 102.26 71.8391 102.26C71.2391 102.26 70.7458 102.4 70.3591 102.68C69.9858 102.947 69.7458 103.32 69.6391 103.8L68.0191 103.32C68.2858 102.56 68.7591 101.973 69.4391 101.56C70.1325 101.133 70.9258 100.92 71.8191 100.92C73.1925 100.92 74.1925 101.247 74.8191 101.9C75.4591 102.54 75.7791 103.553 75.7791 104.94V107.26C75.7791 108.087 75.8125 108.8 75.8791 109.4C75.9458 110 76.0258 110.533 76.1191 111H74.5791L74.1791 109.64C73.8858 110.133 73.4658 110.527 72.9191 110.82C72.3725 111.1 71.6658 111.24 70.7991 111.24ZM71.1591 109.9C71.6791 109.9 72.1725 109.807 72.6391 109.62C73.1058 109.433 73.4858 109.12 73.7791 108.68C74.0725 108.227 74.2191 107.613 74.2191 106.84V106.22C73.2058 106.327 72.3258 106.46 71.5791 106.62C70.8325 106.767 70.2525 106.98 69.8391 107.26C69.4391 107.527 69.2391 107.887 69.2391 108.34C69.2391 108.807 69.4058 109.187 69.7391 109.48C70.0858 109.76 70.5591 109.9 71.1591 109.9ZM22.1929 136V127.42H20.5129V126.08H22.1929V124.6C22.1929 123.92 22.2596 123.38 22.3929 122.98C22.5262 122.58 22.7862 122.3 23.1729 122.14C23.5596 121.967 24.1196 121.88 24.8529 121.88H25.9329V123.3H24.8929C24.4662 123.3 24.1862 123.387 24.0529 123.56C23.9329 123.733 23.8729 124.073 23.8729 124.58V126.08H25.9329V127.42H23.8729V136H22.1929ZM29.5438 124.2C29.2105 124.2 28.9172 124.08 28.6638 123.84C28.4238 123.587 28.3038 123.287 28.3038 122.94C28.3038 122.593 28.4238 122.3 28.6638 122.06C28.9172 121.82 29.2105 121.7 29.5438 121.7C29.8905 121.7 30.1838 121.82 30.4238 122.06C30.6772 122.3 30.8038 122.593 30.8038 122.94C30.8038 123.287 30.6772 123.587 30.4238 123.84C30.1838 124.08 29.8905 124.2 29.5438 124.2ZM28.7038 136V127.42H27.3238V126.08H30.3838V136H28.7038ZM36.4102 136C35.7836 136 35.2969 135.94 34.9502 135.82C34.6169 135.687 34.3836 135.44 34.2502 135.08C34.1302 134.72 34.0702 134.2 34.0702 133.52V127.42H32.3902V126.08H34.0702V123.58H35.7502V126.08H37.6702V127.42H35.7502V133.24C35.7502 133.747 35.7969 134.087 35.8902 134.26C35.9969 134.433 36.2902 134.52 36.7702 134.52H37.6702V136H36.4102ZM39.8746 136V126.08H41.1146L41.5546 127.58C41.8346 127.113 42.2279 126.72 42.7346 126.4C43.2413 126.08 43.9146 125.92 44.7546 125.92C45.9546 125.92 46.8013 126.273 47.2946 126.98C47.7879 127.673 48.0346 128.587 48.0346 129.72V136H46.3546V130.22C46.3546 129.713 46.3079 129.247 46.2146 128.82C46.1213 128.38 45.9146 128.027 45.5946 127.76C45.2879 127.493 44.8146 127.36 44.1746 127.36C43.3613 127.36 42.7213 127.64 42.2546 128.2C41.7879 128.747 41.5546 129.553 41.5546 130.62V136H39.8746ZM54.7977 136.24C53.7577 136.24 52.8777 136.013 52.1577 135.56C51.4377 135.093 50.8844 134.473 50.4977 133.7C50.1244 132.913 49.9377 132.033 49.9377 131.06C49.9377 130.007 50.1511 129.1 50.5777 128.34C51.0044 127.567 51.5777 126.973 52.2977 126.56C53.0311 126.133 53.8511 125.92 54.7577 125.92C55.5444 125.92 56.2377 126.08 56.8377 126.4C57.4377 126.707 57.9311 127.127 58.3177 127.66C58.7177 128.18 59.0044 128.773 59.1777 129.44C59.3644 130.107 59.4311 130.793 59.3777 131.5H51.7377C51.7644 132.327 51.9444 132.98 52.2777 133.46C52.6244 133.94 53.0311 134.28 53.4977 134.48C53.9644 134.667 54.3977 134.76 54.7977 134.76C55.3577 134.76 55.8244 134.673 56.1977 134.5C56.5844 134.313 56.8911 134.073 57.1177 133.78L58.7377 134.26C58.3777 134.833 57.8644 135.307 57.1977 135.68C56.5311 136.053 55.7311 136.24 54.7977 136.24ZM51.7577 130.16H57.5977C57.5977 129.693 57.4777 129.247 57.2377 128.82C57.0111 128.393 56.6844 128.047 56.2577 127.78C55.8444 127.5 55.3444 127.36 54.7577 127.36C54.2644 127.36 53.7977 127.453 53.3577 127.64C52.9177 127.827 52.5511 128.127 52.2577 128.54C51.9777 128.953 51.8111 129.493 51.7577 130.16ZM64.739 136.24C64.1657 136.24 63.599 136.153 63.039 135.98C62.4923 135.793 61.999 135.52 61.559 135.16C61.1323 134.787 60.8057 134.32 60.579 133.76L62.199 133.16C62.3457 133.747 62.6657 134.173 63.159 134.44C63.6657 134.693 64.1923 134.82 64.739 134.82C65.139 134.82 65.5123 134.76 65.859 134.64C66.219 134.52 66.5123 134.347 66.739 134.12C66.9657 133.893 67.079 133.633 67.079 133.34C67.079 132.793 66.859 132.407 66.419 132.18C65.9923 131.953 65.479 131.78 64.879 131.66L63.499 131.38C63.019 131.273 62.5723 131.127 62.159 130.94C61.7457 130.74 61.4123 130.46 61.159 130.1C60.9057 129.74 60.779 129.26 60.779 128.66C60.779 128.06 60.9657 127.56 61.339 127.16C61.7123 126.747 62.1857 126.433 62.759 126.22C63.3457 126.007 63.959 125.9 64.599 125.9C65.3857 125.9 66.1257 126.067 66.819 126.4C67.5257 126.72 68.0257 127.227 68.319 127.92L66.739 128.5C66.5657 128.1 66.259 127.807 65.819 127.62C65.3923 127.42 64.9457 127.32 64.479 127.32C63.9723 127.32 63.5123 127.433 63.099 127.66C62.6857 127.887 62.479 128.213 62.479 128.64C62.479 129.067 62.6523 129.38 62.999 129.58C63.359 129.767 63.799 129.913 64.319 130.02L65.619 130.28C66.1523 130.387 66.659 130.54 67.139 130.74C67.619 130.94 68.0123 131.24 68.319 131.64C68.6257 132.027 68.779 132.573 68.779 133.28C68.779 133.907 68.5857 134.44 68.199 134.88C67.8123 135.32 67.3123 135.66 66.699 135.9C66.0857 136.127 65.4323 136.24 64.739 136.24ZM74.153 136.24C73.5797 136.24 73.013 136.153 72.453 135.98C71.9064 135.793 71.413 135.52 70.973 135.16C70.5464 134.787 70.2197 134.32 69.993 133.76L71.613 133.16C71.7597 133.747 72.0797 134.173 72.573 134.44C73.0797 134.693 73.6064 134.82 74.153 134.82C74.553 134.82 74.9264 134.76 75.273 134.64C75.633 134.52 75.9264 134.347 76.153 134.12C76.3797 133.893 76.493 133.633 76.493 133.34C76.493 132.793 76.273 132.407 75.833 132.18C75.4064 131.953 74.893 131.78 74.293 131.66L72.913 131.38C72.433 131.273 71.9864 131.127 71.573 130.94C71.1597 130.74 70.8264 130.46 70.573 130.1C70.3197 129.74 70.193 129.26 70.193 128.66C70.193 128.06 70.3797 127.56 70.753 127.16C71.1264 126.747 71.5997 126.433 72.173 126.22C72.7597 126.007 73.373 125.9 74.013 125.9C74.7997 125.9 75.5397 126.067 76.233 126.4C76.9397 126.72 77.4397 127.227 77.733 127.92L76.153 128.5C75.9797 128.1 75.673 127.807 75.233 127.62C74.8064 127.42 74.3597 127.32 73.893 127.32C73.3864 127.32 72.9264 127.433 72.513 127.66C72.0997 127.887 71.893 128.213 71.893 128.64C71.893 129.067 72.0664 129.38 72.413 129.58C72.773 129.767 73.213 129.913 73.733 130.02L75.033 130.28C75.5664 130.387 76.073 130.54 76.553 130.74C77.033 130.94 77.4264 131.24 77.733 131.64C78.0397 132.027 78.193 132.573 78.193 133.28C78.193 133.907 77.9997 134.44 77.613 134.88C77.2264 135.32 76.7264 135.66 76.113 135.9C75.4997 136.127 74.8464 136.24 74.153 136.24Z" fill="#54514C"/>
</svg>
