<svg width="134" height="127" viewBox="0 0 134 127" fill="none" xmlns="http://www.w3.org/2000/svg">
<rect x="28.5" y="10" width="77" height="76" rx="15" fill="#F2EFE6"/>
<path d="M56.1017 47.4952C56.8216 45.4144 57.2224 43.1043 57.2224 40.6719C57.2224 37.8528 56.6841 35.1982 55.7345 32.8742M77.8383 47.4956C77.1184 45.4147 76.7176 43.1047 76.7176 40.6722C76.7176 37.8532 77.2559 35.1985 78.2055 32.8745M50.399 58.2176L46.5 57.2429M50.399 58.2176C50.399 60.9093 54.4287 63.0914 58.1971 63.0914C61.9656 63.0914 64.0457 60.9093 64.0457 58.2176C64.0457 55.5259 61.9656 53.3438 58.1971 53.3438C54.4287 53.3438 50.399 55.5259 50.399 58.2176ZM87.44 57.2429L83.541 58.2176M83.541 58.2176C83.541 60.9093 79.5113 63.0914 75.7429 63.0914C71.9744 63.0914 69.8943 60.9093 69.8943 58.2176C69.8943 55.5259 71.9744 53.3438 75.7429 53.3438C79.5113 53.3438 83.541 55.5259 83.541 58.2176ZM64.0457 56.2681C64.0457 56.2681 65.0205 55.2933 66.97 55.2933C68.9195 55.2933 69.8943 56.2681 69.8943 56.2681M47.5909 45.5509C48.5998 37.0024 56.102 28 66.97 28C77.838 28 85.3402 37.0024 86.3491 45.5509C86.4753 46.6202 85.5924 47.4952 84.5157 47.4952H49.4243C48.3476 47.4952 47.4647 46.6202 47.5909 45.5509Z" stroke="#54514C" stroke-width="2.23" stroke-linecap="round" stroke-linejoin="round"/>
<path d="M10.2664 111L15.2864 97.62H17.3864L22.3864 111H20.3864L19.3664 108.08H13.2864L12.2664 111H10.2664ZM13.8664 106.46H18.7864L16.3264 99.52L13.8664 106.46ZM27.9659 111.24C27.0193 111.24 26.1993 111.02 25.5059 110.58C24.8126 110.127 24.2793 109.513 23.9059 108.74C23.5326 107.967 23.3459 107.08 23.3459 106.08C23.3459 105.093 23.5393 104.213 23.9259 103.44C24.3259 102.653 24.8859 102.04 25.6059 101.6C26.3259 101.147 27.1726 100.92 28.1459 100.92C29.0393 100.92 29.8059 101.14 30.4459 101.58C31.0859 102.02 31.5659 102.547 31.8859 103.16L30.3459 103.72C30.1326 103.32 29.8193 103 29.4059 102.76C28.9926 102.52 28.5326 102.4 28.0259 102.4C27.5326 102.4 27.0659 102.533 26.6259 102.8C26.1859 103.053 25.8326 103.453 25.5659 104C25.2993 104.533 25.1659 105.22 25.1659 106.06C25.1659 106.887 25.2993 107.58 25.5659 108.14C25.8459 108.687 26.1993 109.093 26.6259 109.36C27.0659 109.627 27.5326 109.76 28.0259 109.76C28.5726 109.76 29.0459 109.64 29.4459 109.4C29.8593 109.147 30.1726 108.833 30.3859 108.46L31.9259 109.02C31.5526 109.66 31.0193 110.193 30.3259 110.62C29.6326 111.033 28.8459 111.24 27.9659 111.24ZM43.4459 114.46C42.9926 114.46 42.5659 114.373 42.1659 114.2C41.7659 114.027 41.4393 113.727 41.1859 113.3C40.9459 112.887 40.8259 112.3 40.8259 111.54V109.5C40.5326 110.033 40.1126 110.46 39.5659 110.78C39.0326 111.087 38.3726 111.24 37.5859 111.24C36.8393 111.24 36.1393 111.04 35.4859 110.64C34.8459 110.227 34.3259 109.633 33.9259 108.86C33.5393 108.087 33.3459 107.16 33.3459 106.08C33.3459 104.987 33.5393 104.06 33.9259 103.3C34.3259 102.527 34.8459 101.94 35.4859 101.54C36.1393 101.127 36.8393 100.92 37.5859 100.92C38.3726 100.92 39.0326 101.08 39.5659 101.4C40.1126 101.707 40.5326 102.12 40.8259 102.64L41.2859 101.08H42.5059V111.48C42.5059 111.84 42.6126 112.16 42.8259 112.44C43.0526 112.733 43.4193 112.88 43.9259 112.88C44.2726 112.88 44.6793 112.793 45.1459 112.62V114.18C44.8926 114.26 44.6193 114.327 44.3259 114.38C44.0326 114.433 43.7393 114.46 43.4459 114.46ZM38.0459 109.8C38.8993 109.8 39.5793 109.473 40.0859 108.82C40.6059 108.167 40.8659 107.253 40.8659 106.08C40.8659 104.893 40.6059 103.98 40.0859 103.34C39.5793 102.687 38.8993 102.36 38.0459 102.36C37.1926 102.36 36.5059 102.687 35.9859 103.34C35.4659 103.98 35.2059 104.893 35.2059 106.08C35.2059 107.253 35.4659 108.167 35.9859 108.82C36.5059 109.473 37.1926 109.8 38.0459 109.8ZM48.6494 111.24C47.876 111.24 47.256 111.08 46.7894 110.76C46.3227 110.427 45.9827 109.973 45.7694 109.4C45.5694 108.813 45.4694 108.147 45.4694 107.4V101.06H47.1494V107C47.1494 107.733 47.236 108.3 47.4094 108.7C47.5827 109.1 47.8227 109.38 48.1294 109.54C48.4494 109.687 48.816 109.76 49.2294 109.76C50.016 109.76 50.6294 109.487 51.0694 108.94C51.5227 108.38 51.7494 107.573 51.7494 106.52V101.06H53.4294V111H52.1694L51.7494 109.56C51.4694 110.04 51.0894 110.44 50.6094 110.76C50.1294 111.08 49.476 111.24 48.6494 111.24ZM59.012 111.24C58.3854 111.24 57.812 111.127 57.292 110.9C56.772 110.673 56.3587 110.347 56.052 109.92C55.7454 109.493 55.592 108.98 55.592 108.38C55.592 107.593 55.8654 106.973 56.412 106.52C56.972 106.067 57.752 105.72 58.752 105.48C59.7654 105.227 60.9454 105.027 62.292 104.88C62.3187 104.04 62.152 103.393 61.792 102.94C61.432 102.487 60.852 102.26 60.052 102.26C59.452 102.26 58.9587 102.4 58.572 102.68C58.1987 102.947 57.9587 103.32 57.852 103.8L56.232 103.32C56.4987 102.56 56.972 101.973 57.652 101.56C58.3454 101.133 59.1387 100.92 60.032 100.92C61.4054 100.92 62.4054 101.247 63.032 101.9C63.672 102.54 63.992 103.553 63.992 104.94V107.26C63.992 108.087 64.0254 108.8 64.092 109.4C64.1587 110 64.2387 110.533 64.332 111H62.792L62.392 109.64C62.0987 110.133 61.6787 110.527 61.132 110.82C60.5854 111.1 59.8787 111.24 59.012 111.24ZM59.372 109.9C59.892 109.9 60.3854 109.807 60.852 109.62C61.3187 109.433 61.6987 109.12 61.992 108.68C62.2854 108.227 62.432 107.613 62.432 106.84V106.22C61.4187 106.327 60.5387 106.46 59.792 106.62C59.0454 106.767 58.4654 106.98 58.052 107.26C57.652 107.527 57.452 107.887 57.452 108.34C57.452 108.807 57.6187 109.187 57.952 109.48C58.2987 109.76 58.772 109.9 59.372 109.9ZM67.3394 111V102.42H65.6594V101.08H67.3394V99.6C67.3394 98.92 67.406 98.38 67.5394 97.98C67.6727 97.58 67.9327 97.3 68.3194 97.14C68.706 96.9667 69.266 96.88 69.9994 96.88H71.0794V98.3H70.0394C69.6127 98.3 69.3327 98.3867 69.1994 98.56C69.0794 98.7333 69.0194 99.0733 69.0194 99.58V101.08H71.0794V102.42H69.0194V111H67.3394ZM74.6903 99.2C74.357 99.2 74.0636 99.08 73.8103 98.84C73.5703 98.5867 73.4503 98.2867 73.4503 97.94C73.4503 97.5933 73.5703 97.3 73.8103 97.06C74.0636 96.82 74.357 96.7 74.6903 96.7C75.037 96.7 75.3303 96.82 75.5703 97.06C75.8236 97.3 75.9503 97.5933 75.9503 97.94C75.9503 98.2867 75.8236 98.5867 75.5703 98.84C75.3303 99.08 75.037 99.2 74.6903 99.2ZM73.8503 111V102.42H72.4703V101.08H75.5303V111H73.8503ZM81.5567 111C80.9301 111 80.4434 110.94 80.0967 110.82C79.7634 110.687 79.5301 110.44 79.3967 110.08C79.2767 109.72 79.2167 109.2 79.2167 108.52V102.42H77.5367V101.08H79.2167V98.58H80.8967V101.08H82.8167V102.42H80.8967V108.24C80.8967 108.747 80.9434 109.087 81.0367 109.26C81.1434 109.433 81.4367 109.52 81.9167 109.52H82.8167V111H81.5567ZM85.0211 111V101.08H86.2611L86.7011 102.58C86.9811 102.113 87.3744 101.72 87.8811 101.4C88.3878 101.08 89.0611 100.92 89.9011 100.92C91.1011 100.92 91.9478 101.273 92.4411 101.98C92.9344 102.673 93.1811 103.587 93.1811 104.72V111H91.5011V105.22C91.5011 104.713 91.4544 104.247 91.3611 103.82C91.2678 103.38 91.0611 103.027 90.7411 102.76C90.4344 102.493 89.9611 102.36 89.3211 102.36C88.5078 102.36 87.8678 102.64 87.4011 103.2C86.9344 103.747 86.7011 104.553 86.7011 105.62V111H85.0211ZM99.9442 111.24C98.9042 111.24 98.0242 111.013 97.3042 110.56C96.5842 110.093 96.0309 109.473 95.6442 108.7C95.2709 107.913 95.0842 107.033 95.0842 106.06C95.0842 105.007 95.2976 104.1 95.7242 103.34C96.1509 102.567 96.7242 101.973 97.4442 101.56C98.1776 101.133 98.9976 100.92 99.9042 100.92C100.691 100.92 101.384 101.08 101.984 101.4C102.584 101.707 103.078 102.127 103.464 102.66C103.864 103.18 104.151 103.773 104.324 104.44C104.511 105.107 104.578 105.793 104.524 106.5H96.8842C96.9109 107.327 97.0909 107.98 97.4242 108.46C97.7709 108.94 98.1776 109.28 98.6442 109.48C99.1109 109.667 99.5442 109.76 99.9442 109.76C100.504 109.76 100.971 109.673 101.344 109.5C101.731 109.313 102.038 109.073 102.264 108.78L103.884 109.26C103.524 109.833 103.011 110.307 102.344 110.68C101.678 111.053 100.878 111.24 99.9442 111.24ZM96.9042 105.16H102.744C102.744 104.693 102.624 104.247 102.384 103.82C102.158 103.393 101.831 103.047 101.404 102.78C100.991 102.5 100.491 102.36 99.9042 102.36C99.4109 102.36 98.9442 102.453 98.5042 102.64C98.0642 102.827 97.6976 103.127 97.4042 103.54C97.1242 103.953 96.9576 104.493 96.9042 105.16ZM109.885 111.24C109.312 111.24 108.745 111.153 108.185 110.98C107.639 110.793 107.145 110.52 106.705 110.16C106.279 109.787 105.952 109.32 105.725 108.76L107.345 108.16C107.492 108.747 107.812 109.173 108.305 109.44C108.812 109.693 109.339 109.82 109.885 109.82C110.285 109.82 110.659 109.76 111.005 109.64C111.365 109.52 111.659 109.347 111.885 109.12C112.112 108.893 112.225 108.633 112.225 108.34C112.225 107.793 112.005 107.407 111.565 107.18C111.139 106.953 110.625 106.78 110.025 106.66L108.645 106.38C108.165 106.273 107.719 106.127 107.305 105.94C106.892 105.74 106.559 105.46 106.305 105.1C106.052 104.74 105.925 104.26 105.925 103.66C105.925 103.06 106.112 102.56 106.485 102.16C106.859 101.747 107.332 101.433 107.905 101.22C108.492 101.007 109.105 100.9 109.745 100.9C110.532 100.9 111.272 101.067 111.965 101.4C112.672 101.72 113.172 102.227 113.465 102.92L111.885 103.5C111.712 103.1 111.405 102.807 110.965 102.62C110.539 102.42 110.092 102.32 109.625 102.32C109.119 102.32 108.659 102.433 108.245 102.66C107.832 102.887 107.625 103.213 107.625 103.64C107.625 104.067 107.799 104.38 108.145 104.58C108.505 104.767 108.945 104.913 109.465 105.02L110.765 105.28C111.299 105.387 111.805 105.54 112.285 105.74C112.765 105.94 113.159 106.24 113.465 106.64C113.772 107.027 113.925 107.573 113.925 108.28C113.925 108.907 113.732 109.44 113.345 109.88C112.959 110.32 112.459 110.66 111.845 110.9C111.232 111.127 110.579 111.24 109.885 111.24ZM119.3 111.24C118.726 111.24 118.16 111.153 117.6 110.98C117.053 110.793 116.56 110.52 116.12 110.16C115.693 109.787 115.366 109.32 115.14 108.76L116.76 108.16C116.906 108.747 117.226 109.173 117.72 109.44C118.226 109.693 118.753 109.82 119.3 109.82C119.7 109.82 120.073 109.76 120.42 109.64C120.78 109.52 121.073 109.347 121.3 109.12C121.526 108.893 121.64 108.633 121.64 108.34C121.64 107.793 121.42 107.407 120.98 107.18C120.553 106.953 120.04 106.78 119.44 106.66L118.06 106.38C117.58 106.273 117.133 106.127 116.72 105.94C116.306 105.74 115.973 105.46 115.72 105.1C115.466 104.74 115.34 104.26 115.34 103.66C115.34 103.06 115.526 102.56 115.9 102.16C116.273 101.747 116.746 101.433 117.32 101.22C117.906 101.007 118.52 100.9 119.16 100.9C119.946 100.9 120.686 101.067 121.38 101.4C122.086 101.72 122.586 102.227 122.88 102.92L121.3 103.5C121.126 103.1 120.82 102.807 120.38 102.62C119.953 102.42 119.506 102.32 119.04 102.32C118.533 102.32 118.073 102.433 117.66 102.66C117.246 102.887 117.04 103.213 117.04 103.64C117.04 104.067 117.213 104.38 117.56 104.58C117.92 104.767 118.36 104.913 118.88 105.02L120.18 105.28C120.713 105.387 121.22 105.54 121.7 105.74C122.18 105.94 122.573 106.24 122.88 106.64C123.186 107.027 123.34 107.573 123.34 108.28C123.34 108.907 123.146 109.44 122.76 109.88C122.373 110.32 121.873 110.66 121.26 110.9C120.646 111.127 119.993 111.24 119.3 111.24Z" fill="#54514C"/>
</svg>
