<svg width="19" height="20" viewBox="0 0 19 20" fill="none" xmlns="http://www.w3.org/2000/svg">
<rect width="18.4615" height="19.6923" fill="white" fill-opacity="0.01" style="mix-blend-mode:multiply"/>
<path d="M15.0009 2.46154H12.6932V1.23077H11.5394V2.46154H6.92398V1.23077H5.77013V2.46154H3.46244C2.82782 2.46154 2.30859 3.01539 2.30859 3.69231V16C2.30859 16.6769 2.82782 17.2308 3.46244 17.2308H15.0009C15.6355 17.2308 16.1547 16.6769 16.1547 16V3.69231C16.1547 3.01539 15.6355 2.46154 15.0009 2.46154ZM15.0009 16H3.46244V7.38462H15.0009V16ZM15.0009 6.15385H3.46244V3.69231H5.77013V4.92308H6.92398V3.69231H11.5394V4.92308H12.6932V3.69231H15.0009V6.15385Z" fill="#161616"/>
</svg>
