<svg width="20" height="20" viewBox="0 0 20 20" fill="none" xmlns="http://www.w3.org/2000/svg">
<g clip-path="url(#clip0_1343_1679)">
<path d="M9.84693 11.6909C9.13621 11.6915 8.43641 11.516 7.81009 11.1801C7.18377 10.8441 6.65046 10.3582 6.25781 9.76581L7.28292 9.08441C7.56361 9.50749 7.94463 9.85453 8.39201 10.0946C8.83938 10.3347 9.33921 10.4603 9.84693 10.4603C10.3546 10.4603 10.8545 10.3347 11.3019 10.0946C11.7492 9.85453 12.1302 9.50749 12.4109 9.08441L13.436 9.76581C13.0434 10.3582 12.5101 10.8441 11.8838 11.1801C11.2575 11.516 10.5577 11.6915 9.84693 11.6909Z" fill="black"/>
<path d="M12.3048 4.92248C12.0614 4.92248 11.8235 4.99466 11.6211 5.12988C11.4188 5.2651 11.261 5.4573 11.1679 5.68217C11.0748 5.90704 11.0504 6.15447 11.0979 6.39319C11.1453 6.63191 11.2626 6.85119 11.4347 7.02329C11.6068 7.1954 11.826 7.3126 12.0648 7.36009C12.3035 7.40757 12.5509 7.3832 12.7758 7.29006C13.0007 7.19691 13.1928 7.03918 13.3281 6.83681C13.4633 6.63443 13.5355 6.3965 13.5355 6.15311C13.5371 5.99106 13.5063 5.83031 13.445 5.68029C13.3838 5.53026 13.2932 5.39396 13.1786 5.27937C13.064 5.16478 12.9277 5.07419 12.7777 5.01291C12.6276 4.95163 12.4669 4.92089 12.3048 4.92248Z" fill="black"/>
<path d="M7.38297 4.92248C7.13957 4.92248 6.90165 4.99466 6.69927 5.12988C6.4969 5.2651 6.33916 5.4573 6.24602 5.68217C6.15288 5.90704 6.12851 6.15447 6.17599 6.39319C6.22347 6.63191 6.34068 6.85119 6.51279 7.02329C6.68489 7.1954 6.90417 7.3126 7.14289 7.36009C7.3816 7.40757 7.62904 7.3832 7.85391 7.29006C8.07878 7.19691 8.27097 7.03918 8.4062 6.83681C8.54142 6.63443 8.61359 6.3965 8.61359 6.15311C8.61519 5.99106 8.58445 5.83031 8.52317 5.68029C8.46189 5.53026 8.3713 5.39396 8.25671 5.27937C8.14211 5.16478 8.00582 5.07419 7.85579 5.01291C7.70576 4.95163 7.54502 4.92089 7.38297 4.92248Z" fill="black"/>
<path d="M10.9129 18.4594L9.84484 17.8441L12.3061 13.5369H15.998C16.1597 13.5372 16.3198 13.5055 16.4692 13.4438C16.6187 13.382 16.7544 13.2914 16.8688 13.1771C16.9831 13.0627 17.0737 12.927 17.1355 12.7775C17.1972 12.6281 17.2289 12.468 17.2286 12.3063V3.6919C17.2289 3.53022 17.1972 3.37007 17.1355 3.22064C17.0737 3.07121 16.9831 2.93543 16.8688 2.8211C16.7544 2.70678 16.6187 2.61614 16.4692 2.55439C16.3198 2.49264 16.1597 2.461 15.998 2.46128H3.69172C3.53003 2.461 3.36988 2.49264 3.22045 2.55439C3.07102 2.61614 2.93525 2.70678 2.82092 2.8211C2.70659 2.93543 2.61596 3.07121 2.55421 3.22064C2.49246 3.37007 2.46082 3.53022 2.46109 3.6919V12.3063C2.46082 12.468 2.49246 12.6281 2.55421 12.7775C2.61596 12.927 2.70659 13.0627 2.82092 13.1771C2.93525 13.2914 3.07102 13.382 3.22045 13.4438C3.36988 13.5055 3.53003 13.5372 3.69172 13.5369H9.22953V14.7675H3.69172C3.36849 14.7676 3.04841 14.704 2.74977 14.5803C2.45113 14.4566 2.17979 14.2753 1.95123 14.0468C1.72267 13.8182 1.54137 13.5469 1.41771 13.2482C1.29404 12.9496 1.23041 12.6295 1.23047 12.3063V3.6919C1.23037 3.36866 1.29397 3.04856 1.41762 2.74991C1.54128 2.45125 1.72257 2.17989 1.95114 1.95132C2.1797 1.72275 2.45107 1.54146 2.74972 1.41781C3.04838 1.29415 3.36848 1.23055 3.69172 1.23065H15.998C16.3212 1.23055 16.6413 1.29415 16.94 1.41781C17.2386 1.54146 17.51 1.72275 17.7386 1.95132C17.9671 2.17989 18.1484 2.45125 18.2721 2.74991C18.3957 3.04856 18.4593 3.36866 18.4592 3.6919V12.3063C18.4593 12.6295 18.3957 12.9496 18.272 13.2482C18.1483 13.5469 17.967 13.8182 17.7385 14.0468C17.5099 14.2753 17.2386 14.4566 16.9399 14.5803C16.6413 14.704 16.3212 14.7676 15.998 14.7675H13.0227L10.9129 18.4594Z" fill="black"/>
</g>
<defs>
<clipPath id="clip0_1343_1679">
<rect width="19.69" height="19.69" fill="white"/>
</clipPath>
</defs>
</svg>
