<svg width="99" height="127" viewBox="0 0 99 127" fill="none" xmlns="http://www.w3.org/2000/svg">
<rect x="11" y="10" width="77" height="76" rx="15" fill="#F2EFE6"/>
<path d="M34.1743 53.9378C34.1743 53.9378 35.4267 58.6118 42.3408 62.6036C49.2549 66.5955 53.9289 65.3431 53.9289 65.3431M34.1743 53.9378C35.1319 29.4683 49.7238 24.7216 58.6135 29.8541C67.5032 34.9866 68.1848 40.6479 66.4742 43.6113C64.7637 46.5746 60.66 46.8393 61.9121 51.5131M34.1743 53.9378L29.6119 61.8382C28.3521 64.0202 29.0999 66.8101 31.2819 68.0699L43.1346 74.913C45.3166 76.1728 48.1068 75.4252 49.3666 73.2432L53.9289 65.3431M53.9289 65.3431C58.7553 61.5448 66.5454 59.456 68.8265 55.5051C71.1076 51.5542 69.8552 46.8802 65.3337 45.5867" stroke="#54514C" stroke-width="2.23" stroke-linecap="round" stroke-linejoin="round"/>
<path d="M21.9018 111.24C20.6351 111.24 19.5485 110.947 18.6418 110.36C17.7351 109.76 17.0418 108.94 16.5618 107.9C16.0818 106.86 15.8418 105.66 15.8418 104.3C15.8418 102.913 16.0951 101.707 16.6018 100.68C17.1218 99.64 17.8485 98.8333 18.7818 98.26C19.7151 97.6867 20.8085 97.4 22.0618 97.4C23.1818 97.4 24.1885 97.66 25.0818 98.18C25.9885 98.7 26.6685 99.4467 27.1218 100.42L25.4818 101.02C25.1885 100.42 24.7418 99.9333 24.1418 99.56C23.5551 99.1733 22.8285 98.98 21.9618 98.98C21.1751 98.98 20.4618 99.18 19.8218 99.58C19.1951 99.98 18.6951 100.58 18.3218 101.38C17.9485 102.167 17.7618 103.14 17.7618 104.3C17.7618 105.42 17.9418 106.38 18.3018 107.18C18.6618 107.98 19.1618 108.593 19.8018 109.02C20.4551 109.447 21.1951 109.66 22.0218 109.66C22.8885 109.66 23.6151 109.473 24.2018 109.1C24.8018 108.727 25.2551 108.233 25.5618 107.62L27.2018 108.22C26.7218 109.207 26.0151 109.96 25.0818 110.48C24.1485 110.987 23.0885 111.24 21.9018 111.24ZM33.4868 111.24C32.9135 111.24 32.3468 111.14 31.7868 110.94C31.2268 110.74 30.7135 110.433 30.2468 110.02C29.7935 109.593 29.4268 109.053 29.1468 108.4C28.8668 107.747 28.7268 106.973 28.7268 106.08C28.7268 105.187 28.8668 104.413 29.1468 103.76C29.4268 103.107 29.7935 102.573 30.2468 102.16C30.7135 101.733 31.2268 101.42 31.7868 101.22C32.3468 101.02 32.9135 100.92 33.4868 100.92C34.0601 100.92 34.6268 101.02 35.1868 101.22C35.7601 101.42 36.2735 101.733 36.7268 102.16C37.1935 102.573 37.5601 103.107 37.8268 103.76C38.1068 104.413 38.2468 105.187 38.2468 106.08C38.2468 106.973 38.1068 107.747 37.8268 108.4C37.5601 109.053 37.1935 109.593 36.7268 110.02C36.2735 110.433 35.7601 110.74 35.1868 110.94C34.6268 111.14 34.0601 111.24 33.4868 111.24ZM33.4868 109.76C33.9668 109.76 34.4335 109.633 34.8868 109.38C35.3401 109.113 35.7135 108.713 36.0068 108.18C36.3001 107.633 36.4468 106.933 36.4468 106.08C36.4468 105.227 36.3001 104.533 36.0068 104C35.7135 103.453 35.3401 103.053 34.8868 102.8C34.4335 102.533 33.9668 102.4 33.4868 102.4C33.0201 102.4 32.5535 102.533 32.0868 102.8C31.6335 103.053 31.2601 103.453 30.9668 104C30.6735 104.533 30.5268 105.227 30.5268 106.08C30.5268 106.933 30.6735 107.633 30.9668 108.18C31.2601 108.713 31.6335 109.113 32.0868 109.38C32.5535 109.633 33.0201 109.76 33.4868 109.76ZM40.402 111V101.08H41.642L42.082 102.58C42.362 102.113 42.742 101.72 43.222 101.4C43.7153 101.08 44.3286 100.92 45.062 100.92C45.822 100.92 46.4353 101.073 46.902 101.38C47.3686 101.687 47.7086 102.113 47.922 102.66C48.322 102.047 48.802 101.607 49.362 101.34C49.9353 101.06 50.5686 100.92 51.262 100.92C52.4086 100.92 53.2286 101.273 53.722 101.98C54.2153 102.673 54.462 103.587 54.462 104.72V111H52.782V105.22C52.782 104.713 52.7286 104.247 52.622 103.82C52.5286 103.38 52.3286 103.027 52.022 102.76C51.7286 102.493 51.2753 102.36 50.662 102.36C49.942 102.36 49.362 102.64 48.922 103.2C48.4953 103.747 48.282 104.553 48.282 105.62V111H46.602V105.22C46.602 104.713 46.5486 104.247 46.442 103.82C46.3486 103.38 46.1486 103.027 45.842 102.76C45.5486 102.493 45.0953 102.36 44.482 102.36C43.762 102.36 43.182 102.64 42.742 103.2C42.302 103.747 42.082 104.553 42.082 105.62V111H40.402ZM62.1184 111.24C61.345 111.24 60.6917 111.087 60.1584 110.78C59.625 110.46 59.205 110.033 58.8984 109.5L58.4584 111H57.2184V97.64H58.8984V102.64C59.205 102.12 59.625 101.707 60.1584 101.4C60.6917 101.08 61.345 100.92 62.1184 100.92C62.8784 100.92 63.5784 101.127 64.2184 101.54C64.8717 101.94 65.3917 102.527 65.7784 103.3C66.1784 104.06 66.3784 104.987 66.3784 106.08C66.3784 107.173 66.1784 108.107 65.7784 108.88C65.3917 109.64 64.8717 110.227 64.2184 110.64C63.5784 111.04 62.8784 111.24 62.1184 111.24ZM61.6784 109.8C62.5317 109.8 63.2117 109.473 63.7184 108.82C64.2384 108.167 64.4984 107.253 64.4984 106.08C64.4984 104.893 64.2384 103.98 63.7184 103.34C63.2117 102.687 62.5317 102.36 61.6784 102.36C60.825 102.36 60.1384 102.687 59.6184 103.34C59.1117 103.98 58.8584 104.893 58.8584 106.08C58.8584 107.253 59.1117 108.167 59.6184 108.82C60.1384 109.473 60.825 109.8 61.6784 109.8ZM71.3265 111.24C70.6998 111.24 70.1265 111.127 69.6065 110.9C69.0865 110.673 68.6732 110.347 68.3665 109.92C68.0598 109.493 67.9065 108.98 67.9065 108.38C67.9065 107.593 68.1798 106.973 68.7265 106.52C69.2865 106.067 70.0665 105.72 71.0665 105.48C72.0798 105.227 73.2598 105.027 74.6065 104.88C74.6332 104.04 74.4665 103.393 74.1065 102.94C73.7465 102.487 73.1665 102.26 72.3665 102.26C71.7665 102.26 71.2732 102.4 70.8865 102.68C70.5132 102.947 70.2732 103.32 70.1665 103.8L68.5465 103.32C68.8132 102.56 69.2865 101.973 69.9665 101.56C70.6598 101.133 71.4532 100.92 72.3465 100.92C73.7198 100.92 74.7198 101.247 75.3465 101.9C75.9865 102.54 76.3065 103.553 76.3065 104.94V107.26C76.3065 108.087 76.3398 108.8 76.4065 109.4C76.4732 110 76.5532 110.533 76.6465 111H75.1065L74.7065 109.64C74.4132 110.133 73.9932 110.527 73.4465 110.82C72.8998 111.1 72.1932 111.24 71.3265 111.24ZM71.6865 109.9C72.2065 109.9 72.6998 109.807 73.1665 109.62C73.6332 109.433 74.0132 109.12 74.3065 108.68C74.5998 108.227 74.7465 107.613 74.7465 106.84V106.22C73.7332 106.327 72.8532 106.46 72.1065 106.62C71.3598 106.767 70.7798 106.98 70.3665 107.26C69.9665 107.527 69.7665 107.887 69.7665 108.34C69.7665 108.807 69.9332 109.187 70.2665 109.48C70.6132 109.76 71.0865 109.9 71.6865 109.9ZM82.0938 111C81.4672 111 80.9805 110.94 80.6338 110.82C80.3005 110.687 80.0672 110.44 79.9338 110.08C79.8138 109.72 79.7538 109.2 79.7538 108.52V102.42H78.0738V101.08H79.7538V98.58H81.4338V101.08H83.3538V102.42H81.4338V108.24C81.4338 108.747 81.4805 109.087 81.5738 109.26C81.6805 109.433 81.9738 109.52 82.4538 109.52H83.3538V111H82.0938Z" fill="#54514C"/>
</svg>
