<svg width="20" height="20" viewBox="0 0 20 20" fill="none" xmlns="http://www.w3.org/2000/svg">
<g clip-path="url(#clip0_1343_1690)">
<path d="M9.84485 1.23065C8.14109 1.23065 6.47558 1.73588 5.05896 2.68244C3.64233 3.629 2.5382 4.97438 1.8862 6.54845C1.2342 8.12252 1.06361 9.85458 1.396 11.5256C1.72838 13.1966 2.54882 14.7316 3.75356 15.9363C4.95831 17.1411 6.49324 17.9615 8.16427 18.2939C9.83529 18.6263 11.5674 18.4557 13.1414 17.8037C14.7155 17.1517 16.0609 16.0475 17.0074 14.6309C17.954 13.2143 18.4592 11.5488 18.4592 9.84503C18.4566 7.56114 17.5482 5.37154 15.9333 3.75659C14.3183 2.14163 12.1287 1.23323 9.84485 1.23065ZM12.9214 3.14151C13.573 3.44194 14.1774 3.83564 14.7155 4.31023L14.4618 4.92253H12.9214V3.14151ZM8.23174 17.0458C6.90028 16.7499 5.67704 16.0904 4.69822 15.1405C3.71941 14.1906 3.02342 12.9877 2.68775 11.6657C2.35208 10.3437 2.3899 8.95451 2.797 7.65274C3.2041 6.35097 3.96449 5.18772 4.99354 4.29251L5.82366 5.53784H7.88022L6.95725 7.99909H4.47889L3.62816 10.5511L5.20834 12.9216H8.28491L9.16597 14.243L8.23174 17.0458ZM9.84485 17.2288C9.71969 17.2288 9.59774 17.2165 9.47412 17.2103L10.3335 14.6322C10.3933 14.4545 10.4114 14.2655 10.3865 14.0797C10.3616 13.894 10.2944 13.7164 10.1899 13.5608L9.30885 12.2394C9.19667 12.0706 9.04446 11.9322 8.8658 11.8365C8.68714 11.7408 8.48758 11.6908 8.28491 11.691H5.86673L4.98591 10.3696L5.3658 9.22971H6.76829V10.4603H7.99891V8.7259L9.80565 3.908L8.65342 3.47593L8.3417 4.30721H6.48229L5.98561 3.56213C6.8274 3.03669 7.768 2.68946 8.74929 2.54192C9.73058 2.39438 10.7317 2.44965 11.6908 2.70433V4.92253C11.6912 5.24878 11.821 5.56156 12.0517 5.79226C12.2824 6.02296 12.5952 6.15274 12.9214 6.15315H14.5124C14.6741 6.15361 14.8343 6.12197 14.9837 6.06009C15.133 5.99821 15.2687 5.9073 15.3827 5.79264L15.4692 5.70607L15.6426 5.28765C16.1393 5.91877 16.5295 6.6268 16.7979 7.38378H13.905C13.6141 7.38285 13.3324 7.48539 13.1101 7.67306C12.8879 7.86074 12.7396 8.12133 12.6917 8.40827L12.3246 10.5258C12.2801 10.7766 12.3149 11.035 12.4242 11.2651C12.5335 11.4951 12.7118 11.6854 12.9343 11.8094L14.2663 12.71L15.1637 14.9535C14.4769 15.6724 13.6515 16.2447 12.7373 16.6358C11.8231 17.0269 10.8392 17.2286 9.84485 17.2288ZM15.2685 11.9024L13.5983 10.7734L13.5367 10.7365L13.905 8.6144H17.1174C17.4397 10.4299 17.0558 12.2999 16.0442 13.8415L15.2685 11.9024Z" fill="black"/>
</g>
<defs>
<clipPath id="clip0_1343_1690">
<rect width="19.69" height="19.69" fill="white"/>
</clipPath>
</defs>
</svg>
