<svg width="20" height="20" viewBox="0 0 20 20" fill="none" xmlns="http://www.w3.org/2000/svg">
<rect width="19.69" height="19.69" fill="white" fill-opacity="0.01" style="mix-blend-mode:multiply"/>
<path d="M13.8153 3.69187C14.2633 3.69149 14.7068 3.78055 15.12 3.95383C15.5331 4.12712 15.9075 4.38113 16.2211 4.70098C16.8675 5.35714 17.2298 6.2412 17.2298 7.16223C17.2298 8.08326 16.8675 8.96733 16.2211 9.62348L9.84651 16.0781L3.47187 9.62348C2.82554 8.96733 2.46324 8.08326 2.46324 7.16223C2.46324 6.2412 2.82554 5.35714 3.47187 4.70098C3.78574 4.38136 4.16014 4.12748 4.57323 3.95417C4.98631 3.78087 5.42978 3.69161 5.87774 3.69161C6.32571 3.69161 6.76918 3.78087 7.18226 3.95417C7.59534 4.12748 7.96975 4.38136 8.28361 4.70098L9.84651 6.30079L11.4032 4.71329C11.716 4.38962 12.0908 4.13235 12.5052 3.95685C12.9196 3.78135 13.3652 3.69122 13.8153 3.69187ZM13.8153 2.46124C13.2034 2.46073 12.5976 2.58237 12.0334 2.81905C11.4692 3.05573 10.9579 3.40267 10.5295 3.83954L9.84651 4.52869L9.16351 3.83954C8.73461 3.40346 8.22319 3.05712 7.65906 2.8207C7.09494 2.58429 6.4894 2.46253 5.87774 2.46253C5.26608 2.46253 4.66054 2.58429 4.09642 2.8207C3.5323 3.05712 3.02088 3.40346 2.59197 3.83954C1.71939 4.72783 1.23047 5.92321 1.23047 7.16838C1.23047 8.41356 1.71939 9.60894 2.59197 10.4972L9.84651 17.8441L17.101 10.4972C17.9736 9.60894 18.4625 8.41356 18.4625 7.16838C18.4625 5.92321 17.9736 4.72783 17.101 3.83954C16.6722 3.40323 16.1609 3.05665 15.5967 2.82001C15.0326 2.58337 14.427 2.46141 13.8153 2.46124Z" fill="#161616"/>
</svg>
