<svg width="99" height="127" viewBox="0 0 99 127" fill="none" xmlns="http://www.w3.org/2000/svg">
<rect x="11" y="10" width="77" height="76" rx="15" fill="#F2EFE6"/>
<path d="M63.799 64.846C67.1906 64.846 69.94 62.0966 69.94 58.705C69.94 55.3134 67.1906 52.564 63.799 52.564M63.799 64.846C60.4074 64.846 57.658 62.0966 57.658 58.705C57.658 55.3134 60.4074 52.564 63.799 52.564M63.799 64.846H33.334C30.9404 64.846 29 62.9056 29 60.512C29 58.3143 30.645 56.4645 32.8276 56.2077L63.799 52.564M63.799 52.564L57.658 34.141M63.799 28L52.8333 37.9688C52.6449 38.1401 52.3994 38.235 52.1448 38.235H44.3525M64.8225 58.705C64.8225 58.1397 64.3643 57.6815 63.799 57.6815C63.2337 57.6815 62.7755 58.1397 62.7755 58.705M64.8225 58.705C64.8225 59.2703 64.3643 59.7285 63.799 59.7285C63.2337 59.7285 62.7755 59.2703 62.7755 58.705M64.8225 58.705H62.7755" stroke="#54514C" stroke-width="2.23" stroke-linecap="round" stroke-linejoin="round"/>
<path d="M19.3598 111V97.64H28.0398V99.26H21.2398V103.32H28.0398V104.94H21.2398V111H19.3598ZM31.9169 99.2C31.5835 99.2 31.2902 99.08 31.0369 98.84C30.7969 98.5867 30.6769 98.2867 30.6769 97.94C30.6769 97.5933 30.7969 97.3 31.0369 97.06C31.2902 96.82 31.5835 96.7 31.9169 96.7C32.2635 96.7 32.5569 96.82 32.7969 97.06C33.0502 97.3 33.1769 97.5933 33.1769 97.94C33.1769 98.2867 33.0502 98.5867 32.7969 98.84C32.5569 99.08 32.2635 99.2 31.9169 99.2ZM31.0769 111V102.42H29.6969V101.08H32.7569V111H31.0769ZM38.7833 111C38.1566 111 37.6699 110.94 37.3233 110.82C36.9899 110.687 36.7566 110.44 36.6233 110.08C36.5033 109.72 36.4433 109.2 36.4433 108.52V102.42H34.7633V101.08H36.4433V98.58H38.1233V101.08H40.0433V102.42H38.1233V108.24C38.1233 108.747 38.1699 109.087 38.2633 109.26C38.3699 109.433 38.6633 109.52 39.1433 109.52H40.0433V111H38.7833ZM42.2477 111V101.08H43.4877L43.9277 102.58C44.2077 102.113 44.601 101.72 45.1077 101.4C45.6143 101.08 46.2877 100.92 47.1277 100.92C48.3277 100.92 49.1743 101.273 49.6677 101.98C50.161 102.673 50.4077 103.587 50.4077 104.72V111H48.7277V105.22C48.7277 104.713 48.681 104.247 48.5877 103.82C48.4943 103.38 48.2877 103.027 47.9677 102.76C47.661 102.493 47.1877 102.36 46.5477 102.36C45.7343 102.36 45.0943 102.64 44.6277 103.2C44.161 103.747 43.9277 104.553 43.9277 105.62V111H42.2477ZM57.1708 111.24C56.1308 111.24 55.2508 111.013 54.5308 110.56C53.8108 110.093 53.2574 109.473 52.8708 108.7C52.4974 107.913 52.3108 107.033 52.3108 106.06C52.3108 105.007 52.5241 104.1 52.9508 103.34C53.3774 102.567 53.9508 101.973 54.6708 101.56C55.4041 101.133 56.2241 100.92 57.1308 100.92C57.9174 100.92 58.6108 101.08 59.2108 101.4C59.8108 101.707 60.3041 102.127 60.6908 102.66C61.0908 103.18 61.3774 103.773 61.5508 104.44C61.7374 105.107 61.8041 105.793 61.7508 106.5H54.1108C54.1374 107.327 54.3174 107.98 54.6508 108.46C54.9974 108.94 55.4041 109.28 55.8708 109.48C56.3374 109.667 56.7708 109.76 57.1708 109.76C57.7308 109.76 58.1974 109.673 58.5708 109.5C58.9574 109.313 59.2641 109.073 59.4908 108.78L61.1108 109.26C60.7508 109.833 60.2374 110.307 59.5708 110.68C58.9041 111.053 58.1041 111.24 57.1708 111.24ZM54.1308 105.16H59.9708C59.9708 104.693 59.8508 104.247 59.6108 103.82C59.3841 103.393 59.0574 103.047 58.6308 102.78C58.2174 102.5 57.7174 102.36 57.1308 102.36C56.6374 102.36 56.1708 102.453 55.7308 102.64C55.2908 102.827 54.9241 103.127 54.6308 103.54C54.3508 103.953 54.1841 104.493 54.1308 105.16ZM67.112 111.24C66.5387 111.24 65.972 111.153 65.412 110.98C64.8654 110.793 64.372 110.52 63.932 110.16C63.5054 109.787 63.1787 109.32 62.952 108.76L64.572 108.16C64.7187 108.747 65.0387 109.173 65.532 109.44C66.0387 109.693 66.5654 109.82 67.112 109.82C67.512 109.82 67.8854 109.76 68.232 109.64C68.592 109.52 68.8854 109.347 69.112 109.12C69.3387 108.893 69.452 108.633 69.452 108.34C69.452 107.793 69.232 107.407 68.792 107.18C68.3654 106.953 67.852 106.78 67.252 106.66L65.872 106.38C65.392 106.273 64.9454 106.127 64.532 105.94C64.1187 105.74 63.7854 105.46 63.532 105.1C63.2787 104.74 63.152 104.26 63.152 103.66C63.152 103.06 63.3387 102.56 63.712 102.16C64.0854 101.747 64.5587 101.433 65.132 101.22C65.7187 101.007 66.332 100.9 66.972 100.9C67.7587 100.9 68.4987 101.067 69.192 101.4C69.8987 101.72 70.3987 102.227 70.692 102.92L69.112 103.5C68.9387 103.1 68.632 102.807 68.192 102.62C67.7654 102.42 67.3187 102.32 66.852 102.32C66.3454 102.32 65.8854 102.433 65.472 102.66C65.0587 102.887 64.852 103.213 64.852 103.64C64.852 104.067 65.0254 104.38 65.372 104.58C65.732 104.767 66.172 104.913 66.692 105.02L67.992 105.28C68.5254 105.387 69.032 105.54 69.512 105.74C69.992 105.94 70.3854 106.24 70.692 106.64C70.9987 107.027 71.152 107.573 71.152 108.28C71.152 108.907 70.9587 109.44 70.572 109.88C70.1854 110.32 69.6854 110.66 69.072 110.9C68.4587 111.127 67.8054 111.24 67.112 111.24ZM76.5261 111.24C75.9528 111.24 75.3861 111.153 74.8261 110.98C74.2794 110.793 73.7861 110.52 73.3461 110.16C72.9194 109.787 72.5928 109.32 72.3661 108.76L73.9861 108.16C74.1328 108.747 74.4528 109.173 74.9461 109.44C75.4528 109.693 75.9794 109.82 76.5261 109.82C76.9261 109.82 77.2994 109.76 77.6461 109.64C78.0061 109.52 78.2994 109.347 78.5261 109.12C78.7528 108.893 78.8661 108.633 78.8661 108.34C78.8661 107.793 78.6461 107.407 78.2061 107.18C77.7794 106.953 77.2661 106.78 76.6661 106.66L75.2861 106.38C74.8061 106.273 74.3594 106.127 73.9461 105.94C73.5328 105.74 73.1994 105.46 72.9461 105.1C72.6928 104.74 72.5661 104.26 72.5661 103.66C72.5661 103.06 72.7528 102.56 73.1261 102.16C73.4994 101.747 73.9728 101.433 74.5461 101.22C75.1328 101.007 75.7461 100.9 76.3861 100.9C77.1728 100.9 77.9128 101.067 78.6061 101.4C79.3128 101.72 79.8128 102.227 80.1061 102.92L78.5261 103.5C78.3528 103.1 78.0461 102.807 77.6061 102.62C77.1794 102.42 76.7328 102.32 76.2661 102.32C75.7594 102.32 75.2994 102.433 74.8861 102.66C74.4728 102.887 74.2661 103.213 74.2661 103.64C74.2661 104.067 74.4394 104.38 74.7861 104.58C75.1461 104.767 75.5861 104.913 76.1061 105.02L77.4061 105.28C77.9394 105.387 78.4461 105.54 78.9261 105.74C79.4061 105.94 79.7994 106.24 80.1061 106.64C80.4128 107.027 80.5661 107.573 80.5661 108.28C80.5661 108.907 80.3728 109.44 79.9861 109.88C79.5994 110.32 79.0994 110.66 78.4861 110.9C77.8728 111.127 77.2194 111.24 76.5261 111.24Z" fill="#54514C"/>
</svg>
