<svg width="99" height="127" viewBox="0 0 99 127" fill="none" xmlns="http://www.w3.org/2000/svg">
<rect x="11" y="10" width="77" height="76" rx="15" fill="#F2EFE6"/>
<path d="M45.2152 28.4313C47.949 34.3907 49.4691 40.9945 49.4691 47.9442C49.4691 54.894 47.949 61.4978 45.2152 67.4572M45.2152 28.4313C46.5874 28.1487 48.0104 28 49.4691 28C55.3794 28 60.7047 30.4407 64.4411 34.3442M45.2152 28.4313C40.8363 29.3331 36.9738 31.5989 34.1181 34.7511M29.0711 46.2694C29.024 46.8216 29 47.3802 29 47.9442C29 53.0028 30.9328 57.6215 34.1181 61.1374M29.0711 46.2694C35.284 43.5028 42.1918 41.961 49.4691 41.961C56.7464 41.961 63.6542 43.5028 69.867 46.2694M29.0711 46.2694C29.4466 41.8694 31.288 37.875 34.1181 34.7511M34.1181 34.7511C38.4423 37.6231 41.2815 42.4606 41.2815 47.9442C41.2815 53.4279 38.4423 58.2654 34.1181 61.1374M34.1181 61.1374C36.9738 64.2896 40.8363 66.5554 45.2152 67.4572M45.2152 67.4572C46.5874 67.7398 48.0104 67.8885 49.4691 67.8885C55.3794 67.8885 60.7047 65.4478 64.4411 61.5443M64.4411 61.5443C59.7567 58.7368 56.6333 53.6959 56.6333 47.9442C56.6333 42.1926 59.7567 37.1517 64.4411 34.3442M64.4411 61.5443C67.8514 57.9816 69.9382 53.2004 69.9382 47.9442C69.9382 47.3802 69.9141 46.8216 69.867 46.2694M69.867 46.2694C69.4751 41.676 67.4855 37.5246 64.4411 34.3442" stroke="#54514C" stroke-width="2.22514"/>
<path d="M15.5513 111V97.64H24.2313V99.26H17.4313V103.32H24.2313V104.94H17.4313V111H15.5513ZM30.5083 111.24C29.9349 111.24 29.3683 111.14 28.8083 110.94C28.2483 110.74 27.7349 110.433 27.2683 110.02C26.8149 109.593 26.4483 109.053 26.1683 108.4C25.8883 107.747 25.7483 106.973 25.7483 106.08C25.7483 105.187 25.8883 104.413 26.1683 103.76C26.4483 103.107 26.8149 102.573 27.2683 102.16C27.7349 101.733 28.2483 101.42 28.8083 101.22C29.3683 101.02 29.9349 100.92 30.5083 100.92C31.0816 100.92 31.6483 101.02 32.2083 101.22C32.7816 101.42 33.2949 101.733 33.7483 102.16C34.2149 102.573 34.5816 103.107 34.8483 103.76C35.1283 104.413 35.2683 105.187 35.2683 106.08C35.2683 106.973 35.1283 107.747 34.8483 108.4C34.5816 109.053 34.2149 109.593 33.7483 110.02C33.2949 110.433 32.7816 110.74 32.2083 110.94C31.6483 111.14 31.0816 111.24 30.5083 111.24ZM30.5083 109.76C30.9883 109.76 31.4549 109.633 31.9083 109.38C32.3616 109.113 32.7349 108.713 33.0283 108.18C33.3216 107.633 33.4683 106.933 33.4683 106.08C33.4683 105.227 33.3216 104.533 33.0283 104C32.7349 103.453 32.3616 103.053 31.9083 102.8C31.4549 102.533 30.9883 102.4 30.5083 102.4C30.0416 102.4 29.5749 102.533 29.1083 102.8C28.6549 103.053 28.2816 103.453 27.9883 104C27.6949 104.533 27.5483 105.227 27.5483 106.08C27.5483 106.933 27.6949 107.633 27.9883 108.18C28.2816 108.713 28.6549 109.113 29.1083 109.38C29.5749 109.633 30.0416 109.76 30.5083 109.76ZM41.5434 111.24C40.9701 111.24 40.4034 111.14 39.8434 110.94C39.2834 110.74 38.7701 110.433 38.3034 110.02C37.8501 109.593 37.4834 109.053 37.2034 108.4C36.9234 107.747 36.7834 106.973 36.7834 106.08C36.7834 105.187 36.9234 104.413 37.2034 103.76C37.4834 103.107 37.8501 102.573 38.3034 102.16C38.7701 101.733 39.2834 101.42 39.8434 101.22C40.4034 101.02 40.9701 100.92 41.5434 100.92C42.1168 100.92 42.6834 101.02 43.2434 101.22C43.8168 101.42 44.3301 101.733 44.7834 102.16C45.2501 102.573 45.6168 103.107 45.8834 103.76C46.1634 104.413 46.3034 105.187 46.3034 106.08C46.3034 106.973 46.1634 107.747 45.8834 108.4C45.6168 109.053 45.2501 109.593 44.7834 110.02C44.3301 110.433 43.8168 110.74 43.2434 110.94C42.6834 111.14 42.1168 111.24 41.5434 111.24ZM41.5434 109.76C42.0234 109.76 42.4901 109.633 42.9434 109.38C43.3968 109.113 43.7701 108.713 44.0634 108.18C44.3568 107.633 44.5034 106.933 44.5034 106.08C44.5034 105.227 44.3568 104.533 44.0634 104C43.7701 103.453 43.3968 103.053 42.9434 102.8C42.4901 102.533 42.0234 102.4 41.5434 102.4C41.0768 102.4 40.6101 102.533 40.1434 102.8C39.6901 103.053 39.3168 103.453 39.0234 104C38.7301 104.533 38.5834 105.227 38.5834 106.08C38.5834 106.933 38.7301 107.633 39.0234 108.18C39.3168 108.713 39.6901 109.113 40.1434 109.38C40.6101 109.633 41.0768 109.76 41.5434 109.76ZM51.4786 111C50.8519 111 50.3653 110.94 50.0186 110.82C49.6853 110.687 49.4519 110.44 49.3186 110.08C49.1986 109.72 49.1386 109.2 49.1386 108.52V102.42H47.4586V101.08H49.1386V98.58H50.8186V101.08H52.7386V102.42H50.8186V108.24C50.8186 108.747 50.8653 109.087 50.9586 109.26C51.0653 109.433 51.3586 109.52 51.8386 109.52H52.7386V111H51.4786ZM59.843 111.24C59.0696 111.24 58.4163 111.087 57.883 110.78C57.3496 110.46 56.9296 110.033 56.623 109.5L56.183 111H54.943V97.64H56.623V102.64C56.9296 102.12 57.3496 101.707 57.883 101.4C58.4163 101.08 59.0696 100.92 59.843 100.92C60.603 100.92 61.303 101.127 61.943 101.54C62.5963 101.94 63.1163 102.527 63.503 103.3C63.903 104.06 64.103 104.987 64.103 106.08C64.103 107.173 63.903 108.107 63.503 108.88C63.1163 109.64 62.5963 110.227 61.943 110.64C61.303 111.04 60.603 111.24 59.843 111.24ZM59.403 109.8C60.2563 109.8 60.9363 109.473 61.443 108.82C61.963 108.167 62.223 107.253 62.223 106.08C62.223 104.893 61.963 103.98 61.443 103.34C60.9363 102.687 60.2563 102.36 59.403 102.36C58.5496 102.36 57.863 102.687 57.343 103.34C56.8363 103.98 56.583 104.893 56.583 106.08C56.583 107.253 56.8363 108.167 57.343 108.82C57.863 109.473 58.5496 109.8 59.403 109.8ZM69.0511 111.24C68.4244 111.24 67.8511 111.127 67.3311 110.9C66.8111 110.673 66.3978 110.347 66.0911 109.92C65.7844 109.493 65.6311 108.98 65.6311 108.38C65.6311 107.593 65.9044 106.973 66.4511 106.52C67.0111 106.067 67.7911 105.72 68.7911 105.48C69.8044 105.227 70.9844 105.027 72.3311 104.88C72.3578 104.04 72.1911 103.393 71.8311 102.94C71.4711 102.487 70.8911 102.26 70.0911 102.26C69.4911 102.26 68.9978 102.4 68.6111 102.68C68.2378 102.947 67.9978 103.32 67.8911 103.8L66.2711 103.32C66.5378 102.56 67.0111 101.973 67.6911 101.56C68.3844 101.133 69.1778 100.92 70.0711 100.92C71.4444 100.92 72.4444 101.247 73.0711 101.9C73.7111 102.54 74.0311 103.553 74.0311 104.94V107.26C74.0311 108.087 74.0644 108.8 74.1311 109.4C74.1978 110 74.2778 110.533 74.3711 111H72.8311L72.4311 109.64C72.1378 110.133 71.7178 110.527 71.1711 110.82C70.6244 111.1 69.9178 111.24 69.0511 111.24ZM69.4111 109.9C69.9311 109.9 70.4244 109.807 70.8911 109.62C71.3578 109.433 71.7378 109.12 72.0311 108.68C72.3244 108.227 72.4711 107.613 72.4711 106.84V106.22C71.4578 106.327 70.5778 106.46 69.8311 106.62C69.0844 106.767 68.5044 106.98 68.0911 107.26C67.6911 107.527 67.4911 107.887 67.4911 108.34C67.4911 108.807 67.6578 109.187 67.9911 109.48C68.3378 109.76 68.8111 109.9 69.4111 109.9ZM79.1384 111C78.5118 111 78.0251 110.94 77.6784 110.82C77.3451 110.687 77.1118 110.44 76.9784 110.08C76.8584 109.72 76.7984 109.2 76.7984 108.52V97.66H78.4784V108.24C78.4784 108.747 78.5318 109.087 78.6384 109.26C78.7451 109.433 79.0318 109.52 79.4984 109.52H79.8784V111H79.1384ZM83.9236 111C83.2969 111 82.8103 110.94 82.4636 110.82C82.1303 110.687 81.8969 110.44 81.7636 110.08C81.6436 109.72 81.5836 109.2 81.5836 108.52V97.66H83.2636V108.24C83.2636 108.747 83.3169 109.087 83.4236 109.26C83.5303 109.433 83.8169 109.52 84.2836 109.52H84.6636V111H83.9236Z" fill="#54514C"/>
</svg>
