<svg width="20" height="20" viewBox="0 0 20 20" fill="none" xmlns="http://www.w3.org/2000/svg">
<g clip-path="url(#clip0_1343_1685)">
<path d="M9.84485 1.23065C8.14109 1.23065 6.47558 1.73588 5.05896 2.68244C3.64233 3.629 2.5382 4.97438 1.8862 6.54845C1.2342 8.12252 1.06361 9.85458 1.396 11.5256C1.72838 13.1966 2.54882 14.7316 3.75356 15.9363C4.95831 17.1411 6.49324 17.9615 8.16427 18.2939C9.83529 18.6263 11.5674 18.4557 13.1414 17.8037C14.7155 17.1517 16.0609 16.0475 17.0074 14.6309C17.954 13.2143 18.4592 11.5488 18.4592 9.84503C18.4592 7.56035 17.5516 5.36925 15.9361 3.75374C14.3206 2.13824 12.1295 1.23065 9.84485 1.23065ZM9.84485 17.2288C8.38448 17.2288 6.95691 16.7957 5.74266 15.9844C4.5284 15.1731 3.58201 14.0199 3.02315 12.6707C2.46429 11.3215 2.31807 9.83684 2.60297 8.40453C2.88788 6.97222 3.59111 5.65656 4.62375 4.62393C5.65638 3.59129 6.97204 2.88806 8.40435 2.60315C9.83666 2.31825 11.3213 2.46447 12.6705 3.02333C14.0197 3.58219 15.1729 4.52858 15.9842 5.74284C16.7955 6.95709 17.2286 8.38466 17.2286 9.84503C17.2286 11.8033 16.4507 13.6814 15.0659 15.0661C13.6812 16.4508 11.8031 17.2288 9.84485 17.2288Z" fill="black"/>
<path d="M9.84484 15.3828C10.3546 15.3828 10.7678 14.9696 10.7678 14.4598C10.7678 13.9501 10.3546 13.5369 9.84484 13.5369C9.3351 13.5369 8.92188 13.9501 8.92188 14.4598C8.92188 14.9696 9.3351 15.3828 9.84484 15.3828Z" fill="black"/>
<path d="M10.4614 4.92249H9.53844C9.1746 4.92168 8.81418 4.99275 8.47787 5.13161C8.14157 5.27047 7.836 5.4744 7.57872 5.73168C7.32144 5.98896 7.11752 6.29452 6.97866 6.63083C6.83979 6.96713 6.76873 7.32755 6.76954 7.6914V7.99905H8.00016V7.6914C8.00016 7.28342 8.16223 6.89215 8.45072 6.60367C8.7392 6.31519 9.13047 6.15312 9.53844 6.15312H10.4614C10.8694 6.15312 11.2607 6.31519 11.5491 6.60367C11.8376 6.89215 11.9997 7.28342 11.9997 7.6914C11.9997 8.09938 11.8376 8.49064 11.5491 8.77913C11.2607 9.06761 10.8694 9.22968 10.4614 9.22968H9.23079V11.9986H10.4614V10.4603C11.1958 10.4603 11.9001 10.1686 12.4193 9.64931C12.9386 9.13004 13.2303 8.42576 13.2303 7.6914C13.2303 6.95704 12.9386 6.25276 12.4193 5.73349C11.9001 5.21422 11.1958 4.92249 10.4614 4.92249Z" fill="black"/>
</g>
<defs>
<clipPath id="clip0_1343_1685">
<rect width="19.69" height="19.69" fill="white"/>
</clipPath>
</defs>
</svg>
