<svg width="62" height="62" viewBox="0 0 62 62" fill="none" xmlns="http://www.w3.org/2000/svg">
<rect x="0.803922" y="0.803922" width="60.2941" height="59.4902" rx="11.2549" stroke="#D7D5CE" stroke-width="1.60784"/>
<path d="M25.2909 47.8028V33.9217C25.2909 32.8712 25.2909 32.3459 25.4953 31.9447C25.6752 31.5917 25.9621 31.3047 26.3151 31.1249C26.7164 30.9204 27.2416 30.9204 28.2922 30.9204H33.5445C34.595 30.9204 35.1203 30.9204 35.5216 31.1249C35.8745 31.3047 36.1615 31.5917 36.3413 31.9447C36.5458 32.3459 36.5458 32.8712 36.5458 33.9217V47.8028M12.1602 26.2309L29.1175 13.5129C29.7633 13.0285 30.0862 12.7864 30.4408 12.693C30.7538 12.6106 31.0828 12.6106 31.3959 12.693C31.7505 12.7864 32.0734 13.0285 32.7191 13.5129L49.6765 26.2309M15.9118 23.4172V41.8002C15.9118 43.9013 15.9118 44.9519 16.3207 45.7544C16.6804 46.4603 17.2543 47.0342 17.9602 47.3939C18.7627 47.8028 19.8133 47.8028 21.9144 47.8028H39.9223C42.0234 47.8028 43.0739 47.8028 43.8764 47.3939C44.5824 47.0342 45.1563 46.4603 45.516 45.7544C45.9249 44.9519 45.9249 43.9013 45.9249 41.8002V23.4172L34.5199 14.8634C33.2284 13.8948 32.5826 13.4105 31.8734 13.2238C31.2473 13.059 30.5893 13.059 29.9633 13.2238C29.2541 13.4105 28.6083 13.8948 27.3168 14.8634L15.9118 23.4172Z" stroke="#54514C" stroke-width="1.62233" stroke-linecap="round" stroke-linejoin="round"/>
</svg>
