<svg width="20" height="20" viewBox="0 0 20 20" fill="none" xmlns="http://www.w3.org/2000/svg">
<g clip-path="url(#clip0_1343_1707)">
<path d="M17.2286 3.69187V15.9981H2.46109V3.69187H17.2286ZM17.2286 2.46124H2.46109C2.13471 2.46124 1.8217 2.5909 1.59091 2.82168C1.36012 3.05247 1.23047 3.36549 1.23047 3.69187V15.9981C1.23047 16.3245 1.36012 16.6375 1.59091 16.8683C1.8217 17.0991 2.13471 17.2287 2.46109 17.2287H17.2286C17.555 17.2287 17.868 17.0991 18.0988 16.8683C18.3296 16.6375 18.4592 16.3245 18.4592 15.9981V3.69187C18.4592 3.36549 18.3296 3.05247 18.0988 2.82168C17.868 2.5909 17.555 2.46124 17.2286 2.46124Z" fill="black"/>
<path d="M7.99859 6.15314H3.69141V7.38376H7.99859V6.15314Z" fill="black"/>
<path d="M6.15266 8.61438H3.69141V9.845H6.15266V8.61438Z" fill="black"/>
<path d="M14.1511 11.0756H10.4592C9.96965 11.0756 9.50012 11.2701 9.15394 11.6163C8.80776 11.9625 8.61328 12.432 8.61328 12.9216V14.1522H9.84391V12.9216C9.84391 12.7584 9.90873 12.6019 10.0241 12.4865C10.1395 12.3711 10.296 12.3062 10.4592 12.3062H14.1511C14.3143 12.3062 14.4708 12.3711 14.5862 12.4865C14.7016 12.6019 14.7664 12.7584 14.7664 12.9216V14.1522H15.997V12.9216C15.997 12.432 15.8025 11.9625 15.4564 11.6163C15.1102 11.2701 14.6407 11.0756 14.1511 11.0756Z" fill="black"/>
<path d="M12.305 10.4603C12.7918 10.4603 13.2676 10.316 13.6724 10.0455C14.0771 9.7751 14.3926 9.39071 14.5789 8.94097C14.7652 8.49124 14.8139 7.99636 14.719 7.51893C14.624 7.04149 14.3896 6.60294 14.0454 6.25873C13.7012 5.91451 13.2626 5.6801 12.7852 5.58514C12.3077 5.49017 11.8129 5.53891 11.3631 5.72519C10.9134 5.91148 10.529 6.22695 10.2585 6.6317C9.9881 7.03645 9.84375 7.5123 9.84375 7.99909C9.84375 8.65186 10.1031 9.27789 10.5646 9.73946C11.0262 10.201 11.6522 10.4603 12.305 10.4603ZM12.305 6.76847C12.5484 6.76847 12.7863 6.84064 12.9887 6.97587C13.1911 7.11109 13.3488 7.30329 13.4419 7.52815C13.5351 7.75302 13.5595 8.00046 13.512 8.23918C13.4645 8.47789 13.3473 8.69717 13.1752 8.86928C13.0031 9.04138 12.7838 9.15859 12.5451 9.20607C12.3064 9.25356 12.0589 9.22919 11.8341 9.13604C11.6092 9.0429 11.417 8.88517 11.2818 8.68279C11.1466 8.48042 11.0744 8.24249 11.0744 7.99909C11.0744 7.67271 11.204 7.3597 11.4348 7.12891C11.6656 6.89812 11.9786 6.76847 12.305 6.76847Z" fill="black"/>
</g>
<defs>
<clipPath id="clip0_1343_1707">
<rect width="19.69" height="19.69" fill="white"/>
</clipPath>
</defs>
</svg>
