<svg width="20" height="20" viewBox="0 0 20 20" fill="none" xmlns="http://www.w3.org/2000/svg">
<g clip-path="url(#clip0_1343_1702)">
<path d="M10.4594 13.5369V8.61438H7.99813V9.845H9.22875V13.5369H7.38281V14.7675H12.3053V13.5369H10.4594Z" fill="black"/>
<path d="M9.84484 4.92249C9.6623 4.92249 9.48385 4.97662 9.33207 5.07803C9.18029 5.17945 9.06199 5.3236 8.99213 5.49225C8.92227 5.6609 8.904 5.84648 8.93961 6.02552C8.97522 6.20456 9.06313 6.36901 9.19221 6.49809C9.32129 6.62717 9.48574 6.71508 9.66478 6.75069C9.84382 6.7863 10.0294 6.76802 10.198 6.69817C10.3667 6.62831 10.5108 6.51001 10.6123 6.35823C10.7137 6.20645 10.7678 6.028 10.7678 5.84545C10.7678 5.60067 10.6706 5.36591 10.4975 5.19282C10.3244 5.01973 10.0896 4.92249 9.84484 4.92249Z" fill="black"/>
<path d="M9.84485 18.4593C8.14109 18.4593 6.47558 17.9541 5.05896 17.0076C3.64233 16.061 2.5382 14.7156 1.8862 13.1415C1.2342 11.5675 1.06361 9.83541 1.396 8.16439C1.72838 6.49336 2.54882 4.95843 3.75356 3.75369C4.95831 2.54894 6.49324 1.72851 8.16427 1.39612C9.83529 1.06373 11.5674 1.23432 13.1414 1.88632C14.7155 2.53833 16.0609 3.64245 17.0074 5.05908C17.954 6.47571 18.4592 8.14121 18.4592 9.84497C18.4592 12.1296 17.5516 14.3207 15.9361 15.9363C14.3206 17.5518 12.1295 18.4593 9.84485 18.4593ZM9.84485 2.46122C8.38448 2.46122 6.95691 2.89427 5.74266 3.70561C4.5284 4.51694 3.58201 5.67013 3.02315 7.01933C2.46429 8.36854 2.31807 9.85316 2.60297 11.2855C2.88788 12.7178 3.59111 14.0334 4.62375 15.0661C5.65638 16.0987 6.97204 16.8019 8.40435 17.0868C9.83666 17.3717 11.3213 17.2255 12.6705 16.6667C14.0197 16.1078 15.1729 15.1614 15.9842 13.9472C16.7955 12.7329 17.2286 11.3053 17.2286 9.84497C17.2286 7.88668 16.4507 6.00859 15.0659 4.62387C13.6812 3.23915 11.8031 2.46122 9.84485 2.46122Z" fill="black"/>
</g>
<defs>
<clipPath id="clip0_1343_1702">
<rect width="19.69" height="19.69" fill="white"/>
</clipPath>
</defs>
</svg>
