<svg width="20" height="20" viewBox="0 0 20 20" fill="none" xmlns="http://www.w3.org/2000/svg">
<rect width="19.6923" height="19.6923" fill="white" fill-opacity="0.01" style="mix-blend-mode:multiply"/>
<path d="M9.84585 1.23077C5.04585 1.23077 1.23047 5.04616 1.23047 9.84616C1.23047 14.6462 5.04585 18.4615 9.84585 18.4615C14.6459 18.4615 18.4612 14.6462 18.4612 9.84616C18.4612 5.04616 14.6459 1.23077 9.84585 1.23077ZM9.84585 17.2308C5.78432 17.2308 2.46124 13.9077 2.46124 9.84616C2.46124 5.78462 5.78432 2.46154 9.84585 2.46154C13.9074 2.46154 17.2305 5.78462 17.2305 9.84616C17.2305 13.9077 13.9074 17.2308 9.84585 17.2308Z" fill="#161616"/>
<path d="M13.1689 14.1539L9.84585 10.8308L6.52278 14.1539L5.53816 13.1692L8.86124 9.84616L5.53816 6.52308L6.52278 5.53847L9.84585 8.86154L13.1689 5.53847L14.1535 6.52308L10.8305 9.84616L14.1535 13.1692L13.1689 14.1539Z" fill="#161616"/>
</svg>
