<svg width="99" height="127" viewBox="0 0 99 127" fill="none" xmlns="http://www.w3.org/2000/svg">
<rect x="11" y="10" width="77" height="76" rx="15" fill="#F2EFE6"/>
<path d="M43.2454 56.794C44.2028 55.8366 52.596 53.1974 57.631 52.4781M43.2454 56.794C44.2028 55.8366 46.8418 47.4429 47.5611 42.4077M43.2454 56.794L41.086 58.9505M55.4912 30.1607L69.8768 44.5471M49.737 35.9152L64.1226 50.3016M70.2359 34.8358L54.4117 50.6608M65.2009 29.8005L49.3767 45.6255M67.7005 48.1623C62.5363 53.3268 54.8075 53.9709 50.4377 49.6009C46.068 45.231 46.7121 37.5018 51.8763 32.3373C57.0405 27.1728 64.7693 26.5287 69.139 30.8987C73.5088 35.2686 72.8647 42.9978 67.7005 48.1623ZM38.4191 59.3162L37.4121 59.4601C36.5405 59.5846 35.7329 59.9884 35.1104 60.611L29.5959 66.1258C28.8014 66.9203 28.8014 68.2085 29.5959 69.003L31.0344 70.4417C31.8289 71.2362 33.1171 71.2362 33.9116 70.4417L39.426 64.9269C40.0486 64.3043 40.4524 63.4967 40.5769 62.6251L40.7208 61.618C40.9126 60.2753 39.7617 59.1244 38.4191 59.3162Z" stroke="#54514C" stroke-width="2.22514" stroke-linecap="round" stroke-linejoin="round"/>
<path d="M26.6059 110.98V97.64H30.7859C31.8793 97.64 32.8393 97.7467 33.6659 97.96C34.5059 98.1733 35.1593 98.5733 35.6259 99.16C36.1059 99.7333 36.3459 100.573 36.3459 101.68C36.3459 102.773 36.1059 103.613 35.6259 104.2C35.1593 104.773 34.5059 105.167 33.6659 105.38C32.8393 105.58 31.8793 105.68 30.7859 105.68H28.4859V110.98H26.6059ZM28.4859 104.06H30.9459C31.5993 104.06 32.1859 104.013 32.7059 103.92C33.2259 103.827 33.6393 103.613 33.9459 103.28C34.2659 102.933 34.4259 102.4 34.4259 101.68C34.4259 100.947 34.2659 100.407 33.9459 100.06C33.6393 99.7133 33.2259 99.4867 32.7059 99.38C32.1859 99.2733 31.5993 99.22 30.9459 99.22H28.4859V104.06ZM40.7113 111.24C40.0846 111.24 39.5113 111.127 38.9913 110.9C38.4713 110.673 38.0579 110.347 37.7513 109.92C37.4446 109.493 37.2913 108.98 37.2913 108.38C37.2913 107.593 37.5646 106.973 38.1113 106.52C38.6713 106.067 39.4513 105.72 40.4513 105.48C41.4646 105.227 42.6446 105.027 43.9913 104.88C44.0179 104.04 43.8513 103.393 43.4913 102.94C43.1313 102.487 42.5513 102.26 41.7513 102.26C41.1513 102.26 40.6579 102.4 40.2713 102.68C39.8979 102.947 39.6579 103.32 39.5513 103.8L37.9313 103.32C38.1979 102.56 38.6713 101.973 39.3513 101.56C40.0446 101.133 40.8379 100.92 41.7313 100.92C43.1046 100.92 44.1046 101.247 44.7313 101.9C45.3713 102.54 45.6913 103.553 45.6913 104.94V107.26C45.6913 108.087 45.7246 108.8 45.7913 109.4C45.8579 110 45.9379 110.533 46.0313 111H44.4913L44.0913 109.64C43.7979 110.133 43.3779 110.527 42.8313 110.82C42.2846 111.1 41.5779 111.24 40.7113 111.24ZM41.0713 109.9C41.5913 109.9 42.0846 109.807 42.5513 109.62C43.0179 109.433 43.3979 109.12 43.6913 108.68C43.9846 108.227 44.1313 107.613 44.1313 106.84V106.22C43.1179 106.327 42.2379 106.46 41.4913 106.62C40.7446 106.767 40.1646 106.98 39.7513 107.26C39.3513 107.527 39.1513 107.887 39.1513 108.34C39.1513 108.807 39.3179 109.187 39.6513 109.48C39.9979 109.76 40.4713 109.9 41.0713 109.9ZM52.0786 111.24C51.3319 111.24 50.6319 111.04 49.9786 110.64C49.3253 110.227 48.7986 109.64 48.3986 108.88C48.0119 108.107 47.8186 107.173 47.8186 106.08C47.8186 104.987 48.0119 104.06 48.3986 103.3C48.7986 102.527 49.3253 101.94 49.9786 101.54C50.6319 101.127 51.3319 100.92 52.0786 100.92C52.8653 100.92 53.5253 101.08 54.0586 101.4C54.5919 101.707 55.0053 102.12 55.2986 102.64V97.64H56.9786V107.26C56.9786 107.593 56.9919 108.087 57.0186 108.74C57.0453 109.38 57.1453 110.133 57.3186 111H55.7386L55.2986 109.5C55.0053 110.033 54.5919 110.46 54.0586 110.78C53.5253 111.087 52.8653 111.24 52.0786 111.24ZM52.5186 109.8C53.3719 109.8 54.0519 109.473 54.5586 108.82C55.0786 108.167 55.3386 107.253 55.3386 106.08C55.3386 104.893 55.0786 103.98 54.5586 103.34C54.0519 102.687 53.3719 102.36 52.5186 102.36C51.6653 102.36 50.9786 102.687 50.4586 103.34C49.9519 103.98 49.6986 104.893 49.6986 106.08C49.6986 107.253 49.9519 108.167 50.4586 108.82C50.9786 109.473 51.6653 109.8 52.5186 109.8ZM63.9677 111.24C62.9277 111.24 62.0477 111.013 61.3277 110.56C60.6077 110.093 60.0543 109.473 59.6677 108.7C59.2943 107.913 59.1077 107.033 59.1077 106.06C59.1077 105.007 59.321 104.1 59.7477 103.34C60.1743 102.567 60.7477 101.973 61.4677 101.56C62.201 101.133 63.021 100.92 63.9277 100.92C64.7143 100.92 65.4077 101.08 66.0077 101.4C66.6077 101.707 67.101 102.127 67.4877 102.66C67.8877 103.18 68.1743 103.773 68.3477 104.44C68.5343 105.107 68.601 105.793 68.5477 106.5H60.9077C60.9343 107.327 61.1143 107.98 61.4477 108.46C61.7943 108.94 62.201 109.28 62.6677 109.48C63.1343 109.667 63.5677 109.76 63.9677 109.76C64.5277 109.76 64.9943 109.673 65.3677 109.5C65.7543 109.313 66.061 109.073 66.2877 108.78L67.9077 109.26C67.5477 109.833 67.0343 110.307 66.3677 110.68C65.701 111.053 64.901 111.24 63.9677 111.24ZM60.9277 105.16H66.7677C66.7677 104.693 66.6477 104.247 66.4077 103.82C66.181 103.393 65.8543 103.047 65.4277 102.78C65.0143 102.5 64.5143 102.36 63.9277 102.36C63.4343 102.36 62.9677 102.453 62.5277 102.64C62.0877 102.827 61.721 103.127 61.4277 103.54C61.1477 103.953 60.981 104.493 60.9277 105.16ZM72.8689 111C72.2422 111 71.7556 110.94 71.4089 110.82C71.0756 110.687 70.8422 110.44 70.7089 110.08C70.5889 109.72 70.5289 109.2 70.5289 108.52V97.66H72.2089V108.24C72.2089 108.747 72.2622 109.087 72.3689 109.26C72.4756 109.433 72.7622 109.52 73.2289 109.52H73.6089V111H72.8689Z" fill="#54514C"/>
</svg>
