<svg width="17" height="17" viewBox="0 0 17 17" fill="none" xmlns="http://www.w3.org/2000/svg">
<path d="M12.65 6.69532L9.54578 3.59108M0.621094 15.62L3.24756 15.3282C3.56845 15.2925 3.7289 15.2747 3.87887 15.2261C4.01192 15.1831 4.13854 15.1222 4.25529 15.0452C4.38688 14.9584 4.50103 14.8443 4.72933 14.616L14.9782 4.36714C15.8354 3.50993 15.8354 2.12012 14.9782 1.2629C14.121 0.405693 12.7312 0.405692 11.874 1.2629L1.6251 11.5118C1.3968 11.7401 1.28265 11.8542 1.19587 11.9858C1.11888 12.1025 1.05803 12.2292 1.01495 12.3622C0.966405 12.5122 0.948578 12.6726 0.912923 12.9935L0.621094 15.62Z" stroke="#161616" stroke-width="1.24" stroke-linecap="round" stroke-linejoin="round"/>
</svg>
