<svg width="62" height="62" viewBox="0 0 62 62" fill="none" xmlns="http://www.w3.org/2000/svg">
<rect x="0.803922" y="0.803922" width="60.2941" height="59.4902" rx="11.2549" stroke="#D7D5CE" stroke-width="1.60784"/>
<path d="M30.9189 36.5479C24.9724 36.5479 19.6843 39.4191 16.3175 43.8748C15.5929 44.8338 15.2306 45.3132 15.2425 45.9613C15.2516 46.4619 15.566 47.0935 15.9599 47.4027C16.4698 47.8028 17.1764 47.8028 18.5896 47.8028H43.2482C44.6614 47.8028 45.368 47.8028 45.8779 47.4027C46.2718 47.0935 46.5862 46.4619 46.5953 45.9613C46.6072 45.3132 46.2449 44.8338 45.5203 43.8748C42.1536 39.4191 36.8654 36.5479 30.9189 36.5479Z" stroke="#54514C" stroke-width="1.62233" stroke-linecap="round" stroke-linejoin="round"/>
<path d="M30.9189 30.9204C35.5808 30.9204 39.3601 27.1412 39.3601 22.4793C39.3601 17.8173 35.5808 14.0381 30.9189 14.0381C26.257 14.0381 22.4777 17.8173 22.4777 22.4793C22.4777 27.1412 26.257 30.9204 30.9189 30.9204Z" stroke="#54514C" stroke-width="1.62233" stroke-linecap="round" stroke-linejoin="round"/>
</svg>
