<svg width="20" height="20" viewBox="0 0 20 20" fill="none" xmlns="http://www.w3.org/2000/svg">
<rect width="19.69" height="19.69" fill="white" fill-opacity="0.01" style="mix-blend-mode:multiply"/>
<path d="M9.84646 4.01186L11.5447 7.44531L11.8278 8.06062L12.4431 8.15292L16.2334 8.70055L13.5383 11.3464L13.0769 11.7956L13.1876 12.4109L13.8337 16.1827L10.4433 14.4045L9.84646 14.1522L9.27422 14.4537L5.88385 16.2074L6.49916 12.4355L6.60992 11.8202L6.15459 11.3464L3.43491 8.66978L7.22523 8.12215L7.84054 8.02986L8.12359 7.41454L9.84646 4.01186ZM9.84646 1.23065L7.04679 6.90383L0.789062 7.80834L5.31776 12.2263L4.24712 18.4594L9.84646 15.5182L15.4458 18.4594L14.3752 12.2263L18.9039 7.8145L12.6461 6.90383L9.84646 1.23065Z" fill="#161616"/>
</svg>
