<svg width="62" height="62" viewBox="0 0 62 62" fill="none" xmlns="http://www.w3.org/2000/svg">
<rect x="0.803922" y="0.803922" width="60.2941" height="59.4902" rx="11.2549" stroke="#D7D5CE" stroke-width="1.60784"/>
<path d="M29.5737 14.8883C30.0061 14.0124 30.2222 13.5745 30.5157 13.4346C30.771 13.3128 31.0677 13.3128 31.323 13.4346C31.6165 13.5745 31.8327 14.0124 32.265 14.8883L36.3668 23.1981C36.4944 23.4567 36.5583 23.586 36.6515 23.6864C36.7341 23.7753 36.8332 23.8473 36.9432 23.8985C37.0674 23.9562 37.2101 23.9771 37.4954 24.0188L46.6705 25.3599C47.6367 25.5011 48.1198 25.5717 48.3434 25.8077C48.5379 26.013 48.6294 26.2951 48.5923 26.5755C48.5498 26.8978 48.2 27.2385 47.5006 27.9198L40.8639 34.3839C40.657 34.5854 40.5535 34.6861 40.4868 34.806C40.4277 34.9122 40.3898 35.0288 40.3752 35.1494C40.3586 35.2856 40.383 35.4279 40.4319 35.7126L41.9978 44.8429C42.163 45.8059 42.2456 46.2874 42.0904 46.5731C41.9553 46.8217 41.7153 46.9961 41.4371 47.0476C41.1174 47.1069 40.685 46.8795 39.8203 46.4247L31.6178 42.1112C31.3623 41.9768 31.2345 41.9096 31.0999 41.8831C30.9807 41.8598 30.8581 41.8598 30.7389 41.8831C30.6042 41.9096 30.4764 41.9768 30.2209 42.1112L22.0184 46.4247C21.1537 46.8795 20.7213 47.1069 20.4016 47.0476C20.1234 46.9961 19.8834 46.8217 19.7483 46.5731C19.5931 46.2874 19.6757 45.8059 19.8409 44.8429L21.4068 35.7126C21.4557 35.4279 21.4801 35.2856 21.4636 35.1494C21.4489 35.0288 21.411 34.9122 21.3519 34.806C21.2852 34.6861 21.1817 34.5854 20.9748 34.3839L14.3381 27.9198C13.6387 27.2385 13.2889 26.8978 13.2464 26.5755C13.2093 26.2951 13.3008 26.013 13.4953 25.8077C13.7189 25.5717 14.202 25.5011 15.1682 25.3599L24.3433 24.0188C24.6286 23.9771 24.7713 23.9562 24.8955 23.8985C25.0056 23.8473 25.1046 23.7753 25.1872 23.6864C25.2804 23.586 25.3443 23.4567 25.4719 23.1981L29.5737 14.8883Z" stroke="#54514C" stroke-width="1.62233" stroke-linecap="round" stroke-linejoin="round"/>
</svg>
