<svg width="99" height="127" viewBox="0 0 99 127" fill="none" xmlns="http://www.w3.org/2000/svg">
<rect x="11" y="10" width="77" height="76" rx="15" fill="#F2EFE6"/>
<path d="M29 60.8677L32.4115 58.3781C34.4332 56.9027 37.2129 56.9027 39.2345 58.3781C41.2562 59.8534 44.0359 59.8534 46.0576 58.3781C48.0792 56.9027 50.859 56.9027 52.8806 58.3781C54.9022 59.8534 57.682 59.8534 59.7036 58.3781C61.7253 56.9027 64.505 56.9027 66.5267 58.3781L69.9382 60.8677M29 67.8388L32.4115 65.3491C34.4332 63.8738 37.2129 63.8738 39.2345 65.3491C41.2562 66.8245 44.0359 66.8245 46.0576 65.3491C48.0792 63.8738 50.859 63.8738 52.8806 65.3491C54.9022 66.8245 57.682 66.8245 59.7036 65.3491C61.7253 63.8738 64.505 63.8738 66.5267 65.3491L69.9382 67.8388M39.2345 57.8801V36.3546C39.2345 33.1156 41.2612 30.2029 44.3518 29M59.7036 57.8801V36.3546C59.7036 33.1156 61.7302 30.2029 64.8209 29M39.2345 38.9587H59.7036M39.2345 48.9173H59.7036" stroke="#54514C" stroke-width="2.22514" stroke-linecap="round" stroke-linejoin="round"/>
<path d="M9.61922 111.24C8.88589 111.24 8.17255 111.127 7.47922 110.9C6.78589 110.673 6.17255 110.327 5.63922 109.86C5.11922 109.393 4.73922 108.8 4.49922 108.08L6.23922 107.56C6.39922 108.04 6.65922 108.44 7.01922 108.76C7.37922 109.067 7.79255 109.293 8.25922 109.44C8.73922 109.587 9.21922 109.66 9.69922 109.66C10.2326 109.66 10.7392 109.573 11.2192 109.4C11.6992 109.227 12.0859 108.967 12.3792 108.62C12.6859 108.26 12.8392 107.813 12.8392 107.28C12.8392 106.733 12.6392 106.3 12.2392 105.98C11.8392 105.66 11.1459 105.373 10.1592 105.12L8.45922 104.74C7.84589 104.58 7.23922 104.367 6.63922 104.1C6.05255 103.833 5.56589 103.453 5.17922 102.96C4.80589 102.467 4.61922 101.807 4.61922 100.98C4.61922 100.22 4.85255 99.5733 5.31922 99.04C5.79922 98.5067 6.41255 98.1 7.15922 97.82C7.91922 97.54 8.70589 97.4 9.51922 97.4C10.1459 97.4 10.7592 97.4933 11.3592 97.68C11.9726 97.8533 12.5192 98.1267 12.9992 98.5C13.4926 98.86 13.8792 99.3267 14.1592 99.9L12.4392 100.4C12.1859 99.9333 11.7726 99.58 11.1992 99.34C10.6392 99.1 10.0526 98.98 9.43922 98.98C8.95922 98.98 8.49922 99.06 8.05922 99.22C7.61922 99.3667 7.25922 99.5933 6.97922 99.9C6.69922 100.207 6.55922 100.593 6.55922 101.06C6.55922 101.5 6.68589 101.853 6.93922 102.12C7.20589 102.387 7.55255 102.6 7.97922 102.76C8.41922 102.907 8.89922 103.04 9.41922 103.16L10.8792 103.48C11.5592 103.64 12.1992 103.86 12.7992 104.14C13.3992 104.42 13.8859 104.813 14.2592 105.32C14.6326 105.827 14.8192 106.507 14.8192 107.36C14.8192 107.973 14.6726 108.527 14.3792 109.02C14.0859 109.5 13.6926 109.907 13.1992 110.24C12.7059 110.56 12.1459 110.807 11.5192 110.98C10.9059 111.153 10.2726 111.24 9.61922 111.24ZM18.4733 111L15.6133 101.08H17.4133L19.3133 108.42L21.2933 101.08H23.0333L24.9933 108.42L26.8933 101.08H28.6933L25.8533 111H24.3133L22.1533 103.02L19.9933 111H18.4733ZM31.8192 99.2C31.4859 99.2 31.1926 99.08 30.9392 98.84C30.6992 98.5867 30.5792 98.2867 30.5792 97.94C30.5792 97.5933 30.6992 97.3 30.9392 97.06C31.1926 96.82 31.4859 96.7 31.8192 96.7C32.1659 96.7 32.4592 96.82 32.6992 97.06C32.9526 97.3 33.0792 97.5933 33.0792 97.94C33.0792 98.2867 32.9526 98.5867 32.6992 98.84C32.4592 99.08 32.1659 99.2 31.8192 99.2ZM30.9792 111V102.42H29.5992V101.08H32.6592V111H30.9792ZM35.6656 111V101.08H36.9056L37.3456 102.58C37.6256 102.113 38.0056 101.72 38.4856 101.4C38.979 101.08 39.5923 100.92 40.3256 100.92C41.0856 100.92 41.699 101.073 42.1656 101.38C42.6323 101.687 42.9723 102.113 43.1856 102.66C43.5856 102.047 44.0656 101.607 44.6256 101.34C45.199 101.06 45.8323 100.92 46.5256 100.92C47.6723 100.92 48.4923 101.273 48.9856 101.98C49.479 102.673 49.7256 103.587 49.7256 104.72V111H48.0456V105.22C48.0456 104.713 47.9923 104.247 47.8856 103.82C47.7923 103.38 47.5923 103.027 47.2856 102.76C46.9923 102.493 46.539 102.36 45.9256 102.36C45.2056 102.36 44.6256 102.64 44.1856 103.2C43.759 103.747 43.5456 104.553 43.5456 105.62V111H41.8656V105.22C41.8656 104.713 41.8123 104.247 41.7056 103.82C41.6123 103.38 41.4123 103.027 41.1056 102.76C40.8123 102.493 40.359 102.36 39.7456 102.36C39.0256 102.36 38.4456 102.64 38.0056 103.2C37.5656 103.747 37.3456 104.553 37.3456 105.62V111H35.6656ZM52.482 111V101.08H53.722L54.162 102.58C54.442 102.113 54.822 101.72 55.302 101.4C55.7954 101.08 56.4087 100.92 57.142 100.92C57.902 100.92 58.5154 101.073 58.982 101.38C59.4487 101.687 59.7887 102.113 60.002 102.66C60.402 102.047 60.882 101.607 61.442 101.34C62.0154 101.06 62.6487 100.92 63.342 100.92C64.4887 100.92 65.3087 101.273 65.802 101.98C66.2954 102.673 66.542 103.587 66.542 104.72V111H64.862V105.22C64.862 104.713 64.8087 104.247 64.702 103.82C64.6087 103.38 64.4087 103.027 64.102 102.76C63.8087 102.493 63.3554 102.36 62.742 102.36C62.022 102.36 61.442 102.64 61.002 103.2C60.5754 103.747 60.362 104.553 60.362 105.62V111H58.682V105.22C58.682 104.713 58.6287 104.247 58.522 103.82C58.4287 103.38 58.2287 103.027 57.922 102.76C57.6287 102.493 57.1754 102.36 56.562 102.36C55.842 102.36 55.262 102.64 54.822 103.2C54.382 103.747 54.162 104.553 54.162 105.62V111H52.482ZM71.0184 99.2C70.6851 99.2 70.3918 99.08 70.1384 98.84C69.8984 98.5867 69.7784 98.2867 69.7784 97.94C69.7784 97.5933 69.8984 97.3 70.1384 97.06C70.3918 96.82 70.6851 96.7 71.0184 96.7C71.3651 96.7 71.6584 96.82 71.8984 97.06C72.1518 97.3 72.2784 97.5933 72.2784 97.94C72.2784 98.2867 72.1518 98.5867 71.8984 98.84C71.6584 99.08 71.3651 99.2 71.0184 99.2ZM70.1784 111V102.42H68.7984V101.08H71.8584V111H70.1784ZM74.8648 111V101.08H76.1048L76.5448 102.58C76.8248 102.113 77.2182 101.72 77.7248 101.4C78.2315 101.08 78.9048 100.92 79.7448 100.92C80.9448 100.92 81.7915 101.273 82.2848 101.98C82.7782 102.673 83.0248 103.587 83.0248 104.72V111H81.3448V105.22C81.3448 104.713 81.2982 104.247 81.2048 103.82C81.1115 103.38 80.9048 103.027 80.5848 102.76C80.2782 102.493 79.8048 102.36 79.1648 102.36C78.3515 102.36 77.7115 102.64 77.2448 103.2C76.7782 103.747 76.5448 104.553 76.5448 105.62V111H74.8648ZM89.5894 114.84C89.056 114.84 88.5227 114.76 87.9894 114.6C87.4694 114.453 87.0027 114.207 86.5894 113.86C86.1894 113.513 85.9027 113.067 85.7294 112.52L87.4094 112.06C87.596 112.58 87.9027 112.927 88.3294 113.1C88.756 113.273 89.176 113.36 89.5894 113.36C90.616 113.36 91.3094 113.113 91.6694 112.62C92.0427 112.127 92.2294 111.4 92.2294 110.44V109.12C91.9227 109.64 91.516 110.053 91.0094 110.36C90.5027 110.667 89.856 110.82 89.0694 110.82C88.336 110.82 87.6494 110.633 87.0094 110.26C86.3694 109.873 85.8494 109.313 85.4494 108.58C85.0627 107.833 84.8694 106.933 84.8694 105.88C84.8694 104.813 85.0627 103.913 85.4494 103.18C85.8494 102.447 86.3694 101.887 87.0094 101.5C87.6494 101.113 88.336 100.92 89.0694 100.92C89.856 100.92 90.5027 101.08 91.0094 101.4C91.516 101.707 91.9227 102.12 92.2294 102.64L92.6894 101.08H93.9094V110.06C93.9094 111.633 93.5894 112.82 92.9494 113.62C92.3227 114.433 91.2027 114.84 89.5894 114.84ZM89.4894 109.42C89.996 109.42 90.456 109.3 90.8694 109.06C91.296 108.82 91.636 108.44 91.8894 107.92C92.156 107.4 92.2894 106.72 92.2894 105.88C92.2894 105.04 92.156 104.36 91.8894 103.84C91.636 103.32 91.296 102.947 90.8694 102.72C90.456 102.48 89.996 102.36 89.4894 102.36C88.676 102.36 88.0027 102.667 87.4694 103.28C86.9494 103.88 86.6894 104.747 86.6894 105.88C86.6894 107.013 86.9494 107.887 87.4694 108.5C88.0027 109.113 88.676 109.42 89.4894 109.42Z" fill="#54514C"/>
</svg>
