<svg width="99" height="127" viewBox="0 0 99 127" fill="none" xmlns="http://www.w3.org/2000/svg">
<rect x="11" y="10" width="77" height="76" rx="15" fill="#F2EFE6"/>
<path d="M48.9548 28.0062C49.2905 29.2792 49.4691 30.6137 49.4691 31.9888C49.4691 40.8008 42.1376 47.9442 33.0938 47.9442C31.6825 47.9442 30.3129 47.7703 29.0063 47.4432M48.9548 28.0062C49.1257 28.0021 49.2972 28 49.4691 28C60.7739 28 69.9382 36.9293 69.9382 47.9442C69.9382 58.9591 60.7739 67.8885 49.4691 67.8885C38.1643 67.8885 29 58.9591 29 47.9442C29 47.7767 29.0021 47.6097 29.0063 47.4432M48.9548 28.0062C38.0586 28.268 29.275 36.8263 29.0063 47.4432M69.9382 48.4469C68.6297 48.1188 67.2579 47.9442 65.8444 47.9442C56.8005 47.9442 49.4691 55.0877 49.4691 63.8996C49.4691 65.277 49.6482 66.6136 49.985 67.8885" stroke="#54514C" stroke-width="2.22514" stroke-linecap="round" stroke-linejoin="round"/>
<path d="M25.6244 111V99.26H21.1844V97.64H31.9444V99.26H27.5044V111H25.6244ZM36.038 111.24C34.998 111.24 34.118 111.013 33.398 110.56C32.678 110.093 32.1246 109.473 31.738 108.7C31.3646 107.913 31.178 107.033 31.178 106.06C31.178 105.007 31.3913 104.1 31.818 103.34C32.2446 102.567 32.818 101.973 33.538 101.56C34.2713 101.133 35.0913 100.92 35.998 100.92C36.7846 100.92 37.478 101.08 38.078 101.4C38.678 101.707 39.1713 102.127 39.558 102.66C39.958 103.18 40.2446 103.773 40.418 104.44C40.6046 105.107 40.6713 105.793 40.618 106.5H32.978C33.0046 107.327 33.1846 107.98 33.518 108.46C33.8646 108.94 34.2713 109.28 34.738 109.48C35.2046 109.667 35.638 109.76 36.038 109.76C36.598 109.76 37.0646 109.673 37.438 109.5C37.8246 109.313 38.1313 109.073 38.358 108.78L39.978 109.26C39.618 109.833 39.1046 110.307 38.438 110.68C37.7713 111.053 36.9713 111.24 36.038 111.24ZM32.998 105.16H38.838C38.838 104.693 38.718 104.247 38.478 103.82C38.2513 103.393 37.9246 103.047 37.498 102.78C37.0846 102.5 36.5846 102.36 35.998 102.36C35.5046 102.36 35.038 102.453 34.598 102.64C34.158 102.827 33.7913 103.127 33.498 103.54C33.218 103.953 33.0513 104.493 32.998 105.16ZM42.5992 111V101.08H43.8392L44.2792 102.58C44.5592 102.113 44.9526 101.72 45.4592 101.4C45.9659 101.08 46.6392 100.92 47.4792 100.92C48.6792 100.92 49.5259 101.273 50.0192 101.98C50.5126 102.673 50.7592 103.587 50.7592 104.72V111H49.0792V105.22C49.0792 104.713 49.0326 104.247 48.9392 103.82C48.8459 103.38 48.6392 103.027 48.3192 102.76C48.0126 102.493 47.5392 102.36 46.8992 102.36C46.0859 102.36 45.4459 102.64 44.9792 103.2C44.5126 103.747 44.2792 104.553 44.2792 105.62V111H42.5992ZM53.5172 111V101.08H54.7572L55.1972 102.58C55.4772 102.113 55.8705 101.72 56.3772 101.4C56.8839 101.08 57.5572 100.92 58.3972 100.92C59.5972 100.92 60.4439 101.273 60.9372 101.98C61.4305 102.673 61.6772 103.587 61.6772 104.72V111H59.9972V105.22C59.9972 104.713 59.9505 104.247 59.8572 103.82C59.7639 103.38 59.5572 103.027 59.2372 102.76C58.9305 102.493 58.4572 102.36 57.8172 102.36C57.0039 102.36 56.3639 102.64 55.8972 103.2C55.4305 103.747 55.1972 104.553 55.1972 105.62V111H53.5172ZM66.1552 99.2C65.8218 99.2 65.5285 99.08 65.2752 98.84C65.0352 98.5867 64.9152 98.2867 64.9152 97.94C64.9152 97.5933 65.0352 97.3 65.2752 97.06C65.5285 96.82 65.8218 96.7 66.1552 96.7C66.5018 96.7 66.7952 96.82 67.0352 97.06C67.2885 97.3 67.4152 97.5933 67.4152 97.94C67.4152 98.2867 67.2885 98.5867 67.0352 98.84C66.7952 99.08 66.5018 99.2 66.1552 99.2ZM65.3152 111V102.42H63.9352V101.08H66.9952V111H65.3152ZM73.3816 111.24C72.8082 111.24 72.2416 111.153 71.6816 110.98C71.1349 110.793 70.6416 110.52 70.2016 110.16C69.7749 109.787 69.4482 109.32 69.2216 108.76L70.8416 108.16C70.9882 108.747 71.3082 109.173 71.8016 109.44C72.3082 109.693 72.8349 109.82 73.3816 109.82C73.7816 109.82 74.1549 109.76 74.5016 109.64C74.8616 109.52 75.1549 109.347 75.3816 109.12C75.6082 108.893 75.7216 108.633 75.7216 108.34C75.7216 107.793 75.5016 107.407 75.0616 107.18C74.6349 106.953 74.1216 106.78 73.5216 106.66L72.1416 106.38C71.6616 106.273 71.2149 106.127 70.8016 105.94C70.3882 105.74 70.0549 105.46 69.8016 105.1C69.5482 104.74 69.4216 104.26 69.4216 103.66C69.4216 103.06 69.6082 102.56 69.9816 102.16C70.3549 101.747 70.8282 101.433 71.4016 101.22C71.9882 101.007 72.6016 100.9 73.2416 100.9C74.0282 100.9 74.7682 101.067 75.4616 101.4C76.1682 101.72 76.6682 102.227 76.9616 102.92L75.3816 103.5C75.2082 103.1 74.9016 102.807 74.4616 102.62C74.0349 102.42 73.5882 102.32 73.1216 102.32C72.6149 102.32 72.1549 102.433 71.7416 102.66C71.3282 102.887 71.1216 103.213 71.1216 103.64C71.1216 104.067 71.2949 104.38 71.6416 104.58C72.0016 104.767 72.4416 104.913 72.9616 105.02L74.2616 105.28C74.7949 105.387 75.3016 105.54 75.7816 105.74C76.2616 105.94 76.6549 106.24 76.9616 106.64C77.2682 107.027 77.4216 107.573 77.4216 108.28C77.4216 108.907 77.2282 109.44 76.8416 109.88C76.4549 110.32 75.9549 110.66 75.3416 110.9C74.7282 111.127 74.0749 111.24 73.3816 111.24Z" fill="#54514C"/>
</svg>
