<svg width="21" height="21" viewBox="0 0 21 21" fill="none" xmlns="http://www.w3.org/2000/svg">
<path d="M13.9505 5.23083V4.5334C13.9505 3.55689 13.9505 3.06864 13.7605 2.69567C13.5933 2.36759 13.3266 2.10086 12.9985 1.93369C12.6255 1.74365 12.1373 1.74365 11.1608 1.74365H9.76591C8.7894 1.74365 8.30115 1.74365 7.92818 1.93369C7.6001 2.10086 7.33337 2.36759 7.1662 2.69567C6.97616 3.06864 6.97616 3.55689 6.97616 4.5334V5.23083M8.71975 10.0257V14.3847M12.2069 10.0257V14.3847M2.61719 5.23083H18.3095M16.5659 5.23083V14.9949C16.5659 16.4597 16.5659 17.1921 16.2808 17.7515C16.0301 18.2436 15.63 18.6437 15.1379 18.8945C14.5784 19.1795 13.846 19.1795 12.3813 19.1795H8.54539C7.08064 19.1795 6.34826 19.1795 5.7888 18.8945C5.29669 18.6437 4.89658 18.2436 4.64584 17.7515C4.36078 17.1921 4.36078 16.4597 4.36078 14.9949V5.23083" stroke="#161616" stroke-width="1.24186" stroke-linecap="round" stroke-linejoin="round"/>
</svg>
