<svg width="62" height="62" viewBox="0 0 62 62" fill="none" xmlns="http://www.w3.org/2000/svg">
<rect x="0.803922" y="0.803922" width="60.2941" height="59.4902" rx="11.2549" stroke="#D7D5CE" stroke-width="1.60784"/>
<path d="M42.7439 23.0458V13.6667M18.3583 47.4314V38.0523M38.0544 18.3563H47.4335M13.6688 42.7419H23.0479M20.2341 11.7909L18.7626 14.7339C18.2646 15.7299 18.0156 16.2279 17.683 16.6595C17.3878 17.0424 17.0445 17.3857 16.6616 17.6809C16.23 18.0136 15.732 18.2626 14.736 18.7606L11.793 20.2321L14.736 21.7036C15.732 22.2016 16.23 22.4506 16.6616 22.7832C17.0445 23.0784 17.3878 23.4217 17.683 23.8047C18.0156 24.2362 18.2646 24.7342 18.7626 25.7302L20.2341 28.6732L21.7056 25.7302C22.2037 24.7342 22.4527 24.2362 22.7853 23.8047C23.0805 23.4217 23.4238 23.0784 23.8067 22.7832C24.2383 22.4506 24.7363 22.2016 25.7323 21.7036L28.6753 20.2321L25.7323 18.7606C24.7363 18.2626 24.2383 18.0136 23.8067 17.6809C23.4238 17.3857 23.0805 17.0424 22.7853 16.6595C22.4527 16.2279 22.2037 15.7299 21.7056 14.7339L20.2341 11.7909ZM39.9302 30.5491L38.1461 34.1173C37.6481 35.1134 37.3991 35.6114 37.0664 36.0429C36.7712 36.4259 36.4279 36.7692 36.045 37.0643C35.6134 37.397 35.1154 37.646 34.1194 38.144L30.5511 39.9281L34.1194 41.7123C35.1154 42.2103 35.6134 42.4593 36.045 42.792C36.4279 43.0871 36.7712 43.4304 37.0664 43.8134C37.3991 44.2449 37.6481 44.7429 38.1461 45.739L39.9302 49.3072L41.7144 45.739C42.2124 44.7429 42.4614 44.2449 42.794 43.8134C43.0892 43.4304 43.4325 43.0871 43.8155 42.792C44.247 42.4593 44.745 42.2103 45.741 41.7123L49.3093 39.9281L45.741 38.144C44.745 37.646 44.247 37.397 43.8155 37.0643C43.4325 36.7692 43.0892 36.4259 42.794 36.0429C42.4614 35.6114 42.2124 35.1134 41.7144 34.1173L39.9302 30.5491Z" stroke="#54514C" stroke-width="1.62233" stroke-linecap="round" stroke-linejoin="round"/>
</svg>
