<svg width="20" height="20" viewBox="0 0 20 20" fill="none" xmlns="http://www.w3.org/2000/svg">
<rect width="19.6923" height="19.6923" fill="white" fill-opacity="0.01" style="mix-blend-mode:multiply"/>
<path d="M18.4612 18.4615H17.2305V15.3846C17.2295 14.5689 16.9051 13.7868 16.3282 13.2099C15.7514 12.6331 14.9693 12.3086 14.1535 12.3077V11.0769C15.2956 11.0782 16.3906 11.5325 17.1981 12.34C18.0057 13.1476 18.46 14.2425 18.4612 15.3846V18.4615Z" fill="#161616"/>
<path d="M13.5382 18.4615H12.3074V15.3846C12.3064 14.5689 11.9819 13.7868 11.4051 13.21C10.8283 12.6331 10.0462 12.3087 9.23047 12.3077H5.53816C4.72241 12.3087 3.94034 12.6331 3.36351 13.21C2.78668 13.7868 2.4622 14.5689 2.46124 15.3846V18.4615H1.23047V15.3846C1.2318 14.2426 1.68608 13.1477 2.49364 12.3401C3.3012 11.5325 4.3961 11.0783 5.53816 11.0769H9.23047C10.3725 11.0783 11.4674 11.5325 12.275 12.3401C13.0826 13.1477 13.5368 14.2426 13.5382 15.3846V18.4615Z" fill="#161616"/>
<path d="M12.3074 1.23077V2.46154C13.1234 2.46154 13.9061 2.78572 14.4831 3.36275C15.0601 3.93979 15.3843 4.72242 15.3843 5.53847C15.3843 6.35452 15.0601 7.13714 14.4831 7.71418C13.9061 8.29121 13.1234 8.61539 12.3074 8.61539V9.84616C13.4499 9.84616 14.5455 9.39231 15.3534 8.58446C16.1612 7.77662 16.6151 6.68094 16.6151 5.53847C16.6151 4.396 16.1612 3.30032 15.3534 2.49247C14.5455 1.68462 13.4499 1.23077 12.3074 1.23077Z" fill="#161616"/>
<path d="M7.38432 2.46154C7.99287 2.46154 8.58776 2.642 9.09376 2.9801C9.59976 3.31819 9.99414 3.79874 10.227 4.36098C10.4599 4.92321 10.5208 5.54188 10.4021 6.13874C10.2834 6.73561 9.99034 7.28386 9.56003 7.71418C9.12971 8.1445 8.58146 8.43754 7.98459 8.55627C7.38773 8.67499 6.76906 8.61406 6.20683 8.38117C5.64459 8.14829 5.16404 7.75391 4.82595 7.24791C4.48785 6.74192 4.30739 6.14702 4.30739 5.53847C4.30739 4.72242 4.63157 3.93979 5.2086 3.36275C5.78564 2.78572 6.56826 2.46154 7.38432 2.46154ZM7.38432 1.23077C6.53233 1.23077 5.69949 1.48342 4.99109 1.95675C4.28269 2.43009 3.73057 3.10286 3.40453 3.88998C3.07849 4.67711 2.99318 5.54324 3.15939 6.37886C3.32561 7.21447 3.73587 7.98202 4.33832 8.58446C4.94076 9.18691 5.70832 9.59717 6.54393 9.76339C7.37954 9.9296 8.24567 9.84429 9.0328 9.51826C9.81993 9.19222 10.4927 8.64009 10.966 7.93169C11.4394 7.2233 11.692 6.39045 11.692 5.53847C11.692 4.396 11.2382 3.30032 10.4303 2.49247C9.62246 1.68462 8.52679 1.23077 7.38432 1.23077Z" fill="#161616"/>
</svg>
