<svg width="20" height="20" viewBox="0 0 20 20" fill="none" xmlns="http://www.w3.org/2000/svg">
<rect width="19.6923" height="19.6923" fill="white" fill-opacity="0.01" style="mix-blend-mode:multiply"/>
<path d="M9.84525 2.46154C10.4538 2.46154 11.0487 2.642 11.5547 2.9801C12.0607 3.31819 12.4551 3.79874 12.688 4.36098C12.9208 4.92321 12.9818 5.54188 12.8631 6.13874C12.7443 6.73561 12.4513 7.28386 12.021 7.71418C11.5907 8.1445 11.0424 8.43754 10.4455 8.55627C9.84867 8.67499 9.23 8.61406 8.66777 8.38117C8.10553 8.14829 7.62498 7.75391 7.28688 7.24791C6.94879 6.74192 6.76833 6.14702 6.76833 5.53847C6.76833 4.72242 7.0925 3.93979 7.66954 3.36275C8.24657 2.78572 9.0292 2.46154 9.84525 2.46154ZM9.84525 1.23077C8.99327 1.23077 8.16042 1.48342 7.45203 1.95675C6.74363 2.43009 6.1915 3.10286 5.86546 3.88998C5.53942 4.67711 5.45412 5.54324 5.62033 6.37886C5.78654 7.21447 6.19681 7.98202 6.79925 8.58446C7.4017 9.18691 8.16925 9.59717 9.00486 9.76339C9.84047 9.9296 10.7066 9.84429 11.4937 9.51826C12.2809 9.19222 12.9536 8.64009 13.427 7.93169C13.9003 7.2233 14.1529 6.39045 14.1529 5.53847C14.1529 4.396 13.6991 3.30032 12.8913 2.49247C12.0834 1.68462 10.9877 1.23077 9.84525 1.23077Z" fill="#161616"/>
<path d="M15.9991 18.4615H14.7683V15.3846C14.7683 14.9806 14.6887 14.5804 14.5341 14.2071C14.3795 13.8338 14.1528 13.4946 13.8671 13.2089C13.5814 12.9232 13.2422 12.6965 12.8689 12.5419C12.4956 12.3873 12.0955 12.3077 11.6914 12.3077H7.9991C7.18305 12.3077 6.40042 12.6319 5.82339 13.2089C5.24635 13.7859 4.92218 14.5686 4.92218 15.3846V18.4615H3.69141V15.3846C3.69141 14.2421 4.14525 13.1465 4.9531 12.3386C5.76095 11.5308 6.85663 11.0769 7.9991 11.0769H11.6914C12.8339 11.0769 13.9296 11.5308 14.7374 12.3386C15.5453 13.1465 15.9991 14.2421 15.9991 15.3846V18.4615Z" fill="#161616"/>
</svg>
