<svg width="20" height="20" viewBox="0 0 20 20" fill="none" xmlns="http://www.w3.org/2000/svg">
<g clip-path="url(#clip0_1343_1694)">
<path d="M9.8461 4.92249C9.23761 4.92249 8.64279 5.10292 8.13685 5.44098C7.63091 5.77904 7.23658 6.25953 7.00372 6.8217C6.77086 7.38387 6.70994 8.00246 6.82865 8.59926C6.94736 9.19605 7.24037 9.74424 7.67064 10.1745C8.1009 10.6048 8.64909 10.8978 9.24589 11.0165C9.84268 11.1352 10.4613 11.0743 11.0234 10.8414C11.5856 10.6086 12.0661 10.2142 12.4042 9.70829C12.7422 9.20236 12.9227 8.60753 12.9227 7.99905C12.9227 7.18309 12.5985 6.40056 12.0216 5.82359C11.4446 5.24662 10.6621 4.92249 9.8461 4.92249ZM9.8461 9.84499C9.481 9.84499 9.12411 9.73672 8.82055 9.53389C8.51698 9.33105 8.28039 9.04276 8.14067 8.70546C8.00096 8.36816 7.9644 7.997 8.03563 7.63892C8.10685 7.28085 8.28266 6.95193 8.54082 6.69377C8.79898 6.43561 9.12789 6.25981 9.48597 6.18858C9.84405 6.11735 10.2152 6.15391 10.5525 6.29362C10.8898 6.43334 11.1781 6.66994 11.3809 6.9735C11.5838 7.27706 11.692 7.63396 11.692 7.99905C11.6915 8.48845 11.4968 8.95765 11.1508 9.30371C10.8047 9.64977 10.3355 9.84443 9.8461 9.84499Z" fill="black"/>
<path d="M9.84485 1.23065C8.14109 1.23065 6.47558 1.73588 5.05896 2.68244C3.64233 3.629 2.5382 4.97438 1.8862 6.54845C1.2342 8.12252 1.06361 9.85458 1.396 11.5256C1.72838 13.1966 2.54882 14.7316 3.75356 15.9363C4.95831 17.1411 6.49324 17.9615 8.16427 18.2939C9.83529 18.6263 11.5674 18.4557 13.1414 17.8037C14.7155 17.1517 16.0609 16.0475 17.0074 14.6309C17.954 13.2143 18.4592 11.5488 18.4592 9.84503C18.4566 7.56114 17.5482 5.37154 15.9333 3.75659C14.3183 2.14163 12.1287 1.23323 9.84485 1.23065ZM6.15297 16.2298V15.3828C6.15351 14.8934 6.34817 14.4242 6.69423 14.0782C7.04029 13.7321 7.5095 13.5374 7.99891 13.5369H11.6908C12.1802 13.5374 12.6494 13.7321 12.9955 14.0782C13.3415 14.4242 13.5362 14.8934 13.5367 15.3828V16.2298C12.4163 16.884 11.1422 17.2288 9.84485 17.2288C8.54745 17.2288 7.27335 16.884 6.15297 16.2298ZM14.7627 15.3372C14.7505 14.53 14.4216 13.76 13.847 13.1931C13.2724 12.6261 12.498 12.3077 11.6908 12.3063H7.99891C7.19168 12.3077 6.41731 12.6261 5.84269 13.1931C5.26806 13.76 4.93919 14.53 4.92696 15.3372C3.81113 14.3408 3.02425 13.0291 2.67051 11.5756C2.31677 10.1221 2.41286 8.59542 2.94605 7.19774C3.47924 5.80007 4.42439 4.59731 5.65634 3.74874C6.88829 2.90016 8.34893 2.44579 9.84485 2.44579C11.3408 2.44579 12.8014 2.90016 14.0334 3.74874C15.2653 4.59731 16.2105 5.80007 16.7436 7.19774C17.2768 8.59542 17.3729 10.1221 17.0192 11.5756C16.6654 13.0291 15.8786 14.3408 14.7627 15.3372Z" fill="black"/>
</g>
<defs>
<clipPath id="clip0_1343_1694">
<rect width="19.69" height="19.69" fill="white"/>
</clipPath>
</defs>
</svg>
