<svg width="19" height="19" viewBox="0 0 19 19" fill="none" xmlns="http://www.w3.org/2000/svg">
<g clip-path="url(#clip0_1343_1657)">
<path d="M3.111 13.3653L3.96006 12.5222C3.03038 11.6874 2.29992 10.6547 1.82256 9.5C3.02787 6.48969 6.35287 4.15625 9.49975 4.15625C10.3096 4.16694 11.112 4.31139 11.8747 4.58375L12.7951 3.6575C11.7516 3.21654 10.6324 2.98261 9.49975 2.96875C7.56443 3.04153 5.69285 3.6798 4.11634 4.80468C2.53982 5.92955 1.32747 7.49173 0.629122 9.29812C0.581959 9.42858 0.581959 9.57142 0.629122 9.70188C1.15652 11.1014 2.00688 12.3565 3.111 13.3653Z" fill="black"/>
<path d="M7.12383 9.33969C7.16512 8.7707 7.40983 8.23559 7.81322 7.8322C8.21661 7.42881 8.75172 7.1841 9.3207 7.14281L10.3954 6.06219C9.79319 5.90362 9.15994 5.90568 8.55878 6.06816C7.95762 6.23064 7.40955 6.54786 6.96921 6.9882C6.52888 7.42853 6.21166 7.9766 6.04918 8.57776C5.8867 9.17892 5.88464 9.81217 6.0432 10.4144L7.12383 9.33969Z" fill="black"/>
<path d="M18.3706 9.29812C17.6898 7.52471 16.5051 5.98917 14.9625 4.88063L17.8125 2.02469L16.9753 1.1875L1.1875 16.9753L2.02469 17.8125L5.05281 14.7844C6.40293 15.5764 7.9349 16.006 9.5 16.0312C11.4353 15.9585 13.3069 15.3202 14.8834 14.1953C16.4599 13.0704 17.6723 11.5083 18.3706 9.70188C18.4178 9.57142 18.4178 9.42858 18.3706 9.29812ZM11.875 9.5C11.8725 9.91569 11.7609 10.3234 11.5515 10.6825C11.342 11.0416 11.042 11.3393 10.6813 11.5461C10.3207 11.7529 9.91213 11.8613 9.49643 11.8607C9.08074 11.8601 8.6725 11.7504 8.3125 11.5425L11.5425 8.3125C11.756 8.67215 11.8707 9.0818 11.875 9.5ZM9.5 14.8438C8.25435 14.822 7.03231 14.5002 5.9375 13.9056L7.44562 12.3975C8.13161 12.8735 8.96297 13.0934 9.79458 13.0188C10.6262 12.9443 11.4052 12.58 11.9956 11.9896C12.586 11.3992 12.9502 10.6202 13.0248 9.78864C13.0993 8.95704 12.8794 8.12567 12.4034 7.43969L14.1075 5.73562C15.4699 6.67077 16.5353 7.97728 17.1772 9.5C15.9719 12.5103 12.6469 14.8438 9.5 14.8438Z" fill="black"/>
</g>
<defs>
<clipPath id="clip0_1343_1657">
<rect width="19" height="19" fill="white"/>
</clipPath>
</defs>
</svg>
