<svg width="99" height="127" viewBox="0 0 99 127" fill="none" xmlns="http://www.w3.org/2000/svg">
<rect x="11" y="10" width="77" height="76" rx="15" fill="#F2EFE6"/>
<path d="M50.5187 48.9942C54.209 48.9942 57.6716 49.9458 60.6625 51.6113M50.5187 48.9942C48.6736 52.1121 46.0977 54.5618 43.124 56.2563M50.5187 48.9942C48.6736 45.8763 47.787 42.4751 47.7698 39.1154M60.6625 51.6113C60.2792 52.4156 59.8562 53.2104 59.3929 53.9933C58.9298 54.7759 58.4359 55.5305 57.9138 56.2563C53.7265 62.0768 47.716 66.0532 41.0889 67.87M60.6625 51.6113C64.1644 53.5611 67.0198 56.4895 68.8377 60.0147M43.124 56.2563C42.6017 55.5303 42.1077 54.7756 41.6445 53.9928C37.468 46.9354 36.5657 38.9104 38.4778 31.5918M43.124 56.2563C39.6418 58.2404 35.6142 59.1889 31.5756 58.9621M47.7698 39.1154C47.7517 35.5676 48.703 32.0662 50.5186 28.9935C50.7157 28.66 50.9229 28.3315 51.1402 28.0086M47.7698 39.1154C48.6754 39.0371 49.5923 38.9971 50.5187 38.9971C58.8709 38.9971 66.445 42.2467 71.9854 47.5206M38.4778 31.5918C32.7592 35.3654 29 41.7514 29 48.9939C29 52.6015 29.9327 55.9966 31.5756 58.9621M38.4778 31.5918C41.9141 29.3243 46.0579 28 50.5188 28C50.7266 28 50.9338 28.0029 51.1402 28.0086M51.1402 28.0086C62.2331 28.3155 71.2245 36.8127 71.9854 47.5206M71.9854 47.5206C72.02 48.0073 72.0376 48.4986 72.0376 48.9939C72.0376 53.0361 70.8667 56.8114 68.8377 60.0147M68.8377 60.0147C65.0467 65.9998 58.2601 69.9879 50.5188 69.9879C47.1365 69.9879 43.9365 69.2266 41.0889 67.87M41.0889 67.87C37.044 65.9431 33.7103 62.8151 31.5756 58.9621" stroke="#54514C" stroke-width="2.22514" stroke-linecap="round"/>
<path d="M13.1667 111L8.58672 97.64H10.6467L14.2667 108.8L17.9067 97.64H19.9667L15.3667 111H13.1667ZM24.7466 111.24C24.1732 111.24 23.6066 111.14 23.0466 110.94C22.4866 110.74 21.9732 110.433 21.5066 110.02C21.0532 109.593 20.6866 109.053 20.4066 108.4C20.1266 107.747 19.9866 106.973 19.9866 106.08C19.9866 105.187 20.1266 104.413 20.4066 103.76C20.6866 103.107 21.0532 102.573 21.5066 102.16C21.9732 101.733 22.4866 101.42 23.0466 101.22C23.6066 101.02 24.1732 100.92 24.7466 100.92C25.3199 100.92 25.8866 101.02 26.4466 101.22C27.0199 101.42 27.5332 101.733 27.9866 102.16C28.4532 102.573 28.8199 103.107 29.0866 103.76C29.3666 104.413 29.5066 105.187 29.5066 106.08C29.5066 106.973 29.3666 107.747 29.0866 108.4C28.8199 109.053 28.4532 109.593 27.9866 110.02C27.5332 110.433 27.0199 110.74 26.4466 110.94C25.8866 111.14 25.3199 111.24 24.7466 111.24ZM24.7466 109.76C25.2266 109.76 25.6932 109.633 26.1466 109.38C26.5999 109.113 26.9732 108.713 27.2666 108.18C27.5599 107.633 27.7066 106.933 27.7066 106.08C27.7066 105.227 27.5599 104.533 27.2666 104C26.9732 103.453 26.5999 103.053 26.1466 102.8C25.6932 102.533 25.2266 102.4 24.7466 102.4C24.2799 102.4 23.8132 102.533 23.3466 102.8C22.8932 103.053 22.5199 103.453 22.2266 104C21.9332 104.533 21.7866 105.227 21.7866 106.08C21.7866 106.933 21.9332 107.633 22.2266 108.18C22.5199 108.713 22.8932 109.113 23.3466 109.38C23.8132 109.633 24.2799 109.76 24.7466 109.76ZM34.0017 111C33.3751 111 32.8884 110.94 32.5417 110.82C32.2084 110.687 31.9751 110.44 31.8417 110.08C31.7217 109.72 31.6617 109.2 31.6617 108.52V97.66H33.3417V108.24C33.3417 108.747 33.3951 109.087 33.5017 109.26C33.6084 109.433 33.8951 109.52 34.3617 109.52H34.7417V111H34.0017ZM38.7869 111C38.1602 111 37.6735 110.94 37.3269 110.82C36.9935 110.687 36.7602 110.44 36.6269 110.08C36.5069 109.72 36.4469 109.2 36.4469 108.52V97.66H38.1269V108.24C38.1269 108.747 38.1802 109.087 38.2869 109.26C38.3935 109.433 38.6802 109.52 39.1469 109.52H39.5269V111H38.7869ZM45.452 111.24C44.412 111.24 43.532 111.013 42.812 110.56C42.092 110.093 41.5387 109.473 41.152 108.7C40.7787 107.913 40.592 107.033 40.592 106.06C40.592 105.007 40.8054 104.1 41.232 103.34C41.6587 102.567 42.232 101.973 42.952 101.56C43.6854 101.133 44.5054 100.92 45.412 100.92C46.1987 100.92 46.892 101.08 47.492 101.4C48.092 101.707 48.5854 102.127 48.972 102.66C49.372 103.18 49.6587 103.773 49.832 104.44C50.0187 105.107 50.0854 105.793 50.032 106.5H42.392C42.4187 107.327 42.5987 107.98 42.932 108.46C43.2787 108.94 43.6854 109.28 44.152 109.48C44.6187 109.667 45.052 109.76 45.452 109.76C46.012 109.76 46.4787 109.673 46.852 109.5C47.2387 109.313 47.5454 109.073 47.772 108.78L49.392 109.26C49.032 109.833 48.5187 110.307 47.852 110.68C47.1854 111.053 46.3854 111.24 45.452 111.24ZM42.412 105.16H48.252C48.252 104.693 48.132 104.247 47.892 103.82C47.6654 103.393 47.3387 103.047 46.912 102.78C46.4987 102.5 45.9987 102.36 45.412 102.36C44.9187 102.36 44.452 102.453 44.012 102.64C43.572 102.827 43.2054 103.127 42.912 103.54C42.632 103.953 42.4654 104.493 42.412 105.16ZM51.3533 114.22V112.74H52.0333C52.5133 112.74 52.8799 112.7 53.1333 112.62C53.3866 112.553 53.5866 112.393 53.7333 112.14C53.8933 111.9 54.0466 111.527 54.1933 111.02L50.6133 101.1H52.4733L54.9133 108.74L57.3533 101.1H59.1933L55.6733 111.44C55.4333 112.147 55.1866 112.7 54.9333 113.1C54.6933 113.513 54.3666 113.8 53.9533 113.96C53.5399 114.133 52.9599 114.22 52.2133 114.22H51.3533ZM65.4875 111.24C64.7142 111.24 64.0608 111.087 63.5275 110.78C62.9942 110.46 62.5742 110.033 62.2675 109.5L61.8275 111H60.5875V97.64H62.2675V102.64C62.5742 102.12 62.9942 101.707 63.5275 101.4C64.0608 101.08 64.7142 100.92 65.4875 100.92C66.2475 100.92 66.9475 101.127 67.5875 101.54C68.2408 101.94 68.7608 102.527 69.1475 103.3C69.5475 104.06 69.7475 104.987 69.7475 106.08C69.7475 107.173 69.5475 108.107 69.1475 108.88C68.7608 109.64 68.2408 110.227 67.5875 110.64C66.9475 111.04 66.2475 111.24 65.4875 111.24ZM65.0475 109.8C65.9008 109.8 66.5808 109.473 67.0875 108.82C67.6075 108.167 67.8675 107.253 67.8675 106.08C67.8675 104.893 67.6075 103.98 67.0875 103.34C66.5808 102.687 65.9008 102.36 65.0475 102.36C64.1942 102.36 63.5075 102.687 62.9875 103.34C62.4808 103.98 62.2275 104.893 62.2275 106.08C62.2275 107.253 62.4808 108.167 62.9875 108.82C63.5075 109.473 64.1942 109.8 65.0475 109.8ZM74.6956 111.24C74.069 111.24 73.4956 111.127 72.9756 110.9C72.4556 110.673 72.0423 110.347 71.7356 109.92C71.429 109.493 71.2756 108.98 71.2756 108.38C71.2756 107.593 71.549 106.973 72.0956 106.52C72.6556 106.067 73.4356 105.72 74.4356 105.48C75.449 105.227 76.629 105.027 77.9756 104.88C78.0023 104.04 77.8356 103.393 77.4756 102.94C77.1156 102.487 76.5356 102.26 75.7356 102.26C75.1356 102.26 74.6423 102.4 74.2556 102.68C73.8823 102.947 73.6423 103.32 73.5356 103.8L71.9156 103.32C72.1823 102.56 72.6556 101.973 73.3356 101.56C74.029 101.133 74.8223 100.92 75.7156 100.92C77.089 100.92 78.089 101.247 78.7156 101.9C79.3556 102.54 79.6756 103.553 79.6756 104.94V107.26C79.6756 108.087 79.709 108.8 79.7756 109.4C79.8423 110 79.9223 110.533 80.0156 111H78.4756L78.0756 109.64C77.7823 110.133 77.3623 110.527 76.8156 110.82C76.269 111.1 75.5623 111.24 74.6956 111.24ZM75.0556 109.9C75.5756 109.9 76.069 109.807 76.5356 109.62C77.0023 109.433 77.3823 109.12 77.6756 108.68C77.969 108.227 78.1156 107.613 78.1156 106.84V106.22C77.1023 106.327 76.2223 106.46 75.4756 106.62C74.729 106.767 74.149 106.98 73.7356 107.26C73.3356 107.527 73.1356 107.887 73.1356 108.34C73.1356 108.807 73.3023 109.187 73.6356 109.48C73.9823 109.76 74.4556 109.9 75.0556 109.9ZM84.783 111C84.1563 111 83.6696 110.94 83.323 110.82C82.9896 110.687 82.7563 110.44 82.623 110.08C82.503 109.72 82.443 109.2 82.443 108.52V97.66H84.123V108.24C84.123 108.747 84.1763 109.087 84.283 109.26C84.3896 109.433 84.6763 109.52 85.143 109.52H85.523V111H84.783ZM89.5681 111C88.9415 111 88.4548 110.94 88.1081 110.82C87.7748 110.687 87.5415 110.44 87.4081 110.08C87.2881 109.72 87.2281 109.2 87.2281 108.52V97.66H88.9081V108.24C88.9081 108.747 88.9615 109.087 89.0681 109.26C89.1748 109.433 89.4615 109.52 89.9281 109.52H90.3081V111H89.5681Z" fill="#54514C"/>
</svg>
