<svg width="20" height="20" viewBox="0 0 20 20" fill="none" xmlns="http://www.w3.org/2000/svg">
<rect width="19.6923" height="19.6923" fill="white" fill-opacity="0.01" style="mix-blend-mode:multiply"/>
<path d="M9.84586 14.1538C9.66329 14.1538 9.48482 14.208 9.33302 14.3094C9.18123 14.4108 9.06291 14.555 8.99305 14.7237C8.92318 14.8923 8.9049 15.0779 8.94052 15.257C8.97614 15.4361 9.06405 15.6005 9.19314 15.7296C9.32224 15.8587 9.48672 15.9466 9.66577 15.9822C9.84483 16.0179 10.0304 15.9996 10.1991 15.9297C10.3678 15.8599 10.5119 15.7415 10.6134 15.5897C10.7148 15.4379 10.7689 15.2595 10.7689 15.0769C10.7689 14.8321 10.6717 14.5973 10.4986 14.4242C10.3255 14.2511 10.0907 14.1538 9.84586 14.1538Z" fill="#161616"/>
<path d="M10.4612 7.3846H9.23047V12.9231H10.4612V7.3846Z" fill="#161616"/>
<path d="M17.8459 18.4615H1.84586C1.74013 18.4615 1.63619 18.4343 1.54405 18.3824C1.45191 18.3306 1.37468 18.2559 1.31982 18.1655C1.26495 18.0751 1.23429 17.9721 1.2308 17.8665C1.22731 17.7608 1.25111 17.656 1.29989 17.5622L9.29989 2.17759C9.35185 2.07767 9.43024 1.99393 9.52651 1.93548C9.62277 1.87704 9.73324 1.84613 9.84586 1.84613C9.95848 1.84613 10.0689 1.87704 10.1652 1.93548C10.2615 1.99393 10.3399 2.07767 10.3918 2.17759L18.3918 17.5622C18.4406 17.656 18.4644 17.7608 18.4609 17.8665C18.4574 17.9721 18.4268 18.0751 18.3719 18.1655C18.317 18.2559 18.2398 18.3306 18.1477 18.3824C18.0555 18.4343 17.9516 18.4615 17.8459 18.4615ZM2.86167 17.2308H16.83L16.8313 17.2287L9.84709 3.79777H9.84463L2.86044 17.2287L2.86167 17.2308Z" fill="#161616"/>
</svg>
