<svg width="62" height="62" viewBox="0 0 62 62" fill="none" xmlns="http://www.w3.org/2000/svg">
<rect x="0.803922" y="0.803922" width="60.2941" height="59.4902" rx="11.2549" stroke="#D7D5CE" stroke-width="1.60784"/>
<path d="M13.0116 34.2364C11.9128 33.1376 11.9128 31.3561 13.0116 30.2572C14.1104 29.1584 15.892 29.1584 16.9908 30.2572L31.5813 44.8477C32.6801 45.9465 32.6801 47.7281 31.5813 48.8269C30.4824 49.9257 28.7009 49.9257 27.6021 48.8269L13.0116 34.2364Z" stroke="#54514C" stroke-width="1.62392" stroke-linecap="round" stroke-linejoin="round"/>
<path d="M21.6332 34.8997L34.8973 21.6356L40.2029 26.9412L26.9389 40.2053L21.6332 34.8997Z" stroke="#54514C" stroke-width="1.62392" stroke-linecap="round" stroke-linejoin="round"/>
<path d="M13.6748 42.8581C12.2097 41.393 12.2097 39.0176 13.6748 37.5525L15.0012 36.2261L25.6124 46.8373L24.286 48.1637C22.8209 49.6288 20.4455 49.6288 18.9804 48.1637L13.6748 42.8581Z" stroke="#54514C" stroke-width="1.62392" stroke-linecap="round" stroke-linejoin="round"/>
<path d="M34.2341 13.014C33.1352 11.9152 31.3537 11.9152 30.2549 13.014C29.156 14.1128 29.156 15.8944 30.2549 16.9932L44.8453 31.5836C45.9441 32.6825 47.7257 32.6825 48.8245 31.5836C49.9233 30.4848 49.9233 28.7033 48.8245 27.6044L34.2341 13.014Z" stroke="#54514C" stroke-width="1.62392" stroke-linecap="round" stroke-linejoin="round"/>
<path d="M42.8557 13.6772C41.3906 12.2121 39.0152 12.2121 37.5501 13.6772L36.2237 15.0036L46.8349 25.6148L48.1613 24.2884C49.6264 22.8233 49.6264 20.4479 48.1613 18.9828L42.8557 13.6772Z" stroke="#54514C" stroke-width="1.62392" stroke-linecap="round" stroke-linejoin="round"/>
</svg>
