<svg width="1358" height="430" viewBox="0 0 1358 430" fill="none" xmlns="http://www.w3.org/2000/svg">
<path d="M463 66.5C543.356 66.5 608.5 131.865 608.5 212.5C608.5 293.135 543.356 358.5 463 358.5C382.644 358.5 317.5 293.135 317.5 212.5C317.5 131.865 382.644 66.5 463 66.5Z" stroke="black"/>
<circle cx="105.5" cy="212.5" r="89" stroke="black"/>
<circle cx="105.5" cy="212.5" r="105" stroke="black"/>
<path d="M690 66.5C770.356 66.5 835.5 131.865 835.5 212.5C835.5 293.135 770.356 358.5 690 358.5C609.644 358.5 544.5 293.135 544.5 212.5C544.5 131.865 609.644 66.5 690 66.5Z" stroke="black"/>
<path d="M68.604 198L65.282 191.4H62.29V198H59.98V182.6H66.074C69.198 182.6 71.2 184.338 71.2 186.978C71.2 189.31 69.66 190.938 67.196 191.312L68.494 192.874L71.42 198H68.604ZM62.29 184.668V189.376H66.162C68.076 189.376 68.824 188.694 68.824 187C68.824 185.328 68.076 184.668 66.162 184.668H62.29ZM82.8165 192.5C82.8165 192.83 82.8165 193.006 82.7945 193.424H74.9185C75.0725 195.558 75.9745 196.394 77.9545 196.394C79.4285 196.394 80.0665 196.02 80.5505 194.744L82.5745 195.492C81.8265 197.34 80.0885 198.22 77.9325 198.22C74.7205 198.22 72.6305 196.064 72.6305 192.742C72.6305 189.442 74.7865 187.22 77.8225 187.22C80.7705 187.22 82.8165 189.266 82.8165 192.5ZM77.8445 188.98C76.0845 188.98 75.1385 189.86 74.9405 191.774H80.5725C80.4845 189.75 79.6705 188.98 77.8445 188.98ZM89.0193 198.22C86.5113 198.22 84.8393 196.966 84.4433 195.03L86.5993 194.392C86.8413 195.932 87.6113 196.416 89.1733 196.416C90.4933 196.416 91.1973 195.998 91.1973 195.162C91.1973 194.37 90.8893 194.062 89.6353 193.842L87.7213 193.49C86.0053 193.204 84.7513 192.302 84.7513 190.41C84.7513 188.452 86.3133 187.22 88.7993 187.22C91.2413 187.22 92.7813 188.21 93.1773 190.41L91.1093 190.938C90.9333 189.288 90.2513 188.98 88.8873 188.98C87.6113 188.98 86.9953 189.398 86.9953 190.278C86.9953 191.004 87.3033 191.378 88.3153 191.532L90.6913 191.95C92.3413 192.236 93.4193 193.16 93.4193 194.854C93.4193 196.922 91.7473 198.22 89.0193 198.22ZM105.311 192.5C105.311 192.83 105.311 193.006 105.289 193.424H97.4127C97.5667 195.558 98.4687 196.394 100.449 196.394C101.923 196.394 102.561 196.02 103.045 194.744L105.069 195.492C104.321 197.34 102.583 198.22 100.427 198.22C97.2147 198.22 95.1247 196.064 95.1247 192.742C95.1247 189.442 97.2807 187.22 100.317 187.22C103.265 187.22 105.311 189.266 105.311 192.5ZM100.339 188.98C98.5787 188.98 97.6327 189.86 97.4347 191.774H103.067C102.979 189.75 102.165 188.98 100.339 188.98ZM115.825 187.44H118.069V198H115.825V195.822C115.099 197.34 113.779 198.22 112.019 198.22C108.983 198.22 107.091 196.02 107.091 192.72C107.091 189.42 108.961 187.22 111.931 187.22C113.735 187.22 115.099 188.1 115.825 189.662V187.44ZM112.635 196.174C114.879 196.174 115.935 195.074 115.935 192.72C115.935 190.366 114.879 189.266 112.635 189.266C110.391 189.266 109.357 190.366 109.357 192.72C109.357 195.074 110.391 196.174 112.635 196.174ZM127.049 187.242C127.511 187.242 127.973 187.264 128.303 187.418V189.596C127.995 189.464 127.665 189.332 126.873 189.332C124.871 189.332 123.771 190.938 123.771 193.424V198H121.527V187.44H123.771V190.52C124.101 188.826 124.937 187.242 127.049 187.242ZM134.741 196.196C136.435 196.196 137.315 195.558 137.711 193.512L139.933 194.062C139.251 196.966 137.249 198.22 134.763 198.22C131.485 198.22 129.263 196.02 129.263 192.72C129.263 189.42 131.485 187.22 134.763 187.22C137.315 187.22 139.273 188.54 139.933 191.378L137.711 191.928C137.315 189.882 136.435 189.244 134.741 189.244C132.563 189.244 131.529 190.344 131.529 192.72C131.529 195.096 132.563 196.196 134.741 196.196ZM148.5 187.22C150.986 187.22 152.284 188.716 152.284 191.51V198H150.04V191.664C150.04 190.08 149.16 189.266 147.73 189.266C145.948 189.266 144.804 190.586 144.804 193.028V198H142.56V182.6H144.804V189.992C145.31 188.298 146.432 187.22 148.5 187.22Z" fill="black"/>
<path d="M414.673 176V157.8H417.455V176H414.673ZM431.212 157.8H433.864V176H431.212V173.374C430.354 175.194 428.794 176.26 426.688 176.26C423.1 176.26 420.864 173.66 420.864 169.76C420.864 165.86 423.074 163.26 426.61 163.26C428.742 163.26 430.354 164.326 431.212 166.172V157.8ZM427.416 173.842C430.068 173.842 431.316 172.542 431.316 169.76C431.316 166.978 430.068 165.678 427.416 165.678C424.79 165.678 423.542 166.978 423.542 169.76C423.542 172.542 424.79 173.842 427.416 173.842ZM449 169.5C449 169.89 449 170.098 448.974 170.592H439.666C439.848 173.114 440.914 174.102 443.254 174.102C444.996 174.102 445.75 173.66 446.322 172.152L448.714 173.036C447.83 175.22 445.776 176.26 443.228 176.26C439.432 176.26 436.962 173.712 436.962 169.786C436.962 165.886 439.51 163.26 443.098 163.26C446.582 163.26 449 165.678 449 169.5ZM443.124 165.34C441.044 165.34 439.926 166.38 439.692 168.642H446.348C446.244 166.25 445.282 165.34 443.124 165.34ZM461.426 163.52H464.078V176H461.426V173.426C460.568 175.22 459.008 176.26 456.928 176.26C453.34 176.26 451.104 173.66 451.104 169.76C451.104 165.86 453.314 163.26 456.824 163.26C458.956 163.26 460.568 164.3 461.426 166.146V163.52ZM457.656 173.842C460.308 173.842 461.556 172.542 461.556 169.76C461.556 166.978 460.308 165.678 457.656 165.678C455.004 165.678 453.782 166.978 453.782 169.76C453.782 172.542 455.004 173.842 457.656 173.842ZM475.626 165.886H471.83V173.634H475.236V176H472.636C470.556 176 469.178 174.622 469.178 172.542V165.886H466.552V163.52H469.178V159.698H471.83V163.52H475.626V165.886ZM479.621 160.946C478.477 160.946 477.827 160.296 477.801 159.152C477.775 158.034 478.451 157.436 479.621 157.436C480.765 157.436 481.415 158.034 481.441 159.152C481.467 160.296 480.817 160.946 479.621 160.946ZM478.269 176V163.52H480.921V176H478.269ZM490.588 163.26C494.228 163.26 497.166 165.808 497.166 169.76C497.166 173.712 494.228 176.26 490.588 176.26C486.974 176.26 484.036 173.712 484.036 169.76C484.036 165.808 486.974 163.26 490.588 163.26ZM490.588 173.842C493.24 173.842 494.488 172.542 494.488 169.76C494.488 166.978 493.24 165.678 490.588 165.678C487.962 165.678 486.714 166.978 486.714 169.76C486.714 172.542 487.962 173.842 490.588 173.842ZM507.277 163.26C510.215 163.26 511.749 165.028 511.749 168.33V176H509.097V168.512C509.097 166.64 508.057 165.678 506.367 165.678C504.261 165.678 502.909 167.238 502.909 170.124V176H500.257V163.52H502.909V166.536C503.507 164.534 504.833 163.26 507.277 163.26Z" fill="black"/>
<path d="M414.807 220.803C417.904 220.803 419.291 219.625 419.747 216.623L421.191 217.041C420.545 220.404 418.303 222.19 414.807 222.19C411.121 222.19 408.062 219.302 408.062 215.293C408.062 211.284 411.121 208.51 414.807 208.51C418.303 208.51 420.545 210.296 421.191 213.659L419.747 214.077C419.291 211.075 417.904 209.897 414.807 209.897C411.501 209.897 409.639 211.835 409.639 215.293C409.639 218.827 411.501 220.803 414.807 220.803ZM430.468 213.07H431.931V222H430.468V220.176C429.803 221.449 428.625 222.19 427.086 222.19C424.521 222.19 422.811 220.328 422.811 217.535C422.811 214.742 424.521 212.88 427.086 212.88C428.625 212.88 429.803 213.621 430.468 214.894V213.07ZM427.428 220.86C429.556 220.86 430.544 219.796 430.544 217.535C430.544 215.274 429.556 214.21 427.428 214.21C425.3 214.21 424.312 215.274 424.312 217.535C424.312 219.796 425.3 220.86 427.428 220.86ZM438.17 222.19C436.232 222.19 434.788 221.278 434.37 219.435L435.814 218.96C436.061 220.404 436.783 220.898 438.265 220.898C439.614 220.898 440.26 220.518 440.26 219.682C440.26 218.922 439.994 218.656 438.911 218.447L437.163 218.105C435.871 217.858 434.674 217.212 434.674 215.559C434.674 213.944 435.985 212.88 437.961 212.88C439.671 212.88 441.172 213.564 441.552 215.711L440.108 216.11C439.918 214.419 439.196 214.172 438.018 214.172C436.745 214.172 436.156 214.571 436.156 215.445C436.156 216.167 436.422 216.509 437.239 216.661L439.481 217.098C440.792 217.345 441.704 218.01 441.704 219.435C441.704 221.088 440.298 222.19 438.17 222.19ZM451.806 217.288C451.806 217.554 451.806 217.668 451.787 217.991H444.852C444.947 220.1 445.802 220.936 447.759 220.936C449.222 220.936 449.811 220.575 450.229 219.397L451.597 219.929C450.97 221.506 449.431 222.19 447.759 222.19C445.08 222.19 443.351 220.366 443.351 217.535C443.351 214.761 445.194 212.88 447.683 212.88C450.096 212.88 451.806 214.552 451.806 217.288ZM447.664 214.115C445.954 214.115 445.042 214.97 444.871 216.794H450.343C450.229 214.875 449.469 214.115 447.664 214.115ZM462.217 222.19C460.279 222.19 458.835 221.278 458.417 219.435L459.861 218.96C460.108 220.404 460.83 220.898 462.312 220.898C463.661 220.898 464.307 220.518 464.307 219.682C464.307 218.922 464.041 218.656 462.958 218.447L461.21 218.105C459.918 217.858 458.721 217.212 458.721 215.559C458.721 213.944 460.032 212.88 462.008 212.88C463.718 212.88 465.219 213.564 465.599 215.711L464.155 216.11C463.965 214.419 463.243 214.172 462.065 214.172C460.792 214.172 460.203 214.571 460.203 215.445C460.203 216.167 460.469 216.509 461.286 216.661L463.528 217.098C464.839 217.345 465.751 218.01 465.751 219.435C465.751 221.088 464.345 222.19 462.217 222.19ZM472.969 214.4H470.119V220.67H472.646V222H470.841C469.53 222 468.656 221.126 468.656 219.815V214.4H466.642V213.07H468.656V210.258H470.119V213.07H472.969V214.4ZM481.408 213.07H482.871V222H481.408V219.796C480.971 221.202 480.021 222.19 478.14 222.19C476.05 222.19 474.891 220.936 474.891 218.694V213.07H476.354V218.599C476.354 220.062 477.228 220.86 478.558 220.86C480.306 220.86 481.408 219.511 481.408 217.193V213.07ZM492.997 208.7H494.46V222H492.997V220.176C492.332 221.449 491.154 222.19 489.615 222.19C487.05 222.19 485.34 220.328 485.34 217.535C485.34 214.742 487.05 212.88 489.615 212.88C491.154 212.88 492.332 213.621 492.997 214.894V208.7ZM489.957 220.86C492.085 220.86 493.073 219.796 493.073 217.535C493.073 215.274 492.085 214.21 489.957 214.21C487.829 214.21 486.841 215.274 486.841 217.535C486.841 219.796 487.829 220.86 489.957 220.86ZM498.457 210.866C497.773 210.866 497.374 210.467 497.355 209.783C497.336 209.118 497.735 208.757 498.457 208.757C499.122 208.757 499.502 209.118 499.521 209.783C499.54 210.467 499.16 210.866 498.457 210.866ZM497.697 222V213.07H499.16V222H497.697ZM510.086 217.288C510.086 217.554 510.086 217.668 510.067 217.991H503.132C503.227 220.1 504.082 220.936 506.039 220.936C507.502 220.936 508.091 220.575 508.509 219.397L509.877 219.929C509.25 221.506 507.711 222.19 506.039 222.19C503.36 222.19 501.631 220.366 501.631 217.535C501.631 214.761 503.474 212.88 505.963 212.88C508.376 212.88 510.086 214.552 510.086 217.288ZM505.944 214.115C504.234 214.115 503.322 214.97 503.151 216.794H508.623C508.509 214.875 507.749 214.115 505.944 214.115ZM515.561 222.19C513.623 222.19 512.179 221.278 511.761 219.435L513.205 218.96C513.452 220.404 514.174 220.898 515.656 220.898C517.005 220.898 517.651 220.518 517.651 219.682C517.651 218.922 517.385 218.656 516.302 218.447L514.554 218.105C513.262 217.858 512.065 217.212 512.065 215.559C512.065 213.944 513.376 212.88 515.352 212.88C517.062 212.88 518.563 213.564 518.943 215.711L517.499 216.11C517.309 214.419 516.587 214.172 515.409 214.172C514.136 214.172 513.547 214.571 513.547 215.445C513.547 216.167 513.813 216.509 514.63 216.661L516.872 217.098C518.183 217.345 519.095 218.01 519.095 219.435C519.095 221.088 517.689 222.19 515.561 222.19ZM435.433 246L432.184 239.977H429.334V246H427.852V232.7H432.906C435.452 232.7 437.162 234.144 437.162 236.329C437.162 238.324 435.718 239.73 433.533 239.939L434.673 241.421L437.333 246H435.433ZM429.334 234.087V238.609H433.134C434.901 238.609 435.585 237.963 435.585 236.329C435.585 234.714 434.901 234.087 433.134 234.087H429.334ZM442.986 236.88C445.551 236.88 447.603 238.742 447.603 241.535C447.603 244.328 445.551 246.19 442.986 246.19C440.421 246.19 438.369 244.328 438.369 241.535C438.369 238.742 440.421 236.88 442.986 236.88ZM442.986 244.86C445.095 244.86 446.102 243.796 446.102 241.535C446.102 239.274 445.095 238.21 442.986 238.21C440.877 238.21 439.87 239.274 439.87 241.535C439.87 243.796 440.877 244.86 442.986 244.86ZM450.076 246V232.7H451.539V246H450.076ZM462.466 241.288C462.466 241.554 462.466 241.668 462.447 241.991H455.512C455.607 244.1 456.462 244.936 458.419 244.936C459.882 244.936 460.471 244.575 460.889 243.397L462.257 243.929C461.63 245.506 460.091 246.19 458.419 246.19C455.74 246.19 454.011 244.366 454.011 241.535C454.011 238.761 455.854 236.88 458.343 236.88C460.756 236.88 462.466 238.552 462.466 241.288ZM458.324 238.115C456.614 238.115 455.702 238.97 455.531 240.794H461.003C460.889 238.875 460.129 238.115 458.324 238.115ZM469.784 236.88C472.349 236.88 474.059 238.742 474.059 241.535C474.059 244.328 472.349 246.19 469.784 246.19C468.245 246.19 467.067 245.449 466.402 244.176V249.23H464.939V237.07H466.402V238.894C467.067 237.621 468.245 236.88 469.784 236.88ZM469.442 244.86C471.57 244.86 472.558 243.796 472.558 241.535C472.558 239.274 471.57 238.21 469.442 238.21C467.314 238.21 466.326 239.274 466.326 241.535C466.326 243.796 467.314 244.86 469.442 244.86ZM476.535 246V232.7H477.998V246H476.535ZM488.127 237.07H489.59V246H488.127V244.176C487.462 245.449 486.284 246.19 484.745 246.19C482.18 246.19 480.47 244.328 480.47 241.535C480.47 238.742 482.18 236.88 484.745 236.88C486.284 236.88 487.462 237.621 488.127 238.894V237.07ZM485.087 244.86C487.215 244.86 488.203 243.796 488.203 241.535C488.203 239.274 487.215 238.21 485.087 238.21C482.959 238.21 481.971 239.274 481.971 241.535C481.971 243.796 482.959 244.86 485.087 244.86ZM499.02 237.07H500.673L496.417 247.558C495.885 248.831 495.315 249.23 493.985 249.23H491.99V247.9H495.163L495.467 247.007L491.496 237.07H493.149L495.353 243.055L496.094 245.202L496.854 243.036L499.02 237.07ZM408.982 270L407.519 266.238H401.097L399.634 270H397.962L403.282 256.7H405.372L410.673 270H408.982ZM401.629 264.87H406.987L405.125 260.044L404.308 257.802L403.491 260.044L401.629 264.87ZM412.767 270V256.7H414.287V270H412.767ZM429.531 261.07H430.994V270H429.531V268.176C428.866 269.449 427.688 270.19 426.149 270.19C423.584 270.19 421.874 268.328 421.874 265.535C421.874 262.742 423.584 260.88 426.149 260.88C427.688 260.88 428.866 261.621 429.531 262.894V261.07ZM426.491 268.86C428.619 268.86 429.607 267.796 429.607 265.535C429.607 263.274 428.619 262.21 426.491 262.21C424.363 262.21 423.375 263.274 423.375 265.535C423.375 267.796 424.363 268.86 426.491 268.86ZM437.233 270.19C435.295 270.19 433.851 269.278 433.433 267.435L434.877 266.96C435.124 268.404 435.846 268.898 437.328 268.898C438.677 268.898 439.323 268.518 439.323 267.682C439.323 266.922 439.057 266.656 437.974 266.447L436.226 266.105C434.934 265.858 433.737 265.212 433.737 263.559C433.737 261.944 435.048 260.88 437.024 260.88C438.734 260.88 440.235 261.564 440.615 263.711L439.171 264.11C438.981 262.419 438.259 262.172 437.081 262.172C435.808 262.172 435.219 262.571 435.219 263.445C435.219 264.167 435.485 264.509 436.302 264.661L438.544 265.098C439.855 265.345 440.767 266.01 440.767 267.435C440.767 269.088 439.361 270.19 437.233 270.19ZM455.007 261.07H456.47V270H455.007V268.176C454.342 269.449 453.164 270.19 451.625 270.19C449.06 270.19 447.35 268.328 447.35 265.535C447.35 262.742 449.06 260.88 451.625 260.88C453.164 260.88 454.342 261.621 455.007 262.894V261.07ZM451.967 268.86C454.095 268.86 455.083 267.796 455.083 265.535C455.083 263.274 454.095 262.21 451.967 262.21C449.839 262.21 448.851 263.274 448.851 265.535C448.851 267.796 449.839 268.86 451.967 268.86ZM469.487 260.88C472.052 260.88 473.762 262.742 473.762 265.535C473.762 268.328 472.052 270.19 469.487 270.19C467.948 270.19 466.77 269.449 466.105 268.176V273.23H464.642V261.07H466.105V262.894C466.77 261.621 467.948 260.88 469.487 260.88ZM469.145 268.86C471.273 268.86 472.261 267.796 472.261 265.535C472.261 263.274 471.273 262.21 469.145 262.21C467.017 262.21 466.029 263.274 466.029 265.535C466.029 267.796 467.017 268.86 469.145 268.86ZM483.136 261.07H484.599V270H483.136V268.176C482.471 269.449 481.293 270.19 479.754 270.19C477.189 270.19 475.479 268.328 475.479 265.535C475.479 262.742 477.189 260.88 479.754 260.88C481.293 260.88 482.471 261.621 483.136 262.894V261.07ZM480.096 268.86C482.224 268.86 483.212 267.796 483.212 265.535C483.212 263.274 482.224 262.21 480.096 262.21C477.968 262.21 476.98 263.274 476.98 265.535C476.98 267.796 477.968 268.86 480.096 268.86ZM492.224 260.899C492.661 260.899 493.022 260.918 493.269 261.032V262.514C493.098 262.419 492.794 262.286 492.034 262.286C490.115 262.286 489.298 264.015 489.298 265.934V270H487.835V261.07H489.298V263.616C489.621 262.134 490.419 260.899 492.224 260.899ZM500.236 262.4H497.386V268.67H499.913V270H498.108C496.797 270 495.923 269.126 495.923 267.815V262.4H493.909V261.07H495.923V258.258H497.386V261.07H500.236V262.4ZM506.983 260.88C509.073 260.88 510.232 262.134 510.232 264.376V270H508.769V264.471C508.769 263.008 507.895 262.21 506.565 262.21C504.817 262.21 503.715 263.559 503.715 265.877V270H502.252V261.07H503.715V263.274C504.152 261.868 505.102 260.88 506.983 260.88ZM521.061 265.288C521.061 265.554 521.061 265.668 521.042 265.991H514.107C514.202 268.1 515.057 268.936 517.014 268.936C518.477 268.936 519.066 268.575 519.484 267.397L520.852 267.929C520.225 269.506 518.686 270.19 517.014 270.19C514.335 270.19 512.606 268.366 512.606 265.535C512.606 262.761 514.449 260.88 516.938 260.88C519.351 260.88 521.061 262.552 521.061 265.288ZM516.919 262.115C515.209 262.115 514.297 262.97 514.126 264.794H519.598C519.484 262.875 518.724 262.115 516.919 262.115ZM527.923 260.899C528.36 260.899 528.721 260.918 528.968 261.032V262.514C528.797 262.419 528.493 262.286 527.733 262.286C525.814 262.286 524.997 264.015 524.997 265.934V270H523.534V261.07H524.997V263.616C525.32 262.134 526.118 260.899 527.923 260.899Z" fill="black" fill-opacity="0.5"/>
<path d="M77.2218 221.125H70.6478V224.982H76.9558V226.407H70.6478V233H69.1278V219.7H77.2218V221.125ZM80.2554 221.866C79.5714 221.866 79.1724 221.467 79.1534 220.783C79.1344 220.118 79.5334 219.757 80.2554 219.757C80.9204 219.757 81.3004 220.118 81.3194 220.783C81.3384 221.467 80.9584 221.866 80.2554 221.866ZM79.4954 233V224.07H80.9584V233H79.4954ZM91.8847 228.288C91.8847 228.554 91.8847 228.668 91.8657 228.991H84.9307C85.0257 231.1 85.8807 231.936 87.8377 231.936C89.3007 231.936 89.8897 231.575 90.3077 230.397L91.6757 230.929C91.0487 232.506 89.5097 233.19 87.8377 233.19C85.1587 233.19 83.4297 231.366 83.4297 228.535C83.4297 225.761 85.2727 223.88 87.7617 223.88C90.1747 223.88 91.8847 225.552 91.8847 228.288ZM87.7427 225.115C86.0327 225.115 85.1207 225.97 84.9497 227.794H90.4217C90.3077 225.875 89.5477 225.115 87.7427 225.115ZM94.3577 233V219.7H95.8207V233H94.3577ZM105.949 219.7H107.412V233H105.949V231.176C105.284 232.449 104.106 233.19 102.567 233.19C100.002 233.19 98.292 231.328 98.292 228.535C98.292 225.742 100.002 223.88 102.567 223.88C104.106 223.88 105.284 224.621 105.949 225.894V219.7ZM102.909 231.86C105.037 231.86 106.025 230.796 106.025 228.535C106.025 226.274 105.037 225.21 102.909 225.21C100.781 225.21 99.793 226.274 99.793 228.535C99.793 230.796 100.781 231.86 102.909 231.86ZM120.581 225.4H117.731V231.67H120.258V233H118.453C117.142 233 116.268 232.126 116.268 230.815V225.4H114.254V224.07H116.268V221.258H117.731V224.07H120.581V225.4ZM126.987 223.899C127.424 223.899 127.785 223.918 128.032 224.032V225.514C127.861 225.419 127.557 225.286 126.797 225.286C124.878 225.286 124.061 227.015 124.061 228.934V233H122.598V224.07H124.061V226.616C124.384 225.134 125.182 223.899 126.987 223.899ZM130.761 221.866C130.077 221.866 129.678 221.467 129.659 220.783C129.64 220.118 130.039 219.757 130.761 219.757C131.426 219.757 131.806 220.118 131.825 220.783C131.844 221.467 131.464 221.866 130.761 221.866ZM130.001 233V224.07H131.464V233H130.001ZM139.541 223.88C142.106 223.88 143.816 225.742 143.816 228.535C143.816 231.328 142.106 233.19 139.541 233.19C138.002 233.19 136.824 232.449 136.159 231.176V236.23H134.696V224.07H136.159V225.894C136.824 224.621 138.002 223.88 139.541 223.88ZM139.199 231.86C141.327 231.86 142.315 230.796 142.315 228.535C142.315 226.274 141.327 225.21 139.199 225.21C137.071 225.21 136.083 226.274 136.083 228.535C136.083 230.796 137.071 231.86 139.199 231.86Z" fill="black" fill-opacity="0.5"/>
<path d="M667.392 158.8H670.174V177H666.248L658.656 164.546L657.122 161.66V177H654.34V158.8H658.292L665.78 171.176L667.392 174.192V158.8ZM685.62 170.5C685.62 170.89 685.62 171.098 685.594 171.592H676.286C676.468 174.114 677.534 175.102 679.874 175.102C681.616 175.102 682.37 174.66 682.942 173.152L685.334 174.036C684.45 176.22 682.396 177.26 679.848 177.26C676.052 177.26 673.582 174.712 673.582 170.786C673.582 166.886 676.13 164.26 679.718 164.26C683.202 164.26 685.62 166.678 685.62 170.5ZM679.744 166.34C677.664 166.34 676.546 167.38 676.312 169.642H682.968C682.864 167.25 681.902 166.34 679.744 166.34ZM694.671 170.786L699.091 177H695.867L693.813 173.646L693.007 172.086L692.227 173.62L690.173 177H686.975L691.369 170.786L687.053 164.52H690.277L692.227 167.822L693.059 169.434L693.813 167.9L695.815 164.52H699.039L694.671 170.786ZM710.346 164.52H712.998V177H710.346V173.984C709.748 175.986 708.422 177.26 705.978 177.26C703.04 177.26 701.506 175.492 701.506 172.19V164.52H704.158V172.008C704.158 173.88 705.198 174.842 706.888 174.842C708.994 174.842 710.346 173.282 710.346 170.396V164.52ZM721.312 177.26C718.348 177.26 716.372 175.778 715.904 173.49L718.452 172.736C718.738 174.556 719.648 175.128 721.494 175.128C723.054 175.128 723.886 174.634 723.886 173.646C723.886 172.71 723.522 172.346 722.04 172.086L719.778 171.67C717.75 171.332 716.268 170.266 716.268 168.03C716.268 165.716 718.114 164.26 721.052 164.26C723.938 164.26 725.758 165.43 726.226 168.03L723.782 168.654C723.574 166.704 722.768 166.34 721.156 166.34C719.648 166.34 718.92 166.834 718.92 167.874C718.92 168.732 719.284 169.174 720.48 169.356L723.288 169.85C725.238 170.188 726.512 171.28 726.512 173.282C726.512 175.726 724.536 177.26 721.312 177.26Z" fill="black"/>
<path d="M628.162 222V208.7H632.779C637.377 208.7 640.056 211.36 640.056 215.35C640.056 219.34 637.377 222 632.779 222H628.162ZM629.682 220.689H632.779C636.674 220.689 638.498 218.979 638.498 215.35C638.498 211.721 636.674 210.011 632.779 210.011H629.682V220.689ZM650.326 217.288C650.326 217.554 650.326 217.668 650.307 217.991H643.372C643.467 220.1 644.322 220.936 646.279 220.936C647.742 220.936 648.331 220.575 648.749 219.397L650.117 219.929C649.49 221.506 647.951 222.19 646.279 222.19C643.6 222.19 641.871 220.366 641.871 217.535C641.871 214.761 643.714 212.88 646.203 212.88C648.616 212.88 650.326 214.552 650.326 217.288ZM646.184 214.115C644.474 214.115 643.562 214.97 643.391 216.794H648.863C648.749 214.875 647.989 214.115 646.184 214.115ZM655.801 222.19C653.863 222.19 652.419 221.278 652.001 219.435L653.445 218.96C653.692 220.404 654.414 220.898 655.896 220.898C657.245 220.898 657.891 220.518 657.891 219.682C657.891 218.922 657.625 218.656 656.542 218.447L654.794 218.105C653.502 217.858 652.305 217.212 652.305 215.559C652.305 213.944 653.616 212.88 655.592 212.88C657.302 212.88 658.803 213.564 659.183 215.711L657.739 216.11C657.549 214.419 656.827 214.172 655.649 214.172C654.376 214.172 653.787 214.571 653.787 215.445C653.787 216.167 654.053 216.509 654.87 216.661L657.112 217.098C658.423 217.345 659.335 218.01 659.335 219.435C659.335 221.088 657.929 222.19 655.801 222.19ZM662.502 210.866C661.818 210.866 661.419 210.467 661.4 209.783C661.381 209.118 661.78 208.757 662.502 208.757C663.167 208.757 663.547 209.118 663.566 209.783C663.585 210.467 663.205 210.866 662.502 210.866ZM661.742 222V213.07H663.205V222H661.742ZM673.01 213.07H674.473V221.582C674.473 223.881 672.82 225.42 670.122 225.42C667.842 225.42 666.417 224.603 665.79 222.893L667.196 222.228C667.709 223.748 668.298 224.128 670.122 224.128C672.174 224.128 673.01 223.311 673.01 221.582V219.739C672.402 220.917 671.281 221.639 669.799 221.639C667.405 221.639 665.676 219.834 665.676 217.269C665.676 214.685 667.405 212.88 669.799 212.88C671.281 212.88 672.402 213.602 673.01 214.78V213.07ZM670.122 220.29C672.155 220.29 673.124 219.321 673.124 217.269C673.124 215.198 672.174 214.21 670.16 214.21C668.127 214.21 667.177 215.198 667.177 217.269C667.177 219.321 668.127 220.29 670.122 220.29ZM682.43 212.88C684.52 212.88 685.679 214.134 685.679 216.376V222H684.216V216.471C684.216 215.008 683.342 214.21 682.012 214.21C680.264 214.21 679.162 215.559 679.162 217.877V222H677.699V213.07H679.162V215.274C679.599 213.868 680.549 212.88 682.43 212.88ZM696.751 222.19C694.813 222.19 693.369 221.278 692.951 219.435L694.395 218.96C694.642 220.404 695.364 220.898 696.846 220.898C698.195 220.898 698.841 220.518 698.841 219.682C698.841 218.922 698.575 218.656 697.492 218.447L695.744 218.105C694.452 217.858 693.255 217.212 693.255 215.559C693.255 213.944 694.566 212.88 696.542 212.88C698.252 212.88 699.753 213.564 700.133 215.711L698.689 216.11C698.499 214.419 697.777 214.172 696.599 214.172C695.326 214.172 694.737 214.571 694.737 215.445C694.737 216.167 695.003 216.509 695.82 216.661L698.062 217.098C699.373 217.345 700.285 218.01 700.285 219.435C700.285 221.088 698.879 222.19 696.751 222.19ZM708.515 213.07H710.168L705.912 223.558C705.38 224.831 704.81 225.23 703.48 225.23H701.485V223.9H704.658L704.962 223.007L700.991 213.07H702.644L704.848 219.055L705.589 221.202L706.349 219.036L708.515 213.07ZM714.879 222.19C712.941 222.19 711.497 221.278 711.079 219.435L712.523 218.96C712.77 220.404 713.492 220.898 714.974 220.898C716.323 220.898 716.969 220.518 716.969 219.682C716.969 218.922 716.703 218.656 715.62 218.447L713.872 218.105C712.58 217.858 711.383 217.212 711.383 215.559C711.383 213.944 712.694 212.88 714.67 212.88C716.38 212.88 717.881 213.564 718.261 215.711L716.817 216.11C716.627 214.419 715.905 214.172 714.727 214.172C713.454 214.172 712.865 214.571 712.865 215.445C712.865 216.167 713.131 216.509 713.948 216.661L716.19 217.098C717.501 217.345 718.413 218.01 718.413 219.435C718.413 221.088 717.007 222.19 714.879 222.19ZM725.632 214.4H722.782V220.67H725.309V222H723.504C722.193 222 721.319 221.126 721.319 219.815V214.4H719.305V213.07H721.319V210.258H722.782V213.07H725.632V214.4ZM735.158 217.288C735.158 217.554 735.158 217.668 735.139 217.991H728.204C728.299 220.1 729.154 220.936 731.111 220.936C732.574 220.936 733.163 220.575 733.581 219.397L734.949 219.929C734.322 221.506 732.783 222.19 731.111 222.19C728.432 222.19 726.703 220.366 726.703 217.535C726.703 214.761 728.546 212.88 731.035 212.88C733.448 212.88 735.158 214.552 735.158 217.288ZM731.016 214.115C729.306 214.115 728.394 214.97 728.223 216.794H733.695C733.581 214.875 732.821 214.115 731.016 214.115ZM748.784 212.88C750.931 212.88 752.128 214.21 752.128 216.509V222H750.665V216.604C750.665 215.008 749.791 214.21 748.48 214.21C746.466 214.21 745.611 215.787 745.611 218.39V222H744.148V216.471C744.148 215.008 743.274 214.21 741.944 214.21C740.196 214.21 739.094 215.559 739.094 217.877V222H737.631V213.07H739.094V215.274C739.531 213.868 740.481 212.88 742.362 212.88C744.129 212.88 745.231 213.773 745.535 215.407C746.029 213.792 747.093 212.88 748.784 212.88ZM645.477 232.7C648.023 232.7 649.733 234.22 649.733 236.405C649.733 238.59 648.023 240.129 645.477 240.129H642.095V246H640.613V232.7H645.477ZM645.705 238.761C647.472 238.761 648.156 238.096 648.156 236.405C648.156 234.733 647.472 234.087 645.705 234.087H642.095V238.761H645.705ZM656.019 236.899C656.456 236.899 656.817 236.918 657.064 237.032V238.514C656.893 238.419 656.589 238.286 655.829 238.286C653.91 238.286 653.093 240.015 653.093 241.934V246H651.63V237.07H653.093V239.616C653.416 238.134 654.214 236.899 656.019 236.899ZM662.519 236.88C665.084 236.88 667.136 238.742 667.136 241.535C667.136 244.328 665.084 246.19 662.519 246.19C659.954 246.19 657.902 244.328 657.902 241.535C657.902 238.742 659.954 236.88 662.519 236.88ZM662.519 244.86C664.628 244.86 665.635 243.796 665.635 241.535C665.635 239.274 664.628 238.21 662.519 238.21C660.41 238.21 659.403 239.274 659.403 241.535C659.403 243.796 660.41 244.86 662.519 244.86ZM674.606 238.4H671.756V244.67H674.283V246H672.478C671.167 246 670.293 245.126 670.293 243.815V238.4H668.279V237.07H670.293V234.258H671.756V237.07H674.606V238.4ZM680.294 236.88C682.859 236.88 684.911 238.742 684.911 241.535C684.911 244.328 682.859 246.19 680.294 246.19C677.729 246.19 675.677 244.328 675.677 241.535C675.677 238.742 677.729 236.88 680.294 236.88ZM680.294 244.86C682.403 244.86 683.41 243.796 683.41 241.535C683.41 239.274 682.403 238.21 680.294 238.21C678.185 238.21 677.178 239.274 677.178 241.535C677.178 243.796 678.185 244.86 680.294 244.86ZM692.382 238.4H689.532V244.67H692.059V246H690.254C688.943 246 688.069 245.126 688.069 243.815V238.4H686.055V237.07H688.069V234.258H689.532V237.07H692.382V238.4ZM700.592 237.07H702.245L697.989 247.558C697.457 248.831 696.887 249.23 695.557 249.23H693.562V247.9H696.735L697.039 247.007L693.068 237.07H694.721L696.925 243.055L697.666 245.202L698.426 243.036L700.592 237.07ZM708.984 236.88C711.549 236.88 713.259 238.742 713.259 241.535C713.259 244.328 711.549 246.19 708.984 246.19C707.445 246.19 706.267 245.449 705.602 244.176V249.23H704.139V237.07H705.602V238.894C706.267 237.621 707.445 236.88 708.984 236.88ZM708.642 244.86C710.77 244.86 711.758 243.796 711.758 241.535C711.758 239.274 710.77 238.21 708.642 238.21C706.514 238.21 705.526 239.274 705.526 241.535C705.526 243.796 706.514 244.86 708.642 244.86ZM716.496 234.866C715.812 234.866 715.413 234.467 715.394 233.783C715.375 233.118 715.774 232.757 716.496 232.757C717.161 232.757 717.541 233.118 717.56 233.783C717.579 234.467 717.199 234.866 716.496 234.866ZM715.736 246V237.07H717.199V246H715.736ZM725.161 236.88C727.251 236.88 728.41 238.134 728.41 240.376V246H726.947V240.471C726.947 239.008 726.073 238.21 724.743 238.21C722.995 238.21 721.893 239.559 721.893 241.877V246H720.43V237.07H721.893V239.274C722.33 237.868 723.28 236.88 725.161 236.88ZM738.119 237.07H739.582V245.582C739.582 247.881 737.929 249.42 735.231 249.42C732.951 249.42 731.526 248.603 730.899 246.893L732.305 246.228C732.818 247.748 733.407 248.128 735.231 248.128C737.283 248.128 738.119 247.311 738.119 245.582V243.739C737.511 244.917 736.39 245.639 734.908 245.639C732.514 245.639 730.785 243.834 730.785 241.269C730.785 238.685 732.514 236.88 734.908 236.88C736.39 236.88 737.511 237.602 738.119 238.78V237.07ZM735.231 244.29C737.264 244.29 738.233 243.321 738.233 241.269C738.233 239.198 737.283 238.21 735.269 238.21C733.236 238.21 732.286 239.198 732.286 241.269C732.286 243.321 733.236 244.29 735.231 244.29ZM636.405 270.19C633.764 270.19 631.731 269.012 631.313 265.934L632.89 265.44C633.118 268.233 634.372 268.879 636.481 268.879C638.59 268.879 639.578 268.195 639.578 266.466C639.578 264.756 638.951 264.604 637.013 264.186L635.094 263.768C633.574 263.445 631.693 262.97 631.693 260.253C631.693 258.011 633.498 256.51 636.158 256.51C639.331 256.51 641.003 258.201 640.984 260.88L639.521 261.336C639.597 258.467 638.248 257.821 636.082 257.821C634.22 257.821 633.308 258.448 633.308 260.082C633.308 261.697 633.992 262.039 635.398 262.343L637.678 262.837C639.502 263.236 641.193 263.692 641.193 266.238C641.193 268.613 639.331 270.19 636.405 270.19ZM647.527 260.88C650.092 260.88 652.144 262.742 652.144 265.535C652.144 268.328 650.092 270.19 647.527 270.19C644.962 270.19 642.91 268.328 642.91 265.535C642.91 262.742 644.962 260.88 647.527 260.88ZM647.527 268.86C649.636 268.86 650.643 267.796 650.643 265.535C650.643 263.274 649.636 262.21 647.527 262.21C645.418 262.21 644.411 263.274 644.411 265.535C644.411 267.796 645.418 268.86 647.527 268.86ZM661.039 261.07H662.502V270H661.039V267.796C660.602 269.202 659.652 270.19 657.771 270.19C655.681 270.19 654.522 268.936 654.522 266.694V261.07H655.985V266.599C655.985 268.062 656.859 268.86 658.189 268.86C659.937 268.86 661.039 267.511 661.039 265.193V261.07ZM670.462 260.88C672.552 260.88 673.711 262.134 673.711 264.376V270H672.248V264.471C672.248 263.008 671.374 262.21 670.044 262.21C668.296 262.21 667.194 263.559 667.194 265.877V270H665.731V261.07H667.194V263.274C667.631 261.868 668.581 260.88 670.462 260.88ZM683.742 256.7H685.205V270H683.742V268.176C683.077 269.449 681.899 270.19 680.36 270.19C677.795 270.19 676.085 268.328 676.085 265.535C676.085 262.742 677.795 260.88 680.36 260.88C681.899 260.88 683.077 261.621 683.742 262.894V256.7ZM680.702 268.86C682.83 268.86 683.818 267.796 683.818 265.535C683.818 263.274 682.83 262.21 680.702 262.21C678.574 262.21 677.586 263.274 677.586 265.535C677.586 267.796 678.574 268.86 680.702 268.86ZM700.275 256.7H701.738V270H700.275V268.176C699.61 269.449 698.432 270.19 696.893 270.19C694.328 270.19 692.618 268.328 692.618 265.535C692.618 262.742 694.328 260.88 696.893 260.88C698.432 260.88 699.61 261.621 700.275 262.894V256.7ZM697.235 268.86C699.363 268.86 700.351 267.796 700.351 265.535C700.351 263.274 699.363 262.21 697.235 262.21C695.107 262.21 694.119 263.274 694.119 265.535C694.119 267.796 695.107 268.86 697.235 268.86ZM712.669 265.288C712.669 265.554 712.669 265.668 712.65 265.991H705.715C705.81 268.1 706.665 268.936 708.622 268.936C710.085 268.936 710.674 268.575 711.092 267.397L712.46 267.929C711.833 269.506 710.294 270.19 708.622 270.19C705.943 270.19 704.214 268.366 704.214 265.535C704.214 262.761 706.057 260.88 708.546 260.88C710.959 260.88 712.669 262.552 712.669 265.288ZM708.527 262.115C706.817 262.115 705.905 262.97 705.734 264.794H711.206C711.092 262.875 710.332 262.115 708.527 262.115ZM718.144 270.19C716.206 270.19 714.762 269.278 714.344 267.435L715.788 266.96C716.035 268.404 716.757 268.898 718.239 268.898C719.588 268.898 720.234 268.518 720.234 267.682C720.234 266.922 719.968 266.656 718.885 266.447L717.137 266.105C715.845 265.858 714.648 265.212 714.648 263.559C714.648 261.944 715.959 260.88 717.935 260.88C719.645 260.88 721.146 261.564 721.526 263.711L720.082 264.11C719.892 262.419 719.17 262.172 717.992 262.172C716.719 262.172 716.13 262.571 716.13 263.445C716.13 264.167 716.396 264.509 717.213 264.661L719.455 265.098C720.766 265.345 721.678 266.01 721.678 267.435C721.678 269.088 720.272 270.19 718.144 270.19ZM724.846 258.866C724.162 258.866 723.763 258.467 723.744 257.783C723.725 257.118 724.124 256.757 724.846 256.757C725.511 256.757 725.891 257.118 725.91 257.783C725.929 258.467 725.549 258.866 724.846 258.866ZM724.086 270V261.07H725.549V270H724.086ZM735.354 261.07H736.817V269.582C736.817 271.881 735.164 273.42 732.466 273.42C730.186 273.42 728.761 272.603 728.134 270.893L729.54 270.228C730.053 271.748 730.642 272.128 732.466 272.128C734.518 272.128 735.354 271.311 735.354 269.582V267.739C734.746 268.917 733.625 269.639 732.143 269.639C729.749 269.639 728.02 267.834 728.02 265.269C728.02 262.685 729.749 260.88 732.143 260.88C733.625 260.88 734.746 261.602 735.354 262.78V261.07ZM732.466 268.29C734.499 268.29 735.468 267.321 735.468 265.269C735.468 263.198 734.518 262.21 732.504 262.21C730.471 262.21 729.521 263.198 729.521 265.269C729.521 267.321 730.471 268.29 732.466 268.29ZM744.774 260.88C746.864 260.88 748.023 262.134 748.023 264.376V270H746.56V264.471C746.56 263.008 745.686 262.21 744.356 262.21C742.608 262.21 741.506 263.559 741.506 265.877V270H740.043V261.07H741.506V263.274C741.943 261.868 742.893 260.88 744.774 260.88Z" fill="black" fill-opacity="0.5"/>
<circle cx="1031.5" cy="213.5" r="89" stroke="black"/>
<path d="M1001.33 208V192.6H1006.96C1012.15 192.6 1015.25 195.68 1015.25 200.3C1015.25 204.92 1012.15 208 1006.96 208H1001.33ZM1003.66 205.932H1006.92C1011.07 205.932 1012.86 204.238 1012.86 200.3C1012.86 196.362 1011.07 194.668 1006.92 194.668H1003.66V205.932ZM1027.32 202.5C1027.32 202.83 1027.32 203.006 1027.3 203.424H1019.42C1019.58 205.558 1020.48 206.394 1022.46 206.394C1023.93 206.394 1024.57 206.02 1025.06 204.744L1027.08 205.492C1026.33 207.34 1024.59 208.22 1022.44 208.22C1019.23 208.22 1017.14 206.064 1017.14 202.742C1017.14 199.442 1019.29 197.22 1022.33 197.22C1025.28 197.22 1027.32 199.266 1027.32 202.5ZM1022.35 198.98C1020.59 198.98 1019.64 199.86 1019.45 201.774H1025.08C1024.99 199.75 1024.18 198.98 1022.35 198.98ZM1043.34 197.22C1045.82 197.22 1047.12 198.76 1047.12 201.62V208H1044.88V201.752C1044.88 200.102 1044.02 199.266 1042.59 199.266C1040.59 199.266 1039.64 200.762 1039.64 203.578V208H1037.4V201.664C1037.4 200.08 1036.52 199.266 1035.09 199.266C1033.31 199.266 1032.16 200.586 1032.16 203.028V208H1029.92V197.44H1032.16V199.992C1032.67 198.298 1033.79 197.22 1035.86 197.22C1037.88 197.22 1039.11 198.21 1039.51 200.058C1040.13 198.21 1041.4 197.22 1043.34 197.22ZM1055.19 197.22C1058.27 197.22 1060.75 199.376 1060.75 202.72C1060.75 206.064 1058.27 208.22 1055.19 208.22C1052.13 208.22 1049.64 206.064 1049.64 202.72C1049.64 199.376 1052.13 197.22 1055.19 197.22ZM1055.19 206.174C1057.43 206.174 1058.49 205.074 1058.49 202.72C1058.49 200.366 1057.43 199.266 1055.19 199.266C1052.96 199.266 1051.91 200.366 1051.91 202.72C1051.91 205.074 1052.96 206.174 1055.19 206.174ZM990.975 222.734H983.539V226.628H990.557V228.74H983.539V233.866H990.975V236H981.229V220.6H990.975V222.734ZM999.306 230.742L1003.05 236H1000.32L998.58 233.162L997.898 231.842L997.238 233.14L995.5 236H992.794L996.512 230.742L992.86 225.44H995.588L997.238 228.234L997.942 229.598L998.58 228.3L1000.27 225.44H1003L999.306 230.742ZM1011.12 225.22C1013.6 225.22 1014.9 226.716 1014.9 229.51V236H1012.66V229.664C1012.66 228.08 1011.78 227.266 1010.35 227.266C1008.57 227.266 1007.42 228.586 1007.42 231.028V236H1005.18V220.6H1007.42V227.992C1007.93 226.298 1009.05 225.22 1011.12 225.22ZM1019.38 223.262C1018.42 223.262 1017.87 222.712 1017.84 221.744C1017.82 220.798 1018.39 220.292 1019.38 220.292C1020.35 220.292 1020.9 220.798 1020.92 221.744C1020.95 222.712 1020.4 223.262 1019.38 223.262ZM1018.24 236V225.44H1020.48V236H1018.24ZM1030.07 225.22C1033.06 225.22 1034.93 227.42 1034.93 230.72C1034.93 234.02 1033.04 236.22 1030.01 236.22C1028.22 236.22 1026.9 235.318 1026.18 233.778V236H1023.93V220.6H1026.18V227.684C1026.9 226.122 1028.27 225.22 1030.07 225.22ZM1029.39 234.174C1031.61 234.174 1032.67 233.074 1032.67 230.72C1032.67 228.366 1031.61 227.266 1029.39 227.266C1027.15 227.266 1026.09 228.366 1026.09 230.72C1026.09 233.074 1027.15 234.174 1029.39 234.174ZM1038.7 223.262C1037.73 223.262 1037.18 222.712 1037.16 221.744C1037.14 220.798 1037.71 220.292 1038.7 220.292C1039.67 220.292 1040.22 220.798 1040.24 221.744C1040.26 222.712 1039.71 223.262 1038.7 223.262ZM1037.55 236V225.44H1039.8V236H1037.55ZM1049.56 227.442H1046.35V233.998H1049.23V236H1047.03C1045.27 236 1044.11 234.834 1044.11 233.074V227.442H1041.88V225.44H1044.11V222.206H1046.35V225.44H1049.56V227.442ZM1052.94 223.262C1051.98 223.262 1051.43 222.712 1051.4 221.744C1051.38 220.798 1051.95 220.292 1052.94 220.292C1053.91 220.292 1054.46 220.798 1054.48 221.744C1054.51 222.712 1053.96 223.262 1052.94 223.262ZM1051.8 236V225.44H1054.04V236H1051.8ZM1062.22 225.22C1065.3 225.22 1067.79 227.376 1067.79 230.72C1067.79 234.064 1065.3 236.22 1062.22 236.22C1059.16 236.22 1056.68 234.064 1056.68 230.72C1056.68 227.376 1059.16 225.22 1062.22 225.22ZM1062.22 234.174C1064.47 234.174 1065.52 233.074 1065.52 230.72C1065.52 228.366 1064.47 227.266 1062.22 227.266C1060 227.266 1058.94 228.366 1058.94 230.72C1058.94 233.074 1060 234.174 1062.22 234.174ZM1076.34 225.22C1078.83 225.22 1080.13 226.716 1080.13 229.51V236H1077.88V229.664C1077.88 228.08 1077 227.266 1075.57 227.266C1073.79 227.266 1072.65 228.586 1072.65 231.028V236H1070.4V225.44H1072.65V227.992C1073.15 226.298 1074.28 225.22 1076.34 225.22Z" fill="black"/>
<path d="M308.354 212.354C308.549 212.158 308.549 211.842 308.354 211.646L305.172 208.464C304.976 208.269 304.66 208.269 304.464 208.464C304.269 208.66 304.269 208.976 304.464 209.172L307.293 212L304.464 214.828C304.269 215.024 304.269 215.34 304.464 215.536C304.66 215.731 304.976 215.731 305.172 215.536L308.354 212.354ZM220 212L220 212.5L308 212.5L308 212L308 211.5L220 211.5L220 212Z" fill="black"/>
<path d="M933.354 212.354C933.549 212.158 933.549 211.842 933.354 211.646L930.172 208.464C929.976 208.269 929.66 208.269 929.464 208.464C929.269 208.66 929.269 208.976 929.464 209.172L932.293 212L929.464 214.828C929.269 215.024 929.269 215.34 929.464 215.536C929.66 215.731 929.976 215.731 930.172 215.536L933.354 212.354ZM845 212L845 212.5L933 212.5L933 212L933 211.5L845 211.5L845 212Z" fill="black"/>
<circle cx="1268.5" cy="89.5" r="89.5" fill="#E1E1E1"/>
<path d="M1218.56 69.3H1222.41V84H1220.18V70.77L1219.53 73.29L1215.52 84H1212.79L1208.76 73.29L1208.13 70.875V84H1205.9V69.3H1209.74L1212.91 78.162L1214.15 82.068L1215.39 78.162L1218.56 69.3ZM1227.02 71.841C1226.1 71.841 1225.57 71.316 1225.55 70.392C1225.53 69.489 1226.08 69.006 1227.02 69.006C1227.95 69.006 1228.47 69.489 1228.49 70.392C1228.51 71.316 1227.99 71.841 1227.02 71.841ZM1225.93 84V73.92H1228.07V84H1225.93ZM1231.37 84V69.3H1233.51V84H1231.37ZM1244.36 73.92H1246.5V84H1244.36V81.921C1243.67 83.37 1242.41 84.21 1240.73 84.21C1237.83 84.21 1236.02 82.11 1236.02 78.96C1236.02 75.81 1237.81 73.71 1240.64 73.71C1242.37 73.71 1243.67 74.55 1244.36 76.041V73.92ZM1241.32 82.257C1243.46 82.257 1244.47 81.207 1244.47 78.96C1244.47 76.713 1243.46 75.663 1241.32 75.663C1239.17 75.663 1238.19 76.713 1238.19 78.96C1238.19 81.207 1239.17 82.257 1241.32 82.257ZM1255.47 73.71C1257.85 73.71 1259.08 75.138 1259.08 77.805V84H1256.94V77.952C1256.94 76.44 1256.1 75.663 1254.74 75.663C1253.04 75.663 1251.94 76.923 1251.94 79.254V84H1249.8V73.92H1251.94V76.356C1252.43 74.739 1253.5 73.71 1255.47 73.71ZM1267.77 84V69.3H1273.15C1278.1 69.3 1281.07 72.24 1281.07 76.65C1281.07 81.06 1278.1 84 1273.15 84H1267.77ZM1270 82.026H1273.11C1277.08 82.026 1278.78 80.409 1278.78 76.65C1278.78 72.891 1277.08 71.274 1273.11 71.274H1270V82.026ZM1292.59 78.75C1292.59 79.065 1292.59 79.233 1292.56 79.632H1285.05C1285.19 81.669 1286.05 82.467 1287.94 82.467C1289.35 82.467 1289.96 82.11 1290.42 80.892L1292.35 81.606C1291.64 83.37 1289.98 84.21 1287.92 84.21C1284.86 84.21 1282.86 82.152 1282.86 78.981C1282.86 75.831 1284.92 73.71 1287.82 73.71C1290.63 73.71 1292.59 75.663 1292.59 78.75ZM1287.84 75.39C1286.16 75.39 1285.26 76.23 1285.07 78.057H1290.44C1290.36 76.125 1289.58 75.39 1287.84 75.39ZM1298.51 84.21C1296.11 84.21 1294.52 83.013 1294.14 81.165L1296.2 80.556C1296.43 82.026 1297.16 82.488 1298.65 82.488C1299.91 82.488 1300.59 82.089 1300.59 81.291C1300.59 80.535 1300.29 80.241 1299.09 80.031L1297.27 79.695C1295.63 79.422 1294.43 78.561 1294.43 76.755C1294.43 74.886 1295.92 73.71 1298.3 73.71C1300.63 73.71 1302.1 74.655 1302.48 76.755L1300.5 77.259C1300.33 75.684 1299.68 75.39 1298.38 75.39C1297.16 75.39 1296.57 75.789 1296.57 76.629C1296.57 77.322 1296.87 77.679 1297.83 77.826L1300.1 78.225C1301.68 78.498 1302.71 79.38 1302.71 80.997C1302.71 82.971 1301.11 84.21 1298.51 84.21ZM1306.2 71.841C1305.28 71.841 1304.75 71.316 1304.73 70.392C1304.71 69.489 1305.26 69.006 1306.2 69.006C1307.13 69.006 1307.65 69.489 1307.67 70.392C1307.69 71.316 1307.17 71.841 1306.2 71.841ZM1305.11 84V73.92H1307.25V84H1305.11ZM1317.75 73.92H1319.87V83.139C1319.87 85.974 1317.96 87.78 1314.79 87.78C1312.23 87.78 1310.48 86.856 1309.85 84.987L1311.91 84.105C1312.39 85.617 1313.11 85.995 1314.85 85.995C1316.85 85.995 1317.75 85.176 1317.75 83.391V81.354C1317.08 82.698 1315.86 83.496 1314.2 83.496C1311.55 83.496 1309.77 81.501 1309.77 78.603C1309.77 75.705 1311.53 73.71 1314.18 73.71C1315.84 73.71 1317.08 74.529 1317.75 75.915V73.92ZM1314.87 81.585C1316.89 81.585 1317.85 80.64 1317.85 78.624C1317.85 76.587 1316.91 75.621 1314.89 75.621C1312.88 75.621 1311.93 76.587 1311.93 78.624C1311.93 80.64 1312.88 81.585 1314.87 81.585ZM1328.83 73.71C1331.2 73.71 1332.44 75.138 1332.44 77.805V84H1330.3V77.952C1330.3 76.44 1329.46 75.663 1328.09 75.663C1326.39 75.663 1325.3 76.923 1325.3 79.254V84H1323.16V73.92H1325.3V76.356C1325.78 74.739 1326.85 73.71 1328.83 73.71ZM1242.17 95.3H1244.63L1240.95 110H1238.08L1234.84 99.899L1234.23 97.484L1233.62 99.899L1230.41 110H1227.51L1223.84 95.3H1226.32L1228.52 105.275L1228.98 107.774L1229.65 105.254L1232.7 95.3H1235.77L1238.81 105.275L1239.5 107.858L1239.97 105.275L1242.17 95.3ZM1254.98 104.75C1254.98 105.065 1254.98 105.233 1254.96 105.632H1247.45C1247.59 107.669 1248.45 108.467 1250.34 108.467C1251.75 108.467 1252.36 108.11 1252.82 106.892L1254.75 107.606C1254.04 109.37 1252.38 110.21 1250.32 110.21C1247.26 110.21 1245.26 108.152 1245.26 104.981C1245.26 101.831 1247.32 99.71 1250.22 99.71C1253.03 99.71 1254.98 101.663 1254.98 104.75ZM1250.24 101.39C1248.56 101.39 1247.66 102.23 1247.47 104.057H1252.84C1252.76 102.125 1251.98 101.39 1250.24 101.39ZM1266.41 104.75C1266.41 105.065 1266.41 105.233 1266.39 105.632H1258.87C1259.02 107.669 1259.88 108.467 1261.77 108.467C1263.17 108.467 1263.78 108.11 1264.24 106.892L1266.18 107.606C1265.46 109.37 1263.8 110.21 1261.75 110.21C1258.68 110.21 1256.68 108.152 1256.68 104.981C1256.68 101.831 1258.74 99.71 1261.64 99.71C1264.45 99.71 1266.41 101.663 1266.41 104.75ZM1261.66 101.39C1259.98 101.39 1259.08 102.23 1258.89 104.057H1264.27C1264.18 102.125 1263.4 101.39 1261.66 101.39ZM1275.86 110L1272.96 105.443L1271.03 107.501V110H1268.88V95.3H1271.03V105.611L1272.54 103.406L1275.48 99.92H1278.19L1274.3 104.015L1278.44 110H1275.86ZM1286.83 98.198C1287.7 98.219 1288.28 98.849 1288.3 99.731C1288.3 100.655 1287.76 101.18 1286.77 101.18C1285.81 101.18 1285.28 100.655 1285.26 99.731C1285.26 99.437 1285.28 99.059 1285.66 98.408L1287.4 95.3H1289.48L1286.83 98.198ZM1292.55 108.068H1301.07V110H1290.55V108.089L1295.32 104.54C1297.08 103.217 1298.7 101.705 1298.7 99.836C1298.7 97.967 1297.75 97.085 1295.8 97.085C1293.53 97.085 1292.5 98.366 1292.9 101.432L1290.53 101.18C1290.13 97.211 1292.34 95.09 1295.78 95.09C1298.89 95.09 1300.99 96.917 1300.99 99.668C1300.99 102.608 1298.85 104.54 1296.54 105.8L1292.55 108.068ZM1309.19 100.193C1311.96 100.193 1313.81 102.104 1313.81 105.086C1313.81 108.173 1311.58 110.21 1308.24 110.21C1305.54 110.21 1303.2 108.887 1302.7 106.157L1304.93 105.464C1305.2 107.375 1306.42 108.215 1308.27 108.215C1310.49 108.215 1311.54 107.207 1311.54 105.086C1311.54 103.049 1310.6 102.083 1308.58 102.083C1307.05 102.083 1305.91 102.818 1305.33 104.141L1303.27 103.679L1303.96 95.3H1313.07V97.232H1309.44L1305.96 96.938L1305.41 102.608C1305.98 100.928 1307.57 100.193 1309.19 100.193Z" fill="black"/>
<circle cx="1268.5" cy="340.5" r="89.5" fill="#E1E1E1"/>
<path d="M1222.53 333.173C1225.55 333.173 1227 331.955 1227.48 328.847L1229.67 329.372C1229 333.173 1226.31 335.21 1222.53 335.21C1218.37 335.21 1214.99 332.081 1214.99 327.608C1214.99 323.135 1218.37 320.09 1222.53 320.09C1226.31 320.09 1229 322.127 1229.67 325.928L1227.48 326.453C1227 323.345 1225.55 322.127 1222.53 322.127C1219.13 322.127 1217.3 324.038 1217.3 327.608C1217.3 331.241 1219.13 333.173 1222.53 333.173ZM1236.6 324.71C1239.54 324.71 1241.92 326.768 1241.92 329.96C1241.92 333.152 1239.54 335.21 1236.6 335.21C1233.68 335.21 1231.31 333.152 1231.31 329.96C1231.31 326.768 1233.68 324.71 1236.6 324.71ZM1236.6 333.257C1238.75 333.257 1239.75 332.207 1239.75 329.96C1239.75 327.713 1238.75 326.663 1236.6 326.663C1234.48 326.663 1233.47 327.713 1233.47 329.96C1233.47 332.207 1234.48 333.257 1236.6 333.257ZM1244.41 335V320.3H1246.56V335H1244.41ZM1257.41 324.92H1259.55V335H1257.41V332.921C1256.71 334.37 1255.45 335.21 1253.77 335.21C1250.88 335.21 1249.07 333.11 1249.07 329.96C1249.07 326.81 1250.86 324.71 1253.69 324.71C1255.41 324.71 1256.71 325.55 1257.41 327.041V324.92ZM1254.36 333.257C1256.5 333.257 1257.51 332.207 1257.51 329.96C1257.51 327.713 1256.5 326.663 1254.36 326.663C1252.22 326.663 1251.23 327.713 1251.23 329.96C1251.23 332.207 1252.22 333.257 1254.36 333.257ZM1268.71 324.71C1271.56 324.71 1273.35 326.81 1273.35 329.96C1273.35 333.11 1271.54 335.21 1268.65 335.21C1266.94 335.21 1265.68 334.349 1264.99 332.879V335H1262.85V320.3H1264.99V327.062C1265.68 325.571 1266.99 324.71 1268.71 324.71ZM1268.06 333.257C1270.18 333.257 1271.19 332.207 1271.19 329.96C1271.19 327.713 1270.18 326.663 1268.06 326.663C1265.92 326.663 1264.91 327.713 1264.91 329.96C1264.91 332.207 1265.92 333.257 1268.06 333.257ZM1293.24 324.92H1295.57L1292.67 335H1290.26L1288.24 329.225L1287.7 327.335L1287.13 329.246L1285.09 335H1282.7L1279.78 324.92H1282.13L1283.62 331.052L1284.02 333.11L1284.61 331.052L1286.58 324.92H1288.77L1290.74 331.031L1291.33 333.152L1291.75 331.052L1293.24 324.92ZM1298.62 322.841C1297.7 322.841 1297.17 322.316 1297.15 321.392C1297.13 320.489 1297.68 320.006 1298.62 320.006C1299.54 320.006 1300.07 320.489 1300.09 321.392C1300.11 322.316 1299.59 322.841 1298.62 322.841ZM1297.53 335V324.92H1299.67V335H1297.53ZM1308.99 326.831H1305.92V333.089H1308.68V335H1306.58C1304.9 335 1303.78 333.887 1303.78 332.207V326.831H1301.66V324.92H1303.78V321.833H1305.92V324.92H1308.99V326.831ZM1316.8 324.71C1319.17 324.71 1320.41 326.138 1320.41 328.805V335H1318.27V328.952C1318.27 327.44 1317.43 326.663 1316.06 326.663C1314.36 326.663 1313.27 327.923 1313.27 330.254V335H1311.13V320.3H1313.27V327.356C1313.75 325.739 1314.82 324.71 1316.8 324.71ZM1218.24 361V346.3H1223.62C1228.57 346.3 1231.53 349.24 1231.53 353.65C1231.53 358.06 1228.57 361 1223.62 361H1218.24ZM1220.47 359.026H1223.58C1227.54 359.026 1229.25 357.409 1229.25 353.65C1229.25 349.891 1227.54 348.274 1223.58 348.274H1220.47V359.026ZM1238.62 350.71C1241.56 350.71 1243.94 352.768 1243.94 355.96C1243.94 359.152 1241.56 361.21 1238.62 361.21C1235.7 361.21 1233.33 359.152 1233.33 355.96C1233.33 352.768 1235.7 350.71 1238.62 350.71ZM1238.62 359.257C1240.77 359.257 1241.77 358.207 1241.77 355.96C1241.77 353.713 1240.77 352.663 1238.62 352.663C1236.5 352.663 1235.49 353.713 1235.49 355.96C1235.49 358.207 1236.5 359.257 1238.62 359.257ZM1252.46 352.831H1249.39V359.089H1252.15V361H1250.05C1248.37 361 1247.25 359.887 1247.25 358.207V352.831H1245.13V350.92H1247.25V347.833H1249.39V350.92H1252.46V352.831ZM1262.03 346.3H1264.17V361H1262.03V358.879C1261.34 360.349 1260.08 361.21 1258.38 361.21C1255.48 361.21 1253.67 359.11 1253.67 355.96C1253.67 352.81 1255.46 350.71 1258.32 350.71C1260.04 350.71 1261.34 351.571 1262.03 353.062V346.3ZM1258.97 359.257C1261.11 359.257 1262.12 358.207 1262.12 355.96C1262.12 353.713 1261.11 352.663 1258.97 352.663C1256.85 352.663 1255.84 353.713 1255.84 355.96C1255.84 358.207 1256.85 359.257 1258.97 359.257ZM1271.97 350.71C1274.91 350.71 1277.28 352.768 1277.28 355.96C1277.28 359.152 1274.91 361.21 1271.97 361.21C1269.05 361.21 1266.68 359.152 1266.68 355.96C1266.68 352.768 1269.05 350.71 1271.97 350.71ZM1271.97 359.257C1274.11 359.257 1275.12 358.207 1275.12 355.96C1275.12 353.713 1274.11 352.663 1271.97 352.663C1269.85 352.663 1268.84 353.713 1268.84 355.96C1268.84 358.207 1269.85 359.257 1271.97 359.257ZM1285.81 352.831H1282.74V359.089H1285.49V361H1283.39C1281.71 361 1280.6 359.887 1280.6 358.207V352.831H1278.48V350.92H1280.6V347.833H1282.74V350.92H1285.81V352.831ZM1295.38 346.3H1297.52V361H1295.38V358.879C1294.69 360.349 1293.43 361.21 1291.72 361.21C1288.83 361.21 1287.02 359.11 1287.02 355.96C1287.02 352.81 1288.81 350.71 1291.66 350.71C1293.38 350.71 1294.69 351.571 1295.38 353.062V346.3ZM1292.31 359.257C1294.45 359.257 1295.46 358.207 1295.46 355.96C1295.46 353.713 1294.45 352.663 1292.31 352.663C1290.19 352.663 1289.18 353.713 1289.18 355.96C1289.18 358.207 1290.19 359.257 1292.31 359.257ZM1305.31 350.71C1308.25 350.71 1310.63 352.768 1310.63 355.96C1310.63 359.152 1308.25 361.21 1305.31 361.21C1302.4 361.21 1300.02 359.152 1300.02 355.96C1300.02 352.768 1302.4 350.71 1305.31 350.71ZM1305.31 359.257C1307.46 359.257 1308.46 358.207 1308.46 355.96C1308.46 353.713 1307.46 352.663 1305.31 352.663C1303.19 352.663 1302.19 353.713 1302.19 355.96C1302.19 358.207 1303.19 359.257 1305.31 359.257ZM1319.15 352.831H1316.09V359.089H1318.84V361H1316.74C1315.06 361 1313.94 359.887 1313.94 358.207V352.831H1311.82V350.92H1313.94V347.833H1316.09V350.92H1319.15V352.831Z" fill="black"/>
<path d="M1196.5 160.034C1196.52 159.759 1196.31 159.52 1196.03 159.501L1191.54 159.192C1191.27 159.173 1191.03 159.381 1191.01 159.657C1190.99 159.932 1191.2 160.171 1191.48 160.19L1195.47 160.464L1195.19 164.455C1195.17 164.731 1195.38 164.969 1195.66 164.988C1195.93 165.007 1196.17 164.799 1196.19 164.524L1196.5 160.034ZM1130 217.5L1129.67 217.123L1129.24 217.5L1129.67 217.877L1130 217.5ZM1196.03 275.499C1196.31 275.48 1196.52 275.241 1196.5 274.966L1196.19 270.476C1196.17 270.201 1195.93 269.993 1195.66 270.012C1195.38 270.031 1195.17 270.269 1195.19 270.545L1195.47 274.536L1191.48 274.81C1191.2 274.829 1190.99 275.068 1191.01 275.343C1191.03 275.619 1191.27 275.827 1191.54 275.808L1196.03 275.499ZM1196 160L1195.67 159.623L1129.67 217.123L1130 217.5L1130.33 217.877L1196.33 160.377L1196 160ZM1130 217.5L1129.67 217.877L1195.67 275.377L1196 275L1196.33 274.623L1130.33 217.123L1130 217.5Z" fill="black"/>
</svg>
