<svg width="1120" height="211" viewBox="0 0 1120 211" fill="none" xmlns="http://www.w3.org/2000/svg">
<path d="M538.474 97.6H541.928V113H537.418L532.094 103.628L531.214 101.67V113H527.76V97.6H532.446L537.418 106.334L538.474 108.49V97.6ZM555.364 107.412C555.364 107.786 555.364 108.072 555.342 108.556H547.862C548.06 110.052 548.764 110.668 550.172 110.668C551.228 110.668 551.734 110.338 552.262 109.282L555.122 110.294C554.374 112.186 552.724 113.22 550.084 113.22C546.674 113.22 544.386 110.976 544.386 107.588C544.386 104.112 546.63 101.78 549.974 101.78C553.208 101.78 555.364 104.024 555.364 107.412ZM550.04 104.222C548.698 104.222 548.038 104.838 547.862 106.378H552.064C552.042 104.772 551.382 104.222 550.04 104.222ZM567.526 102L563.852 107.5L567.526 113H563.61L562.312 110.492L561.696 108.974L561.124 110.47L559.87 113H555.954L559.628 107.5L555.976 102H559.936L561.124 104.376L561.74 105.96L562.378 104.398L563.61 102H567.526ZM576.391 102H579.735V113H576.391V110.514C575.863 112.318 574.719 113.22 572.915 113.22C570.297 113.22 569.043 111.658 569.043 108.424V102H572.387V108.226C572.387 109.568 573.003 110.184 574.235 110.184C575.555 110.184 576.391 109.326 576.391 107.346V102ZM586.452 113.22C583.416 113.22 581.744 111.592 581.546 110.03L584.648 109.216C584.78 110.492 585.462 110.778 586.672 110.778C587.508 110.778 588.146 110.426 588.146 109.832C588.146 109.26 587.838 108.93 586.562 108.754L584.868 108.512C582.756 108.204 581.722 106.972 581.722 105.146C581.722 102.99 583.372 101.78 586.276 101.78C589.664 101.78 590.786 103.188 591.094 104.816L588.234 105.476C588.124 104.42 587.75 104.068 586.386 104.068C585.528 104.068 585.066 104.42 585.066 105.014C585.066 105.498 585.352 105.85 586.474 105.982L588.454 106.224C590.368 106.466 591.49 107.698 591.49 109.502C591.49 111.878 589.686 113.22 586.452 113.22Z" fill="black"/>
<path d="M50.256 97.6H56.284V113H52.874V99.844L52.104 103.452L49.222 113H44.822L41.94 103.452L41.17 99.91V113H37.76V97.6H43.788L46.274 106.488L47.022 109.854L47.77 106.51L50.256 97.6ZM67.261 102H70.605V113H67.261V110.536C66.645 112.274 65.391 113.22 63.631 113.22C60.485 113.22 58.747 110.932 58.747 107.522C58.747 104.068 60.397 101.78 63.411 101.78C65.281 101.78 66.623 102.748 67.261 104.552V102ZM64.687 110.184C66.513 110.184 67.371 109.326 67.371 107.522C67.371 105.674 66.513 104.816 64.687 104.816C62.927 104.816 62.091 105.674 62.091 107.522C62.091 109.326 62.927 110.184 64.687 110.184ZM87.8473 101.78C90.3333 101.78 91.4993 103.32 91.4993 106.576V113H88.1553V106.774C88.1553 105.52 87.5613 104.816 86.3073 104.816C84.9873 104.816 84.1513 105.652 84.1513 108.094V113H80.8073V106.774C80.8073 105.432 80.1913 104.816 78.9593 104.816C77.6393 104.816 76.8033 105.674 76.8033 107.654V113H73.4593V102H76.8033V104.486C77.3313 102.682 78.4753 101.78 80.2793 101.78C82.2373 101.78 83.4473 102.66 83.9093 104.464C84.6353 102.616 85.9993 101.78 87.8473 101.78ZM108.644 101.78C111.13 101.78 112.296 103.32 112.296 106.576V113H108.952V106.774C108.952 105.52 108.358 104.816 107.104 104.816C105.784 104.816 104.948 105.652 104.948 108.094V113H101.604V106.774C101.604 105.432 100.988 104.816 99.7562 104.816C98.4362 104.816 97.6002 105.674 97.6002 107.654V113H94.2562V102H97.6002V104.486C98.1282 102.682 99.2722 101.78 101.076 101.78C103.034 101.78 104.244 102.66 104.706 104.464C105.432 102.616 106.796 101.78 108.644 101.78ZM122.841 102H126.185V113H122.841V110.536C122.225 112.274 120.971 113.22 119.211 113.22C116.065 113.22 114.327 110.932 114.327 107.522C114.327 104.068 115.977 101.78 118.991 101.78C120.861 101.78 122.203 102.748 122.841 104.552V102ZM120.267 110.184C122.093 110.184 122.951 109.326 122.951 107.522C122.951 105.674 122.093 104.816 120.267 104.816C118.507 104.816 117.671 105.674 117.671 107.522C117.671 109.326 118.507 110.184 120.267 110.184ZM129.039 113V97.6H132.383V113H129.039ZM139.098 113.22C136.062 113.22 134.39 111.592 134.192 110.03L137.294 109.216C137.426 110.492 138.108 110.778 139.318 110.778C140.154 110.778 140.792 110.426 140.792 109.832C140.792 109.26 140.484 108.93 139.208 108.754L137.514 108.512C135.402 108.204 134.368 106.972 134.368 105.146C134.368 102.99 136.018 101.78 138.922 101.78C142.31 101.78 143.432 103.188 143.74 104.816L140.88 105.476C140.77 104.42 140.396 104.068 139.032 104.068C138.174 104.068 137.712 104.42 137.712 105.014C137.712 105.498 137.998 105.85 139.12 105.982L141.1 106.224C143.014 106.466 144.136 107.698 144.136 109.502C144.136 111.878 142.332 113.22 139.098 113.22Z" fill="black"/>
<path d="M268.91 122.614C272.496 122.614 274.102 121.25 274.63 117.774L276.302 118.258C275.554 122.152 272.958 124.22 268.91 124.22C264.642 124.22 261.1 120.876 261.1 116.234C261.1 111.592 264.642 108.38 268.91 108.38C272.958 108.38 275.554 110.448 276.302 114.342L274.63 114.826C274.102 111.35 272.496 109.986 268.91 109.986C265.082 109.986 262.926 112.23 262.926 116.234C262.926 120.326 265.082 122.614 268.91 122.614ZM284.536 113.44C286.956 113.44 288.297 114.892 288.297 117.488V124H286.604V117.598C286.604 115.904 285.592 114.98 284.052 114.98C282.028 114.98 280.752 116.542 280.752 119.226V124H279.058V108.6H280.752V116.212C281.258 114.584 282.358 113.44 284.536 113.44ZM300.837 118.544C300.837 118.852 300.837 118.984 300.815 119.358H292.785C292.895 121.8 293.885 122.768 296.151 122.768C297.845 122.768 298.527 122.35 299.011 120.986L300.595 121.602C299.869 123.428 298.087 124.22 296.151 124.22C293.049 124.22 291.047 122.108 291.047 118.83C291.047 115.618 293.181 113.44 296.063 113.44C298.857 113.44 300.837 115.376 300.837 118.544ZM296.041 114.87C294.061 114.87 293.005 115.86 292.807 117.972H299.143C299.011 115.75 298.131 114.87 296.041 114.87ZM316.614 113.44C319.1 113.44 320.486 114.98 320.486 117.642V124H318.792V117.752C318.792 115.904 317.78 114.98 316.262 114.98C313.93 114.98 312.94 116.806 312.94 119.82V124H311.246V117.598C311.246 115.904 310.234 114.98 308.694 114.98C306.67 114.98 305.394 116.542 305.394 119.226V124H303.7V113.66H305.394V116.212C305.9 114.584 307 113.44 309.178 113.44C311.224 113.44 312.5 114.474 312.852 116.366C313.424 114.496 314.656 113.44 316.614 113.44ZM324.99 111.108C324.198 111.108 323.736 110.646 323.714 109.854C323.692 109.084 324.154 108.666 324.99 108.666C325.76 108.666 326.2 109.084 326.222 109.854C326.244 110.646 325.804 111.108 324.99 111.108ZM324.11 124V113.66H325.804V124H324.11ZM333.99 122.702C335.816 122.702 336.806 121.998 337.246 119.732L338.962 120.194C338.324 122.9 336.476 124.22 334.012 124.22C330.844 124.22 328.666 122.064 328.666 118.83C328.666 115.596 330.844 113.44 334.012 113.44C336.476 113.44 338.324 114.76 338.962 117.466L337.246 117.928C336.806 115.662 335.816 114.958 333.99 114.958C331.548 114.958 330.404 116.19 330.404 118.83C330.404 121.47 331.548 122.702 333.99 122.702ZM349.799 113.66H351.493V124H349.799V121.888C349.029 123.362 347.665 124.22 345.883 124.22C342.913 124.22 340.933 122.064 340.933 118.83C340.933 115.596 342.913 113.44 345.883 113.44C347.665 113.44 349.029 114.298 349.799 115.772V113.66ZM346.279 122.68C348.743 122.68 349.887 121.448 349.887 118.83C349.887 116.212 348.743 114.98 346.279 114.98C343.815 114.98 342.671 116.212 342.671 118.83C342.671 121.448 343.815 122.68 346.279 122.68ZM355.241 124V108.6H356.935V124H355.241ZM364.153 124.22C361.909 124.22 360.237 123.164 359.753 121.03L361.425 120.48C361.711 122.152 362.547 122.724 364.263 122.724C365.825 122.724 366.573 122.284 366.573 121.316C366.573 120.436 366.265 120.128 365.011 119.886L362.987 119.49C361.491 119.204 360.105 118.456 360.105 116.542C360.105 114.672 361.623 113.44 363.911 113.44C365.891 113.44 367.629 114.232 368.069 116.718L366.397 117.18C366.177 115.222 365.341 114.936 363.977 114.936C362.503 114.936 361.821 115.398 361.821 116.41C361.821 117.246 362.129 117.642 363.075 117.818L365.671 118.324C367.189 118.61 368.245 119.38 368.245 121.03C368.245 122.944 366.617 124.22 364.153 124.22Z" fill="black"/>
<path d="M754.91 91.614C758.496 91.614 760.102 90.25 760.63 86.774L762.302 87.258C761.554 91.152 758.958 93.22 754.91 93.22C750.642 93.22 747.1 89.876 747.1 85.234C747.1 80.592 750.642 77.38 754.91 77.38C758.958 77.38 761.554 79.448 762.302 83.342L760.63 83.826C760.102 80.35 758.496 78.986 754.91 78.986C751.082 78.986 748.926 81.23 748.926 85.234C748.926 89.326 751.082 91.614 754.91 91.614ZM770.536 82.44C772.956 82.44 774.297 83.892 774.297 86.488V93H772.604V86.598C772.604 84.904 771.592 83.98 770.052 83.98C768.028 83.98 766.752 85.542 766.752 88.226V93H765.058V77.6H766.752V85.212C767.258 83.584 768.358 82.44 770.536 82.44ZM786.837 87.544C786.837 87.852 786.837 87.984 786.815 88.358H778.785C778.895 90.8 779.885 91.768 782.151 91.768C783.845 91.768 784.527 91.35 785.011 89.986L786.595 90.602C785.869 92.428 784.087 93.22 782.151 93.22C779.049 93.22 777.047 91.108 777.047 87.83C777.047 84.618 779.181 82.44 782.063 82.44C784.857 82.44 786.837 84.376 786.837 87.544ZM782.041 83.87C780.061 83.87 779.005 84.86 778.807 86.972H785.143C785.011 84.75 784.131 83.87 782.041 83.87ZM802.614 82.44C805.1 82.44 806.486 83.98 806.486 86.642V93H804.792V86.752C804.792 84.904 803.78 83.98 802.262 83.98C799.93 83.98 798.94 85.806 798.94 88.82V93H797.246V86.598C797.246 84.904 796.234 83.98 794.694 83.98C792.67 83.98 791.394 85.542 791.394 88.226V93H789.7V82.66H791.394V85.212C791.9 83.584 793 82.44 795.178 82.44C797.224 82.44 798.5 83.474 798.852 85.366C799.424 83.496 800.656 82.44 802.614 82.44ZM810.99 80.108C810.198 80.108 809.736 79.646 809.714 78.854C809.692 78.084 810.154 77.666 810.99 77.666C811.76 77.666 812.2 78.084 812.222 78.854C812.244 79.646 811.804 80.108 810.99 80.108ZM810.11 93V82.66H811.804V93H810.11ZM819.99 91.702C821.816 91.702 822.806 90.998 823.246 88.732L824.962 89.194C824.324 91.9 822.476 93.22 820.012 93.22C816.844 93.22 814.666 91.064 814.666 87.83C814.666 84.596 816.844 82.44 820.012 82.44C822.476 82.44 824.324 83.76 824.962 86.466L823.246 86.928C822.806 84.662 821.816 83.958 819.99 83.958C817.548 83.958 816.404 85.19 816.404 87.83C816.404 90.47 817.548 91.702 819.99 91.702ZM835.799 82.66H837.493V93H835.799V90.888C835.029 92.362 833.665 93.22 831.883 93.22C828.913 93.22 826.933 91.064 826.933 87.83C826.933 84.596 828.913 82.44 831.883 82.44C833.665 82.44 835.029 83.298 835.799 84.772V82.66ZM832.279 91.68C834.743 91.68 835.887 90.448 835.887 87.83C835.887 85.212 834.743 83.98 832.279 83.98C829.815 83.98 828.671 85.212 828.671 87.83C828.671 90.448 829.815 91.68 832.279 91.68ZM841.241 93V77.6H842.935V93H841.241ZM850.153 93.22C847.909 93.22 846.237 92.164 845.753 90.03L847.425 89.48C847.711 91.152 848.547 91.724 850.263 91.724C851.825 91.724 852.573 91.284 852.573 90.316C852.573 89.436 852.265 89.128 851.011 88.886L848.987 88.49C847.491 88.204 846.105 87.456 846.105 85.542C846.105 83.672 847.623 82.44 849.911 82.44C851.891 82.44 853.629 83.232 854.069 85.718L852.397 86.18C852.177 84.222 851.341 83.936 849.977 83.936C848.503 83.936 847.821 84.398 847.821 85.41C847.821 86.246 848.129 86.642 849.075 86.818L851.671 87.324C853.189 87.61 854.245 88.38 854.245 90.03C854.245 91.944 852.617 93.22 850.153 93.22Z" fill="black"/>
<path d="M288.453 54L286.759 49.644H279.323L277.629 54H275.693L281.853 38.6H284.273L290.411 54H288.453ZM279.939 48.06H286.143L283.987 42.472L283.041 39.876L282.095 42.472L279.939 48.06ZM297.736 45.2H294.436V52.46H297.362V54H295.272C293.754 54 292.742 52.988 292.742 51.47V45.2H290.41V43.66H292.742V40.404H294.436V43.66H297.736V45.2ZM305.857 45.2H302.557V52.46H305.483V54H303.393C301.875 54 300.863 52.988 300.863 51.47V45.2H298.531V43.66H300.863V40.404H302.557V43.66H305.857V45.2ZM313.274 43.462C313.78 43.462 314.198 43.484 314.484 43.616V45.332C314.286 45.222 313.934 45.068 313.054 45.068C310.832 45.068 309.886 47.07 309.886 49.292V54H308.192V43.66H309.886V46.608C310.26 44.892 311.184 43.462 313.274 43.462ZM324.321 43.66H326.015V54H324.321V51.888C323.551 53.362 322.187 54.22 320.405 54.22C317.435 54.22 315.455 52.064 315.455 48.83C315.455 45.596 317.435 43.44 320.405 43.44C322.187 43.44 323.551 44.298 324.321 45.772V43.66ZM320.801 52.68C323.265 52.68 324.409 51.448 324.409 48.83C324.409 46.212 323.265 44.98 320.801 44.98C318.337 44.98 317.193 46.212 317.193 48.83C317.193 51.448 318.337 52.68 320.801 52.68ZM334.207 52.702C336.033 52.702 337.023 51.998 337.463 49.732L339.179 50.194C338.541 52.9 336.693 54.22 334.229 54.22C331.061 54.22 328.883 52.064 328.883 48.83C328.883 45.596 331.061 43.44 334.229 43.44C336.693 43.44 338.541 44.76 339.179 47.466L337.463 47.928C337.023 45.662 336.033 44.958 334.207 44.958C331.765 44.958 330.621 46.19 330.621 48.83C330.621 51.47 331.765 52.702 334.207 52.702ZM347.816 45.2H344.516V52.46H347.442V54H345.352C343.834 54 342.822 52.988 342.822 51.47V45.2H340.49V43.66H342.822V40.404H344.516V43.66H347.816V45.2ZM353.627 54.22C351.383 54.22 349.711 53.164 349.227 51.03L350.899 50.48C351.185 52.152 352.021 52.724 353.737 52.724C355.299 52.724 356.047 52.284 356.047 51.316C356.047 50.436 355.739 50.128 354.485 49.886L352.461 49.49C350.965 49.204 349.579 48.456 349.579 46.542C349.579 44.672 351.097 43.44 353.385 43.44C355.365 43.44 357.103 44.232 357.543 46.718L355.871 47.18C355.651 45.222 354.815 44.936 353.451 44.936C351.977 44.936 351.295 45.398 351.295 46.41C351.295 47.246 351.603 47.642 352.549 47.818L355.145 48.324C356.663 48.61 357.719 49.38 357.719 51.03C357.719 52.944 356.091 54.22 353.627 54.22Z" fill="black"/>
<path d="M984.814 100.79H978.192V103.474H984.418V106.554H978.192V109.81H984.814V113H974.76V97.6H984.814V100.79ZM992.231 110.184C993.639 110.184 994.277 109.656 994.585 108.072L997.841 108.82C997.049 112.076 994.761 113.22 992.231 113.22C988.755 113.22 986.401 110.932 986.401 107.522C986.401 104.068 988.755 101.78 992.231 101.78C994.937 101.78 997.115 103.1 997.841 106.18L994.585 106.928C994.299 105.344 993.661 104.816 992.231 104.816C990.537 104.816 989.745 105.674 989.745 107.522C989.745 109.326 990.537 110.184 992.231 110.184ZM1005.23 101.78C1008.49 101.78 1011.22 103.958 1011.22 107.522C1011.22 111.064 1008.49 113.22 1005.23 113.22C1001.98 113.22 999.249 111.064 999.249 107.522C999.249 103.958 1001.98 101.78 1005.23 101.78ZM1005.23 110.184C1007.04 110.184 1007.87 109.326 1007.87 107.522C1007.87 105.674 1007.04 104.816 1005.23 104.816C1003.43 104.816 1002.59 105.674 1002.59 107.522C1002.59 109.326 1003.43 110.184 1005.23 110.184ZM1017.21 113.22C1014.17 113.22 1012.5 111.592 1012.3 110.03L1015.41 109.216C1015.54 110.492 1016.22 110.778 1017.43 110.778C1018.27 110.778 1018.9 110.426 1018.9 109.832C1018.9 109.26 1018.6 108.93 1017.32 108.754L1015.63 108.512C1013.51 108.204 1012.48 106.972 1012.48 105.146C1012.48 102.99 1014.13 101.78 1017.03 101.78C1020.42 101.78 1021.54 103.188 1021.85 104.816L1018.99 105.476C1018.88 104.42 1018.51 104.068 1017.14 104.068C1016.29 104.068 1015.82 104.42 1015.82 105.014C1015.82 105.498 1016.11 105.85 1017.23 105.982L1019.21 106.224C1021.13 106.466 1022.25 107.698 1022.25 109.502C1022.25 111.878 1020.44 113.22 1017.21 113.22ZM1031.02 102H1034.63L1030.23 113.88C1029.54 115.728 1028.38 116.74 1025.65 116.74H1023.45V113.814H1026.84L1022.57 102H1026.18L1027.98 108.116L1028.53 110.338L1029.13 108.116L1031.02 102ZM1039.9 113.22C1036.86 113.22 1035.19 111.592 1034.99 110.03L1038.09 109.216C1038.23 110.492 1038.91 110.778 1040.12 110.778C1040.95 110.778 1041.59 110.426 1041.59 109.832C1041.59 109.26 1041.28 108.93 1040.01 108.754L1038.31 108.512C1036.2 108.204 1035.17 106.972 1035.17 105.146C1035.17 102.99 1036.82 101.78 1039.72 101.78C1043.11 101.78 1044.23 103.188 1044.54 104.816L1041.68 105.476C1041.57 104.42 1041.2 104.068 1039.83 104.068C1038.97 104.068 1038.51 104.42 1038.51 105.014C1038.51 105.498 1038.8 105.85 1039.92 105.982L1041.9 106.224C1043.81 106.466 1044.94 107.698 1044.94 109.502C1044.94 111.878 1043.13 113.22 1039.9 113.22ZM1054.24 104.926H1051.21V110.074H1054.02V113H1051.6C1049.36 113 1047.86 111.504 1047.86 109.26V104.926H1045.91V102H1047.86V98.81H1051.21V102H1054.24V104.926ZM1066.62 107.412C1066.62 107.786 1066.62 108.072 1066.6 108.556H1059.12C1059.32 110.052 1060.02 110.668 1061.43 110.668C1062.49 110.668 1062.99 110.338 1063.52 109.282L1066.38 110.294C1065.63 112.186 1063.98 113.22 1061.34 113.22C1057.93 113.22 1055.65 110.976 1055.65 107.588C1055.65 104.112 1057.89 101.78 1061.23 101.78C1064.47 101.78 1066.62 104.024 1066.62 107.412ZM1061.3 104.222C1059.96 104.222 1059.3 104.838 1059.12 106.378H1063.32C1063.3 104.772 1062.64 104.222 1061.3 104.222ZM1083.16 101.78C1085.64 101.78 1086.81 103.32 1086.81 106.576V113H1083.46V106.774C1083.46 105.52 1082.87 104.816 1081.62 104.816C1080.3 104.816 1079.46 105.652 1079.46 108.094V113H1076.12V106.774C1076.12 105.432 1075.5 104.816 1074.27 104.816C1072.95 104.816 1072.11 105.674 1072.11 107.654V113H1068.77V102H1072.11V104.486C1072.64 102.682 1073.78 101.78 1075.59 101.78C1077.55 101.78 1078.76 102.66 1079.22 104.464C1079.94 102.616 1081.31 101.78 1083.16 101.78Z" fill="black"/>
<circle cx="559.5" cy="105.5" r="89" stroke="black"/>
<circle cx="89.5" cy="105.5" r="89" stroke="black"/>
<circle cx="1030.5" cy="105.5" r="89" stroke="black"/>
<circle cx="559.5" cy="105.5" r="105" stroke="black"/>
<path d="M442.854 140.354C443.049 140.158 443.049 139.842 442.854 139.646L439.672 136.464C439.476 136.269 439.16 136.269 438.964 136.464C438.769 136.66 438.769 136.976 438.964 137.172L441.793 140L438.964 142.828C438.769 143.024 438.769 143.34 438.964 143.536C439.16 143.731 439.476 143.731 439.672 143.536L442.854 140.354ZM191 140V140.5H442.5V140V139.5H191V140Z" fill="black"/>
<path d="M190.646 70.3536C190.451 70.1583 190.451 69.8417 190.646 69.6464L193.828 66.4645C194.024 66.2692 194.34 66.2692 194.536 66.4645C194.731 66.6597 194.731 66.9763 194.536 67.1716L191.707 70L194.536 72.8284C194.731 73.0237 194.731 73.3403 194.536 73.5355C194.34 73.7308 194.024 73.7308 193.828 73.5355L190.646 70.3536ZM442.5 70V70.5H191V70V69.5H442.5V70Z" fill="black"/>
<path d="M928.854 109.354C929.049 109.158 929.049 108.842 928.854 108.646L925.672 105.464C925.476 105.269 925.16 105.269 924.964 105.464C924.769 105.66 924.769 105.976 924.964 106.172L927.793 109L924.964 111.828C924.769 112.024 924.769 112.34 924.964 112.536C925.16 112.731 925.476 112.731 925.672 112.536L928.854 109.354ZM677 109V109.5H928.5V109V108.5H677V109Z" fill="black"/>
</svg>
