<svg width="437" height="437" viewBox="0 0 437 437" fill="none" xmlns="http://www.w3.org/2000/svg">
<rect x="180.361" y="70.775" width="61.45" height="79.45" rx="2.225" fill="white" stroke="black" stroke-width="1.55"/>
<path d="M194.062 108H227.539" stroke="black" stroke-width="1.55" stroke-linecap="round"/>
<path d="M194.062 117.952H212.158" stroke="black" stroke-width="1.55" stroke-linecap="round"/>
<path d="M194.062 93.5239H204.92" stroke="black" stroke-width="1.55" stroke-linecap="round"/>
<path d="M194.062 86.2856H226.634" stroke="black" stroke-width="1.55" stroke-linecap="round"/>
<path d="M194.062 127H222.11" stroke="black" stroke-width="1.55" stroke-linecap="round"/>
<mask id="path-7-inside-1_1336_1642" fill="white">
<path d="M251.004 83C251.635 83 252.175 83.4061 252.599 83.874L263.144 95.5287C263.643 96.0803 263.919 96.7976 263.919 97.5415V164C263.919 165.657 262.576 167 260.919 167H203.586C201.929 167 200.586 165.657 200.586 164V86C200.586 84.3431 201.929 83 203.586 83H251.004Z"/>
</mask>
<path d="M251.004 83C251.635 83 252.175 83.4061 252.599 83.874L263.144 95.5287C263.643 96.0803 263.919 96.7976 263.919 97.5415V164C263.919 165.657 262.576 167 260.919 167H203.586C201.929 167 200.586 165.657 200.586 164V86C200.586 84.3431 201.929 83 203.586 83H251.004Z" fill="white"/>
<path d="M252.599 83.874L251.449 84.9139L251.449 84.9139L252.599 83.874ZM200.586 164H199.036V164H200.586ZM203.586 83V81.45V83ZM263.144 95.5287L264.293 94.4888L263.144 95.5287ZM252.599 83.874L251.449 84.9139L261.994 96.5687L263.144 95.5287L264.293 94.4888L253.748 82.8341L252.599 83.874ZM263.919 97.5415H262.369V164H263.919H265.469V97.5415H263.919ZM263.919 164H262.369C262.369 164.801 261.72 165.45 260.919 165.45V167V168.55C263.432 168.55 265.469 166.513 265.469 164H263.919ZM260.919 167V165.45H203.586V167V168.55H260.919V167ZM203.586 167V165.45C202.785 165.45 202.136 164.801 202.136 164H200.586H199.036C199.036 166.513 201.073 168.55 203.586 168.55V167ZM200.586 164H202.136V86H200.586H199.036V164H200.586ZM200.586 86H202.136C202.136 85.1992 202.785 84.55 203.586 84.55V83V81.45C201.073 81.45 199.036 83.4871 199.036 86H200.586ZM203.586 83V84.55H251.004V83V81.45H203.586V83ZM263.144 95.5287L261.994 96.5687C262.235 96.8353 262.369 97.182 262.369 97.5415H263.919H265.469C265.469 96.4133 265.05 95.3254 264.293 94.4888L263.144 95.5287ZM252.599 83.874L253.748 82.8342C253.242 82.2745 252.311 81.45 251.004 81.45V83V84.55C250.975 84.55 250.995 84.5388 251.082 84.5909C251.176 84.6472 251.301 84.7502 251.449 84.9139L252.599 83.874Z" fill="black" mask="url(#path-7-inside-1_1336_1642)"/>
<path d="M251.086 84L250.669 94.4201C250.624 95.5551 251.532 96.5 252.668 96.5H262.586" stroke="black" stroke-width="1.55"/>
<path d="M215.062 121H241.086" stroke="black" stroke-width="1.55" stroke-linecap="round"/>
<path d="M215.062 150H241.086" stroke="black" stroke-width="1.55" stroke-linecap="round"/>
<path d="M215.062 130.953H233.158" stroke="black" stroke-width="1.55" stroke-linecap="round"/>
<path d="M215.062 106.523H248.586" stroke="black" stroke-width="1.55" stroke-linecap="round"/>
<path d="M215.062 99.2852H238.586" stroke="black" stroke-width="1.55" stroke-linecap="round"/>
<path d="M214.586 140H250.086" stroke="black" stroke-width="1.55" stroke-linecap="round"/>
<rect x="0.261227" y="1.06443" width="30.2032" height="6.16083" rx="2.225" transform="matrix(-0.518196 0.855262 0.855262 0.518196 204.189 151.275)" fill="white" stroke="black" stroke-width="1.55"/>
<mask id="path-17-inside-2_1336_1642" fill="white">
<path fill-rule="evenodd" clip-rule="evenodd" d="M205.366 157.329C195.167 151.149 191.908 137.872 198.088 127.673C204.267 117.474 217.545 114.215 227.744 120.395C237.943 126.575 241.201 139.852 235.022 150.051C228.842 160.25 215.565 163.508 205.366 157.329ZM209.468 150.558C203.007 146.644 200.944 138.234 204.858 131.774C208.772 125.314 217.182 123.25 223.642 127.164C230.102 131.078 232.166 139.488 228.252 145.948C224.338 152.408 215.928 154.472 209.468 150.558Z"/>
</mask>
<path fill-rule="evenodd" clip-rule="evenodd" d="M205.366 157.329C195.167 151.149 191.908 137.872 198.088 127.673C204.267 117.474 217.545 114.215 227.744 120.395C237.943 126.575 241.201 139.852 235.022 150.051C228.842 160.25 215.565 163.508 205.366 157.329ZM209.468 150.558C203.007 146.644 200.944 138.234 204.858 131.774C208.772 125.314 217.182 123.25 223.642 127.164C230.102 131.078 232.166 139.488 228.252 145.948C224.338 152.408 215.928 154.472 209.468 150.558Z" fill="#FFEAE2"/>
<path d="M198.088 127.673L199.414 128.476C193.678 137.943 196.702 150.267 206.169 156.003L205.366 157.329L204.563 158.655C193.632 152.032 190.139 137.801 196.762 126.87L198.088 127.673ZM227.744 120.395L226.941 121.721C217.474 115.985 205.15 119.009 199.414 128.476L198.088 127.673L196.762 126.87C203.385 115.939 217.616 112.446 228.547 119.069L227.744 120.395ZM235.022 150.051L233.696 149.248C239.432 139.781 236.408 127.457 226.941 121.721L227.744 120.395L228.547 119.069C239.478 125.692 242.971 139.923 236.348 150.854L235.022 150.051ZM205.366 157.329L206.169 156.003C215.636 161.739 227.96 158.715 233.696 149.248L235.022 150.051L236.348 150.854C229.725 161.785 215.494 165.278 204.563 158.655L205.366 157.329ZM204.858 131.774L206.183 132.577C202.713 138.305 204.543 145.762 210.271 149.233L209.468 150.558L208.664 151.884C201.472 147.526 199.174 138.163 203.532 130.971L204.858 131.774ZM223.642 127.164L222.839 128.49C217.111 125.019 209.654 126.849 206.183 132.577L204.858 131.774L203.532 130.971C207.89 123.779 217.253 121.481 224.445 125.838L223.642 127.164ZM228.252 145.948L226.926 145.145C230.397 139.417 228.567 131.96 222.839 128.49L223.642 127.164L224.445 125.838C231.637 130.196 233.935 139.559 229.577 146.751L228.252 145.948ZM209.468 150.558L210.271 149.233C215.999 152.703 223.456 150.873 226.926 145.145L228.252 145.948L229.577 146.751C225.22 153.944 215.857 156.242 208.664 151.884L209.468 150.558Z" fill="black" mask="url(#path-17-inside-2_1336_1642)"/>
<path d="M66.9559 332.617C64.6359 332.617 62.9799 332.041 61.9879 330.889C60.9959 329.721 60.4999 327.969 60.4999 325.633V316.297H62.7559V325.801C62.7559 327.385 63.0679 328.593 63.6919 329.425C64.3319 330.257 65.4199 330.673 66.9559 330.673C68.4919 330.673 69.5719 330.257 70.1959 329.425C70.8359 328.593 71.1559 327.385 71.1559 325.801V316.297H73.4119V325.633C73.4119 327.969 72.9159 329.721 71.9239 330.889C70.9479 332.041 69.2919 332.617 66.9559 332.617ZM80.7422 332.617C80.0542 332.617 79.3742 332.513 78.7022 332.305C78.0462 332.081 77.4542 331.753 76.9262 331.321C76.4142 330.873 76.0222 330.313 75.7502 329.641L77.6942 328.921C77.8702 329.625 78.2542 330.137 78.8462 330.457C79.4542 330.761 80.0862 330.913 80.7422 330.913C81.2222 330.913 81.6702 330.841 82.0862 330.697C82.5182 330.553 82.8702 330.345 83.1422 330.073C83.4142 329.801 83.5502 329.489 83.5502 329.137C83.5502 328.481 83.2862 328.017 82.7582 327.745C82.2462 327.473 81.6302 327.265 80.9102 327.121L79.2542 326.785C78.6782 326.657 78.1422 326.481 77.6462 326.257C77.1502 326.017 76.7502 325.681 76.4462 325.249C76.1422 324.817 75.9902 324.241 75.9902 323.521C75.9902 322.801 76.2142 322.201 76.6622 321.721C77.1102 321.225 77.6782 320.849 78.3662 320.593C79.0702 320.337 79.8062 320.209 80.5742 320.209C81.5182 320.209 82.4062 320.409 83.2382 320.809C84.0862 321.193 84.6862 321.801 85.0382 322.633L83.1422 323.329C82.9342 322.849 82.5662 322.497 82.0382 322.273C81.5262 322.033 80.9902 321.913 80.4302 321.913C79.8222 321.913 79.2702 322.049 78.7742 322.321C78.2782 322.593 78.0302 322.985 78.0302 323.497C78.0302 324.009 78.2382 324.385 78.6542 324.625C79.0862 324.849 79.6142 325.025 80.2382 325.153L81.7982 325.465C82.4382 325.593 83.0462 325.777 83.6222 326.017C84.1982 326.257 84.6702 326.617 85.0382 327.097C85.4062 327.561 85.5902 328.217 85.5902 329.065C85.5902 329.817 85.3582 330.457 84.8942 330.985C84.4302 331.513 83.8302 331.921 83.0942 332.209C82.3582 332.481 81.5742 332.617 80.7422 332.617ZM91.0791 332.617C90.3271 332.617 89.6391 332.481 89.0151 332.209C88.3911 331.937 87.8951 331.545 87.5271 331.033C87.1591 330.521 86.9751 329.905 86.9751 329.185C86.9751 328.241 87.3031 327.497 87.9591 326.953C88.6311 326.409 89.5671 325.993 90.7671 325.705C91.9831 325.401 93.3991 325.161 95.0151 324.985C95.0471 323.977 94.8471 323.201 94.4151 322.657C93.9831 322.113 93.2871 321.841 92.3271 321.841C91.6071 321.841 91.0151 322.009 90.5511 322.345C90.1031 322.665 89.8151 323.113 89.6871 323.689L87.7431 323.113C88.0631 322.201 88.6311 321.497 89.4471 321.001C90.2791 320.489 91.2311 320.233 92.3031 320.233C93.9511 320.233 95.1511 320.625 95.9031 321.409C96.6711 322.177 97.0551 323.393 97.0551 325.057V327.841C97.0551 328.833 97.0951 329.689 97.1751 330.409C97.2551 331.129 97.3511 331.769 97.4631 332.329H95.6151L95.1351 330.697C94.7831 331.289 94.2791 331.761 93.6231 332.113C92.9671 332.449 92.1191 332.617 91.0791 332.617ZM91.5111 331.009C92.1351 331.009 92.7271 330.897 93.2871 330.673C93.8471 330.449 94.3031 330.073 94.6551 329.545C95.0071 329.001 95.1831 328.265 95.1831 327.337V326.593C93.9671 326.721 92.9111 326.881 92.0151 327.073C91.1191 327.249 90.4231 327.505 89.9271 327.841C89.4471 328.161 89.2071 328.593 89.2071 329.137C89.2071 329.697 89.4071 330.153 89.8071 330.505C90.2231 330.841 90.7911 331.009 91.5111 331.009ZM106.016 332.617C105.088 332.617 104.304 332.433 103.664 332.065C103.024 331.681 102.52 331.169 102.152 330.529L101.624 332.329H100.136V316.297H102.152V322.297C102.52 321.673 103.024 321.177 103.664 320.809C104.304 320.425 105.088 320.233 106.016 320.233C106.928 320.233 107.768 320.481 108.536 320.977C109.32 321.457 109.944 322.161 110.408 323.089C110.888 324.001 111.128 325.113 111.128 326.425C111.128 327.737 110.888 328.857 110.408 329.785C109.944 330.697 109.32 331.401 108.536 331.897C107.768 332.377 106.928 332.617 106.016 332.617ZM105.488 330.889C106.512 330.889 107.328 330.497 107.936 329.713C108.56 328.929 108.872 327.833 108.872 326.425C108.872 325.001 108.56 323.905 107.936 323.137C107.328 322.353 106.512 321.961 105.488 321.961C104.464 321.961 103.64 322.353 103.016 323.137C102.408 323.905 102.104 325.001 102.104 326.425C102.104 327.833 102.408 328.929 103.016 329.713C103.64 330.497 104.464 330.889 105.488 330.889ZM115.554 318.169C115.154 318.169 114.802 318.025 114.498 317.737C114.21 317.433 114.066 317.073 114.066 316.657C114.066 316.241 114.21 315.889 114.498 315.601C114.802 315.313 115.154 315.169 115.554 315.169C115.97 315.169 116.322 315.313 116.61 315.601C116.914 315.889 117.066 316.241 117.066 316.657C117.066 317.073 116.914 317.433 116.61 317.737C116.322 318.025 115.97 318.169 115.554 318.169ZM114.546 332.329V322.033H112.89V320.425H116.562V332.329H114.546ZM122.737 332.329C121.985 332.329 121.401 332.257 120.985 332.113C120.585 331.953 120.305 331.657 120.145 331.225C120.001 330.793 119.929 330.169 119.929 329.353V316.321H121.945V329.017C121.945 329.625 122.009 330.033 122.137 330.241C122.265 330.449 122.609 330.553 123.169 330.553H123.625V332.329H122.737ZM127.05 318.169C126.65 318.169 126.298 318.025 125.994 317.737C125.706 317.433 125.562 317.073 125.562 316.657C125.562 316.241 125.706 315.889 125.994 315.601C126.298 315.313 126.65 315.169 127.05 315.169C127.466 315.169 127.818 315.313 128.106 315.601C128.41 315.889 128.562 316.241 128.562 316.657C128.562 317.073 128.41 317.433 128.106 317.737C127.818 318.025 127.466 318.169 127.05 318.169ZM126.042 332.329V322.033H124.386V320.425H128.058V332.329H126.042ZM135.05 332.329C134.298 332.329 133.714 332.257 133.298 332.113C132.898 331.953 132.618 331.657 132.458 331.225C132.314 330.793 132.242 330.169 132.242 329.353V322.033H130.226V320.425H132.242V317.425H134.258V320.425H136.562V322.033H134.258V329.017C134.258 329.625 134.314 330.033 134.426 330.241C134.554 330.449 134.906 330.553 135.482 330.553H136.562V332.329H135.05ZM138.175 336.193V334.417H138.991C139.567 334.417 140.007 334.369 140.311 334.273C140.615 334.193 140.855 334.001 141.031 333.697C141.223 333.409 141.407 332.961 141.583 332.353L137.287 320.449H139.519L142.447 329.617L145.375 320.449H147.583L143.359 332.857C143.071 333.705 142.775 334.369 142.471 334.849C142.183 335.345 141.791 335.689 141.295 335.881C140.799 336.089 140.103 336.193 139.207 336.193H138.175ZM155.503 332.329V316.297H157.519V322.225C157.855 321.665 158.327 321.193 158.935 320.809C159.543 320.425 160.351 320.233 161.359 320.233C162.799 320.233 163.815 320.657 164.407 321.505C164.999 322.337 165.295 323.433 165.295 324.793V332.329H163.279V325.393C163.279 324.785 163.223 324.225 163.111 323.713C162.999 323.185 162.751 322.761 162.367 322.441C161.999 322.121 161.431 321.961 160.663 321.961C159.687 321.961 158.919 322.297 158.359 322.969C157.799 323.625 157.519 324.593 157.519 325.873V332.329H155.503ZM173.171 332.617C171.923 332.617 170.867 332.345 170.003 331.801C169.139 331.241 168.475 330.497 168.011 329.569C167.563 328.625 167.339 327.569 167.339 326.401C167.339 325.137 167.595 324.049 168.107 323.137C168.619 322.209 169.307 321.497 170.171 321.001C171.051 320.489 172.035 320.233 173.123 320.233C174.067 320.233 174.899 320.425 175.619 320.809C176.339 321.177 176.931 321.681 177.395 322.321C177.875 322.945 178.219 323.657 178.427 324.457C178.651 325.257 178.731 326.081 178.667 326.929H169.499C169.531 327.921 169.747 328.705 170.147 329.281C170.563 329.857 171.051 330.265 171.611 330.505C172.171 330.729 172.691 330.841 173.171 330.841C173.843 330.841 174.403 330.737 174.851 330.529C175.315 330.305 175.683 330.017 175.955 329.665L177.899 330.241C177.467 330.929 176.851 331.497 176.051 331.945C175.251 332.393 174.291 332.617 173.171 332.617ZM169.523 325.321H176.531C176.531 324.761 176.387 324.225 176.099 323.713C175.827 323.201 175.435 322.785 174.923 322.465C174.427 322.129 173.827 321.961 173.123 321.961C172.531 321.961 171.971 322.073 171.443 322.297C170.915 322.521 170.475 322.881 170.123 323.377C169.787 323.873 169.587 324.521 169.523 325.321ZM184.572 332.617C183.644 332.617 182.9 332.425 182.34 332.041C181.78 331.641 181.372 331.097 181.116 330.409C180.876 329.705 180.756 328.905 180.756 328.009V320.401H182.772V327.529C182.772 328.409 182.876 329.089 183.084 329.569C183.292 330.049 183.58 330.385 183.948 330.577C184.332 330.753 184.772 330.841 185.268 330.841C186.212 330.841 186.948 330.513 187.476 329.857C188.02 329.185 188.292 328.217 188.292 326.953V320.401H190.308V332.329H188.796L188.292 330.601C187.956 331.177 187.5 331.657 186.924 332.041C186.348 332.425 185.564 332.617 184.572 332.617ZM193.431 332.329V320.425H194.895L195.543 322.633C195.959 321.913 196.519 321.337 197.223 320.905C197.943 320.457 198.799 320.233 199.791 320.233V322.321C199.679 322.321 199.559 322.321 199.431 322.321C199.319 322.321 199.207 322.329 199.095 322.345C197.735 322.457 196.783 322.929 196.239 323.761C195.711 324.593 195.447 325.745 195.447 327.217V332.329H193.431ZM203.411 318.169C203.011 318.169 202.659 318.025 202.355 317.737C202.067 317.433 201.923 317.073 201.923 316.657C201.923 316.241 202.067 315.889 202.355 315.601C202.659 315.313 203.011 315.169 203.411 315.169C203.827 315.169 204.179 315.313 204.467 315.601C204.771 315.889 204.923 316.241 204.923 316.657C204.923 317.073 204.771 317.433 204.467 317.737C204.179 318.025 203.827 318.169 203.411 318.169ZM202.403 332.329V322.033H200.747V320.425H204.419V332.329H202.403ZM211.843 332.617C211.155 332.617 210.475 332.513 209.803 332.305C209.147 332.081 208.555 331.753 208.027 331.321C207.515 330.873 207.123 330.313 206.851 329.641L208.795 328.921C208.971 329.625 209.355 330.137 209.947 330.457C210.555 330.761 211.187 330.913 211.843 330.913C212.323 330.913 212.771 330.841 213.187 330.697C213.619 330.553 213.971 330.345 214.243 330.073C214.515 329.801 214.651 329.489 214.651 329.137C214.651 328.481 214.387 328.017 213.859 327.745C213.347 327.473 212.731 327.265 212.011 327.121L210.355 326.785C209.779 326.657 209.243 326.481 208.747 326.257C208.251 326.017 207.851 325.681 207.547 325.249C207.243 324.817 207.091 324.241 207.091 323.521C207.091 322.801 207.315 322.201 207.763 321.721C208.211 321.225 208.779 320.849 209.467 320.593C210.171 320.337 210.907 320.209 211.675 320.209C212.619 320.209 213.507 320.409 214.339 320.809C215.187 321.193 215.787 321.801 216.139 322.633L214.243 323.329C214.035 322.849 213.667 322.497 213.139 322.273C212.627 322.033 212.091 321.913 211.531 321.913C210.923 321.913 210.371 322.049 209.875 322.321C209.379 322.593 209.131 322.985 209.131 323.497C209.131 324.009 209.339 324.385 209.755 324.625C210.187 324.849 210.715 325.025 211.339 325.153L212.899 325.465C213.539 325.593 214.147 325.777 214.723 326.017C215.299 326.257 215.771 326.617 216.139 327.097C216.507 327.561 216.691 328.217 216.691 329.065C216.691 329.817 216.459 330.457 215.995 330.985C215.531 331.513 214.931 331.921 214.195 332.209C213.459 332.481 212.675 332.617 211.843 332.617ZM222.468 332.329C221.716 332.329 221.132 332.257 220.716 332.113C220.316 331.953 220.036 331.657 219.876 331.225C219.732 330.793 219.66 330.169 219.66 329.353V322.033H217.644V320.425H219.66V317.425H221.676V320.425H223.98V322.033H221.676V329.017C221.676 329.625 221.732 330.033 221.844 330.241C221.972 330.449 222.324 330.553 222.9 330.553H223.98V332.329H222.468ZM228.449 318.169C228.049 318.169 227.697 318.025 227.393 317.737C227.105 317.433 226.961 317.073 226.961 316.657C226.961 316.241 227.105 315.889 227.393 315.601C227.697 315.313 228.049 315.169 228.449 315.169C228.865 315.169 229.217 315.313 229.505 315.601C229.809 315.889 229.961 316.241 229.961 316.657C229.961 317.073 229.809 317.433 229.505 317.737C229.217 318.025 228.865 318.169 228.449 318.169ZM227.441 332.329V322.033H225.785V320.425H229.457V332.329H227.441ZM237.601 332.617C236.465 332.617 235.481 332.353 234.649 331.825C233.817 331.281 233.177 330.545 232.729 329.617C232.281 328.689 232.057 327.625 232.057 326.425C232.057 325.241 232.289 324.185 232.753 323.257C233.233 322.313 233.905 321.577 234.769 321.049C235.633 320.505 236.649 320.233 237.817 320.233C238.889 320.233 239.809 320.497 240.577 321.025C241.345 321.553 241.921 322.185 242.305 322.921L240.457 323.593C240.201 323.113 239.825 322.729 239.329 322.441C238.833 322.153 238.281 322.009 237.673 322.009C237.081 322.009 236.521 322.169 235.993 322.489C235.465 322.793 235.041 323.273 234.721 323.929C234.401 324.569 234.241 325.393 234.241 326.401C234.241 327.393 234.401 328.225 234.721 328.897C235.057 329.553 235.481 330.041 235.993 330.361C236.521 330.681 237.081 330.841 237.673 330.841C238.329 330.841 238.897 330.697 239.377 330.409C239.873 330.105 240.249 329.729 240.505 329.281L242.353 329.953C241.905 330.721 241.265 331.361 240.433 331.873C239.601 332.369 238.657 332.617 237.601 332.617ZM248.641 332.617C247.953 332.617 247.273 332.513 246.601 332.305C245.945 332.081 245.353 331.753 244.825 331.321C244.313 330.873 243.921 330.313 243.649 329.641L245.593 328.921C245.769 329.625 246.153 330.137 246.745 330.457C247.353 330.761 247.985 330.913 248.641 330.913C249.121 330.913 249.569 330.841 249.985 330.697C250.417 330.553 250.769 330.345 251.041 330.073C251.313 329.801 251.449 329.489 251.449 329.137C251.449 328.481 251.185 328.017 250.657 327.745C250.145 327.473 249.529 327.265 248.809 327.121L247.153 326.785C246.577 326.657 246.041 326.481 245.545 326.257C245.049 326.017 244.649 325.681 244.345 325.249C244.041 324.817 243.889 324.241 243.889 323.521C243.889 322.801 244.113 322.201 244.561 321.721C245.009 321.225 245.577 320.849 246.265 320.593C246.969 320.337 247.705 320.209 248.473 320.209C249.417 320.209 250.305 320.409 251.137 320.809C251.985 321.193 252.585 321.801 252.937 322.633L251.041 323.329C250.833 322.849 250.465 322.497 249.937 322.273C249.425 322.033 248.889 321.913 248.329 321.913C247.721 321.913 247.169 322.049 246.673 322.321C246.177 322.593 245.929 322.985 245.929 323.497C245.929 324.009 246.137 324.385 246.553 324.625C246.985 324.849 247.513 325.025 248.137 325.153L249.697 325.465C250.337 325.593 250.945 325.777 251.521 326.017C252.097 326.257 252.569 326.617 252.937 327.097C253.305 327.561 253.489 328.217 253.489 329.065C253.489 329.817 253.257 330.457 252.793 330.985C252.329 331.513 251.729 331.921 250.993 332.209C250.257 332.481 249.473 332.617 248.641 332.617ZM255.042 335.521L256.17 332.593C255.802 332.529 255.49 332.353 255.234 332.065C254.994 331.777 254.874 331.441 254.874 331.057C254.874 330.641 255.026 330.281 255.33 329.977C255.634 329.673 255.994 329.521 256.41 329.521C256.842 329.521 257.21 329.673 257.514 329.977C257.818 330.281 257.97 330.641 257.97 331.057C257.97 331.249 257.93 331.449 257.85 331.657L256.362 335.521H255.042ZM271.586 332.617C270.45 332.617 269.466 332.353 268.634 331.825C267.802 331.281 267.162 330.545 266.714 329.617C266.266 328.689 266.042 327.625 266.042 326.425C266.042 325.241 266.274 324.185 266.738 323.257C267.218 322.313 267.89 321.577 268.754 321.049C269.618 320.505 270.634 320.233 271.802 320.233C272.874 320.233 273.794 320.497 274.562 321.025C275.33 321.553 275.906 322.185 276.29 322.921L274.442 323.593C274.186 323.113 273.81 322.729 273.314 322.441C272.818 322.153 272.266 322.009 271.658 322.009C271.066 322.009 270.506 322.169 269.978 322.489C269.45 322.793 269.026 323.273 268.706 323.929C268.386 324.569 268.226 325.393 268.226 326.401C268.226 327.393 268.386 328.225 268.706 328.897C269.042 329.553 269.466 330.041 269.978 330.361C270.506 330.681 271.066 330.841 271.658 330.841C272.314 330.841 272.882 330.697 273.362 330.409C273.858 330.105 274.234 329.729 274.49 329.281L276.338 329.953C275.89 330.721 275.25 331.361 274.418 331.873C273.586 332.369 272.642 332.617 271.586 332.617ZM283.514 332.617C282.826 332.617 282.146 332.497 281.474 332.257C280.802 332.017 280.186 331.649 279.626 331.153C279.082 330.641 278.642 329.993 278.306 329.209C277.97 328.425 277.802 327.497 277.802 326.425C277.802 325.353 277.97 324.425 278.306 323.641C278.642 322.857 279.082 322.217 279.626 321.721C280.186 321.209 280.802 320.833 281.474 320.593C282.146 320.353 282.826 320.233 283.514 320.233C284.202 320.233 284.882 320.353 285.554 320.593C286.242 320.833 286.858 321.209 287.402 321.721C287.962 322.217 288.402 322.857 288.722 323.641C289.058 324.425 289.226 325.353 289.226 326.425C289.226 327.497 289.058 328.425 288.722 329.209C288.402 329.993 287.962 330.641 287.402 331.153C286.858 331.649 286.242 332.017 285.554 332.257C284.882 332.497 284.202 332.617 283.514 332.617ZM283.514 330.841C284.09 330.841 284.65 330.689 285.194 330.385C285.738 330.065 286.186 329.585 286.538 328.945C286.89 328.289 287.066 327.449 287.066 326.425C287.066 325.401 286.89 324.569 286.538 323.929C286.186 323.273 285.738 322.793 285.194 322.489C284.65 322.169 284.09 322.009 283.514 322.009C282.954 322.009 282.394 322.169 281.834 322.489C281.29 322.793 280.842 323.273 280.49 323.929C280.138 324.569 279.962 325.401 279.962 326.425C279.962 327.449 280.138 328.289 280.49 328.945C280.842 329.585 281.29 330.065 281.834 330.385C282.394 330.689 282.954 330.841 283.514 330.841ZM291.573 332.329V320.425H293.061L293.589 322.225C293.925 321.665 294.381 321.193 294.957 320.809C295.549 320.425 296.285 320.233 297.165 320.233C298.077 320.233 298.813 320.417 299.373 320.785C299.933 321.153 300.341 321.665 300.597 322.321C301.077 321.585 301.653 321.057 302.325 320.737C303.013 320.401 303.773 320.233 304.605 320.233C305.981 320.233 306.965 320.657 307.557 321.505C308.149 322.337 308.445 323.433 308.445 324.793V332.329H306.429V325.393C306.429 324.785 306.365 324.225 306.237 323.713C306.125 323.185 305.885 322.761 305.517 322.441C305.165 322.121 304.621 321.961 303.885 321.961C303.021 321.961 302.325 322.297 301.797 322.969C301.285 323.625 301.029 324.593 301.029 325.873V332.329H299.013V325.393C299.013 324.785 298.949 324.225 298.821 323.713C298.709 323.185 298.469 322.761 298.101 322.441C297.749 322.121 297.205 321.961 296.469 321.961C295.605 321.961 294.909 322.297 294.381 322.969C293.853 323.625 293.589 324.593 293.589 325.873V332.329H291.573ZM311.512 336.193V320.425H312.976L313.528 322.297C313.896 321.673 314.4 321.177 315.04 320.809C315.68 320.425 316.464 320.233 317.392 320.233C318.304 320.233 319.144 320.481 319.912 320.977C320.696 321.457 321.32 322.161 321.784 323.089C322.264 324.001 322.504 325.113 322.504 326.425C322.504 327.721 322.264 328.833 321.784 329.761C321.32 330.689 320.696 331.401 319.912 331.897C319.144 332.377 318.304 332.617 317.392 332.617C316.464 332.617 315.68 332.433 315.04 332.065C314.4 331.681 313.896 331.169 313.528 330.529V336.193H311.512ZM316.864 330.889C317.888 330.889 318.704 330.497 319.312 329.713C319.936 328.929 320.248 327.833 320.248 326.425C320.248 325.001 319.936 323.905 319.312 323.137C318.704 322.353 317.888 321.961 316.864 321.961C315.84 321.961 315.016 322.353 314.392 323.137C313.784 323.905 313.48 325.001 313.48 326.425C313.48 327.833 313.784 328.929 314.392 329.713C315.016 330.497 315.84 330.889 316.864 330.889ZM329.93 332.617C328.682 332.617 327.626 332.345 326.762 331.801C325.898 331.241 325.234 330.497 324.77 329.569C324.322 328.625 324.098 327.569 324.098 326.401C324.098 325.137 324.354 324.049 324.866 323.137C325.378 322.209 326.066 321.497 326.93 321.001C327.81 320.489 328.794 320.233 329.882 320.233C330.826 320.233 331.658 320.425 332.378 320.809C333.098 321.177 333.69 321.681 334.154 322.321C334.634 322.945 334.978 323.657 335.186 324.457C335.41 325.257 335.49 326.081 335.426 326.929H326.258C326.29 327.921 326.506 328.705 326.906 329.281C327.322 329.857 327.81 330.265 328.37 330.505C328.93 330.729 329.45 330.841 329.93 330.841C330.602 330.841 331.162 330.737 331.61 330.529C332.074 330.305 332.442 330.017 332.714 329.665L334.658 330.241C334.226 330.929 333.61 331.497 332.81 331.945C332.01 332.393 331.05 332.617 329.93 332.617ZM326.282 325.321H333.29C333.29 324.761 333.146 324.225 332.858 323.713C332.586 323.201 332.194 322.785 331.682 322.465C331.186 322.129 330.586 321.961 329.882 321.961C329.29 321.961 328.73 322.073 328.202 322.297C327.674 322.521 327.234 322.881 326.882 323.377C326.546 323.873 326.346 324.521 326.282 325.321ZM341.187 332.329C340.435 332.329 339.851 332.257 339.435 332.113C339.035 331.953 338.755 331.657 338.595 331.225C338.451 330.793 338.379 330.169 338.379 329.353V322.033H336.363V320.425H338.379V317.425H340.395V320.425H342.699V322.033H340.395V329.017C340.395 329.625 340.451 330.033 340.563 330.241C340.691 330.449 341.043 330.553 341.619 330.553H342.699V332.329H341.187ZM347.169 318.169C346.769 318.169 346.417 318.025 346.113 317.737C345.825 317.433 345.681 317.073 345.681 316.657C345.681 316.241 345.825 315.889 346.113 315.601C346.417 315.313 346.769 315.169 347.169 315.169C347.585 315.169 347.937 315.313 348.225 315.601C348.529 315.889 348.681 316.241 348.681 316.657C348.681 317.073 348.529 317.433 348.225 317.737C347.937 318.025 347.585 318.169 347.169 318.169ZM346.161 332.329V322.033H344.505V320.425H348.177V332.329H346.161ZM355.168 332.329C354.416 332.329 353.832 332.257 353.416 332.113C353.016 331.953 352.736 331.657 352.576 331.225C352.432 330.793 352.36 330.169 352.36 329.353V322.033H350.344V320.425H352.36V317.425H354.376V320.425H356.68V322.033H354.376V329.017C354.376 329.625 354.432 330.033 354.544 330.241C354.672 330.449 355.024 330.553 355.6 330.553H356.68V332.329H355.168ZM364.03 332.617C363.342 332.617 362.662 332.497 361.99 332.257C361.318 332.017 360.702 331.649 360.142 331.153C359.598 330.641 359.158 329.993 358.822 329.209C358.486 328.425 358.318 327.497 358.318 326.425C358.318 325.353 358.486 324.425 358.822 323.641C359.158 322.857 359.598 322.217 360.142 321.721C360.702 321.209 361.318 320.833 361.99 320.593C362.662 320.353 363.342 320.233 364.03 320.233C364.718 320.233 365.398 320.353 366.07 320.593C366.758 320.833 367.374 321.209 367.918 321.721C368.478 322.217 368.918 322.857 369.238 323.641C369.574 324.425 369.742 325.353 369.742 326.425C369.742 327.497 369.574 328.425 369.238 329.209C368.918 329.993 368.478 330.641 367.918 331.153C367.374 331.649 366.758 332.017 366.07 332.257C365.398 332.497 364.718 332.617 364.03 332.617ZM364.03 330.841C364.606 330.841 365.166 330.689 365.71 330.385C366.254 330.065 366.702 329.585 367.054 328.945C367.406 328.289 367.582 327.449 367.582 326.425C367.582 325.401 367.406 324.569 367.054 323.929C366.702 323.273 366.254 322.793 365.71 322.489C365.166 322.169 364.606 322.009 364.03 322.009C363.47 322.009 362.91 322.169 362.35 322.489C361.806 322.793 361.358 323.273 361.006 323.929C360.654 324.569 360.478 325.401 360.478 326.425C360.478 327.449 360.654 328.289 361.006 328.945C361.358 329.585 361.806 330.065 362.35 330.385C362.91 330.689 363.47 330.841 364.03 330.841ZM372.088 332.329V320.425H373.552L374.2 322.633C374.616 321.913 375.176 321.337 375.88 320.905C376.6 320.457 377.456 320.233 378.448 320.233V322.321C378.336 322.321 378.216 322.321 378.088 322.321C377.976 322.321 377.864 322.329 377.752 322.345C376.392 322.457 375.44 322.929 374.896 323.761C374.368 324.593 374.104 325.745 374.104 327.217V332.329H372.088ZM80.5355 362.617C79.7835 362.617 79.0955 362.481 78.4715 362.209C77.8475 361.937 77.3515 361.545 76.9835 361.033C76.6155 360.521 76.4315 359.905 76.4315 359.185C76.4315 358.241 76.7595 357.497 77.4155 356.953C78.0875 356.409 79.0235 355.993 80.2235 355.705C81.4395 355.401 82.8555 355.161 84.4715 354.985C84.5035 353.977 84.3035 353.201 83.8715 352.657C83.4395 352.113 82.7435 351.841 81.7835 351.841C81.0635 351.841 80.4715 352.009 80.0075 352.345C79.5595 352.665 79.2715 353.113 79.1435 353.689L77.1995 353.113C77.5195 352.201 78.0875 351.497 78.9035 351.001C79.7355 350.489 80.6875 350.233 81.7595 350.233C83.4075 350.233 84.6075 350.625 85.3595 351.409C86.1275 352.177 86.5115 353.393 86.5115 355.057V357.841C86.5115 358.833 86.5515 359.689 86.6315 360.409C86.7115 361.129 86.8075 361.769 86.9195 362.329H85.0715L84.5915 360.697C84.2395 361.289 83.7355 361.761 83.0795 362.113C82.4235 362.449 81.5755 362.617 80.5355 362.617ZM80.9675 361.009C81.5915 361.009 82.1835 360.897 82.7435 360.673C83.3035 360.449 83.7595 360.073 84.1115 359.545C84.4635 359.001 84.6395 358.265 84.6395 357.337V356.593C83.4235 356.721 82.3675 356.881 81.4715 357.073C80.5755 357.249 79.8795 357.505 79.3835 357.841C78.9035 358.161 78.6635 358.593 78.6635 359.137C78.6635 359.697 78.8635 360.153 79.2635 360.505C79.6795 360.841 80.2475 361.009 80.9675 361.009ZM89.5923 362.329V350.425H91.0803L91.6083 352.225C91.9443 351.665 92.4163 351.193 93.0243 350.809C93.6323 350.425 94.4403 350.233 95.4483 350.233C96.8883 350.233 97.9043 350.657 98.4963 351.505C99.0883 352.337 99.3843 353.433 99.3843 354.793V362.329H97.3683V355.393C97.3683 354.785 97.3123 354.225 97.2003 353.713C97.0883 353.185 96.8403 352.761 96.4563 352.441C96.0883 352.121 95.5203 351.961 94.7523 351.961C93.7763 351.961 93.0083 352.297 92.4483 352.969C91.8883 353.625 91.6083 354.593 91.6083 355.873V362.329H89.5923ZM105.79 362.617C105.038 362.617 104.35 362.481 103.726 362.209C103.102 361.937 102.606 361.545 102.238 361.033C101.87 360.521 101.686 359.905 101.686 359.185C101.686 358.241 102.014 357.497 102.67 356.953C103.342 356.409 104.278 355.993 105.478 355.705C106.694 355.401 108.11 355.161 109.726 354.985C109.758 353.977 109.558 353.201 109.126 352.657C108.694 352.113 107.998 351.841 107.038 351.841C106.318 351.841 105.726 352.009 105.262 352.345C104.814 352.665 104.526 353.113 104.398 353.689L102.454 353.113C102.774 352.201 103.342 351.497 104.158 351.001C104.99 350.489 105.942 350.233 107.014 350.233C108.662 350.233 109.862 350.625 110.614 351.409C111.382 352.177 111.766 353.393 111.766 355.057V357.841C111.766 358.833 111.806 359.689 111.886 360.409C111.966 361.129 112.062 361.769 112.174 362.329H110.326L109.846 360.697C109.494 361.289 108.99 361.761 108.334 362.113C107.678 362.449 106.83 362.617 105.79 362.617ZM106.222 361.009C106.846 361.009 107.438 360.897 107.998 360.673C108.558 360.449 109.014 360.073 109.366 359.545C109.718 359.001 109.894 358.265 109.894 357.337V356.593C108.678 356.721 107.622 356.881 106.726 357.073C105.83 357.249 105.134 357.505 104.638 357.841C104.158 358.161 103.918 358.593 103.918 359.137C103.918 359.697 104.118 360.153 104.518 360.505C104.934 360.841 105.502 361.009 106.222 361.009ZM117.655 362.329C116.903 362.329 116.319 362.257 115.903 362.113C115.503 361.953 115.223 361.657 115.063 361.225C114.919 360.793 114.847 360.169 114.847 359.353V346.321H116.863V359.017C116.863 359.625 116.927 360.033 117.055 360.241C117.183 360.449 117.527 360.553 118.087 360.553H118.543V362.329H117.655ZM119.838 366.193V364.417H120.654C121.23 364.417 121.67 364.369 121.974 364.273C122.278 364.193 122.518 364.001 122.694 363.697C122.886 363.409 123.07 362.961 123.246 362.353L118.95 350.449H121.182L124.11 359.617L127.038 350.449H129.246L125.022 362.857C124.734 363.705 124.438 364.369 124.134 364.849C123.846 365.345 123.454 365.689 122.958 365.881C122.462 366.089 121.766 366.193 120.87 366.193H119.838ZM135.251 362.617C134.563 362.617 133.883 362.513 133.211 362.305C132.555 362.081 131.963 361.753 131.435 361.321C130.923 360.873 130.531 360.313 130.259 359.641L132.203 358.921C132.379 359.625 132.763 360.137 133.355 360.457C133.963 360.761 134.595 360.913 135.251 360.913C135.731 360.913 136.179 360.841 136.595 360.697C137.027 360.553 137.379 360.345 137.651 360.073C137.923 359.801 138.059 359.489 138.059 359.137C138.059 358.481 137.795 358.017 137.267 357.745C136.755 357.473 136.139 357.265 135.419 357.121L133.763 356.785C133.187 356.657 132.651 356.481 132.155 356.257C131.659 356.017 131.259 355.681 130.955 355.249C130.651 354.817 130.499 354.241 130.499 353.521C130.499 352.801 130.723 352.201 131.171 351.721C131.619 351.225 132.187 350.849 132.875 350.593C133.579 350.337 134.315 350.209 135.083 350.209C136.027 350.209 136.915 350.409 137.747 350.809C138.595 351.193 139.195 351.801 139.547 352.633L137.651 353.329C137.443 352.849 137.075 352.497 136.547 352.273C136.035 352.033 135.499 351.913 134.939 351.913C134.331 351.913 133.779 352.049 133.283 352.321C132.787 352.593 132.539 352.985 132.539 353.497C132.539 354.009 132.747 354.385 133.163 354.625C133.595 354.849 134.123 355.025 134.747 355.153L136.307 355.465C136.947 355.593 137.555 355.777 138.131 356.017C138.707 356.257 139.179 356.617 139.547 357.097C139.915 357.561 140.099 358.217 140.099 359.065C140.099 359.817 139.867 360.457 139.403 360.985C138.939 361.513 138.339 361.921 137.603 362.209C136.867 362.481 136.083 362.617 135.251 362.617ZM144.316 348.169C143.916 348.169 143.564 348.025 143.26 347.737C142.972 347.433 142.828 347.073 142.828 346.657C142.828 346.241 142.972 345.889 143.26 345.601C143.564 345.313 143.916 345.169 144.316 345.169C144.732 345.169 145.084 345.313 145.372 345.601C145.676 345.889 145.828 346.241 145.828 346.657C145.828 347.073 145.676 347.433 145.372 347.737C145.084 348.025 144.732 348.169 144.316 348.169ZM143.308 362.329V352.033H141.652V350.425H145.324V362.329H143.308ZM152.747 362.617C152.059 362.617 151.379 362.513 150.707 362.305C150.051 362.081 149.459 361.753 148.931 361.321C148.419 360.873 148.027 360.313 147.755 359.641L149.699 358.921C149.875 359.625 150.259 360.137 150.851 360.457C151.459 360.761 152.091 360.913 152.747 360.913C153.227 360.913 153.675 360.841 154.091 360.697C154.523 360.553 154.875 360.345 155.147 360.073C155.419 359.801 155.555 359.489 155.555 359.137C155.555 358.481 155.291 358.017 154.763 357.745C154.251 357.473 153.635 357.265 152.915 357.121L151.259 356.785C150.683 356.657 150.147 356.481 149.651 356.257C149.155 356.017 148.755 355.681 148.451 355.249C148.147 354.817 147.995 354.241 147.995 353.521C147.995 352.801 148.219 352.201 148.667 351.721C149.115 351.225 149.683 350.849 150.371 350.593C151.075 350.337 151.811 350.209 152.579 350.209C153.523 350.209 154.411 350.409 155.243 350.809C156.091 351.193 156.691 351.801 157.043 352.633L155.147 353.329C154.939 352.849 154.571 352.497 154.043 352.273C153.531 352.033 152.995 351.913 152.435 351.913C151.827 351.913 151.275 352.049 150.779 352.321C150.283 352.593 150.035 352.985 150.035 353.497C150.035 354.009 150.243 354.385 150.659 354.625C151.091 354.849 151.619 355.025 152.243 355.153L153.803 355.465C154.443 355.593 155.051 355.777 155.627 356.017C156.203 356.257 156.675 356.617 157.043 357.097C157.411 357.561 157.595 358.217 157.595 359.065C157.595 359.817 157.363 360.457 156.899 360.985C156.435 361.513 155.835 361.921 155.099 362.209C154.363 362.481 153.579 362.617 152.747 362.617ZM159.148 365.521L160.276 362.593C159.908 362.529 159.596 362.353 159.34 362.065C159.1 361.777 158.98 361.441 158.98 361.057C158.98 360.641 159.132 360.281 159.436 359.977C159.74 359.673 160.1 359.521 160.516 359.521C160.948 359.521 161.316 359.673 161.62 359.977C161.924 360.281 162.076 360.641 162.076 361.057C162.076 361.249 162.036 361.449 161.956 361.657L160.468 365.521H159.148ZM174.253 362.617C173.501 362.617 172.813 362.481 172.189 362.209C171.565 361.937 171.069 361.545 170.701 361.033C170.333 360.521 170.149 359.905 170.149 359.185C170.149 358.241 170.477 357.497 171.133 356.953C171.805 356.409 172.741 355.993 173.941 355.705C175.157 355.401 176.573 355.161 178.189 354.985C178.221 353.977 178.021 353.201 177.589 352.657C177.157 352.113 176.461 351.841 175.501 351.841C174.781 351.841 174.189 352.009 173.725 352.345C173.277 352.665 172.989 353.113 172.861 353.689L170.917 353.113C171.237 352.201 171.805 351.497 172.621 351.001C173.453 350.489 174.405 350.233 175.477 350.233C177.125 350.233 178.325 350.625 179.077 351.409C179.845 352.177 180.229 353.393 180.229 355.057V357.841C180.229 358.833 180.269 359.689 180.349 360.409C180.429 361.129 180.525 361.769 180.637 362.329H178.789L178.309 360.697C177.957 361.289 177.453 361.761 176.797 362.113C176.141 362.449 175.293 362.617 174.253 362.617ZM174.685 361.009C175.309 361.009 175.901 360.897 176.461 360.673C177.021 360.449 177.477 360.073 177.829 359.545C178.181 359.001 178.357 358.265 178.357 357.337V356.593C177.141 356.721 176.085 356.881 175.189 357.073C174.293 357.249 173.597 357.505 173.101 357.841C172.621 358.161 172.381 358.593 172.381 359.137C172.381 359.697 172.581 360.153 172.981 360.505C173.397 360.841 173.965 361.009 174.685 361.009ZM183.31 362.329V350.425H184.798L185.326 352.225C185.662 351.665 186.134 351.193 186.742 350.809C187.35 350.425 188.158 350.233 189.166 350.233C190.606 350.233 191.622 350.657 192.214 351.505C192.806 352.337 193.102 353.433 193.102 354.793V362.329H191.086V355.393C191.086 354.785 191.03 354.225 190.918 353.713C190.806 353.185 190.558 352.761 190.174 352.441C189.806 352.121 189.238 351.961 188.47 351.961C187.494 351.961 186.726 352.297 186.166 352.969C185.606 353.625 185.326 354.593 185.326 355.873V362.329H183.31ZM200.257 362.617C199.361 362.617 198.521 362.377 197.737 361.897C196.953 361.401 196.321 360.697 195.841 359.785C195.377 358.857 195.145 357.737 195.145 356.425C195.145 355.113 195.377 354.001 195.841 353.089C196.321 352.161 196.953 351.457 197.737 350.977C198.521 350.481 199.361 350.233 200.257 350.233C201.201 350.233 201.993 350.425 202.633 350.809C203.273 351.177 203.769 351.673 204.121 352.297V346.297H206.137V357.841C206.137 358.241 206.153 358.833 206.185 359.617C206.217 360.385 206.337 361.289 206.545 362.329H204.649L204.121 360.529C203.769 361.169 203.273 361.681 202.633 362.065C201.993 362.433 201.201 362.617 200.257 362.617ZM200.785 360.889C201.809 360.889 202.625 360.497 203.233 359.713C203.857 358.929 204.169 357.833 204.169 356.425C204.169 355.001 203.857 353.905 203.233 353.137C202.625 352.353 201.809 351.961 200.785 351.961C199.761 351.961 198.937 352.353 198.313 353.137C197.705 353.905 197.401 355.001 197.401 356.425C197.401 357.833 197.705 358.929 198.313 359.713C198.937 360.497 199.761 360.889 200.785 360.889ZM221.587 362.617C220.659 362.617 219.875 362.433 219.235 362.065C218.595 361.681 218.091 361.169 217.723 360.529L217.195 362.329H215.707V346.297H217.723V352.297C218.091 351.673 218.595 351.177 219.235 350.809C219.875 350.425 220.659 350.233 221.587 350.233C222.499 350.233 223.339 350.481 224.107 350.977C224.891 351.457 225.515 352.161 225.979 353.089C226.459 354.001 226.699 355.113 226.699 356.425C226.699 357.737 226.459 358.857 225.979 359.785C225.515 360.697 224.891 361.401 224.107 361.897C223.339 362.377 222.499 362.617 221.587 362.617ZM221.059 360.889C222.083 360.889 222.899 360.497 223.507 359.713C224.131 358.929 224.443 357.833 224.443 356.425C224.443 355.001 224.131 353.905 223.507 353.137C222.899 352.353 222.083 351.961 221.059 351.961C220.035 351.961 219.211 352.353 218.587 353.137C217.979 353.905 217.675 355.001 217.675 356.425C217.675 357.833 217.979 358.929 218.587 359.713C219.211 360.497 220.035 360.889 221.059 360.889ZM234.124 362.617C232.876 362.617 231.82 362.345 230.956 361.801C230.092 361.241 229.428 360.497 228.964 359.569C228.516 358.625 228.292 357.569 228.292 356.401C228.292 355.137 228.548 354.049 229.06 353.137C229.572 352.209 230.26 351.497 231.124 351.001C232.004 350.489 232.988 350.233 234.076 350.233C235.02 350.233 235.852 350.425 236.572 350.809C237.292 351.177 237.884 351.681 238.348 352.321C238.828 352.945 239.172 353.657 239.38 354.457C239.604 355.257 239.684 356.081 239.62 356.929H230.452C230.484 357.921 230.7 358.705 231.1 359.281C231.516 359.857 232.004 360.265 232.564 360.505C233.124 360.729 233.644 360.841 234.124 360.841C234.796 360.841 235.356 360.737 235.804 360.529C236.268 360.305 236.636 360.017 236.908 359.665L238.852 360.241C238.42 360.929 237.804 361.497 237.004 361.945C236.204 362.393 235.244 362.617 234.124 362.617ZM230.476 355.321H237.484C237.484 354.761 237.34 354.225 237.052 353.713C236.78 353.201 236.388 352.785 235.876 352.465C235.38 352.129 234.78 351.961 234.076 351.961C233.484 351.961 232.924 352.073 232.396 352.297C231.868 352.521 231.428 352.881 231.076 353.377C230.74 353.873 230.54 354.521 230.476 355.321ZM241.758 362.329V350.425H243.246L243.774 352.225C244.11 351.665 244.582 351.193 245.19 350.809C245.798 350.425 246.606 350.233 247.614 350.233C249.054 350.233 250.07 350.657 250.662 351.505C251.254 352.337 251.55 353.433 251.55 354.793V362.329H249.534V355.393C249.534 354.785 249.478 354.225 249.366 353.713C249.254 353.185 249.006 352.761 248.622 352.441C248.254 352.121 247.686 351.961 246.918 351.961C245.942 351.961 245.174 352.297 244.614 352.969C244.054 353.625 243.774 354.593 243.774 355.873V362.329H241.758ZM259.138 362.617C258.002 362.617 257.018 362.353 256.186 361.825C255.354 361.281 254.714 360.545 254.266 359.617C253.818 358.689 253.594 357.625 253.594 356.425C253.594 355.241 253.826 354.185 254.29 353.257C254.77 352.313 255.442 351.577 256.306 351.049C257.17 350.505 258.186 350.233 259.354 350.233C260.426 350.233 261.346 350.497 262.114 351.025C262.882 351.553 263.458 352.185 263.842 352.921L261.994 353.593C261.738 353.113 261.362 352.729 260.866 352.441C260.37 352.153 259.818 352.009 259.21 352.009C258.618 352.009 258.058 352.169 257.53 352.489C257.002 352.793 256.578 353.273 256.258 353.929C255.938 354.569 255.778 355.393 255.778 356.401C255.778 357.393 255.938 358.225 256.258 358.897C256.594 359.553 257.018 360.041 257.53 360.361C258.058 360.681 258.618 360.841 259.21 360.841C259.866 360.841 260.434 360.697 260.914 360.409C261.41 360.105 261.786 359.729 262.042 359.281L263.89 359.953C263.442 360.721 262.802 361.361 261.97 361.873C261.138 362.369 260.194 362.617 259.138 362.617ZM266.122 362.329V346.297H268.138V352.225C268.474 351.665 268.946 351.193 269.554 350.809C270.162 350.425 270.97 350.233 271.978 350.233C273.418 350.233 274.434 350.657 275.026 351.505C275.618 352.337 275.914 353.433 275.914 354.793V362.329H273.898V355.393C273.898 354.785 273.842 354.225 273.73 353.713C273.618 353.185 273.37 352.761 272.986 352.441C272.618 352.121 272.05 351.961 271.282 351.961C270.306 351.961 269.538 352.297 268.978 352.969C268.418 353.625 268.138 354.593 268.138 355.873V362.329H266.122ZM278.983 362.329V350.425H280.471L280.999 352.225C281.335 351.665 281.791 351.193 282.367 350.809C282.959 350.425 283.695 350.233 284.575 350.233C285.487 350.233 286.223 350.417 286.783 350.785C287.343 351.153 287.751 351.665 288.007 352.321C288.487 351.585 289.063 351.057 289.735 350.737C290.423 350.401 291.183 350.233 292.015 350.233C293.391 350.233 294.375 350.657 294.967 351.505C295.559 352.337 295.855 353.433 295.855 354.793V362.329H293.839V355.393C293.839 354.785 293.775 354.225 293.647 353.713C293.535 353.185 293.295 352.761 292.927 352.441C292.575 352.121 292.031 351.961 291.295 351.961C290.431 351.961 289.735 352.297 289.207 352.969C288.695 353.625 288.439 354.593 288.439 355.873V362.329H286.423V355.393C286.423 354.785 286.359 354.225 286.231 353.713C286.119 353.185 285.879 352.761 285.511 352.441C285.159 352.121 284.615 351.961 283.879 351.961C283.015 351.961 282.319 352.297 281.791 352.969C281.263 353.625 280.999 354.593 280.999 355.873V362.329H278.983ZM302.259 362.617C301.507 362.617 300.819 362.481 300.195 362.209C299.571 361.937 299.075 361.545 298.707 361.033C298.339 360.521 298.155 359.905 298.155 359.185C298.155 358.241 298.483 357.497 299.139 356.953C299.811 356.409 300.747 355.993 301.947 355.705C303.163 355.401 304.579 355.161 306.195 354.985C306.227 353.977 306.027 353.201 305.595 352.657C305.163 352.113 304.467 351.841 303.507 351.841C302.787 351.841 302.195 352.009 301.731 352.345C301.283 352.665 300.995 353.113 300.867 353.689L298.923 353.113C299.243 352.201 299.811 351.497 300.627 351.001C301.459 350.489 302.411 350.233 303.483 350.233C305.131 350.233 306.331 350.625 307.083 351.409C307.851 352.177 308.235 353.393 308.235 355.057V357.841C308.235 358.833 308.275 359.689 308.355 360.409C308.435 361.129 308.531 361.769 308.643 362.329H306.795L306.315 360.697C305.963 361.289 305.459 361.761 304.803 362.113C304.147 362.449 303.299 362.617 302.259 362.617ZM302.691 361.009C303.315 361.009 303.907 360.897 304.467 360.673C305.027 360.449 305.483 360.073 305.835 359.545C306.187 359.001 306.363 358.265 306.363 357.337V356.593C305.147 356.721 304.091 356.881 303.195 357.073C302.299 357.249 301.603 357.505 301.107 357.841C300.627 358.161 300.387 358.593 300.387 359.137C300.387 359.697 300.587 360.153 300.987 360.505C301.403 360.841 301.971 361.009 302.691 361.009ZM311.316 362.329V350.425H312.78L313.428 352.633C313.844 351.913 314.404 351.337 315.108 350.905C315.828 350.457 316.684 350.233 317.676 350.233V352.321C317.564 352.321 317.444 352.321 317.316 352.321C317.204 352.321 317.092 352.329 316.98 352.345C315.62 352.457 314.668 352.929 314.124 353.761C313.596 354.593 313.332 355.745 313.332 357.217V362.329H311.316ZM319.232 362.329V346.297H321.248V355.777L326.048 350.425H328.472L323.984 355.345L329.072 362.329H326.6L322.64 356.833L321.248 358.345V362.329H319.232ZM332.822 348.169C332.422 348.169 332.07 348.025 331.766 347.737C331.478 347.433 331.334 347.073 331.334 346.657C331.334 346.241 331.478 345.889 331.766 345.601C332.07 345.313 332.422 345.169 332.822 345.169C333.238 345.169 333.59 345.313 333.878 345.601C334.182 345.889 334.334 346.241 334.334 346.657C334.334 347.073 334.182 347.433 333.878 347.737C333.59 348.025 333.238 348.169 332.822 348.169ZM331.814 362.329V352.033H330.158V350.425H333.83V362.329H331.814ZM337.197 362.329V350.425H338.685L339.213 352.225C339.549 351.665 340.021 351.193 340.629 350.809C341.237 350.425 342.045 350.233 343.053 350.233C344.493 350.233 345.509 350.657 346.101 351.505C346.693 352.337 346.989 353.433 346.989 354.793V362.329H344.973V355.393C344.973 354.785 344.917 354.225 344.805 353.713C344.693 353.185 344.445 352.761 344.061 352.441C343.693 352.121 343.125 351.961 342.357 351.961C341.381 351.961 340.613 352.297 340.053 352.969C339.493 353.625 339.213 354.593 339.213 355.873V362.329H337.197ZM354.627 366.937C353.987 366.937 353.347 366.841 352.707 366.649C352.083 366.473 351.523 366.177 351.027 365.761C350.547 365.345 350.203 364.809 349.995 364.153L352.011 363.601C352.235 364.225 352.603 364.641 353.115 364.849C353.627 365.057 354.131 365.161 354.627 365.161C355.859 365.161 356.691 364.865 357.123 364.273C357.571 363.681 357.795 362.809 357.795 361.657V360.073C357.427 360.697 356.939 361.193 356.331 361.561C355.723 361.929 354.947 362.113 354.003 362.113C353.123 362.113 352.299 361.889 351.531 361.441C350.763 360.977 350.139 360.305 349.659 359.425C349.195 358.529 348.963 357.449 348.963 356.185C348.963 354.905 349.195 353.825 349.659 352.945C350.139 352.065 350.763 351.393 351.531 350.929C352.299 350.465 353.123 350.233 354.003 350.233C354.947 350.233 355.723 350.425 356.331 350.809C356.939 351.177 357.427 351.673 357.795 352.297L358.347 350.425H359.811V361.201C359.811 363.089 359.427 364.513 358.659 365.473C357.907 366.449 356.563 366.937 354.627 366.937ZM354.507 360.433C355.115 360.433 355.667 360.289 356.163 360.001C356.675 359.713 357.083 359.257 357.387 358.633C357.707 358.009 357.867 357.193 357.867 356.185C357.867 355.177 357.707 354.361 357.387 353.737C357.083 353.113 356.675 352.665 356.163 352.393C355.667 352.105 355.115 351.961 354.507 351.961C353.531 351.961 352.723 352.329 352.083 353.065C351.459 353.785 351.147 354.825 351.147 356.185C351.147 357.545 351.459 358.593 352.083 359.329C352.723 360.065 353.531 360.433 354.507 360.433Z" fill="black"/>
<rect x="138" y="219.329" width="158" height="60" rx="27" fill="#FD5201"/>
<path d="M173.173 256.329V241.784H178.912C180.01 241.784 180.948 241.98 181.724 242.373C182.506 242.761 183.1 243.313 183.507 244.028C183.919 244.738 184.125 245.574 184.125 246.535C184.125 247.501 183.917 248.332 183.5 249.028C183.083 249.719 182.48 250.25 181.689 250.619C180.903 250.988 179.951 251.173 178.834 251.173H174.991V248.701H178.337C178.924 248.701 179.411 248.621 179.8 248.46C180.188 248.299 180.477 248.057 180.666 247.735C180.86 247.413 180.957 247.013 180.957 246.535C180.957 246.052 180.86 245.645 180.666 245.313C180.477 244.982 180.186 244.731 179.793 244.561C179.404 244.385 178.914 244.298 178.322 244.298H176.248V256.329H173.173ZM181.028 249.71L184.643 256.329H181.248L177.712 249.71H181.028ZM190.837 256.542C189.715 256.542 188.749 256.315 187.939 255.86C187.135 255.401 186.514 254.752 186.079 253.914C185.643 253.072 185.425 252.075 185.425 250.924C185.425 249.802 185.643 248.817 186.079 247.97C186.514 247.122 187.127 246.462 187.918 245.988C188.714 245.515 189.646 245.278 190.716 245.278C191.436 245.278 192.106 245.394 192.726 245.626C193.351 245.853 193.896 246.197 194.36 246.656C194.829 247.115 195.193 247.693 195.454 248.389C195.714 249.08 195.844 249.89 195.844 250.818V251.649H186.633V249.774H192.996C192.996 249.338 192.902 248.952 192.712 248.616C192.523 248.28 192.26 248.017 191.924 247.828C191.592 247.634 191.206 247.536 190.766 247.536C190.307 247.536 189.9 247.643 189.545 247.856C189.194 248.064 188.92 248.346 188.721 248.701C188.522 249.052 188.42 249.442 188.415 249.873V251.656C188.415 252.196 188.515 252.662 188.714 253.055C188.917 253.448 189.204 253.751 189.573 253.964C189.942 254.177 190.38 254.284 190.887 254.284C191.223 254.284 191.531 254.236 191.81 254.142C192.09 254.047 192.329 253.905 192.528 253.715C192.726 253.526 192.878 253.294 192.982 253.019L195.78 253.204C195.638 253.876 195.347 254.464 194.907 254.965C194.471 255.463 193.908 255.851 193.216 256.13C192.53 256.405 191.737 256.542 190.837 256.542ZM206.695 248.531L203.926 248.701C203.878 248.465 203.776 248.251 203.62 248.062C203.464 247.868 203.258 247.714 203.002 247.6C202.751 247.482 202.451 247.423 202.1 247.423C201.631 247.423 201.236 247.522 200.914 247.721C200.592 247.915 200.431 248.176 200.431 248.502C200.431 248.763 200.535 248.983 200.744 249.163C200.952 249.343 201.31 249.487 201.816 249.596L203.791 249.994C204.851 250.212 205.642 250.562 206.163 251.045C206.684 251.528 206.944 252.162 206.944 252.948C206.944 253.663 206.733 254.291 206.312 254.831C205.895 255.37 205.322 255.792 204.593 256.095C203.869 256.393 203.033 256.542 202.086 256.542C200.642 256.542 199.491 256.242 198.634 255.64C197.782 255.034 197.283 254.21 197.136 253.169L200.112 253.012C200.202 253.453 200.419 253.789 200.765 254.021C201.111 254.248 201.553 254.362 202.093 254.362C202.623 254.362 203.05 254.26 203.372 254.056C203.698 253.848 203.864 253.581 203.869 253.254C203.864 252.979 203.748 252.754 203.521 252.579C203.293 252.399 202.943 252.262 202.47 252.167L200.58 251.791C199.515 251.578 198.722 251.208 198.201 250.683C197.685 250.157 197.427 249.487 197.427 248.673C197.427 247.972 197.616 247.368 197.995 246.862C198.379 246.355 198.916 245.965 199.607 245.69C200.303 245.415 201.118 245.278 202.051 245.278C203.428 245.278 204.513 245.569 205.303 246.152C206.099 246.734 206.563 247.527 206.695 248.531ZM213.621 256.542C212.499 256.542 211.533 256.315 210.723 255.86C209.918 255.401 209.298 254.752 208.862 253.914C208.427 253.072 208.209 252.075 208.209 250.924C208.209 249.802 208.427 248.817 208.862 247.97C209.298 247.122 209.911 246.462 210.702 245.988C211.497 245.515 212.43 245.278 213.5 245.278C214.22 245.278 214.89 245.394 215.51 245.626C216.135 245.853 216.679 246.197 217.144 246.656C217.612 247.115 217.977 247.693 218.237 248.389C218.498 249.08 218.628 249.89 218.628 250.818V251.649H209.416V249.774H215.78C215.78 249.338 215.685 248.952 215.496 248.616C215.306 248.28 215.044 248.017 214.707 247.828C214.376 247.634 213.99 247.536 213.55 247.536C213.09 247.536 212.683 247.643 212.328 247.856C211.978 248.064 211.703 248.346 211.504 248.701C211.305 249.052 211.204 249.442 211.199 249.873V251.656C211.199 252.196 211.298 252.662 211.497 253.055C211.701 253.448 211.987 253.751 212.357 253.964C212.726 254.177 213.164 254.284 213.67 254.284C214.007 254.284 214.314 254.236 214.594 254.142C214.873 254.047 215.112 253.905 215.311 253.715C215.51 253.526 215.661 253.294 215.766 253.019L218.564 253.204C218.422 253.876 218.131 254.464 217.69 254.965C217.255 255.463 216.691 255.851 216 256.13C215.313 256.405 214.52 256.542 213.621 256.542ZM223.513 256.535C222.817 256.535 222.197 256.414 221.652 256.173C221.108 255.927 220.677 255.564 220.36 255.086C220.047 254.603 219.891 254.002 219.891 253.282C219.891 252.676 220.002 252.167 220.225 251.755C220.447 251.343 220.75 251.012 221.134 250.761C221.517 250.51 221.953 250.321 222.441 250.193C222.933 250.065 223.449 249.975 223.989 249.923C224.623 249.857 225.135 249.795 225.523 249.738C225.911 249.677 226.193 249.587 226.368 249.468C226.543 249.35 226.631 249.175 226.631 248.943V248.9C226.631 248.45 226.489 248.102 226.205 247.856C225.926 247.61 225.528 247.487 225.012 247.487C224.467 247.487 224.034 247.608 223.712 247.849C223.39 248.086 223.177 248.384 223.073 248.744L220.274 248.517C220.417 247.854 220.696 247.281 221.113 246.798C221.529 246.31 222.067 245.936 222.725 245.676C223.388 245.411 224.155 245.278 225.026 245.278C225.632 245.278 226.212 245.349 226.766 245.491C227.325 245.633 227.819 245.853 228.25 246.152C228.686 246.45 229.029 246.833 229.28 247.302C229.531 247.766 229.657 248.322 229.657 248.971V256.329H226.787V254.816H226.702C226.527 255.157 226.292 255.458 225.999 255.718C225.705 255.974 225.353 256.175 224.941 256.322C224.529 256.464 224.053 256.535 223.513 256.535ZM224.38 254.447C224.825 254.447 225.218 254.359 225.559 254.184C225.899 254.004 226.167 253.763 226.361 253.46C226.555 253.157 226.652 252.813 226.652 252.43V251.272C226.558 251.334 226.427 251.391 226.262 251.443C226.101 251.49 225.918 251.535 225.715 251.578C225.511 251.616 225.308 251.651 225.104 251.684C224.9 251.713 224.716 251.739 224.55 251.762C224.195 251.814 223.885 251.897 223.62 252.011C223.354 252.125 223.149 252.278 223.002 252.473C222.855 252.662 222.782 252.899 222.782 253.183C222.782 253.595 222.931 253.91 223.229 254.127C223.532 254.34 223.916 254.447 224.38 254.447ZM231.804 256.329V245.42H234.737V247.323H234.851C235.05 246.646 235.383 246.135 235.852 245.789C236.321 245.439 236.861 245.264 237.471 245.264C237.623 245.264 237.786 245.273 237.962 245.292C238.137 245.311 238.291 245.337 238.423 245.37V248.055C238.281 248.012 238.085 247.974 237.834 247.941C237.583 247.908 237.353 247.892 237.145 247.892C236.7 247.892 236.302 247.989 235.952 248.183C235.606 248.372 235.331 248.637 235.128 248.978C234.929 249.319 234.829 249.712 234.829 250.157V256.329H231.804ZM244.209 256.542C243.091 256.542 242.13 256.305 241.325 255.832C240.525 255.354 239.909 254.691 239.479 253.843C239.052 252.996 238.839 252.02 238.839 250.917C238.839 249.8 239.055 248.82 239.486 247.977C239.921 247.129 240.539 246.469 241.339 245.995C242.14 245.517 243.091 245.278 244.194 245.278C245.146 245.278 245.979 245.451 246.694 245.796C247.409 246.142 247.975 246.627 248.392 247.252C248.809 247.877 249.038 248.611 249.081 249.454H246.226C246.145 248.91 245.932 248.472 245.586 248.14C245.246 247.804 244.798 247.636 244.244 247.636C243.775 247.636 243.366 247.764 243.015 248.019C242.67 248.27 242.4 248.637 242.206 249.12C242.012 249.603 241.915 250.188 241.915 250.875C241.915 251.571 242.009 252.162 242.199 252.65C242.393 253.138 242.665 253.509 243.015 253.765C243.366 254.021 243.775 254.149 244.244 254.149C244.59 254.149 244.9 254.078 245.175 253.936C245.454 253.794 245.684 253.588 245.863 253.318C246.048 253.043 246.169 252.714 246.226 252.331H249.081C249.033 253.164 248.806 253.898 248.399 254.532C247.997 255.162 247.44 255.654 246.73 256.009C246.02 256.365 245.179 256.542 244.209 256.542ZM253.844 250.022V256.329H250.818V241.784H253.758V247.345H253.886C254.132 246.701 254.53 246.197 255.079 245.832C255.629 245.463 256.317 245.278 257.146 245.278C257.904 245.278 258.564 245.444 259.128 245.775C259.696 246.102 260.136 246.573 260.449 247.188C260.766 247.799 260.922 248.531 260.917 249.383V256.329H257.892V249.923C257.897 249.251 257.726 248.727 257.38 248.353C257.04 247.979 256.561 247.792 255.946 247.792C255.534 247.792 255.169 247.88 254.852 248.055C254.54 248.23 254.293 248.486 254.113 248.822C253.938 249.153 253.848 249.554 253.844 250.022Z" fill="white"/>
</svg>
