<svg width="437" height="437" viewBox="0 0 437 437" fill="none" xmlns="http://www.w3.org/2000/svg">
<rect x="236.414" y="132.912" width="53.2617" height="11.2727" rx="5.63633" transform="rotate(68.1123 236.414 132.912)" fill="white" stroke="black" stroke-width="1.55"/>
<mask id="path-2-inside-1_1336_1646" fill="white">
<path fill-rule="evenodd" clip-rule="evenodd" d="M239.317 136.683C258.748 124.91 264.956 99.6139 253.183 80.1829C241.41 60.7519 216.114 54.5439 196.683 66.317C177.252 78.0901 171.044 103.386 182.817 122.817C194.59 142.248 219.886 148.456 239.317 136.683ZM234.335 128.461C249.224 119.44 253.981 100.056 244.96 85.1668C235.939 70.2773 216.555 65.5203 201.666 74.5417C186.776 83.5631 182.019 102.947 191.041 117.836C200.062 132.726 219.446 137.483 234.335 128.461Z"/>
</mask>
<path fill-rule="evenodd" clip-rule="evenodd" d="M239.317 136.683C258.748 124.91 264.956 99.6139 253.183 80.1829C241.41 60.7519 216.114 54.5439 196.683 66.317C177.252 78.0901 171.044 103.386 182.817 122.817C194.59 142.248 219.886 148.456 239.317 136.683ZM234.335 128.461C249.224 119.44 253.981 100.056 244.96 85.1668C235.939 70.2773 216.555 65.5203 201.666 74.5417C186.776 83.5631 182.019 102.947 191.041 117.836C200.062 132.726 219.446 137.483 234.335 128.461Z" fill="#FFEAE2"/>
<path d="M253.183 80.1829L251.857 80.9861C263.187 99.685 257.213 124.028 238.514 135.357L239.317 136.683L240.12 138.009C260.283 125.792 266.725 99.5429 254.509 79.3797L253.183 80.1829ZM196.683 66.317L197.486 67.6427C216.185 56.3132 240.528 62.2873 251.857 80.9861L253.183 80.1829L254.509 79.3797C242.292 59.2166 216.043 52.7747 195.88 64.9913L196.683 66.317ZM182.817 122.817L184.143 122.014C172.813 103.315 178.787 78.9721 197.486 67.6427L196.683 66.317L195.88 64.9913C175.717 77.208 169.275 103.457 181.491 123.62L182.817 122.817ZM239.317 136.683L238.514 135.357C219.815 146.687 195.472 140.713 184.143 122.014L182.817 122.817L181.491 123.62C193.708 143.783 219.957 150.225 240.12 138.009L239.317 136.683ZM244.96 85.1668L243.634 85.97C252.212 100.127 247.689 118.558 233.532 127.136L234.335 128.461L235.138 129.787C250.76 120.322 255.751 99.9852 246.286 84.3636L244.96 85.1668ZM201.666 74.5417L202.469 75.8674C216.626 67.2896 235.057 71.8127 243.634 85.97L244.96 85.1668L246.286 84.3636C236.821 68.742 216.484 63.7511 200.862 73.216L201.666 74.5417ZM191.041 117.836L192.366 117.033C183.788 102.876 188.312 84.4451 202.469 75.8674L201.666 74.5417L200.862 73.216C185.241 82.681 180.25 103.018 189.715 118.639L191.041 117.836ZM234.335 128.461L233.532 127.136C219.374 135.713 200.944 131.19 192.366 117.033L191.041 117.836L189.715 118.639C199.18 134.261 219.517 139.252 235.138 129.787L234.335 128.461Z" fill="black" mask="url(#path-2-inside-1_1336_1646)"/>
<path d="M193.926 100.516C193.42 101.022 193.419 101.844 193.925 102.351L194.314 102.739C207.502 115.927 228.884 115.926 242.072 102.739C242.579 102.232 242.578 101.411 242.071 100.904L241.683 100.516C228.495 87.3279 207.114 87.3279 193.926 100.516Z" fill="white" stroke="black" stroke-width="1.55"/>
<circle cx="11.3" cy="11.3" r="10.525" transform="matrix(-1 0 0 1 229.297 90.2012)" fill="#FFEAE2" stroke="black" stroke-width="1.55"/>
<path d="M218 84.1761L218 74.3828" stroke="black" stroke-width="1.55" stroke-linecap="round"/>
<path d="M218 117.323L218 127.117" stroke="black" stroke-width="1.55" stroke-linecap="round"/>
<path d="M211.496 82.6703L208.961 77.0632" stroke="black" stroke-width="1.55" stroke-linecap="round"/>
<path d="M211.496 118.831L208.961 124.438" stroke="black" stroke-width="1.55" stroke-linecap="round"/>
<path d="M224.504 82.6703L227.039 77.0632" stroke="black" stroke-width="1.55" stroke-linecap="round"/>
<path d="M224.504 118.831L227.039 124.438" stroke="black" stroke-width="1.55" stroke-linecap="round"/>
<path d="M107.172 331.521V315.513H112.188C113.5 315.513 114.652 315.641 115.644 315.897C116.652 316.153 117.436 316.633 117.996 317.337C118.572 318.025 118.86 319.033 118.86 320.361C118.86 321.673 118.572 322.681 117.996 323.385C117.436 324.073 116.652 324.545 115.644 324.801C114.652 325.041 113.5 325.161 112.188 325.161H109.428V331.521H107.172ZM109.428 323.217H112.38C113.164 323.217 113.868 323.161 114.492 323.049C115.116 322.937 115.612 322.681 115.98 322.281C116.364 321.865 116.556 321.225 116.556 320.361C116.556 319.481 116.364 318.833 115.98 318.417C115.612 318.001 115.116 317.729 114.492 317.601C113.868 317.473 113.164 317.409 112.38 317.409H109.428V323.217ZM126.266 331.833C125.018 331.833 123.962 331.561 123.098 331.017C122.234 330.457 121.57 329.713 121.106 328.785C120.658 327.841 120.434 326.785 120.434 325.617C120.434 324.353 120.69 323.265 121.202 322.353C121.714 321.425 122.402 320.713 123.266 320.217C124.146 319.705 125.13 319.449 126.218 319.449C127.162 319.449 127.994 319.641 128.714 320.025C129.434 320.393 130.026 320.897 130.49 321.537C130.97 322.161 131.314 322.873 131.522 323.673C131.746 324.473 131.826 325.297 131.762 326.145H122.594C122.626 327.137 122.842 327.921 123.242 328.497C123.658 329.073 124.146 329.481 124.706 329.721C125.266 329.945 125.786 330.057 126.266 330.057C126.938 330.057 127.498 329.953 127.946 329.745C128.41 329.521 128.778 329.233 129.05 328.881L130.994 329.457C130.562 330.145 129.946 330.713 129.146 331.161C128.346 331.609 127.386 331.833 126.266 331.833ZM122.618 324.537H129.626C129.626 323.977 129.482 323.441 129.194 322.929C128.922 322.417 128.53 322.001 128.018 321.681C127.522 321.345 126.922 321.177 126.218 321.177C125.626 321.177 125.066 321.289 124.538 321.513C124.01 321.737 123.57 322.097 123.218 322.593C122.882 323.089 122.682 323.737 122.618 324.537ZM133.9 331.545V319.641H135.364L136.012 321.849C136.428 321.129 136.988 320.553 137.692 320.121C138.412 319.673 139.268 319.449 140.26 319.449V321.537C140.148 321.537 140.028 321.537 139.9 321.537C139.788 321.537 139.676 321.545 139.564 321.561C138.204 321.673 137.252 322.145 136.708 322.977C136.18 323.809 135.916 324.961 135.916 326.433V331.545H133.9ZM145.872 331.833C145.184 331.833 144.504 331.729 143.832 331.521C143.176 331.297 142.584 330.969 142.056 330.537C141.544 330.089 141.152 329.529 140.88 328.857L142.824 328.137C143 328.841 143.384 329.353 143.976 329.673C144.584 329.977 145.216 330.129 145.872 330.129C146.352 330.129 146.8 330.057 147.216 329.913C147.648 329.769 148 329.561 148.272 329.289C148.544 329.017 148.68 328.705 148.68 328.353C148.68 327.697 148.416 327.233 147.888 326.961C147.376 326.689 146.76 326.481 146.04 326.337L144.384 326.001C143.808 325.873 143.272 325.697 142.776 325.473C142.28 325.233 141.88 324.897 141.576 324.465C141.272 324.033 141.12 323.457 141.12 322.737C141.12 322.017 141.344 321.417 141.792 320.937C142.24 320.441 142.808 320.065 143.496 319.809C144.2 319.553 144.936 319.425 145.704 319.425C146.648 319.425 147.536 319.625 148.368 320.025C149.216 320.409 149.816 321.017 150.168 321.849L148.272 322.545C148.064 322.065 147.696 321.713 147.168 321.489C146.656 321.249 146.12 321.129 145.56 321.129C144.952 321.129 144.4 321.265 143.904 321.537C143.408 321.809 143.16 322.201 143.16 322.713C143.16 323.225 143.368 323.601 143.784 323.841C144.216 324.065 144.744 324.241 145.368 324.369L146.928 324.681C147.568 324.809 148.176 324.993 148.752 325.233C149.328 325.473 149.8 325.833 150.168 326.313C150.536 326.777 150.72 327.433 150.72 328.281C150.72 329.033 150.488 329.673 150.024 330.201C149.56 330.729 148.96 331.137 148.224 331.425C147.488 331.697 146.704 331.833 145.872 331.833ZM157.817 331.833C157.129 331.833 156.449 331.713 155.777 331.473C155.105 331.233 154.489 330.865 153.929 330.369C153.385 329.857 152.945 329.209 152.609 328.425C152.273 327.641 152.105 326.713 152.105 325.641C152.105 324.569 152.273 323.641 152.609 322.857C152.945 322.073 153.385 321.433 153.929 320.937C154.489 320.425 155.105 320.049 155.777 319.809C156.449 319.569 157.129 319.449 157.817 319.449C158.505 319.449 159.185 319.569 159.857 319.809C160.545 320.049 161.161 320.425 161.705 320.937C162.265 321.433 162.705 322.073 163.025 322.857C163.361 323.641 163.529 324.569 163.529 325.641C163.529 326.713 163.361 327.641 163.025 328.425C162.705 329.209 162.265 329.857 161.705 330.369C161.161 330.865 160.545 331.233 159.857 331.473C159.185 331.713 158.505 331.833 157.817 331.833ZM157.817 330.057C158.393 330.057 158.953 329.905 159.497 329.601C160.041 329.281 160.489 328.801 160.841 328.161C161.193 327.505 161.369 326.665 161.369 325.641C161.369 324.617 161.193 323.785 160.841 323.145C160.489 322.489 160.041 322.009 159.497 321.705C158.953 321.385 158.393 321.225 157.817 321.225C157.257 321.225 156.697 321.385 156.137 321.705C155.593 322.009 155.145 322.489 154.793 323.145C154.441 323.785 154.265 324.617 154.265 325.641C154.265 326.665 154.441 327.505 154.793 328.161C155.145 328.801 155.593 329.281 156.137 329.601C156.697 329.905 157.257 330.057 157.817 330.057ZM165.875 331.545V319.641H167.363L167.891 321.441C168.227 320.881 168.699 320.409 169.307 320.025C169.915 319.641 170.723 319.449 171.731 319.449C173.171 319.449 174.187 319.873 174.779 320.721C175.371 321.553 175.667 322.649 175.667 324.009V331.545H173.651V324.609C173.651 324.001 173.595 323.441 173.483 322.929C173.371 322.401 173.123 321.977 172.739 321.657C172.371 321.337 171.803 321.177 171.035 321.177C170.059 321.177 169.291 321.513 168.731 322.185C168.171 322.841 167.891 323.809 167.891 325.089V331.545H165.875ZM182.073 331.833C181.321 331.833 180.633 331.697 180.009 331.425C179.385 331.153 178.889 330.761 178.521 330.249C178.153 329.737 177.969 329.121 177.969 328.401C177.969 327.457 178.297 326.713 178.953 326.169C179.625 325.625 180.561 325.209 181.761 324.921C182.977 324.617 184.393 324.377 186.009 324.201C186.041 323.193 185.841 322.417 185.409 321.873C184.977 321.329 184.281 321.057 183.321 321.057C182.601 321.057 182.009 321.225 181.545 321.561C181.097 321.881 180.809 322.329 180.681 322.905L178.737 322.329C179.057 321.417 179.625 320.713 180.441 320.217C181.273 319.705 182.225 319.449 183.297 319.449C184.945 319.449 186.145 319.841 186.897 320.625C187.665 321.393 188.049 322.609 188.049 324.273V327.057C188.049 328.049 188.089 328.905 188.169 329.625C188.249 330.345 188.345 330.985 188.457 331.545H186.609L186.129 329.913C185.777 330.505 185.273 330.977 184.617 331.329C183.961 331.665 183.113 331.833 182.073 331.833ZM182.505 330.225C183.129 330.225 183.721 330.113 184.281 329.889C184.841 329.665 185.297 329.289 185.649 328.761C186.001 328.217 186.177 327.481 186.177 326.553V325.809C184.961 325.937 183.905 326.097 183.009 326.289C182.113 326.465 181.417 326.721 180.921 327.057C180.441 327.377 180.201 327.809 180.201 328.353C180.201 328.913 180.401 329.369 180.801 329.721C181.217 330.057 181.785 330.225 182.505 330.225ZM195.185 331.833C194.497 331.833 193.817 331.729 193.145 331.521C192.489 331.297 191.897 330.969 191.369 330.537C190.857 330.089 190.465 329.529 190.193 328.857L192.137 328.137C192.313 328.841 192.697 329.353 193.289 329.673C193.897 329.977 194.529 330.129 195.185 330.129C195.665 330.129 196.113 330.057 196.529 329.913C196.961 329.769 197.313 329.561 197.585 329.289C197.857 329.017 197.993 328.705 197.993 328.353C197.993 327.697 197.729 327.233 197.201 326.961C196.689 326.689 196.073 326.481 195.353 326.337L193.697 326.001C193.121 325.873 192.585 325.697 192.089 325.473C191.593 325.233 191.193 324.897 190.889 324.465C190.585 324.033 190.433 323.457 190.433 322.737C190.433 322.017 190.657 321.417 191.105 320.937C191.553 320.441 192.121 320.065 192.809 319.809C193.513 319.553 194.249 319.425 195.017 319.425C195.961 319.425 196.849 319.625 197.681 320.025C198.529 320.409 199.129 321.017 199.481 321.849L197.585 322.545C197.377 322.065 197.009 321.713 196.481 321.489C195.969 321.249 195.433 321.129 194.873 321.129C194.265 321.129 193.713 321.265 193.217 321.537C192.721 321.809 192.473 322.201 192.473 322.713C192.473 323.225 192.681 323.601 193.097 323.841C193.529 324.065 194.057 324.241 194.681 324.369L196.241 324.681C196.881 324.809 197.489 324.993 198.065 325.233C198.641 325.473 199.113 325.833 199.481 326.313C199.849 326.777 200.033 327.433 200.033 328.281C200.033 329.033 199.801 329.673 199.337 330.201C198.873 330.729 198.273 331.137 197.537 331.425C196.801 331.697 196.017 331.833 195.185 331.833ZM201.586 334.737L202.714 331.809C202.346 331.745 202.034 331.569 201.778 331.281C201.538 330.993 201.418 330.657 201.418 330.273C201.418 329.857 201.57 329.497 201.874 329.193C202.178 328.889 202.538 328.737 202.954 328.737C203.386 328.737 203.754 328.889 204.058 329.193C204.362 329.497 204.514 329.857 204.514 330.273C204.514 330.465 204.474 330.665 204.394 330.873L202.906 334.737H201.586ZM216.979 331.545C216.227 331.545 215.643 331.473 215.227 331.329C214.827 331.169 214.547 330.873 214.387 330.441C214.243 330.009 214.171 329.385 214.171 328.569V321.249H212.155V319.641H214.171V316.641H216.187V319.641H218.491V321.249H216.187V328.233C216.187 328.841 216.243 329.249 216.355 329.457C216.483 329.665 216.835 329.769 217.411 329.769H218.491V331.545H216.979ZM224.232 331.833C223.48 331.833 222.792 331.697 222.168 331.425C221.544 331.153 221.048 330.761 220.68 330.249C220.312 329.737 220.128 329.121 220.128 328.401C220.128 327.457 220.456 326.713 221.112 326.169C221.784 325.625 222.72 325.209 223.92 324.921C225.136 324.617 226.552 324.377 228.168 324.201C228.2 323.193 228 322.417 227.568 321.873C227.136 321.329 226.44 321.057 225.48 321.057C224.76 321.057 224.168 321.225 223.704 321.561C223.256 321.881 222.968 322.329 222.84 322.905L220.896 322.329C221.216 321.417 221.784 320.713 222.6 320.217C223.432 319.705 224.384 319.449 225.456 319.449C227.104 319.449 228.304 319.841 229.056 320.625C229.824 321.393 230.208 322.609 230.208 324.273V327.057C230.208 328.049 230.248 328.905 230.328 329.625C230.408 330.345 230.504 330.985 230.616 331.545H228.768L228.288 329.913C227.936 330.505 227.432 330.977 226.776 331.329C226.12 331.665 225.272 331.833 224.232 331.833ZM224.664 330.225C225.288 330.225 225.88 330.113 226.44 329.889C227 329.665 227.456 329.289 227.808 328.761C228.16 328.217 228.336 327.481 228.336 326.553V325.809C227.12 325.937 226.064 326.097 225.168 326.289C224.272 326.465 223.576 326.721 223.08 327.057C222.6 327.377 222.36 327.809 222.36 328.353C222.36 328.913 222.56 329.369 222.96 329.721C223.376 330.057 223.944 330.225 224.664 330.225ZM237.345 331.833C236.657 331.833 235.977 331.729 235.305 331.521C234.649 331.297 234.057 330.969 233.529 330.537C233.017 330.089 232.625 329.529 232.353 328.857L234.297 328.137C234.473 328.841 234.857 329.353 235.449 329.673C236.057 329.977 236.689 330.129 237.345 330.129C237.825 330.129 238.273 330.057 238.689 329.913C239.121 329.769 239.473 329.561 239.745 329.289C240.017 329.017 240.153 328.705 240.153 328.353C240.153 327.697 239.889 327.233 239.361 326.961C238.849 326.689 238.233 326.481 237.513 326.337L235.857 326.001C235.281 325.873 234.745 325.697 234.249 325.473C233.753 325.233 233.353 324.897 233.049 324.465C232.745 324.033 232.593 323.457 232.593 322.737C232.593 322.017 232.817 321.417 233.265 320.937C233.713 320.441 234.281 320.065 234.969 319.809C235.673 319.553 236.409 319.425 237.177 319.425C238.121 319.425 239.009 319.625 239.841 320.025C240.689 320.409 241.289 321.017 241.641 321.849L239.745 322.545C239.537 322.065 239.169 321.713 238.641 321.489C238.129 321.249 237.593 321.129 237.033 321.129C236.425 321.129 235.873 321.265 235.377 321.537C234.881 321.809 234.633 322.201 234.633 322.713C234.633 323.225 234.841 323.601 235.257 323.841C235.689 324.065 236.217 324.241 236.841 324.369L238.401 324.681C239.041 324.809 239.649 324.993 240.225 325.233C240.801 325.473 241.273 325.833 241.641 326.313C242.009 326.777 242.193 327.433 242.193 328.281C242.193 329.033 241.961 329.673 241.497 330.201C241.033 330.729 240.433 331.137 239.697 331.425C238.961 331.697 238.177 331.833 237.345 331.833ZM244.346 331.545V315.513H246.362V324.993L251.162 319.641H253.586L249.098 324.561L254.186 331.545H251.714L247.754 326.049L246.362 327.561V331.545H244.346ZM262.358 331.545V319.641H263.846L264.374 321.441C264.71 320.881 265.166 320.409 265.742 320.025C266.334 319.641 267.07 319.449 267.95 319.449C268.862 319.449 269.598 319.633 270.158 320.001C270.718 320.369 271.126 320.881 271.382 321.537C271.862 320.801 272.438 320.273 273.11 319.953C273.798 319.617 274.558 319.449 275.39 319.449C276.766 319.449 277.75 319.873 278.342 320.721C278.934 321.553 279.23 322.649 279.23 324.009V331.545H277.214V324.609C277.214 324.001 277.15 323.441 277.022 322.929C276.91 322.401 276.67 321.977 276.302 321.657C275.95 321.337 275.406 321.177 274.67 321.177C273.806 321.177 273.11 321.513 272.582 322.185C272.07 322.841 271.814 323.809 271.814 325.089V331.545H269.798V324.609C269.798 324.001 269.734 323.441 269.606 322.929C269.494 322.401 269.254 321.977 268.886 321.657C268.534 321.337 267.99 321.177 267.254 321.177C266.39 321.177 265.694 321.513 265.166 322.185C264.638 322.841 264.374 323.809 264.374 325.089V331.545H262.358ZM285.633 331.833C284.881 331.833 284.193 331.697 283.569 331.425C282.945 331.153 282.449 330.761 282.081 330.249C281.713 329.737 281.529 329.121 281.529 328.401C281.529 327.457 281.857 326.713 282.513 326.169C283.185 325.625 284.121 325.209 285.321 324.921C286.537 324.617 287.953 324.377 289.569 324.201C289.601 323.193 289.401 322.417 288.969 321.873C288.537 321.329 287.841 321.057 286.881 321.057C286.161 321.057 285.569 321.225 285.105 321.561C284.657 321.881 284.369 322.329 284.241 322.905L282.297 322.329C282.617 321.417 283.185 320.713 284.001 320.217C284.833 319.705 285.785 319.449 286.857 319.449C288.505 319.449 289.705 319.841 290.457 320.625C291.225 321.393 291.609 322.609 291.609 324.273V327.057C291.609 328.049 291.649 328.905 291.729 329.625C291.809 330.345 291.905 330.985 292.017 331.545H290.169L289.689 329.913C289.337 330.505 288.833 330.977 288.177 331.329C287.521 331.665 286.673 331.833 285.633 331.833ZM286.065 330.225C286.689 330.225 287.281 330.113 287.841 329.889C288.401 329.665 288.857 329.289 289.209 328.761C289.561 328.217 289.737 327.481 289.737 326.553V325.809C288.521 325.937 287.465 326.097 286.569 326.289C285.673 326.465 284.977 326.721 284.481 327.057C284.001 327.377 283.761 327.809 283.761 328.353C283.761 328.913 283.961 329.369 284.361 329.721C284.777 330.057 285.345 330.225 286.065 330.225ZM298.314 331.545C297.562 331.545 296.978 331.473 296.562 331.329C296.162 331.169 295.882 330.873 295.722 330.441C295.578 330.009 295.506 329.385 295.506 328.569V321.249H293.49V319.641H295.506V316.641H297.522V319.641H299.826V321.249H297.522V328.233C297.522 328.841 297.578 329.249 297.69 329.457C297.818 329.665 298.17 329.769 298.746 329.769H299.826V331.545H298.314ZM302.232 331.545V319.641H303.696L304.344 321.849C304.76 321.129 305.32 320.553 306.024 320.121C306.744 319.673 307.6 319.449 308.592 319.449V321.537C308.48 321.537 308.36 321.537 308.232 321.537C308.12 321.537 308.008 321.545 307.896 321.561C306.536 321.673 305.584 322.145 305.04 322.977C304.512 323.809 304.248 324.961 304.248 326.433V331.545H302.232ZM312.212 317.385C311.812 317.385 311.46 317.241 311.156 316.953C310.868 316.649 310.724 316.289 310.724 315.873C310.724 315.457 310.868 315.105 311.156 314.817C311.46 314.529 311.812 314.385 312.212 314.385C312.628 314.385 312.98 314.529 313.268 314.817C313.572 315.105 313.724 315.457 313.724 315.873C313.724 316.289 313.572 316.649 313.268 316.953C312.98 317.241 312.628 317.385 312.212 317.385ZM311.204 331.545V321.249H309.548V319.641H313.22V331.545H311.204ZM314.908 331.545L319.252 325.425L315.124 319.641H317.5L320.428 323.769L323.38 319.641H325.756L321.628 325.425L325.972 331.545H323.596L320.428 327.105L317.284 331.545H314.908ZM326.81 334.737L327.938 331.809C327.57 331.745 327.258 331.569 327.002 331.281C326.762 330.993 326.642 330.657 326.642 330.273C326.642 329.857 326.794 329.497 327.098 329.193C327.402 328.889 327.762 328.737 328.178 328.737C328.61 328.737 328.978 328.889 329.282 329.193C329.586 329.497 329.738 329.857 329.738 330.273C329.738 330.465 329.698 330.665 329.618 330.873L328.13 334.737H326.81ZM87.814 361.833C87.062 361.833 86.374 361.697 85.75 361.425C85.126 361.153 84.63 360.761 84.262 360.249C83.894 359.737 83.71 359.121 83.71 358.401C83.71 357.457 84.038 356.713 84.694 356.169C85.366 355.625 86.302 355.209 87.502 354.921C88.718 354.617 90.134 354.377 91.75 354.201C91.782 353.193 91.582 352.417 91.15 351.873C90.718 351.329 90.022 351.057 89.062 351.057C88.342 351.057 87.75 351.225 87.286 351.561C86.838 351.881 86.55 352.329 86.422 352.905L84.478 352.329C84.798 351.417 85.366 350.713 86.182 350.217C87.014 349.705 87.966 349.449 89.038 349.449C90.686 349.449 91.886 349.841 92.638 350.625C93.406 351.393 93.79 352.609 93.79 354.273V357.057C93.79 358.049 93.83 358.905 93.91 359.625C93.99 360.345 94.086 360.985 94.198 361.545H92.35L91.87 359.913C91.518 360.505 91.014 360.977 90.358 361.329C89.702 361.665 88.854 361.833 87.814 361.833ZM88.246 360.225C88.87 360.225 89.462 360.113 90.022 359.889C90.582 359.665 91.038 359.289 91.39 358.761C91.742 358.217 91.918 357.481 91.918 356.553V355.809C90.702 355.937 89.646 356.097 88.75 356.289C87.854 356.465 87.158 356.721 86.662 357.057C86.182 357.377 85.942 357.809 85.942 358.353C85.942 358.913 86.142 359.369 86.542 359.721C86.958 360.057 87.526 360.225 88.246 360.225ZM96.8708 361.545V349.641H98.3588L98.8868 351.441C99.2228 350.881 99.6948 350.409 100.303 350.025C100.911 349.641 101.719 349.449 102.727 349.449C104.167 349.449 105.183 349.873 105.775 350.721C106.367 351.553 106.663 352.649 106.663 354.009V361.545H104.647V354.609C104.647 354.001 104.591 353.441 104.479 352.929C104.367 352.401 104.119 351.977 103.735 351.657C103.367 351.337 102.799 351.177 102.031 351.177C101.055 351.177 100.287 351.513 99.7268 352.185C99.1668 352.841 98.8868 353.809 98.8868 355.089V361.545H96.8708ZM113.819 361.833C112.923 361.833 112.083 361.593 111.299 361.113C110.515 360.617 109.883 359.913 109.403 359.001C108.939 358.073 108.707 356.953 108.707 355.641C108.707 354.329 108.939 353.217 109.403 352.305C109.883 351.377 110.515 350.673 111.299 350.193C112.083 349.697 112.923 349.449 113.819 349.449C114.763 349.449 115.555 349.641 116.195 350.025C116.835 350.393 117.331 350.889 117.683 351.513V345.513H119.699V357.057C119.699 357.457 119.715 358.049 119.747 358.833C119.779 359.601 119.899 360.505 120.107 361.545H118.211L117.683 359.745C117.331 360.385 116.835 360.897 116.195 361.281C115.555 361.649 114.763 361.833 113.819 361.833ZM114.347 360.105C115.371 360.105 116.187 359.713 116.795 358.929C117.419 358.145 117.731 357.049 117.731 355.641C117.731 354.217 117.419 353.121 116.795 352.353C116.187 351.569 115.371 351.177 114.347 351.177C113.323 351.177 112.499 351.569 111.875 352.353C111.267 353.121 110.963 354.217 110.963 355.641C110.963 357.049 111.267 358.145 111.875 358.929C112.499 359.713 113.323 360.105 114.347 360.105ZM134.044 361.833C132.908 361.833 131.924 361.569 131.092 361.041C130.26 360.497 129.62 359.761 129.172 358.833C128.724 357.905 128.5 356.841 128.5 355.641C128.5 354.457 128.732 353.401 129.196 352.473C129.676 351.529 130.348 350.793 131.212 350.265C132.076 349.721 133.092 349.449 134.26 349.449C135.332 349.449 136.252 349.713 137.02 350.241C137.788 350.769 138.364 351.401 138.748 352.137L136.9 352.809C136.644 352.329 136.268 351.945 135.772 351.657C135.276 351.369 134.724 351.225 134.116 351.225C133.524 351.225 132.964 351.385 132.436 351.705C131.908 352.009 131.484 352.489 131.164 353.145C130.844 353.785 130.684 354.609 130.684 355.617C130.684 356.609 130.844 357.441 131.164 358.113C131.5 358.769 131.924 359.257 132.436 359.577C132.964 359.897 133.524 360.057 134.116 360.057C134.772 360.057 135.34 359.913 135.82 359.625C136.316 359.321 136.692 358.945 136.948 358.497L138.796 359.169C138.348 359.937 137.708 360.577 136.876 361.089C136.044 361.585 135.1 361.833 134.044 361.833ZM145.972 361.833C145.284 361.833 144.604 361.713 143.932 361.473C143.26 361.233 142.644 360.865 142.084 360.369C141.54 359.857 141.1 359.209 140.764 358.425C140.428 357.641 140.26 356.713 140.26 355.641C140.26 354.569 140.428 353.641 140.764 352.857C141.1 352.073 141.54 351.433 142.084 350.937C142.644 350.425 143.26 350.049 143.932 349.809C144.604 349.569 145.284 349.449 145.972 349.449C146.66 349.449 147.34 349.569 148.012 349.809C148.7 350.049 149.316 350.425 149.86 350.937C150.42 351.433 150.86 352.073 151.18 352.857C151.516 353.641 151.684 354.569 151.684 355.641C151.684 356.713 151.516 357.641 151.18 358.425C150.86 359.209 150.42 359.857 149.86 360.369C149.316 360.865 148.7 361.233 148.012 361.473C147.34 361.713 146.66 361.833 145.972 361.833ZM145.972 360.057C146.548 360.057 147.108 359.905 147.652 359.601C148.196 359.281 148.644 358.801 148.996 358.161C149.348 357.505 149.524 356.665 149.524 355.641C149.524 354.617 149.348 353.785 148.996 353.145C148.644 352.489 148.196 352.009 147.652 351.705C147.108 351.385 146.548 351.225 145.972 351.225C145.412 351.225 144.852 351.385 144.292 351.705C143.748 352.009 143.3 352.489 142.948 353.145C142.596 353.785 142.42 354.617 142.42 355.641C142.42 356.665 142.596 357.505 142.948 358.161C143.3 358.801 143.748 359.281 144.292 359.601C144.852 359.905 145.412 360.057 145.972 360.057ZM158.926 366.153C158.286 366.153 157.646 366.057 157.006 365.865C156.382 365.689 155.822 365.393 155.326 364.977C154.846 364.561 154.502 364.025 154.294 363.369L156.31 362.817C156.534 363.441 156.902 363.857 157.414 364.065C157.926 364.273 158.43 364.377 158.926 364.377C160.158 364.377 160.99 364.081 161.422 363.489C161.87 362.897 162.094 362.025 162.094 360.873V359.289C161.726 359.913 161.238 360.409 160.63 360.777C160.022 361.145 159.246 361.329 158.302 361.329C157.422 361.329 156.598 361.105 155.83 360.657C155.062 360.193 154.438 359.521 153.958 358.641C153.494 357.745 153.262 356.665 153.262 355.401C153.262 354.121 153.494 353.041 153.958 352.161C154.438 351.281 155.062 350.609 155.83 350.145C156.598 349.681 157.422 349.449 158.302 349.449C159.246 349.449 160.022 349.641 160.63 350.025C161.238 350.393 161.726 350.889 162.094 351.513L162.646 349.641H164.11V360.417C164.11 362.305 163.726 363.729 162.958 364.689C162.206 365.665 160.862 366.153 158.926 366.153ZM158.806 359.649C159.414 359.649 159.966 359.505 160.462 359.217C160.974 358.929 161.382 358.473 161.686 357.849C162.006 357.225 162.166 356.409 162.166 355.401C162.166 354.393 162.006 353.577 161.686 352.953C161.382 352.329 160.974 351.881 160.462 351.609C159.966 351.321 159.414 351.177 158.806 351.177C157.83 351.177 157.022 351.545 156.382 352.281C155.758 353.001 155.446 354.041 155.446 355.401C155.446 356.761 155.758 357.809 156.382 358.545C157.022 359.281 157.83 359.649 158.806 359.649ZM167.22 361.545V349.641H168.708L169.236 351.441C169.572 350.881 170.044 350.409 170.652 350.025C171.26 349.641 172.068 349.449 173.076 349.449C174.516 349.449 175.532 349.873 176.124 350.721C176.716 351.553 177.012 352.649 177.012 354.009V361.545H174.996V354.609C174.996 354.001 174.94 353.441 174.828 352.929C174.716 352.401 174.468 351.977 174.084 351.657C173.716 351.337 173.148 351.177 172.38 351.177C171.404 351.177 170.636 351.513 170.076 352.185C169.516 352.841 169.236 353.809 169.236 355.089V361.545H167.22ZM182.145 347.385C181.745 347.385 181.393 347.241 181.089 346.953C180.801 346.649 180.657 346.289 180.657 345.873C180.657 345.457 180.801 345.105 181.089 344.817C181.393 344.529 181.745 344.385 182.145 344.385C182.561 344.385 182.913 344.529 183.201 344.817C183.505 345.105 183.657 345.457 183.657 345.873C183.657 346.289 183.505 346.649 183.201 346.953C182.913 347.241 182.561 347.385 182.145 347.385ZM181.137 361.545V351.249H179.481V349.641H183.153V361.545H181.137ZM190.145 361.545C189.393 361.545 188.809 361.473 188.393 361.329C187.993 361.169 187.713 360.873 187.553 360.441C187.409 360.009 187.337 359.385 187.337 358.569V351.249H185.321V349.641H187.337V346.641H189.353V349.641H191.657V351.249H189.353V358.233C189.353 358.841 189.409 359.249 189.521 359.457C189.649 359.665 190.001 359.769 190.577 359.769H191.657V361.545H190.145ZM196.126 347.385C195.726 347.385 195.374 347.241 195.07 346.953C194.782 346.649 194.638 346.289 194.638 345.873C194.638 345.457 194.782 345.105 195.07 344.817C195.374 344.529 195.726 344.385 196.126 344.385C196.542 344.385 196.894 344.529 197.182 344.817C197.486 345.105 197.638 345.457 197.638 345.873C197.638 346.289 197.486 346.649 197.182 346.953C196.894 347.241 196.542 347.385 196.126 347.385ZM195.118 361.545V351.249H193.462V349.641H197.134V361.545H195.118ZM203.07 361.545L198.822 349.641H201.006L204.126 358.905L207.222 349.641H209.406L205.158 361.545H203.07ZM215.92 361.833C214.672 361.833 213.616 361.561 212.752 361.017C211.888 360.457 211.224 359.713 210.76 358.785C210.312 357.841 210.088 356.785 210.088 355.617C210.088 354.353 210.344 353.265 210.856 352.353C211.368 351.425 212.056 350.713 212.92 350.217C213.8 349.705 214.784 349.449 215.872 349.449C216.816 349.449 217.648 349.641 218.368 350.025C219.088 350.393 219.68 350.897 220.144 351.537C220.624 352.161 220.968 352.873 221.176 353.673C221.4 354.473 221.48 355.297 221.416 356.145H212.248C212.28 357.137 212.496 357.921 212.896 358.497C213.312 359.073 213.8 359.481 214.36 359.721C214.92 359.945 215.44 360.057 215.92 360.057C216.592 360.057 217.152 359.953 217.6 359.745C218.064 359.521 218.432 359.233 218.704 358.881L220.648 359.457C220.216 360.145 219.6 360.713 218.8 361.161C218 361.609 217.04 361.833 215.92 361.833ZM212.272 354.537H219.28C219.28 353.977 219.136 353.441 218.848 352.929C218.576 352.417 218.184 352.001 217.672 351.681C217.176 351.345 216.576 351.177 215.872 351.177C215.28 351.177 214.72 351.289 214.192 351.513C213.664 351.737 213.224 352.097 212.872 352.593C212.536 353.089 212.336 353.737 212.272 354.537ZM231.792 361.545L228.36 349.641H230.52L232.8 358.449L235.176 349.641H237.264L239.616 358.449L241.896 349.641H244.056L240.648 361.545H238.8L236.208 351.969L233.616 361.545H231.792ZM248.839 361.833C248.087 361.833 247.399 361.697 246.775 361.425C246.151 361.153 245.655 360.761 245.287 360.249C244.919 359.737 244.735 359.121 244.735 358.401C244.735 357.457 245.063 356.713 245.719 356.169C246.391 355.625 247.327 355.209 248.527 354.921C249.743 354.617 251.159 354.377 252.775 354.201C252.807 353.193 252.607 352.417 252.175 351.873C251.743 351.329 251.047 351.057 250.087 351.057C249.367 351.057 248.775 351.225 248.311 351.561C247.863 351.881 247.575 352.329 247.447 352.905L245.503 352.329C245.823 351.417 246.391 350.713 247.207 350.217C248.039 349.705 248.991 349.449 250.063 349.449C251.711 349.449 252.911 349.841 253.663 350.625C254.431 351.393 254.815 352.609 254.815 354.273V357.057C254.815 358.049 254.855 358.905 254.935 359.625C255.015 360.345 255.111 360.985 255.223 361.545H253.375L252.895 359.913C252.543 360.505 252.039 360.977 251.383 361.329C250.727 361.665 249.879 361.833 248.839 361.833ZM249.271 360.225C249.895 360.225 250.487 360.113 251.047 359.889C251.607 359.665 252.063 359.289 252.415 358.761C252.767 358.217 252.943 357.481 252.943 356.553V355.809C251.727 355.937 250.671 356.097 249.775 356.289C248.879 356.465 248.183 356.721 247.687 357.057C247.207 357.377 246.967 357.809 246.967 358.353C246.967 358.913 247.167 359.369 247.567 359.721C247.983 360.057 248.551 360.225 249.271 360.225ZM260.704 361.545C259.952 361.545 259.368 361.473 258.952 361.329C258.552 361.169 258.272 360.873 258.112 360.441C257.968 360.009 257.896 359.385 257.896 358.569V345.537H259.912V358.233C259.912 358.841 259.976 359.249 260.104 359.457C260.232 359.665 260.576 359.769 261.136 359.769H261.592V361.545H260.704ZM263.398 361.545V345.513H265.414V354.993L270.214 349.641H272.638L268.15 354.561L273.238 361.545H270.766L266.806 356.049L265.414 357.561V361.545H263.398ZM278.266 361.545C277.514 361.545 276.93 361.473 276.514 361.329C276.114 361.169 275.834 360.873 275.674 360.441C275.53 360.009 275.458 359.385 275.458 358.569V351.249H273.442V349.641H275.458V346.641H277.474V349.641H279.778V351.249H277.474V358.233C277.474 358.841 277.53 359.249 277.642 359.457C277.77 359.665 278.122 359.769 278.698 359.769H279.778V361.545H278.266ZM282.184 361.545V345.513H284.2V351.441C284.536 350.881 285.008 350.409 285.616 350.025C286.224 349.641 287.032 349.449 288.04 349.449C289.48 349.449 290.496 349.873 291.088 350.721C291.68 351.553 291.976 352.649 291.976 354.009V361.545H289.96V354.609C289.96 354.001 289.904 353.441 289.792 352.929C289.68 352.401 289.432 351.977 289.048 351.657C288.68 351.337 288.112 351.177 287.344 351.177C286.368 351.177 285.6 351.513 285.04 352.185C284.48 352.841 284.2 353.809 284.2 355.089V361.545H282.184ZM295.045 361.545V349.641H296.509L297.157 351.849C297.573 351.129 298.133 350.553 298.837 350.121C299.557 349.673 300.413 349.449 301.405 349.449V351.537C301.293 351.537 301.173 351.537 301.045 351.537C300.933 351.537 300.821 351.545 300.709 351.561C299.349 351.673 298.397 352.145 297.853 352.977C297.325 353.809 297.061 354.961 297.061 356.433V361.545H295.045ZM307.905 361.833C307.217 361.833 306.537 361.713 305.865 361.473C305.193 361.233 304.577 360.865 304.017 360.369C303.473 359.857 303.033 359.209 302.697 358.425C302.361 357.641 302.193 356.713 302.193 355.641C302.193 354.569 302.361 353.641 302.697 352.857C303.033 352.073 303.473 351.433 304.017 350.937C304.577 350.425 305.193 350.049 305.865 349.809C306.537 349.569 307.217 349.449 307.905 349.449C308.593 349.449 309.273 349.569 309.945 349.809C310.633 350.049 311.249 350.425 311.793 350.937C312.353 351.433 312.793 352.073 313.113 352.857C313.449 353.641 313.617 354.569 313.617 355.641C313.617 356.713 313.449 357.641 313.113 358.425C312.793 359.209 312.353 359.857 311.793 360.369C311.249 360.865 310.633 361.233 309.945 361.473C309.273 361.713 308.593 361.833 307.905 361.833ZM307.905 360.057C308.481 360.057 309.041 359.905 309.585 359.601C310.129 359.281 310.577 358.801 310.929 358.161C311.281 357.505 311.457 356.665 311.457 355.641C311.457 354.617 311.281 353.785 310.929 353.145C310.577 352.489 310.129 352.009 309.585 351.705C309.041 351.385 308.481 351.225 307.905 351.225C307.345 351.225 306.785 351.385 306.225 351.705C305.681 352.009 305.233 352.489 304.881 353.145C304.529 353.785 304.353 354.617 304.353 355.641C304.353 356.665 304.529 357.505 304.881 358.161C305.233 358.801 305.681 359.281 306.225 359.601C306.785 359.905 307.345 360.057 307.905 360.057ZM319.732 361.833C318.804 361.833 318.06 361.641 317.5 361.257C316.94 360.857 316.532 360.313 316.276 359.625C316.036 358.921 315.916 358.121 315.916 357.225V349.617H317.932V356.745C317.932 357.625 318.036 358.305 318.244 358.785C318.452 359.265 318.74 359.601 319.108 359.793C319.492 359.969 319.932 360.057 320.428 360.057C321.372 360.057 322.108 359.729 322.636 359.073C323.18 358.401 323.452 357.433 323.452 356.169V349.617H325.468V361.545H323.956L323.452 359.817C323.116 360.393 322.66 360.873 322.084 361.257C321.508 361.641 320.724 361.833 319.732 361.833ZM333.487 366.153C332.847 366.153 332.207 366.057 331.567 365.865C330.943 365.689 330.383 365.393 329.887 364.977C329.407 364.561 329.063 364.025 328.855 363.369L330.871 362.817C331.095 363.441 331.463 363.857 331.975 364.065C332.487 364.273 332.991 364.377 333.487 364.377C334.719 364.377 335.551 364.081 335.983 363.489C336.431 362.897 336.655 362.025 336.655 360.873V359.289C336.287 359.913 335.799 360.409 335.191 360.777C334.583 361.145 333.807 361.329 332.863 361.329C331.983 361.329 331.159 361.105 330.391 360.657C329.623 360.193 328.999 359.521 328.519 358.641C328.055 357.745 327.823 356.665 327.823 355.401C327.823 354.121 328.055 353.041 328.519 352.161C328.999 351.281 329.623 350.609 330.391 350.145C331.159 349.681 331.983 349.449 332.863 349.449C333.807 349.449 334.583 349.641 335.191 350.025C335.799 350.393 336.287 350.889 336.655 351.513L337.207 349.641H338.671V360.417C338.671 362.305 338.287 363.729 337.519 364.689C336.767 365.665 335.423 366.153 333.487 366.153ZM333.367 359.649C333.975 359.649 334.527 359.505 335.023 359.217C335.535 358.929 335.943 358.473 336.247 357.849C336.567 357.225 336.727 356.409 336.727 355.401C336.727 354.393 336.567 353.577 336.247 352.953C335.943 352.329 335.535 351.881 335.023 351.609C334.527 351.321 333.975 351.177 333.367 351.177C332.391 351.177 331.583 351.545 330.943 352.281C330.319 353.001 330.007 354.041 330.007 355.401C330.007 356.761 330.319 357.809 330.943 358.545C331.583 359.281 332.391 359.649 333.367 359.649ZM341.78 361.545V345.513H343.796V351.441C344.132 350.881 344.604 350.409 345.212 350.025C345.82 349.641 346.628 349.449 347.636 349.449C349.076 349.449 350.092 349.873 350.684 350.721C351.276 351.553 351.572 352.649 351.572 354.009V361.545H349.556V354.609C349.556 354.001 349.5 353.441 349.388 352.929C349.276 352.401 349.028 351.977 348.644 351.657C348.276 351.337 347.708 351.177 346.94 351.177C345.964 351.177 345.196 351.513 344.636 352.185C344.076 352.841 343.796 353.809 343.796 355.089V361.545H341.78Z" fill="black"/>
<rect x="152" y="218.545" width="132" height="60" rx="27" fill="#FD5201"/>
<path d="M192.889 255.545H187.733V240.999H192.932C194.395 240.999 195.654 241.291 196.71 241.873C197.766 242.451 198.578 243.282 199.146 244.366C199.719 245.45 200.006 246.748 200.006 248.258C200.006 249.773 199.719 251.075 199.146 252.164C198.578 253.253 197.761 254.089 196.696 254.671C195.635 255.254 194.366 255.545 192.889 255.545ZM190.808 252.91H192.761C193.67 252.91 194.435 252.749 195.055 252.427C195.68 252.1 196.149 251.596 196.462 250.914C196.779 250.228 196.938 249.342 196.938 248.258C196.938 247.183 196.779 246.305 196.462 245.623C196.149 244.941 195.683 244.439 195.062 244.117C194.442 243.795 193.678 243.634 192.768 243.634H190.808V252.91ZM206.999 255.758C205.876 255.758 204.91 255.531 204.101 255.076C203.296 254.617 202.676 253.968 202.24 253.13C201.804 252.287 201.587 251.291 201.587 250.14C201.587 249.018 201.804 248.033 202.24 247.186C202.676 246.338 203.289 245.677 204.079 245.204C204.875 244.731 205.808 244.494 206.878 244.494C207.597 244.494 208.267 244.61 208.888 244.842C209.513 245.069 210.057 245.412 210.521 245.872C210.99 246.331 211.355 246.909 211.615 247.605C211.875 248.296 212.006 249.106 212.006 250.034V250.865H202.794V248.99H209.158C209.158 248.554 209.063 248.168 208.874 247.832C208.684 247.496 208.421 247.233 208.085 247.044C207.754 246.849 207.368 246.752 206.927 246.752C206.468 246.752 206.061 246.859 205.706 247.072C205.356 247.28 205.081 247.562 204.882 247.917C204.683 248.267 204.581 248.658 204.577 249.089V250.872C204.577 251.411 204.676 251.878 204.875 252.271C205.079 252.664 205.365 252.967 205.734 253.18C206.104 253.393 206.542 253.499 207.048 253.499C207.384 253.499 207.692 253.452 207.972 253.357C208.251 253.263 208.49 253.121 208.689 252.931C208.888 252.742 209.039 252.51 209.143 252.235L211.942 252.42C211.8 253.092 211.508 253.679 211.068 254.181C210.633 254.678 210.069 255.067 209.378 255.346C208.691 255.621 207.898 255.758 206.999 255.758ZM219.647 244.636V246.909H212.914V244.636H219.647ZM214.455 255.545V243.847C214.455 243.057 214.609 242.401 214.916 241.88C215.229 241.359 215.655 240.969 216.195 240.708C216.735 240.448 217.348 240.318 218.034 240.318C218.498 240.318 218.922 240.353 219.306 240.424C219.694 240.495 219.983 240.559 220.172 240.616L219.632 242.889C219.514 242.851 219.367 242.815 219.192 242.782C219.022 242.749 218.846 242.732 218.666 242.732C218.221 242.732 217.911 242.837 217.736 243.045C217.561 243.249 217.473 243.535 217.473 243.904V255.545H214.455ZM221.295 255.545V244.636H224.32V255.545H221.295ZM222.815 243.23C222.365 243.23 221.979 243.08 221.657 242.782C221.34 242.479 221.181 242.117 221.181 241.695C221.181 241.279 221.34 240.921 221.657 240.623C221.979 240.32 222.365 240.169 222.815 240.169C223.265 240.169 223.648 240.32 223.965 240.623C224.287 240.921 224.448 241.279 224.448 241.695C224.448 242.117 224.287 242.479 223.965 242.782C223.648 243.08 223.265 243.23 222.815 243.23ZM229.57 249.238V255.545H226.544V244.636H229.428V246.561H229.555C229.797 245.926 230.202 245.424 230.77 245.055C231.338 244.681 232.027 244.494 232.837 244.494C233.594 244.494 234.255 244.66 234.818 244.991C235.382 245.322 235.82 245.796 236.132 246.411C236.445 247.022 236.601 247.751 236.601 248.599V255.545H233.575V249.139C233.58 248.471 233.41 247.95 233.064 247.576C232.718 247.197 232.242 247.008 231.636 247.008C231.229 247.008 230.869 247.096 230.557 247.271C230.249 247.446 230.008 247.702 229.832 248.038C229.662 248.369 229.574 248.769 229.57 249.238ZM243.757 255.758C242.635 255.758 241.669 255.531 240.859 255.076C240.054 254.617 239.434 253.968 238.999 253.13C238.563 252.287 238.345 251.291 238.345 250.14C238.345 249.018 238.563 248.033 238.999 247.186C239.434 246.338 240.047 245.677 240.838 245.204C241.634 244.731 242.566 244.494 243.636 244.494C244.356 244.494 245.026 244.61 245.646 244.842C246.271 245.069 246.816 245.412 247.28 245.872C247.749 246.331 248.113 246.909 248.374 247.605C248.634 248.296 248.764 249.106 248.764 250.034V250.865H239.553V248.99H245.916C245.916 248.554 245.821 248.168 245.632 247.832C245.443 247.496 245.18 247.233 244.844 247.044C244.512 246.849 244.126 246.752 243.686 246.752C243.227 246.752 242.82 246.859 242.464 247.072C242.114 247.28 241.839 247.562 241.641 247.917C241.442 248.267 241.34 248.658 241.335 249.089V250.872C241.335 251.411 241.435 251.878 241.634 252.271C241.837 252.664 242.124 252.967 242.493 253.18C242.862 253.393 243.3 253.499 243.807 253.499C244.143 253.499 244.451 253.452 244.73 253.357C245.009 253.263 245.249 253.121 245.447 252.931C245.646 252.742 245.798 252.51 245.902 252.235L248.7 252.42C248.558 253.092 248.267 253.679 247.827 254.181C247.391 254.678 246.828 255.067 246.136 255.346C245.45 255.621 244.657 255.758 243.757 255.758Z" fill="white"/>
</svg>
