<svg width="437" height="437" viewBox="0 0 437 437" fill="none" xmlns="http://www.w3.org/2000/svg">
<path fill-rule="evenodd" clip-rule="evenodd" d="M170 73.002C162.82 73.002 157 78.8223 157 86.002V116.002C157 123.182 162.82 129.002 170 129.002H174.245L165.63 149.604C165.223 150.577 166.405 151.435 167.204 150.748L192.509 129.002H233C240.18 129.002 246 123.182 246 116.002V86.002C246 78.8223 240.18 73.002 233 73.002H170Z" fill="white"/>
<path d="M174.245 129.002L174.96 129.301L175.41 128.227H174.245V129.002ZM165.63 149.604L164.915 149.305H164.915L165.63 149.604ZM167.204 150.748L166.699 150.16H166.699L167.204 150.748ZM192.509 129.002V128.227H192.222L192.004 128.414L192.509 129.002ZM157 86.002H157.775C157.775 79.2503 163.248 73.777 170 73.777V73.002V72.227C162.392 72.227 156.225 78.3942 156.225 86.002H157ZM157 116.002H157.775V86.002H157H156.225V116.002H157ZM170 129.002V128.227C163.248 128.227 157.775 122.754 157.775 116.002H157H156.225C156.225 123.61 162.392 129.777 170 129.777V129.002ZM174.245 129.002V128.227H170V129.002V129.777H174.245V129.002ZM165.63 149.604L166.345 149.903L174.96 129.301L174.245 129.002L173.53 128.703L164.915 149.305L165.63 149.604ZM167.204 150.748L166.699 150.16C166.638 150.213 166.592 150.221 166.56 150.221C166.52 150.221 166.469 150.207 166.42 150.172C166.372 150.136 166.342 150.092 166.33 150.054C166.32 150.023 166.314 149.977 166.345 149.903L165.63 149.604L164.915 149.305C164.193 151.032 166.29 152.556 167.71 151.336L167.204 150.748ZM192.509 129.002L192.004 128.414L166.699 150.16L167.204 150.748L167.71 151.336L193.014 129.59L192.509 129.002ZM233 129.002V128.227H192.509V129.002V129.777H233V129.002ZM246 116.002H245.225C245.225 122.754 239.752 128.227 233 128.227V129.002V129.777C240.608 129.777 246.775 123.61 246.775 116.002H246ZM246 86.002H245.225V116.002H246H246.775V86.002H246ZM233 73.002V73.777C239.752 73.777 245.225 79.2503 245.225 86.002H246H246.775C246.775 78.3942 240.608 72.227 233 72.227V73.002ZM170 73.002V73.777H233V73.002V72.227H170V73.002Z" fill="black"/>
<path fill-rule="evenodd" clip-rule="evenodd" d="M266 112.002C273.18 112.002 279 117.822 279 125.002V141.159C279 148.333 273.189 154.15 266.017 154.159L272.1 168.706C272.507 169.678 271.326 170.537 270.526 169.85L252.268 154.159H225C217.82 154.159 212 148.339 212 141.159V125.002C212 117.822 217.82 112.002 225 112.002H266Z" fill="#FFEAE2"/>
<path d="M266.017 154.159L265.302 154.458L264.854 153.386L266.016 153.384L266.017 154.159ZM272.1 168.706L271.385 169.005H271.385L272.1 168.706ZM270.526 169.85L270.021 170.438V170.438L270.526 169.85ZM252.268 154.159V153.384H252.555L252.773 153.571L252.268 154.159ZM279 125.002H278.225C278.225 118.25 272.752 112.777 266 112.777V112.002V111.227C273.608 111.227 279.775 117.394 279.775 125.002H279ZM279 141.159H278.225V125.002H279H279.775V141.159H279ZM266.017 154.159L266.016 153.384C272.76 153.375 278.225 147.906 278.225 141.159H279H279.775C279.775 148.761 273.618 154.924 266.018 154.934L266.017 154.159ZM272.1 168.706L271.385 169.005L265.302 154.458L266.017 154.159L266.732 153.86L272.815 168.407L272.1 168.706ZM270.526 169.85L271.031 169.262C271.092 169.314 271.138 169.323 271.17 169.323C271.21 169.323 271.261 169.309 271.31 169.273C271.359 169.238 271.388 169.194 271.4 169.155C271.41 169.125 271.416 169.079 271.385 169.005L272.1 168.706L272.815 168.407C273.537 170.134 271.44 171.658 270.021 170.438L270.526 169.85ZM252.268 154.159L252.773 153.571L271.031 169.262L270.526 169.85L270.021 170.438L251.763 154.747L252.268 154.159ZM225 154.159V153.384H252.268V154.159V154.934H225V154.159ZM212 141.159H212.775C212.775 147.911 218.248 153.384 225 153.384V154.159V154.934C217.392 154.934 211.225 148.767 211.225 141.159H212ZM212 125.002H212.775V141.159H212H211.225V125.002H212ZM225 112.002V112.777C218.248 112.777 212.775 118.25 212.775 125.002H212H211.225C211.225 117.394 217.392 111.227 225 111.227V112.002ZM266 112.002V112.777H225V112.002V111.227H266V112.002Z" fill="black"/>
<path d="M263 129.002L228 129.002" stroke="black" stroke-width="1.55" stroke-linecap="round"/>
<path d="M240 140.002L263 140.002" stroke="black" stroke-width="1.55" stroke-linecap="round"/>
<path d="M188.5 85.002V118.002" stroke="black" stroke-width="1.55" stroke-linecap="round"/>
<path d="M205 101.502L172 101.502" stroke="black" stroke-width="1.55" stroke-linecap="round"/>
<path d="M200.164 113.168L176.83 89.8334" stroke="black" stroke-width="1.55" stroke-linecap="round"/>
<path d="M176.836 113.168L200.17 89.8334" stroke="black" stroke-width="1.55" stroke-linecap="round"/>
<path d="M223.5 85.002V102.002" stroke="black" stroke-width="1.55" stroke-linecap="round"/>
<path d="M232 93.502L215 93.502" stroke="black" stroke-width="1.55" stroke-linecap="round"/>
<path d="M229.508 99.5117L217.487 87.4909" stroke="black" stroke-width="1.55" stroke-linecap="round"/>
<path d="M217.492 99.5117L229.513 87.4909" stroke="black" stroke-width="1.55" stroke-linecap="round"/>
<path d="M90.7481 332.098V330.322H93.0041V317.842H90.7481V316.066H97.5161V317.842H95.2601V330.322H97.5161V332.098H90.7481ZM100.542 332.098V320.194H102.03L102.558 321.994C102.894 321.434 103.366 320.962 103.974 320.578C104.582 320.194 105.39 320.002 106.398 320.002C107.838 320.002 108.854 320.426 109.446 321.274C110.038 322.106 110.334 323.202 110.334 324.562V332.098H108.318V325.162C108.318 324.554 108.262 323.994 108.15 323.482C108.038 322.954 107.79 322.53 107.406 322.21C107.038 321.89 106.47 321.73 105.702 321.73C104.726 321.73 103.958 322.066 103.398 322.738C102.838 323.394 102.558 324.362 102.558 325.642V332.098H100.542ZM114.099 332.098V321.802H112.083V320.194H114.099V318.418C114.099 317.602 114.179 316.954 114.339 316.474C114.499 315.994 114.811 315.658 115.275 315.466C115.739 315.258 116.411 315.154 117.291 315.154H118.587V316.858H117.339C116.827 316.858 116.491 316.962 116.331 317.17C116.187 317.378 116.115 317.786 116.115 318.394V320.194H118.587V321.802H116.115V332.098H114.099ZM125.045 332.386C124.357 332.386 123.677 332.266 123.005 332.026C122.333 331.786 121.717 331.418 121.157 330.922C120.613 330.41 120.173 329.762 119.837 328.978C119.501 328.194 119.333 327.266 119.333 326.194C119.333 325.122 119.501 324.194 119.837 323.41C120.173 322.626 120.613 321.986 121.157 321.49C121.717 320.978 122.333 320.602 123.005 320.362C123.677 320.122 124.357 320.002 125.045 320.002C125.733 320.002 126.413 320.122 127.085 320.362C127.773 320.602 128.389 320.978 128.933 321.49C129.493 321.986 129.933 322.626 130.253 323.41C130.589 324.194 130.757 325.122 130.757 326.194C130.757 327.266 130.589 328.194 130.253 328.978C129.933 329.762 129.493 330.41 128.933 330.922C128.389 331.418 127.773 331.786 127.085 332.026C126.413 332.266 125.733 332.386 125.045 332.386ZM125.045 330.61C125.621 330.61 126.181 330.458 126.725 330.154C127.269 329.834 127.717 329.354 128.069 328.714C128.421 328.058 128.597 327.218 128.597 326.194C128.597 325.17 128.421 324.338 128.069 323.698C127.717 323.042 127.269 322.562 126.725 322.258C126.181 321.938 125.621 321.778 125.045 321.778C124.485 321.778 123.925 321.938 123.365 322.258C122.821 322.562 122.373 323.042 122.021 323.698C121.669 324.338 121.493 325.17 121.493 326.194C121.493 327.218 121.669 328.058 122.021 328.714C122.373 329.354 122.821 329.834 123.365 330.154C123.925 330.458 124.485 330.61 125.045 330.61ZM133.103 332.098V320.194H134.567L135.215 322.402C135.631 321.682 136.191 321.106 136.895 320.674C137.615 320.226 138.471 320.002 139.463 320.002V322.09C139.351 322.09 139.231 322.09 139.103 322.09C138.991 322.09 138.879 322.098 138.767 322.114C137.407 322.226 136.455 322.698 135.911 323.53C135.383 324.362 135.119 325.514 135.119 326.986V332.098H133.103ZM141.019 332.098V320.194H142.507L143.035 321.994C143.371 321.434 143.827 320.962 144.403 320.578C144.995 320.194 145.731 320.002 146.611 320.002C147.523 320.002 148.259 320.186 148.819 320.554C149.379 320.922 149.787 321.434 150.043 322.09C150.523 321.354 151.099 320.826 151.771 320.506C152.459 320.17 153.219 320.002 154.051 320.002C155.427 320.002 156.411 320.426 157.003 321.274C157.595 322.106 157.891 323.202 157.891 324.562V332.098H155.875V325.162C155.875 324.554 155.811 323.994 155.683 323.482C155.571 322.954 155.331 322.53 154.963 322.21C154.611 321.89 154.067 321.73 153.331 321.73C152.467 321.73 151.771 322.066 151.243 322.738C150.731 323.394 150.475 324.362 150.475 325.642V332.098H148.459V325.162C148.459 324.554 148.395 323.994 148.267 323.482C148.155 322.954 147.915 322.53 147.547 322.21C147.195 321.89 146.651 321.73 145.915 321.73C145.051 321.73 144.355 322.066 143.827 322.738C143.299 323.394 143.035 324.362 143.035 325.642V332.098H141.019ZM164.295 332.386C163.543 332.386 162.855 332.25 162.231 331.978C161.607 331.706 161.111 331.314 160.743 330.802C160.375 330.29 160.191 329.674 160.191 328.954C160.191 328.01 160.519 327.266 161.175 326.722C161.847 326.178 162.783 325.762 163.983 325.474C165.199 325.17 166.615 324.93 168.231 324.754C168.263 323.746 168.063 322.97 167.631 322.426C167.199 321.882 166.503 321.61 165.543 321.61C164.823 321.61 164.231 321.778 163.767 322.114C163.319 322.434 163.031 322.882 162.903 323.458L160.959 322.882C161.279 321.97 161.847 321.266 162.663 320.77C163.495 320.258 164.447 320.002 165.519 320.002C167.167 320.002 168.367 320.394 169.119 321.178C169.887 321.946 170.271 323.162 170.271 324.826V327.61C170.271 328.602 170.311 329.458 170.391 330.178C170.471 330.898 170.567 331.538 170.679 332.098H168.831L168.351 330.466C167.999 331.058 167.495 331.53 166.839 331.882C166.183 332.218 165.335 332.386 164.295 332.386ZM164.727 330.778C165.351 330.778 165.943 330.666 166.503 330.442C167.063 330.218 167.519 329.842 167.871 329.314C168.223 328.77 168.399 328.034 168.399 327.106V326.362C167.183 326.49 166.127 326.65 165.231 326.842C164.335 327.018 163.639 327.274 163.143 327.61C162.663 327.93 162.423 328.362 162.423 328.906C162.423 329.466 162.623 329.922 163.023 330.274C163.439 330.61 164.007 330.778 164.727 330.778ZM176.976 332.098C176.224 332.098 175.64 332.026 175.224 331.882C174.824 331.722 174.544 331.426 174.384 330.994C174.24 330.562 174.168 329.938 174.168 329.122V321.802H172.152V320.194H174.168V317.194H176.184V320.194H178.488V321.802H176.184V328.786C176.184 329.394 176.24 329.802 176.352 330.01C176.48 330.218 176.832 330.322 177.408 330.322H178.488V332.098H176.976ZM182.957 317.938C182.557 317.938 182.205 317.794 181.901 317.506C181.613 317.202 181.469 316.842 181.469 316.426C181.469 316.01 181.613 315.658 181.901 315.37C182.205 315.082 182.557 314.938 182.957 314.938C183.373 314.938 183.725 315.082 184.013 315.37C184.317 315.658 184.469 316.01 184.469 316.426C184.469 316.842 184.317 317.202 184.013 317.506C183.725 317.794 183.373 317.938 182.957 317.938ZM181.949 332.098V321.802H180.293V320.194H183.965V332.098H181.949ZM192.276 332.386C191.588 332.386 190.908 332.266 190.236 332.026C189.564 331.786 188.948 331.418 188.388 330.922C187.844 330.41 187.404 329.762 187.068 328.978C186.732 328.194 186.564 327.266 186.564 326.194C186.564 325.122 186.732 324.194 187.068 323.41C187.404 322.626 187.844 321.986 188.388 321.49C188.948 320.978 189.564 320.602 190.236 320.362C190.908 320.122 191.588 320.002 192.276 320.002C192.964 320.002 193.644 320.122 194.316 320.362C195.004 320.602 195.62 320.978 196.164 321.49C196.724 321.986 197.164 322.626 197.484 323.41C197.82 324.194 197.988 325.122 197.988 326.194C197.988 327.266 197.82 328.194 197.484 328.978C197.164 329.762 196.724 330.41 196.164 330.922C195.62 331.418 195.004 331.786 194.316 332.026C193.644 332.266 192.964 332.386 192.276 332.386ZM192.276 330.61C192.852 330.61 193.412 330.458 193.956 330.154C194.5 329.834 194.948 329.354 195.3 328.714C195.652 328.058 195.828 327.218 195.828 326.194C195.828 325.17 195.652 324.338 195.3 323.698C194.948 323.042 194.5 322.562 193.956 322.258C193.412 321.938 192.852 321.778 192.276 321.778C191.716 321.778 191.156 321.938 190.596 322.258C190.052 322.562 189.604 323.042 189.252 323.698C188.9 324.338 188.724 325.17 188.724 326.194C188.724 327.218 188.9 328.058 189.252 328.714C189.604 329.354 190.052 329.834 190.596 330.154C191.156 330.458 191.716 330.61 192.276 330.61ZM200.335 332.098V320.194H201.823L202.351 321.994C202.687 321.434 203.159 320.962 203.767 320.578C204.375 320.194 205.183 320.002 206.191 320.002C207.631 320.002 208.647 320.426 209.239 321.274C209.831 322.106 210.127 323.202 210.127 324.562V332.098H208.111V325.162C208.111 324.554 208.055 323.994 207.943 323.482C207.831 322.954 207.583 322.53 207.199 322.21C206.831 321.89 206.263 321.73 205.495 321.73C204.519 321.73 203.751 322.066 203.191 322.738C202.631 323.394 202.351 324.362 202.351 325.642V332.098H200.335ZM223.019 332.386C222.267 332.386 221.579 332.25 220.955 331.978C220.331 331.706 219.835 331.314 219.467 330.802C219.099 330.29 218.915 329.674 218.915 328.954C218.915 328.01 219.243 327.266 219.899 326.722C220.571 326.178 221.507 325.762 222.707 325.474C223.923 325.17 225.339 324.93 226.955 324.754C226.987 323.746 226.787 322.97 226.355 322.426C225.923 321.882 225.227 321.61 224.267 321.61C223.547 321.61 222.955 321.778 222.491 322.114C222.043 322.434 221.755 322.882 221.627 323.458L219.683 322.882C220.003 321.97 220.571 321.266 221.387 320.77C222.219 320.258 223.171 320.002 224.243 320.002C225.891 320.002 227.091 320.394 227.843 321.178C228.611 321.946 228.995 323.162 228.995 324.826V327.61C228.995 328.602 229.035 329.458 229.115 330.178C229.195 330.898 229.291 331.538 229.403 332.098H227.555L227.075 330.466C226.723 331.058 226.219 331.53 225.563 331.882C224.907 332.218 224.059 332.386 223.019 332.386ZM223.451 330.778C224.075 330.778 224.667 330.666 225.227 330.442C225.787 330.218 226.243 329.842 226.595 329.314C226.947 328.77 227.123 328.034 227.123 327.106V326.362C225.907 326.49 224.851 326.65 223.955 326.842C223.059 327.018 222.363 327.274 221.867 327.61C221.387 327.93 221.147 328.362 221.147 328.906C221.147 329.466 221.347 329.922 221.747 330.274C222.163 330.61 222.731 330.778 223.451 330.778ZM232.076 332.098V320.194H233.54L234.188 322.402C234.604 321.682 235.164 321.106 235.868 320.674C236.588 320.226 237.444 320.002 238.436 320.002V322.09C238.324 322.09 238.204 322.09 238.076 322.09C237.964 322.09 237.852 322.098 237.74 322.114C236.38 322.226 235.428 322.698 234.884 323.53C234.356 324.362 234.092 325.514 234.092 326.986V332.098H232.076ZM244.768 332.386C243.632 332.386 242.648 332.122 241.816 331.594C240.984 331.05 240.344 330.314 239.896 329.386C239.448 328.458 239.224 327.394 239.224 326.194C239.224 325.01 239.456 323.954 239.92 323.026C240.4 322.082 241.072 321.346 241.936 320.818C242.8 320.274 243.816 320.002 244.984 320.002C246.056 320.002 246.976 320.266 247.744 320.794C248.512 321.322 249.088 321.954 249.472 322.69L247.624 323.362C247.368 322.882 246.992 322.498 246.496 322.21C246 321.922 245.448 321.778 244.84 321.778C244.248 321.778 243.688 321.938 243.16 322.258C242.632 322.562 242.208 323.042 241.888 323.698C241.568 324.338 241.408 325.162 241.408 326.17C241.408 327.162 241.568 327.994 241.888 328.666C242.224 329.322 242.648 329.81 243.16 330.13C243.688 330.45 244.248 330.61 244.84 330.61C245.496 330.61 246.064 330.466 246.544 330.178C247.04 329.874 247.416 329.498 247.672 329.05L249.52 329.722C249.072 330.49 248.432 331.13 247.6 331.642C246.768 332.138 245.824 332.386 244.768 332.386ZM251.752 332.098V316.066H253.768V321.994C254.104 321.434 254.576 320.962 255.184 320.578C255.792 320.194 256.6 320.002 257.608 320.002C259.048 320.002 260.064 320.426 260.656 321.274C261.248 322.106 261.544 323.202 261.544 324.562V332.098H259.528V325.162C259.528 324.554 259.472 323.994 259.36 323.482C259.248 322.954 259 322.53 258.616 322.21C258.248 321.89 257.68 321.73 256.912 321.73C255.936 321.73 255.168 322.066 254.608 322.738C254.048 323.394 253.768 324.362 253.768 325.642V332.098H251.752ZM266.677 317.938C266.277 317.938 265.925 317.794 265.621 317.506C265.333 317.202 265.189 316.842 265.189 316.426C265.189 316.01 265.333 315.658 265.621 315.37C265.925 315.082 266.277 314.938 266.677 314.938C267.093 314.938 267.445 315.082 267.733 315.37C268.037 315.658 268.189 316.01 268.189 316.426C268.189 316.842 268.037 317.202 267.733 317.506C267.445 317.794 267.093 317.938 266.677 317.938ZM265.669 332.098V321.802H264.013V320.194H267.685V332.098H265.669ZM274.677 332.098C273.925 332.098 273.341 332.026 272.925 331.882C272.525 331.722 272.245 331.426 272.085 330.994C271.941 330.562 271.869 329.938 271.869 329.122V321.802H269.853V320.194H271.869V317.194H273.885V320.194H276.189V321.802H273.885V328.786C273.885 329.394 273.941 329.802 274.053 330.01C274.181 330.218 274.533 330.322 275.109 330.322H276.189V332.098H274.677ZM283.658 332.386C282.41 332.386 281.354 332.114 280.49 331.57C279.626 331.01 278.962 330.266 278.498 329.338C278.05 328.394 277.826 327.338 277.826 326.17C277.826 324.906 278.082 323.818 278.594 322.906C279.106 321.978 279.794 321.266 280.658 320.77C281.538 320.258 282.522 320.002 283.61 320.002C284.554 320.002 285.386 320.194 286.106 320.578C286.826 320.946 287.418 321.45 287.882 322.09C288.362 322.714 288.706 323.426 288.914 324.226C289.138 325.026 289.218 325.85 289.154 326.698H279.986C280.018 327.69 280.234 328.474 280.634 329.05C281.05 329.626 281.538 330.034 282.098 330.274C282.658 330.498 283.178 330.61 283.658 330.61C284.33 330.61 284.89 330.506 285.338 330.298C285.802 330.074 286.17 329.786 286.442 329.434L288.386 330.01C287.954 330.698 287.338 331.266 286.538 331.714C285.738 332.162 284.778 332.386 283.658 332.386ZM280.01 325.09H287.018C287.018 324.53 286.874 323.994 286.586 323.482C286.314 322.97 285.922 322.554 285.41 322.234C284.914 321.898 284.314 321.73 283.61 321.73C283.018 321.73 282.458 321.842 281.93 322.066C281.402 322.29 280.962 322.65 280.61 323.146C280.274 323.642 280.074 324.29 280.01 325.09ZM296.068 332.386C294.932 332.386 293.948 332.122 293.116 331.594C292.284 331.05 291.644 330.314 291.196 329.386C290.748 328.458 290.524 327.394 290.524 326.194C290.524 325.01 290.756 323.954 291.22 323.026C291.7 322.082 292.372 321.346 293.236 320.818C294.1 320.274 295.116 320.002 296.284 320.002C297.356 320.002 298.276 320.266 299.044 320.794C299.812 321.322 300.388 321.954 300.772 322.69L298.924 323.362C298.668 322.882 298.292 322.498 297.796 322.21C297.3 321.922 296.748 321.778 296.14 321.778C295.548 321.778 294.988 321.938 294.46 322.258C293.932 322.562 293.508 323.042 293.188 323.698C292.868 324.338 292.708 325.162 292.708 326.17C292.708 327.162 292.868 327.994 293.188 328.666C293.524 329.322 293.948 329.81 294.46 330.13C294.988 330.45 295.548 330.61 296.14 330.61C296.796 330.61 297.364 330.466 297.844 330.178C298.34 329.874 298.716 329.498 298.972 329.05L300.82 329.722C300.372 330.49 299.732 331.13 298.9 331.642C298.068 332.138 297.124 332.386 296.068 332.386ZM306.676 332.098C305.924 332.098 305.34 332.026 304.924 331.882C304.524 331.722 304.244 331.426 304.084 330.994C303.94 330.562 303.868 329.938 303.868 329.122V321.802H301.852V320.194H303.868V317.194H305.884V320.194H308.188V321.802H305.884V328.786C305.884 329.394 305.94 329.802 306.052 330.01C306.18 330.218 306.532 330.322 307.108 330.322H308.188V332.098H306.676ZM314.361 332.386C313.433 332.386 312.689 332.194 312.129 331.81C311.569 331.41 311.161 330.866 310.905 330.178C310.665 329.474 310.545 328.674 310.545 327.778V320.17H312.561V327.298C312.561 328.178 312.665 328.858 312.873 329.338C313.081 329.818 313.369 330.154 313.737 330.346C314.121 330.522 314.561 330.61 315.057 330.61C316.001 330.61 316.737 330.282 317.265 329.626C317.809 328.954 318.081 327.986 318.081 326.722V320.17H320.097V332.098H318.585L318.081 330.37C317.745 330.946 317.289 331.426 316.713 331.81C316.137 332.194 315.353 332.386 314.361 332.386ZM323.22 332.098V320.194H324.684L325.332 322.402C325.748 321.682 326.308 321.106 327.012 320.674C327.732 320.226 328.588 320.002 329.58 320.002V322.09C329.468 322.09 329.348 322.09 329.22 322.09C329.108 322.09 328.996 322.098 328.884 322.114C327.524 322.226 326.572 322.698 326.028 323.53C325.5 324.362 325.236 325.514 325.236 326.986V332.098H323.22ZM336.201 332.386C334.953 332.386 333.897 332.114 333.033 331.57C332.169 331.01 331.505 330.266 331.041 329.338C330.593 328.394 330.369 327.338 330.369 326.17C330.369 324.906 330.625 323.818 331.137 322.906C331.649 321.978 332.337 321.266 333.201 320.77C334.081 320.258 335.065 320.002 336.153 320.002C337.097 320.002 337.929 320.194 338.649 320.578C339.369 320.946 339.961 321.45 340.425 322.09C340.905 322.714 341.249 323.426 341.457 324.226C341.681 325.026 341.761 325.85 341.697 326.698H332.529C332.561 327.69 332.777 328.474 333.177 329.05C333.593 329.626 334.081 330.034 334.641 330.274C335.201 330.498 335.721 330.61 336.201 330.61C336.873 330.61 337.433 330.506 337.881 330.298C338.345 330.074 338.713 329.786 338.985 329.434L340.929 330.01C340.497 330.698 339.881 331.266 339.081 331.714C338.281 332.162 337.321 332.386 336.201 332.386ZM332.553 325.09H339.561C339.561 324.53 339.417 323.994 339.129 323.482C338.857 322.97 338.465 322.554 337.953 322.234C337.457 321.898 336.857 321.73 336.153 321.73C335.561 321.73 335.001 321.842 334.473 322.066C333.945 322.29 333.505 322.65 333.153 323.146C332.817 323.642 332.617 324.29 332.553 325.09ZM343.234 335.29L344.362 332.362C343.994 332.298 343.682 332.122 343.426 331.834C343.186 331.546 343.066 331.21 343.066 330.826C343.066 330.41 343.218 330.05 343.522 329.746C343.826 329.442 344.186 329.29 344.602 329.29C345.034 329.29 345.402 329.442 345.706 329.746C346.01 330.05 346.162 330.41 346.162 330.826C346.162 331.018 346.122 331.218 346.042 331.426L344.554 335.29H343.234ZM84.7183 362.098L81.2863 350.194H83.4463L85.7263 359.002L88.1023 350.194H90.1903L92.5423 359.002L94.8223 350.194H96.9823L93.5743 362.098H91.7263L89.1343 352.522L86.5423 362.098H84.7183ZM100.493 347.938C100.093 347.938 99.7414 347.794 99.4374 347.506C99.1494 347.202 99.0054 346.842 99.0054 346.426C99.0054 346.01 99.1494 345.658 99.4374 345.37C99.7414 345.082 100.093 344.938 100.493 344.938C100.909 344.938 101.261 345.082 101.549 345.37C101.853 345.658 102.005 346.01 102.005 346.426C102.005 346.842 101.853 347.202 101.549 347.506C101.261 347.794 100.909 347.938 100.493 347.938ZM99.4854 362.098V351.802H97.8294V350.194H101.501V362.098H99.4854ZM104.869 362.098V350.194H106.333L106.981 352.402C107.397 351.682 107.957 351.106 108.661 350.674C109.381 350.226 110.237 350.002 111.229 350.002V352.09C111.117 352.09 110.997 352.09 110.869 352.09C110.757 352.09 110.645 352.098 110.533 352.114C109.173 352.226 108.221 352.698 107.677 353.53C107.149 354.362 106.885 355.514 106.885 356.986V362.098H104.869ZM117.849 362.386C116.601 362.386 115.545 362.114 114.681 361.57C113.817 361.01 113.153 360.266 112.689 359.338C112.241 358.394 112.017 357.338 112.017 356.17C112.017 354.906 112.273 353.818 112.785 352.906C113.297 351.978 113.985 351.266 114.849 350.77C115.729 350.258 116.713 350.002 117.801 350.002C118.745 350.002 119.577 350.194 120.297 350.578C121.017 350.946 121.609 351.45 122.073 352.09C122.553 352.714 122.897 353.426 123.105 354.226C123.329 355.026 123.409 355.85 123.345 356.698H114.177C114.209 357.69 114.425 358.474 114.825 359.05C115.241 359.626 115.729 360.034 116.289 360.274C116.849 360.498 117.369 360.61 117.849 360.61C118.521 360.61 119.081 360.506 119.529 360.298C119.993 360.074 120.361 359.786 120.633 359.434L122.577 360.01C122.145 360.698 121.529 361.266 120.729 361.714C119.929 362.162 118.969 362.386 117.849 362.386ZM114.201 355.09H121.209C121.209 354.53 121.065 353.994 120.777 353.482C120.505 352.97 120.113 352.554 119.601 352.234C119.105 351.898 118.505 351.73 117.801 351.73C117.209 351.73 116.649 351.842 116.121 352.066C115.593 352.29 115.153 352.65 114.801 353.146C114.465 353.642 114.265 354.29 114.201 355.09ZM126.179 362.098V351.802H124.163V350.194H126.179V348.418C126.179 347.602 126.259 346.954 126.419 346.474C126.579 345.994 126.891 345.658 127.355 345.466C127.819 345.258 128.491 345.154 129.371 345.154H130.667V346.858H129.419C128.907 346.858 128.571 346.962 128.411 347.17C128.267 347.378 128.195 347.786 128.195 348.394V350.194H130.667V351.802H128.195V362.098H126.179ZM132.696 362.098V350.194H134.16L134.808 352.402C135.224 351.682 135.784 351.106 136.488 350.674C137.208 350.226 138.064 350.002 139.056 350.002V352.09C138.944 352.09 138.824 352.09 138.696 352.09C138.584 352.09 138.472 352.098 138.36 352.114C137 352.226 136.048 352.698 135.504 353.53C134.976 354.362 134.712 355.514 134.712 356.986V362.098H132.696ZM143.597 362.386C142.845 362.386 142.157 362.25 141.533 361.978C140.909 361.706 140.413 361.314 140.045 360.802C139.677 360.29 139.493 359.674 139.493 358.954C139.493 358.01 139.821 357.266 140.477 356.722C141.149 356.178 142.085 355.762 143.285 355.474C144.501 355.17 145.917 354.93 147.533 354.754C147.565 353.746 147.365 352.97 146.933 352.426C146.501 351.882 145.805 351.61 144.845 351.61C144.125 351.61 143.533 351.778 143.069 352.114C142.621 352.434 142.333 352.882 142.205 353.458L140.261 352.882C140.581 351.97 141.149 351.266 141.965 350.77C142.797 350.258 143.749 350.002 144.821 350.002C146.469 350.002 147.669 350.394 148.421 351.178C149.189 351.946 149.573 353.162 149.573 354.826V357.61C149.573 358.602 149.613 359.458 149.693 360.178C149.773 360.898 149.869 361.538 149.981 362.098H148.133L147.653 360.466C147.301 361.058 146.797 361.53 146.141 361.882C145.485 362.218 144.637 362.386 143.597 362.386ZM144.029 360.778C144.653 360.778 145.245 360.666 145.805 360.442C146.365 360.218 146.821 359.842 147.173 359.314C147.525 358.77 147.701 358.034 147.701 357.106V356.362C146.485 356.49 145.429 356.65 144.533 356.842C143.637 357.018 142.941 357.274 142.445 357.61C141.965 357.93 141.725 358.362 141.725 358.906C141.725 359.466 141.925 359.922 142.325 360.274C142.741 360.61 143.309 360.778 144.029 360.778ZM152.653 362.098V350.194H154.141L154.669 351.994C155.005 351.434 155.461 350.962 156.037 350.578C156.629 350.194 157.365 350.002 158.245 350.002C159.157 350.002 159.893 350.186 160.453 350.554C161.013 350.922 161.421 351.434 161.677 352.09C162.157 351.354 162.733 350.826 163.405 350.506C164.093 350.17 164.853 350.002 165.685 350.002C167.061 350.002 168.045 350.426 168.637 351.274C169.229 352.106 169.525 353.202 169.525 354.562V362.098H167.509V355.162C167.509 354.554 167.445 353.994 167.317 353.482C167.205 352.954 166.965 352.53 166.597 352.21C166.245 351.89 165.701 351.73 164.965 351.73C164.101 351.73 163.405 352.066 162.877 352.738C162.365 353.394 162.109 354.362 162.109 355.642V362.098H160.093V355.162C160.093 354.554 160.029 353.994 159.901 353.482C159.789 352.954 159.549 352.53 159.181 352.21C158.829 351.89 158.285 351.73 157.549 351.73C156.685 351.73 155.989 352.066 155.461 352.738C154.933 353.394 154.669 354.362 154.669 355.642V362.098H152.653ZM177.399 362.386C176.151 362.386 175.095 362.114 174.231 361.57C173.367 361.01 172.703 360.266 172.239 359.338C171.791 358.394 171.567 357.338 171.567 356.17C171.567 354.906 171.823 353.818 172.335 352.906C172.847 351.978 173.535 351.266 174.399 350.77C175.279 350.258 176.263 350.002 177.351 350.002C178.295 350.002 179.127 350.194 179.847 350.578C180.567 350.946 181.159 351.45 181.623 352.09C182.103 352.714 182.447 353.426 182.655 354.226C182.879 355.026 182.959 355.85 182.895 356.698H173.727C173.759 357.69 173.975 358.474 174.375 359.05C174.791 359.626 175.279 360.034 175.839 360.274C176.399 360.498 176.919 360.61 177.399 360.61C178.071 360.61 178.631 360.506 179.079 360.298C179.543 360.074 179.911 359.786 180.183 359.434L182.127 360.01C181.695 360.698 181.079 361.266 180.279 361.714C179.479 362.162 178.519 362.386 177.399 362.386ZM173.751 355.09H180.759C180.759 354.53 180.615 353.994 180.327 353.482C180.055 352.97 179.663 352.554 179.151 352.234C178.655 351.898 178.055 351.73 177.351 351.73C176.759 351.73 176.199 351.842 175.671 352.066C175.143 352.29 174.703 352.65 174.351 353.146C174.015 353.642 173.815 354.29 173.751 355.09ZM189.089 362.386C188.401 362.386 187.721 362.282 187.049 362.074C186.393 361.85 185.801 361.522 185.273 361.09C184.761 360.642 184.369 360.082 184.097 359.41L186.041 358.69C186.217 359.394 186.601 359.906 187.193 360.226C187.801 360.53 188.433 360.682 189.089 360.682C189.569 360.682 190.017 360.61 190.433 360.466C190.865 360.322 191.217 360.114 191.489 359.842C191.761 359.57 191.897 359.258 191.897 358.906C191.897 358.25 191.633 357.786 191.105 357.514C190.593 357.242 189.977 357.034 189.257 356.89L187.601 356.554C187.025 356.426 186.489 356.25 185.993 356.026C185.497 355.786 185.097 355.45 184.793 355.018C184.489 354.586 184.337 354.01 184.337 353.29C184.337 352.57 184.561 351.97 185.009 351.49C185.457 350.994 186.025 350.618 186.713 350.362C187.417 350.106 188.153 349.978 188.921 349.978C189.865 349.978 190.753 350.178 191.585 350.578C192.433 350.962 193.033 351.57 193.385 352.402L191.489 353.098C191.281 352.618 190.913 352.266 190.385 352.042C189.873 351.802 189.337 351.682 188.777 351.682C188.169 351.682 187.617 351.818 187.121 352.09C186.625 352.362 186.377 352.754 186.377 353.266C186.377 353.778 186.585 354.154 187.001 354.394C187.433 354.618 187.961 354.794 188.585 354.922L190.145 355.234C190.785 355.362 191.393 355.546 191.969 355.786C192.545 356.026 193.017 356.386 193.385 356.866C193.753 357.33 193.937 357.986 193.937 358.834C193.937 359.586 193.705 360.226 193.241 360.754C192.777 361.282 192.177 361.69 191.441 361.978C190.705 362.25 189.921 362.386 189.089 362.386ZM195.49 365.29L196.618 362.362C196.25 362.298 195.938 362.122 195.682 361.834C195.442 361.546 195.322 361.21 195.322 360.826C195.322 360.41 195.474 360.05 195.778 359.746C196.082 359.442 196.442 359.29 196.858 359.29C197.29 359.29 197.658 359.442 197.962 359.746C198.266 360.05 198.418 360.41 198.418 360.826C198.418 361.018 198.378 361.218 198.298 361.426L196.81 365.29H195.49ZM211.602 362.386C210.706 362.386 209.866 362.146 209.082 361.666C208.298 361.17 207.666 360.466 207.186 359.554C206.722 358.626 206.49 357.506 206.49 356.194C206.49 354.882 206.722 353.77 207.186 352.858C207.666 351.93 208.298 351.226 209.082 350.746C209.866 350.25 210.706 350.002 211.602 350.002C212.546 350.002 213.338 350.194 213.978 350.578C214.618 350.946 215.114 351.442 215.466 352.066V346.066H217.482V357.61C217.482 358.01 217.498 358.602 217.53 359.386C217.562 360.154 217.682 361.058 217.89 362.098H215.994L215.466 360.298C215.114 360.938 214.618 361.45 213.978 361.834C213.338 362.202 212.546 362.386 211.602 362.386ZM212.13 360.658C213.154 360.658 213.97 360.266 214.578 359.482C215.202 358.698 215.514 357.602 215.514 356.194C215.514 354.77 215.202 353.674 214.578 352.906C213.97 352.122 213.154 351.73 212.13 351.73C211.106 351.73 210.282 352.122 209.658 352.906C209.05 353.674 208.746 354.77 208.746 356.194C208.746 357.602 209.05 358.698 209.658 359.482C210.282 360.266 211.106 360.658 212.13 360.658ZM225.629 362.386C224.381 362.386 223.325 362.114 222.461 361.57C221.597 361.01 220.933 360.266 220.469 359.338C220.021 358.394 219.797 357.338 219.797 356.17C219.797 354.906 220.053 353.818 220.565 352.906C221.077 351.978 221.765 351.266 222.629 350.77C223.509 350.258 224.493 350.002 225.581 350.002C226.525 350.002 227.357 350.194 228.077 350.578C228.797 350.946 229.389 351.45 229.853 352.09C230.333 352.714 230.677 353.426 230.885 354.226C231.109 355.026 231.189 355.85 231.125 356.698H221.957C221.989 357.69 222.205 358.474 222.605 359.05C223.021 359.626 223.509 360.034 224.069 360.274C224.629 360.498 225.149 360.61 225.629 360.61C226.301 360.61 226.861 360.506 227.309 360.298C227.773 360.074 228.141 359.786 228.413 359.434L230.357 360.01C229.925 360.698 229.309 361.266 228.509 361.714C227.709 362.162 226.749 362.386 225.629 362.386ZM221.981 355.09H228.989C228.989 354.53 228.845 353.994 228.557 353.482C228.285 352.97 227.893 352.554 227.381 352.234C226.885 351.898 226.285 351.73 225.581 351.73C224.989 351.73 224.429 351.842 223.901 352.066C223.373 352.29 222.933 352.65 222.581 353.146C222.245 353.642 222.045 354.29 221.981 355.09ZM237.319 362.386C236.631 362.386 235.951 362.282 235.279 362.074C234.623 361.85 234.031 361.522 233.503 361.09C232.991 360.642 232.599 360.082 232.327 359.41L234.271 358.69C234.447 359.394 234.831 359.906 235.423 360.226C236.031 360.53 236.663 360.682 237.319 360.682C237.799 360.682 238.247 360.61 238.663 360.466C239.095 360.322 239.447 360.114 239.719 359.842C239.991 359.57 240.127 359.258 240.127 358.906C240.127 358.25 239.863 357.786 239.335 357.514C238.823 357.242 238.207 357.034 237.487 356.89L235.831 356.554C235.255 356.426 234.719 356.25 234.223 356.026C233.727 355.786 233.327 355.45 233.023 355.018C232.719 354.586 232.567 354.01 232.567 353.29C232.567 352.57 232.791 351.97 233.239 351.49C233.687 350.994 234.255 350.618 234.943 350.362C235.647 350.106 236.383 349.978 237.151 349.978C238.095 349.978 238.983 350.178 239.815 350.578C240.663 350.962 241.263 351.57 241.615 352.402L239.719 353.098C239.511 352.618 239.143 352.266 238.615 352.042C238.103 351.802 237.567 351.682 237.007 351.682C236.399 351.682 235.847 351.818 235.351 352.09C234.855 352.362 234.607 352.754 234.607 353.266C234.607 353.778 234.815 354.154 235.231 354.394C235.663 354.618 236.191 354.794 236.815 354.922L238.375 355.234C239.015 355.362 239.623 355.546 240.199 355.786C240.775 356.026 241.247 356.386 241.615 356.866C241.983 357.33 242.167 357.986 242.167 358.834C242.167 359.586 241.935 360.226 241.471 360.754C241.007 361.282 240.407 361.69 239.671 361.978C238.935 362.25 238.151 362.386 237.319 362.386ZM246.383 347.938C245.983 347.938 245.631 347.794 245.327 347.506C245.039 347.202 244.895 346.842 244.895 346.426C244.895 346.01 245.039 345.658 245.327 345.37C245.631 345.082 245.983 344.938 246.383 344.938C246.799 344.938 247.151 345.082 247.439 345.37C247.743 345.658 247.895 346.01 247.895 346.426C247.895 346.842 247.743 347.202 247.439 347.506C247.151 347.794 246.799 347.938 246.383 347.938ZM245.375 362.098V351.802H243.719V350.194H247.391V362.098H245.375ZM255.655 366.706C255.015 366.706 254.375 366.61 253.735 366.418C253.111 366.242 252.551 365.946 252.055 365.53C251.575 365.114 251.231 364.578 251.023 363.922L253.039 363.37C253.263 363.994 253.631 364.41 254.143 364.618C254.655 364.826 255.159 364.93 255.655 364.93C256.887 364.93 257.719 364.634 258.151 364.042C258.599 363.45 258.823 362.578 258.823 361.426V359.842C258.455 360.466 257.967 360.962 257.359 361.33C256.751 361.698 255.975 361.882 255.031 361.882C254.151 361.882 253.327 361.658 252.559 361.21C251.791 360.746 251.167 360.074 250.687 359.194C250.223 358.298 249.991 357.218 249.991 355.954C249.991 354.674 250.223 353.594 250.687 352.714C251.167 351.834 251.791 351.162 252.559 350.698C253.327 350.234 254.151 350.002 255.031 350.002C255.975 350.002 256.751 350.194 257.359 350.578C257.967 350.946 258.455 351.442 258.823 352.066L259.375 350.194H260.839V360.97C260.839 362.858 260.455 364.282 259.687 365.242C258.935 366.218 257.591 366.706 255.655 366.706ZM255.535 360.202C256.143 360.202 256.695 360.058 257.191 359.77C257.703 359.482 258.111 359.026 258.415 358.402C258.735 357.778 258.895 356.962 258.895 355.954C258.895 354.946 258.735 354.13 258.415 353.506C258.111 352.882 257.703 352.434 257.191 352.162C256.695 351.874 256.143 351.73 255.535 351.73C254.559 351.73 253.751 352.098 253.111 352.834C252.487 353.554 252.175 354.594 252.175 355.954C252.175 357.314 252.487 358.362 253.111 359.098C253.751 359.834 254.559 360.202 255.535 360.202ZM263.949 362.098V350.194H265.437L265.965 351.994C266.301 351.434 266.773 350.962 267.381 350.578C267.989 350.194 268.797 350.002 269.805 350.002C271.245 350.002 272.261 350.426 272.853 351.274C273.445 352.106 273.741 353.202 273.741 354.562V362.098H271.725V355.162C271.725 354.554 271.669 353.994 271.557 353.482C271.445 352.954 271.197 352.53 270.813 352.21C270.445 351.89 269.877 351.73 269.109 351.73C268.133 351.73 267.365 352.066 266.805 352.738C266.245 353.394 265.965 354.362 265.965 355.642V362.098H263.949ZM287.353 362.386C286.665 362.386 285.985 362.282 285.313 362.074C284.657 361.85 284.065 361.522 283.537 361.09C283.025 360.642 282.633 360.082 282.361 359.41L284.305 358.69C284.481 359.394 284.865 359.906 285.457 360.226C286.065 360.53 286.697 360.682 287.353 360.682C287.833 360.682 288.281 360.61 288.697 360.466C289.129 360.322 289.481 360.114 289.753 359.842C290.025 359.57 290.161 359.258 290.161 358.906C290.161 358.25 289.897 357.786 289.369 357.514C288.857 357.242 288.241 357.034 287.521 356.89L285.865 356.554C285.289 356.426 284.753 356.25 284.257 356.026C283.761 355.786 283.361 355.45 283.057 355.018C282.753 354.586 282.601 354.01 282.601 353.29C282.601 352.57 282.825 351.97 283.273 351.49C283.721 350.994 284.289 350.618 284.977 350.362C285.681 350.106 286.417 349.978 287.185 349.978C288.129 349.978 289.017 350.178 289.849 350.578C290.697 350.962 291.297 351.57 291.649 352.402L289.753 353.098C289.545 352.618 289.177 352.266 288.649 352.042C288.137 351.802 287.601 351.682 287.041 351.682C286.433 351.682 285.881 351.818 285.385 352.09C284.889 352.362 284.641 352.754 284.641 353.266C284.641 353.778 284.849 354.154 285.265 354.394C285.697 354.618 286.225 354.794 286.849 354.922L288.409 355.234C289.049 355.362 289.657 355.546 290.233 355.786C290.809 356.026 291.281 356.386 291.649 356.866C292.017 357.33 292.201 357.986 292.201 358.834C292.201 359.586 291.969 360.226 291.505 360.754C291.041 361.282 290.441 361.69 289.705 361.978C288.969 362.25 288.185 362.386 287.353 362.386ZM293.562 365.962V364.186H294.378C294.954 364.186 295.394 364.138 295.698 364.042C296.002 363.962 296.242 363.77 296.418 363.466C296.61 363.178 296.794 362.73 296.97 362.122L292.674 350.218H294.906L297.834 359.386L300.762 350.218H302.97L298.746 362.626C298.458 363.474 298.162 364.138 297.858 364.618C297.57 365.114 297.178 365.458 296.682 365.65C296.186 365.858 295.49 365.962 294.594 365.962H293.562ZM308.974 362.386C308.286 362.386 307.606 362.282 306.934 362.074C306.278 361.85 305.686 361.522 305.158 361.09C304.646 360.642 304.254 360.082 303.982 359.41L305.926 358.69C306.102 359.394 306.486 359.906 307.078 360.226C307.686 360.53 308.318 360.682 308.974 360.682C309.454 360.682 309.902 360.61 310.318 360.466C310.75 360.322 311.102 360.114 311.374 359.842C311.646 359.57 311.782 359.258 311.782 358.906C311.782 358.25 311.518 357.786 310.99 357.514C310.478 357.242 309.862 357.034 309.142 356.89L307.486 356.554C306.91 356.426 306.374 356.25 305.878 356.026C305.382 355.786 304.982 355.45 304.678 355.018C304.374 354.586 304.222 354.01 304.222 353.29C304.222 352.57 304.446 351.97 304.894 351.49C305.342 350.994 305.91 350.618 306.598 350.362C307.302 350.106 308.038 349.978 308.806 349.978C309.75 349.978 310.638 350.178 311.47 350.578C312.318 350.962 312.918 351.57 313.27 352.402L311.374 353.098C311.166 352.618 310.798 352.266 310.27 352.042C309.758 351.802 309.222 351.682 308.662 351.682C308.054 351.682 307.502 351.818 307.006 352.09C306.51 352.362 306.262 352.754 306.262 353.266C306.262 353.778 306.47 354.154 306.886 354.394C307.318 354.618 307.846 354.794 308.47 354.922L310.03 355.234C310.67 355.362 311.278 355.546 311.854 355.786C312.43 356.026 312.902 356.386 313.27 356.866C313.638 357.33 313.822 357.986 313.822 358.834C313.822 359.586 313.59 360.226 313.126 360.754C312.662 361.282 312.062 361.69 311.326 361.978C310.59 362.25 309.806 362.386 308.974 362.386ZM319.599 362.098C318.847 362.098 318.263 362.026 317.847 361.882C317.447 361.722 317.167 361.426 317.007 360.994C316.863 360.562 316.791 359.938 316.791 359.122V351.802H314.775V350.194H316.791V347.194H318.807V350.194H321.111V351.802H318.807V358.786C318.807 359.394 318.863 359.802 318.975 360.01C319.103 360.218 319.455 360.322 320.031 360.322H321.111V362.098H319.599ZM328.581 362.386C327.333 362.386 326.277 362.114 325.413 361.57C324.549 361.01 323.885 360.266 323.421 359.338C322.973 358.394 322.749 357.338 322.749 356.17C322.749 354.906 323.005 353.818 323.517 352.906C324.029 351.978 324.717 351.266 325.581 350.77C326.461 350.258 327.445 350.002 328.533 350.002C329.477 350.002 330.309 350.194 331.029 350.578C331.749 350.946 332.341 351.45 332.805 352.09C333.285 352.714 333.629 353.426 333.837 354.226C334.061 355.026 334.141 355.85 334.077 356.698H324.909C324.941 357.69 325.157 358.474 325.557 359.05C325.973 359.626 326.461 360.034 327.021 360.274C327.581 360.498 328.101 360.61 328.581 360.61C329.253 360.61 329.813 360.506 330.261 360.298C330.725 360.074 331.093 359.786 331.365 359.434L333.309 360.01C332.877 360.698 332.261 361.266 331.461 361.714C330.661 362.162 329.701 362.386 328.581 362.386ZM324.933 355.09H331.941C331.941 354.53 331.797 353.994 331.509 353.482C331.237 352.97 330.845 352.554 330.333 352.234C329.837 351.898 329.237 351.73 328.533 351.73C327.941 351.73 327.381 351.842 326.853 352.066C326.325 352.29 325.885 352.65 325.533 353.146C325.197 353.642 324.997 354.29 324.933 355.09ZM336.214 362.098V350.194H337.702L338.23 351.994C338.566 351.434 339.022 350.962 339.598 350.578C340.19 350.194 340.926 350.002 341.806 350.002C342.718 350.002 343.454 350.186 344.014 350.554C344.574 350.922 344.982 351.434 345.238 352.09C345.718 351.354 346.294 350.826 346.966 350.506C347.654 350.17 348.414 350.002 349.246 350.002C350.622 350.002 351.606 350.426 352.198 351.274C352.79 352.106 353.086 353.202 353.086 354.562V362.098H351.07V355.162C351.07 354.554 351.006 353.994 350.878 353.482C350.766 352.954 350.526 352.53 350.158 352.21C349.806 351.89 349.262 351.73 348.526 351.73C347.662 351.73 346.966 352.066 346.438 352.738C345.926 353.394 345.67 354.362 345.67 355.642V362.098H343.654V355.162C343.654 354.554 343.59 353.994 343.462 353.482C343.35 352.954 343.11 352.53 342.742 352.21C342.39 351.89 341.846 351.73 341.11 351.73C340.246 351.73 339.55 352.066 339.022 352.738C338.494 353.394 338.23 354.362 338.23 355.642V362.098H336.214Z" fill="black"/>
<rect x="140" y="219.098" width="144" height="60" rx="27" fill="#FD5201"/>
<path d="M168.29 256.098V241.552H174.029C175.127 241.552 176.065 241.749 176.842 242.142C177.623 242.53 178.217 243.082 178.624 243.797C179.036 244.507 179.242 245.342 179.242 246.304C179.242 247.27 179.034 248.1 178.617 248.797C178.2 249.488 177.597 250.018 176.806 250.387C176.02 250.757 175.068 250.941 173.951 250.941H170.109V248.47H173.454C174.041 248.47 174.529 248.389 174.917 248.228C175.305 248.067 175.594 247.826 175.783 247.504C175.977 247.182 176.074 246.782 176.074 246.304C176.074 245.821 175.977 245.413 175.783 245.082C175.594 244.751 175.303 244.5 174.91 244.329C174.521 244.154 174.031 244.066 173.44 244.066H171.366V256.098H168.29ZM176.145 249.478L179.761 256.098H176.366L172.829 249.478H176.145ZM185.954 256.311C184.832 256.311 183.866 256.083 183.057 255.629C182.252 255.17 181.631 254.521 181.196 253.683C180.76 252.84 180.542 251.843 180.542 250.693C180.542 249.571 180.76 248.586 181.196 247.738C181.631 246.891 182.245 246.23 183.035 245.757C183.831 245.283 184.764 245.047 185.834 245.047C186.553 245.047 187.223 245.163 187.844 245.395C188.469 245.622 189.013 245.965 189.477 246.424C189.946 246.884 190.31 247.461 190.571 248.157C190.831 248.849 190.961 249.658 190.961 250.586V251.417H181.75V249.542H188.113C188.113 249.107 188.019 248.721 187.829 248.385C187.64 248.048 187.377 247.786 187.041 247.596C186.71 247.402 186.324 247.305 185.883 247.305C185.424 247.305 185.017 247.412 184.662 247.625C184.311 247.833 184.037 248.115 183.838 248.47C183.639 248.82 183.537 249.211 183.532 249.642V251.424C183.532 251.964 183.632 252.431 183.831 252.824C184.034 253.217 184.321 253.52 184.69 253.733C185.059 253.946 185.497 254.052 186.004 254.052C186.34 254.052 186.648 254.005 186.927 253.91C187.207 253.815 187.446 253.673 187.645 253.484C187.844 253.295 187.995 253.063 188.099 252.788L190.898 252.973C190.756 253.645 190.464 254.232 190.024 254.734C189.588 255.231 189.025 255.619 188.334 255.899C187.647 256.173 186.854 256.311 185.954 256.311ZM196.756 256.275C195.927 256.275 195.177 256.062 194.504 255.636C193.837 255.205 193.306 254.573 192.913 253.74C192.525 252.902 192.331 251.874 192.331 250.657C192.331 249.407 192.532 248.368 192.935 247.539C193.337 246.706 193.872 246.083 194.54 245.672C195.212 245.255 195.948 245.047 196.749 245.047C197.359 245.047 197.868 245.151 198.276 245.359C198.688 245.563 199.019 245.818 199.27 246.126C199.526 246.429 199.72 246.727 199.852 247.021H199.945V241.552H202.963V256.098H199.98V254.35H199.852C199.71 254.654 199.509 254.954 199.249 255.252C198.993 255.546 198.659 255.79 198.247 255.984C197.84 256.178 197.343 256.275 196.756 256.275ZM197.715 253.868C198.202 253.868 198.614 253.735 198.95 253.47C199.291 253.2 199.552 252.824 199.732 252.341C199.916 251.858 200.009 251.292 200.009 250.643C200.009 249.994 199.919 249.431 199.739 248.953C199.559 248.475 199.298 248.105 198.957 247.845C198.617 247.584 198.202 247.454 197.715 247.454C197.217 247.454 196.798 247.589 196.457 247.859C196.117 248.129 195.859 248.503 195.683 248.981C195.508 249.459 195.421 250.013 195.421 250.643C195.421 251.278 195.508 251.839 195.683 252.326C195.863 252.809 196.121 253.188 196.457 253.463C196.798 253.733 197.217 253.868 197.715 253.868ZM210.222 256.311C209.1 256.311 208.134 256.083 207.325 255.629C206.52 255.17 205.899 254.521 205.464 253.683C205.028 252.84 204.81 251.843 204.81 250.693C204.81 249.571 205.028 248.586 205.464 247.738C205.899 246.891 206.513 246.23 207.303 245.757C208.099 245.283 209.032 245.047 210.102 245.047C210.821 245.047 211.491 245.163 212.112 245.395C212.737 245.622 213.281 245.965 213.745 246.424C214.214 246.884 214.578 247.461 214.839 248.157C215.099 248.849 215.229 249.658 215.229 250.586V251.417H206.018V249.542H212.381C212.381 249.107 212.287 248.721 212.097 248.385C211.908 248.048 211.645 247.786 211.309 247.596C210.978 247.402 210.592 247.305 210.151 247.305C209.692 247.305 209.285 247.412 208.93 247.625C208.579 247.833 208.305 248.115 208.106 248.47C207.907 248.82 207.805 249.211 207.8 249.642V251.424C207.8 251.964 207.9 252.431 208.099 252.824C208.302 253.217 208.589 253.52 208.958 253.733C209.327 253.946 209.765 254.052 210.272 254.052C210.608 254.052 210.916 254.005 211.195 253.91C211.475 253.815 211.714 253.673 211.913 253.484C212.112 253.295 212.263 253.063 212.367 252.788L215.166 252.973C215.023 253.645 214.732 254.232 214.292 254.734C213.856 255.231 213.293 255.619 212.602 255.899C211.915 256.173 211.122 256.311 210.222 256.311ZM226.081 248.299L223.311 248.47C223.263 248.233 223.162 248.02 223.005 247.831C222.849 247.636 222.643 247.483 222.387 247.369C222.136 247.251 221.836 247.191 221.485 247.191C221.017 247.191 220.621 247.291 220.299 247.49C219.977 247.684 219.816 247.944 219.816 248.271C219.816 248.531 219.921 248.752 220.129 248.931C220.337 249.111 220.695 249.256 221.201 249.365L223.176 249.762C224.236 249.98 225.027 250.331 225.548 250.814C226.069 251.297 226.329 251.931 226.329 252.717C226.329 253.432 226.118 254.059 225.697 254.599C225.28 255.139 224.707 255.56 223.978 255.863C223.254 256.162 222.418 256.311 221.471 256.311C220.027 256.311 218.877 256.01 218.019 255.409C217.167 254.803 216.668 253.979 216.521 252.937L219.497 252.781C219.587 253.221 219.805 253.557 220.15 253.789C220.496 254.017 220.939 254.13 221.478 254.13C222.009 254.13 222.435 254.029 222.757 253.825C223.083 253.617 223.249 253.349 223.254 253.022C223.249 252.748 223.133 252.523 222.906 252.348C222.679 252.168 222.328 252.03 221.855 251.936L219.966 251.559C218.9 251.346 218.107 250.977 217.586 250.451C217.07 249.926 216.812 249.256 216.812 248.441C216.812 247.741 217.002 247.137 217.38 246.63C217.764 246.124 218.301 245.733 218.993 245.458C219.689 245.184 220.503 245.047 221.436 245.047C222.814 245.047 223.898 245.338 224.689 245.92C225.484 246.502 225.948 247.296 226.081 248.299ZM228.034 256.098V245.189H231.06V256.098H228.034ZM229.554 243.782C229.104 243.782 228.719 243.633 228.397 243.335C228.079 243.032 227.921 242.67 227.921 242.248C227.921 241.832 228.079 241.474 228.397 241.176C228.719 240.873 229.104 240.721 229.554 240.721C230.004 240.721 230.388 240.873 230.705 241.176C231.027 241.474 231.188 241.832 231.188 242.248C231.188 242.67 231.027 243.032 230.705 243.335C230.388 243.633 230.004 243.782 229.554 243.782ZM238.198 260.416C237.218 260.416 236.378 260.281 235.677 260.011C234.981 259.746 234.427 259.384 234.015 258.924C233.603 258.465 233.336 257.949 233.213 257.376L236.011 257C236.096 257.217 236.231 257.421 236.416 257.61C236.6 257.8 236.844 257.951 237.147 258.065C237.455 258.183 237.829 258.243 238.269 258.243C238.927 258.243 239.47 258.082 239.896 257.76C240.327 257.442 240.542 256.91 240.542 256.162V254.166H240.414C240.282 254.469 240.083 254.755 239.818 255.025C239.552 255.295 239.212 255.515 238.795 255.686C238.378 255.856 237.881 255.941 237.303 255.941C236.484 255.941 235.739 255.752 235.066 255.373C234.399 254.99 233.866 254.405 233.468 253.619C233.075 252.828 232.879 251.829 232.879 250.622C232.879 249.386 233.08 248.354 233.482 247.525C233.885 246.697 234.42 246.076 235.088 245.664C235.76 245.252 236.496 245.047 237.296 245.047C237.907 245.047 238.419 245.151 238.83 245.359C239.242 245.563 239.574 245.818 239.825 246.126C240.08 246.429 240.277 246.727 240.414 247.021H240.528V245.189H243.532V256.204C243.532 257.132 243.305 257.909 242.85 258.534C242.396 259.159 241.766 259.627 240.961 259.94C240.161 260.257 239.24 260.416 238.198 260.416ZM238.262 253.669C238.75 253.669 239.162 253.548 239.498 253.306C239.839 253.06 240.099 252.71 240.279 252.255C240.464 251.796 240.556 251.247 240.556 250.608C240.556 249.968 240.466 249.414 240.286 248.946C240.106 248.472 239.846 248.105 239.505 247.845C239.164 247.584 238.75 247.454 238.262 247.454C237.765 247.454 237.346 247.589 237.005 247.859C236.664 248.124 236.406 248.493 236.231 248.967C236.056 249.44 235.968 249.987 235.968 250.608C235.968 251.237 236.056 251.782 236.231 252.241C236.411 252.696 236.669 253.048 237.005 253.299C237.346 253.546 237.765 253.669 238.262 253.669ZM248.765 249.791V256.098H245.74V245.189H248.623V247.113H248.751C248.993 246.479 249.397 245.977 249.966 245.608C250.534 245.234 251.223 245.047 252.032 245.047C252.79 245.047 253.451 245.212 254.014 245.544C254.577 245.875 255.015 246.349 255.328 246.964C255.64 247.575 255.797 248.304 255.797 249.152V256.098H252.771V249.691C252.776 249.024 252.605 248.503 252.26 248.129C251.914 247.75 251.438 247.561 250.832 247.561C250.425 247.561 250.065 247.648 249.753 247.824C249.445 247.999 249.203 248.254 249.028 248.591C248.858 248.922 248.77 249.322 248.765 249.791Z" fill="white"/>
</svg>
