<svg width="437" height="437" viewBox="0 0 437 437" fill="none" xmlns="http://www.w3.org/2000/svg">
<circle cx="207.5" cy="78.5" r="8.725" fill="#FFEAE2" stroke="black" stroke-width="1.55"/>
<rect x="199.371" y="142.383" width="26.45" height="70.4919" rx="2.225" transform="rotate(165 199.371 142.383)" fill="#FFEAE2" stroke="black" stroke-width="1.55"/>
<path d="M158.971 93.797L156.044 82.8738C155.44 80.6199 156.777 78.3027 159.031 77.6988L176.418 73.04C178.672 72.4361 180.988 73.7743 181.592 76.0282L184.519 86.9515L158.971 93.797Z" fill="white" stroke="black" stroke-width="1.55"/>
<path d="M192.29 162.936C192.046 163.847 190.907 164.152 190.24 163.485L174.688 147.933L197.983 141.691L192.29 162.936Z" fill="white" stroke="black" stroke-width="1.55"/>
<path d="M191.339 163.487L186.44 158.588L193.133 156.795L191.339 163.487Z" fill="black"/>
<path d="M192.5 170.5H243.5C261 170.5 273.5 163 273.5 137" stroke="black" stroke-width="1.55" stroke-linecap="round"/>
<rect x="228.784" y="76.0587" width="47.45" height="47.45" rx="2.225" transform="rotate(30 228.784 76.0587)" fill="white" stroke="black" stroke-width="1.55"/>
<circle cx="240" cy="136" r="16.225" fill="#FFEAE2" stroke="black" stroke-width="1.55"/>
<path d="M267.5 54V83" stroke="black" stroke-width="1.55" stroke-linecap="round"/>
<path d="M282 68.5L253 68.5" stroke="black" stroke-width="1.55" stroke-linecap="round"/>
<path d="M277.75 78.752L257.244 58.2459" stroke="black" stroke-width="1.55" stroke-linecap="round"/>
<path d="M257.25 78.752L277.756 58.2459" stroke="black" stroke-width="1.55" stroke-linecap="round"/>
<path d="M238 96L203 96" stroke="black" stroke-width="1.55" stroke-linecap="round"/>
<path d="M222.5 104L237.75 104" stroke="black" stroke-width="1.55" stroke-linecap="round"/>
<path d="M159.461 331.5L165.485 315.444H168.005L174.005 331.5H171.605L170.381 327.996H163.085L161.861 331.5H159.461ZM163.781 326.052H169.685L166.733 317.724L163.781 326.052ZM175.684 331.5V319.596H177.172L177.7 321.396C178.036 320.836 178.508 320.364 179.116 319.98C179.724 319.596 180.532 319.404 181.54 319.404C182.98 319.404 183.996 319.828 184.588 320.676C185.18 321.508 185.476 322.604 185.476 323.964V331.5H183.46V324.564C183.46 323.956 183.404 323.396 183.292 322.884C183.18 322.356 182.932 321.932 182.548 321.612C182.18 321.292 181.612 321.132 180.844 321.132C179.868 321.132 179.1 321.468 178.54 322.14C177.98 322.796 177.7 323.764 177.7 325.044V331.5H175.684ZM190.61 317.34C190.21 317.34 189.858 317.196 189.554 316.908C189.266 316.604 189.122 316.244 189.122 315.828C189.122 315.412 189.266 315.06 189.554 314.772C189.858 314.484 190.21 314.34 190.61 314.34C191.026 314.34 191.378 314.484 191.666 314.772C191.97 315.06 192.122 315.412 192.122 315.828C192.122 316.244 191.97 316.604 191.666 316.908C191.378 317.196 191.026 317.34 190.61 317.34ZM189.602 331.5V321.204H187.946V319.596H191.618V331.5H189.602ZM194.985 331.5V319.596H196.473L197.001 321.396C197.337 320.836 197.793 320.364 198.369 319.98C198.961 319.596 199.697 319.404 200.577 319.404C201.489 319.404 202.225 319.588 202.785 319.956C203.345 320.324 203.753 320.836 204.009 321.492C204.489 320.756 205.065 320.228 205.737 319.908C206.425 319.572 207.185 319.404 208.017 319.404C209.393 319.404 210.377 319.828 210.969 320.676C211.561 321.508 211.857 322.604 211.857 323.964V331.5H209.841V324.564C209.841 323.956 209.777 323.396 209.649 322.884C209.537 322.356 209.297 321.932 208.929 321.612C208.577 321.292 208.033 321.132 207.297 321.132C206.433 321.132 205.737 321.468 205.209 322.14C204.697 322.796 204.441 323.764 204.441 325.044V331.5H202.425V324.564C202.425 323.956 202.361 323.396 202.233 322.884C202.121 322.356 201.881 321.932 201.513 321.612C201.161 321.292 200.617 321.132 199.881 321.132C199.017 321.132 198.321 321.468 197.793 322.14C197.265 322.796 197.001 323.764 197.001 325.044V331.5H194.985ZM218.261 331.788C217.509 331.788 216.821 331.652 216.197 331.38C215.573 331.108 215.077 330.716 214.709 330.204C214.341 329.692 214.157 329.076 214.157 328.356C214.157 327.412 214.485 326.668 215.141 326.124C215.813 325.58 216.749 325.164 217.949 324.876C219.165 324.572 220.581 324.332 222.197 324.156C222.229 323.148 222.029 322.372 221.597 321.828C221.165 321.284 220.469 321.012 219.509 321.012C218.789 321.012 218.197 321.18 217.733 321.516C217.285 321.836 216.997 322.284 216.869 322.86L214.925 322.284C215.245 321.372 215.813 320.668 216.629 320.172C217.461 319.66 218.413 319.404 219.485 319.404C221.133 319.404 222.333 319.796 223.085 320.58C223.853 321.348 224.237 322.564 224.237 324.228V327.012C224.237 328.004 224.277 328.86 224.357 329.58C224.437 330.3 224.533 330.94 224.645 331.5H222.797L222.317 329.868C221.965 330.46 221.461 330.932 220.805 331.284C220.149 331.62 219.301 331.788 218.261 331.788ZM218.693 330.18C219.317 330.18 219.909 330.068 220.469 329.844C221.029 329.62 221.485 329.244 221.837 328.716C222.189 328.172 222.365 327.436 222.365 326.508V325.764C221.149 325.892 220.093 326.052 219.197 326.244C218.301 326.42 217.605 326.676 217.109 327.012C216.629 327.332 216.389 327.764 216.389 328.308C216.389 328.868 216.589 329.324 216.989 329.676C217.405 330.012 217.973 330.18 218.693 330.18ZM230.942 331.5C230.19 331.5 229.606 331.428 229.19 331.284C228.79 331.124 228.51 330.828 228.35 330.396C228.206 329.964 228.134 329.34 228.134 328.524V321.204H226.118V319.596H228.134V316.596H230.15V319.596H232.454V321.204H230.15V328.188C230.15 328.796 230.206 329.204 230.318 329.412C230.446 329.62 230.798 329.724 231.374 329.724H232.454V331.5H230.942ZM236.923 317.34C236.523 317.34 236.171 317.196 235.867 316.908C235.579 316.604 235.435 316.244 235.435 315.828C235.435 315.412 235.579 315.06 235.867 314.772C236.171 314.484 236.523 314.34 236.923 314.34C237.339 314.34 237.691 314.484 237.979 314.772C238.283 315.06 238.435 315.412 238.435 315.828C238.435 316.244 238.283 316.604 237.979 316.908C237.691 317.196 237.339 317.34 236.923 317.34ZM235.915 331.5V321.204H234.259V319.596H237.931V331.5H235.915ZM246.243 331.788C245.555 331.788 244.875 331.668 244.203 331.428C243.531 331.188 242.915 330.82 242.355 330.324C241.811 329.812 241.371 329.164 241.035 328.38C240.699 327.596 240.531 326.668 240.531 325.596C240.531 324.524 240.699 323.596 241.035 322.812C241.371 322.028 241.811 321.388 242.355 320.892C242.915 320.38 243.531 320.004 244.203 319.764C244.875 319.524 245.555 319.404 246.243 319.404C246.931 319.404 247.611 319.524 248.283 319.764C248.971 320.004 249.587 320.38 250.131 320.892C250.691 321.388 251.131 322.028 251.451 322.812C251.787 323.596 251.955 324.524 251.955 325.596C251.955 326.668 251.787 327.596 251.451 328.38C251.131 329.164 250.691 329.812 250.131 330.324C249.587 330.82 248.971 331.188 248.283 331.428C247.611 331.668 246.931 331.788 246.243 331.788ZM246.243 330.012C246.819 330.012 247.379 329.86 247.923 329.556C248.467 329.236 248.915 328.756 249.267 328.116C249.619 327.46 249.795 326.62 249.795 325.596C249.795 324.572 249.619 323.74 249.267 323.1C248.915 322.444 248.467 321.964 247.923 321.66C247.379 321.34 246.819 321.18 246.243 321.18C245.683 321.18 245.123 321.34 244.563 321.66C244.019 321.964 243.571 322.444 243.219 323.1C242.867 323.74 242.691 324.572 242.691 325.596C242.691 326.62 242.867 327.46 243.219 328.116C243.571 328.756 244.019 329.236 244.563 329.556C245.123 329.86 245.683 330.012 246.243 330.012ZM254.301 331.5V319.596H255.789L256.317 321.396C256.653 320.836 257.125 320.364 257.733 319.98C258.341 319.596 259.149 319.404 260.157 319.404C261.597 319.404 262.613 319.828 263.205 320.676C263.797 321.508 264.093 322.604 264.093 323.964V331.5H262.077V324.564C262.077 323.956 262.021 323.396 261.909 322.884C261.797 322.356 261.549 321.932 261.165 321.612C260.797 321.292 260.229 321.132 259.461 321.132C258.485 321.132 257.717 321.468 257.157 322.14C256.597 322.796 256.317 323.764 256.317 325.044V331.5H254.301ZM271.218 331.788C270.53 331.788 269.85 331.684 269.178 331.476C268.522 331.252 267.93 330.924 267.402 330.492C266.89 330.044 266.498 329.484 266.226 328.812L268.17 328.092C268.346 328.796 268.73 329.308 269.322 329.628C269.93 329.932 270.562 330.084 271.218 330.084C271.698 330.084 272.146 330.012 272.562 329.868C272.994 329.724 273.346 329.516 273.618 329.244C273.89 328.972 274.026 328.66 274.026 328.308C274.026 327.652 273.762 327.188 273.234 326.916C272.722 326.644 272.106 326.436 271.386 326.292L269.73 325.956C269.154 325.828 268.618 325.652 268.122 325.428C267.626 325.188 267.226 324.852 266.922 324.42C266.618 323.988 266.466 323.412 266.466 322.692C266.466 321.972 266.69 321.372 267.138 320.892C267.586 320.396 268.154 320.02 268.842 319.764C269.546 319.508 270.282 319.38 271.05 319.38C271.994 319.38 272.882 319.58 273.714 319.98C274.562 320.364 275.162 320.972 275.514 321.804L273.618 322.5C273.41 322.02 273.042 321.668 272.514 321.444C272.002 321.204 271.466 321.084 270.906 321.084C270.298 321.084 269.746 321.22 269.25 321.492C268.754 321.764 268.506 322.156 268.506 322.668C268.506 323.18 268.714 323.556 269.13 323.796C269.562 324.02 270.09 324.196 270.714 324.324L272.274 324.636C272.914 324.764 273.522 324.948 274.098 325.188C274.674 325.428 275.146 325.788 275.514 326.268C275.882 326.732 276.066 327.388 276.066 328.236C276.066 328.988 275.834 329.628 275.37 330.156C274.906 330.684 274.306 331.092 273.57 331.38C272.834 331.652 272.05 331.788 271.218 331.788ZM141.54 361.788C140.788 361.788 140.1 361.652 139.476 361.38C138.852 361.108 138.356 360.716 137.988 360.204C137.62 359.692 137.436 359.076 137.436 358.356C137.436 357.412 137.764 356.668 138.42 356.124C139.092 355.58 140.028 355.164 141.228 354.876C142.444 354.572 143.86 354.332 145.476 354.156C145.508 353.148 145.308 352.372 144.876 351.828C144.444 351.284 143.748 351.012 142.788 351.012C142.068 351.012 141.476 351.18 141.012 351.516C140.564 351.836 140.276 352.284 140.148 352.86L138.204 352.284C138.524 351.372 139.092 350.668 139.908 350.172C140.74 349.66 141.692 349.404 142.764 349.404C144.412 349.404 145.612 349.796 146.364 350.58C147.132 351.348 147.516 352.564 147.516 354.228V357.012C147.516 358.004 147.556 358.86 147.636 359.58C147.716 360.3 147.812 360.94 147.924 361.5H146.076L145.596 359.868C145.244 360.46 144.74 360.932 144.084 361.284C143.428 361.62 142.58 361.788 141.54 361.788ZM141.972 360.18C142.596 360.18 143.188 360.068 143.748 359.844C144.308 359.62 144.764 359.244 145.116 358.716C145.468 358.172 145.644 357.436 145.644 356.508V355.764C144.428 355.892 143.372 356.052 142.476 356.244C141.58 356.42 140.884 356.676 140.388 357.012C139.908 357.332 139.668 357.764 139.668 358.308C139.668 358.868 139.868 359.324 140.268 359.676C140.684 360.012 141.252 360.18 141.972 360.18ZM150.597 361.5V349.596H152.085L152.613 351.396C152.949 350.836 153.421 350.364 154.029 349.98C154.637 349.596 155.445 349.404 156.453 349.404C157.893 349.404 158.909 349.828 159.501 350.676C160.093 351.508 160.389 352.604 160.389 353.964V361.5H158.373V354.564C158.373 353.956 158.317 353.396 158.205 352.884C158.093 352.356 157.845 351.932 157.461 351.612C157.093 351.292 156.525 351.132 155.757 351.132C154.781 351.132 154.013 351.468 153.453 352.14C152.893 352.796 152.613 353.764 152.613 355.044V361.5H150.597ZM167.544 361.788C166.648 361.788 165.808 361.548 165.024 361.068C164.24 360.572 163.608 359.868 163.128 358.956C162.664 358.028 162.432 356.908 162.432 355.596C162.432 354.284 162.664 353.172 163.128 352.26C163.608 351.332 164.24 350.628 165.024 350.148C165.808 349.652 166.648 349.404 167.544 349.404C168.488 349.404 169.28 349.596 169.92 349.98C170.56 350.348 171.056 350.844 171.408 351.468V345.468H173.424V357.012C173.424 357.412 173.44 358.004 173.472 358.788C173.504 359.556 173.624 360.46 173.832 361.5H171.936L171.408 359.7C171.056 360.34 170.56 360.852 169.92 361.236C169.28 361.604 168.488 361.788 167.544 361.788ZM168.072 360.06C169.096 360.06 169.912 359.668 170.52 358.884C171.144 358.1 171.456 357.004 171.456 355.596C171.456 354.172 171.144 353.076 170.52 352.308C169.912 351.524 169.096 351.132 168.072 351.132C167.048 351.132 166.224 351.524 165.6 352.308C164.992 353.076 164.688 354.172 164.688 355.596C164.688 357.004 164.992 358.1 165.6 358.884C166.224 359.668 167.048 360.06 168.072 360.06ZM182.994 365.364V349.596H184.458L185.01 351.468C185.378 350.844 185.882 350.348 186.522 349.98C187.162 349.596 187.946 349.404 188.874 349.404C189.786 349.404 190.626 349.652 191.394 350.148C192.178 350.628 192.802 351.332 193.266 352.26C193.746 353.172 193.986 354.284 193.986 355.596C193.986 356.892 193.746 358.004 193.266 358.932C192.802 359.86 192.178 360.572 191.394 361.068C190.626 361.548 189.786 361.788 188.874 361.788C187.946 361.788 187.162 361.604 186.522 361.236C185.882 360.852 185.378 360.34 185.01 359.7V365.364H182.994ZM188.346 360.06C189.37 360.06 190.186 359.668 190.794 358.884C191.418 358.1 191.73 357.004 191.73 355.596C191.73 354.172 191.418 353.076 190.794 352.308C190.186 351.524 189.37 351.132 188.346 351.132C187.322 351.132 186.498 351.524 185.874 352.308C185.266 353.076 184.962 354.172 184.962 355.596C184.962 357.004 185.266 358.1 185.874 358.884C186.498 359.668 187.322 360.06 188.346 360.06ZM196.347 361.5V349.596H197.811L198.459 351.804C198.875 351.084 199.435 350.508 200.139 350.076C200.859 349.628 201.715 349.404 202.707 349.404V351.492C202.595 351.492 202.475 351.492 202.347 351.492C202.235 351.492 202.123 351.5 202.011 351.516C200.651 351.628 199.699 352.1 199.155 352.932C198.627 353.764 198.363 354.916 198.363 356.388V361.5H196.347ZM209.208 361.788C208.52 361.788 207.84 361.668 207.168 361.428C206.496 361.188 205.88 360.82 205.32 360.324C204.776 359.812 204.336 359.164 204 358.38C203.664 357.596 203.496 356.668 203.496 355.596C203.496 354.524 203.664 353.596 204 352.812C204.336 352.028 204.776 351.388 205.32 350.892C205.88 350.38 206.496 350.004 207.168 349.764C207.84 349.524 208.52 349.404 209.208 349.404C209.896 349.404 210.576 349.524 211.248 349.764C211.936 350.004 212.552 350.38 213.096 350.892C213.656 351.388 214.096 352.028 214.416 352.812C214.752 353.596 214.92 354.524 214.92 355.596C214.92 356.668 214.752 357.596 214.416 358.38C214.096 359.164 213.656 359.812 213.096 360.324C212.552 360.82 211.936 361.188 211.248 361.428C210.576 361.668 209.896 361.788 209.208 361.788ZM209.208 360.012C209.784 360.012 210.344 359.86 210.888 359.556C211.432 359.236 211.88 358.756 212.232 358.116C212.584 357.46 212.76 356.62 212.76 355.596C212.76 354.572 212.584 353.74 212.232 353.1C211.88 352.444 211.432 351.964 210.888 351.66C210.344 351.34 209.784 351.18 209.208 351.18C208.648 351.18 208.088 351.34 207.528 351.66C206.984 351.964 206.536 352.444 206.184 353.1C205.832 353.74 205.656 354.572 205.656 355.596C205.656 356.62 205.832 357.46 206.184 358.116C206.536 358.756 206.984 359.236 207.528 359.556C208.088 359.86 208.648 360.012 209.208 360.012ZM220.89 361.5C220.138 361.5 219.554 361.428 219.138 361.284C218.738 361.124 218.458 360.828 218.298 360.396C218.154 359.964 218.082 359.34 218.082 358.524V351.204H216.066V349.596H218.082V346.596H220.098V349.596H222.402V351.204H220.098V358.188C220.098 358.796 220.154 359.204 220.266 359.412C220.394 359.62 220.746 359.724 221.322 359.724H222.402V361.5H220.89ZM229.751 361.788C229.063 361.788 228.383 361.668 227.711 361.428C227.039 361.188 226.423 360.82 225.863 360.324C225.319 359.812 224.879 359.164 224.543 358.38C224.207 357.596 224.039 356.668 224.039 355.596C224.039 354.524 224.207 353.596 224.543 352.812C224.879 352.028 225.319 351.388 225.863 350.892C226.423 350.38 227.039 350.004 227.711 349.764C228.383 349.524 229.063 349.404 229.751 349.404C230.439 349.404 231.119 349.524 231.791 349.764C232.479 350.004 233.095 350.38 233.639 350.892C234.199 351.388 234.639 352.028 234.959 352.812C235.295 353.596 235.463 354.524 235.463 355.596C235.463 356.668 235.295 357.596 234.959 358.38C234.639 359.164 234.199 359.812 233.639 360.324C233.095 360.82 232.479 361.188 231.791 361.428C231.119 361.668 230.439 361.788 229.751 361.788ZM229.751 360.012C230.327 360.012 230.887 359.86 231.431 359.556C231.975 359.236 232.423 358.756 232.775 358.116C233.127 357.46 233.303 356.62 233.303 355.596C233.303 354.572 233.127 353.74 232.775 353.1C232.423 352.444 231.975 351.964 231.431 351.66C230.887 351.34 230.327 351.18 229.751 351.18C229.191 351.18 228.631 351.34 228.071 351.66C227.527 351.964 227.079 352.444 226.727 353.1C226.375 353.74 226.199 354.572 226.199 355.596C226.199 356.62 226.375 357.46 226.727 358.116C227.079 358.756 227.527 359.236 228.071 359.556C228.631 359.86 229.191 360.012 229.751 360.012ZM241.433 361.5C240.681 361.5 240.097 361.428 239.681 361.284C239.281 361.124 239.001 360.828 238.841 360.396C238.697 359.964 238.625 359.34 238.625 358.524V351.204H236.609V349.596H238.625V346.596H240.641V349.596H242.945V351.204H240.641V358.188C240.641 358.796 240.697 359.204 240.809 359.412C240.937 359.62 241.289 359.724 241.865 359.724H242.945V361.5H241.433ZM244.559 365.364V363.588H245.375C245.951 363.588 246.391 363.54 246.695 363.444C246.999 363.364 247.239 363.172 247.415 362.868C247.607 362.58 247.791 362.132 247.967 361.524L243.671 349.62H245.903L248.831 358.788L251.759 349.62H253.967L249.743 362.028C249.455 362.876 249.159 363.54 248.855 364.02C248.567 364.516 248.175 364.86 247.679 365.052C247.183 365.26 246.487 365.364 245.591 365.364H244.559ZM255.4 365.364V349.596H256.864L257.416 351.468C257.784 350.844 258.288 350.348 258.928 349.98C259.568 349.596 260.352 349.404 261.28 349.404C262.192 349.404 263.032 349.652 263.8 350.148C264.584 350.628 265.208 351.332 265.672 352.26C266.152 353.172 266.392 354.284 266.392 355.596C266.392 356.892 266.152 358.004 265.672 358.932C265.208 359.86 264.584 360.572 263.8 361.068C263.032 361.548 262.192 361.788 261.28 361.788C260.352 361.788 259.568 361.604 258.928 361.236C258.288 360.852 257.784 360.34 257.416 359.7V365.364H255.4ZM260.752 360.06C261.776 360.06 262.592 359.668 263.2 358.884C263.824 358.1 264.136 357.004 264.136 355.596C264.136 354.172 263.824 353.076 263.2 352.308C262.592 351.524 261.776 351.132 260.752 351.132C259.728 351.132 258.904 351.524 258.28 352.308C257.672 353.076 257.368 354.172 257.368 355.596C257.368 357.004 257.672 358.1 258.28 358.884C258.904 359.668 259.728 360.06 260.752 360.06ZM270.817 347.34C270.417 347.34 270.065 347.196 269.761 346.908C269.473 346.604 269.329 346.244 269.329 345.828C269.329 345.412 269.473 345.06 269.761 344.772C270.065 344.484 270.417 344.34 270.817 344.34C271.233 344.34 271.585 344.484 271.873 344.772C272.177 345.06 272.329 345.412 272.329 345.828C272.329 346.244 272.177 346.604 271.873 346.908C271.585 347.196 271.233 347.34 270.817 347.34ZM269.809 361.5V351.204H268.153V349.596H271.825V361.5H269.809ZM275.193 361.5V349.596H276.681L277.209 351.396C277.545 350.836 278.017 350.364 278.625 349.98C279.233 349.596 280.041 349.404 281.049 349.404C282.489 349.404 283.505 349.828 284.097 350.676C284.689 351.508 284.985 352.604 284.985 353.964V361.5H282.969V354.564C282.969 353.956 282.913 353.396 282.801 352.884C282.689 352.356 282.441 351.932 282.057 351.612C281.689 351.292 281.121 351.132 280.353 351.132C279.377 351.132 278.609 351.468 278.049 352.14C277.489 352.796 277.209 353.764 277.209 355.044V361.5H275.193ZM292.623 366.108C291.983 366.108 291.343 366.012 290.703 365.82C290.079 365.644 289.519 365.348 289.023 364.932C288.543 364.516 288.199 363.98 287.991 363.324L290.007 362.772C290.231 363.396 290.599 363.812 291.111 364.02C291.623 364.228 292.127 364.332 292.623 364.332C293.855 364.332 294.687 364.036 295.119 363.444C295.567 362.852 295.791 361.98 295.791 360.828V359.244C295.423 359.868 294.935 360.364 294.327 360.732C293.719 361.1 292.943 361.284 291.999 361.284C291.119 361.284 290.295 361.06 289.527 360.612C288.759 360.148 288.135 359.476 287.655 358.596C287.191 357.7 286.959 356.62 286.959 355.356C286.959 354.076 287.191 352.996 287.655 352.116C288.135 351.236 288.759 350.564 289.527 350.1C290.295 349.636 291.119 349.404 291.999 349.404C292.943 349.404 293.719 349.596 294.327 349.98C294.935 350.348 295.423 350.844 295.791 351.468L296.343 349.596H297.807V360.372C297.807 362.26 297.423 363.684 296.655 364.644C295.903 365.62 294.559 366.108 292.623 366.108ZM292.503 359.604C293.111 359.604 293.663 359.46 294.159 359.172C294.671 358.884 295.079 358.428 295.383 357.804C295.703 357.18 295.863 356.364 295.863 355.356C295.863 354.348 295.703 353.532 295.383 352.908C295.079 352.284 294.671 351.836 294.159 351.564C293.663 351.276 293.111 351.132 292.503 351.132C291.527 351.132 290.719 351.5 290.079 352.236C289.455 352.956 289.143 353.996 289.143 355.356C289.143 356.716 289.455 357.764 290.079 358.5C290.719 359.236 291.527 359.604 292.503 359.604Z" fill="black"/>
<rect x="138" y="218.5" width="160" height="60" rx="27" fill="#FD5201"/>
<path d="M171.607 255.5V240.955H177.346C178.449 240.955 179.389 241.165 180.165 241.587C180.942 242.003 181.534 242.583 181.941 243.327C182.353 244.065 182.559 244.918 182.559 245.884C182.559 246.849 182.351 247.702 181.934 248.44C181.517 249.179 180.914 249.754 180.123 250.166C179.337 250.578 178.385 250.784 177.268 250.784H173.61V248.32H176.771C177.362 248.32 177.85 248.218 178.234 248.014C178.622 247.806 178.911 247.519 179.1 247.155C179.294 246.786 179.391 246.362 179.391 245.884C179.391 245.401 179.294 244.979 179.1 244.619C178.911 244.255 178.622 243.973 178.234 243.774C177.845 243.571 177.353 243.469 176.756 243.469H174.682V255.5H171.607ZM184.3 255.5V244.591H187.233V246.494H187.346C187.545 245.817 187.879 245.306 188.348 244.96C188.817 244.61 189.356 244.435 189.967 244.435C190.119 244.435 190.282 244.444 190.457 244.463C190.632 244.482 190.786 244.508 190.919 244.541V247.226C190.777 247.183 190.58 247.145 190.329 247.112C190.078 247.079 189.849 247.062 189.64 247.062C189.195 247.062 188.798 247.16 188.447 247.354C188.102 247.543 187.827 247.808 187.623 248.149C187.425 248.49 187.325 248.883 187.325 249.328V255.5H184.3ZM196.704 255.713C195.601 255.713 194.647 255.479 193.842 255.01C193.042 254.536 192.424 253.878 191.988 253.036C191.553 252.188 191.335 251.205 191.335 250.088C191.335 248.961 191.553 247.976 191.988 247.134C192.424 246.286 193.042 245.628 193.842 245.159C194.647 244.686 195.601 244.449 196.704 244.449C197.808 244.449 198.759 244.686 199.559 245.159C200.364 245.628 200.985 246.286 201.42 247.134C201.856 247.976 202.074 248.961 202.074 250.088C202.074 251.205 201.856 252.188 201.42 253.036C200.985 253.878 200.364 254.536 199.559 255.01C198.759 255.479 197.808 255.713 196.704 255.713ZM196.719 253.369C197.22 253.369 197.639 253.227 197.976 252.943C198.312 252.654 198.565 252.261 198.736 251.764C198.911 251.267 198.998 250.701 198.998 250.067C198.998 249.432 198.911 248.866 198.736 248.369C198.565 247.872 198.312 247.479 197.976 247.19C197.639 246.902 197.22 246.757 196.719 246.757C196.212 246.757 195.786 246.902 195.44 247.19C195.099 247.479 194.841 247.872 194.666 248.369C194.496 248.866 194.41 249.432 194.41 250.067C194.41 250.701 194.496 251.267 194.666 251.764C194.841 252.261 195.099 252.654 195.44 252.943C195.786 253.227 196.212 253.369 196.719 253.369ZM209.644 244.591V246.864H203.074V244.591H209.644ZM204.565 241.977H207.591V252.148C207.591 252.427 207.634 252.645 207.719 252.801C207.804 252.953 207.922 253.059 208.074 253.121C208.23 253.182 208.41 253.213 208.614 253.213C208.756 253.213 208.898 253.201 209.04 253.178C209.182 253.149 209.291 253.128 209.367 253.114L209.842 255.365C209.691 255.412 209.478 255.467 209.203 255.528C208.929 255.595 208.595 255.635 208.202 255.649C207.473 255.678 206.833 255.58 206.284 255.358C205.74 255.135 205.316 254.79 205.013 254.321C204.71 253.852 204.561 253.26 204.565 252.545V241.977ZM216.226 255.713C215.123 255.713 214.169 255.479 213.364 255.01C212.564 254.536 211.946 253.878 211.51 253.036C211.075 252.188 210.857 251.205 210.857 250.088C210.857 248.961 211.075 247.976 211.51 247.134C211.946 246.286 212.564 245.628 213.364 245.159C214.169 244.686 215.123 244.449 216.226 244.449C217.329 244.449 218.281 244.686 219.081 245.159C219.886 245.628 220.507 246.286 220.942 247.134C221.378 247.976 221.596 248.961 221.596 250.088C221.596 251.205 221.378 252.188 220.942 253.036C220.507 253.878 219.886 254.536 219.081 255.01C218.281 255.479 217.329 255.713 216.226 255.713ZM216.24 253.369C216.742 253.369 217.161 253.227 217.498 252.943C217.834 252.654 218.087 252.261 218.257 251.764C218.433 251.267 218.52 250.701 218.52 250.067C218.52 249.432 218.433 248.866 218.257 248.369C218.087 247.872 217.834 247.479 217.498 247.19C217.161 246.902 216.742 246.757 216.24 246.757C215.734 246.757 215.308 246.902 214.962 247.19C214.621 247.479 214.363 247.872 214.188 248.369C214.017 248.866 213.932 249.432 213.932 250.067C213.932 250.701 214.017 251.267 214.188 251.764C214.363 252.261 214.621 252.654 214.962 252.943C215.308 253.227 215.734 253.369 216.24 253.369ZM229.165 244.591V246.864H222.596V244.591H229.165ZM224.087 241.977H227.113V252.148C227.113 252.427 227.155 252.645 227.241 252.801C227.326 252.953 227.444 253.059 227.596 253.121C227.752 253.182 227.932 253.213 228.136 253.213C228.278 253.213 228.42 253.201 228.562 253.178C228.704 253.149 228.813 253.128 228.888 253.114L229.364 255.365C229.213 255.412 229 255.467 228.725 255.528C228.45 255.595 228.117 255.635 227.724 255.649C226.994 255.678 226.355 255.58 225.806 255.358C225.262 255.135 224.838 254.79 224.535 254.321C224.232 253.852 224.083 253.26 224.087 252.545V241.977ZM232.804 259.591C232.421 259.591 232.061 259.56 231.725 259.499C231.393 259.442 231.119 259.368 230.901 259.278L231.583 257.02C231.938 257.129 232.257 257.188 232.541 257.197C232.83 257.207 233.079 257.141 233.287 256.999C233.5 256.857 233.673 256.615 233.806 256.274L233.983 255.812L230.07 244.591H233.252L235.51 252.602H235.624L237.904 244.591H241.107L236.867 256.679C236.663 257.266 236.386 257.777 236.036 258.213C235.69 258.653 235.252 258.992 234.722 259.229C234.191 259.47 233.552 259.591 232.804 259.591ZM242.455 259.591V244.591H245.438V246.423H245.573C245.706 246.13 245.897 245.831 246.148 245.528C246.404 245.221 246.735 244.965 247.143 244.761C247.554 244.553 248.066 244.449 248.677 244.449C249.472 244.449 250.206 244.657 250.878 245.074C251.551 245.486 252.088 246.108 252.491 246.942C252.893 247.77 253.094 248.81 253.094 250.06C253.094 251.277 252.898 252.304 252.505 253.142C252.116 253.975 251.586 254.607 250.914 255.038C250.246 255.464 249.498 255.678 248.67 255.678C248.082 255.678 247.583 255.58 247.171 255.386C246.764 255.192 246.43 254.948 246.17 254.655C245.909 254.357 245.71 254.056 245.573 253.753H245.481V259.591H242.455ZM245.417 250.045C245.417 250.694 245.507 251.26 245.687 251.743C245.866 252.226 246.127 252.602 246.468 252.872C246.809 253.137 247.223 253.27 247.711 253.27C248.203 253.27 248.62 253.135 248.961 252.865C249.302 252.59 249.56 252.212 249.735 251.729C249.915 251.241 250.005 250.68 250.005 250.045C250.005 249.416 249.917 248.862 249.742 248.384C249.567 247.905 249.309 247.531 248.968 247.261C248.627 246.991 248.208 246.857 247.711 246.857C247.218 246.857 246.802 246.987 246.461 247.247C246.125 247.508 245.866 247.877 245.687 248.355C245.507 248.833 245.417 249.397 245.417 250.045ZM259.883 255.713C258.761 255.713 257.795 255.486 256.985 255.031C256.18 254.572 255.56 253.923 255.124 253.085C254.689 252.242 254.471 251.246 254.471 250.095C254.471 248.973 254.689 247.988 255.124 247.141C255.56 246.293 256.173 245.633 256.964 245.159C257.759 244.686 258.692 244.449 259.762 244.449C260.482 244.449 261.152 244.565 261.772 244.797C262.397 245.024 262.942 245.367 263.406 245.827C263.874 246.286 264.239 246.864 264.499 247.56C264.76 248.251 264.89 249.061 264.89 249.989V250.82H255.678V248.945H262.042C262.042 248.509 261.947 248.123 261.758 247.787C261.568 247.451 261.306 247.188 260.97 246.999C260.638 246.804 260.252 246.707 259.812 246.707C259.353 246.707 258.945 246.814 258.59 247.027C258.24 247.235 257.965 247.517 257.766 247.872C257.568 248.223 257.466 248.613 257.461 249.044V250.827C257.461 251.366 257.56 251.833 257.759 252.226C257.963 252.619 258.249 252.922 258.619 253.135C258.988 253.348 259.426 253.455 259.933 253.455C260.269 253.455 260.577 253.407 260.856 253.312C261.135 253.218 261.374 253.076 261.573 252.886C261.772 252.697 261.924 252.465 262.028 252.19L264.826 252.375C264.684 253.047 264.393 253.634 263.952 254.136C263.517 254.634 262.953 255.022 262.262 255.301C261.576 255.576 260.783 255.713 259.883 255.713Z" fill="white"/>
</svg>
