<svg width="225" height="107" viewBox="0 0 225 107" fill="none" xmlns="http://www.w3.org/2000/svg">
<path d="M42.3033 87.001H30.6494C31.6444 92.5361 36.4822 96.738 42.3033 96.738C48.1244 96.738 52.9622 92.5361 53.9572 87.001H42.3033Z" stroke="#A55999" stroke-width="3.91727" stroke-linecap="round" stroke-linejoin="round"/>
<path d="M65.3236 62.6858C65.3236 57.3387 65.1956 54.675 65.1956 51.0385C65.1956 34.7766 51.8169 26.7227 42.3031 26.7227C32.7894 26.7227 19.4106 34.7766 19.4106 51.0385C19.4106 54.6737 19.2826 57.3387 19.2826 62.6858C19.2826 70.2853 10 74.7236 10 83.335C10 87.0904 13.0437 87.0003 16.7991 87.0003H67.8072C71.5625 87.0003 74.6062 87.0891 74.6062 83.335C74.6062 74.7236 65.3236 70.2853 65.3236 62.6858Z" stroke="#A55999" stroke-width="3.91727" stroke-linecap="round" stroke-linejoin="round"/>
<path d="M42.3032 26.7235C45.7719 26.7235 48.5838 23.9115 48.5838 20.4428C48.5838 16.9741 45.7719 14.1621 42.3032 14.1621C38.8344 14.1621 36.0225 16.9741 36.0225 20.4428C36.0225 23.9115 38.8344 26.7235 42.3032 26.7235Z" stroke="#A55999" stroke-width="3.91727" stroke-linecap="round" stroke-linejoin="round"/>
<path d="M163.95 88.8223C164.758 93.3229 168.69 96.7382 173.424 96.7382C178.157 96.7382 182.089 93.3229 182.898 88.8223H163.948H163.95Z" fill="#A55999"/>
<path d="M197.063 48.4626C197.063 34.4141 187.393 26.2999 178.481 24.0235C179.374 22.9127 179.909 21.5019 179.909 19.9652C179.909 16.3835 177.006 13.4805 173.425 13.4805C169.843 13.4805 166.94 16.3835 166.94 19.9652C166.94 21.5019 167.475 22.9127 168.369 24.0235C159.456 26.2999 149.786 34.4141 149.786 48.4626C149.786 52.2172 149.654 54.9677 149.654 60.489C149.654 68.3363 140.069 72.9195 140.069 81.8103C140.069 85.6869 143.213 85.5954 147.089 85.5954H199.756C203.633 85.5954 206.776 85.6869 206.776 81.8103C206.776 72.9183 197.191 68.3363 197.191 60.489C197.191 54.9677 197.059 52.2172 197.059 48.4626H197.063Z" fill="#A55999"/>
<path d="M185.587 21.3642C195.396 26.0161 201.624 35.6389 201.84 46.4794C201.86 47.5191 202.71 48.3478 203.745 48.3478C203.758 48.3478 203.771 48.3478 203.785 48.3478C204.837 48.3262 205.673 47.4568 205.653 46.4032C205.531 40.3137 203.701 34.415 200.359 29.3449C197.102 24.4019 192.559 20.4503 187.222 17.9197C186.27 17.4685 185.134 17.8739 184.682 18.8259C184.231 19.7779 184.637 20.9142 185.589 21.3654L185.587 21.3642Z" fill="#A55999"/>
<path d="M207.607 24.7273C203.491 18.4396 197.739 13.4115 190.971 10.1857C190.02 9.73317 188.882 10.1361 188.43 11.0868C187.977 12.0375 188.38 13.1751 189.331 13.6276C202.128 19.7272 210.214 32.3115 210.434 46.4694C210.45 47.5116 211.3 48.3466 212.339 48.3466C212.349 48.3466 212.359 48.3466 212.369 48.3466C213.422 48.3301 214.262 47.4633 214.245 46.4109C214.125 38.6768 211.829 31.1778 207.607 24.7273Z" fill="#A55999"/>
<path d="M146.491 29.3434C143.15 34.4135 141.32 40.3123 141.198 46.4017C141.176 47.4541 142.012 48.3248 143.066 48.3464C143.079 48.3464 143.091 48.3464 143.105 48.3464C144.14 48.3464 144.99 47.5177 145.011 46.478C145.228 35.6375 151.456 26.0146 161.263 21.3627C162.215 20.9115 162.621 19.7739 162.169 18.8232C161.718 17.8725 160.582 17.467 159.63 17.917C154.293 20.4476 149.749 24.3992 146.493 29.3422L146.491 29.3434Z" fill="#A55999"/>
<path d="M157.521 13.6276C158.472 13.1751 158.875 12.0363 158.422 11.0868C157.97 10.1361 156.831 9.73317 155.882 10.1857C149.113 13.4115 143.361 18.4396 139.245 24.7273C135.023 31.1778 132.727 38.6755 132.607 46.4109C132.59 47.4633 133.43 48.3301 134.483 48.3466C134.493 48.3466 134.503 48.3466 134.513 48.3466C135.552 48.3466 136.403 47.5129 136.418 46.4694C136.64 32.3115 144.726 19.7272 157.521 13.6276Z" fill="#A55999"/>
</svg>
