<svg width="218" height="212" viewBox="0 0 218 212" fill="none" xmlns="http://www.w3.org/2000/svg">
<path d="M42.8033 199.485H31.1494C32.1444 205.02 36.9822 209.222 42.8033 209.222C48.6244 209.222 53.4622 205.02 54.4572 199.485H42.8033Z" stroke="#A55999" stroke-width="3.91727" stroke-linecap="round" stroke-linejoin="round"/>
<path d="M65.8236 175.17C65.8236 169.823 65.6956 167.159 65.6956 163.523C65.6956 147.261 52.3169 139.207 42.8031 139.207C33.2894 139.207 19.9106 147.261 19.9106 163.523C19.9106 167.158 19.7826 169.823 19.7826 175.17C19.7826 182.77 10.5 187.208 10.5 195.819C10.5 199.575 13.5437 199.485 17.2991 199.485H68.3072C72.0625 199.485 75.1062 199.573 75.1062 195.819C75.1062 187.208 65.8236 182.77 65.8236 175.17Z" stroke="#A55999" stroke-width="3.91727" stroke-linecap="round" stroke-linejoin="round"/>
<path d="M42.8032 139.208C46.2719 139.208 49.0838 136.396 49.0838 132.927C49.0838 129.458 46.2719 126.646 42.8032 126.646C39.3344 126.646 36.5225 129.458 36.5225 132.927C36.5225 136.396 39.3344 139.208 42.8032 139.208Z" stroke="#A55999" stroke-width="3.91727" stroke-linecap="round" stroke-linejoin="round"/>
<path d="M164.843 201.461C165.651 205.962 169.584 209.377 174.317 209.377C179.05 209.377 182.983 205.962 183.791 201.461H164.842H164.843Z" fill="#A55999"/>
<path d="M197.957 161.101C197.957 147.053 188.287 138.939 179.374 136.662C180.268 135.551 180.803 134.141 180.803 132.604C180.803 129.022 177.9 126.119 174.318 126.119C170.736 126.119 167.833 129.022 167.833 132.604C167.833 134.141 168.369 135.551 169.262 136.662C160.35 138.939 150.68 147.053 150.68 161.101C150.68 164.856 150.548 167.606 150.548 173.128C150.548 180.975 140.963 185.558 140.963 194.449C140.963 198.326 144.106 198.234 147.983 198.234H200.65C204.526 198.234 207.67 198.326 207.67 194.449C207.67 185.557 198.085 180.975 198.085 173.128C198.085 167.606 197.953 164.856 197.953 161.101H197.957Z" fill="#A55999"/>
<path d="M186.481 134.003C196.289 138.655 202.517 148.278 202.733 159.118C202.754 160.158 203.604 160.987 204.639 160.987C204.651 160.987 204.664 160.987 204.678 160.987C205.73 160.965 206.567 160.096 206.546 159.042C206.424 152.952 204.594 147.054 201.253 141.984C197.995 137.041 193.452 133.089 188.115 130.558C187.163 130.107 186.027 130.513 185.576 131.465C185.125 132.417 185.53 133.553 186.482 134.004L186.481 134.003Z" fill="#A55999"/>
<path d="M208.5 137.366C204.385 131.078 198.632 126.05 191.864 122.824C190.913 122.372 189.776 122.775 189.323 123.725C188.871 124.676 189.274 125.814 190.225 126.266C203.021 132.366 211.107 144.95 211.327 159.108C211.344 160.15 212.194 160.985 213.232 160.985C213.243 160.985 213.253 160.985 213.263 160.985C214.315 160.969 215.155 160.102 215.139 159.05C215.018 151.315 212.723 143.816 208.5 137.366Z" fill="#A55999"/>
<path d="M147.385 141.982C144.044 147.052 142.213 152.951 142.091 159.04C142.07 160.093 142.906 160.963 143.96 160.985C143.972 160.985 143.985 160.985 143.999 160.985C145.034 160.985 145.884 160.156 145.904 159.117C146.122 148.276 152.35 138.653 162.157 134.001C163.109 133.55 163.514 132.413 163.063 131.462C162.612 130.511 161.475 130.106 160.524 130.556C155.187 133.086 150.643 137.038 147.386 141.981L147.385 141.982Z" fill="#A55999"/>
<path d="M158.415 126.266C159.365 125.814 159.768 124.675 159.316 123.725C158.863 122.775 157.725 122.372 156.775 122.824C150.007 126.05 144.254 131.078 140.139 137.366C135.916 143.816 133.621 151.314 133.5 159.05C133.484 160.102 134.324 160.969 135.376 160.985C135.386 160.985 135.397 160.985 135.407 160.985C136.445 160.985 137.297 160.152 137.312 159.108C137.533 144.95 145.619 132.366 158.415 126.266Z" fill="#A55999"/>
<path d="M40.9248 1.46973C42.204 0.394422 43.8346 0.0777664 45.5059 0.334961C48.834 0.847233 52.3888 3.63992 53.9385 7.45117C55.6638 11.6947 55.5535 15.7793 54.7783 19.8018C54.3911 21.8112 53.8376 23.8095 53.2627 25.8037C52.7204 27.6848 52.1597 29.5606 51.6973 31.4531C55.9167 30.86 60.5487 30.0231 65.1426 29.7207C69.873 29.4094 74.6 29.6636 78.8613 31.3477C81.5318 32.4027 83.3298 33.8419 84.1826 35.7422C85.0356 37.6432 84.9179 39.9499 83.8809 42.6836C83.7695 42.9779 83.6139 43.2329 83.4551 43.4658C83.2867 43.7128 83.1401 43.9012 82.9922 44.1299C82.7178 44.5542 82.5308 44.9885 82.6201 45.6123C82.6286 45.6709 82.6589 45.7555 82.7197 45.8701C82.7795 45.9826 82.8625 46.1117 82.9648 46.2559C83.1714 46.5468 83.437 46.8741 83.7217 47.2422C84.2755 47.9582 84.8987 48.8227 85.0713 49.6738L85.1475 50.1104C85.3049 51.1553 85.3189 52.3825 85.1709 53.5801C85.0019 54.9464 84.6191 56.2984 83.9805 57.3037C83.8168 57.5612 83.5662 57.8392 83.292 58.1143C83.016 58.391 82.7025 58.679 82.4082 58.9531C82.1108 59.2301 81.8333 59.4935 81.6182 59.7295C81.3943 59.9751 81.2711 60.1566 81.2383 60.2715C81.1202 60.6842 81.1281 61.1331 81.1963 61.6494C81.2303 61.9071 81.2784 62.1761 81.3311 62.4629C81.3834 62.748 81.4402 63.0504 81.4893 63.3662C81.6745 64.559 81.7531 65.9621 81.125 67.6445L80.9893 67.9854C80.3945 69.3908 79.2899 70.3665 78.3057 71.0967C78.0589 71.2798 77.8177 71.4484 77.5938 71.6045C77.3688 71.7614 77.1631 71.9045 76.9805 72.0391C76.7976 72.1738 76.6442 72.2953 76.5254 72.4082C76.4049 72.5227 76.3321 72.6175 76.2949 72.6943H76.2939C76.005 73.2884 76.0466 73.9117 76.1729 74.5908C76.2043 74.7598 76.2396 74.9296 76.2764 75.1025C76.3128 75.2744 76.3506 75.4498 76.3828 75.625C76.4472 75.9751 76.4942 76.337 76.4785 76.6992C76.38 78.999 75.0615 80.6765 73.3105 81.8076C71.673 82.8654 69.641 83.458 67.8115 83.6553L67.4482 83.6895C58.5394 84.3926 43.8859 84.3063 34.9238 83.6904V83.6895C32.4055 83.5191 30.053 83.161 28.2441 82.1064C26.4141 81.0395 25.1665 79.2762 24.8291 76.3701C24.4762 73.3138 24.2937 66.6268 24.3516 60.0107C24.4094 53.4018 24.7072 46.8162 25.3252 43.9746C26.2439 39.7618 28.476 36.0169 30.7861 32.3496C33.1042 28.6697 35.4974 25.0718 36.8027 21.1094C37.6699 18.4757 37.9675 16.2593 38.1113 14.0459C38.2542 11.8465 38.2458 9.59361 38.499 6.97852L38.5547 6.49414C38.8693 4.12107 39.7272 2.47655 40.9248 1.46973ZM44.0869 3.52246L44.0879 3.52344C43.5358 3.60296 43.0553 4.01468 42.6787 4.59082C42.3049 5.16272 42.0613 5.85549 41.9688 6.40723C41.574 8.77607 41.5517 11.0684 41.4453 13.4326C41.3392 15.7904 41.1496 18.2057 40.4141 20.7783C39.0778 25.4552 36.1559 29.7913 33.5166 34.1084C30.8658 38.4444 28.4949 42.7666 28.1631 47.4756C27.6354 55.0157 27.4773 68.5992 28.1631 76.0137C28.3237 77.7388 28.9675 78.7101 29.9307 79.3008C30.9185 79.9065 32.2737 80.1337 33.9072 80.2822C39.226 80.769 44.8916 80.5889 50.5938 80.3789C56.2813 80.1695 62.0066 79.9303 67.4287 80.3018C68.4394 80.1936 69.7037 79.9471 70.7793 79.459C71.8657 78.9659 72.7135 78.2497 72.9688 77.2285L73.0186 76.9834C73.1114 76.4146 73.0387 75.8659 72.9385 75.2773C72.8257 74.615 72.6757 73.8932 72.752 73.1035L72.7969 72.7617C73.0688 71.1055 74.062 70.2472 75.1074 69.5C76.2307 68.6972 77.3695 68.038 77.9756 66.6719C78.5854 65.2971 78.463 64.2365 78.2334 63.1973C78.0049 62.1629 77.6468 61.0883 77.8867 59.8086C78.132 58.5015 79.1159 57.6108 80.0127 56.6885C80.9267 55.7484 81.8059 54.7339 82.0537 53.1367C82.2186 52.0682 82.1317 51.2828 81.9189 50.6523C81.7053 50.0194 81.3592 49.5241 80.9736 49.0391C80.2063 48.0739 79.2631 47.1402 79.2285 45.3135C79.1979 43.7203 80.066 42.5844 80.7109 41.4521C81.0393 40.8757 81.3207 40.29 81.4502 39.6172C81.579 38.9479 81.5599 38.1783 81.2656 37.2344V37.2334C80.9229 36.1314 79.9141 35.2847 78.4541 34.6465C76.9996 34.0107 75.1443 33.6035 73.1953 33.3516C69.2995 32.8479 65.0894 32.9731 63.1094 33.0957C61.2519 33.2102 59.2464 33.6171 57.2549 34.0205C55.2725 34.422 53.3006 34.8209 51.541 34.9053C50.9041 34.9362 50.2067 34.8039 49.6152 34.499C49.0222 34.1933 48.5196 33.7046 48.3145 33.0195V33.0186C48.2151 32.6892 48.2036 32.261 48.2441 31.7783C48.2852 31.2899 48.3823 30.7224 48.5176 30.1035C48.7882 28.8657 49.2161 27.3989 49.6738 25.9053C50.133 24.4072 50.6216 22.8843 51.0176 21.5186C51.4145 20.1497 51.7114 18.9625 51.7939 18.1377C52.0273 15.8046 51.9899 12.7949 51.2764 10.1201C50.562 7.44225 49.184 5.14623 46.7725 4.15039H46.7715C46.4825 4.03004 45.9362 3.8522 45.3877 3.71484C45.1145 3.64645 44.8454 3.58997 44.6113 3.55469C44.3767 3.51932 44.1971 3.50904 44.0869 3.52246Z" fill="#A55999" stroke="#A55999" stroke-width="0.5"/>
<path d="M10.7979 39.2764C12.1898 39.2764 13.5825 39.2982 14.7344 39.3418C15.8776 39.385 16.8055 39.4503 17.2529 39.542H17.2539C19.4001 39.9838 20.65 42.0879 21.1572 43.9551L21.167 43.9932L21.165 44.0322C20.9088 49.4534 21.2179 55.3108 21.4561 61.1641C21.6939 67.0105 21.8612 72.8511 21.3164 78.2119C21.2005 79.3409 20.8031 80.554 20.1299 81.5498C19.4979 82.4845 18.6135 83.2401 17.4824 83.5381L17.2529 83.5918C16.7684 83.6906 15.8358 83.7586 14.7002 83.8027C13.5571 83.8471 12.188 83.8675 10.8184 83.8652C8.09065 83.8607 5.32424 83.7674 4.34277 83.5928C2.30016 83.2291 0.956136 81.321 0.358398 79.6387L0.34375 79.5977V79.5557L0.25 44.2168V44.2061L0.250977 44.1943C0.33657 43.192 0.884482 42.1311 1.62988 41.2783C2.37516 40.4258 3.34966 39.7448 4.32812 39.542L4.35352 39.5371H4.36426C4.82298 39.4483 5.73722 39.3842 6.8584 39.3418C8.01134 39.2982 9.40565 39.2764 10.7979 39.2764ZM10.3506 42.6963C9.07453 42.6972 7.80897 42.7142 6.79688 42.75C6.29081 42.7679 5.85011 42.7911 5.50391 42.8184C5.23765 42.8393 5.03928 42.8618 4.91211 42.8848L4.81055 42.9141C4.53369 42.9949 4.22796 43.2366 3.99121 43.5625C3.78434 43.8474 3.65444 44.164 3.63281 44.4385L3.62988 44.5537L3.63086 44.5625H3.62988L3.72363 79.1318C4.00948 79.7104 4.48092 80.1703 5.0752 80.2783H5.07715C5.1949 80.3008 5.45227 80.3234 5.83203 80.3428C6.20552 80.3618 6.68203 80.3776 7.22754 80.3896C8.31826 80.4138 9.67975 80.4235 11.0342 80.4189C12.3888 80.4144 13.7354 80.3959 14.7949 80.3623C15.3248 80.3455 15.7815 80.3247 16.1309 80.3008C16.4927 80.276 16.7103 80.2488 16.7852 80.2266C17.1194 80.1272 17.4072 79.8277 17.6182 79.4209C17.8259 79.0201 17.9367 78.5562 17.9443 78.1953L17.7783 44.0684C17.6387 43.7016 17.4334 43.4404 17.1738 43.2529C16.9024 43.057 16.5587 42.9315 16.1426 42.8633V42.8623C15.8193 42.8112 15.0186 42.7695 13.9619 42.7402C12.9116 42.7111 11.6265 42.6954 10.3506 42.6963Z" fill="#A55999" stroke="#A55999" stroke-width="0.5"/>
<path d="M183.319 31.5996C191.981 30.6949 201.636 28.285 210.096 31.3318C214.901 33.0615 217.745 36.4412 215.951 41.7098C215.589 42.7736 214.301 44.25 214.301 45.1546C214.301 46.5658 216.45 47.9626 216.776 49.5765C217.485 53.0502 216.682 55.8944 214.568 58.5794C214.337 58.8688 213.743 58.9991 213.439 59.4261C212.368 60.9748 213.693 64.5934 213.077 67.025C212.303 70.0863 208.648 71.4469 208.026 72.8002C207.404 74.1535 208.236 75.268 208.178 76.5418C207.939 82.136 201.636 83.3736 197.214 83.6558C188.631 84.2058 178.014 83.8078 169.424 83.2795C163.938 82.9466 158.177 83.6558 157.026 76.549C157.613 66.9454 156.086 56.1043 157.026 46.6382C157.967 37.1721 166.167 29.7469 169.047 21.1058C170.697 16.1484 170.249 12.1753 170.69 7.2179C171.616 -3.21071 182.269 -0.134957 185.475 7.21067C189.108 15.5261 185.352 23.523 183.311 31.6068L183.319 31.5996Z" fill="#A55999"/>
<path d="M137.421 39.6472C140.005 39.2781 148.414 39.1985 150.477 40.4722C152.257 41.5722 152.858 43.519 153.032 45.5019C153.922 55.8799 152.344 67.5171 153.017 78.0326C152.923 80.0083 151.7 82.3531 149.782 83.1057C147.712 83.9163 139.802 83.8873 137.428 83.5472C135.055 83.2071 133.325 82.0708 132.623 79.6898L132.5 44.1052C132.869 41.3696 134.823 40.0235 137.428 39.6472H137.421Z" fill="#A55999"/>
</svg>
