<svg width="237" height="104" viewBox="0 0 237 104" fill="none" xmlns="http://www.w3.org/2000/svg">
<path d="M50.4248 10.9697C51.704 9.89442 53.3346 9.57777 55.0059 9.83496C58.334 10.3472 61.8888 13.1399 63.4385 16.9512C65.1638 21.1947 65.0535 25.2793 64.2783 29.3018C63.8911 31.3112 63.3376 33.3095 62.7627 35.3037C62.2204 37.1848 61.6597 39.0606 61.1973 40.9531C65.4167 40.36 70.0487 39.5231 74.6426 39.2207C79.373 38.9094 84.1 39.1636 88.3613 40.8477C91.0318 41.9027 92.8298 43.3419 93.6826 45.2422C94.5356 47.1432 94.4179 49.4499 93.3809 52.1836C93.2695 52.4779 93.1139 52.7329 92.9551 52.9658C92.7867 53.2128 92.6401 53.4012 92.4922 53.6299C92.2178 54.0542 92.0308 54.4885 92.1201 55.1123C92.1286 55.1709 92.1589 55.2555 92.2197 55.3701C92.2795 55.4826 92.3625 55.6117 92.4648 55.7559C92.6714 56.0468 92.937 56.3741 93.2217 56.7422C93.7755 57.4582 94.3987 58.3227 94.5713 59.1738L94.6475 59.6104C94.8049 60.6553 94.8189 61.8825 94.6709 63.0801C94.5019 64.4464 94.1191 65.7984 93.4805 66.8037C93.3168 67.0612 93.0662 67.3392 92.792 67.6143C92.516 67.891 92.2025 68.179 91.9082 68.4531C91.6108 68.7301 91.3333 68.9935 91.1182 69.2295C90.8943 69.4751 90.7711 69.6566 90.7383 69.7715C90.6202 70.1842 90.6281 70.6331 90.6963 71.1494C90.7303 71.4071 90.7784 71.6761 90.8311 71.9629C90.8834 72.248 90.9402 72.5504 90.9893 72.8662C91.1745 74.059 91.2531 75.4621 90.625 77.1445L90.4893 77.4854C89.8945 78.8908 88.7899 79.8665 87.8057 80.5967C87.5589 80.7798 87.3177 80.9484 87.0938 81.1045C86.8688 81.2614 86.6631 81.4045 86.4805 81.5391C86.2976 81.6738 86.1442 81.7953 86.0254 81.9082C85.9049 82.0227 85.8321 82.1175 85.7949 82.1943H85.7939C85.505 82.7884 85.5466 83.4117 85.6729 84.0908C85.7043 84.2598 85.7396 84.4296 85.7764 84.6025C85.8128 84.7744 85.8506 84.9498 85.8828 85.125C85.9472 85.4751 85.9942 85.837 85.9785 86.1992C85.88 88.499 84.5615 90.1765 82.8105 91.3076C81.173 92.3654 79.141 92.958 77.3115 93.1553L76.9482 93.1895C68.0394 93.8926 53.3859 93.8063 44.4238 93.1904V93.1895C41.9055 93.0191 39.553 92.661 37.7441 91.6064C35.9141 90.5395 34.6665 88.7762 34.3291 85.8701C33.9762 82.8138 33.7937 76.1268 33.8516 69.5107C33.9094 62.9018 34.2072 56.3162 34.8252 53.4746C35.7439 49.2618 37.976 45.5169 40.2861 41.8496C42.6042 38.1697 44.9974 34.5718 46.3027 30.6094C47.1699 27.9757 47.4675 25.7593 47.6113 23.5459C47.7542 21.3465 47.7458 19.0936 47.999 16.4785L48.0547 15.9941C48.3693 13.6211 49.2272 11.9766 50.4248 10.9697ZM53.5869 13.0225L53.5879 13.0234C53.0358 13.103 52.5553 13.5147 52.1787 14.0908C51.8049 14.6627 51.5613 15.3555 51.4688 15.9072C51.074 18.2761 51.0517 20.5684 50.9453 22.9326C50.8392 25.2904 50.6496 27.7057 49.9141 30.2783C48.5778 34.9552 45.6559 39.2913 43.0166 43.6084C40.3658 47.9444 37.9949 52.2666 37.6631 56.9756C37.1354 64.5157 36.9773 78.0992 37.6631 85.5137C37.8237 87.2388 38.4675 88.2101 39.4307 88.8008C40.4185 89.4065 41.7737 89.6337 43.4072 89.7822C48.726 90.269 54.3916 90.0889 60.0938 89.8789C65.7813 89.6695 71.5066 89.4303 76.9287 89.8018C77.9394 89.6936 79.2037 89.4471 80.2793 88.959C81.3657 88.4659 82.2135 87.7497 82.4688 86.7285L82.5186 86.4834C82.6114 85.9146 82.5387 85.3659 82.4385 84.7773C82.3257 84.115 82.1757 83.3932 82.252 82.6035L82.2969 82.2617C82.5688 80.6055 83.562 79.7472 84.6074 79C85.7307 78.1972 86.8695 77.538 87.4756 76.1719C88.0854 74.7971 87.963 73.7365 87.7334 72.6973C87.5049 71.6629 87.1468 70.5883 87.3867 69.3086C87.632 68.0015 88.6159 67.1108 89.5127 66.1885C90.4267 65.2484 91.3059 64.2339 91.5537 62.6367C91.7186 61.5682 91.6317 60.7828 91.4189 60.1523C91.2053 59.5194 90.8592 59.0241 90.4736 58.5391C89.7063 57.5739 88.7631 56.6402 88.7285 54.8135C88.6979 53.2203 89.566 52.0844 90.2109 50.9521C90.5393 50.3757 90.8207 49.79 90.9502 49.1172C91.079 48.4479 91.0599 47.6783 90.7656 46.7344V46.7334C90.4229 45.6314 89.4141 44.7847 87.9541 44.1465C86.4996 43.5107 84.6443 43.1035 82.6953 42.8516C78.7995 42.3479 74.5894 42.4731 72.6094 42.5957C70.7519 42.7102 68.7464 43.1171 66.7549 43.5205C64.7725 43.922 62.8006 44.3209 61.041 44.4053C60.4041 44.4362 59.7067 44.3039 59.1152 43.999C58.5222 43.6933 58.0196 43.2046 57.8145 42.5195V42.5186C57.7151 42.1892 57.7036 41.761 57.7441 41.2783C57.7852 40.7899 57.8823 40.2224 58.0176 39.6035C58.2882 38.3657 58.7161 36.8989 59.1738 35.4053C59.633 33.9072 60.1216 32.3843 60.5176 31.0186C60.9145 29.6497 61.2114 28.4625 61.2939 27.6377C61.5273 25.3046 61.4899 22.2949 60.7764 19.6201C60.062 16.9423 58.684 14.6462 56.2725 13.6504H56.2715C55.9825 13.53 55.4362 13.3522 54.8877 13.2148C54.6145 13.1465 54.3454 13.09 54.1113 13.0547C53.8767 13.0193 53.6971 13.009 53.5869 13.0225Z" fill="#A55999" stroke="#A55999" stroke-width="0.5"/>
<path d="M20.2979 48.7764C21.6898 48.7764 23.0825 48.7982 24.2344 48.8418C25.3776 48.885 26.3055 48.9503 26.7529 49.042H26.7539C28.9001 49.4838 30.15 51.5879 30.6572 53.4551L30.667 53.4932L30.665 53.5322C30.4088 58.9534 30.7179 64.8108 30.9561 70.6641C31.1939 76.5105 31.3612 82.3511 30.8164 87.7119C30.7005 88.8409 30.3031 90.054 29.6299 91.0498C28.9979 91.9845 28.1135 92.7401 26.9824 93.0381L26.7529 93.0918C26.2684 93.1906 25.3358 93.2586 24.2002 93.3027C23.0571 93.3471 21.688 93.3675 20.3184 93.3652C17.5906 93.3607 14.8242 93.2674 13.8428 93.0928C11.8002 92.7291 10.4561 90.821 9.8584 89.1387L9.84375 89.0977V89.0557L9.75 53.7168V53.7061L9.75098 53.6943C9.83657 52.692 10.3845 51.6311 11.1299 50.7783C11.8752 49.9258 12.8497 49.2448 13.8281 49.042L13.8535 49.0371H13.8643C14.323 48.9483 15.2372 48.8842 16.3584 48.8418C17.5113 48.7982 18.9056 48.7764 20.2979 48.7764ZM19.8506 52.1963C18.5745 52.1972 17.309 52.2142 16.2969 52.25C15.7908 52.2679 15.3501 52.2911 15.0039 52.3184C14.7377 52.3393 14.5393 52.3618 14.4121 52.3848L14.3105 52.4141C14.0337 52.4949 13.728 52.7366 13.4912 53.0625C13.2843 53.3474 13.1544 53.664 13.1328 53.9385L13.1299 54.0537L13.1309 54.0625H13.1299L13.2236 88.6318C13.5095 89.2104 13.9809 89.6703 14.5752 89.7783H14.5771C14.6949 89.8008 14.9523 89.8234 15.332 89.8428C15.7055 89.8618 16.182 89.8776 16.7275 89.8896C17.8183 89.9138 19.1797 89.9235 20.5342 89.9189C21.8888 89.9144 23.2354 89.8959 24.2949 89.8623C24.8248 89.8455 25.2815 89.8247 25.6309 89.8008C25.9927 89.776 26.2103 89.7488 26.2852 89.7266C26.6194 89.6272 26.9072 89.3277 27.1182 88.9209C27.3259 88.5201 27.4367 88.0562 27.4443 87.6953L27.2783 53.5684C27.1387 53.2016 26.9334 52.9404 26.6738 52.7529C26.4024 52.557 26.0587 52.4315 25.6426 52.3633V52.3623C25.3193 52.3112 24.5186 52.2695 23.4619 52.2402C22.4116 52.2111 21.1265 52.1954 19.8506 52.1963Z" fill="#A55999" stroke="#A55999" stroke-width="0.5"/>
<path d="M192.343 41.1074C201.006 40.2028 210.66 37.7928 219.12 40.8396C223.926 42.5693 226.77 45.949 224.975 51.2176C224.613 52.2814 223.325 53.7578 223.325 54.6624C223.325 56.0736 225.474 57.4704 225.8 59.0843C226.509 62.5581 225.706 65.4022 223.593 68.0872C223.361 68.3767 222.768 68.5069 222.464 68.9339C221.393 70.4826 222.717 74.1012 222.102 76.5328C221.328 79.5941 217.673 80.9547 217.05 82.308C216.428 83.6613 217.26 84.7759 217.202 86.0496C216.964 91.6438 210.66 92.8814 206.238 93.1636C197.655 93.7136 187.038 93.3156 178.448 92.7873C172.962 92.4544 167.202 93.1636 166.051 86.0568C166.637 76.4532 165.11 65.6121 166.051 56.146C166.992 46.6799 175.191 39.2547 178.072 30.6136C179.722 25.6563 179.273 21.6831 179.714 16.7257C180.641 6.2971 191.294 9.37286 194.5 16.7185C198.133 25.0339 194.377 33.0308 192.336 41.1146L192.343 41.1074Z" fill="#A55999"/>
<path d="M146.446 49.155C149.029 48.7859 157.439 48.7063 159.501 49.98C161.282 51.08 161.882 53.0268 162.056 55.0098C162.946 65.3877 161.368 77.0249 162.041 87.5404C161.947 89.5161 160.724 91.8609 158.807 92.6136C156.737 93.4241 148.827 93.3952 146.453 93.055C144.079 92.7149 142.349 91.5787 141.647 89.1977L141.524 53.613C141.894 50.8774 143.848 49.5313 146.453 49.155H146.446Z" fill="#A55999"/>
</svg>
