<svg width="455" height="53" viewBox="0 0 455 53" fill="none" xmlns="http://www.w3.org/2000/svg">
<path d="M449.233 3.31484C449.007 4.05151 448.95 4.84484 449.063 5.69484C449.177 6.54485 449.233 7.36651 449.233 8.15985C449.007 8.15985 448.582 8.24484 447.958 8.41484C447.392 8.52818 446.853 8.61318 446.343 8.66984C446.117 8.66984 445.862 8.66984 445.578 8.66984C445.295 8.61318 445.068 8.61318 444.898 8.66984L443.283 9.00984H438.523C437.333 9.06651 436.257 9.09484 435.293 9.09484C434.387 9.03818 433.338 9.00984 432.148 9.00984C431.922 9.00984 431.582 9.03818 431.128 9.09484C430.732 9.15151 430.448 9.15151 430.278 9.09484C430.278 9.37818 430.25 9.60484 430.193 9.77484C430.137 9.94484 430.108 10.1715 430.108 10.4548C430.165 10.6248 430.193 11.0498 430.193 11.7298C430.25 12.4098 430.278 13.1748 430.278 14.0248C430.335 14.8182 430.363 15.5548 430.363 16.2348C430.42 16.9148 430.448 17.3398 430.448 17.5098V21.3348C430.448 21.7882 430.448 22.1565 430.448 22.4398C430.505 22.7232 430.59 23.1198 430.703 23.6298H435.633C436.54 23.6298 437.39 23.6582 438.183 23.7148C438.977 23.7715 439.855 23.7998 440.818 23.7998C441.328 23.7998 441.923 23.8282 442.603 23.8848C443.34 23.9415 443.907 23.9132 444.303 23.7998C444.36 24.3098 444.417 24.8482 444.473 25.4148C444.53 25.9815 444.558 26.4915 444.558 26.9448V28.3048C444.332 28.3048 443.907 28.3332 443.283 28.3898C442.66 28.4465 442.093 28.5032 441.583 28.5598H438.013C436.88 28.7298 435.832 28.8148 434.868 28.8148C433.905 28.8148 432.828 28.8148 431.638 28.8148C431.412 28.8148 431.128 28.8432 430.788 28.8998C430.448 28.9565 430.193 28.9565 430.023 28.8998V32.0448C430.023 32.8382 430.023 33.6598 430.023 34.5098C430.08 35.3598 430.193 36.0965 430.363 36.7198C430.363 37.7398 430.363 38.7032 430.363 39.6098C430.42 40.4598 430.448 41.2532 430.448 41.9898V43.4348C430.562 43.3782 430.902 43.4065 431.468 43.5198C432.092 43.6332 432.828 43.7465 433.678 43.8598C434.528 43.9732 435.237 44.0582 435.803 44.1148C436.427 44.1715 436.993 44.2848 437.503 44.4548C437.787 44.5682 438.382 44.6532 439.288 44.7098C440.252 44.7098 440.875 44.7098 441.158 44.7098C442.575 44.8798 443.963 44.9932 445.323 45.0498C446.683 45.1065 448.072 45.1915 449.488 45.3048H452.548C452.775 45.3048 453.03 45.2765 453.313 45.2198C453.597 45.1065 453.795 45.0498 453.908 45.0498C454.192 46.0698 454.333 47.0615 454.333 48.0248C454.39 48.9882 454.418 49.9515 454.418 50.9148C453.965 51.1982 453.398 51.3398 452.718 51.3398C452.038 51.3398 451.387 51.3682 450.763 51.4248C450.367 51.4248 449.942 51.3965 449.488 51.3398C449.035 51.2832 448.582 51.2548 448.128 51.2548C446.995 51.3115 445.635 51.3115 444.048 51.2548C442.518 51.1982 441.187 51.2265 440.053 51.3398H438.778C438.155 51.2265 437.277 51.1415 436.143 51.0848C435.067 51.0282 434.245 50.9998 433.678 50.9998C433.055 50.9432 432.063 50.9432 430.703 50.9998C429.343 51.1132 427.077 51.1982 423.903 51.2548C423.79 51.2548 423.393 51.2548 422.713 51.2548C422.09 51.2548 421.382 51.2548 420.588 51.2548C419.852 51.3115 419.143 51.3398 418.463 51.3398C417.84 51.3965 417.472 51.4248 417.358 51.4248C417.358 50.2348 417.273 49.0732 417.103 47.9398C416.99 46.8065 416.933 45.7582 416.933 44.7948C416.933 44.2282 416.905 43.5765 416.848 42.8398C416.792 42.1032 416.82 41.4798 416.933 40.9698C417.047 39.1565 417.075 37.3715 417.018 35.6148C417.018 33.8582 417.018 32.0732 417.018 30.2598C417.018 29.8632 416.99 29.1548 416.933 28.1348C416.877 27.1148 416.877 26.1515 416.933 25.2448L416.763 22.6098C416.707 22.2132 416.735 21.5048 416.848 20.4848C417.018 19.4082 417.075 18.4732 417.018 17.6798C416.962 16.3765 416.905 15.2432 416.848 14.2798C416.792 13.2598 416.735 12.0698 416.678 10.7098C416.622 9.51984 416.622 8.35818 416.678 7.22484C416.792 6.03485 416.848 4.90151 416.848 3.82484C416.848 3.54151 416.848 3.31484 416.848 3.14484C416.905 2.91818 417.075 2.69151 417.358 2.46484L421.693 2.63484C422.543 2.69151 423.507 2.69151 424.583 2.63484C425.717 2.57818 426.708 2.57818 427.558 2.63484C427.785 2.63484 427.983 2.63484 428.153 2.63484C428.38 2.57818 428.607 2.54984 428.833 2.54984C429.003 2.54984 429.372 2.54984 429.938 2.54984C430.505 2.54984 431.1 2.54984 431.723 2.54984C432.347 2.54984 432.913 2.54984 433.423 2.54984C433.933 2.54984 434.245 2.57818 434.358 2.63484C434.472 2.69151 434.812 2.74818 435.378 2.80484C435.945 2.86151 436.37 2.88984 436.653 2.88984C436.823 2.88984 437.078 2.88984 437.418 2.88984C437.758 2.83318 438.098 2.80484 438.438 2.80484C438.835 2.80484 439.203 2.80484 439.543 2.80484C439.883 2.80484 440.138 2.80484 440.308 2.80484C440.932 2.91818 441.498 2.97484 442.008 2.97484C442.575 2.91818 443.17 2.91818 443.793 2.97484C443.85 2.97484 444.133 3.00318 444.643 3.05985C445.21 3.05985 445.833 3.08818 446.513 3.14484C447.193 3.20151 447.788 3.25818 448.298 3.31484C448.865 3.31484 449.177 3.31484 449.233 3.31484Z" fill="#FAF8EC"/>
<path d="M397.244 51.85C397.131 51.85 396.933 51.8783 396.649 51.935C396.366 51.9917 396.083 52.02 395.799 52.02C395.516 52.0767 395.261 52.105 395.034 52.105C394.864 52.1617 394.808 52.19 394.864 52.19H390.699C389.793 52.0767 389.028 51.9917 388.404 51.935C387.838 51.935 387.328 51.9633 386.874 52.02C386.761 52.02 386.648 51.9633 386.534 51.85C386.421 51.7933 386.336 51.7367 386.279 51.68C386.223 51.17 386.194 50.405 386.194 49.385C386.251 48.365 386.279 47.5717 386.279 47.005V45.815C386.393 44.8517 386.421 44.0017 386.364 43.265C386.308 42.4717 386.279 41.5933 386.279 40.63V38.76C386.563 37.5133 386.619 36.21 386.449 34.85C386.336 33.49 386.279 32.2433 386.279 31.11V9.435C386.279 8.86834 386.138 8.585 385.854 8.585C385.061 8.52834 384.438 8.5 383.984 8.5C383.531 8.5 382.908 8.52834 382.114 8.585C381.774 8.585 381.179 8.5 380.329 8.33C379.536 8.16 378.998 8.10334 378.714 8.16C378.431 8.27334 377.836 8.27334 376.929 8.16C376.079 8.04667 375.513 7.99 375.229 7.99C374.946 7.99 374.691 7.99 374.464 7.99C374.238 7.93333 374.011 7.82 373.784 7.65V2.38C374.011 2.26667 374.351 2.21 374.804 2.21C375.258 2.21 375.711 2.21 376.164 2.21C376.731 2.21 377.241 2.21 377.694 2.21C378.148 2.21 378.573 2.18167 378.969 2.125C379.083 2.125 379.479 2.15333 380.159 2.21C380.839 2.26667 381.406 2.32334 381.859 2.38C382.199 2.26667 382.539 2.21 382.879 2.21C383.729 2.15333 384.523 2.15333 385.259 2.21C385.769 2.26667 386.138 2.26667 386.364 2.21C386.591 2.15333 386.931 2.125 387.384 2.125H388.744L391.039 2.295C391.606 2.295 392.173 2.295 392.739 2.295C393.306 2.23833 393.873 2.23833 394.439 2.295C395.743 2.40833 396.989 2.465 398.179 2.465C399.426 2.40833 400.446 2.32333 401.239 2.21C401.636 2.21 402.344 2.26667 403.364 2.38C404.384 2.49333 405.376 2.57833 406.339 2.635C406.963 2.69167 407.473 2.69167 407.869 2.635C408.266 2.57833 408.606 2.57833 408.889 2.635V6.545C408.889 6.77167 408.918 6.91333 408.974 6.97C409.031 7.02667 409.003 7.28167 408.889 7.735C408.833 7.96167 408.606 8.10334 408.209 8.16C407.813 8.16 407.501 8.16 407.274 8.16C405.801 8.38667 404.441 8.47167 403.194 8.415C402.004 8.35833 400.843 8.33 399.709 8.33C399.256 8.33 398.888 8.33 398.604 8.33C398.378 8.33 398.094 8.35833 397.754 8.415V10.37C397.754 10.8233 397.726 11.5033 397.669 12.41C397.669 13.3167 397.669 14.025 397.669 14.535C397.669 14.7617 397.669 14.9317 397.669 15.045C397.669 15.1583 397.641 15.3283 397.584 15.555C397.584 15.725 397.556 16.0083 397.499 16.405C397.443 16.745 397.329 17.255 397.159 17.935C397.159 18.8983 397.159 19.72 397.159 20.4C397.159 21.08 397.159 21.7033 397.159 22.27C397.216 22.8367 397.244 23.4033 397.244 23.97C397.244 24.48 397.244 25.1033 397.244 25.84V26.69C397.018 27.6533 396.961 28.6167 397.074 29.58C397.188 30.5433 397.244 31.5067 397.244 32.47V51.85Z" fill="#FAF8EC"/>
<path d="M347.922 19.2091C349.055 21.1358 350.245 23.1758 351.491 25.3291C352.795 27.4824 354.183 29.7491 355.656 32.1291C355.94 32.9224 356.28 33.6591 356.677 34.3391C357.13 34.9624 357.583 35.5008 358.036 35.9541C358.263 36.4074 358.547 36.9741 358.887 37.6541C359.227 38.2774 359.566 38.8158 359.906 39.2691L360.077 38.9291V34.5941C360.077 34.4808 360.077 34.4241 360.077 34.4241C360.133 34.3674 360.161 34.2824 360.161 34.1691C359.935 32.8658 359.878 31.7041 359.992 30.6841C360.162 29.6074 360.19 28.4741 360.077 27.2841C360.133 26.8874 360.161 26.5191 360.161 26.1791C360.161 25.8391 360.161 25.4991 360.161 25.1591L359.992 20.7391V10.1991C359.992 9.97244 359.992 9.54743 359.992 8.9241C360.048 8.30077 360.077 7.62077 360.077 6.8841C360.077 6.09076 360.077 5.32577 360.077 4.5891C360.077 3.85243 360.077 3.28577 360.077 2.8891C360.077 2.66243 360.105 2.4641 360.161 2.2941C360.275 2.06743 360.558 1.9541 361.012 1.9541H363.816C364.326 1.9541 364.922 2.0391 365.602 2.2091C366.282 2.3791 366.735 2.4641 366.961 2.4641H367.387C367.387 4.39077 367.387 6.3741 367.387 8.4141C367.443 10.3974 367.471 12.2958 367.471 14.1091C367.528 15.8658 367.585 17.5091 367.642 19.0391C367.698 20.5124 367.755 21.7024 367.811 22.6091C367.755 23.0624 367.727 23.5158 367.727 23.9691C367.783 24.3658 367.783 24.7908 367.727 25.2441C367.67 25.8674 367.642 26.4908 367.642 27.1141C367.698 27.7374 367.727 28.3608 367.727 28.9841V33.0641C367.783 34.5941 367.755 35.8124 367.642 36.7191C367.585 37.6258 367.556 38.1641 367.556 38.3341C367.5 39.1274 367.471 39.9208 367.471 40.7141C367.471 41.5074 367.471 42.3008 367.471 43.0941C367.528 44.1708 367.528 45.2474 367.471 46.3241C367.415 47.3441 367.415 48.3924 367.471 49.4691C367.471 49.9224 367.471 50.3474 367.471 50.7441C367.471 51.1408 367.5 51.5658 367.556 52.0191C367.556 52.3024 367.245 52.4441 366.621 52.4441H363.816C363.136 52.5574 362.598 52.5858 362.202 52.5291C361.805 52.4724 361.522 52.4441 361.352 52.4441C361.068 51.7074 360.813 51.0841 360.586 50.5741C360.36 50.1208 360.105 49.6674 359.822 49.2141C359.595 48.7608 359.34 48.3074 359.056 47.8541C358.773 47.3441 358.433 46.7491 358.036 46.0691C357.866 45.7858 357.64 45.4174 357.357 44.9641C357.073 44.4541 356.818 44.0574 356.591 43.7741C356.251 43.3774 355.968 42.9241 355.741 42.4141C355.515 41.8474 355.147 41.3374 354.637 40.8841C353.9 39.7508 353.192 38.5891 352.512 37.3991C351.832 36.1524 351.095 34.9058 350.302 33.6591C349.508 32.4691 348.602 31.2508 347.582 30.0041C346.562 28.7008 345.541 27.2558 344.521 25.6691C344.068 24.5924 343.388 23.4874 342.482 22.3541C341.632 21.2208 340.895 20.1441 340.272 19.1241C340.272 19.0108 340.243 19.2374 340.186 19.8041C340.186 20.3708 340.186 21.0224 340.186 21.7591C340.186 22.4391 340.158 23.0908 340.102 23.7141C340.102 24.2808 340.102 24.5641 340.102 24.5641V25.2441C340.158 25.6974 340.158 26.1508 340.102 26.6041C340.045 27.0008 340.017 27.4258 340.017 27.8791L339.846 38.4191L340.017 42.8391C340.017 43.1791 340.017 43.5191 340.017 43.8591C340.073 44.1991 340.073 44.5674 340.017 44.9641C340.13 45.7574 340.158 46.6074 340.102 47.5141C340.045 48.3641 340.045 49.2141 340.102 50.0641C340.158 50.8574 340.13 51.4241 340.017 51.7641C339.96 52.1041 339.875 52.3308 339.762 52.4441H333.047C332.593 52.4441 332.112 52.4441 331.602 52.4441C331.148 52.5008 330.695 52.5008 330.241 52.4441C330.185 52.4441 330.128 52.1891 330.072 51.6791C330.072 51.2258 330.072 50.6591 330.072 49.9791C330.072 49.3558 330.072 48.7041 330.072 48.0241C330.072 47.3441 330.072 46.8341 330.072 46.4941C330.072 45.7008 330.072 44.9074 330.072 44.1141C330.128 43.2641 330.128 42.4424 330.072 41.6491C330.072 40.8558 330.1 40.0908 330.156 39.3541C330.213 38.5608 330.213 37.7674 330.156 36.9741C330.156 36.4074 330.128 35.9541 330.072 35.6141C330.072 35.2174 330.072 34.8774 330.072 34.5941L329.901 33.3191C329.901 33.2058 329.901 33.1491 329.901 33.1491C329.958 33.0924 329.987 33.0074 329.987 32.8941C329.76 31.5908 329.675 30.3158 329.732 29.0691C329.845 27.8224 329.845 26.6041 329.732 25.4141C329.788 25.0174 329.816 24.6491 329.816 24.3091C329.816 23.9691 329.816 23.6291 329.816 23.2891L329.646 18.8691L329.901 8.3291C329.901 7.87577 329.873 7.45077 329.816 7.0541C329.816 6.60077 329.788 6.14743 329.732 5.6941L330.241 4.9291C330.525 4.9291 331.006 4.9291 331.686 4.9291C332.366 4.87243 333.16 4.87243 334.066 4.9291C334.803 4.9291 335.341 4.90076 335.681 4.8441C336.078 4.73077 336.503 4.6741 336.957 4.6741C337.24 4.6741 337.467 4.73077 337.637 4.8441C337.863 4.90076 338.147 4.9291 338.487 4.9291H340.272C340.442 5.38243 340.668 5.8641 340.952 6.3741C341.292 6.8841 341.603 7.42243 341.887 7.9891C342.51 9.23577 342.963 10.3124 343.246 11.2191C343.586 12.0691 343.898 12.6924 344.181 13.0891C344.408 13.3724 344.691 13.7691 345.031 14.2791C345.371 14.7891 345.712 15.3274 346.052 15.8941C346.392 16.4608 346.703 17.0558 346.987 17.6791C347.327 18.2458 347.638 18.7558 347.922 19.2091Z" fill="#FAF8EC"/>
<path d="M319.243 3.31484C319.016 4.05151 318.96 4.84484 319.073 5.69484C319.186 6.54485 319.243 7.36651 319.243 8.15985C319.016 8.15985 318.591 8.24484 317.968 8.41484C317.401 8.52818 316.863 8.61318 316.353 8.66984C316.126 8.66984 315.871 8.66984 315.588 8.66984C315.305 8.61318 315.078 8.61318 314.908 8.66984L313.293 9.00984H308.533C307.343 9.06651 306.266 9.09484 305.303 9.09484C304.396 9.03818 303.348 9.00984 302.158 9.00984C301.931 9.00984 301.591 9.03818 301.138 9.09484C300.741 9.15151 300.458 9.15151 300.288 9.09484C300.288 9.37818 300.26 9.60484 300.203 9.77484C300.146 9.94484 300.118 10.1715 300.118 10.4548C300.175 10.6248 300.203 11.0498 300.203 11.7298C300.26 12.4098 300.288 13.1748 300.288 14.0248C300.345 14.8182 300.373 15.5548 300.373 16.2348C300.43 16.9148 300.458 17.3398 300.458 17.5098V21.3348C300.458 21.7882 300.458 22.1565 300.458 22.4398C300.515 22.7232 300.6 23.1198 300.713 23.6298H305.643C306.55 23.6298 307.4 23.6582 308.193 23.7148C308.986 23.7715 309.865 23.7998 310.828 23.7998C311.338 23.7998 311.933 23.8282 312.613 23.8848C313.35 23.9415 313.916 23.9132 314.313 23.7998C314.37 24.3098 314.426 24.8482 314.483 25.4148C314.54 25.9815 314.568 26.4915 314.568 26.9448V28.3048C314.341 28.3048 313.916 28.3332 313.293 28.3898C312.67 28.4465 312.103 28.5032 311.593 28.5598H308.023C306.89 28.7298 305.841 28.8148 304.878 28.8148C303.915 28.8148 302.838 28.8148 301.648 28.8148C301.421 28.8148 301.138 28.8432 300.798 28.8998C300.458 28.9565 300.203 28.9565 300.033 28.8998V32.0448C300.033 32.8382 300.033 33.6598 300.033 34.5098C300.09 35.3598 300.203 36.0965 300.373 36.7198C300.373 37.7398 300.373 38.7032 300.373 39.6098C300.43 40.4598 300.458 41.2532 300.458 41.9898V43.4348C300.571 43.3782 300.911 43.4065 301.478 43.5198C302.101 43.6332 302.838 43.7465 303.688 43.8598C304.538 43.9732 305.246 44.0582 305.813 44.1148C306.436 44.1715 307.003 44.2848 307.513 44.4548C307.796 44.5682 308.391 44.6532 309.298 44.7098C310.261 44.7098 310.885 44.7098 311.168 44.7098C312.585 44.8798 313.973 44.9932 315.333 45.0498C316.693 45.1065 318.081 45.1915 319.498 45.3048H322.558C322.785 45.3048 323.04 45.2765 323.323 45.2198C323.606 45.1065 323.805 45.0498 323.918 45.0498C324.201 46.0698 324.343 47.0615 324.343 48.0248C324.4 48.9882 324.428 49.9515 324.428 50.9148C323.975 51.1982 323.408 51.3398 322.728 51.3398C322.048 51.3398 321.396 51.3682 320.773 51.4248C320.376 51.4248 319.951 51.3965 319.498 51.3398C319.045 51.2832 318.591 51.2548 318.138 51.2548C317.005 51.3115 315.645 51.3115 314.058 51.2548C312.528 51.1982 311.196 51.2265 310.063 51.3398H308.788C308.165 51.2265 307.286 51.1415 306.153 51.0848C305.076 51.0282 304.255 50.9998 303.688 50.9998C303.065 50.9432 302.073 50.9432 300.713 50.9998C299.353 51.1132 297.086 51.1982 293.913 51.2548C293.8 51.2548 293.403 51.2548 292.723 51.2548C292.1 51.2548 291.391 51.2548 290.598 51.2548C289.861 51.3115 289.153 51.3398 288.473 51.3398C287.85 51.3965 287.481 51.4248 287.368 51.4248C287.368 50.2348 287.283 49.0732 287.113 47.9398C287 46.8065 286.943 45.7582 286.943 44.7948C286.943 44.2282 286.915 43.5765 286.858 42.8398C286.801 42.1032 286.83 41.4798 286.943 40.9698C287.056 39.1565 287.085 37.3715 287.028 35.6148C287.028 33.8582 287.028 32.0732 287.028 30.2598C287.028 29.8632 287 29.1548 286.943 28.1348C286.886 27.1148 286.886 26.1515 286.943 25.2448L286.773 22.6098C286.716 22.2132 286.745 21.5048 286.858 20.4848C287.028 19.4082 287.085 18.4732 287.028 17.6798C286.971 16.3765 286.915 15.2432 286.858 14.2798C286.801 13.2598 286.745 12.0698 286.688 10.7098C286.631 9.51984 286.631 8.35818 286.688 7.22484C286.801 6.03485 286.858 4.90151 286.858 3.82484C286.858 3.54151 286.858 3.31484 286.858 3.14484C286.915 2.91818 287.085 2.69151 287.368 2.46484L291.703 2.63484C292.553 2.69151 293.516 2.69151 294.593 2.63484C295.726 2.57818 296.718 2.57818 297.568 2.63484C297.795 2.63484 297.993 2.63484 298.163 2.63484C298.39 2.57818 298.616 2.54984 298.843 2.54984C299.013 2.54984 299.381 2.54984 299.948 2.54984C300.515 2.54984 301.11 2.54984 301.733 2.54984C302.356 2.54984 302.923 2.54984 303.433 2.54984C303.943 2.54984 304.255 2.57818 304.368 2.63484C304.481 2.69151 304.821 2.74818 305.388 2.80484C305.955 2.86151 306.38 2.88984 306.663 2.88984C306.833 2.88984 307.088 2.88984 307.428 2.88984C307.768 2.83318 308.108 2.80484 308.448 2.80484C308.845 2.80484 309.213 2.80484 309.553 2.80484C309.893 2.80484 310.148 2.80484 310.318 2.80484C310.941 2.91818 311.508 2.97484 312.018 2.97484C312.585 2.91818 313.18 2.91818 313.803 2.97484C313.86 2.97484 314.143 3.00318 314.653 3.05985C315.22 3.05985 315.843 3.08818 316.523 3.14484C317.203 3.20151 317.798 3.25818 318.308 3.31484C318.875 3.31484 319.186 3.31484 319.243 3.31484Z" fill="#FAF8EC"/>
<path d="M241.233 31.8742C240.95 31.4775 240.638 31.0525 240.298 30.5992C240.015 30.1458 239.675 29.6358 239.278 29.0692C238.485 27.9925 237.777 26.9725 237.153 26.0092C236.587 24.9892 236.162 24.3375 235.878 24.0542L233.498 21.3342C233.328 21.1075 233.13 20.7959 232.903 20.3992C232.677 20.0025 232.507 19.7192 232.393 19.5492C232.11 19.1525 231.827 18.7558 231.543 18.3592C231.317 17.9058 231.062 17.5092 230.778 17.1692C230.438 16.7158 230.013 16.1492 229.503 15.4692C229.05 14.7892 228.795 14.4492 228.738 14.4492L228.823 18.2742L228.228 25.1592C228.228 25.4425 228.2 26.0658 228.143 27.0292C228.143 27.9358 228.115 28.9275 228.058 30.0042C228.002 31.0809 227.945 32.1008 227.888 33.0642C227.888 33.9708 227.888 34.5658 227.888 34.8492C227.832 36.0392 227.747 37.0875 227.633 37.9942C227.52 38.9008 227.492 39.9492 227.548 41.1392C227.548 41.7059 227.492 42.2442 227.378 42.7542C227.322 43.2075 227.322 43.7175 227.378 44.2842C227.378 44.5675 227.378 44.8508 227.378 45.1342C227.378 45.3608 227.35 45.6158 227.293 45.8992C227.35 46.6925 227.35 47.5142 227.293 48.3642C227.237 49.1575 227.208 49.9508 227.208 50.7442C226.528 51.0275 225.905 51.1975 225.338 51.2542C224.828 51.3109 224.177 51.3392 223.383 51.3392C223.157 51.3959 222.845 51.4242 222.448 51.4242C222.108 51.4808 221.768 51.5092 221.428 51.5092C221.088 51.5658 220.805 51.5942 220.578 51.5942C220.352 51.6508 220.267 51.6792 220.323 51.6792C220.04 51.6792 219.7 51.7075 219.303 51.7642C218.963 51.8209 218.567 51.8492 218.113 51.8492C217.887 51.8492 217.66 51.8209 217.433 51.7642C217.207 51.7642 216.98 51.6225 216.753 51.3392L217.093 48.7042V48.1942C217.037 47.3442 216.98 46.5225 216.923 45.7292C216.867 44.8792 216.895 44.1425 217.008 43.5192C217.065 43.1792 217.093 42.7259 217.093 42.1592C217.15 41.5925 217.178 40.9975 217.178 40.3742C217.178 39.7509 217.178 39.1559 217.178 38.5892C217.178 37.9659 217.15 37.4275 217.093 36.9742C216.98 36.0675 216.895 35.3025 216.838 34.6792C216.838 33.9992 216.838 32.9225 216.838 31.4492C216.895 30.2592 216.923 29.3242 216.923 28.6442C216.923 27.9642 216.895 27.0292 216.838 25.8392V25.0742C216.838 24.2808 216.782 23.5725 216.668 22.9492C216.612 22.3259 216.612 21.7875 216.668 21.3342C216.895 20.1442 216.952 18.9825 216.838 17.8492C216.782 16.6592 216.81 15.4125 216.923 14.1092C216.98 13.1458 216.98 12.2108 216.923 11.3042C216.923 10.3975 216.923 9.46252 216.923 8.49918C216.923 7.53585 216.952 6.57252 217.008 5.60918C217.122 4.64585 217.178 3.68251 217.178 2.71918C217.178 2.26585 217.207 2.01085 217.263 1.95418C217.377 1.84085 217.66 1.78418 218.113 1.78418H226.868C227.152 2.06751 227.492 2.54918 227.888 3.22918C228.285 3.85251 228.625 4.36251 228.908 4.75918C229.362 5.32585 229.787 5.97751 230.183 6.71418C230.637 7.45085 231.033 8.10251 231.373 8.66918C231.827 9.63251 232.308 10.3692 232.818 10.8792C233.328 11.3892 233.753 12.0692 234.093 12.9192C234.377 13.2025 234.603 13.5425 234.773 13.9392C235 14.2792 235.227 14.5625 235.453 14.7892C235.737 15.2425 236.105 15.8092 236.558 16.4892C237.012 17.1692 237.465 17.7358 237.918 18.1892C238.655 19.1525 239.278 20.0309 239.788 20.8242C240.355 21.6175 241.035 22.4675 241.828 23.3742C242.282 23.9975 242.678 24.5642 243.018 25.0742C243.358 25.5842 243.727 26.1508 244.123 26.7742C244.577 27.2842 245.058 27.8792 245.568 28.5592C246.135 29.1825 246.758 29.8909 247.438 30.6842C247.552 30.6275 247.75 30.4292 248.033 30.0892C248.373 29.6925 248.628 29.3525 248.798 29.0692C249.308 28.5592 249.818 27.9075 250.328 27.1142C250.895 26.3209 251.433 25.6125 251.943 24.9892L252.793 23.2892C252.907 23.0625 253.048 22.8642 253.218 22.6942C253.388 22.4675 253.53 22.2692 253.643 22.0992L255.938 18.6142C256.165 18.0475 256.618 17.3392 257.298 16.4892C258.035 15.6392 258.743 14.6192 259.423 13.4292L259.848 12.9192C260.415 11.9558 260.925 11.0492 261.378 10.1992C261.832 9.29252 262.285 8.35752 262.738 7.39418C263.078 6.65752 263.418 6.09085 263.758 5.69418C264.155 5.24085 264.552 4.64585 264.948 3.90918C265.175 3.45585 265.288 3.17252 265.288 3.05919C265.345 2.88918 265.458 2.63418 265.628 2.29418H273.363C274.327 2.52085 275.007 2.63418 275.403 2.63418C275.8 2.63418 276.083 2.63418 276.253 2.63418C276.537 2.63418 276.792 2.66251 277.018 2.71918C277.302 2.71918 277.67 2.71918 278.123 2.71918V6.20418C277.897 7.16752 277.755 8.01752 277.698 8.75418C277.698 9.49085 277.698 10.2275 277.698 10.9642V19.5492C277.698 20.5692 277.727 21.5608 277.783 22.5242C277.84 23.4308 277.868 24.4225 277.868 25.4992C277.925 25.7825 277.953 26.0942 277.953 26.4342C277.953 26.7175 277.953 27.0292 277.953 27.3692C278.01 27.9925 278.01 28.4459 277.953 28.7292C277.953 29.0125 277.982 29.4659 278.038 30.0892V31.1942C277.982 31.5342 277.925 32.1292 277.868 32.9792C277.812 33.7725 277.755 34.6225 277.698 35.5292C277.642 36.3792 277.585 37.2292 277.528 38.0792C277.528 38.8725 277.528 39.4392 277.528 39.7792C277.528 40.2325 277.557 40.7992 277.613 41.4792C277.67 42.1592 277.698 42.7258 277.698 43.1792C277.698 44.3125 277.67 45.5025 277.613 46.7492C277.613 47.9392 277.472 49.1292 277.188 50.3192V52.2742C276.962 52.5575 276.65 52.6992 276.253 52.6992C275.913 52.7559 275.602 52.7842 275.318 52.7842C274.808 52.6709 274.27 52.6425 273.703 52.6992C273.193 52.7559 272.825 52.7842 272.598 52.7842H266.053C265.94 51.9909 265.855 51.1975 265.798 50.4042C265.742 49.6109 265.713 48.8458 265.713 48.1092C265.713 47.7692 265.713 47.2875 265.713 46.6642C265.77 46.0408 265.798 45.3892 265.798 44.7092C265.798 43.9725 265.798 43.2925 265.798 42.6692C265.798 42.0459 265.77 41.5642 265.713 41.2242C265.713 40.8275 265.742 40.2325 265.798 39.4392C265.855 38.5892 265.883 37.9658 265.883 37.5692L265.798 34.6792C265.798 34.1125 265.77 33.6592 265.713 33.3192C265.713 32.9225 265.713 32.5825 265.713 32.2992L265.543 30.6842C265.543 30.5709 265.543 30.4292 265.543 30.2592C265.6 30.0325 265.628 29.8625 265.628 29.7492C265.402 28.4459 265.373 27.1708 265.543 25.9242C265.77 24.6775 265.827 23.4592 265.713 22.2692C265.77 21.8725 265.798 21.5042 265.798 21.1642C265.798 20.8242 265.798 20.4842 265.798 20.1442L265.628 15.7242V14.7892C265.402 14.6758 265.288 14.6192 265.288 14.6192C265.232 14.6758 265.203 14.7325 265.203 14.7892C264.467 15.4692 263.815 16.2059 263.248 16.9992C262.682 17.7359 262.115 18.5859 261.548 19.5492L258.913 23.7142C258.63 24.2242 258.29 24.8192 257.893 25.4992C257.497 26.1225 257.1 26.7742 256.703 27.4542C256.307 28.1342 255.91 28.7859 255.513 29.4092C255.173 29.9759 254.833 30.4575 254.493 30.8542C254.323 31.0808 254.068 31.4209 253.728 31.8742C253.445 32.3275 253.105 32.8375 252.708 33.4042C252.368 33.9142 252 34.4525 251.603 35.0192C251.263 35.5859 250.923 36.0958 250.583 36.5492L250.243 37.0592C249.96 37.1725 249.563 37.2292 249.053 37.2292C248.6 37.1725 248.232 37.1442 247.948 37.1442C247.438 37.1442 246.928 37.1725 246.418 37.2292C245.908 37.2292 245.398 37.2292 244.888 37.2292C244.435 36.7758 243.982 36.1525 243.528 35.3592C243.075 34.5659 242.678 33.9425 242.338 33.4892L241.233 31.8742Z" fill="#FAF8EC"/>
<path d="M172.392 40.205C172.788 39.0717 173.185 37.9667 173.582 36.89C174.035 35.7567 174.46 34.6233 174.857 33.49C175.14 32.64 175.508 31.79 175.962 30.94C176.415 30.09 176.812 29.325 177.152 28.645C177.435 27.6817 177.718 26.9167 178.002 26.35C178.342 25.7267 178.54 25.33 178.597 25.16C178.597 25.0467 178.71 24.7633 178.937 24.31C179.22 23.8567 179.532 23.12 179.872 22.1C180.042 21.59 180.183 21.0517 180.297 20.485C180.467 19.9183 180.665 19.38 180.892 18.87L182.932 13.94C183.158 13.3167 183.3 12.8633 183.357 12.58C183.47 12.24 183.555 11.9567 183.612 11.73C183.668 11.5033 183.725 11.2483 183.782 10.965C183.838 10.6817 184.008 10.2283 184.292 9.605C184.575 8.98166 184.802 8.38667 184.972 7.82C185.198 7.25333 185.453 6.65833 185.737 6.035C185.85 5.695 185.963 5.355 186.077 5.015C186.19 4.675 186.303 4.335 186.417 3.995C186.587 3.54166 186.728 3.145 186.842 2.805C186.955 2.465 187.068 2.06833 187.182 1.615C187.295 1.50166 187.38 1.36 187.437 1.19C187.493 0.963332 187.607 0.708332 187.777 0.424999C188.117 0.198332 188.4 0.0849991 188.627 0.0849991C188.853 0.0283331 189.08 0 189.307 0H193.217C193.33 0.226667 193.387 0.453333 193.387 0.679996C193.387 0.849998 193.443 1.04833 193.557 1.275L193.897 2.55L194.152 3.23L195.087 5.865L196.617 10.2L197.212 11.305C197.325 11.4183 197.438 11.6733 197.552 12.07C197.665 12.41 197.835 12.8633 198.062 13.43C198.345 14.1667 198.628 15.0167 198.912 15.98C199.252 16.8867 199.563 17.7933 199.847 18.7C200.243 20.1167 200.555 21.165 200.782 21.845C201.065 22.525 201.348 23.2333 201.632 23.97C201.802 24.1967 201.915 24.4517 201.972 24.735C202.028 25.0183 202.113 25.3017 202.227 25.585L203.332 29.07L204.777 32.13C204.947 32.64 205.117 33.15 205.287 33.66C205.513 34.1133 205.768 34.5667 206.052 35.02C206.505 36.1533 206.873 37.2017 207.157 38.165C207.44 39.0717 207.808 40.0917 208.262 41.225C208.488 41.735 208.715 42.2167 208.942 42.67C209.225 43.1233 209.452 43.605 209.622 44.115C209.735 44.3983 209.848 44.6817 209.962 44.965C210.075 45.2483 210.188 45.5317 210.302 45.815C210.585 46.325 210.812 46.8633 210.982 47.43C211.208 47.94 211.463 48.5067 211.747 49.13C211.86 49.47 212.002 49.81 212.172 50.15C212.342 50.49 212.455 50.8017 212.512 51.085C212.228 51.085 211.945 51.0567 211.662 51C211.378 50.9433 211.123 50.915 210.897 50.915H209.452C208.942 50.915 208.488 50.915 208.092 50.915C207.695 50.9717 207.355 51 207.072 51C206.788 50.32 206.363 49.6683 205.797 49.045C205.287 48.365 204.748 47.5433 204.182 46.58C204.068 46.2967 203.955 46.0417 203.842 45.815C203.728 45.5883 203.615 45.3617 203.502 45.135C203.388 44.795 203.048 44.3133 202.482 43.69C201.972 43.0667 201.688 42.585 201.632 42.245C201.178 41.735 200.838 41.3383 200.612 41.055C200.442 40.715 200.215 40.4033 199.932 40.12C199.705 40.12 199.422 40.12 199.082 40.12C198.742 40.0633 198.43 40.0067 198.147 39.95C197.807 39.8933 197.438 39.865 197.042 39.865H195.002C194.718 39.865 194.407 39.8933 194.067 39.95C193.783 39.95 193.33 39.9783 192.707 40.035C192.083 40.035 191.233 40.0633 190.157 40.12C189.08 40.12 187.635 40.12 185.822 40.12H185.227C184.773 40.12 184.405 40.1767 184.122 40.29C183.895 40.3467 183.555 40.29 183.102 40.12C182.932 40.0067 182.507 39.9783 181.827 40.035C181.203 40.0917 180.778 40.1483 180.552 40.205L179.447 40.29L179.022 40.885C178.908 41.225 178.71 41.6217 178.427 42.075C178.143 42.5283 177.86 42.9817 177.577 43.435C177.293 43.8883 177.01 44.3417 176.727 44.795C176.5 45.2483 176.33 45.6167 176.217 45.9L175.622 47.43L173.497 51.34C173.383 51.5667 173.213 51.68 172.987 51.68C172.76 51.68 172.59 51.7367 172.477 51.85H168.142C167.915 51.6233 167.802 51.4817 167.802 51.425C167.802 51.3683 167.915 51.1983 168.142 50.915C168.142 50.6883 168.227 50.3483 168.397 49.895C168.567 49.4983 168.652 49.1867 168.652 48.96C168.935 48.5067 169.162 48.0533 169.332 47.6C169.558 47.09 169.785 46.6083 170.012 46.155L172.392 40.205ZM190.242 19.125C189.958 19.2383 189.76 19.38 189.647 19.55C189.533 19.72 189.42 19.9183 189.307 20.145C189.08 20.9383 188.768 21.7317 188.372 22.525C188.032 23.2617 187.692 24.0267 187.352 24.82C187.068 25.3867 186.785 25.925 186.502 26.435C186.218 26.8883 185.963 27.3983 185.737 27.965C185.227 29.0983 184.717 30.2317 184.207 31.365C183.697 32.4417 183.13 33.5183 182.507 34.595H183.017C183.47 34.595 183.867 34.6233 184.207 34.68C184.603 34.7367 185 34.7083 185.397 34.595C185.737 34.4817 186.048 34.4533 186.332 34.51C186.672 34.5667 186.983 34.595 187.267 34.595C188.23 34.595 189.222 34.595 190.242 34.595C191.262 34.5383 192.395 34.5667 193.642 34.68C194.265 34.7367 194.832 34.7367 195.342 34.68C195.908 34.6233 196.475 34.595 197.042 34.595H197.807C197.75 34.3683 197.665 34.1983 197.552 34.085C197.495 33.915 197.41 33.745 197.297 33.575C197.07 33.1217 196.815 32.725 196.532 32.385C196.305 32.045 196.107 31.62 195.937 31.11L192.962 25.16C192.848 24.8767 192.735 24.5083 192.622 24.055L190.242 19.125Z" fill="#F6D83E"/>
<path d="M165.091 44.8793C165.148 44.9359 165.176 45.2193 165.176 45.7293C165.176 46.1826 165.176 46.6926 165.176 47.2593C165.176 47.7126 165.176 48.1943 165.176 48.7043C165.233 49.1576 165.204 49.5259 165.091 49.8093C164.921 49.9226 164.638 49.9509 164.241 49.8943C163.901 49.8376 163.589 49.8659 163.306 49.9793L154.126 50.1493H152.086C151.576 50.0926 150.754 50.0643 149.621 50.0643C148.488 50.1209 147.666 50.1493 147.156 50.1493C146.703 50.1493 146.221 50.1493 145.711 50.1493C145.258 50.2059 144.804 50.2343 144.351 50.2343C143.388 50.1776 142.679 50.1209 142.226 50.0643C141.773 50.0076 141.064 50.0076 140.101 50.0643C139.421 50.1209 138.741 50.1776 138.061 50.2343C137.438 50.2909 136.786 50.3193 136.106 50.3193H132.451C131.998 50.3193 131.488 50.3193 130.921 50.3193C130.354 50.3193 129.674 50.3476 128.881 50.4043C128.598 50.2909 127.946 50.2059 126.926 50.1493C125.963 50.1493 125.113 50.1493 124.376 50.1493C124.093 50.2059 123.838 50.2059 123.611 50.1493C123.384 50.1493 123.129 50.1493 122.846 50.1493C122.619 49.8659 122.478 49.6959 122.421 49.6393C122.421 49.5826 122.421 49.4409 122.421 49.2143C122.421 48.7609 122.449 48.2793 122.506 47.7693C122.563 47.2593 122.563 46.7776 122.506 46.3243C122.506 46.0409 122.449 45.7859 122.336 45.5593C122.279 45.3326 122.251 45.1626 122.251 45.0493C122.251 44.9926 122.364 44.8509 122.591 44.6243C122.818 44.3409 123.073 44.0576 123.356 43.7743C123.696 43.4343 124.036 43.1226 124.376 42.8393C124.716 42.4993 125.028 42.2443 125.311 42.0743L127.181 40.0343C127.918 39.3543 128.569 38.6459 129.136 37.9093C129.703 37.1726 130.354 36.4643 131.091 35.7843C131.714 35.0476 132.394 34.2543 133.131 33.4043C133.924 32.4976 134.661 31.7043 135.341 31.0243L138.061 27.4543L142.226 22.8643C142.509 22.5809 142.849 22.1559 143.246 21.5893C143.699 21.0226 144.011 20.5693 144.181 20.2293C144.238 20.1159 144.408 19.8893 144.691 19.5493C145.031 19.1526 145.343 18.7559 145.626 18.3593C145.966 17.9059 146.278 17.4809 146.561 17.0843C146.844 16.6876 147.014 16.4326 147.071 16.3193C147.128 16.2626 147.326 15.9793 147.666 15.4693C148.063 14.9593 148.459 14.4209 148.856 13.8543C149.309 13.2876 149.706 12.7776 150.046 12.3243C150.443 11.8143 150.669 11.5026 150.726 11.3893L151.236 10.2843C151.236 10.0009 151.094 9.88761 150.811 9.94427C150.584 9.94427 150.386 9.94427 150.216 9.94427C149.423 9.94427 148.686 9.97261 148.006 10.0293C147.326 10.0293 146.589 10.0293 145.796 10.0293C144.663 10.0293 143.586 10.0293 142.566 10.0293C141.546 9.97261 140.554 9.94427 139.591 9.94427H130.581C130.468 9.94427 130.383 9.91594 130.326 9.85927C130.156 9.80261 130.071 9.68927 130.071 9.51927C130.241 8.7826 130.269 7.98927 130.156 7.13927C130.043 6.28927 129.986 5.49594 129.986 4.75927C129.986 4.30594 130.241 4.07927 130.751 4.07927H133.556C133.953 4.07927 134.491 4.07927 135.171 4.07927C135.851 4.02261 136.559 3.99427 137.296 3.99427C138.033 3.99427 138.741 3.99427 139.421 3.99427C140.101 3.93761 140.668 3.90927 141.121 3.90927C141.631 3.90927 142.141 3.88094 142.651 3.82427C143.218 3.71094 143.756 3.6826 144.266 3.73927C144.719 3.73927 145.173 3.73927 145.626 3.73927C146.136 3.73927 146.618 3.7676 147.071 3.82427C147.864 3.82427 148.686 3.8526 149.536 3.90927C150.386 3.96594 151.236 3.96594 152.086 3.90927C152.199 3.90927 152.369 3.93761 152.596 3.99427C152.879 3.99427 153.078 3.99427 153.191 3.99427C154.041 4.16427 154.891 4.22094 155.741 4.16427C156.648 4.10761 157.526 4.07927 158.376 4.07927C158.999 4.13594 159.679 4.13594 160.416 4.07927C161.153 4.02261 161.719 4.05094 162.116 4.16427C162.683 4.27761 163.136 4.30594 163.476 4.24927C163.816 4.19261 164.128 4.16427 164.411 4.16427H164.836C164.893 4.22094 164.978 4.50428 165.091 5.01428V9.77427C164.638 10.2843 164.298 10.7376 164.071 11.1343C163.844 11.4743 163.448 11.8709 162.881 12.3243C162.768 12.4376 162.428 12.8626 161.861 13.5993C161.351 14.3359 160.728 15.1859 159.991 16.1493C159.254 17.0559 158.489 17.9909 157.696 18.9543C156.959 19.9176 156.364 20.7393 155.911 21.4193C155.741 21.7026 155.401 22.1276 154.891 22.6943C154.438 23.2609 153.928 23.8843 153.361 24.5643C152.851 25.1876 152.369 25.8109 151.916 26.4343C151.463 27.0009 151.151 27.3976 150.981 27.6243C150.358 28.7009 149.678 29.7209 148.941 30.6843C148.204 31.5909 147.468 32.5259 146.731 33.4893C146.278 33.9426 145.824 34.3959 145.371 34.8493C144.918 35.3026 144.464 35.7559 144.011 36.2093C143.671 36.6626 143.331 37.1443 142.991 37.6543C142.708 38.1076 142.396 38.5609 142.056 39.0143C141.376 39.8076 140.724 40.6293 140.101 41.4793C139.534 42.3293 138.939 43.0659 138.316 43.6893C138.769 43.8026 139.308 43.8876 139.931 43.9443C140.611 44.0009 141.008 44.0009 141.121 43.9443C141.404 43.8309 141.716 43.8309 142.056 43.9443C142.849 44.0009 143.784 44.0859 144.861 44.1993C145.994 44.3126 146.958 44.3976 147.751 44.4543C148.374 44.5109 149.111 44.5393 149.961 44.5393C150.811 44.5393 151.548 44.5393 152.171 44.5393H152.936C153.729 44.5959 154.466 44.6809 155.146 44.7943C155.826 44.9076 156.563 44.9076 157.356 44.7943C157.809 44.7376 158.291 44.7376 158.801 44.7943C159.311 44.7943 159.793 44.8226 160.246 44.8793H160.756C161.436 44.8793 161.946 44.8793 162.286 44.8793C162.683 44.8226 163.221 44.7943 163.901 44.7943C164.128 44.7943 164.383 44.7943 164.666 44.7943C164.949 44.7943 165.091 44.8226 165.091 44.8793Z" fill="#F6D83E"/>
<path d="M118.69 44.8793C118.746 44.9359 118.775 45.2193 118.775 45.7293C118.775 46.1826 118.775 46.6926 118.775 47.2593C118.775 47.7126 118.775 48.1943 118.775 48.7043C118.831 49.1576 118.803 49.5259 118.69 49.8093C118.52 49.9226 118.236 49.9509 117.84 49.8943C117.5 49.8376 117.188 49.8659 116.905 49.9793L107.725 50.1493H105.685C105.175 50.0926 104.353 50.0643 103.22 50.0643C102.086 50.1209 101.265 50.1493 100.755 50.1493C100.301 50.1493 99.8196 50.1493 99.3096 50.1493C98.8563 50.2059 98.4029 50.2343 97.9496 50.2343C96.9863 50.1776 96.2779 50.1209 95.8246 50.0643C95.3713 50.0076 94.6629 50.0076 93.6996 50.0643C93.0196 50.1209 92.3396 50.1776 91.6596 50.2343C91.0363 50.2909 90.3846 50.3193 89.7046 50.3193H86.0496C85.5963 50.3193 85.0863 50.3193 84.5196 50.3193C83.9529 50.3193 83.2729 50.3476 82.4796 50.4043C82.1963 50.2909 81.5446 50.2059 80.5246 50.1493C79.5613 50.1493 78.7113 50.1493 77.9746 50.1493C77.6913 50.2059 77.4363 50.2059 77.2096 50.1493C76.9829 50.1493 76.7279 50.1493 76.4446 50.1493C76.2179 49.8659 76.0763 49.6959 76.0196 49.6393C76.0196 49.5826 76.0196 49.4409 76.0196 49.2143C76.0196 48.7609 76.0479 48.2793 76.1046 47.7693C76.1613 47.2593 76.1613 46.7776 76.1046 46.3243C76.1046 46.0409 76.0479 45.7859 75.9346 45.5593C75.8779 45.3326 75.8496 45.1626 75.8496 45.0493C75.8496 44.9926 75.9629 44.8509 76.1896 44.6243C76.4163 44.3409 76.6713 44.0576 76.9546 43.7743C77.2946 43.4343 77.6346 43.1226 77.9746 42.8393C78.3146 42.4993 78.6263 42.2443 78.9096 42.0743L80.7796 40.0343C81.5163 39.3543 82.1679 38.6459 82.7346 37.9093C83.3013 37.1726 83.9529 36.4643 84.6896 35.7843C85.3129 35.0476 85.9929 34.2543 86.7296 33.4043C87.5229 32.4976 88.2596 31.7043 88.9396 31.0243L91.6596 27.4543L95.8246 22.8643C96.1079 22.5809 96.4479 22.1559 96.8446 21.5893C97.2979 21.0226 97.6096 20.5693 97.7796 20.2293C97.8363 20.1159 98.0063 19.8893 98.2896 19.5493C98.6296 19.1526 98.9413 18.7559 99.2246 18.3593C99.5646 17.9059 99.8763 17.4809 100.16 17.0843C100.443 16.6876 100.613 16.4326 100.67 16.3193C100.726 16.2626 100.925 15.9793 101.265 15.4693C101.661 14.9593 102.058 14.4209 102.455 13.8543C102.908 13.2876 103.305 12.7776 103.645 12.3243C104.041 11.8143 104.268 11.5026 104.325 11.3893L104.835 10.2843C104.835 10.0009 104.693 9.88761 104.41 9.94427C104.183 9.94427 103.985 9.94427 103.815 9.94427C103.021 9.94427 102.285 9.97261 101.605 10.0293C100.925 10.0293 100.188 10.0293 99.3946 10.0293C98.2613 10.0293 97.1846 10.0293 96.1646 10.0293C95.1446 9.97261 94.1529 9.94427 93.1896 9.94427H84.1796C84.0663 9.94427 83.9813 9.91594 83.9246 9.85927C83.7546 9.80261 83.6696 9.68927 83.6696 9.51927C83.8396 8.7826 83.8679 7.98927 83.7546 7.13927C83.6413 6.28927 83.5846 5.49594 83.5846 4.75927C83.5846 4.30594 83.8396 4.07927 84.3496 4.07927H87.1546C87.5513 4.07927 88.0896 4.07927 88.7696 4.07927C89.4496 4.02261 90.1579 3.99427 90.8946 3.99427C91.6313 3.99427 92.3396 3.99427 93.0196 3.99427C93.6996 3.93761 94.2663 3.90927 94.7196 3.90927C95.2296 3.90927 95.7396 3.88094 96.2496 3.82427C96.8163 3.71094 97.3546 3.6826 97.8646 3.73927C98.3179 3.73927 98.7713 3.73927 99.2246 3.73927C99.7346 3.73927 100.216 3.7676 100.67 3.82427C101.463 3.82427 102.285 3.8526 103.135 3.90927C103.985 3.96594 104.835 3.96594 105.685 3.90927C105.798 3.90927 105.968 3.93761 106.195 3.99427C106.478 3.99427 106.676 3.99427 106.79 3.99427C107.64 4.16427 108.49 4.22094 109.34 4.16427C110.246 4.10761 111.125 4.07927 111.975 4.07927C112.598 4.13594 113.278 4.13594 114.015 4.07927C114.751 4.02261 115.318 4.05094 115.715 4.16427C116.281 4.27761 116.735 4.30594 117.075 4.24927C117.415 4.19261 117.726 4.16427 118.01 4.16427H118.435C118.491 4.22094 118.576 4.50428 118.69 5.01428V9.77427C118.236 10.2843 117.896 10.7376 117.67 11.1343C117.443 11.4743 117.046 11.8709 116.48 12.3243C116.366 12.4376 116.026 12.8626 115.46 13.5993C114.95 14.3359 114.326 15.1859 113.59 16.1493C112.853 17.0559 112.088 17.9909 111.295 18.9543C110.558 19.9176 109.963 20.7393 109.51 21.4193C109.34 21.7026 109 22.1276 108.49 22.6943C108.036 23.2609 107.526 23.8843 106.96 24.5643C106.45 25.1876 105.968 25.8109 105.515 26.4343C105.061 27.0009 104.75 27.3976 104.58 27.6243C103.956 28.7009 103.276 29.7209 102.54 30.6843C101.803 31.5909 101.066 32.5259 100.33 33.4893C99.8763 33.9426 99.4229 34.3959 98.9696 34.8493C98.5163 35.3026 98.0629 35.7559 97.6096 36.2093C97.2696 36.6626 96.9296 37.1443 96.5896 37.6543C96.3063 38.1076 95.9946 38.5609 95.6546 39.0143C94.9746 39.8076 94.3229 40.6293 93.6996 41.4793C93.1329 42.3293 92.5379 43.0659 91.9146 43.6893C92.3679 43.8026 92.9063 43.8876 93.5296 43.9443C94.2096 44.0009 94.6063 44.0009 94.7196 43.9443C95.0029 43.8309 95.3146 43.8309 95.6546 43.9443C96.448 44.0009 97.3829 44.0859 98.4596 44.1993C99.5929 44.3126 100.556 44.3976 101.35 44.4543C101.973 44.5109 102.71 44.5393 103.56 44.5393C104.41 44.5393 105.146 44.5393 105.77 44.5393H106.535C107.328 44.5959 108.065 44.6809 108.745 44.7943C109.425 44.9076 110.161 44.9076 110.955 44.7943C111.408 44.7376 111.89 44.7376 112.4 44.7943C112.91 44.7943 113.391 44.8226 113.845 44.8793H114.355C115.035 44.8793 115.545 44.8793 115.885 44.8793C116.281 44.8226 116.82 44.7943 117.5 44.7943C117.726 44.7943 117.981 44.7943 118.265 44.7943C118.548 44.7943 118.69 44.8226 118.69 44.8793Z" fill="#F6D83E"/>
<path d="M33.1877 40.205C33.5843 39.0717 33.981 37.9667 34.3777 36.89C34.831 35.7567 35.256 34.6233 35.6527 33.49C35.936 32.64 36.3043 31.79 36.7577 30.94C37.211 30.09 37.6077 29.325 37.9477 28.645C38.231 27.6817 38.5143 26.9167 38.7977 26.35C39.1377 25.7267 39.336 25.33 39.3927 25.16C39.3927 25.0467 39.506 24.7633 39.7327 24.31C40.016 23.8567 40.3277 23.12 40.6677 22.1C40.8377 21.59 40.9793 21.0517 41.0927 20.485C41.2627 19.9183 41.461 19.38 41.6877 18.87L43.7277 13.94C43.9543 13.3167 44.096 12.8633 44.1527 12.58C44.266 12.24 44.351 11.9567 44.4077 11.73C44.4643 11.5033 44.521 11.2483 44.5777 10.965C44.6343 10.6817 44.8043 10.2283 45.0877 9.605C45.371 8.98166 45.5977 8.38667 45.7677 7.82C45.9943 7.25333 46.2493 6.65833 46.5327 6.035C46.646 5.695 46.7593 5.355 46.8727 5.015C46.986 4.675 47.0993 4.335 47.2127 3.995C47.3827 3.54166 47.5243 3.145 47.6377 2.805C47.751 2.465 47.8643 2.06833 47.9777 1.615C48.091 1.50166 48.176 1.36 48.2327 1.19C48.2893 0.963332 48.4027 0.708332 48.5727 0.424999C48.9127 0.198332 49.196 0.0849991 49.4227 0.0849991C49.6493 0.0283331 49.876 0 50.1027 0H54.0127C54.126 0.226667 54.1827 0.453333 54.1827 0.679996C54.1827 0.849998 54.2393 1.04833 54.3527 1.275L54.6927 2.55L54.9477 3.23L55.8827 5.865L57.4127 10.2L58.0077 11.305C58.121 11.4183 58.2343 11.6733 58.3477 12.07C58.461 12.41 58.631 12.8633 58.8577 13.43C59.141 14.1667 59.4243 15.0167 59.7077 15.98C60.0477 16.8867 60.3593 17.7933 60.6427 18.7C61.0393 20.1167 61.351 21.165 61.5777 21.845C61.861 22.525 62.1443 23.2333 62.4277 23.97C62.5977 24.1967 62.711 24.4517 62.7677 24.735C62.8243 25.0183 62.9093 25.3017 63.0227 25.585L64.1277 29.07L65.5727 32.13C65.7427 32.64 65.9127 33.15 66.0827 33.66C66.3093 34.1133 66.5643 34.5667 66.8477 35.02C67.301 36.1533 67.6693 37.2017 67.9527 38.165C68.236 39.0717 68.6043 40.0917 69.0577 41.225C69.2843 41.735 69.511 42.2167 69.7377 42.67C70.021 43.1233 70.2477 43.605 70.4177 44.115C70.531 44.3983 70.6443 44.6817 70.7577 44.965C70.871 45.2483 70.9843 45.5317 71.0977 45.815C71.381 46.325 71.6077 46.8633 71.7777 47.43C72.0043 47.94 72.2593 48.5067 72.5427 49.13C72.656 49.47 72.7977 49.81 72.9677 50.15C73.1377 50.49 73.251 50.8017 73.3077 51.085C73.0243 51.085 72.741 51.0567 72.4577 51C72.1743 50.9433 71.9193 50.915 71.6927 50.915H70.2477C69.7377 50.915 69.2843 50.915 68.8877 50.915C68.491 50.9717 68.151 51 67.8677 51C67.5843 50.32 67.1593 49.6683 66.5927 49.045C66.0827 48.365 65.5443 47.5433 64.9777 46.58C64.8643 46.2967 64.751 46.0417 64.6377 45.815C64.5243 45.5883 64.411 45.3617 64.2977 45.135C64.1843 44.795 63.8443 44.3133 63.2777 43.69C62.7677 43.0667 62.4843 42.585 62.4277 42.245C61.9743 41.735 61.6343 41.3383 61.4077 41.055C61.2377 40.715 61.011 40.4033 60.7277 40.12C60.501 40.12 60.2177 40.12 59.8777 40.12C59.5377 40.0633 59.226 40.0067 58.9427 39.95C58.6027 39.8933 58.2343 39.865 57.8377 39.865H55.7977C55.5143 39.865 55.2027 39.8933 54.8627 39.95C54.5793 39.95 54.126 39.9783 53.5027 40.035C52.8793 40.035 52.0293 40.0633 50.9527 40.12C49.876 40.12 48.431 40.12 46.6177 40.12H46.0227C45.5693 40.12 45.201 40.1767 44.9177 40.29C44.691 40.3467 44.351 40.29 43.8977 40.12C43.7277 40.0067 43.3027 39.9783 42.6227 40.035C41.9993 40.0917 41.5743 40.1483 41.3477 40.205L40.2427 40.29L39.8177 40.885C39.7043 41.225 39.506 41.6217 39.2227 42.075C38.9393 42.5283 38.656 42.9817 38.3727 43.435C38.0893 43.8883 37.806 44.3417 37.5227 44.795C37.296 45.2483 37.126 45.6167 37.0127 45.9L36.4177 47.43L34.2927 51.34C34.1793 51.5667 34.0093 51.68 33.7827 51.68C33.556 51.68 33.386 51.7367 33.2727 51.85H28.9377C28.711 51.6233 28.5977 51.4817 28.5977 51.425C28.5977 51.3683 28.711 51.1983 28.9377 50.915C28.9377 50.6883 29.0227 50.3483 29.1927 49.895C29.3627 49.4983 29.4477 49.1867 29.4477 48.96C29.731 48.5067 29.9577 48.0533 30.1277 47.6C30.3543 47.09 30.581 46.6083 30.8077 46.155L33.1877 40.205ZM51.0377 19.125C50.7543 19.2383 50.556 19.38 50.4427 19.55C50.3293 19.72 50.216 19.9183 50.1027 20.145C49.876 20.9383 49.5643 21.7317 49.1677 22.525C48.8277 23.2617 48.4877 24.0267 48.1477 24.82C47.8643 25.3867 47.581 25.925 47.2977 26.435C47.0143 26.8883 46.7593 27.3983 46.5327 27.965C46.0227 29.0983 45.5127 30.2317 45.0027 31.365C44.4927 32.4417 43.926 33.5183 43.3027 34.595H43.8127C44.266 34.595 44.6627 34.6233 45.0027 34.68C45.3993 34.7367 45.796 34.7083 46.1927 34.595C46.5327 34.4817 46.8443 34.4533 47.1277 34.51C47.4677 34.5667 47.7793 34.595 48.0627 34.595C49.026 34.595 50.0177 34.595 51.0377 34.595C52.0577 34.5383 53.191 34.5667 54.4377 34.68C55.061 34.7367 55.6277 34.7367 56.1377 34.68C56.7043 34.6233 57.271 34.595 57.8377 34.595H58.6027C58.546 34.3683 58.461 34.1983 58.3477 34.085C58.291 33.915 58.206 33.745 58.0927 33.575C57.866 33.1217 57.611 32.725 57.3277 32.385C57.101 32.045 56.9027 31.62 56.7327 31.11L53.7577 25.16C53.6443 24.8767 53.531 24.5083 53.4177 24.055L51.0377 19.125Z" fill="#F6D83E"/>
<path d="M24.99 22.7791C24.5367 23.5725 24.0833 24.2525 23.63 24.8191C23.2333 25.3858 22.695 26.0091 22.015 26.6891C21.5617 27.0858 21.0233 27.5108 20.4 27.9641C19.7767 28.3608 19.1533 28.7575 18.53 29.1541C17.9067 29.5508 17.3117 29.8908 16.745 30.1741C16.235 30.4008 15.8667 30.5141 15.64 30.5141C14.7333 30.6275 13.855 30.7975 13.005 31.0241C12.2117 31.1941 11.39 31.2791 10.54 31.2791C10.2567 31.3925 9.91667 31.4208 9.52 31.3641C9.12333 31.3075 8.69833 31.2791 8.245 31.2791H7.31C7.25333 31.9591 7.19667 32.7241 7.14 33.5741C7.08333 34.3675 6.99833 35.2175 6.885 36.1241C6.82833 37.0308 6.74333 37.9091 6.63 38.7591C6.57333 39.5525 6.545 40.2891 6.545 40.9691C6.48833 41.9325 6.375 42.9241 6.205 43.9441C6.035 44.9641 5.97833 45.8708 6.035 46.6641C6.035 46.8908 6.00667 47.3158 5.95 47.9391C5.95 48.5058 5.92167 49.1008 5.865 49.7241C5.865 50.3475 5.83667 50.8858 5.78 51.3391C5.72333 51.7925 5.695 52.0191 5.695 52.0191C5.41167 52.3025 5.015 52.4441 4.505 52.4441C3.995 52.4441 3.51333 52.5291 3.06 52.6991C2.43667 52.6991 1.89833 52.7275 1.445 52.7841C0.991667 52.8408 0.538333 52.8691 0.085 52.8691C0.141667 52.1891 0.17 51.3675 0.17 50.4041C0.17 49.4408 0.17 48.4208 0.17 47.3441C0.17 46.2675 0.141667 45.1908 0.085 44.1141C0.085 43.0375 0.085 42.0458 0.085 41.1391C0.085 40.3458 0.141667 39.4675 0.255 38.5041C0.368333 37.5408 0.396666 36.6058 0.34 35.6991V28.8991C0.396666 28.4458 0.396666 27.8791 0.34 27.1991C0.283333 26.4625 0.255 25.8675 0.255 25.4141C0.141667 23.8275 0.113333 22.2125 0.17 20.5691C0.283333 18.9258 0.283333 17.4808 0.17 16.2341C0.0566665 15.4408 0 14.6191 0 13.7691C0.0566667 12.9191 0.085 12.0975 0.085 11.3041C0.085 10.2275 0.0566667 9.17914 0 8.15914C0 7.08247 0.0283334 5.97747 0.085 4.84414C0.085 4.27747 0.085 3.71081 0.085 3.14414C0.141667 2.57747 0.141667 2.03914 0.085 1.52914C0.368333 1.24581 0.68 1.10414 1.02 1.10414C1.36 1.04747 1.64333 1.01914 1.87 1.01914C2.55 0.905806 3.34333 0.84914 4.25 0.84914C5.15667 0.792474 6.09167 0.792474 7.055 0.84914C8.075 0.84914 9.03833 0.877473 9.945 0.934139C10.9083 0.990805 11.73 1.0758 12.41 1.18914C13.0333 1.24581 13.685 1.35914 14.365 1.52914C15.045 1.64247 15.7817 1.75581 16.575 1.86914C17.255 1.98247 17.7933 2.09581 18.19 2.20914C19.6633 3.00247 20.9667 3.85247 22.1 4.75914C23.2333 5.66581 24.14 6.71414 24.82 7.90414C25.16 8.41414 25.4717 9.03747 25.755 9.77414C26.095 10.4541 26.3217 11.2475 26.435 12.1541V17.8491C26.3217 18.5291 26.1233 19.3508 25.84 20.3141C25.6133 21.2775 25.33 22.0991 24.99 22.7791ZM15.98 19.8041C16.2633 18.1041 16.2917 16.4325 16.065 14.7891C15.895 13.1458 15.6683 11.9275 15.385 11.1341C15.3283 10.9641 15.1867 10.7375 14.96 10.4541C14.79 10.1708 14.535 9.85914 14.195 9.51914C13.855 9.17914 13.4583 8.86747 13.005 8.58414C12.6083 8.30081 12.2117 8.10247 11.815 7.98914L10.88 7.81914C9.29333 7.36581 7.93333 7.16747 6.8 7.22414C6.8 7.79081 6.77167 8.38581 6.715 9.00914C6.715 9.57581 6.715 10.1708 6.715 10.7941C6.715 11.9275 6.715 13.0608 6.715 14.1941C6.715 15.3275 6.65833 16.3191 6.545 17.1691C6.60167 18.1325 6.63 18.9541 6.63 19.6341C6.68667 20.2575 6.715 21.0508 6.715 22.0141C6.715 22.2975 6.68667 22.6658 6.63 23.1191C6.63 23.5158 6.63 23.9408 6.63 24.3941C6.63 24.7908 6.63 25.1591 6.63 25.4991C6.63 25.8391 6.65833 26.0375 6.715 26.0941C7.33833 26.3208 8.5 26.2925 10.2 26.0091C10.4833 25.9525 10.9933 25.8108 11.73 25.5841C12.5233 25.3008 13.175 24.9041 13.685 24.3941C14.2517 23.8275 14.705 23.1475 15.045 22.3541C15.385 21.5041 15.6967 20.6541 15.98 19.8041Z" fill="#F6D83E"/>
</svg>
