<svg width="233" height="233" viewBox="0 0 233 233" fill="none" xmlns="http://www.w3.org/2000/svg">
<rect width="232.21" height="232.21" fill="#11223A"/>
<path d="M17.2344 203.864H19.0547L19.7891 201.177H17.9766L18.2188 200.271H20.0312L20.9609 196.771H22.125L21.1797 200.271H22.9062L23.8672 196.771H25.0156L24.0703 200.271H25.8828L25.6406 201.177H23.8281L23.0859 203.864H24.9062L24.6641 204.771H22.8672L21.9062 208.247H20.7578L21.7031 204.771H19.9609L19.0312 208.247H17.8672L18.8125 204.771H17L17.2344 203.864ZM21.9219 203.864L22.6641 201.177H20.9375L20.2188 203.864H21.9219ZM27.4375 200.325V199.247C28.4531 199.148 29.1615 198.984 29.5625 198.755C29.9635 198.521 30.263 197.971 30.4609 197.106H31.5703V208.247H30.0703V200.325H27.4375ZM35.1562 200.325V199.247C36.1719 199.148 36.8802 198.984 37.2812 198.755C37.6823 198.521 37.9818 197.971 38.1797 197.106H39.2891V208.247H37.7891V200.325H35.1562ZM43.0312 208.247C43.0833 207.284 43.2812 206.445 43.625 205.731C43.974 205.018 44.651 204.369 45.6562 203.786L47.1562 202.919C47.8281 202.528 48.2995 202.195 48.5703 201.919C48.9974 201.487 49.2109 200.992 49.2109 200.435C49.2109 199.784 49.0156 199.268 48.625 198.888C48.2344 198.502 47.7135 198.31 47.0625 198.31C46.099 198.31 45.4323 198.674 45.0625 199.403C44.8646 199.794 44.7552 200.336 44.7344 201.028H43.3047C43.3203 200.054 43.5 199.26 43.8438 198.646C44.4531 197.562 45.5286 197.021 47.0703 197.021C48.3516 197.021 49.2865 197.367 49.875 198.06C50.4688 198.752 50.7656 199.523 50.7656 200.372C50.7656 201.268 50.4505 202.034 49.8203 202.669C49.4557 203.039 48.8021 203.487 47.8594 204.013L46.7891 204.606C46.2786 204.888 45.8776 205.156 45.5859 205.411C45.0651 205.864 44.737 206.367 44.6016 206.919H50.7109V208.247H43.0312ZM51.9375 208.247C51.9896 207.284 52.1875 206.445 52.5312 205.731C52.8802 205.018 53.5573 204.369 54.5625 203.786L56.0625 202.919C56.7344 202.528 57.2057 202.195 57.4766 201.919C57.9036 201.487 58.1172 200.992 58.1172 200.435C58.1172 199.784 57.9219 199.268 57.5312 198.888C57.1406 198.502 56.6198 198.31 55.9688 198.31C55.0052 198.31 54.3385 198.674 53.9688 199.403C53.7708 199.794 53.6615 200.336 53.6406 201.028H52.2109C52.2266 200.054 52.4062 199.26 52.75 198.646C53.3594 197.562 54.4349 197.021 55.9766 197.021C57.2578 197.021 58.1927 197.367 58.7812 198.06C59.375 198.752 59.6719 199.523 59.6719 200.372C59.6719 201.268 59.3568 202.034 58.7266 202.669C58.362 203.039 57.7083 203.487 56.7656 204.013L55.6953 204.606C55.1849 204.888 54.7839 205.156 54.4922 205.411C53.9714 205.864 53.6432 206.367 53.5078 206.919H59.6172V208.247H51.9375ZM64.5 208.552C63.1771 208.552 62.2161 208.19 61.6172 207.466C61.0234 206.737 60.7266 205.851 60.7266 204.81H62.1953C62.2578 205.534 62.3932 206.06 62.6016 206.388C62.9661 206.976 63.625 207.271 64.5781 207.271C65.3177 207.271 65.9115 207.073 66.3594 206.677C66.8073 206.281 67.0312 205.771 67.0312 205.146C67.0312 204.375 66.7943 203.836 66.3203 203.528C65.8516 203.221 65.1979 203.067 64.3594 203.067C64.2656 203.067 64.1693 203.07 64.0703 203.075C63.9766 203.075 63.8802 203.078 63.7812 203.083V201.841C63.9271 201.856 64.0495 201.867 64.1484 201.872C64.2474 201.877 64.3542 201.88 64.4688 201.88C64.9948 201.88 65.4271 201.797 65.7656 201.63C66.3594 201.338 66.6562 200.817 66.6562 200.067C66.6562 199.51 66.4583 199.08 66.0625 198.778C65.6667 198.476 65.2057 198.325 64.6797 198.325C63.7422 198.325 63.0938 198.638 62.7344 199.263C62.5365 199.606 62.4245 200.096 62.3984 200.731H61.0078C61.0078 199.898 61.1745 199.19 61.5078 198.606C62.0807 197.565 63.0885 197.044 64.5312 197.044C65.6719 197.044 66.5547 197.299 67.1797 197.81C67.8047 198.315 68.1172 199.049 68.1172 200.013C68.1172 200.7 67.9323 201.257 67.5625 201.685C67.3333 201.95 67.0365 202.159 66.6719 202.31C67.2604 202.471 67.7188 202.784 68.0469 203.247C68.3802 203.705 68.5469 204.268 68.5469 204.935C68.5469 206.002 68.1953 206.872 67.4922 207.544C66.7891 208.216 65.7917 208.552 64.5 208.552ZM76.3594 203.544L74.6172 198.474L72.7656 203.544H76.3594ZM73.8047 196.771H75.5625L79.7266 208.247H78.0234L76.8594 204.81H72.3203L71.0781 208.247H69.4844L73.8047 196.771Z" fill="white"/>
</svg>
