<svg width="233" height="233" viewBox="0 0 233 233" fill="none" xmlns="http://www.w3.org/2000/svg">
<rect width="232.21" height="232.21" fill="#213C63"/>
<path d="M23.3042 203.864H25.1245L25.8589 201.177H24.0464L24.2886 200.271H26.1011L27.0308 196.771H28.1948L27.2495 200.271H28.9761L29.937 196.771H31.0854L30.1401 200.271H31.9526L31.7104 201.177H29.8979L29.1558 203.864H30.9761L30.7339 204.771H28.937L27.9761 208.247H26.8276L27.7729 204.771H26.0308L25.1011 208.247H23.937L24.8823 204.771H23.0698L23.3042 203.864ZM27.9917 203.864L28.7339 201.177H27.0073L26.2886 203.864H27.9917ZM32.4761 208.247C32.5282 207.284 32.7261 206.445 33.0698 205.731C33.4188 205.018 34.0959 204.369 35.1011 203.786L36.6011 202.919C37.2729 202.528 37.7443 202.195 38.0151 201.919C38.4422 201.487 38.6558 200.992 38.6558 200.435C38.6558 199.784 38.4604 199.268 38.0698 198.888C37.6792 198.502 37.1584 198.31 36.5073 198.31C35.5438 198.31 34.8771 198.674 34.5073 199.403C34.3094 199.794 34.2 200.336 34.1792 201.028H32.7495C32.7651 200.054 32.9448 199.26 33.2886 198.646C33.8979 197.562 34.9735 197.021 36.5151 197.021C37.7964 197.021 38.7313 197.367 39.3198 198.06C39.9136 198.752 40.2104 199.523 40.2104 200.372C40.2104 201.268 39.8953 202.034 39.2651 202.669C38.9006 203.039 38.2469 203.487 37.3042 204.013L36.2339 204.606C35.7235 204.888 35.3224 205.156 35.0308 205.411C34.5099 205.864 34.1818 206.367 34.0464 206.919H40.1558V208.247H32.4761ZM42.4136 200.325V199.247C43.4292 199.148 44.1375 198.984 44.5386 198.755C44.9396 198.521 45.2391 197.971 45.437 197.106H46.5464V208.247H45.0464V200.325H42.4136ZM53.9448 208.552C52.6219 208.552 51.661 208.19 51.062 207.466C50.4683 206.737 50.1714 205.851 50.1714 204.81H51.6401C51.7026 205.534 51.8381 206.06 52.0464 206.388C52.411 206.976 53.0698 207.271 54.0229 207.271C54.7625 207.271 55.3563 207.073 55.8042 206.677C56.2521 206.281 56.4761 205.771 56.4761 205.146C56.4761 204.375 56.2391 203.836 55.7651 203.528C55.2964 203.221 54.6427 203.067 53.8042 203.067C53.7104 203.067 53.6141 203.07 53.5151 203.075C53.4214 203.075 53.325 203.078 53.2261 203.083V201.841C53.3719 201.856 53.4943 201.867 53.5933 201.872C53.6922 201.877 53.799 201.88 53.9136 201.88C54.4396 201.88 54.8719 201.797 55.2104 201.63C55.8042 201.338 56.1011 200.817 56.1011 200.067C56.1011 199.51 55.9032 199.08 55.5073 198.778C55.1115 198.476 54.6506 198.325 54.1245 198.325C53.187 198.325 52.5386 198.638 52.1792 199.263C51.9813 199.606 51.8693 200.096 51.8433 200.731H50.4526C50.4526 199.898 50.6193 199.19 50.9526 198.606C51.5256 197.565 52.5334 197.044 53.9761 197.044C55.1167 197.044 55.9995 197.299 56.6245 197.81C57.2495 198.315 57.562 199.049 57.562 200.013C57.562 200.7 57.3771 201.257 57.0073 201.685C56.7782 201.95 56.4813 202.159 56.1167 202.31C56.7052 202.471 57.1636 202.784 57.4917 203.247C57.825 203.705 57.9917 204.268 57.9917 204.935C57.9917 206.002 57.6401 206.872 56.937 207.544C56.2339 208.216 55.2365 208.552 53.9448 208.552ZM64.7495 196.458C66.2026 196.458 67.3302 196.841 68.1323 197.606C68.9344 198.372 69.3797 199.242 69.4683 200.216H67.9526C67.7808 199.476 67.437 198.89 66.9214 198.458C66.411 198.026 65.6922 197.81 64.7651 197.81C63.6349 197.81 62.7209 198.208 62.0229 199.005C61.3302 199.797 60.9839 201.013 60.9839 202.653C60.9839 203.997 61.2964 205.088 61.9214 205.927C62.5516 206.76 63.4891 207.177 64.7339 207.177C65.8797 207.177 66.7521 206.737 67.3511 205.856C67.6688 205.393 67.9058 204.784 68.062 204.028H69.5776C69.4422 205.237 68.9943 206.25 68.2339 207.067C67.3224 208.052 66.0933 208.544 64.5464 208.544C63.2131 208.544 62.0933 208.14 61.187 207.333C59.9943 206.265 59.3979 204.617 59.3979 202.388C59.3979 200.695 59.8459 199.307 60.7417 198.224C61.7104 197.047 63.0464 196.458 64.7495 196.458ZM74.937 197.013C76.187 197.013 77.0568 197.338 77.5464 197.989C78.0412 198.635 78.2886 199.302 78.2886 199.989H76.8979C76.8146 199.547 76.6818 199.2 76.4995 198.95C76.161 198.481 75.6479 198.247 74.9604 198.247C74.174 198.247 73.549 198.612 73.0854 199.341C72.6219 200.065 72.3641 201.104 72.312 202.458C72.6349 201.984 73.0412 201.63 73.5308 201.396C73.9787 201.187 74.4787 201.083 75.0308 201.083C75.9683 201.083 76.786 201.382 77.4839 201.981C78.1818 202.58 78.5308 203.474 78.5308 204.661C78.5308 205.677 78.2 206.578 77.5386 207.364C76.8771 208.146 75.9344 208.536 74.7104 208.536C73.6636 208.536 72.7599 208.14 71.9995 207.349C71.2391 206.552 70.8589 205.213 70.8589 203.333C70.8589 201.942 71.0282 200.763 71.3667 199.794C72.0177 197.94 73.2078 197.013 74.937 197.013ZM74.8354 207.286C75.575 207.286 76.1271 207.039 76.4917 206.544C76.8615 206.044 77.0464 205.455 77.0464 204.778C77.0464 204.205 76.8823 203.661 76.5542 203.146C76.2261 202.625 75.6297 202.364 74.7651 202.364C74.161 202.364 73.6297 202.565 73.1714 202.966C72.7183 203.367 72.4917 203.971 72.4917 204.778C72.4917 205.487 72.6974 206.083 73.1089 206.567C73.5256 207.047 74.1011 207.286 74.8354 207.286ZM83.3198 208.552C81.9969 208.552 81.036 208.19 80.437 207.466C79.8433 206.737 79.5464 205.851 79.5464 204.81H81.0151C81.0776 205.534 81.2131 206.06 81.4214 206.388C81.786 206.976 82.4448 207.271 83.3979 207.271C84.1375 207.271 84.7313 207.073 85.1792 206.677C85.6271 206.281 85.8511 205.771 85.8511 205.146C85.8511 204.375 85.6141 203.836 85.1401 203.528C84.6714 203.221 84.0177 203.067 83.1792 203.067C83.0854 203.067 82.9891 203.07 82.8901 203.075C82.7964 203.075 82.7 203.078 82.6011 203.083V201.841C82.7469 201.856 82.8693 201.867 82.9683 201.872C83.0672 201.877 83.174 201.88 83.2886 201.88C83.8146 201.88 84.2469 201.797 84.5854 201.63C85.1792 201.338 85.4761 200.817 85.4761 200.067C85.4761 199.51 85.2782 199.08 84.8823 198.778C84.4865 198.476 84.0256 198.325 83.4995 198.325C82.562 198.325 81.9136 198.638 81.5542 199.263C81.3563 199.606 81.2443 200.096 81.2183 200.731H79.8276C79.8276 199.898 79.9943 199.19 80.3276 198.606C80.9006 197.565 81.9084 197.044 83.3511 197.044C84.4917 197.044 85.3745 197.299 85.9995 197.81C86.6245 198.315 86.937 199.049 86.937 200.013C86.937 200.7 86.7521 201.257 86.3823 201.685C86.1532 201.95 85.8563 202.159 85.4917 202.31C86.0802 202.471 86.5386 202.784 86.8667 203.247C87.2 203.705 87.3667 204.268 87.3667 204.935C87.3667 206.002 87.0151 206.872 86.312 207.544C85.6089 208.216 84.6115 208.552 83.3198 208.552Z" fill="white"/>
</svg>
