<svg width="233" height="233" viewBox="0 0 233 233" fill="none" xmlns="http://www.w3.org/2000/svg">
<rect width="232.21" height="232.21" fill="#4371CF"/>
<path d="M23.374 203.864H25.1943L25.9287 201.177H24.1162L24.3584 200.271H26.1709L27.1006 196.771H28.2646L27.3193 200.271H29.0459L30.0068 196.771H31.1553L30.21 200.271H32.0225L31.7803 201.177H29.9678L29.2256 203.864H31.0459L30.8037 204.771H29.0068L28.0459 208.247H26.8975L27.8428 204.771H26.1006L25.1709 208.247H24.0068L24.9521 204.771H23.1396L23.374 203.864ZM28.0615 203.864L28.8037 201.177H27.0771L26.3584 203.864H28.0615ZM37.335 204.286V199.216L33.749 204.286H37.335ZM37.3584 208.247V205.513H32.4521V204.138L37.5771 197.028H38.7646V204.286H40.4131V205.513H38.7646V208.247H37.3584ZM45.1084 208.552C43.7855 208.552 42.8245 208.19 42.2256 207.466C41.6318 206.737 41.335 205.851 41.335 204.81H42.8037C42.8662 205.534 43.0016 206.06 43.21 206.388C43.5745 206.976 44.2334 207.271 45.1865 207.271C45.9261 207.271 46.5199 207.073 46.9678 206.677C47.4157 206.281 47.6396 205.771 47.6396 205.146C47.6396 204.375 47.4027 203.836 46.9287 203.528C46.46 203.221 45.8063 203.067 44.9678 203.067C44.874 203.067 44.7777 203.07 44.6787 203.075C44.585 203.075 44.4886 203.078 44.3896 203.083V201.841C44.5355 201.856 44.6579 201.867 44.7568 201.872C44.8558 201.877 44.9626 201.88 45.0771 201.88C45.6032 201.88 46.0355 201.797 46.374 201.63C46.9678 201.338 47.2646 200.817 47.2646 200.067C47.2646 199.51 47.0667 199.08 46.6709 198.778C46.2751 198.476 45.8141 198.325 45.2881 198.325C44.3506 198.325 43.7021 198.638 43.3428 199.263C43.1449 199.606 43.0329 200.096 43.0068 200.731H41.6162C41.6162 199.898 41.7829 199.19 42.1162 198.606C42.6891 197.565 43.6969 197.044 45.1396 197.044C46.2803 197.044 47.1631 197.299 47.7881 197.81C48.4131 198.315 48.7256 199.049 48.7256 200.013C48.7256 200.7 48.5407 201.257 48.1709 201.685C47.9417 201.95 47.6449 202.159 47.2803 202.31C47.8688 202.471 48.3271 202.784 48.6553 203.247C48.9886 203.705 49.1553 204.268 49.1553 204.935C49.1553 206.002 48.8037 206.872 48.1006 207.544C47.3975 208.216 46.4001 208.552 45.1084 208.552ZM58.2256 197.247V198.474C57.8662 198.823 57.387 199.429 56.7881 200.294C56.1943 201.159 55.6683 202.091 55.21 203.091C54.7568 204.065 54.4131 204.953 54.1787 205.755C54.0277 206.271 53.8324 207.101 53.5928 208.247H52.0381C52.3923 206.112 53.1735 203.987 54.3818 201.872C55.0954 200.632 55.8454 199.562 56.6318 198.661H50.4443V197.247H58.2256ZM60.2959 200.325V199.247C61.3115 199.148 62.0199 198.984 62.4209 198.755C62.8219 198.521 63.1214 197.971 63.3193 197.106H64.4287V208.247H62.9287V200.325H60.2959ZM73.7256 196.458C75.1787 196.458 76.3063 196.841 77.1084 197.606C77.9105 198.372 78.3558 199.242 78.4443 200.216H76.9287C76.7568 199.476 76.4131 198.89 75.8975 198.458C75.387 198.026 74.6683 197.81 73.7412 197.81C72.611 197.81 71.6969 198.208 70.999 199.005C70.3063 199.797 69.96 201.013 69.96 202.653C69.96 203.997 70.2725 205.088 70.8975 205.927C71.5277 206.76 72.4652 207.177 73.71 207.177C74.8558 207.177 75.7282 206.737 76.3271 205.856C76.6449 205.393 76.8818 204.784 77.0381 204.028H78.5537C78.4183 205.237 77.9704 206.25 77.21 207.067C76.2985 208.052 75.0693 208.544 73.5225 208.544C72.1891 208.544 71.0693 208.14 70.1631 207.333C68.9704 206.265 68.374 204.617 68.374 202.388C68.374 200.695 68.8219 199.307 69.7178 198.224C70.6865 197.047 72.0225 196.458 73.7256 196.458ZM80.6006 196.771H88.5615V198.177H82.1553V201.661H87.7881V203.028H82.1553V208.247H80.6006V196.771Z" fill="white"/>
</svg>
