<svg width="233" height="233" viewBox="0 0 233 233" fill="none" xmlns="http://www.w3.org/2000/svg">
<rect width="232.21" height="232.21" fill="#DCB658"/>
<path d="M23.4443 203.864H25.2646L25.999 201.177H24.1865L24.4287 200.271H26.2412L27.1709 196.771H28.335L27.3896 200.271H29.1162L30.0771 196.771H31.2256L30.2803 200.271H32.0928L31.8506 201.177H30.0381L29.2959 203.864H31.1162L30.874 204.771H29.0771L28.1162 208.247H26.9678L27.9131 204.771H26.1709L25.2412 208.247H24.0771L25.0225 204.771H23.21L23.4443 203.864ZM28.1318 203.864L28.874 201.177H27.1475L26.4287 203.864H28.1318ZM37.7412 206.919C38.2673 206.919 38.6995 206.864 39.0381 206.755C39.6423 206.552 40.137 206.161 40.5225 205.583C40.8298 205.119 41.0511 204.526 41.1865 203.802C41.2646 203.369 41.3037 202.968 41.3037 202.599C41.3037 201.177 41.0199 200.073 40.4521 199.286C39.8896 198.5 38.9808 198.106 37.7256 198.106H34.9678V206.919H37.7412ZM33.4053 196.771H38.0537C39.6318 196.771 40.8558 197.33 41.7256 198.45C42.5016 199.461 42.8896 200.755 42.8896 202.333C42.8896 203.552 42.6605 204.653 42.2021 205.638C41.3949 207.377 40.0068 208.247 38.0381 208.247H33.4053V196.771ZM49.7334 196.458C51.1865 196.458 52.3141 196.841 53.1162 197.606C53.9183 198.372 54.3636 199.242 54.4521 200.216H52.9365C52.7646 199.476 52.4209 198.89 51.9053 198.458C51.3949 198.026 50.6761 197.81 49.749 197.81C48.6188 197.81 47.7048 198.208 47.0068 199.005C46.3141 199.797 45.9678 201.013 45.9678 202.653C45.9678 203.997 46.2803 205.088 46.9053 205.927C47.5355 206.76 48.473 207.177 49.7178 207.177C50.8636 207.177 51.736 206.737 52.335 205.856C52.6527 205.393 52.8896 204.784 53.0459 204.028H54.5615C54.4261 205.237 53.9782 206.25 53.2178 207.067C52.3063 208.052 51.0771 208.544 49.5303 208.544C48.1969 208.544 47.0771 208.14 46.1709 207.333C44.9782 206.265 44.3818 204.617 44.3818 202.388C44.3818 200.695 44.8298 199.307 45.7256 198.224C46.6943 197.047 48.0303 196.458 49.7334 196.458ZM60.7725 201.622C61.4287 201.622 61.9391 201.531 62.3037 201.349C62.8766 201.062 63.1631 200.547 63.1631 199.802C63.1631 199.052 62.8584 198.547 62.249 198.286C61.9053 198.14 61.3949 198.067 60.7178 198.067H57.9443V201.622H60.7725ZM61.2959 206.919C62.249 206.919 62.9287 206.643 63.335 206.091C63.5902 205.742 63.7178 205.32 63.7178 204.825C63.7178 203.992 63.3454 203.424 62.6006 203.122C62.2048 202.961 61.6813 202.88 61.0303 202.88H57.9443V206.919H61.2959ZM56.4209 196.771H61.3506C62.6943 196.771 63.6501 197.172 64.2178 197.974C64.5511 198.448 64.7178 198.994 64.7178 199.614C64.7178 200.338 64.512 200.932 64.1006 201.396C63.887 201.64 63.5798 201.864 63.1787 202.067C63.7673 202.291 64.2074 202.544 64.499 202.825C65.0146 203.325 65.2725 204.015 65.2725 204.896C65.2725 205.635 65.0407 206.304 64.5771 206.903C63.8844 207.799 62.7829 208.247 61.2725 208.247H56.4209V196.771ZM70.5928 197.013C71.8428 197.013 72.7126 197.338 73.2021 197.989C73.6969 198.635 73.9443 199.302 73.9443 199.989H72.5537C72.4704 199.547 72.3376 199.2 72.1553 198.95C71.8167 198.481 71.3037 198.247 70.6162 198.247C69.8298 198.247 69.2048 198.612 68.7412 199.341C68.2777 200.065 68.0199 201.104 67.9678 202.458C68.2907 201.984 68.6969 201.63 69.1865 201.396C69.6344 201.187 70.1344 201.083 70.6865 201.083C71.624 201.083 72.4417 201.382 73.1396 201.981C73.8376 202.58 74.1865 203.474 74.1865 204.661C74.1865 205.677 73.8558 206.578 73.1943 207.364C72.5329 208.146 71.5902 208.536 70.3662 208.536C69.3193 208.536 68.4157 208.14 67.6553 207.349C66.8949 206.552 66.5146 205.213 66.5146 203.333C66.5146 201.942 66.6839 200.763 67.0225 199.794C67.6735 197.94 68.8636 197.013 70.5928 197.013ZM70.4912 207.286C71.2308 207.286 71.7829 207.039 72.1475 206.544C72.5173 206.044 72.7021 205.455 72.7021 204.778C72.7021 204.205 72.5381 203.661 72.21 203.146C71.8818 202.625 71.2855 202.364 70.4209 202.364C69.8167 202.364 69.2855 202.565 68.8271 202.966C68.374 203.367 68.1475 203.971 68.1475 204.778C68.1475 205.487 68.3532 206.083 68.7646 206.567C69.1813 207.047 69.7568 207.286 70.4912 207.286ZM76.7959 205.396C76.8896 206.198 77.262 206.752 77.9131 207.06C78.2464 207.216 78.6318 207.294 79.0693 207.294C79.9027 207.294 80.5199 207.028 80.9209 206.497C81.3219 205.966 81.5225 205.377 81.5225 204.731C81.5225 203.95 81.2829 203.346 80.8037 202.919C80.3298 202.492 79.7594 202.278 79.0928 202.278C78.6084 202.278 78.1917 202.372 77.8428 202.56C77.499 202.747 77.2048 203.007 76.96 203.341L75.7412 203.271L76.5928 197.247H82.4053V198.606H77.6475L77.1709 201.716C77.4313 201.518 77.6787 201.369 77.9131 201.271C78.3298 201.099 78.8115 201.013 79.3584 201.013C80.3844 201.013 81.2542 201.343 81.9678 202.005C82.6813 202.666 83.0381 203.505 83.0381 204.521C83.0381 205.578 82.71 206.51 82.0537 207.317C81.4027 208.125 80.361 208.528 78.9287 208.528C78.0173 208.528 77.21 208.273 76.5068 207.763C75.8089 207.247 75.4183 206.458 75.335 205.396H76.7959ZM88.0771 201.747C88.6969 201.747 89.1813 201.575 89.5303 201.231C89.8792 200.882 90.0537 200.468 90.0537 199.989C90.0537 199.573 89.887 199.19 89.5537 198.841C89.2204 198.492 88.7126 198.317 88.0303 198.317C87.3532 198.317 86.8636 198.492 86.5615 198.841C86.2594 199.19 86.1084 199.599 86.1084 200.067C86.1084 200.593 86.3037 201.005 86.6943 201.302C87.085 201.599 87.5459 201.747 88.0771 201.747ZM88.1631 207.286C88.8141 207.286 89.3532 207.112 89.7803 206.763C90.2126 206.409 90.4287 205.882 90.4287 205.185C90.4287 204.461 90.2074 203.911 89.7646 203.536C89.3219 203.161 88.7542 202.974 88.0615 202.974C87.3896 202.974 86.8402 203.166 86.4131 203.552C85.9912 203.932 85.7803 204.461 85.7803 205.138C85.7803 205.721 85.973 206.226 86.3584 206.653C86.749 207.075 87.3506 207.286 88.1631 207.286ZM86.1631 202.286C85.7725 202.119 85.4678 201.924 85.249 201.7C84.8376 201.284 84.6318 200.742 84.6318 200.075C84.6318 199.242 84.9339 198.526 85.5381 197.927C86.1423 197.328 86.999 197.028 88.1084 197.028C89.1813 197.028 90.0225 197.312 90.6318 197.88C91.2412 198.442 91.5459 199.101 91.5459 199.856C91.5459 200.554 91.3688 201.119 91.0146 201.552C90.8167 201.797 90.5094 202.036 90.0928 202.271C90.5563 202.484 90.9209 202.729 91.1865 203.005C91.6813 203.526 91.9287 204.203 91.9287 205.036C91.9287 206.021 91.598 206.856 90.9365 207.544C90.2751 208.226 89.3402 208.567 88.1318 208.567C87.0433 208.567 86.1214 208.273 85.3662 207.685C84.6162 207.091 84.2412 206.231 84.2412 205.106C84.2412 204.445 84.4027 203.875 84.7256 203.396C85.0485 202.911 85.5277 202.541 86.1631 202.286Z" fill="white"/>
</svg>
