<svg width="233" height="233" viewBox="0 0 233 233" fill="none" xmlns="http://www.w3.org/2000/svg">
<rect width="232.21" height="232.21" fill="#42240C"/>
<path d="M17.2344 204.01H19.0547L19.7891 201.322H17.9766L18.2188 200.416H20.0312L20.9609 196.916H22.125L21.1797 200.416H22.9062L23.8672 196.916H25.0156L24.0703 200.416H25.8828L25.6406 201.322H23.8281L23.0859 204.01H24.9062L24.6641 204.916H22.8672L21.9062 208.393H20.7578L21.7031 204.916H19.9609L19.0312 208.393H17.8672L18.8125 204.916H17L17.2344 204.01ZM21.9219 204.01L22.6641 201.322H20.9375L20.2188 204.01H21.9219ZM31.1953 204.432V199.361L27.6094 204.432H31.1953ZM31.2188 208.393V205.658H26.3125V204.283L31.4375 197.174H32.625V204.432H34.2734V205.658H32.625V208.393H31.2188ZM35.3125 208.393C35.3646 207.429 35.5625 206.59 35.9062 205.877C36.2552 205.163 36.9323 204.515 37.9375 203.932L39.4375 203.064C40.1094 202.674 40.5807 202.34 40.8516 202.064C41.2786 201.632 41.4922 201.137 41.4922 200.58C41.4922 199.929 41.2969 199.413 40.9062 199.033C40.5156 198.648 39.9948 198.455 39.3438 198.455C38.3802 198.455 37.7135 198.82 37.3438 199.549C37.1458 199.939 37.0365 200.481 37.0156 201.174H35.5859C35.6016 200.2 35.7812 199.406 36.125 198.791C36.7344 197.708 37.8099 197.166 39.3516 197.166C40.6328 197.166 41.5677 197.512 42.1562 198.205C42.75 198.898 43.0469 199.669 43.0469 200.518C43.0469 201.413 42.7318 202.179 42.1016 202.814C41.737 203.184 41.0833 203.632 40.1406 204.158L39.0703 204.752C38.5599 205.033 38.1589 205.301 37.8672 205.557C37.3464 206.01 37.0182 206.512 36.8828 207.064H42.9922V208.393H35.3125ZM44.2188 208.393C44.2708 207.429 44.4688 206.59 44.8125 205.877C45.1615 205.163 45.8385 204.515 46.8438 203.932L48.3438 203.064C49.0156 202.674 49.487 202.34 49.7578 202.064C50.1849 201.632 50.3984 201.137 50.3984 200.58C50.3984 199.929 50.2031 199.413 49.8125 199.033C49.4219 198.648 48.901 198.455 48.25 198.455C47.2865 198.455 46.6198 198.82 46.25 199.549C46.0521 199.939 45.9427 200.481 45.9219 201.174H44.4922C44.5078 200.2 44.6875 199.406 45.0312 198.791C45.6406 197.708 46.7161 197.166 48.2578 197.166C49.5391 197.166 50.474 197.512 51.0625 198.205C51.6562 198.898 51.9531 199.669 51.9531 200.518C51.9531 201.413 51.638 202.179 51.0078 202.814C50.6432 203.184 49.9896 203.632 49.0469 204.158L47.9766 204.752C47.4661 205.033 47.0651 205.301 46.7734 205.557C46.2526 206.01 45.9245 206.512 45.7891 207.064H51.8984V208.393H44.2188ZM57.9141 204.432V199.361L54.3281 204.432H57.9141ZM57.9375 208.393V205.658H53.0312V204.283L58.1562 197.174H59.3438V204.432H60.9922V205.658H59.3438V208.393H57.9375ZM65.8594 197.205C67.3073 197.205 68.3542 197.801 69 198.994C69.5 199.916 69.75 201.179 69.75 202.783C69.75 204.304 69.5234 205.562 69.0703 206.557C68.4141 207.984 67.3411 208.697 65.8516 208.697C64.5078 208.697 63.5078 208.114 62.8516 206.947C62.3047 205.973 62.0312 204.666 62.0312 203.025C62.0312 201.755 62.1953 200.663 62.5234 199.752C63.138 198.054 64.25 197.205 65.8594 197.205ZM65.8438 207.416C66.5729 207.416 67.1536 207.093 67.5859 206.447C68.0182 205.801 68.2344 204.598 68.2344 202.838C68.2344 201.567 68.0781 200.523 67.7656 199.705C67.4531 198.882 66.8464 198.471 65.9453 198.471C65.1172 198.471 64.5104 198.861 64.125 199.643C63.7448 200.419 63.5547 201.564 63.5547 203.08C63.5547 204.221 63.6771 205.137 63.9219 205.83C64.2969 206.887 64.9375 207.416 65.8438 207.416ZM76.4922 196.604C77.9453 196.604 79.0729 196.986 79.875 197.752C80.6771 198.518 81.1224 199.387 81.2109 200.361H79.6953C79.5234 199.622 79.1797 199.036 78.6641 198.604C78.1536 198.171 77.4349 197.955 76.5078 197.955C75.3776 197.955 74.4635 198.354 73.7656 199.15C73.0729 199.942 72.7266 201.158 72.7266 202.799C72.7266 204.143 73.0391 205.234 73.6641 206.072C74.2943 206.906 75.2318 207.322 76.4766 207.322C77.6224 207.322 78.4948 206.882 79.0938 206.002C79.4115 205.538 79.6484 204.929 79.8047 204.174H81.3203C81.1849 205.382 80.737 206.395 79.9766 207.213C79.0651 208.197 77.8359 208.689 76.2891 208.689C74.9557 208.689 73.8359 208.286 72.9297 207.479C71.737 206.411 71.1406 204.762 71.1406 202.533C71.1406 200.84 71.5885 199.452 72.4844 198.369C73.4531 197.192 74.7891 196.604 76.4922 196.604Z" fill="white"/>
</svg>
