<svg width="233" height="233" viewBox="0 0 233 233" fill="none" xmlns="http://www.w3.org/2000/svg">
<rect width="232.21" height="232.21" fill="#AA8B73"/>
<path d="M21.3042 204.01H23.1245L23.8589 201.322H22.0464L22.2886 200.416H24.1011L25.0308 196.916H26.1948L25.2495 200.416H26.9761L27.937 196.916H29.0854L28.1401 200.416H29.9526L29.7104 201.322H27.8979L27.1558 204.01H28.9761L28.7339 204.916H26.937L25.9761 208.393H24.8276L25.7729 204.916H24.0308L23.1011 208.393H21.937L22.8823 204.916H21.0698L21.3042 204.01ZM25.9917 204.01L26.7339 201.322H25.0073L24.2886 204.01H25.9917ZM37.0854 203.689L35.3433 198.619L33.4917 203.689H37.0854ZM34.5308 196.916H36.2886L40.4526 208.393H38.7495L37.5854 204.955H33.0464L31.8042 208.393H30.2104L34.5308 196.916ZM47.7573 203.689L46.0151 198.619L44.1636 203.689H47.7573ZM45.2026 196.916H46.9604L51.1245 208.393H49.4214L48.2573 204.955H43.7183L42.4761 208.393H40.8823L45.2026 196.916ZM55.6714 201.893C56.2912 201.893 56.7756 201.721 57.1245 201.377C57.4735 201.028 57.6479 200.614 57.6479 200.135C57.6479 199.718 57.4813 199.335 57.1479 198.986C56.8146 198.637 56.3068 198.463 55.6245 198.463C54.9474 198.463 54.4578 198.637 54.1558 198.986C53.8537 199.335 53.7026 199.744 53.7026 200.213C53.7026 200.739 53.8979 201.15 54.2886 201.447C54.6792 201.744 55.1401 201.893 55.6714 201.893ZM55.7573 207.432C56.4084 207.432 56.9474 207.257 57.3745 206.908C57.8068 206.554 58.0229 206.028 58.0229 205.33C58.0229 204.606 57.8016 204.057 57.3589 203.682C56.9162 203.307 56.3485 203.119 55.6558 203.119C54.9839 203.119 54.4344 203.312 54.0073 203.697C53.5854 204.077 53.3745 204.606 53.3745 205.283C53.3745 205.867 53.5672 206.372 53.9526 206.799C54.3433 207.221 54.9448 207.432 55.7573 207.432ZM53.7573 202.432C53.3667 202.265 53.062 202.07 52.8433 201.846C52.4318 201.429 52.2261 200.887 52.2261 200.221C52.2261 199.387 52.5282 198.671 53.1323 198.072C53.7365 197.473 54.5933 197.174 55.7026 197.174C56.7756 197.174 57.6167 197.458 58.2261 198.025C58.8354 198.588 59.1401 199.247 59.1401 200.002C59.1401 200.7 58.9631 201.265 58.6089 201.697C58.411 201.942 58.1037 202.182 57.687 202.416C58.1506 202.63 58.5151 202.874 58.7808 203.15C59.2756 203.671 59.5229 204.348 59.5229 205.182C59.5229 206.166 59.1922 207.002 58.5308 207.689C57.8693 208.372 56.9344 208.713 55.7261 208.713C54.6375 208.713 53.7157 208.419 52.9604 207.83C52.2104 207.236 51.8354 206.377 51.8354 205.252C51.8354 204.59 51.9969 204.02 52.3198 203.541C52.6427 203.057 53.1219 202.687 53.7573 202.432ZM65.7573 201.768C66.4136 201.768 66.924 201.676 67.2886 201.494C67.8615 201.208 68.1479 200.692 68.1479 199.947C68.1479 199.197 67.8433 198.692 67.2339 198.432C66.8901 198.286 66.3797 198.213 65.7026 198.213H62.9292V201.768H65.7573ZM66.2808 207.064C67.2339 207.064 67.9136 206.788 68.3198 206.236C68.575 205.887 68.7026 205.465 68.7026 204.971C68.7026 204.137 68.3302 203.57 67.5854 203.268C67.1896 203.106 66.6662 203.025 66.0151 203.025H62.9292V207.064H66.2808ZM61.4058 196.916H66.3354C67.6792 196.916 68.6349 197.317 69.2026 198.119C69.536 198.593 69.7026 199.14 69.7026 199.76C69.7026 200.484 69.4969 201.077 69.0854 201.541C68.8719 201.786 68.5646 202.01 68.1636 202.213C68.7521 202.437 69.1922 202.689 69.4839 202.971C69.9995 203.471 70.2573 204.161 70.2573 205.041C70.2573 205.781 70.0256 206.45 69.562 207.049C68.8693 207.945 67.7677 208.393 66.2573 208.393H61.4058V196.916ZM79.2651 197.393V198.619C78.9058 198.968 78.4266 199.575 77.8276 200.439C77.2339 201.304 76.7078 202.236 76.2495 203.236C75.7964 204.21 75.4526 205.098 75.2183 205.9C75.0672 206.416 74.8719 207.247 74.6323 208.393H73.0776C73.4318 206.257 74.2131 204.132 75.4214 202.018C76.1349 200.778 76.8849 199.708 77.6714 198.807H71.4839V197.393H79.2651ZM83.9604 208.697C82.6375 208.697 81.6766 208.335 81.0776 207.611C80.4839 206.882 80.187 205.997 80.187 204.955H81.6558C81.7183 205.679 81.8537 206.205 82.062 206.533C82.4266 207.122 83.0854 207.416 84.0386 207.416C84.7782 207.416 85.3719 207.218 85.8198 206.822C86.2677 206.426 86.4917 205.916 86.4917 205.291C86.4917 204.52 86.2547 203.981 85.7808 203.674C85.312 203.367 84.6584 203.213 83.8198 203.213C83.7261 203.213 83.6297 203.215 83.5308 203.221C83.437 203.221 83.3407 203.223 83.2417 203.229V201.986C83.3875 202.002 83.5099 202.012 83.6089 202.018C83.7078 202.023 83.8146 202.025 83.9292 202.025C84.4552 202.025 84.8875 201.942 85.2261 201.775C85.8198 201.484 86.1167 200.963 86.1167 200.213C86.1167 199.656 85.9188 199.226 85.5229 198.924C85.1271 198.622 84.6662 198.471 84.1401 198.471C83.2026 198.471 82.5542 198.783 82.1948 199.408C81.9969 199.752 81.8849 200.242 81.8589 200.877H80.4683C80.4683 200.044 80.6349 199.335 80.9683 198.752C81.5412 197.71 82.549 197.189 83.9917 197.189C85.1323 197.189 86.0151 197.445 86.6401 197.955C87.2651 198.46 87.5776 199.195 87.5776 200.158C87.5776 200.846 87.3927 201.403 87.0229 201.83C86.7938 202.096 86.4969 202.304 86.1323 202.455C86.7209 202.617 87.1792 202.929 87.5073 203.393C87.8407 203.851 88.0073 204.413 88.0073 205.08C88.0073 206.148 87.6558 207.018 86.9526 207.689C86.2495 208.361 85.2521 208.697 83.9604 208.697Z" fill="white"/>
</svg>
