<svg width="233" height="233" viewBox="0 0 233 233" fill="none" xmlns="http://www.w3.org/2000/svg">
<rect x="0.887373" y="0.887373" width="230.435" height="230.435" fill="white" stroke="black" stroke-width="1.77475"/>
<path d="M21.374 204.01H23.1943L23.9287 201.322H22.1162L22.3584 200.416H24.1709L25.1006 196.916H26.2646L25.3193 200.416H27.0459L28.0068 196.916H29.1553L28.21 200.416H30.0225L29.7803 201.322H27.9678L27.2256 204.01H29.0459L28.8037 204.916H27.0068L26.0459 208.393H24.8975L25.8428 204.916H24.1006L23.1709 208.393H22.0068L22.9521 204.916H21.1396L21.374 204.01ZM26.0615 204.01L26.8037 201.322H25.0771L24.3584 204.01H26.0615ZM31.4131 196.916H39.374V198.322H32.9678V201.807H38.6006V203.174H32.9678V208.393H31.4131V196.916ZM41.1943 196.916H49.1553V198.322H42.749V201.807H48.3818V203.174H42.749V208.393H41.1943V196.916ZM50.9756 196.916H58.9365V198.322H52.5303V201.807H58.1631V203.174H52.5303V208.393H50.9756V196.916ZM60.7568 196.916H68.7178V198.322H62.3115V201.807H67.9443V203.174H62.3115V208.393H60.7568V196.916ZM70.5381 196.916H78.499V198.322H72.0928V201.807H77.7256V203.174H72.0928V208.393H70.5381V196.916ZM80.3193 196.916H88.2803V198.322H81.874V201.807H87.5068V203.174H81.874V208.393H80.3193V196.916Z" fill="black"/>
</svg>
