<svg width="125" height="125" viewBox="0 0 125 125" fill="none" xmlns="http://www.w3.org/2000/svg">
<g clip-path="url(#clip0_334_2709)">
<path d="M52.8217 31.8271C55.7407 31.1168 55.1723 25.9998 59.3023 25.9998C65.2836 25.9998 62.9756 30.4979 66.7086 31.187C68.6315 31.5422 70.9103 26.2834 75.1108 28.2024C80.8969 30.8451 77.1758 34.6699 79.6685 36.0907C83.27 38.1449 84.8662 32.6091 89.1397 37.5829C92.477 41.4688 88.1424 43.5521 89.068 45.7548C90.5859 49.3663 95.4052 45.9682 96.9005 51.227C98.4304 56.6077 93.1941 56.6396 93.4823 59.3988C93.8382 62.8102 99.0359 61.6731 97.8979 67.6423C96.9882 72.4067 92.8488 69.9722 91.4172 73.5412C90.2778 76.384 96.0453 77.3793 91.8448 82.8502C88.813 86.7983 86.1358 82.7031 83.3709 85.0528C81.448 86.6869 85.6498 90.9518 80.5941 93.3678C76.0523 95.5387 73.8293 91.022 71.6221 91.9471C68.0684 93.4341 70.1985 98.0581 65.0711 98.0581C58.0925 98.0581 61.5838 93.8144 57.8083 93.226C53.9319 92.6217 54.3197 98.066 49.1206 95.8554C43.2615 93.3638 47.3398 90.1698 44.2787 88.109C42.2588 86.7492 38.3678 90.0983 35.8048 87.1853C31.1236 81.8641 37.255 80.9192 35.093 77.7332C33.0837 74.7737 29.2538 78.3017 27.5447 73.7533C25.23 67.5932 31.5326 67.2858 30.6774 64.4443C29.9895 62.1568 25.4956 60.2258 26.0493 57.6216C27.3309 51.5809 31.8168 53.4283 32.8859 50.5855C33.7464 48.2941 29.3972 45.7535 32.1023 41.9154C35.6614 36.8686 38.7251 41.205 40.648 38.9308C42.3372 36.9322 39.6507 32.7482 43.5669 30.7589C48.6385 28.1825 48.8563 32.7906 52.8244 31.8245L52.8217 31.8271Z" fill="#89AC5D"/>
</g>
<g clip-path="url(#clip1_334_2709)">
<path d="M60.3529 109.683C60.6481 107.069 60.9122 104.451 61.2505 101.843C61.4136 100.587 61.5327 99.3317 61.6078 98.0683C61.6501 97.3505 61.3575 96.9702 60.6809 96.8537C59.8532 96.7115 59.0238 96.571 58.1901 96.4734C56.8247 96.3132 55.4577 96.1548 54.0863 96.0631C53.4536 96.0211 53.0161 95.664 52.5362 95.3633C52.3032 95.2177 52.1711 94.9145 52.3446 94.6764C53.2284 93.4618 53.0368 91.9037 53.6858 90.6155C53.7885 90.4116 53.7876 90.0956 54.0819 90.159C54.5143 90.2523 54.258 90.6275 54.1881 90.7937C53.6642 92.0356 53.4174 93.3633 52.9375 94.6156C52.84 94.8708 52.9444 94.9633 53.0843 95.1243C53.3587 95.4387 53.716 95.4927 54.0958 95.5363C56.1904 95.7753 58.2868 96.0014 60.3771 96.273C61.7735 96.4546 62.1179 96.9154 62.0756 98.3287C62.0592 98.8923 62.073 99.4559 62.2076 100.034C62.3431 98.7998 62.4976 97.5681 62.6107 96.3321C62.8834 93.3513 63.1181 90.3662 63.4124 87.3872C63.4893 86.606 63.4634 85.8291 63.5048 85.0505C63.5203 84.7627 63.5738 84.4844 63.9113 84.5169C64.2039 84.5452 64.1944 84.8424 64.1788 85.0728C64.0554 86.9152 63.9493 88.7594 63.7939 90.5992C63.6006 92.8922 63.384 95.1843 63.1423 97.473C62.7237 101.444 62.1904 105.4 61.6415 109.356C61.5068 110.325 61.4455 111.304 61.2272 112.263C61.0951 112.844 61.2082 113.094 61.934 113.134C65.3655 113.322 68.8005 113.153 72.2311 113.274C73.4317 113.316 74.6296 113.457 75.8543 113.302C75.1396 112.942 74.4414 112.599 73.8002 112.139C72.358 111.106 71.9446 109.822 72.3399 108.057C72.9924 105.146 73.9607 102.319 74.5882 99.4002C75.3071 96.0511 75.8007 92.6755 76.0821 89.2664C76.1097 88.9332 76.1183 88.5512 76.5594 88.6103C76.9296 88.66 76.7518 89.0369 76.7328 89.2562C76.3574 93.5509 75.7679 97.8105 74.6158 101.978C74.0341 104.082 73.4645 106.189 72.925 108.303C72.4573 110.138 73.5956 111.803 75.7533 112.522C76.0812 112.631 76.4032 112.76 76.7277 112.881C77.0211 112.991 77.2792 113.185 77.2239 113.507C77.1626 113.865 76.8571 113.985 76.4946 113.985C75.4503 113.981 74.4052 114.013 73.3617 113.993C69.4676 113.919 65.5735 113.828 61.6803 113.748C60.554 113.725 60.3538 113.526 60.6144 112.475C60.7188 112.055 60.6498 111.627 60.8112 111.202C60.9277 110.895 61.2229 110.23 60.308 110.433C60.1207 110.475 59.8955 110.268 59.8109 110.016C59.0281 107.683 57.0586 107.14 54.9295 106.808C53.2508 106.546 51.5791 106.233 49.9039 105.947C48.2865 105.67 46.6683 105.407 45.0544 105.102C43.1695 104.747 41.5245 103.873 39.889 102.983C39.2503 102.635 38.9439 101.841 38.6281 101.196C37.5311 98.9548 37.5268 96.6045 37.9126 94.1693C38.2026 92.3354 38.7765 90.5958 39.3427 88.8596C39.9891 86.8793 40.866 84.9726 41.6609 83.0411C42.0535 82.0869 42.4808 81.1464 42.9011 80.2033C43.0038 79.9738 43.103 79.6466 43.4439 79.7862C43.8392 79.9481 43.5587 80.2205 43.456 80.4209C41.9068 83.4428 40.7892 86.6471 39.5153 89.7821C38.9595 91.15 38.8015 92.6669 38.4908 94.1239C38.1137 95.8901 38.0697 97.6417 38.5219 99.3557C38.8982 100.78 39.3358 102.341 40.8237 103.023C42.1985 103.655 43.595 104.314 45.1148 104.584C48.7474 105.23 52.3835 105.854 56.0135 106.514C56.7177 106.642 57.4107 106.86 58.0882 107.095C58.8866 107.374 59.2301 108.119 59.6573 108.761C59.8592 109.065 60.0137 109.4 60.1898 109.721C60.2442 109.708 60.2985 109.695 60.3529 109.682V109.683Z" fill="black"/>
<path d="M116.479 59.4816C115.708 58.9471 114.906 58.8058 114.133 58.5882C113.799 58.494 113.457 58.4229 113.125 58.3193C112.91 58.2516 112.624 58.1814 112.671 57.8859C112.726 57.551 113.035 57.5193 113.292 57.5844C114.062 57.7805 114.854 57.7214 115.63 57.8233C116.214 57.9004 116.791 57.8285 117.37 57.7617C117.608 57.7343 117.865 57.7171 117.948 57.461C118.028 57.2118 117.846 57.0088 117.676 56.8606C116.869 56.1548 115.901 55.7916 114.855 55.6169C114.226 55.5115 113.591 55.437 112.961 55.3351C112.733 55.2983 112.441 55.2374 112.481 54.9445C112.53 54.5839 112.865 54.6601 113.113 54.6807C114.21 54.7723 115.286 55.1012 116.402 54.9659C116.747 54.9248 117.089 54.8683 117.431 54.8117C117.743 54.7603 118.197 54.7278 118.238 54.4349C118.296 54.0254 117.848 53.843 117.511 53.6845C116.137 53.0404 114.643 53.0147 113.171 52.8751C112.885 52.8477 112.416 53.0413 112.401 52.571C112.389 52.1967 112.769 52.0605 113.145 52.0014C113.601 51.9303 114.051 51.8121 114.493 51.6794C115.195 51.4678 115.809 51.0918 115.906 50.3149C116.018 49.4215 115.597 48.6874 114.939 48.1007C114.773 47.9525 114.529 47.8917 114.325 47.7846C113.963 47.5936 113.556 47.3093 113.21 47.6793C112.817 48.099 113.384 48.2994 113.55 48.5855C113.887 49.168 113.909 49.7581 113.51 50.296C113.017 50.9616 112.306 51.0644 111.549 50.8579C110.733 50.6344 109.956 49.6177 109.912 48.7868C109.887 48.3131 110.162 48.0707 110.542 47.8523C110.906 47.6433 111.456 47.4095 111.266 46.9187C111.085 46.4527 110.495 46.5684 110.085 46.6472C108.568 46.9392 107.362 47.7744 106.481 49.0009C104.522 51.7273 102.685 54.5385 100.592 57.1741C99.3933 58.6833 97.9804 59.8739 96.3027 60.7904C95.7158 61.1116 95.1479 61.1647 94.479 60.9497C92.8979 60.4409 91.624 59.5441 90.6488 58.2251C90.4805 57.9972 90.0852 57.6872 90.4434 57.4225C90.8197 57.1441 90.9724 57.6186 91.1416 57.8542C92.0513 59.1202 93.2147 60.0024 94.7595 60.3913C95.2592 60.5172 95.6692 60.4427 96.0886 60.2114C97.5541 59.4028 98.8133 58.3767 99.8671 57.0576C101.983 54.4066 103.842 51.5774 105.82 48.8305C106.809 47.4574 108.114 46.4039 109.853 46.0416C110.135 45.9833 110.429 45.9628 110.717 45.9688C111.292 45.9799 111.785 46.2009 111.876 46.8065C111.957 47.347 111.776 47.8138 111.163 48.033C110.814 48.1581 110.427 48.3971 110.551 48.8502C110.727 49.4977 111.011 50.1179 111.774 50.278C112.239 50.3757 112.721 50.3988 113.036 49.9363C113.307 49.5371 113.156 49.1851 112.89 48.8296C112.542 48.3645 112.135 47.8634 112.686 47.293C113.243 46.7157 113.883 46.7979 114.505 47.1911C115.041 47.5311 115.6 47.8617 115.979 48.3842C117.055 49.866 116.736 51.0943 114.939 52.3021C115.531 52.6275 116.193 52.4905 116.771 52.7098C117.423 52.9573 118.096 53.1449 118.588 53.6811C119.219 54.3689 119.087 54.9616 118.217 55.2606C117.873 55.3788 117.512 55.4516 117.029 55.5792C117.863 56.1342 118.801 56.5933 118.551 57.6443C118.304 58.6893 117.228 58.2876 116.372 58.5111C116.784 58.8915 117.341 59.139 117.135 59.7129C116.924 60.3022 116.36 60.4846 115.815 60.5694C115.072 60.6851 114.315 60.7544 113.563 60.7699C111.257 60.8178 109.651 61.9827 108.221 63.695C105.826 66.5635 103.438 69.4458 100.844 72.1439C99.7428 73.29 98.6484 74.4814 97.0967 75.0587C95.2981 75.7285 93.4882 75.8467 91.6663 75.0973C88.5611 73.8193 86.1652 71.6976 84.2561 68.997C84.0956 68.7708 83.7236 68.4274 84.1051 68.1832C84.5522 67.8972 84.6272 68.4068 84.8223 68.6732C86.9799 71.6223 89.6312 73.9752 93.2889 74.8163C95.0996 75.2335 96.8671 74.7118 98.3481 73.5067C100.546 71.7182 102.301 69.516 104.127 67.3798C105.445 65.838 106.778 64.3082 108.121 62.7896C109.693 61.0148 111.6 59.9553 114.063 60.017C114.853 60.0367 115.701 60.1257 116.478 59.4808L116.479 59.4816Z" fill="black"/>
<path d="M8.33052 59.5222C7.5132 59.3714 6.47754 59.6738 6.24624 58.6879C6.00372 57.6532 6.941 57.1744 7.78852 56.6305C7.34491 56.5097 6.9971 56.4275 6.65792 56.3187C5.70338 56.0129 5.53681 55.3191 6.28335 54.6459C7.0204 53.9812 7.94905 53.7336 8.9079 53.5812C9.21688 53.5323 9.54915 53.5658 9.82533 53.3251C9.76923 53.2548 9.73126 53.1692 9.66566 53.1298C8.42718 52.4026 8.05779 51.7071 8.29945 50.5404C8.55836 49.2899 9.77786 48.0899 10.9257 47.9759C11.3538 47.9331 11.8017 47.904 12.0745 48.3391C12.3394 48.7614 12.2229 49.1665 11.9709 49.5537C11.9234 49.6265 11.8777 49.701 11.8233 49.7687C11.4833 50.1935 11.1553 50.621 11.7085 51.1177C12.1418 51.5075 13.0005 51.4501 13.4657 51.0073C14.2554 50.2544 14.2166 49.6436 13.3552 48.9378C12.966 48.6192 12.5992 48.25 12.8072 47.6864C13.023 47.1023 13.5434 46.9712 14.0931 47.014C16.0488 47.1665 17.6671 47.9674 18.8046 49.5871C20.8181 52.4531 22.8014 55.3371 24.9279 58.1277C25.8505 59.3389 26.9181 60.2528 28.1687 61.0511C29.0154 61.5924 29.8292 61.5821 30.7242 61.2233C31.9817 60.7196 32.9604 59.8956 33.7354 58.8121C33.9011 58.58 34.0504 58.2185 34.3853 58.472C34.6623 58.681 34.3749 58.9491 34.2438 59.1487C33.1235 60.8464 31.5062 61.7937 29.503 61.9941C28.8799 62.0567 28.2214 61.7475 27.6284 61.4237C26.3011 60.6999 25.331 59.6327 24.4058 58.46C22.3396 55.8416 20.4426 53.1075 18.5715 50.3537C18.0416 49.5743 17.4358 48.8513 16.6599 48.3571C15.8356 47.8312 14.8518 47.641 13.8515 47.6719C13.6392 47.6787 13.4225 47.7507 13.3846 47.9794C13.3397 48.2518 13.5934 48.3682 13.7704 48.5053C15.0175 49.4715 14.8535 51.1135 13.4096 51.7833C12.7856 52.0728 12.0848 52.1747 11.5083 51.6908C10.9266 51.2017 11.0034 50.5036 11.1449 49.8458C11.1976 49.6017 11.365 49.3798 11.4928 49.1546C11.6015 48.9635 11.661 48.752 11.5022 48.5927C11.34 48.4291 11.1234 48.3657 10.8627 48.4436C9.9125 48.7254 8.79398 50.2167 8.86475 51.1828C8.91653 51.8895 9.35496 52.3418 9.98845 52.5987C10.5235 52.8163 11.0724 52.9927 11.6541 53.0715C11.9424 53.1109 12.2548 53.2762 12.2514 53.6C12.2462 54.0497 11.8414 53.8981 11.5808 53.9195C10.4226 54.0146 9.26262 54.1045 8.13892 54.4189C7.77816 54.5199 7.41913 54.6544 7.09117 54.8317C6.84606 54.9645 6.51724 55.1504 6.55607 55.4561C6.59923 55.7919 6.99537 55.7594 7.25688 55.8356C8.58598 56.2228 9.90646 55.9564 11.2278 55.7679C11.3987 55.7431 11.5704 55.6977 11.7413 55.702C11.9191 55.7063 12.0943 55.7765 12.1236 55.9838C12.153 56.1945 12.008 56.3084 11.8259 56.3418C11.1985 56.4574 10.5684 56.5654 9.93753 56.6613C9.03132 56.7984 8.21142 57.1632 7.43467 57.6189C7.11016 57.8099 6.78392 58.1157 6.88058 58.5251C6.97466 58.9251 7.41395 58.7898 7.70653 58.8249C8.84145 58.9628 9.9686 58.8095 11.0923 58.6768C11.409 58.6391 11.7922 58.4755 11.9079 58.8832C12.0348 59.3312 11.5601 59.3543 11.2899 59.4468C10.5788 59.69 9.84777 59.8776 9.13057 60.1046C8.86647 60.1877 8.46084 60.2245 8.49709 60.5749C8.53075 60.9021 8.95623 60.9226 9.2117 60.9594C9.95824 61.0657 10.7151 61.1308 11.4695 61.147C13.7402 61.1967 15.4058 62.3556 16.8161 63.9813C18.8486 66.324 20.8491 68.6949 22.9023 71.0196C23.9536 72.2093 25.0496 73.3656 26.1992 74.462C27.7053 75.8967 29.629 75.8907 31.5226 75.7023C34.7469 75.3811 36.8114 73.1361 38.9552 71.0727C39.3367 70.7052 39.5593 70.1664 39.8217 69.6893C39.9745 69.411 40.0772 68.9827 40.4707 69.2182C40.8366 69.4375 40.5423 69.7938 40.3879 70.0525C39.3462 71.7887 37.9402 73.2046 36.3108 74.3849C33.2711 76.5862 30.001 77.1635 26.4952 75.5515C26.0836 75.3622 25.7056 75.0487 25.3879 74.7207C22.2853 71.5104 19.4657 68.0533 16.5175 64.7077C15.386 63.4237 14.1898 62.1894 12.4016 61.8014C11.6524 61.6387 10.8921 61.7603 10.1386 61.7192C9.76146 61.6986 9.37395 61.7303 9.00974 61.6507C7.54427 61.3286 7.31297 60.6648 8.32793 59.5247L8.33052 59.5222Z" fill="black"/>
<path d="M61.9616 66.8961C59.3344 66.8301 56.4095 66.6734 53.5925 65.8425C51.9415 65.356 50.3008 64.7659 48.8871 63.7192C48.1768 63.1932 47.6219 62.5448 47.1861 61.7834C47.0359 61.5204 47.0065 61.2737 47.2801 61.1067C47.5123 60.9654 47.659 61.1624 47.7488 61.3457C48.5756 63.0228 50.1213 63.7997 51.7413 64.4678C54.3684 65.5505 57.1388 65.9316 59.9541 66.1089C64.2901 66.3822 68.5337 65.9299 72.6125 64.4164C74.3179 63.7834 75.9854 62.9868 76.8199 61.1787C76.9149 60.9731 77.1427 60.8703 77.3309 60.9876C77.5656 61.1341 77.5112 61.4176 77.4016 61.6129C77.0322 62.2699 76.5722 62.8558 75.9741 63.3363C73.9503 64.9603 71.5234 65.6198 69.0593 66.1723C66.8232 66.6742 64.5473 66.8558 61.9607 66.8961H61.9616Z" fill="black"/>
<path d="M59.1452 57.8072C59.0373 58.8959 58.7568 59.9434 58.0491 60.8248C57.3587 61.6856 56.4153 61.7182 55.6748 60.9045C54.9507 60.1087 54.6935 59.0997 54.4873 58.0804C54.4407 57.8509 54.5442 57.6684 54.7695 57.6205C55.0362 57.5631 55.1268 57.7961 55.1699 57.9828C55.3175 58.6269 55.4677 59.2668 55.7801 59.8578C56.0149 60.3006 56.2885 60.776 56.827 60.7914C57.3837 60.8077 57.6547 60.3126 57.8687 59.8681C58.195 59.1922 58.3857 58.4753 58.453 57.7241C58.4772 57.4569 58.4289 57.0483 58.8207 57.056C59.3446 57.0654 59.0606 57.5245 59.1443 57.8081L59.1452 57.8072Z" fill="black"/>
<path d="M70.4871 57.4691C70.4879 58.3187 70.2894 59.123 69.8881 59.8708C69.6128 60.3839 69.2244 60.7274 68.5754 60.6905C67.9575 60.6554 67.5087 60.3282 67.2549 59.834C66.9158 59.1727 66.6888 58.4541 66.4178 57.7586C66.3116 57.4853 66.1727 57.1521 66.5921 57.0571C67.0064 56.9628 67.0685 57.3851 67.0918 57.6241C67.154 58.2734 67.3309 58.8652 67.7305 59.3792C67.9756 59.6944 68.2164 60.0755 68.6971 60.0053C69.1649 59.9368 69.3159 59.5487 69.46 59.1556C69.6905 58.5269 69.8217 57.8888 69.8122 57.2172C69.8079 56.9183 69.7328 56.4806 70.2066 56.5089C70.6269 56.5337 70.4431 56.9526 70.4862 57.2104C70.5 57.2943 70.4888 57.3834 70.4888 57.4699L70.4871 57.4691Z" fill="black"/>
</g>
<defs>
<clipPath id="clip0_334_2709">
<rect width="72.0596" height="72.0596" fill="white" transform="translate(26 26)"/>
</clipPath>
<clipPath id="clip1_334_2709">
<rect width="113.166" height="68.0302" fill="white" transform="translate(5.81616 45.9697)"/>
</clipPath>
</defs>
</svg>
