<svg width="125" height="125" viewBox="0 0 125 125" fill="none" xmlns="http://www.w3.org/2000/svg">
<g clip-path="url(#clip0_334_2501)">
<path d="M52.6604 31.0096C55.6706 30.277 55.0845 25 59.3437 25C65.5119 25 63.1317 29.6387 66.9814 30.3494C68.9645 30.7157 71.3146 25.2925 75.6463 27.2715C81.6133 29.9968 77.7759 33.9412 80.3465 35.4064C84.0606 37.5248 85.7068 31.8159 90.1139 36.9453C93.5555 40.9526 89.0854 43.1011 90.0399 45.3727C91.6053 49.097 96.5752 45.5927 98.1173 51.0159C99.695 56.5649 94.295 56.5977 94.5922 59.4433C94.9592 62.9613 100.319 61.7886 99.1458 67.9444C98.2077 72.8578 93.9389 70.3471 92.4626 74.0278C91.2875 76.9594 97.2353 77.9859 92.9036 83.6278C89.777 87.6993 87.016 83.4761 84.1647 85.8993C82.1816 87.5845 86.5148 91.9827 81.3011 94.4742C76.6173 96.713 74.3248 92.0551 72.0486 93.0091C68.3838 94.5426 70.5805 99.3111 65.2928 99.3111C58.096 99.3111 61.6965 94.9348 57.803 94.328C53.8053 93.7048 54.2052 99.3193 48.8436 97.0396C42.8013 94.4701 47.0071 91.1763 43.8504 89.051C41.7673 87.6487 37.7547 91.1025 35.1115 88.0984C30.284 82.6109 36.607 81.6364 34.3774 78.3508C32.3054 75.2988 28.3557 78.9371 26.5931 74.2465C24.2061 67.8938 30.7058 67.5767 29.8238 64.6465C29.1144 62.2875 24.48 60.2961 25.0511 57.6105C26.3726 51.3809 30.9989 53.2861 32.1013 50.3544C32.9888 47.9913 28.5036 45.3713 31.2933 41.4132C34.9636 36.2087 38.1231 40.6806 40.1061 38.3353C41.8481 36.2743 39.0776 31.9595 43.1163 29.908C48.3465 27.251 48.5711 32.0032 52.6632 31.0068L52.6604 31.0096Z" fill="#2D6BA4"/>
</g>
<g clip-path="url(#clip1_334_2501)">
<path d="M57.1539 61.9416C62.7144 62.082 68.2749 62.2207 73.8354 62.3717C74.106 62.3787 74.4768 62.2021 74.6347 62.5624C74.7589 62.8467 74.4928 63.0622 74.3437 63.2706C72.2226 66.2464 69.3386 68.1043 65.7519 68.7321C61.6366 69.4518 57.7616 68.6288 54.3364 66.2393C53.0173 65.3192 51.7504 64.2375 50.8686 62.8229C50.7116 62.5703 50.4836 62.3346 50.6788 62.0185C50.85 61.7421 51.149 61.8118 51.4133 61.8109C53.3269 61.8101 55.2395 61.8109 57.153 61.8109C57.153 61.8542 57.153 61.8975 57.153 61.9416H57.1539ZM51.5748 62.4458C52.1115 63.9205 53.09 64.6499 54.6105 64.6728C60.0495 64.7532 65.4893 64.7929 70.9265 64.9201C72.1188 64.9475 72.7842 64.362 73.3981 63.5187C73.6704 63.1452 73.6207 63.0172 73.1461 63.0145C72.4595 63.011 71.7737 62.9562 71.0871 62.9386C64.5845 62.7726 58.0819 62.6101 51.573 62.4458H51.5748Z" fill="black"/>
<path d="M114.98 44.1049C115.773 44.7478 116.262 45.2979 116.658 45.9134C117.218 46.7831 116.902 47.4083 115.876 47.5408C115.116 47.6388 114.407 47.4101 113.685 47.2158C113.345 47.124 113.005 46.8405 112.527 47.0737C112.935 47.5169 113.424 47.8066 113.667 48.3364C113.958 48.9722 113.748 49.3589 113.185 49.6415C112.575 49.947 111.957 49.8561 111.365 49.5991C110.549 49.245 109.734 48.8839 108.946 48.4724C108.468 48.2225 108.087 48.2763 107.619 48.5139C104.175 50.2596 100.68 51.9171 97.5058 54.1352C94.8231 56.0099 92.2141 57.9844 89.8455 60.2555C89.6707 60.4233 89.5137 60.9125 89.1651 60.5787C88.8448 60.2723 89.2423 60.0595 89.4374 59.8661C91.5168 57.8051 93.8473 56.0514 96.2071 54.3251C98.1791 52.8813 100.25 51.593 102.423 50.5007C104.116 49.6503 105.798 48.7814 107.485 47.9214C108.124 47.5955 108.787 47.6697 109.439 48.022C110.092 48.3744 110.782 48.6596 111.461 48.9598C111.821 49.1188 112.21 49.1788 112.602 49.1258C113.164 49.0508 113.367 48.8097 112.92 48.3276C111.998 47.3297 110.903 46.5747 109.661 46.0202C109.415 45.9107 108.95 45.8666 109.077 45.4975C109.196 45.154 109.616 45.35 109.871 45.4242C111.042 45.7641 112.212 46.1182 113.363 46.5191C114.021 46.7478 114.702 46.7964 115.372 46.9235C115.636 46.9739 115.942 46.9915 116.125 46.7593C116.34 46.4864 116.092 46.2489 115.951 46.044C114.948 44.5826 113.493 43.7508 111.853 43.198C111.061 42.9305 110.242 42.7574 109.408 42.67C109.087 42.6364 108.761 42.5331 108.834 42.1508C108.906 41.779 109.26 41.9212 109.506 41.9539C111.018 42.157 112.449 42.6788 113.912 43.0771C114.486 43.2334 115.064 43.3826 115.644 43.5151C115.991 43.5936 116.44 43.7199 116.621 43.3446C116.796 42.9808 116.405 42.6877 116.163 42.4563C115.099 41.4399 113.843 40.722 112.492 40.1366C110.305 39.1891 108.104 38.3008 105.73 37.9272C105.317 37.8619 105.41 37.6509 105.52 37.3506C106 36.034 106.31 34.6777 106.344 33.2702C106.355 32.8198 106.388 32.3121 105.949 32.0595C105.52 31.8132 105.164 32.1929 104.825 32.4057C103.335 33.3346 102.488 34.8199 101.572 36.2318C101.342 36.585 101.083 36.812 100.711 36.9489C96.1654 38.6275 92.2106 41.3075 88.3525 44.157C86.8169 45.2908 85.2671 46.4017 83.9896 47.8357C83.8592 47.9823 83.7084 48.0812 83.5398 47.917C83.3855 47.7668 83.4272 47.5673 83.554 47.4331C84.065 46.8935 84.5458 46.3098 85.1224 45.848C89.3567 42.4572 93.7657 39.3268 98.707 37.0124C99.0556 36.8491 99.4247 36.7184 99.7973 36.6221C100.605 36.4129 101.108 35.9104 101.502 35.1837C102.218 33.8635 103.178 32.7306 104.427 31.86C105.056 31.4211 105.751 31.1844 106.438 31.5889C107.153 32.0101 107.134 32.796 107.069 33.5086C106.973 34.5682 106.848 35.6331 106.423 36.6257C106.201 37.1431 106.218 37.3957 106.877 37.5493C109.379 38.1295 111.788 38.9904 114.057 40.2028C115.11 40.7662 116.132 41.3896 116.878 42.3556C117.197 42.7698 117.469 43.251 117.117 43.7393C116.78 44.2056 116.284 44.3981 115.691 44.1473C115.567 44.0952 115.407 44.127 114.979 44.1058L114.98 44.1049Z" fill="black"/>
<path d="M12.5061 45.8331C11.8851 46.0106 11.2676 46.2022 10.6413 46.3585C10.3255 46.4371 9.99284 46.4963 9.66993 46.4866C9.22548 46.4733 8.73224 46.4592 8.49272 45.9912C8.24521 45.5073 8.45191 45.0764 8.74466 44.6684C9.1554 44.0953 9.61759 43.5699 10.298 43.033C10.0195 43.033 9.89881 43.0021 9.80389 43.0383C9.14564 43.2865 8.49538 43.2494 8.13875 42.6233C7.76971 41.976 8.21593 41.4038 8.66482 40.9659C10.0656 39.5989 11.7254 38.6417 13.5662 37.9724C15.1905 37.3825 16.8272 36.8297 18.5128 36.4483C19.0326 36.3308 19.0522 36.1622 18.8845 35.7233C18.4587 34.6054 18.2688 33.4274 18.2156 32.2415C18.1872 31.6057 18.1579 30.8675 18.8579 30.5011C19.5702 30.1284 20.2542 30.3527 20.8734 30.7907C21.9877 31.5775 22.9386 32.5568 23.5614 33.7436C24.2099 34.9798 25.0172 35.658 26.4454 36.05C28.2303 36.5401 29.8485 37.5989 31.463 38.5667C33.9949 40.0846 36.3679 41.8259 38.7055 43.6114C39.6893 44.3629 40.525 45.3077 41.4183 46.1748C41.6055 46.3559 41.8495 46.5969 41.5487 46.8468C41.2773 47.072 41.1611 46.785 40.9996 46.6066C39.1109 44.52 36.8079 42.9218 34.5289 41.3129C32.4664 39.8568 30.3266 38.5022 28.0272 37.4329C26.7914 36.858 25.5858 36.201 24.2463 35.8761C23.895 35.7913 23.8293 35.4937 23.6883 35.2359C22.8579 33.7135 21.9371 32.2618 20.4183 31.3091C20.1016 31.1104 19.7778 30.7651 19.3733 30.9691C18.9067 31.2049 18.9031 31.7073 18.9315 32.1541C19.0184 33.4884 19.124 34.8341 19.6918 36.0642C20.0058 36.7432 19.7601 36.7653 19.1595 36.9233C15.65 37.847 12.0678 38.64 9.29822 41.2449C8.98596 41.5389 8.46433 41.8454 8.69587 42.2966C8.91321 42.7231 9.46412 42.4803 9.85445 42.3875C11.5595 41.9858 13.1874 41.2988 14.927 41.025C15.2198 40.9791 15.509 40.9058 15.8035 40.8705C16.0572 40.8396 16.4147 40.7292 16.4564 41.1063C16.4972 41.4798 16.1557 41.5548 15.8425 41.6043C14.6644 41.7915 13.4792 41.9593 12.3748 42.4414C11.1452 42.9774 10.1383 43.7968 9.37807 44.898C9.22459 45.1205 8.92475 45.3863 9.17846 45.6839C9.38428 45.9249 9.71783 45.894 10.0221 45.8455C11.3262 45.638 12.5504 45.1558 13.8057 44.7788C14.4329 44.5907 15.0725 44.4388 15.7112 44.2931C15.8975 44.2507 16.1672 44.1668 16.2391 44.4503C16.3092 44.7249 16.043 44.7823 15.8585 44.8574C14.7469 45.3068 13.6939 45.8658 12.7873 46.6481C12.436 46.951 11.7866 47.3007 12.0802 47.8164C12.3464 48.2835 12.978 48.0336 13.4837 47.9321C14.3238 47.7634 15.045 47.336 15.7831 46.959C16.6108 46.536 17.3569 46.6005 18.1429 47.0323C19.9162 48.008 21.6772 49.012 23.4904 49.9101C25.6772 50.9927 27.6794 52.3578 29.6843 53.7203C31.7806 55.1447 33.7447 56.7403 35.5562 58.5134C35.825 58.7766 36.4948 59.0538 36.1373 59.4485C35.7319 59.8962 35.4781 59.1925 35.2253 58.9593C32.2215 56.1893 28.9312 53.8095 25.4519 51.6682C22.8455 50.0646 20.0537 48.8089 17.4012 47.2972C17.0118 47.0755 16.719 47.2398 16.3943 47.3802C15.493 47.7696 14.5935 48.1634 13.6895 48.5475C13.3577 48.6888 13.01 48.7718 12.6418 48.7489C12.1051 48.7162 11.6189 48.559 11.3812 48.0451C11.1443 47.5329 11.4681 47.1338 11.7804 46.7771C12.027 46.4954 12.3233 46.2561 12.5983 45.9982C12.5682 45.9435 12.5371 45.8896 12.507 45.8349L12.5061 45.8331Z" fill="black"/>
<path d="M22.9065 99.4313C24.3214 101.129 25.6663 102.849 27.2818 104.326C29.2991 106.171 31.3359 107.991 33.4712 109.7C33.8873 110.033 34.3512 110.304 34.7851 110.616C35.1142 110.852 35.3546 110.757 35.6553 110.519C37.7995 108.823 39.4522 106.686 41.034 104.505C42.7576 102.128 44.5124 99.7686 46.0089 97.2361C47.1995 95.2228 48.3927 93.2121 49.5841 91.1997C49.7056 90.9948 49.8094 90.7776 49.9478 90.586C50.0702 90.4164 50.2254 90.2416 50.465 90.4226C50.6664 90.5745 50.5413 90.7264 50.4526 90.8836C48.6561 94.0943 46.8677 97.3076 44.7687 100.341C43.3485 102.392 41.9353 104.447 40.3819 106.4C39.132 107.972 37.8935 109.547 36.3136 110.836C35.5994 111.418 35.0175 111.414 34.2989 110.986C32.8298 110.112 31.5958 108.943 30.3219 107.831C28.7322 106.443 27.1505 105.039 25.6512 103.556C24.301 102.221 23.0661 100.771 21.7816 99.3695C21.6228 99.1964 21.3948 99.0242 21.5749 98.7593C21.7567 98.4909 22.0326 98.5218 22.2997 98.6268C23.0732 98.9315 23.8592 99.1858 24.6834 99.3297C25.3496 99.4463 25.8624 99.335 26.3636 98.8079C28.011 97.0762 29.3789 95.1318 30.8356 93.251C33.9574 89.2182 36.4981 84.8198 38.935 80.3746C39.7982 78.8002 40.8148 77.3008 41.5432 75.6513C41.6266 75.4632 41.7437 75.2875 41.8572 75.1144C41.9796 74.929 42.1384 74.7736 42.3682 74.944C42.5713 75.0941 42.4223 75.2645 42.3416 75.4138C41.8333 76.356 41.3773 77.3326 40.7953 78.228C40.1318 79.2479 39.6288 80.3375 39.0841 81.4175C38.2839 83.0043 37.3657 84.5355 36.4289 86.049C35.1461 88.1214 33.9015 90.2284 32.4546 92.1851C30.5881 94.7088 28.8378 97.3385 26.5454 99.5266C25.8659 100.176 25.048 99.9867 24.2584 99.8295C23.7989 99.7377 23.3553 99.5673 22.9047 99.4322L22.9065 99.4313Z" fill="black"/>
<path d="M102.486 100.447C101.637 100.731 100.856 101.003 100.021 101.039C99.3584 101.067 98.8279 100.897 98.3489 100.385C96.289 98.1835 94.6975 95.6298 92.878 93.2482C90.8891 90.6451 89.2896 87.7929 87.6094 84.9963C85.9726 82.2731 84.4468 79.4836 82.889 76.7144C82.7772 76.5166 82.4374 76.2411 82.7515 76.0239C83.132 75.7607 83.2687 76.204 83.3973 76.4239C85.0846 79.314 86.7435 82.2201 88.4317 85.1094C89.7367 87.3417 91.0541 89.5695 92.5533 91.68C93.8556 93.5123 95.2581 95.2757 96.5329 97.1256C97.0386 97.8594 97.6276 98.5217 98.128 99.2414C99.1127 100.658 100.348 100.602 101.74 100.129C102.164 99.9849 102.588 99.8454 103.006 99.6891C103.287 99.584 103.547 99.5699 103.714 99.8524C103.877 100.127 103.638 100.287 103.485 100.46C101.488 102.721 99.3398 104.834 97.1113 106.867C95.7026 108.152 94.3151 109.461 92.8647 110.697C92.1275 111.326 91.3601 111.945 90.426 112.305C89.946 112.49 89.5761 112.388 89.192 112.076C87.5863 110.774 86.2521 109.218 84.948 107.632C82.2272 104.322 80.0023 100.677 77.7481 97.055C76.7439 95.4417 75.8718 93.7463 74.9421 92.0871C74.8392 91.9034 74.5101 91.7259 74.817 91.4972C75.1479 91.2508 75.3041 91.5811 75.4327 91.793C76.0883 92.8809 76.7625 93.9609 77.3622 95.0788C78.4737 97.1495 79.7246 99.1372 81.05 101.07C82.2875 102.875 83.3352 104.813 84.7874 106.472C86.3283 108.231 87.7522 110.095 89.6036 111.567C89.9842 111.869 90.2441 111.843 90.63 111.605C92.0592 110.721 93.2887 109.596 94.5236 108.478C97.1406 106.108 99.6742 103.651 102.109 101.095C102.245 100.953 102.467 100.862 102.488 100.447H102.486Z" fill="black"/>
<path d="M71.764 54.1672C71.3551 55.309 72.4045 55.603 73.2127 56.0799C73.4975 56.2477 74.0049 56.3006 73.9064 56.7616C73.8301 57.1192 73.3892 57.0918 73.0796 57.1598C71.9098 57.4159 71.2451 58.2039 71.0854 59.5237C71.0375 59.9237 71.1617 60.5074 70.6808 60.5957C70.2187 60.6813 70.1503 60.0438 69.878 59.7533C69.8585 59.7321 69.8487 59.7012 69.8336 59.6765C69.2996 58.7899 68.5435 58.5391 67.5653 58.9241C67.4269 58.9789 67.292 59.0486 67.1492 59.0839C66.9301 59.1369 66.6835 59.3294 66.4865 59.0919C66.3064 58.8747 66.4102 58.6248 66.5735 58.4429C67.7622 57.1183 67.7453 55.8026 66.5885 54.4666C66.4386 54.2935 66.3073 54.0313 66.4945 53.8202C66.6799 53.6118 67.0002 53.6939 67.1643 53.8079C68.6946 54.8631 69.6092 54.0083 70.4883 52.8356C70.7323 52.5098 70.9718 51.8846 71.4606 52.0683C71.9051 52.2361 71.678 52.8639 71.7569 53.2842C71.8004 53.5138 71.7649 53.7584 71.7649 54.1655L71.764 54.1672Z" fill="black"/>
<path d="M54.4924 60.0339C54.174 60.0136 54.1615 59.7663 54.1225 59.5791C54.0258 59.1155 53.8661 58.6369 53.9034 58.1786C53.9877 57.1314 53.3223 56.7208 52.5417 56.3446C52.2347 56.1971 51.7512 56.1238 51.8009 55.685C51.8488 55.254 52.3341 55.2894 52.6596 55.2099C54.072 54.862 54.0285 54.8629 54.252 53.4014C54.3301 52.8884 54.0782 52.0645 54.6894 51.9153C55.2146 51.7873 55.5029 52.5564 55.7238 52.997C56.3678 54.2845 57.435 53.7061 58.3736 53.6911C58.7152 53.6858 59.1223 53.4253 59.3539 53.8103C59.5632 54.1591 59.1649 54.3869 59.0088 54.6571C58.9644 54.7339 58.9165 54.8143 58.8518 54.8743C57.8023 55.8545 57.5601 56.9115 58.4659 58.1354C58.6406 58.3711 58.9041 58.7588 58.5927 59.0228C58.2822 59.2868 57.9922 58.9115 57.7305 58.7597C56.6884 58.1545 55.8234 58.3611 55.1356 59.3796C54.9591 59.64 54.8624 59.9924 54.4951 60.0348L54.4924 60.0339Z" fill="black"/>
</g>
<defs>
<clipPath id="clip0_334_2501">
<rect width="74.3125" height="74.3125" fill="white" transform="translate(25 25)"/>
</clipPath>
<clipPath id="clip1_334_2501">
<rect width="109.283" height="82.0837" fill="white" transform="translate(8 30.314)"/>
</clipPath>
</defs>
</svg>
