<svg width="125" height="125" viewBox="0 0 125 125" fill="none" xmlns="http://www.w3.org/2000/svg">
<g clip-path="url(#clip0_334_2502)">
<path d="M53.6541 32.8172C56.5548 32.1081 55.9899 27.0002 60.0942 27.0002C66.0381 27.0002 63.7445 31.4903 67.4541 32.1782C69.365 32.5327 71.6296 27.2834 75.8038 29.199C81.5537 31.8369 77.856 35.6549 80.333 37.073C83.912 39.1236 85.4983 33.5977 89.7451 38.5627C93.0615 42.4415 88.754 44.5211 89.6738 46.7198C91.1822 50.3248 95.9714 46.9328 97.4574 52.1822C98.9777 57.5533 93.7741 57.5851 94.0605 60.3394C94.4142 63.7446 99.5795 62.6096 98.4485 68.568C97.5445 73.324 93.431 70.8937 92.0084 74.4564C90.8761 77.2941 96.6075 78.2876 92.4333 83.7487C89.4204 87.6897 86.7599 83.6018 84.0123 85.9474C82.1014 87.5785 86.2769 91.8357 81.2529 94.2474C76.7395 96.4144 74.5303 91.9059 72.337 92.8293C68.8055 94.3136 70.9223 98.9293 65.8269 98.9293C58.8919 98.9293 62.3614 94.6933 58.6095 94.1059C54.7573 93.5026 55.1427 98.9372 49.9761 96.7306C44.1536 94.2435 48.2064 91.0552 45.1645 88.9981C43.1572 87.6407 39.2905 90.9838 36.7435 88.076C32.0916 82.7644 38.1846 81.8212 36.0362 78.6408C34.0395 75.6867 30.2335 79.2084 28.535 74.6681C26.2348 68.5191 32.4981 68.2122 31.6482 65.3758C30.9646 63.0924 26.4987 61.1649 27.049 58.5654C28.3226 52.5354 32.7805 54.3796 33.8428 51.5419C34.698 49.2546 30.376 46.7185 33.0642 42.8873C36.601 37.8496 39.6455 42.1782 41.5564 39.9081C43.2351 37.9131 40.5654 33.7366 44.4571 31.7509C49.497 29.1791 49.7135 33.7789 53.6567 32.8145L53.6541 32.8172Z" fill="#2D6BA4"/>
</g>
<g clip-path="url(#clip1_334_2502)">
<path d="M43.9486 51.766C45.5305 51.5677 47.1158 51.5731 48.6924 51.71C49.6826 51.7962 50.7029 51.8842 51.2095 53.0141C51.3494 53.3261 51.7737 53.2683 52.1102 53.2417C52.7639 53.1892 53.4193 53.1465 54.0747 53.127C54.8125 53.1056 55.5874 53.2257 55.8275 52.206C55.8948 51.9206 56.2473 51.8095 56.5254 51.6851C57.2729 51.3526 58.0807 51.1881 58.8689 51.1775C61.5836 51.1401 64.3026 51.0174 67.0155 51.2877C67.693 51.3553 68.1137 51.5917 68.2174 52.3402C68.4778 54.2302 68.8258 56.1122 68.6478 58.0315C68.4725 59.9285 66.8764 61.4993 65.0431 61.9661C62.4329 62.6301 59.8698 62.5874 57.2773 61.9536C56.1003 61.6656 55.3802 60.8806 54.9444 59.8396C54.5671 58.9373 54.2828 57.9817 54.3944 56.9709C54.4281 56.6687 54.3218 56.53 54.0127 56.5104C53.4485 56.4749 52.8843 56.418 52.321 56.3664C51.9685 56.3344 51.8507 56.5238 51.8286 56.8447C51.6497 59.4538 49.865 60.7935 47.7615 61.7207C46.6322 62.2185 45.3108 62.0727 44.0637 62.0292C43.7963 62.0203 43.5314 61.9536 43.264 61.9474C40.1277 61.8647 37.9977 59.8405 37.7204 56.7015C37.6009 55.3468 37.8108 54.0106 37.9038 52.6683C37.9587 51.8833 38.5548 51.766 39.1995 51.7669C40.7823 51.7695 42.3641 51.7669 43.9468 51.7669L43.9486 51.766ZM57.7016 59.1951C57.776 59.1107 57.8619 59.0307 57.9274 58.9364C59.155 57.1807 60.3817 55.4241 61.603 53.6648C61.7093 53.5119 61.766 53.3146 61.5765 53.1892C61.3923 53.0674 61.2629 53.151 61.1655 53.3563C61.077 53.5421 60.9228 53.695 60.8077 53.8693C59.7555 55.457 58.706 57.0456 57.6546 58.6333C57.5599 58.7764 57.3801 58.8938 57.5306 59.0956C57.5625 59.1382 57.6281 59.1542 57.7025 59.1951H57.7016ZM45.9237 53.3688C45.7315 53.4461 45.6226 53.455 45.5765 53.5137C44.3791 55.0596 43.3375 56.7113 42.2853 58.3568C42.187 58.5106 42.0922 58.74 42.2853 58.8289C42.5687 58.9595 42.7104 58.6591 42.8335 58.4822C43.5926 57.3869 44.3569 56.2935 45.0637 55.1654C45.3941 54.6382 45.952 54.2035 45.9228 53.3688H45.9237ZM46.5384 55.4774C46.4755 55.5228 46.3887 55.561 46.3391 55.6268C45.6084 56.6038 45.0132 57.6661 44.4109 58.724C44.3277 58.8706 44.3622 59.02 44.5181 59.1036C44.6935 59.1978 44.8077 59.0636 44.8812 58.9462C45.5083 57.9426 46.1292 56.9345 46.743 55.9228C46.8714 55.7112 46.867 55.5219 46.5375 55.4774H46.5384ZM60.2178 59.3747C60.3808 59.3987 60.4189 59.2769 60.4924 59.1853C61.3258 58.1515 62.0849 57.066 62.7695 55.9281C62.8519 55.7903 63.0742 55.6534 62.8501 55.4925C62.6756 55.3672 62.5313 55.4881 62.4161 55.6543C61.6606 56.7496 60.8963 57.8377 60.1452 58.9355C60.0442 59.0822 60.0035 59.2689 60.2178 59.3747Z" fill="black"/>
<path d="M35.3144 61.7856C35.1399 62.103 34.8724 62.0985 34.6005 62.1128C32.8973 62.2017 31.1835 62.1803 29.514 61.8985C27.9844 61.6407 26.8649 60.7091 26.1874 59.2156C24.7269 55.9966 24.7835 52.5839 24.7756 49.1729C24.7685 46.0837 24.7818 42.9936 24.7862 39.9044C24.7862 39.8146 24.7933 39.724 24.788 39.6342C24.7587 39.1221 24.7543 38.5381 24.2149 38.3212C23.6189 38.082 23.2044 38.5283 22.8607 38.9568C21.9281 40.1222 21.3559 41.4823 21.0362 42.9145C20.8688 43.6639 20.5437 43.7955 19.8839 43.7715C17.5855 43.6861 15.2863 43.6194 12.9862 43.5928C11.8206 43.5794 10.671 43.7848 9.55412 44.1262C9.1901 44.2373 8.70828 44.3591 8.69588 44.7956C8.68348 45.2294 9.15821 45.4267 9.5116 45.5165C11.2555 45.9574 12.98 46.5237 14.8328 46.2926C16.4244 46.0935 17.8964 46.5655 19.3153 47.2553C20.3701 47.7683 21.3373 48.3754 22.0326 49.3613C22.9909 50.7197 22.7031 51.7713 21.1549 52.3483C20.9113 52.4389 20.8502 52.5225 20.821 52.7679C20.6731 53.992 20.2408 54.4836 19.1134 54.7023C17.7565 54.9654 16.3845 55.0374 15.0144 54.8587C14.6725 54.8143 14.4954 54.7823 14.5397 55.1965C15.0932 60.3819 15.8018 65.5771 19.5509 69.5641C22.6765 72.888 26.6346 74.5442 31.2898 74.2313C32.8052 74.1299 34.3242 74.0952 35.8281 73.8499C36.0805 73.809 36.4241 73.7414 36.5118 74.0899C36.588 74.3922 36.3188 74.4979 36.0681 74.5211C33.0169 74.8091 29.9498 75.3585 26.9127 74.554C21.6119 73.1503 17.8229 70.0069 15.8398 64.7592C14.8036 62.0159 14.3652 59.1738 14.0242 56.2935C13.9152 55.3735 13.909 54.464 13.2244 53.6364C12.4733 52.7279 12.5929 51.6975 13.2873 50.8477C13.5043 50.5819 13.4777 50.5268 13.2439 50.3152C12.0013 49.1924 11.9216 48.715 12.7683 47.3514C13.0473 46.9015 12.8356 46.8864 12.4725 46.8215C11.5363 46.6526 10.6019 46.4642 9.67634 46.2419C9.33535 46.1601 8.98905 46.009 8.7012 45.809C7.72251 45.1271 7.77299 44.2835 8.83671 43.7439C10.2954 43.0034 11.8914 42.9785 13.4706 42.9945C15.4413 43.014 17.4128 43.0932 19.3799 43.2034C20.0336 43.2398 20.3684 43.1776 20.5508 42.4104C20.8546 41.1356 21.3674 39.9106 22.1504 38.8296C22.3966 38.4892 22.6579 38.1629 23.0175 37.9291C24.0484 37.2606 24.9686 37.594 25.3061 38.7754C25.6586 40.0111 25.3973 41.277 25.454 42.5278C25.6134 46.033 25.2751 49.5409 25.485 53.0497C25.5869 54.7565 25.826 56.4518 26.2998 58.0688C26.8286 59.8734 28.1438 61.0229 30.0543 61.4007C31.4723 61.6807 32.8964 61.6541 34.3277 61.606C34.6359 61.5954 34.9822 61.4576 35.317 61.7847L35.3144 61.7856ZM20.5854 51.7367C21.6872 51.8051 22.2062 51.109 21.8147 50.2405C21.6464 49.8671 21.3719 49.5284 21.0955 49.2191C19.8077 47.7816 18.0514 47.3256 16.2668 46.9255C15.1995 46.6855 14.2589 46.9495 13.4024 47.5896C12.6877 48.1239 12.6833 49.0955 13.3971 49.6405C13.7089 49.8787 14.0782 49.988 14.4608 50.0796C15.9346 50.4334 17.4589 50.5828 18.876 51.1695C19.4791 51.4193 20.0602 51.7411 20.5863 51.7367H20.5854ZM15.6025 50.9526C14.1066 50.9144 13.592 51.1695 13.4122 51.8478C13.2235 52.5581 13.7576 53.712 14.5078 54.0053C16.2402 54.6827 17.9611 54.3618 19.6527 53.8009C20.0097 53.6826 20.1992 53.3573 20.201 52.9501C20.2028 52.5234 19.9441 52.3029 19.6014 52.1438C18.2135 51.502 16.7778 51.0317 15.6034 50.9526H15.6025Z" fill="black"/>
<path d="M78.7617 37.1638C78.7617 36.3237 78.8025 35.4809 78.7467 34.6453C78.713 34.1359 78.7484 33.4825 78.0585 33.335C77.2879 33.1705 76.6635 33.3892 76.2924 34.1804C75.6609 35.5263 75.3456 36.9566 75.1897 38.4128C75.1136 39.1266 74.8523 39.2938 74.1809 39.2769C71.2794 39.2031 68.3992 39.4591 65.5419 39.9667C65.1646 40.0334 64.7864 40.1481 64.4357 40.301C64.0026 40.4894 63.4579 40.6974 63.535 41.2762C63.6164 41.8851 64.2231 41.8593 64.6775 41.9056C65.2408 41.9633 65.8112 41.9473 66.3789 41.9536C66.9466 41.9589 67.5144 41.942 68.0821 41.9536C68.4319 41.9607 68.8695 41.886 69.0245 42.2923C69.1954 42.7412 68.6781 42.7741 68.4665 42.9794C67.5082 43.9075 67.0751 45.9717 68.8934 46.8038C69.1511 46.922 69.322 47.0172 69.0856 47.3176C68.0918 48.5844 68.2105 49.3472 69.5877 50.2557C69.8862 50.453 69.9349 50.6664 69.9837 50.9802C70.5275 54.4525 71.3795 57.8369 73.1792 60.8923C74.4582 63.0631 75.8345 65.1887 78.0611 66.5346C81.2957 68.4894 84.8358 69.0415 88.5477 68.7232C89.0224 68.6823 89.4945 68.6157 89.9692 68.573C90.196 68.5525 90.4971 68.4663 90.5538 68.7979C90.6122 69.141 90.2943 69.1499 90.0711 69.189C88.5973 69.4531 87.1084 69.6069 85.6169 69.4646C82.8439 69.2015 80.1372 68.677 77.7343 67.1311C76.6157 66.411 75.66 65.5149 74.8257 64.4837C71.7736 60.71 70.1307 56.3416 69.462 51.574C69.3902 51.0629 69.2459 50.7153 68.8243 50.3846C67.7322 49.5294 67.5099 48.6395 68.0396 47.4421C68.1804 47.1247 68.0165 47.0216 67.8607 46.8456C66.8589 45.7113 66.7881 44.4702 67.5516 43.207C67.9306 42.5812 67.6693 42.5243 67.1326 42.5261C66.2363 42.5296 65.34 42.5127 64.4437 42.4994C63.6944 42.4887 63.0407 42.2425 62.8725 41.4477C62.7121 40.693 63.2081 40.2218 63.8308 39.8929C65.3001 39.1168 66.9449 39.1817 68.5196 38.9106C70.2378 38.6155 71.9729 38.7221 73.7018 38.7301C74.3182 38.7328 74.5954 38.5995 74.6654 37.9078C74.7991 36.5744 75.0755 35.2587 75.6751 34.0346C76.1463 33.0736 77.179 32.5376 78.1913 32.8194C78.8352 32.9989 79.294 33.3723 79.31 34.1421C79.3489 36.0534 79.3135 37.9745 79.4942 39.8743C79.8741 43.8551 80.2975 47.8403 81.4826 51.686C81.9192 53.104 82.595 54.4481 83.7092 55.4242C84.9456 56.5087 86.5292 56.6305 88.1057 56.4598C88.9595 56.3674 89.7974 56.1398 90.6477 56.0056C90.8833 55.9682 91.2535 55.842 91.3234 56.2154C91.3961 56.6038 90.9966 56.5914 90.7646 56.643C89.1951 56.9923 87.6337 57.307 85.9943 57.0919C84.028 56.8341 82.7703 55.6838 81.8262 54.0658C80.565 51.9047 80.0973 49.4743 79.7227 47.0634C79.2143 43.7884 78.7006 40.5001 78.7635 37.1638H78.7617Z" fill="black"/>
<path d="M39.8716 112.494C41.0053 112.494 41.883 112.497 42.7608 112.494C46.5834 112.476 50.4051 112.451 54.2233 112.218C54.838 112.181 55.1693 112.019 55.3827 111.394C57.3702 105.557 59.3347 99.7136 60.9918 93.7709C61.2477 92.8534 61.5046 91.936 61.7712 91.0213C61.8465 90.7617 61.9377 90.4737 62.3079 90.5786C62.7871 90.7137 62.4487 91.0488 62.4 91.2293C60.6694 97.7179 58.5428 104.083 56.4181 110.449C56.3897 110.534 56.3676 110.621 56.3366 110.706C55.5501 112.826 55.5448 112.753 53.2845 112.915C49.6124 113.177 45.9386 113.019 42.2665 113.079C41.5846 113.091 40.9035 113.195 40.2215 113.198C39.8424 113.2 39.4137 113.141 39.3119 112.649C39.2171 112.191 39.4961 111.927 39.8539 111.715C40.0842 111.578 40.2915 111.4 40.5288 111.279C43.6677 109.685 44.0981 106.521 44.8342 103.605C46.1149 98.5313 47.0262 93.3744 48.0634 88.2459C48.2582 87.2831 48.3433 86.299 48.5098 85.33C48.5505 85.0909 48.5452 84.6802 48.8906 84.7122C49.3237 84.7522 49.1926 85.1825 49.1545 85.4403C48.9172 87.0618 48.702 88.6895 48.3778 90.2941C47.5948 94.1745 46.7827 98.0495 45.9289 101.915C45.4152 104.242 44.7713 106.535 43.8989 108.763C43.4117 110.008 42.3569 110.629 41.4057 111.384C40.977 111.725 40.5182 112.028 39.8699 112.494L39.8716 112.494Z" fill="black"/>
<path d="M63.6715 113.444C65.7485 113.444 67.8254 113.44 69.9023 113.445C72.3513 113.45 74.8029 113.402 77.2483 113.503C78.1676 113.542 79.0896 113.522 80.0081 113.583C81.062 113.653 81.5022 113.308 81.4393 112.263C81.2941 109.841 81.0647 107.423 80.8805 105.002C80.7582 103.399 80.6759 101.794 80.5404 100.193C80.3269 97.6699 80.1852 95.1425 79.9071 92.6223C79.6795 90.5625 79.4749 88.493 79.3093 86.4235C79.2641 85.8599 79.1906 85.298 79.141 84.7344C79.1206 84.5006 79.0701 84.2064 79.4138 84.1815C79.714 84.1602 79.7999 84.4011 79.8221 84.6633C79.8849 85.4065 79.9877 86.1488 80.0107 86.8938C80.0754 88.9828 80.4447 91.0382 80.6413 93.1112C80.8008 94.7914 81.0257 96.4662 80.9681 98.1784C80.9159 99.7439 81.2303 101.32 81.3419 102.894C81.481 104.858 81.7484 106.808 81.8476 108.778C81.9185 110.179 82.0097 111.565 81.8609 112.966C81.7626 113.896 81.2746 114.163 80.4217 114.147C76.7036 114.077 72.9854 114.027 69.2673 113.985C67.6624 113.967 66.0567 113.991 64.4518 113.991C64.1241 113.991 63.7955 113.981 63.4678 113.964C63.1295 113.946 62.9072 113.752 62.8257 113.437C62.7407 113.11 62.8664 112.867 63.1826 112.704C63.5006 112.541 63.7849 112.31 64.1055 112.153C66.256 111.107 66.3755 109.233 66.178 107.188C66.0018 105.36 65.8264 103.532 65.8096 101.686C65.7928 99.8381 65.5837 97.9926 65.4606 96.1453C65.3517 94.5123 65.2374 92.8801 65.1506 91.2462C65.1391 91.0239 64.9744 90.6132 65.3933 90.6079C65.8016 90.6025 65.6431 91.0017 65.667 91.2399C66.0567 95.0732 66.3481 98.91 66.4065 102.767C66.4296 104.305 66.7502 105.837 66.8565 107.377C66.9946 109.373 66.9087 111.305 64.7662 112.369C64.3491 112.576 63.9921 112.908 63.6078 113.182C63.629 113.27 63.6503 113.357 63.6715 113.444Z" fill="black"/>
<path d="M50.6185 65.3486C50.1437 64.8624 49.3112 64.6517 49.6734 63.8365C50.049 62.9902 50.831 63.0444 51.5892 63.1867C51.7885 63.224 51.9904 63.2889 52.1702 63.3796C52.3898 63.4907 52.6183 63.6907 52.4802 63.9405C52.2968 64.2712 52.0852 63.9707 51.8903 63.8756C51.7034 63.7849 51.5165 63.6685 51.3181 63.6347C50.8859 63.5618 50.3811 63.6507 50.2288 64.0347C50.0436 64.5015 50.6282 64.4926 50.8886 64.6864C51.1428 64.8757 51.6175 64.8766 51.6326 65.2446C51.6476 65.6038 51.2101 65.7025 50.9453 65.8669C50.4298 66.1861 49.979 66.555 49.7044 67.1088C49.5919 67.3355 49.2545 67.5693 49.4768 67.7987C49.615 67.9418 50.0038 67.9356 50.2429 67.868C51.1012 67.6235 51.9213 67.2822 52.644 66.7301C52.8637 66.5621 53.2171 66.2625 53.4217 66.5532C53.6936 66.939 53.2118 67.1061 52.9691 67.2626C52.0905 67.8298 51.1446 68.2556 50.118 68.4841C49.6823 68.581 49.2917 68.5534 48.9932 68.1614C48.7071 67.7853 48.8568 67.4431 49.0278 67.0759C49.3652 66.3505 49.956 65.8634 50.6185 65.3486Z" fill="black"/>
</g>
<defs>
<clipPath id="clip0_334_2502">
<rect width="71.6093" height="71.9304" fill="white" transform="translate(27 27)"/>
</clipPath>
<clipPath id="clip1_334_2502">
<rect width="83.33" height="81.4033" fill="white" transform="translate(8 32.7434)"/>
</clipPath>
</defs>
</svg>
