<svg width="125" height="125" viewBox="0 0 125 125" fill="none" xmlns="http://www.w3.org/2000/svg">
<g clip-path="url(#clip0_334_2529)">
<path d="M53.6541 32.8172C56.5548 32.1081 55.9899 27.0002 60.0942 27.0002C66.0381 27.0002 63.7445 31.4903 67.4541 32.1782C69.365 32.5327 71.6296 27.2834 75.8038 29.199C81.5537 31.8369 77.856 35.6549 80.333 37.073C83.912 39.1236 85.4983 33.5977 89.7451 38.5627C93.0615 42.4415 88.754 44.5211 89.6738 46.7198C91.1822 50.3248 95.9714 46.9328 97.4574 52.1822C98.9777 57.5533 93.7741 57.5851 94.0605 60.3394C94.4142 63.7446 99.5795 62.6096 98.4485 68.568C97.5445 73.324 93.431 70.8937 92.0084 74.4564C90.8761 77.2941 96.6075 78.2876 92.4333 83.7487C89.4204 87.6897 86.7599 83.6018 84.0123 85.9474C82.1014 87.5785 86.2769 91.8357 81.2529 94.2474C76.7395 96.4144 74.5303 91.9059 72.337 92.8293C68.8055 94.3136 70.9223 98.9293 65.8269 98.9293C58.8919 98.9293 62.3614 94.6933 58.6095 94.1059C54.7573 93.5026 55.1427 98.9372 49.9761 96.7306C44.1536 94.2435 48.2064 91.0552 45.1645 88.9981C43.1572 87.6407 39.2905 90.9838 36.7435 88.076C32.0916 82.7644 38.1846 81.8212 36.0362 78.6408C34.0395 75.6867 30.2335 79.2084 28.535 74.6681C26.2348 68.5191 32.4981 68.2122 31.6482 65.3758C30.9646 63.0924 26.4987 61.1649 27.049 58.5654C28.3226 52.5354 32.7805 54.3796 33.8428 51.5419C34.698 49.2546 30.376 46.7185 33.0642 42.8873C36.601 37.8496 39.6455 42.1782 41.5564 39.9081C43.2351 37.9131 40.5654 33.7366 44.4571 31.7509C49.497 29.1791 49.7135 33.7789 53.6567 32.8145L53.6541 32.8172Z" fill="#2D6BA4"/>
</g>
<g clip-path="url(#clip1_334_2529)">
<path d="M101.706 50.2451C101.674 52.9464 101.66 55.6544 100.656 58.2305C99.8018 60.4235 97.8285 61.6802 95.4716 61.9263C91.6173 62.3298 88.9563 60.6121 86.9152 57.5734C86.8517 57.4786 86.7924 57.3805 86.7408 57.2799C86.6264 57.0558 86.435 56.786 86.7619 56.6245C87.0329 56.4908 87.1574 56.764 87.2574 56.9687C87.7579 57.9937 88.5616 58.7608 89.3984 59.5008C91.6783 61.5179 94.2944 61.7183 97.0832 60.8869C99.2225 60.2493 100.068 58.5299 100.507 56.5661C101.133 53.7701 101.198 50.9251 101.073 48.0724C101.052 47.587 101.081 47.1058 101.187 46.6271C101.431 45.5352 102.236 45.1335 103.239 45.6528C104.671 46.3953 105.38 47.735 106.032 49.1127C106.105 49.2658 106.141 49.4357 106.204 49.5939C106.539 50.4396 107.144 50.7452 108.019 50.5107C109.3 50.1673 109.986 50.4379 110.621 51.5932C110.767 51.8588 110.941 51.7463 111.121 51.7573C112.179 51.8249 112.796 52.4186 112.891 53.4648C112.913 53.7041 112.795 53.9562 113.107 54.1329C113.876 54.5702 113.988 55.2611 113.772 56.0527C113.719 56.2481 113.73 56.4189 113.815 56.6236C114.651 58.6246 113.346 61.1424 111.164 61.6862C110.735 61.7936 110.614 61.9424 110.615 62.3577C110.644 68.0554 105.943 72.5648 101.715 73.6076C98.5763 74.3823 95.458 75.1367 92.194 74.9049C89.7202 74.729 87.2582 74.4753 84.8869 73.6829C84.7793 73.6465 84.6794 73.5856 84.5701 73.556C84.3067 73.4833 84.0213 73.3564 84.1111 73.0579C84.2136 72.717 84.5185 72.8507 84.7581 72.9521C85.8142 73.4004 86.9381 73.5645 88.0526 73.7953C93.1739 74.8584 98.1783 74.3197 102.993 72.4616C106.536 71.0941 108.698 68.2981 109.754 64.6716C109.903 64.1599 110.129 63.6643 110.136 63.107C110.143 62.4126 110.204 61.8646 109.363 61.4037C108.735 61.0586 108.263 60.4412 107.46 60.2526C106.934 60.1292 106.667 59.593 106.807 59.017C106.897 58.6449 106.863 58.5172 106.453 58.3717C105.18 57.921 104.872 57.1395 105.483 55.9233C105.679 55.5318 105.463 55.5081 105.244 55.3745C104.374 54.8425 104.205 54.2945 104.603 53.3726C104.867 52.7603 105.213 52.1878 105.756 51.8046C106.24 51.4621 106.32 51.1729 106.028 50.6341C105.383 49.4383 104.999 48.0986 104.029 47.0846C103.95 47.0026 103.892 46.896 103.803 46.8284C103.333 46.4706 102.868 45.9065 102.233 46.1636C101.609 46.4156 101.729 47.1218 101.712 47.6766C101.686 48.5317 101.705 49.3884 101.705 50.2443L101.706 50.2451ZM107.184 57.833C108.552 57.7831 109.586 56.9814 110.547 56.1652C111.266 55.5529 111.949 54.8239 112.234 53.8513C112.412 53.2407 112.151 52.8043 111.666 52.477C111.201 52.1632 110.735 52.3214 110.447 52.6977C109.446 54.0035 108.152 54.8636 106.654 55.5013C106.066 55.7517 105.646 56.3056 105.779 57.011C105.921 57.7594 106.553 57.8212 107.185 57.833H107.184ZM106.229 54.9245C107.527 54.6556 108.658 53.7701 109.658 52.6994C109.984 52.3501 110.254 51.9002 109.938 51.386C109.636 50.8946 109.114 50.8709 108.652 50.9581C107.043 51.2617 105.84 52.1497 105.15 53.65C104.804 54.4019 105.174 54.9051 106.229 54.9245ZM108.485 59.8839C109.883 59.9363 110.821 59.0576 111.752 58.2288C112.552 57.5167 113.154 56.6481 113.208 55.5182C113.224 55.2053 113.222 54.8518 112.859 54.719C112.457 54.5727 112.417 54.9854 112.26 55.1859C111.17 56.5864 109.848 57.6842 108.167 58.2965C107.65 58.4851 107.263 58.7608 107.379 59.3308C107.496 59.9042 108.04 59.856 108.485 59.8839ZM113.492 57.2994C113.108 57.4186 113.044 57.7315 112.871 57.937C112.053 58.9088 111.072 59.6564 109.927 60.2053C109.714 60.3076 109.313 60.2425 109.317 60.547C109.321 60.8776 109.67 61.0493 109.961 61.1508C110.346 61.2836 110.742 61.2438 111.134 61.1102C112.645 60.5926 113.617 59.0593 113.492 57.3002V57.2994Z" fill="black"/>
<path d="M45.5932 112.387C47.6834 112.387 49.5805 112.443 51.4733 112.374C54.4113 112.267 57.345 112.057 60.2829 111.932C60.9113 111.905 61.2264 111.829 61.2873 111.073C61.5109 108.294 61.7972 105.52 62.1199 102.751C62.5907 98.7038 62.7864 94.6375 63.0862 90.578C63.2378 88.5322 63.3284 86.4813 63.4588 84.4337C63.4715 84.235 63.3479 83.8967 63.6824 83.8823C64.039 83.8671 64.0356 84.2096 64.0229 84.4557C63.8738 87.36 63.7281 90.2651 63.5511 93.1676C63.4317 95.1289 63.2878 97.0901 63.1107 99.0471C62.877 101.626 62.6077 104.201 62.3367 106.776C62.1588 108.472 61.9556 110.165 61.7557 111.858C61.7066 112.273 61.9835 112.24 62.2427 112.24C63.3005 112.241 64.3599 112.285 65.4143 112.234C68.9798 112.06 72.547 112.12 76.1845 112.096C76.0812 111.825 75.8661 111.801 75.673 111.725C74.6779 111.334 73.7759 110.761 73.0814 109.966C72.2684 109.035 72.4191 107.843 72.6537 106.774C73.3076 103.789 74.124 100.842 74.688 97.8352C75.2656 94.7593 75.6078 91.6563 75.8127 88.5364C75.8203 88.4222 75.828 88.3072 75.8186 88.1939C75.7899 87.8403 75.9846 87.6069 76.2989 87.634C76.6224 87.6619 76.4826 87.9943 76.4699 88.1888C76.254 91.34 75.9677 94.4836 75.3901 97.5933C74.8405 100.553 74.0351 103.454 73.3948 106.391C72.7816 109.206 73.1865 109.97 76.0558 111.233C76.3666 111.37 76.6977 111.462 77.023 111.565C77.2847 111.648 77.4998 111.765 77.5091 112.079C77.5192 112.441 77.2576 112.578 76.9772 112.654C76.7333 112.72 76.4725 112.746 76.2192 112.747C71.5333 112.763 66.8405 112.934 62.1622 112.741C56.8241 112.52 51.5242 113.315 46.1962 113.077C46.054 113.07 45.9083 113.094 45.7677 113.075C45.3476 113.02 44.7506 113.271 44.6286 112.629C44.5134 112.026 45.1308 111.956 45.495 111.731C45.882 111.492 46.2902 111.286 46.6951 111.076C48.2026 110.294 48.7251 108.922 48.6879 107.373C48.6269 104.856 48.975 102.371 49.1215 99.8717C49.2697 97.3447 49.5153 94.8227 49.7558 92.3016C49.9523 90.2363 50.2038 88.1753 50.4274 86.1125C50.4469 85.9324 50.4731 85.7404 50.6925 85.7514C50.8991 85.7615 50.955 85.9501 50.9432 86.132C50.8814 87.0986 50.8542 88.0695 50.7382 89.0294C50.3385 92.3371 50.1208 95.6591 49.8828 98.9795C49.7236 101.194 49.5017 103.404 49.2909 105.614C49.2206 106.354 49.3315 107.088 49.2646 107.834C49.1155 109.486 48.4719 110.78 46.9627 111.577C46.5477 111.797 46.1539 112.054 45.5924 112.388L45.5932 112.387Z" fill="black"/>
<path d="M36.5612 71.9042C38.8123 73.5466 40.2504 75.65 41.5123 77.8286C42.3583 79.29 42.7547 80.9612 42.0712 82.7186C41.7121 83.6413 41.005 84.0422 40.1953 84.279C38.0281 84.9124 35.8303 84.9852 33.6199 84.4397C32.4867 84.1606 31.3451 83.972 30.6015 82.8877C30.4533 82.6712 29.9113 82.7287 29.553 82.6509C28.3919 82.3998 28.1471 82.0665 28.2911 80.8944C28.3258 80.6136 28.3098 80.4081 28.0142 80.2651C27.4374 79.986 26.9691 79.5674 27.1453 78.8688C27.3214 78.1711 27.9803 77.996 28.5901 77.8227C28.7688 77.7719 28.9576 77.7558 29.2058 77.7119C27.0428 75.6255 24.9484 73.6354 23.7466 70.8775C22.3204 67.6054 22.9742 63.0029 25.4108 60.4065C27.6602 58.0097 30.3491 56.3521 33.5894 55.6662C35.2493 55.3152 36.9245 55.2543 38.6031 55.5554C38.8801 55.6053 39.2468 55.6467 39.1714 56.0155C39.107 56.3335 38.7564 56.2464 38.5091 56.2041C35.019 55.6087 31.7914 56.4147 28.878 58.2837C26.682 59.6927 24.7858 61.5178 24.0405 64.1337C23.219 67.0184 23.556 69.7806 25.2482 72.3559C26.4652 74.208 27.943 75.8225 29.6496 77.1841C30.9843 78.2498 32.4274 79.2063 33.9248 80.0605C34.3813 80.321 34.8335 80.3243 35.323 80.2617C35.5695 80.2296 35.9032 80.1932 35.9252 80.5501C35.948 80.9155 35.6161 80.8884 35.3671 80.8884C34.4211 80.891 33.4878 80.9696 32.5951 81.3164C32.4901 81.357 32.3673 81.3713 32.2775 81.4331C31.871 81.7173 31.2528 81.8636 31.2426 82.459C31.2324 83.073 31.8244 83.281 32.2818 83.4442C34.449 84.2155 36.6747 84.3204 38.9317 83.906C39.8006 83.747 40.6603 83.5905 41.2929 82.8759C42.205 81.845 42.0839 80.6271 41.5986 79.5767C40.0928 76.3164 38.1517 73.3733 34.8377 71.6175C34.6082 71.4957 34.2347 71.4078 34.4346 71.0137C34.6176 70.6517 34.8869 70.9266 35.1011 70.9917C36.6146 71.4551 37.962 71.0568 39.2214 70.2128C39.4399 70.0665 39.644 69.6495 39.893 69.9151C40.208 70.2525 39.8235 70.5375 39.5652 70.7439C38.7462 71.3985 37.7443 71.6235 36.5612 71.9025V71.9042ZM32.8348 80.4926C31.4958 80.1214 30.3932 80.0774 29.3083 80.5501C28.9051 80.7261 28.5122 80.962 28.6578 81.4999C28.8035 82.0386 30.35 82.4615 30.6565 82.0014C31.1478 81.2639 31.8973 80.9662 32.8348 80.4935V80.4926ZM31.9642 79.5767C30.903 78.8189 30.0239 77.9614 28.6866 78.3682C28.2725 78.4942 27.6873 78.6117 27.7906 79.1919C27.8829 79.7103 28.4004 80.0292 28.9009 79.893C29.8655 79.63 30.8564 79.7391 31.9642 79.5759V79.5767Z" fill="black"/>
<path d="M67.8644 64.1979C64.9569 64.0254 62.1096 63.9112 59.5596 62.3932C58.3155 61.6531 57.2187 60.7685 56.4709 59.5084C56.3176 59.2504 56.044 58.913 56.4133 58.6939C56.7614 58.4876 56.8596 58.891 57.0036 59.1261C58.3061 61.2633 60.3743 62.2967 62.6677 62.9471C66.7405 64.1015 70.7634 63.989 74.6803 62.2764C76.3123 61.5635 77.6902 60.5385 78.5092 58.8977C78.6134 58.6888 78.6989 58.4309 78.9886 58.5561C79.3239 58.7007 79.1927 58.9586 79.0792 59.2039C78.3754 60.7271 77.1287 61.6963 75.7237 62.5082C73.2643 63.929 70.5245 64.0203 67.8635 64.1979H67.8644Z" fill="black"/>
<path d="M72.8963 55.3066C72.8963 54.6131 72.8929 53.8756 73.7762 53.7124C74.3258 53.6101 74.7552 54.3687 74.7459 55.337C74.7442 55.5612 74.7163 55.787 74.6765 56.0085C74.574 56.5777 74.4402 57.2535 73.7313 57.1976C73.0665 57.1461 72.9555 56.4779 72.8988 55.9011C72.8793 55.7049 72.8954 55.5053 72.8954 55.3074L72.8963 55.3066Z" fill="black"/>
<path d="M61.7689 55.6983C61.7918 54.6589 62.1771 54.0128 62.7522 54.1067C63.5898 54.2437 63.4873 55.0065 63.5966 55.5884C63.6821 56.0417 63.5161 56.4908 63.3908 56.9238C63.2925 57.2629 63.0579 57.5674 62.6709 57.5446C62.3042 57.5226 62.0527 57.2418 61.9586 56.8934C61.8485 56.4857 61.7037 56.0764 61.7689 55.6983Z" fill="black"/>
</g>
<defs>
<clipPath id="clip0_334_2529">
<rect width="71.6093" height="71.9304" fill="white" transform="translate(27 27)"/>
</clipPath>
<clipPath id="clip1_334_2529">
<rect width="91.0692" height="67.6932" fill="white" transform="translate(23 45.428)"/>
</clipPath>
</defs>
</svg>
