<svg width="125" height="125" viewBox="0 0 125 125" fill="none" xmlns="http://www.w3.org/2000/svg">
<g clip-path="url(#clip0_334_2556)">
<path d="M53.6541 32.8172C56.5548 32.1081 55.9899 27.0002 60.0942 27.0002C66.0381 27.0002 63.7445 31.4903 67.4541 32.1782C69.365 32.5327 71.6296 27.2834 75.8038 29.199C81.5537 31.8369 77.856 35.6549 80.333 37.073C83.912 39.1236 85.4983 33.5977 89.7451 38.5627C93.0615 42.4415 88.754 44.5211 89.6738 46.7198C91.1822 50.3248 95.9714 46.9328 97.4574 52.1822C98.9777 57.5533 93.7741 57.5851 94.0605 60.3394C94.4142 63.7446 99.5795 62.6096 98.4485 68.568C97.5445 73.324 93.431 70.8937 92.0084 74.4564C90.8761 77.2941 96.6075 78.2876 92.4333 83.7487C89.4204 87.6897 86.7599 83.6018 84.0123 85.9474C82.1014 87.5785 86.2769 91.8357 81.2529 94.2474C76.7395 96.4144 74.5303 91.9059 72.337 92.8293C68.8055 94.3136 70.9223 98.9293 65.8269 98.9293C58.8919 98.9293 62.3614 94.6933 58.6095 94.1059C54.7573 93.5026 55.1427 98.9372 49.9761 96.7306C44.1536 94.2435 48.2064 91.0552 45.1645 88.9981C43.1572 87.6407 39.2905 90.9838 36.7435 88.076C32.0916 82.7644 38.1846 81.8212 36.0362 78.6408C34.0395 75.6867 30.2335 79.2084 28.535 74.6681C26.2348 68.5191 32.4981 68.2122 31.6482 65.3758C30.9646 63.0924 26.4987 61.1649 27.049 58.5654C28.3226 52.5354 32.7805 54.3796 33.8428 51.5419C34.698 49.2546 30.376 46.7185 33.0642 42.8873C36.601 37.8496 39.6455 42.1782 41.5564 39.9081C43.2351 37.9131 40.5654 33.7366 44.4571 31.7509C49.497 29.1791 49.7135 33.7789 53.6567 32.8145L53.6541 32.8172Z" fill="#2D6BA4"/>
</g>
<g clip-path="url(#clip1_334_2556)">
<path d="M39.8661 72.5912C40.6482 72.5912 41.4313 72.5893 42.2134 72.5921C42.5056 72.593 42.8266 72.6134 42.8025 73.0106C42.7812 73.3662 42.4657 73.3088 42.2236 73.3153C37.9234 73.4412 33.651 73.2755 29.6078 71.604C27.5204 70.741 25.9079 69.3177 24.6462 67.375C22.94 64.746 22.0122 61.9023 21.6189 58.8436C21.566 58.4297 21.2682 58.3723 20.9945 58.2464C20.2133 57.8871 19.267 57.4593 19.1046 56.6685C18.7576 54.9813 17.4625 53.7219 17.2213 52.0273C17.2166 51.9967 17.1925 51.968 17.1925 51.9384C17.1934 50.504 17.8503 49.2363 18.3077 47.9353C18.5545 47.2324 19.4368 46.9824 20.1437 47.0185C20.936 47.0593 21.6597 46.9806 22.4103 46.7481C22.7554 46.6416 22.9549 46.5815 22.9845 46.1861C23.0541 45.286 23.1784 44.3896 23.2545 43.4895C23.3009 42.9422 22.7999 43.0367 22.5207 42.9913C20.3822 42.6431 18.4515 41.8153 16.711 40.542C10.674 36.1268 9.26848 28.4262 13.1122 22.6053C18.7465 14.073 29.5559 14.4045 35.3563 21.3135C38.7157 25.3157 39.315 31.7913 36.5698 36.2815C34.0982 40.3244 30.4614 42.7228 25.6528 43.1173C24.9644 43.1737 24.6944 43.3247 24.7844 44.0266C24.8317 44.3924 24.7798 44.7767 24.7362 45.148C24.5766 46.5166 24.571 46.5157 25.8884 46.5203C27.8998 46.5268 28.6968 47.163 29.143 49.1233C29.5327 50.8346 30.1896 52.4394 31.019 53.9858C32.4477 56.649 34.7736 57.775 37.6794 57.9649C38.9356 58.0464 40.1732 57.8352 41.4201 57.7732C41.6604 57.7611 41.9879 57.7111 42.0399 58.0343C42.0918 58.3575 41.7838 58.4316 41.5361 58.4603C39.4505 58.6955 37.363 58.8649 35.2997 58.2992C32.3383 57.487 30.7137 55.3387 29.6153 52.6477C29.1198 51.4347 28.7153 50.2049 28.4435 48.9196C28.1522 47.5445 27.4267 47.0639 26.0322 47.1926C24.8503 47.3019 23.6516 47.1343 22.4808 47.4102C21.9946 47.5251 21.4547 47.6028 21.3851 48.2427C21.3164 48.8742 21.8183 49.0882 22.259 49.3215C23.1181 49.7771 24.0431 50.0605 24.9662 50.3522C25.1323 50.4049 25.3605 50.4383 25.3448 50.6911C25.3327 50.8707 25.1833 50.9957 25.0265 50.9615C23.8668 50.7059 24.3975 51.6958 24.4755 51.9134C24.7955 52.8052 25.1722 53.6173 24.1201 54.2923C23.9318 54.4136 24.1201 54.622 24.1619 54.797C24.2713 55.2535 24.3446 55.7249 24.0533 56.149C23.9169 56.3471 23.9207 56.5018 24.0014 56.7416C24.3279 57.7084 23.8845 58.5631 22.9057 58.664C22.2887 58.7279 22.2711 58.977 22.3397 59.428C22.6775 61.6661 23.4419 63.7663 24.4393 65.7841C26.2837 69.5177 29.5216 71.2605 33.4404 72.0337C35.5641 72.4532 37.7081 72.6152 39.8671 72.5912H39.8661ZM24.6378 42.4552C30.9383 42.6524 37.5838 37.2538 37.6451 29.8383C37.7063 22.4608 31.6536 17.1066 25.2316 16.9085C17.803 16.6807 11.9664 22.2497 11.7623 29.4327C11.5526 36.8213 17.9867 42.5515 24.6369 42.4552H24.6378ZM20.6772 48.1409C20.975 47.5362 20.5121 47.6103 20.191 47.613C18.9887 47.626 18.2121 48.6715 18.5034 49.8642C18.9738 51.7865 20.9082 53.4617 22.953 53.7293C23.4095 53.7886 23.8474 53.7765 24.1062 53.3422C24.3651 52.9098 24.0682 52.4875 23.814 52.2486C22.8908 51.3782 22.4372 50.1031 21.2914 49.4234C20.8479 49.1604 20.6456 48.6789 20.6763 48.1409H20.6772ZM17.9431 50.6485C17.5478 53.0793 19.5138 55.873 21.7525 56.2573C22.118 56.3203 22.5012 56.3286 22.8621 56.1869C23.2554 56.0323 23.6395 55.8202 23.5913 55.3369C23.5458 54.8868 23.3074 54.4747 22.8175 54.3923C20.59 54.0182 19.1492 52.6125 17.9421 50.6494L17.9431 50.6485ZM19.4414 55.9341C20.0602 57.2676 21.2209 57.813 22.5643 58.051C22.9085 58.1121 23.2378 57.9269 23.3955 57.5732C23.5718 57.1778 23.4308 56.7638 23.0161 56.8666C21.63 57.2102 20.5631 56.5833 19.4405 55.9341H19.4414Z" fill="black"/>
<path d="M93.7423 19.0622C93.9965 18.2158 94.1496 17.5944 94.3723 16.9981C94.5606 16.4953 94.8389 15.9702 95.4707 16.0008C96.0701 16.0295 96.3697 16.5138 96.5608 17.0333C97.1156 18.5427 97.2186 20.128 97.3272 21.7115C97.3365 21.8513 97.2585 22.0198 97.4988 22.168C97.8569 21.7355 97.8977 21.1568 98.1501 20.6836C98.3551 20.2984 98.5351 19.9002 98.7411 19.515C98.9276 19.1668 99.1975 18.889 99.6188 18.9084C100.089 18.9307 100.175 19.3529 100.301 19.6956C100.638 20.6206 100.486 21.6059 100.642 22.5606C101.193 25.9341 101.15 29.3436 101.055 32.7449C100.967 35.8905 100.531 39.0065 100.161 42.1318C99.602 46.8683 98.3728 51.4141 96.6165 55.8108C94.6357 60.7686 91.9675 65.3412 88.2973 69.2786C88.1692 69.4157 88.0505 69.5685 87.902 69.6777C87.6525 69.8611 87.4316 70.3713 87.081 70.025C86.7358 69.6842 87.1988 69.4268 87.4159 69.1953C91.717 64.6134 94.6626 59.2305 96.7566 53.3578C98.3171 48.9824 99.4313 44.4635 99.8618 39.8621C100.303 35.1515 100.622 30.4021 100.21 25.6516C100.078 24.133 100.036 22.606 99.9565 21.0827C99.9388 20.7401 99.9546 20.3938 99.9147 20.0539C99.8943 19.8835 99.8368 19.6548 99.6382 19.6168C99.4091 19.5733 99.3284 19.8076 99.2588 19.9659C98.8552 20.8753 98.4665 21.792 98.0787 22.7079C98.0063 22.8792 97.9581 23.0607 97.8987 23.2375C97.7901 23.5616 97.7029 23.9987 97.2845 23.9367C96.8689 23.8746 96.7863 23.457 96.7501 23.0588C96.6026 21.4485 96.5868 19.8224 96.2055 18.2389C96.1109 17.8472 96.0088 17.4491 95.839 17.087C95.6034 16.5842 95.3047 16.5962 95.0727 17.1064C94.7749 17.7621 94.5912 18.4547 94.4975 19.1677C94.311 20.5864 94.1088 22.0041 94.2006 23.4422C94.2155 23.6755 94.1941 23.9144 93.9297 23.9617C93.6356 24.0145 93.5818 23.7681 93.5521 23.5422C93.3666 22.155 93.1819 20.7688 92.9992 19.3816C92.9398 18.9316 93.0121 18.2732 92.5158 18.1954C91.9601 18.1093 91.8645 18.7992 91.7383 19.2122C91.1353 21.1966 90.9748 23.2459 90.9831 25.309C90.9905 27.1295 91.0045 27.1305 89.2232 26.9962C88.288 26.9258 87.3546 26.8277 86.4185 26.7906C86.1096 26.7786 85.6708 26.6202 85.5028 27.024C85.3293 27.4425 85.6791 27.7287 85.9519 27.9722C86.7674 28.701 87.5328 29.5177 88.4494 30.0928C89.6713 30.8595 90.1686 31.8985 90.1491 33.2616C90.0721 38.7352 89.2807 44.019 85.9148 48.5805C85.231 49.5074 84.7764 50.5872 83.9665 51.4252C83.8022 51.5947 83.6473 51.9021 83.3653 51.6734C83.099 51.4567 83.2985 51.2178 83.4682 51.0307C84.2698 50.1482 84.7782 49.0667 85.4666 48.1101C87.8547 44.7913 88.7862 40.9909 89.2547 37.0239C89.431 35.5321 89.5089 34.0431 89.3837 32.5402C89.3215 31.7892 88.9764 31.3012 88.3891 30.8549C87.3955 30.1002 86.4853 29.2362 85.5028 28.4648C84.8172 27.9259 84.768 27.1925 84.9972 26.5276C85.1957 25.9526 85.8925 26.0665 86.413 26.098C87.5337 26.1646 88.6646 26.1998 89.7678 26.3878C90.369 26.4897 90.3875 26.2841 90.3792 25.8405C90.3458 24.033 90.356 22.2319 90.728 20.4447C90.8495 19.8622 90.9943 19.2918 91.2012 18.7445C91.4285 18.1445 91.6381 17.4555 92.487 17.4565C93.373 17.4583 93.4352 18.2038 93.7432 19.0612L93.7423 19.0622Z" fill="black"/>
<path d="M81.7584 111.653C80.9735 111.257 80.2399 110.902 79.5268 110.523C78.7614 110.115 78.4362 109.587 78.3725 108.786C78.1492 105.981 78.2635 103.179 78.2839 100.377C78.3104 96.6805 78.4788 92.9839 78.5895 89.2881C78.5957 89.0825 78.5213 88.7923 78.9279 88.8087C79.2911 88.8238 79.2655 89.0825 79.2593 89.3074C79.1884 91.7709 79.1512 94.235 79.0475 96.6977C78.8765 100.734 78.9572 104.771 78.958 108.807C78.958 109.41 79.2672 109.869 79.9308 110.173C80.5536 110.459 81.1542 110.775 81.7752 111.063C82.2129 111.265 82.4733 111.541 82.3316 111.95C82.2013 112.326 81.7796 112.338 81.381 112.35C76.1834 112.501 70.9823 112.474 65.7829 112.513C65.0272 112.519 64.8766 112.119 64.8297 111.675C64.7703 111.122 64.8022 110.563 64.7933 110.008C64.7065 104.473 64.6188 98.9376 64.5329 93.4024C64.4851 90.3084 64.4381 87.2152 64.4062 84.1212C64.4035 83.8984 64.2175 83.4943 64.7198 83.5136C65.1247 83.5294 65.0627 83.9156 65.0671 84.1635C65.099 85.9283 65.1061 87.6931 65.1344 89.4579C65.2522 96.8059 65.3763 104.154 65.4914 111.502C65.4959 111.811 65.4525 112.049 66.0274 112.029C70.9858 111.855 75.9486 111.947 80.9088 111.875C81.1622 111.872 81.4536 111.919 81.7575 111.654L81.7584 111.653Z" fill="black"/>
<path d="M44.0164 111.675C44.5484 111.923 44.9639 111.887 45.3683 111.891C50.3975 111.937 55.4296 111.861 60.456 112.031C61.015 112.05 61.1101 111.932 61.1175 111.515C61.2731 102.379 61.4539 93.2421 61.6374 84.1057C61.6421 83.8686 61.4939 83.4839 62.0399 83.5147C62.4666 83.5383 62.3595 83.8765 62.3557 84.105C62.2281 92.0335 62.0995 99.9613 61.9607 107.89C61.9383 109.146 61.8536 110.402 61.8331 111.658C61.8228 112.266 61.5079 112.518 60.6927 112.513C55.3168 112.481 49.941 112.501 44.567 112.359C44.0816 112.346 43.5599 112.348 43.4052 111.915C43.2403 111.454 43.6894 111.218 44.1413 111.018C44.1683 111.006 44.1934 110.991 44.2205 110.978C47.7404 109.381 46.9755 110.043 47.0332 106.979C47.1432 101.184 46.8534 95.3835 46.7295 89.5856C46.7267 89.4645 46.7192 89.3434 46.7267 89.2231C46.7369 89.0604 46.6838 88.8448 46.9932 88.8283C47.3202 88.8111 47.4143 89.0189 47.4199 89.2195C47.4422 90.0412 47.4283 90.8636 47.4571 91.6846C47.6519 97.0978 47.6733 102.512 47.7124 107.926C47.7236 109.463 47.0882 110.468 45.2919 111.081C44.8764 111.223 44.5065 111.444 44.0183 111.675H44.0164Z" fill="black"/>
<path d="M57.6745 64.0016C57.4917 63.646 56.8878 63.8507 57.039 63.3682C57.142 63.0395 57.4862 63.1173 57.7701 63.1339C58.2061 63.1599 58.6459 63.1432 59.0819 63.1691C60.3539 63.2441 61.6583 63.4321 62.4172 62.0209C62.4571 61.9468 62.5582 61.8977 62.6399 61.8533C63.0193 61.6477 63.46 61.0041 63.807 61.5023C64.1521 61.9977 63.37 62.1079 63.0676 62.3441C61.585 63.5016 60.904 65.5388 61.5451 66.9648C62.0628 68.1159 62.9442 68.6576 64.1995 68.6678C64.4834 68.6705 65.0075 68.4418 64.9899 68.9789C64.976 69.4178 64.4824 69.3428 64.1559 69.353C62.5313 69.403 61.1963 68.3733 60.7176 66.6083C60.5905 66.1416 60.4745 66.0574 60.0468 66.2092C59.6107 66.3648 59.6284 66.4815 59.8093 66.9259C60.4856 68.5918 58.8908 70.6022 57.0687 70.429C55.8793 70.3161 54.7854 69.8206 53.7018 69.3641C52.9503 69.0474 52.6163 67.9195 52.8093 66.8935C53.0162 65.7944 53.9319 64.848 54.9923 64.735C55.9322 64.6341 56.7235 64.1183 57.6736 64.0007L57.6745 64.0016ZM60.2936 65.123C59.0049 65.6573 57.5789 65.6388 56.3163 66.1648C55.2002 66.6296 54.9172 67.8316 55.5202 68.8187C56.1196 69.7993 57.488 70.0568 58.464 69.3725C59.3408 68.7576 59.5708 67.4834 58.8713 66.6889C58.5067 66.274 58.6607 66.1685 59.03 65.949C59.453 65.6981 60.0802 65.7925 60.2945 65.123H60.2936ZM56.3571 65.3452C56.3125 65.2804 56.268 65.2147 56.2235 65.1499C55.6631 65.273 55.073 65.3239 54.5479 65.5342C53.52 65.9462 53.0264 67.5769 53.6081 68.5011C53.8438 68.8752 54.2473 69.0058 54.6639 68.9909C54.9265 68.9817 54.8838 68.6992 54.8457 68.5446C54.4876 67.0945 54.8838 65.987 56.3571 65.3443V65.3452ZM59.8019 64.5211C58.7553 64.0266 58.079 64.5924 57.1253 64.6887C58.1532 65.2693 58.8667 64.9184 59.8019 64.5211Z" fill="black"/>
<path d="M68.7763 57.7831C68.7271 58.0433 68.6807 58.3174 68.6241 58.5887C68.5063 59.1582 68.3217 59.7999 67.6528 59.7786C66.9272 59.7564 66.8122 59.0369 66.712 58.4619C66.6433 58.0674 66.6925 57.6525 66.6972 57.2469C66.7046 56.583 66.9606 56.0265 67.6667 55.9746C68.317 55.9264 68.5323 56.4821 68.651 57.0284C68.7039 57.2701 68.7336 57.5155 68.7772 57.784L68.7763 57.7831Z" fill="black"/>
<path d="M54.5107 58.1583C54.4783 57.7768 54.5562 57.411 54.6981 57.0638C54.8215 56.761 54.8837 56.3795 55.3346 56.3758C55.7846 56.3721 56.0109 56.6675 56.1325 57.0406C56.4117 57.8981 56.3765 58.7547 56.0286 59.5881C55.9024 59.89 55.6732 60.128 55.3355 60.1446C54.9375 60.1641 54.8503 59.8103 54.7529 59.5242C54.6017 59.0834 54.4792 58.6324 54.5117 58.1583H54.5107Z" fill="black"/>
<path d="M14.4689 29.841C14.4123 23.9053 19.1763 19.7262 24.7578 19.7743C30.3243 19.8225 35.1042 23.9608 34.9585 30.2577C34.8259 35.986 30.008 40.0502 24.6808 40.0567C19.2413 40.0632 14.2824 35.7165 14.4679 29.8419L14.4689 29.841ZM34.2562 29.878C34.2154 24.2757 30.1165 20.4411 24.6353 20.4929C19.0474 20.5457 15.1786 24.3377 15.1331 29.9169C15.0868 35.6656 19.591 39.3298 24.6761 39.3427C29.8503 39.3566 34.3471 35.5239 34.2562 29.878Z" fill="black"/>
<path d="M27.9713 29.8844C28.065 30.7716 27.9231 31.6226 27.5297 32.4226C27.3284 32.8329 27.0065 33.1533 26.5231 33.1477C26.0703 33.1431 25.7855 32.8069 25.6185 32.431C24.8503 30.7003 24.7789 28.9492 25.5536 27.1981C25.7382 26.7805 26.0555 26.4666 26.5491 26.4666C27.0185 26.4666 27.2523 26.812 27.4518 27.1777C27.912 28.0241 28.0548 28.9325 27.9713 29.8844ZM25.741 29.6817C25.6835 30.5039 25.7855 31.3003 26.1538 32.0365C26.4164 32.5606 26.7356 32.5736 26.9721 32.0152C27.5826 30.5697 27.4861 29.1112 26.986 27.6602C26.9165 27.4583 26.7819 27.2453 26.5472 27.2166C26.2234 27.1768 26.1353 27.4787 26.0527 27.6898C25.8032 28.3278 25.6798 28.9955 25.741 29.6807V29.6817Z" fill="black"/>
<path d="M19.0911 28.1632C19.1032 28.8095 19.2145 29.2642 19.9465 29.4447C20.8158 29.6596 20.8288 30.4541 20.8483 31.1903C20.8687 31.9672 20.8195 32.7145 19.9966 33.0988C19.3926 33.3812 18.9612 33.0265 18.6281 32.5941C18.2542 32.1107 18.2951 31.5236 18.4843 30.9903C18.578 30.7263 18.8378 30.7875 18.9519 31.0634C18.9863 31.1458 18.9835 31.2468 18.9816 31.3394C18.9705 31.8607 19.0057 32.4904 19.6607 32.4339C20.3204 32.3765 20.1886 31.6635 20.1831 31.2051C20.1766 30.6393 20.1923 30.068 19.3184 29.9152C18.5753 29.7855 18.4639 28.9845 18.4342 28.3243C18.4055 27.6585 18.5316 27.0149 19.1839 26.6223C19.4854 26.4408 19.7739 26.4556 20.0634 26.6445C20.4363 26.888 20.5505 27.2797 20.6256 27.6789C20.6405 27.7585 20.5217 27.9066 20.4299 27.9511C20.2629 28.0326 20.1515 27.9029 20.0513 27.7742C19.8843 27.5594 19.9381 27.0427 19.4705 27.226C19.0503 27.3909 19.1449 27.852 19.0911 28.1622V28.1632Z" fill="black"/>
<path d="M29.0051 30.3476C29.0051 29.4151 28.9912 28.4817 29.0107 27.5492C29.0218 27.0084 29.2269 26.501 29.8475 26.5362C30.4144 26.5686 31.0332 26.6593 31.2624 27.3779C31.5453 28.2641 31.0861 29.3021 30.1834 29.404C29.4876 29.4827 29.4792 29.817 29.4839 30.3217C29.4903 31.0995 29.4727 31.8774 29.4375 32.6543C29.4245 32.9413 29.4903 33.3849 29.045 33.359C28.6479 33.3358 28.7852 32.9312 28.7945 32.6756C28.8233 31.8987 28.8752 31.1227 28.9188 30.3467C28.9476 30.3467 28.9764 30.3467 29.0042 30.3467L29.0051 30.3476ZM29.6314 28.0122C29.6991 28.2909 29.4644 28.7382 29.9385 28.7632C30.4153 28.7882 30.6231 28.4391 30.6454 27.9659C30.664 27.5649 30.5285 27.2751 30.1175 27.2353C29.4616 27.1714 29.7631 27.7344 29.6304 28.0122H29.6314Z" fill="black"/>
<path d="M23.1045 30.2048C23.1045 30.8891 23.1091 31.5725 23.1017 32.2568C23.0999 32.4624 23.162 32.7531 22.8651 32.7828C22.4885 32.8217 22.5246 32.4855 22.5237 32.2568C22.52 30.9206 22.5172 29.5834 22.5478 28.2472C22.5599 27.7008 22.4653 27.3758 21.827 27.6258C21.5514 27.7342 21.3121 27.6916 21.261 27.373C21.2146 27.0813 21.4753 27.0582 21.6887 26.9943C22.3911 26.7841 23.1129 26.9091 23.8244 26.8563C24.0183 26.8415 24.1993 26.9147 24.2104 27.1563C24.2187 27.3517 24.0582 27.4629 23.9163 27.4554C22.8967 27.4027 23.1147 28.1333 23.1036 28.713C23.0934 29.2102 23.1017 29.7075 23.1017 30.2048H23.1064H23.1045Z" fill="black"/>
</g>
<defs>
<clipPath id="clip0_334_2556">
<rect width="71.6093" height="71.9304" fill="white" transform="translate(27 27)"/>
</clipPath>
<clipPath id="clip1_334_2556">
<rect width="90.1415" height="105" fill="white" transform="translate(10.9697 16)"/>
</clipPath>
</defs>
</svg>
