<svg width="125" height="125" viewBox="0 0 125 125" fill="none" xmlns="http://www.w3.org/2000/svg">
<g clip-path="url(#clip0_334_2591)">
<path d="M53.6541 32.8172C56.5548 32.1081 55.9899 27.0002 60.0942 27.0002C66.0381 27.0002 63.7445 31.4903 67.4541 32.1782C69.365 32.5327 71.6296 27.2834 75.8038 29.199C81.5537 31.8369 77.856 35.6549 80.333 37.073C83.912 39.1236 85.4983 33.5977 89.7451 38.5627C93.0615 42.4415 88.754 44.5211 89.6738 46.7198C91.1822 50.3248 95.9714 46.9328 97.4574 52.1822C98.9777 57.5533 93.7741 57.5851 94.0605 60.3394C94.4142 63.7446 99.5795 62.6096 98.4485 68.568C97.5445 73.324 93.431 70.8937 92.0084 74.4564C90.8761 77.2941 96.6075 78.2876 92.4333 83.7487C89.4204 87.6897 86.7599 83.6018 84.0123 85.9474C82.1014 87.5785 86.2769 91.8357 81.2529 94.2474C76.7395 96.4144 74.5303 91.9059 72.337 92.8293C68.8055 94.3136 70.9223 98.9293 65.8269 98.9293C58.8919 98.9293 62.3614 94.6933 58.6095 94.1059C54.7573 93.5026 55.1427 98.9372 49.9761 96.7306C44.1536 94.2435 48.2064 91.0552 45.1645 88.9981C43.1572 87.6407 39.2905 90.9838 36.7435 88.076C32.0916 82.7644 38.1846 81.8212 36.0362 78.6408C34.0395 75.6867 30.2335 79.2084 28.535 74.6681C26.2348 68.5191 32.4981 68.2122 31.6482 65.3758C30.9646 63.0924 26.4987 61.1649 27.049 58.5654C28.3226 52.5354 32.7805 54.3796 33.8428 51.5419C34.698 49.2546 30.376 46.7185 33.0642 42.8873C36.601 37.8496 39.6455 42.1782 41.5564 39.9081C43.2351 37.9131 40.5654 33.7366 44.4571 31.7509C49.497 29.1791 49.7135 33.7789 53.6567 32.8145L53.6541 32.8172Z" fill="#2D6BA4"/>
</g>
<g clip-path="url(#clip1_334_2591)">
<path d="M78.8761 112.502C78.4759 112.259 78.091 111.99 77.6764 111.779C76.0369 110.945 75.3792 109.486 75.3555 107.777C75.3007 103.836 74.7755 99.934 74.524 96.0114C74.3247 92.9101 73.9988 89.8223 73.6586 86.7354C73.6257 86.4399 73.5345 85.9759 73.9245 85.9497C74.3137 85.9234 74.2546 86.3823 74.2833 86.6846C74.6776 90.8789 75.1479 95.0682 75.4434 99.2702C75.6392 102.052 76.0478 104.821 75.9617 107.628C75.9102 109.314 76.5992 110.672 78.1965 111.447C78.6819 111.682 79.1556 111.945 79.6301 112.203C79.8935 112.346 80.1197 112.543 80.0193 112.877C79.9247 113.193 79.6604 113.28 79.343 113.277C77.5489 113.265 75.7481 113.351 73.9608 113.235C71.9152 113.101 69.8619 113.221 67.8214 112.973C66.9197 112.862 65.9986 112.746 65.1003 112.815C60.0187 113.208 54.9337 112.868 49.8512 112.953C49.2248 112.963 48.5958 112.969 47.9727 112.919C47.6333 112.892 47.2475 112.739 47.1994 112.354C47.1471 111.938 47.5101 111.808 47.8588 111.708C48.6819 111.476 49.4544 111.145 50.167 110.65C51.4097 109.788 51.8158 108.853 51.5001 107.351C50.9277 104.63 50.1543 101.957 49.6216 99.2245C48.9132 95.5897 48.4168 91.9339 48.2978 88.2297C48.2936 88.0926 48.3206 87.9546 48.3332 87.8166C48.8339 87.7878 48.8221 88.1341 48.8525 88.4456C49.0002 89.9476 49.1572 91.4496 49.294 92.9524C49.6072 96.3881 50.3367 99.7468 51.1286 103.095C51.4359 104.392 51.793 105.679 52.064 106.983C52.6685 109.891 51.522 110.699 49.0618 111.931C48.9149 112.005 48.7562 112.052 48.5933 112.115C48.7013 112.437 48.9377 112.286 49.0973 112.288C53.3963 112.344 57.697 112.374 61.9951 112.458C62.7229 112.472 62.9272 112.282 62.8461 111.56C62.332 106.98 61.8068 102.401 61.4548 97.8029C61.1829 94.2478 60.9997 90.6884 60.792 87.1299C60.7439 86.3036 60.6806 85.4789 60.6341 84.6526C60.6198 84.3969 60.6147 84.0701 60.9474 84.0523C61.3138 84.0328 61.2657 84.3732 61.2792 84.623C61.4607 87.8978 61.6118 91.1744 61.8296 94.4467C62.0618 97.9409 62.3581 101.431 62.7718 104.91C63.0141 106.945 63.1771 108.99 63.34 111.034C63.3966 111.743 63.5485 112.108 64.4147 112.153C69.0759 112.396 73.7354 112.654 78.405 112.657C78.5612 112.657 78.7461 112.746 78.8727 112.501L78.8761 112.502Z" fill="black"/>
<path d="M11.4277 77.1392C11.8447 76.5491 12.1166 76.1655 12.3868 75.7812C12.5387 75.5644 12.7565 75.4569 12.9634 75.6338C13.1837 75.8226 12.9431 76.0013 12.8334 76.1342C12.3893 76.6752 12.1673 77.3145 11.9638 77.9672C11.865 78.2847 11.8929 78.5887 12.0043 78.8875C12.0862 79.1077 12.2255 79.3066 12.4763 79.3337C12.7515 79.3634 12.7329 79.0831 12.8376 78.9299C13.0926 78.5557 13.3551 78.1874 13.6143 77.8157C13.7435 77.6303 13.9275 77.5219 14.1209 77.6607C14.3742 77.8428 14.1631 78.0079 14.0364 78.1484C13.5831 78.6496 13.4868 79.3244 13.1888 79.9027C12.9102 80.4437 13.1829 80.9145 13.5865 81.2641C14.0044 81.6248 14.4307 81.4292 14.8258 81.1498C15.2606 80.8416 15.4472 80.3404 15.7714 79.9459C15.9082 79.7799 15.9715 79.4489 16.2543 79.6114C16.5785 79.7977 16.3489 80.0509 16.2206 80.2659C16.045 80.5589 15.8592 80.8467 15.6971 81.1464C15.481 81.5452 15.4202 81.9575 15.7216 82.3436C16.0188 82.7246 16.4629 82.6526 16.8301 82.5722C17.4059 82.4469 17.9623 82.2302 18.4342 81.8365C18.8234 81.5113 19.2472 81.2286 19.6533 80.9238C19.7909 80.8205 19.9286 80.6884 20.1084 80.7951C20.2933 80.9051 20.1979 81.0685 20.1835 81.2404C20.1236 81.9601 21.8357 83.7618 22.5551 83.7762C22.9865 83.7846 22.875 83.4553 22.8835 83.2292C22.9181 82.3318 22.5314 81.5003 22.4419 80.6257C21.9514 75.8582 22.7847 71.6207 27.2542 68.5481C29.1791 67.2248 31.4359 67.0233 33.7238 67.2561C34.4288 67.3281 35.1303 67.4365 35.8345 67.5186C36.1164 67.5516 36.509 67.5322 36.4373 67.9208C36.3748 68.2569 35.9755 68.2002 35.7019 68.1544C34.6913 67.986 33.6765 67.8869 32.6524 67.853C28.1069 67.7032 25.1157 70.1373 23.5319 74.4062C22.5804 76.9699 22.7585 79.6089 23.4002 82.2302C23.4669 82.5045 23.5116 82.7898 23.5201 83.0717C23.5547 84.3231 22.8961 84.7185 21.7868 84.1047C21.0193 83.6796 20.474 83.0108 19.9961 82.2979C19.7234 81.8907 19.4912 81.8644 19.1096 82.1514C18.2257 82.816 17.2666 83.2428 16.1074 83.1395C15.6186 83.0963 15.2522 82.9143 15.0825 82.5138C14.9103 82.1057 14.7532 81.9897 14.2906 82.0608C13.4463 82.1895 12.8722 81.6849 12.5472 80.6621C12.429 80.2905 12.3901 79.8883 11.9148 79.7571C11.7966 79.724 11.6556 79.5801 11.6227 79.4599C11.3129 78.3237 10.8536 77.1925 10.7776 76.0368C10.7075 74.9633 11.247 73.9583 12.0355 73.1464C12.2204 72.9559 12.4096 72.7687 12.6409 72.6942C13.5856 72.3886 13.6574 71.6952 13.6287 70.8375C13.5426 68.2594 14.2247 65.8541 15.7444 63.7882C17.3198 61.6462 19.384 60.0849 21.9033 59.1104C25.6619 57.6567 29.5439 56.7957 33.5389 56.3723C34.9809 56.2191 36.4187 56.0819 37.8691 56.2064C38.0785 56.2242 38.3808 56.1327 38.3816 56.4849C38.3824 56.8465 38.0878 56.86 37.8269 56.8515C33.1176 56.6924 28.5645 57.5932 24.1026 58.9817C21.1975 59.886 18.5203 61.2466 16.5633 63.701C15.2775 65.3139 14.6393 67.2096 14.2864 69.217C14.1276 70.1179 13.9993 71.0263 14.283 71.9187C14.4181 72.3437 14.2053 72.4428 13.9014 72.6079C12.2196 73.5206 11.2428 74.8575 11.4311 77.1384L11.4277 77.1392Z" fill="black"/>
<path d="M99.1586 76.4856C99.7589 76.6735 100.258 76.7768 100.712 76.9817C101.695 77.4245 101.767 78.2517 100.856 78.8114C100.403 79.0899 100.172 79.2482 100.347 79.8951C100.529 80.5682 100.006 81.1202 99.3241 81.237C98.4233 81.3911 97.6905 81.6875 97.01 82.3673C96.3658 83.0099 95.3544 83.0802 94.4738 83.2563C92.5565 83.6399 90.6341 83.5764 88.7312 83.0887C86.6804 82.5629 85.6167 80.8298 86.2288 78.7851C87.0654 75.9928 88.8055 73.75 90.7912 71.685C91.1238 71.3387 91.4961 71.0314 91.8482 70.7046C91.8659 70.6885 91.8651 70.6521 91.8929 70.559C91.2479 70.3312 90.532 70.299 89.9266 69.9443C89.6835 69.8012 89.4243 69.6827 89.1887 69.5277C88.8764 69.3228 88.4458 68.9969 88.7177 68.6684C89.0435 68.2747 89.2301 68.8809 89.4944 69.0197C90.7667 69.6844 92.0525 70.2821 93.5333 69.681C93.7689 69.5853 94.0297 69.4498 94.1817 69.791C94.2974 70.0501 94.0753 70.1585 93.9048 70.2381C91.5873 71.3091 90.0668 73.2132 88.7033 75.2698C87.9874 76.3493 87.2132 77.4084 86.8814 78.6954C86.3216 80.867 87.2436 82.2547 89.4496 82.6112C91.177 82.8897 92.9001 82.8753 94.6309 82.6433C95.4118 82.5383 96.1016 82.2175 96.7592 81.8221C97.3612 81.4589 97.3933 81.0533 96.8462 80.6105C96.1463 80.0449 95.3392 79.7181 94.424 79.6783C93.9419 79.6572 93.4607 79.6021 92.9803 79.5488C92.8478 79.5344 92.6806 79.5132 92.6722 79.3227C92.6654 79.1636 92.7431 79.0425 92.9094 79.0273C96.2434 78.7326 98.2587 76.2536 100.58 74.3173C102.168 72.9931 103.397 71.3362 104.204 69.4168C105.872 65.4468 104.794 61.1399 101.429 58.3281C98.8572 56.1793 95.9336 54.867 92.5447 54.6909C91.7097 54.6477 90.9009 54.7857 90.0837 54.8797C89.8211 54.9102 89.5231 55.0118 89.4572 54.6697C89.3888 54.3116 89.7477 54.304 89.9739 54.2599C91.6996 53.9238 93.4481 53.9458 95.1281 54.3818C97.9286 55.1074 100.438 56.4358 102.551 58.4712C105.833 61.6309 106.803 67.1478 103.784 71.591C102.518 73.4528 100.891 74.9277 99.1578 76.4873L99.1586 76.4856ZM95.6009 79.1382C96.3169 79.6572 97.0758 79.7435 97.4448 80.3574C97.8585 81.0448 98.4216 80.967 99.0354 80.768C99.3959 80.6511 99.7505 80.4928 99.7842 80.0602C99.8222 79.5725 99.4381 79.3642 99.0683 79.2296C97.9876 78.8368 96.8884 78.8833 95.6001 79.1382H95.6009ZM96.5203 78.3135C97.601 78.3533 98.5634 78.3389 99.4938 78.6412C99.8754 78.7648 100.21 78.532 100.521 78.3347C100.72 78.2085 100.862 78.029 100.829 77.7674C100.791 77.4482 100.52 77.3559 100.287 77.3077C98.9307 77.0258 97.6525 77.1121 96.5203 78.3135Z" fill="black"/>
<path d="M53.6094 63.5325C53.2388 63.4351 52.5507 63.7967 52.5465 63.2201C52.5414 62.6173 53.2295 62.9204 53.59 62.917C56.3474 62.8899 59.1056 62.906 61.8638 62.9111C62.0909 62.9111 62.3188 62.9187 62.5443 62.9415C62.6945 62.9568 62.8127 63.0474 62.8254 63.2099C62.8414 63.4191 62.708 63.519 62.5206 63.5435C62.3805 63.5621 62.2344 63.5765 62.096 63.5571C60.2698 63.3056 59.0068 64.2708 57.9067 65.5366C56.8058 66.8032 55.7277 68.0918 54.6749 69.399C54.3549 69.7969 53.9682 70.0543 53.525 70.2414C52.961 70.4793 52.3684 70.6343 51.8449 70.1635C51.2843 69.6598 51.2759 68.996 51.4929 68.35C52.0011 66.8328 52.9796 65.6153 54.04 64.4511C54.2511 64.2183 54.7315 64.021 54.5592 63.6722C54.4022 63.3539 53.9302 63.646 53.6111 63.5334L53.6094 63.5325ZM59.0144 63.6189C58.1828 63.4792 57.5969 63.6011 57.0397 64.0549C55.8645 65.0125 54.7483 66.0005 54.2224 67.4889C54.1506 67.6913 54.0628 67.9792 53.7597 67.8598C53.3984 67.7167 53.5833 67.439 53.6829 67.2155C53.7749 67.008 53.9058 66.8192 54.0088 66.616C54.6014 65.4392 55.509 64.5248 56.6378 63.6375C55.981 63.4834 55.547 63.5139 55.1966 63.9381C54.7306 64.5019 54.235 65.0429 53.7943 65.6254C53.0581 66.5983 52.2611 67.5491 52.0281 68.7979C51.8728 69.6301 52.2958 69.9891 53.0902 69.7478C53.6525 69.5768 54.1329 69.2466 54.4807 68.8004C55.8687 67.0224 57.206 65.203 59.0152 63.6172L59.0144 63.6189Z" fill="black"/>
<path d="M63.8513 59.2943C63.273 59.3138 62.725 59.2012 62.2067 58.9413C61.9576 58.816 61.7938 58.6441 61.8031 58.3495C61.8124 58.0548 61.9872 57.8796 62.2421 57.7797C63.2333 57.3927 64.1898 57.5765 65.1211 57.9871C65.3651 58.0946 65.5263 58.3249 65.506 58.6018C65.4849 58.8845 65.2629 59.0175 65.0198 59.1369C64.6415 59.3223 64.2456 59.2791 63.8521 59.2952L63.8513 59.2943Z" fill="black"/>
<path d="M52.5964 59.1902C52.1439 59.0809 51.6753 59.191 51.2565 58.9497C51.0227 58.8151 50.8125 58.6695 50.7947 58.3892C50.7761 58.103 50.9644 57.8998 51.2084 57.8042C52.2156 57.4113 53.2448 57.3461 54.2402 57.8042C54.8092 58.0658 54.783 58.5679 54.2317 58.8964C53.7184 59.2012 53.135 59.1097 52.5964 59.191V59.1902Z" fill="black"/>
</g>
<defs>
<clipPath id="clip0_334_2591">
<rect width="71.6093" height="71.9304" fill="white" transform="translate(27 27)"/>
</clipPath>
<clipPath id="clip1_334_2591">
<rect width="94.8326" height="59.2704" fill="white" transform="translate(10.7695 54.0273)"/>
</clipPath>
</defs>
</svg>
