<svg width="125" height="125" viewBox="0 0 125 125" fill="none" xmlns="http://www.w3.org/2000/svg">
<g clip-path="url(#clip0_334_2623)">
<path d="M53.6541 32.8172C56.5548 32.1081 55.9899 27.0002 60.0942 27.0002C66.0381 27.0002 63.7445 31.4903 67.4541 32.1782C69.365 32.5327 71.6296 27.2834 75.8038 29.199C81.5537 31.8369 77.856 35.6549 80.333 37.073C83.912 39.1236 85.4983 33.5977 89.7451 38.5627C93.0615 42.4415 88.754 44.5211 89.6738 46.7198C91.1822 50.3248 95.9714 46.9328 97.4574 52.1822C98.9777 57.5533 93.7741 57.5851 94.0605 60.3394C94.4142 63.7446 99.5795 62.6096 98.4485 68.568C97.5445 73.324 93.431 70.8937 92.0084 74.4564C90.8761 77.2941 96.6075 78.2876 92.4333 83.7487C89.4204 87.6897 86.7599 83.6018 84.0123 85.9474C82.1014 87.5785 86.2769 91.8357 81.2529 94.2474C76.7395 96.4144 74.5303 91.9059 72.337 92.8293C68.8055 94.3136 70.9223 98.9293 65.8269 98.9293C58.8919 98.9293 62.3614 94.6933 58.6095 94.1059C54.7573 93.5026 55.1427 98.9372 49.9761 96.7306C44.1536 94.2435 48.2064 91.0552 45.1645 88.9981C43.1572 87.6407 39.2905 90.9838 36.7435 88.076C32.0916 82.7644 38.1846 81.8212 36.0362 78.6408C34.0395 75.6867 30.2335 79.2084 28.535 74.6681C26.2348 68.5191 32.4981 68.2122 31.6482 65.3758C30.9646 63.0924 26.4987 61.1649 27.049 58.5654C28.3226 52.5354 32.7805 54.3796 33.8428 51.5419C34.698 49.2546 30.376 46.7185 33.0642 42.8873C36.601 37.8496 39.6455 42.1782 41.5564 39.9081C43.2351 37.9131 40.5654 33.7366 44.4571 31.7509C49.497 29.1791 49.7135 33.7789 53.6567 32.8145L53.6541 32.8172Z" fill="#2D6BA4"/>
</g>
<g clip-path="url(#clip1_334_2623)">
<path d="M73.7679 112.803C73.7278 112.375 73.4367 112.285 73.237 112.17C71.3864 111.099 70.8205 109.444 71.0219 107.431C71.2268 105.391 71.4291 103.346 71.8687 101.342C72.6062 97.9824 73.2942 94.613 73.9702 91.2393C74.1819 90.1823 74.4713 89.1379 74.6292 88.0681C74.6633 87.8385 74.7478 87.6642 74.9937 87.6837C75.3872 87.7143 75.33 88.029 75.283 88.2705C75.0517 89.4441 74.8025 90.6143 74.5541 91.7845C73.849 95.0994 73.1081 98.4067 72.4466 101.729C71.9907 104.02 71.6604 106.333 71.6741 108.683C71.6809 109.819 72.1768 110.649 73.0517 111.309C73.4871 111.638 73.9181 111.972 74.3398 112.317C74.578 112.512 74.7051 112.757 74.5566 113.075C74.4209 113.365 74.2109 113.499 73.8772 113.495C72.5533 113.476 71.2268 113.522 69.9054 113.458C67.3907 113.334 64.8795 113.134 62.3657 112.997C59.5966 112.844 56.8378 113.111 54.0747 113.219C52.6501 113.274 51.2203 113.232 49.7931 113.195C49.3885 113.184 48.9933 113.161 48.5947 113.244C48.2823 113.31 47.975 113.299 47.6583 113.21C47.3126 113.112 46.9353 113.013 46.8833 112.633C46.8252 112.21 47.1624 111.965 47.5303 111.837C48.3548 111.551 49.0941 111.138 49.7436 110.548C50.6792 109.699 51.2366 108.775 51.0035 107.407C50.5195 104.566 49.7112 101.8 49.1495 98.9774C48.5665 96.0468 48.1218 93.1001 47.8376 90.127C47.7642 89.3599 47.6839 88.5928 47.5926 87.8274C47.561 87.5613 47.485 87.2755 47.8674 87.2381C48.2251 87.2032 48.1696 87.5145 48.1944 87.7245C48.395 89.4237 48.5631 91.1262 48.7885 92.822C49.3663 97.1719 50.3061 101.448 51.4056 105.695C52.2276 108.871 51.4687 110.594 48.3941 112.162C48.226 112.247 47.998 112.277 47.8888 112.59C50.2114 112.585 52.4939 112.741 54.7909 112.523C56.4742 112.363 58.1754 112.377 59.8689 112.364C60.5697 112.359 60.8437 112.282 60.8838 111.404C61.1006 106.651 60.8958 101.897 60.9991 97.1447C61.0648 94.1197 61.145 91.0939 61.1715 88.0681C61.18 87.0672 61.4207 86.0798 61.3029 85.0738C61.2782 84.862 61.2492 84.5754 61.6179 84.6052C61.9209 84.629 61.9594 84.8348 61.9585 85.0933C61.9525 86.2652 62.0686 87.4498 61.9363 88.6064C61.7528 90.2095 61.8578 91.8091 61.7989 93.4079C61.7084 95.8903 61.6853 98.3753 61.676 100.859C61.6691 102.623 61.8288 104.392 61.7374 106.15C61.6435 107.954 61.7195 109.759 61.6145 111.559C61.5804 112.139 61.7673 112.399 62.3588 112.429C66.1445 112.62 69.9276 112.903 73.7696 112.802L73.7679 112.803Z" fill="black"/>
<path d="M28.4447 91.3213C28.4259 85.4882 29.2846 80.2087 30.4899 74.9565C31.2649 71.5769 32.343 68.2985 33.3468 64.9912C33.7173 63.7708 34.302 62.627 34.5871 61.3777C34.6332 61.1753 34.693 60.8003 35.0711 60.9109C35.4996 61.0367 35.3127 61.331 35.2213 61.6048C34.3216 64.3194 33.3648 67.0169 32.5513 69.7578C31.7626 72.4171 31.0823 75.1113 30.5479 77.8352C30.0563 80.3431 29.632 82.8655 29.4152 85.4116C29.1182 88.9077 28.8484 92.4175 29.5305 95.8965C29.6841 96.6789 29.7131 97.6578 30.7195 98.0328C31.212 98.2165 31.7003 98.447 31.4314 97.5404C31.3938 97.4146 31.4254 97.2496 31.4758 97.1229C31.5552 96.923 31.6004 96.6211 31.9188 96.7096C32.1919 96.7852 32.069 97.0259 32.0554 97.2181C31.9922 98.1051 32.2679 98.7599 33.1975 99.0754C34.0604 99.368 34.5035 99.0848 34.454 98.2004C34.4446 98.0311 34.2687 97.7683 34.5615 97.6833C34.8654 97.5949 34.9465 97.844 35.0113 98.0736C35.0959 98.373 35.1488 98.6877 35.2734 98.97C35.5611 99.6231 36.2798 99.9514 36.8884 99.7439C38.0698 99.3408 38.2866 99.0942 38.0433 98.1408C37.864 97.4358 37.9537 96.7317 37.9093 96.0309C37.8939 95.7928 37.9981 95.3081 38.4505 95.4271C38.8269 95.5266 38.5725 95.8209 38.5358 96.059C38.4803 96.4238 38.4863 96.8014 38.5051 97.1713C38.5239 97.5311 38.5162 97.9435 38.9711 98.0694C39.3971 98.1867 39.6515 97.9121 39.8836 97.6051C41.2596 95.7894 41.2554 93.8326 39.7914 91.8604C39.4261 91.368 39.374 90.9658 39.5166 90.3739C39.9024 88.7691 39.8316 87.0861 40.2618 85.4839C40.9762 82.8263 41.8409 80.2198 42.9036 77.6787C43.0231 77.3921 43.2212 77.222 43.4866 77.3411C43.8639 77.5112 43.572 77.7544 43.479 77.9704C42.4632 80.3193 41.6617 82.749 40.972 85.2024C40.4675 86.996 40.2473 88.8678 39.8896 90.7021C39.8068 91.1257 40.144 91.3255 40.3412 91.5781C41.7163 93.3342 42.0074 95.2035 40.9156 97.1858C40.5204 97.9036 40.0219 98.6052 39.0958 98.7174C38.8542 98.7463 38.8474 98.8781 38.7706 99.0253C38.0279 100.451 36.494 100.769 35.2068 99.7728C35.0028 99.6146 34.8329 99.4956 34.5163 99.6036C33.5338 99.9395 32.6623 99.7116 31.9598 98.9317C31.8403 98.7991 31.7327 98.7047 31.5304 98.7072C30.1945 98.7259 29.2778 97.9997 28.9765 96.7291C28.5198 94.8055 28.2996 92.8631 28.4447 91.3196V91.3213Z" fill="black"/>
<path d="M96.0582 92.3408C96.246 88.661 95.8372 84.9063 95.4129 81.1424C95.0484 77.9116 94.3929 74.7412 93.5794 71.6133C92.7659 68.488 91.6682 65.4367 90.7267 62.3437C90.6192 61.9899 90.1497 61.4278 90.7242 61.2313C91.2798 61.0408 91.2039 61.7535 91.3114 62.0775C92.7309 66.3551 94.2973 70.6107 95.0723 75.0499C95.8184 79.3267 96.6472 83.6077 96.7753 87.9781C96.8427 90.2887 96.9135 92.5951 96.6327 94.8904C96.4782 96.1507 96.31 97.4382 95.4069 98.4579C95.3122 98.565 95.232 98.7598 95.1278 98.7734C93.8918 98.9307 92.9264 99.9283 91.7246 99.9921C90.8684 100.037 90.1352 100.011 89.3601 100.533C88.6337 101.023 86.9581 100.231 86.6064 99.39C86.5168 99.1757 86.5117 98.9682 86.2087 98.9163C84.6568 98.6518 84.1601 97.417 83.8007 96.1498C83.3048 94.3988 83.9919 92.9046 85.0683 91.5677C85.2612 91.3288 85.4157 91.1612 85.3687 90.8406C84.8259 87.1481 83.9185 83.544 82.7098 80.0155C82.4717 79.3207 82.1319 78.6591 81.8315 77.9864C81.7359 77.7721 81.5993 77.5153 81.8588 77.3852C82.1097 77.2593 82.2847 77.3767 82.4196 77.7007C83.5967 80.5139 84.5484 83.396 85.169 86.381C85.4754 87.8565 85.7315 89.3439 85.9936 90.8287C86.0747 91.2905 86.0192 91.6945 85.6137 92.0618C84.1805 93.3587 83.7879 95.8769 85.1485 97.5769C85.2194 97.6661 85.2578 97.7827 85.3346 97.866C85.6197 98.1739 85.9705 98.3975 86.3982 98.3312C86.8668 98.258 86.7183 97.7776 86.8301 97.4884C86.9487 97.1806 86.9009 96.8302 86.7908 96.4815C86.7106 96.2289 86.5254 95.7697 86.9743 95.6821C87.437 95.592 87.3482 96.058 87.3986 96.3344C87.5198 96.9918 87.4327 97.6398 87.3013 98.2878C87.081 99.3747 87.192 99.5337 88.4203 99.9819C89.0323 100.206 89.775 99.8526 90.1121 99.1655C90.1736 99.0404 90.1488 98.8584 90.2325 98.7623C90.4425 98.5208 90.189 97.9068 90.6943 97.991C91.0528 98.0505 90.8266 98.5038 90.8198 98.7828C90.8095 99.174 91.0127 99.3381 91.3763 99.4129C92.2888 99.5992 93.1244 99.0132 93.2892 98.0437C93.3131 97.9034 93.2935 97.7563 93.3105 97.6143C93.3353 97.417 93.1432 97.1057 93.5222 97.076C93.9371 97.0428 93.8013 97.4323 93.8833 97.6381C93.9968 97.923 93.5017 98.4707 94.1257 98.4987C94.6234 98.5217 95.1108 98.258 95.2729 97.6534C95.7288 95.9491 96.2051 94.25 96.0582 92.3416V92.3408Z" fill="black"/>
<path d="M74.2339 68.8178C74.222 69.0066 74.1358 69.1716 73.9454 69.1886C73.6927 69.2124 73.6355 69.0024 73.5724 68.8008C73.196 67.5864 72.5028 66.5804 71.5007 65.8005C69.7918 64.4696 67.9131 63.6608 65.6895 63.4848C63.3447 63.2986 61.046 63.3266 58.7703 63.8947C57.5923 64.189 56.5373 64.7783 55.5156 65.4382C54.3 66.2232 53.566 67.3466 53.0248 68.6358C52.9198 68.8859 52.8984 69.3221 52.5237 69.1852C52.1123 69.0355 52.3436 68.646 52.4606 68.3765C53.5702 65.8294 55.4498 64.2332 58.183 63.5316C60.0012 63.0647 61.8065 62.6267 63.6887 62.7084C66.4671 62.8283 69.167 63.279 71.4879 64.9713C72.6983 65.8532 73.6373 66.9554 74.1025 68.4079C74.146 68.544 74.1887 68.6801 74.2322 68.8178H74.2339Z" fill="black"/>
<path d="M68.8888 60.2471C68.4329 60.2428 68.0591 60.276 67.7023 60.1374C67.4112 60.0243 67.0493 59.9367 67.0552 59.5591C67.0604 59.2087 67.3839 59.0344 67.6741 58.9255C68.5098 58.6117 69.3582 58.6789 70.1837 58.9621C70.4841 59.065 70.7573 59.3176 70.718 59.6603C70.6813 59.9724 70.3749 60.0617 70.0761 60.1255C69.6536 60.2156 69.2336 60.2701 68.8888 60.2479V60.2471Z" fill="black"/>
<path d="M57.7619 59.7778C57.2592 59.7455 56.7974 59.822 56.3595 59.6154C56.1026 59.4938 55.9284 59.3432 55.9353 59.0413C55.9421 58.7607 56.1307 58.6476 56.3646 58.5804C57.2626 58.3219 58.1631 58.2759 59.0637 58.56C59.3479 58.6493 59.6048 58.7777 59.5835 59.1417C59.5647 59.4597 59.3103 59.5439 59.0713 59.6477C58.6309 59.8382 58.1657 59.7378 57.7611 59.7786L57.7619 59.7778Z" fill="black"/>
</g>
<defs>
<clipPath id="clip0_334_2623">
<rect width="71.6093" height="71.9304" fill="white" transform="translate(27 27)"/>
</clipPath>
<clipPath id="clip1_334_2623">
<rect width="68.4348" height="55.1281" fill="white" transform="translate(28.4009 58.366)"/>
</clipPath>
</defs>
</svg>
