<svg width="125" height="125" viewBox="0 0 125 125" fill="none" xmlns="http://www.w3.org/2000/svg">
<g clip-path="url(#clip0_334_2650)">
<path d="M53.6541 32.8172C56.5548 32.1081 55.9899 27.0002 60.0942 27.0002C66.0381 27.0002 63.7445 31.4903 67.4541 32.1782C69.365 32.5327 71.6296 27.2834 75.8038 29.199C81.5537 31.8369 77.856 35.6549 80.333 37.073C83.912 39.1236 85.4983 33.5977 89.7451 38.5627C93.0615 42.4415 88.754 44.5211 89.6738 46.7198C91.1822 50.3248 95.9714 46.9328 97.4574 52.1822C98.9777 57.5533 93.7741 57.5851 94.0605 60.3394C94.4142 63.7446 99.5795 62.6096 98.4485 68.568C97.5445 73.324 93.431 70.8937 92.0084 74.4564C90.8761 77.2941 96.6075 78.2876 92.4333 83.7487C89.4204 87.6897 86.7599 83.6018 84.0123 85.9474C82.1014 87.5785 86.2769 91.8357 81.2529 94.2474C76.7395 96.4144 74.5303 91.9059 72.337 92.8293C68.8055 94.3136 70.9223 98.9293 65.8269 98.9293C58.8919 98.9293 62.3614 94.6933 58.6095 94.1059C54.7573 93.5026 55.1427 98.9372 49.9761 96.7306C44.1536 94.2435 48.2064 91.0552 45.1645 88.9981C43.1572 87.6407 39.2905 90.9838 36.7435 88.076C32.0916 82.7644 38.1846 81.8212 36.0362 78.6408C34.0395 75.6867 30.2335 79.2084 28.535 74.6681C26.2348 68.5191 32.4981 68.2122 31.6482 65.3758C30.9646 63.0924 26.4987 61.1649 27.049 58.5654C28.3226 52.5354 32.7805 54.3796 33.8428 51.5419C34.698 49.2546 30.376 46.7185 33.0642 42.8873C36.601 37.8496 39.6455 42.1782 41.5564 39.9081C43.2351 37.9131 40.5654 33.7366 44.4571 31.7509C49.497 29.1791 49.7135 33.7789 53.6567 32.8145L53.6541 32.8172Z" fill="#2D6BA4"/>
</g>
<g clip-path="url(#clip1_334_2650)">
<path d="M48.7828 111.964C51.258 112.163 53.5257 112.116 55.797 112.019C57.6374 111.94 59.4788 111.871 61.3201 111.85C62.0231 111.842 62.243 111.686 62.2784 110.898C62.5027 105.97 62.2971 101.04 62.391 96.1125C62.4549 92.7712 62.5089 89.4291 62.5932 86.0879C62.6144 85.2325 62.7962 84.3842 62.704 83.5209C62.68 83.2942 62.6659 83.0218 63.0462 83.0394C63.4345 83.057 63.4203 83.3004 63.4141 83.5888C63.3556 86.2254 63.2581 88.8621 63.2669 91.4988C63.2793 94.8744 63.0435 98.243 63.1481 101.623C63.2412 104.627 63.0914 107.64 63.0382 110.649C63.0169 111.835 63.0081 111.791 64.1712 111.876C67.1464 112.095 70.1242 112.177 73.1039 112.272C73.9594 112.299 74.8051 112.05 75.6465 112.306C75.7644 111.88 75.423 111.79 75.2289 111.685C73.2457 110.604 72.6021 108.881 72.8122 106.753C73.0241 104.607 73.2395 102.459 73.6863 100.347C74.4904 96.5455 75.3371 92.7527 76.1544 88.9538C76.3158 88.2034 76.4399 87.4441 76.5525 86.6849C76.5915 86.4194 76.6615 86.1787 76.9461 86.191C77.3397 86.2087 77.3016 86.5579 77.2546 86.803C77.0091 88.0773 76.7378 89.3462 76.4727 90.6161C75.6411 94.6019 74.7617 98.579 73.9975 102.578C73.6544 104.372 73.4505 106.198 73.4948 108.044C73.5223 109.183 74.0081 110.022 74.8849 110.692C75.3583 111.053 75.8282 111.419 76.2901 111.796C76.5454 112.004 76.6376 112.276 76.4931 112.592C76.3512 112.903 76.0835 113.008 75.7635 113.002C74.0436 112.97 72.322 112.963 70.603 112.894C68.048 112.79 65.4966 112.647 62.946 112.41C61.3928 112.266 59.8032 112.46 58.2332 112.551C55.2518 112.724 52.2677 112.743 49.2837 112.731C49.164 112.731 49.0443 112.729 48.9246 112.735C48.4104 112.759 47.8714 112.648 47.7668 112.119C47.6542 111.552 48.2047 111.351 48.6551 111.168C50.1897 110.542 51.5523 109.703 51.9973 107.985C52.2615 106.963 51.9654 105.931 51.7127 104.939C50.773 101.245 49.9441 97.5243 49.3138 93.7695C48.8989 91.2986 48.7287 88.7871 48.4388 86.2951C48.4069 86.0244 48.4104 85.8198 48.7393 85.7748C49.1267 85.7219 49.0762 86.0147 49.1028 86.236C49.2907 87.7942 49.4822 89.3515 49.6595 90.9106C50.0354 94.2007 50.6631 97.4458 51.4069 100.672C51.9104 102.856 52.5753 105.015 52.6347 107.276C52.6755 108.815 51.9051 109.975 50.6622 110.83C50.1143 111.207 49.523 111.521 48.781 111.965L48.7828 111.964Z" fill="black"/>
<path d="M58.7391 41.3199C57.4066 42.1629 56.2949 43.0871 55.2009 44.035C55.0564 44.1603 54.9341 44.4274 54.6956 44.2167C54.4748 44.0218 54.5529 43.8437 54.7479 43.6206C55.6158 42.6285 56.7789 42.0007 57.7701 41.1612C58.4279 40.6038 58.9846 39.9698 59.5387 39.3278C59.7249 39.1127 59.99 38.7952 59.7807 38.5377C59.6141 38.3331 59.2355 38.3561 58.935 38.4231C57.9102 38.6532 57.0068 39.1594 56.1167 39.6841C55.3773 40.1206 54.6495 40.5809 53.9474 41.0739C53.7284 41.2273 53.5484 41.3825 53.3356 41.1797C53.1131 40.9672 53.263 40.7194 53.4287 40.5509C53.9456 40.028 54.4615 39.4989 55.0201 39.021C56.1202 38.0809 57.255 37.1797 58.3587 36.2441C58.5201 36.1074 58.7674 35.9901 58.7834 35.6603C57.3818 35.3658 56.122 35.8614 54.9163 36.3437C53.3046 36.9892 51.7674 37.8164 50.1902 38.5501C49.9677 38.6532 49.7691 39.073 49.4464 38.6638C49.1796 38.3252 48.9899 38.0457 49.262 37.5615C49.637 36.8958 49.8188 36.1444 49.8338 35.3587C49.8418 34.9469 49.7771 34.8552 49.3356 34.9769C48.3223 35.2573 47.7044 36.0483 47.0333 36.7212C45.7345 38.0218 44.6246 39.4777 43.848 41.17C43.4508 42.035 42.4863 42.3278 41.8019 42.9019C40.6387 43.8781 39.5394 44.9116 38.6015 46.0879C37.4366 47.55 36.2141 48.975 35.2486 50.5897C33.8896 52.8621 32.7654 55.214 32.2796 57.8462C31.6688 61.1575 32.1998 64.2262 34.0562 67.0507C34.2105 67.2844 34.1635 67.4432 33.9738 67.5798C33.7344 67.7518 33.6041 67.564 33.4685 67.3964C32.6245 66.3576 32.2096 65.1213 31.8594 63.8665C31.3071 61.8885 31.1608 59.8594 31.5403 57.8515C31.9002 55.9441 32.574 54.1214 33.4702 52.3789C34.3408 50.6867 35.2929 49.0332 36.5128 47.5897C38.3595 45.4045 40.0944 43.0835 42.5944 41.5377C42.9801 41.2996 43.1831 40.9407 43.4198 40.55C44.3329 39.0421 45.2709 37.5474 46.5625 36.2996C47.1805 35.7026 47.7939 35.1118 48.5058 34.6365C48.9367 34.349 49.3808 34.0034 49.9704 34.3138C50.6087 34.6506 50.5564 35.2291 50.5032 35.7908C50.4358 36.5016 50.1131 37.1427 49.8259 37.9178C50.6885 37.8614 51.2913 37.3349 51.9385 36.998C53.5998 36.1321 55.3064 35.4063 57.1353 34.9857C57.7656 34.8402 58.4181 34.842 59.0032 35.1065C59.6788 35.4125 59.7169 35.9513 59.154 36.4346C58.7754 36.76 58.3747 37.0607 57.9873 37.3772C57.6034 37.6912 57.2231 38.0113 56.7461 38.4081C57.4039 38.4575 57.7515 37.9848 58.2408 37.9319C58.5041 37.9037 58.7568 37.7644 59.0201 37.7432C59.5547 37.7 60.1885 37.6109 60.5015 38.1188C60.8171 38.6303 60.4864 39.1806 60.1407 39.5853C59.5822 40.2379 59.2603 40.8516 59.318 41.8058C59.3853 42.9133 58.5742 43.826 57.8765 44.6479C56.9296 45.7634 55.747 46.6391 54.6238 47.5826C52.6415 49.2475 50.2142 50.2175 48.2461 51.8639C45.6627 54.0253 43.9278 56.6919 43.504 60.1019C43.4242 60.7474 43.2753 61.385 43.3099 62.0402C43.3258 62.34 43.2576 62.6381 42.9216 62.6099C42.6778 62.5896 42.6148 62.2871 42.6219 62.0358C42.6698 60.3815 42.8746 58.7413 43.4987 57.2069C44.3985 54.997 45.7416 53.0799 47.6033 51.535C48.9083 50.4521 50.4659 49.7687 51.8374 48.8093C54.1823 47.1691 56.6335 45.6162 58.2125 43.1162C58.5272 42.6179 58.8215 42.1056 58.7382 41.3199H58.7391Z" fill="black"/>
<path d="M66.3991 36.0265C67.7405 37.6808 69.3309 38.8122 70.6447 40.2196C70.9471 40.5433 71.2449 40.8722 71.526 41.2134C71.6802 41.4013 71.8017 41.6279 71.5366 41.8316C71.3132 42.0036 71.1545 41.8466 70.9914 41.7081C69.7352 40.6438 68.3247 39.8149 66.8752 39.0459C66.7963 39.0045 66.728 38.9366 66.6456 38.9083C66.2236 38.762 65.6642 38.5009 65.3885 38.8343C65.1323 39.1447 65.5889 39.5706 65.8114 39.9075C66.7307 41.2999 67.9993 42.3492 69.2777 43.3898C69.5073 43.5767 69.7095 43.7998 69.9134 44.0159C70.0986 44.2125 70.3283 44.4524 70.0729 44.7046C69.7538 45.0203 69.6359 44.6191 69.4595 44.4612C68.6199 43.7064 67.7795 42.9524 66.9452 42.1914C66.7741 42.0353 66.6323 41.7302 66.377 41.8827C66.1412 42.023 66.2883 42.3334 66.3486 42.5415C66.783 44.0353 67.6873 45.239 68.8096 46.2795C70.9196 48.2372 73.3283 49.7998 75.6909 51.4294C78.5163 53.3774 80.276 56.1154 81.0925 59.4161C81.3922 60.6278 81.2096 61.9055 81.2184 63.1524C81.2193 63.3367 81.3594 63.6956 80.9764 63.6789C80.6484 63.6648 80.6821 63.3605 80.7033 63.1225C80.7884 62.1736 80.7273 61.2336 80.5624 60.2971C79.8585 56.3147 77.651 53.3483 74.2724 51.2134C71.7263 49.604 69.3105 47.8351 67.3247 45.5706C66.5534 44.6914 66.0454 43.5882 65.728 42.4348C65.674 42.2372 65.5623 41.9718 65.642 41.8342C66.1022 41.0468 65.517 40.5768 65.1447 40.0415C64.7803 39.5177 64.3167 38.8995 64.7839 38.3519C65.2413 37.8158 65.9931 38.0212 66.6403 38.2223C67.1571 38.3828 67.5525 38.8431 68.1766 38.8792C67.4763 38.15 66.8256 37.4701 66.1722 36.792C65.9186 36.5292 65.6607 36.2734 65.8566 35.859C66.0321 35.4895 66.3406 35.389 66.7272 35.3555C68.1341 35.2311 69.3531 35.8087 70.5747 36.3581C72.1669 37.0733 73.7192 37.8678 75.354 38.8925C75.1581 38.0345 75.0109 37.3343 74.8363 36.6403C74.6891 36.0574 74.8655 35.5609 75.2937 35.2003C75.7707 34.799 76.2503 35.0548 76.6794 35.3643C78.9347 36.9912 80.4897 39.157 81.526 41.7002C81.6679 42.0476 81.8257 42.3201 82.1085 42.5459C85.7326 45.4374 88.6103 48.9391 90.6449 53.0934C92.0527 55.9691 93.0288 58.9752 92.7176 62.2397C92.4986 64.5351 91.9127 66.7256 90.543 68.6418C90.3665 68.8878 90.1999 69.3446 89.8107 69.0527C89.3931 68.7388 89.8701 68.4857 90.0288 68.2512C91.4694 66.1154 92.1795 63.7045 92.1254 61.1965C92.0554 57.9602 90.9898 54.9382 89.3692 52.1155C87.3452 48.5899 84.8762 45.4506 81.6032 42.9797C81.4463 42.8616 81.3044 42.6737 81.2423 42.4894C80.3762 39.9127 78.7095 37.9057 76.6936 36.15C76.417 35.9092 76.1067 35.5159 75.69 35.7902C75.3079 36.0424 75.4462 36.486 75.5384 36.8581C75.6802 37.4322 75.8345 38.0036 76.01 38.568C76.1191 38.9198 76.049 39.1967 75.7902 39.4489C75.4693 39.7602 75.2352 39.4621 75.0012 39.3272C72.83 38.0785 70.6093 36.9357 68.2165 36.1579C67.6864 35.986 67.1367 35.8907 66.3956 36.0212L66.3991 36.0265Z" fill="black"/>
<path d="M53.2096 69.9515C53.1821 69.1763 53.808 68.843 54.2309 68.4691C54.7584 68.0026 54.7149 67.6649 54.3524 67.1464C52.4525 64.4295 50.6466 61.6473 48.581 59.0485C48.23 58.6067 48.1794 58.0274 47.698 57.6015C47.308 57.2567 47.7034 56.6597 48.1351 56.4304C48.5686 56.2002 49.191 56.0424 49.4862 56.5997C50.0731 57.7099 51.0057 58.5512 51.6697 59.6085C53.0004 61.7266 54.5226 63.724 55.9118 65.8069C56.3275 66.4303 56.6476 66.4753 57.3222 66.1596C59.3772 65.1975 61.512 64.56 63.8338 64.463C65.0714 64.4109 66.2585 64.3889 67.45 64.7037C67.676 64.7637 67.9925 64.8139 67.9012 65.1243C67.8064 65.448 67.52 65.2751 67.2939 65.2284C64.5111 64.6508 61.84 65.0397 59.1724 65.9665C57.0979 66.6869 55.4587 67.9365 53.9844 69.4806C53.8417 69.6305 53.6857 69.7707 53.5208 69.8959C53.4623 69.9409 53.3594 69.9276 53.2105 69.9515H53.2096ZM51.2601 60.5256C50.8674 61.3598 51.3736 62.3333 52.1945 62.3907C52.5713 62.4171 52.4782 62.5626 52.4525 62.7663C52.3231 63.7972 52.7921 64.3713 53.7451 64.3527C53.4073 65.3078 53.9738 66.1622 54.9251 66.1481C55.3603 66.142 55.2628 66.4515 55.0882 66.589C54.7735 66.836 54.8532 67.0229 55.0696 67.2416C55.3497 67.5247 55.5501 67.261 55.7681 67.1314C56.1635 66.8968 55.8754 66.7046 55.7318 66.4965C54.0208 64.0141 52.2637 61.5617 50.6316 59.0291C50.1493 58.2813 49.2291 57.8995 49.0252 56.9313C48.9809 56.7187 48.5473 56.7725 48.3213 56.9727C48.1307 57.1429 48.1121 57.4286 48.3301 57.4886C48.8754 57.6394 48.8895 58.0159 48.8913 58.448C48.8913 58.59 48.9773 58.8122 49.1422 58.7381C50.3443 58.1967 50.0083 58.6535 49.4977 59.2575C49.4667 59.2946 49.5048 59.4409 49.5562 59.4894C50.0474 59.9551 50.1555 60.978 51.2601 60.5256Z" fill="black"/>
<path d="M56.6696 58.206C55.8265 57.8974 54.9781 57.5985 54.1421 57.2731C53.8877 57.1743 53.4843 57.0808 53.6785 56.6796C53.8487 56.3277 54.1368 56.5879 54.3744 56.6699C55.4365 57.0376 56.5012 57.3983 57.5588 57.7775C57.8204 57.8718 58.2122 57.8965 58.1812 58.2942C58.1537 58.6443 57.8319 58.7228 57.5296 58.7916C56.2299 59.0879 54.932 59.393 53.6333 59.6954C53.4001 59.7492 53.1306 59.8427 53.0632 59.4997C52.9994 59.1743 53.2973 59.1046 53.5127 59.0552C54.5624 58.8154 55.6173 58.6002 56.6714 58.3762C56.6714 58.3198 56.6705 58.2625 56.6696 58.206Z" fill="black"/>
<path d="M68.6772 58.386C69.4866 58.4627 70.2969 58.5421 71.1071 58.6126C71.3199 58.6311 71.5611 58.6179 71.5664 58.9045C71.5717 59.2378 71.3226 59.2572 71.0655 59.2369C69.8793 59.1435 68.6922 59.0474 67.5052 58.9609C67.2507 58.9424 67.0087 58.8895 66.9307 58.632C66.8394 58.3278 67.108 58.2184 67.3181 58.1241C68.3731 57.647 69.4298 57.1726 70.4963 56.7202C70.7259 56.6223 71.0593 56.5015 71.1639 56.8772C71.2499 57.1849 70.9422 57.2458 70.7304 57.3375C70.038 57.6373 69.3438 57.9336 68.6497 58.2308C68.6594 58.2828 68.6683 58.334 68.678 58.386H68.6772Z" fill="black"/>
<path d="M55.7861 62.0168C55.5751 62.023 55.3144 62.0477 55.2816 61.7805C55.2488 61.5098 55.5077 61.4736 55.716 61.4507C56.8614 61.3211 57.6496 60.7629 57.9687 59.6218C58.0166 59.4498 58.1141 59.2655 58.3402 59.3316C58.6026 59.4084 58.5822 59.6279 58.5432 59.844C58.3747 60.7964 56.7994 62.038 55.7852 62.0159L55.7861 62.0168Z" fill="black"/>
<path d="M69.5433 61.8474C68.7764 61.6102 67.889 61.4515 67.2339 60.7928C67.0291 60.5873 66.8119 60.261 67.1417 60.0256C67.4201 59.8263 67.506 60.1914 67.6585 60.351C68.2108 60.9286 68.8678 61.2778 69.6931 61.3086C69.9484 61.3183 70.4254 61.1085 70.4272 61.5115C70.4298 61.9524 69.9343 61.7919 69.5433 61.8474Z" fill="black"/>
</g>
<defs>
<clipPath id="clip0_334_2650">
<rect width="71.6093" height="71.9304" fill="white" transform="translate(27 27)"/>
</clipPath>
<clipPath id="clip1_334_2650">
<rect width="61.4509" height="78.8072" fill="white" transform="translate(31.3281 34.1929)"/>
</clipPath>
</defs>
</svg>
