<svg width="125" height="125" viewBox="0 0 125 125" fill="none" xmlns="http://www.w3.org/2000/svg">
<g clip-path="url(#clip0_334_2678)">
<path d="M53.6541 32.8172C56.5548 32.1081 55.9899 27.0002 60.0942 27.0002C66.0381 27.0002 63.7445 31.4903 67.4541 32.1782C69.365 32.5327 71.6296 27.2834 75.8038 29.199C81.5537 31.8369 77.856 35.6549 80.333 37.073C83.912 39.1236 85.4983 33.5977 89.7451 38.5627C93.0615 42.4415 88.754 44.5211 89.6738 46.7198C91.1822 50.3248 95.9714 46.9328 97.4574 52.1822C98.9777 57.5533 93.7741 57.5851 94.0605 60.3394C94.4142 63.7446 99.5795 62.6096 98.4485 68.568C97.5445 73.324 93.431 70.8937 92.0084 74.4564C90.8761 77.2941 96.6075 78.2876 92.4333 83.7487C89.4204 87.6897 86.7599 83.6018 84.0123 85.9474C82.1014 87.5785 86.2769 91.8357 81.2529 94.2474C76.7395 96.4144 74.5303 91.9059 72.337 92.8293C68.8055 94.3136 70.9223 98.9293 65.8269 98.9293C58.8919 98.9293 62.3614 94.6933 58.6095 94.1059C54.7573 93.5026 55.1427 98.9372 49.9761 96.7306C44.1536 94.2435 48.2064 91.0552 45.1645 88.9981C43.1572 87.6407 39.2905 90.9838 36.7435 88.076C32.0916 82.7644 38.1846 81.8212 36.0362 78.6408C34.0395 75.6867 30.2335 79.2084 28.535 74.6681C26.2348 68.5191 32.4981 68.2122 31.6482 65.3758C30.9646 63.0924 26.4987 61.1649 27.049 58.5654C28.3226 52.5354 32.7805 54.3796 33.8428 51.5419C34.698 49.2546 30.376 46.7185 33.0642 42.8873C36.601 37.8496 39.6455 42.1782 41.5564 39.9081C43.2351 37.9131 40.5654 33.7366 44.4571 31.7509C49.497 29.1791 49.7135 33.7789 53.6567 32.8145L53.6541 32.8172Z" fill="#2D6BA4"/>
</g>
<g clip-path="url(#clip1_334_2678)">
<path d="M109.487 41.4504C111.477 40.8159 113.161 40.1937 114.975 40.1497C115.038 40.1479 115.101 40.1161 115.161 40.1198C116.092 40.1834 117.134 40.0386 117.694 41.0215C118.272 42.0362 117.638 42.8407 117.03 43.5685C115.79 45.0523 114.162 46.0119 112.426 46.808C112.26 46.8836 112.046 46.879 111.97 47.1808C112.947 47.4629 113.989 47.4321 114.953 47.7713C115.97 48.1291 117.109 48.4066 117.387 49.611C117.667 50.8247 116.687 51.4807 115.9 52.1469C114.229 53.5605 112.265 54.3753 109.892 54.8658C111.083 55.3386 112.054 55.7357 113.034 56.1085C113.951 56.457 114.856 56.8289 115.617 57.4624C116.78 58.4313 116.737 59.5731 115.481 60.4178C113.945 61.4512 112.166 61.7558 110.378 61.9576C109.102 62.1015 107.815 62.1342 106.442 62.2229C106.775 62.6677 107.264 62.8172 107.652 63.0844C108.599 63.7375 109.391 64.5495 110.057 65.468C110.573 66.1818 110.811 67.0106 110.378 67.8674C109.912 68.7905 109.028 69.0643 108.094 69.1465C106 69.3315 104.023 68.8998 102.181 67.8963C101.932 68.1617 102.179 68.3047 102.291 68.47C102.861 69.3063 103.368 70.1771 103.712 71.1302C104.425 73.0951 103.393 74.8059 101.304 74.9974C99.5859 75.1544 98.0403 74.6527 96.6202 73.6249C94.9763 72.4354 93.6601 70.9891 92.6575 69.24C92.5105 68.9839 92.1314 68.7036 92.5086 68.4439C92.8288 68.2243 93.0909 68.5317 93.2426 68.8288C94.0804 70.463 95.3068 71.7749 96.7625 72.8503C98.2463 73.9472 99.8976 74.6284 101.794 74.0799C102.978 73.7379 103.393 72.8643 103.071 71.6627C102.678 70.1958 101.706 69.0512 100.945 67.788C100.75 67.4647 100.515 67.1638 100.323 66.8396C100.189 66.6144 99.877 66.3855 100.153 66.0959C100.467 65.767 100.735 66.0706 100.974 66.2463C102.965 67.7095 105.161 68.5383 107.666 68.4243C107.855 68.4159 108.051 68.4336 108.231 68.3878C108.875 68.2215 109.559 68.0767 109.767 67.3114C109.961 66.6004 109.645 65.9819 109.203 65.4904C107.566 63.6675 105.564 62.4164 103.158 61.8464C102.975 61.8025 102.783 61.7754 102.611 61.7025C102.352 61.5932 102.008 61.4717 102.094 61.126C102.204 60.6831 102.599 60.8345 102.882 60.9102C106.268 61.8128 109.623 61.4643 112.972 60.6925C113.653 60.5355 114.292 60.2701 114.89 59.9179C115.912 59.3152 115.947 58.6901 115.023 57.952C114.119 57.2288 113.018 56.8953 111.971 56.4785C110.252 55.7936 108.53 55.0723 106.61 55.1695C106.265 55.1873 105.715 55.305 105.734 54.75C105.751 54.2202 106.303 54.3547 106.643 54.3594C108.877 54.3893 111.025 54.0072 113.057 53.0691C114.242 52.5225 115.309 51.7955 116.205 50.8416C116.961 50.038 116.856 49.4475 115.856 48.9261C114.51 48.2244 113.031 48.0992 111.552 47.9768C110.134 47.86 108.805 48.2562 107.467 48.6197C107.1 48.7196 106.635 48.8766 106.492 48.3964C106.331 47.8554 106.883 47.8105 107.217 47.7498C109.532 47.3284 111.693 46.5127 113.71 45.3092C114.855 44.6262 115.935 43.8601 116.708 42.75C117.491 41.626 117.195 40.9552 115.825 40.9271C112.994 40.8683 110.38 41.7092 107.907 43.0332C107.653 43.1696 107.386 43.406 107.173 43.0976C106.978 42.8145 107.118 42.495 107.392 42.281C109.894 40.3338 111.384 37.6438 112.814 34.9117C112.955 34.6408 113.022 34.3147 113.058 34.0073C113.141 33.2776 112.724 32.9216 112.03 33.1598C111.466 33.3532 110.898 33.5765 110.39 33.883C108.479 35.0341 106.543 36.1395 104.892 37.6802C102.238 40.1572 99.5138 42.5753 97.1772 45.3504C95.171 47.732 93.0001 49.9651 91.0314 52.3767C90.9116 52.5234 90.7908 52.671 90.6541 52.8C90.4763 52.9672 90.2741 53.227 90.0232 52.9654C89.7901 52.7234 90.011 52.5047 90.1767 52.3132C91.4742 50.8201 92.7848 49.3373 94.0692 47.832C97.6939 43.5835 101.458 39.4583 105.838 35.9741C107.494 34.6567 109.296 33.457 111.294 32.6282C112.072 32.3058 112.829 32.1021 113.459 32.8104C114.096 33.5261 113.914 34.3801 113.518 35.1136C112.446 37.1028 111.394 39.1107 109.931 40.8589C109.834 40.9748 109.748 41.1009 109.485 41.4504H109.487Z" fill="black"/>
<path d="M20.5024 70.1498C18.6713 71.1056 16.7719 71.5569 14.7442 71.4383C13.7182 71.3785 12.8092 71.1085 12.2747 70.1451C11.7326 69.1678 12.1895 68.3175 12.6772 67.4925C13.4907 66.1143 14.7676 65.2771 16.1615 64.4876C14.8734 64.4045 13.5834 64.3456 12.2981 64.2307C10.6626 64.0849 9.05058 63.8139 7.5668 63.0515C6.79261 62.6535 6.01467 62.19 5.99876 61.2099C5.98378 60.2905 6.6681 59.7644 7.39455 59.3337C8.84089 58.475 10.437 57.977 12.0191 57.4472C12.1913 57.3893 12.4057 57.4286 12.5321 57.1277C11.316 56.781 10.0607 56.5661 8.94386 55.9551C7.59114 55.2141 6.20378 54.5236 5.44644 53.0586C4.85292 51.9121 5.30882 50.8311 6.49772 50.3639C7.81956 49.8435 9.2013 49.6687 10.8396 49.4781C9.61789 48.882 8.59749 48.427 7.6679 47.8056C6.76921 47.2048 5.96412 46.5228 5.38184 45.594C4.92313 44.8624 4.3914 44.1224 4.93998 43.2525C5.47827 42.3985 6.39288 42.3425 7.29719 42.3976C8.97288 42.4994 10.5887 42.9049 12.1885 43.3917C12.4132 43.4599 12.6323 43.6599 12.9346 43.5076C12.0285 42.2275 11.112 40.9671 10.2329 39.6814C9.6104 38.7695 9.09177 37.794 8.75196 36.7373C8.56566 36.157 8.4346 35.5562 8.94948 35.0657C9.4447 34.5939 10.012 34.5154 10.6935 34.6948C13.3391 35.3899 15.4313 37.0082 17.4225 38.7443C21.3468 42.1668 24.8049 46.0547 28.3632 49.8435C29.7665 51.3384 30.9994 52.9633 32.3512 54.4947C32.5515 54.7217 32.9119 54.9843 32.5496 55.2693C32.2753 55.486 32.0413 55.1459 31.8644 54.9376C30.9872 53.9032 30.1634 52.8194 29.2404 51.828C26.9028 49.3165 24.5054 46.861 22.165 44.3532C19.7956 41.8155 17.342 39.3777 14.4718 37.3932C13.486 36.712 12.4956 36.0384 11.3919 35.5553C11.0764 35.417 10.7665 35.2843 10.4014 35.2797C9.41568 35.2685 9.13858 35.5908 9.47091 36.5457C10.1749 38.5705 11.4527 40.2654 12.7418 41.936C13.4654 42.8741 14.1235 43.8907 15.1898 44.526C15.4884 44.7036 15.6691 45.0773 15.4332 45.4053C15.2656 45.6379 15.0054 45.4847 14.7667 45.3473C12.3196 43.943 9.65346 43.2983 6.85533 43.1675C6.37322 43.1451 5.75536 43.0927 5.56533 43.7057C5.35469 44.3859 5.68047 45.01 6.10454 45.5053C6.97516 46.5218 8.06951 47.2833 9.25841 47.886C11.0296 48.7839 12.8541 49.5454 14.8331 49.8715C15.0494 49.907 15.2619 49.9677 15.4716 50.0322C15.7515 50.1182 16.2149 50.1088 16.0801 50.547C15.9677 50.9114 15.5493 50.8264 15.2478 50.7358C12.9272 50.0322 10.5625 50.2303 8.21555 50.4639C7.26911 50.5582 6.13918 50.7694 5.8237 51.8533C5.52601 52.8764 6.48555 53.3987 7.14179 53.9518C9.01688 55.5318 11.2805 56.1448 13.648 56.4989C14.5251 56.6306 15.3976 56.6671 16.2804 56.6465C16.536 56.6409 16.9198 56.6297 16.8945 57.0492C16.8711 57.4201 16.5472 57.4547 16.2542 57.4435C13.442 57.3398 10.9912 58.5703 8.48984 59.5794C7.7222 59.8896 6.72802 60.283 6.78138 61.2585C6.83193 62.1882 7.85607 62.4666 8.60779 62.688C12.1904 63.7467 15.8292 64.0886 19.5167 63.2421C19.8761 63.1599 20.3536 62.9048 20.4931 63.3505C20.6606 63.8868 20.0933 63.9494 19.7076 64.0559C17.7277 64.6025 15.7927 65.2435 14.2668 66.7123C13.6957 67.2626 13.2024 67.8653 12.9496 68.6436C12.6501 69.5686 12.8925 70.1947 13.8137 70.4862C15.3845 70.9833 16.9376 70.6889 18.4513 70.204C19.4689 69.8779 20.4453 69.4453 21.2513 68.6913C21.5003 68.4586 21.8158 68.0064 22.209 68.3325C22.6349 68.6847 22.1809 69.0127 21.9843 69.2967C21.1399 70.5133 20.4818 71.8372 19.8228 73.1528C19.4156 73.9657 19.0711 74.8795 19.8172 75.7167C20.5642 76.5548 21.5284 76.6968 22.5835 76.4688C25.4808 75.8438 27.5235 74.076 29.0709 71.6438C29.1552 71.5112 29.216 71.3645 29.2956 71.229C29.4875 70.902 29.7187 70.4357 30.1381 70.7422C30.5538 71.0459 30.0426 71.3299 29.891 71.5999C28.4521 74.1703 26.4441 76.0886 23.5851 76.9977C22.4571 77.3565 21.3197 77.4994 20.1879 76.9304C18.9662 76.3156 18.4382 75.2056 18.779 73.876C19.0729 72.7277 19.6945 71.7429 20.3208 70.7599C20.4191 70.6058 20.596 70.489 20.5024 70.1498Z" fill="black"/>
<path d="M68.3983 22.0725C64.1857 22.0539 60.7341 21.8035 57.3602 20.8999C56.5739 20.6897 55.8006 20.4085 55.0489 20.0945C54.5799 19.8983 54.1867 19.5563 54.1249 18.9854C54.0566 18.3585 54.4217 17.981 54.9085 17.697C56.3268 16.8682 57.9191 16.6299 59.505 16.3907C63.4339 15.8002 67.3714 15.9385 71.2947 16.4057C73.3205 16.6467 75.3435 16.9878 77.2252 17.8586C77.6549 18.0576 78.0827 18.2622 78.3963 18.6379C78.9421 19.2891 78.8662 19.7871 78.1595 20.259C76.4987 21.369 74.5703 21.5699 72.6718 21.8259C71.0139 22.0492 69.3391 22.109 68.3983 22.0725ZM67.4603 21.326C70.7761 21.2615 73.9375 21.0018 77.0258 20.1515C77.3712 20.0562 77.7204 19.9142 77.8168 19.5526C77.931 19.1247 77.5191 18.9686 77.2533 18.7752C77.0539 18.6304 76.803 18.5556 76.5727 18.4538C75.0627 17.7867 73.446 17.5521 71.8339 17.3195C67.9078 16.7533 63.9657 16.772 60.0283 17.1382C58.4986 17.2802 56.9558 17.5054 55.575 18.266C54.8196 18.6818 54.8308 19.1443 55.5919 19.5601C56.3455 19.9721 57.1955 20.0534 58.0202 20.2468C61.1722 20.985 64.3682 21.2223 67.4584 21.3251L67.4603 21.326Z" fill="black"/>
<path d="M40.2484 60.3185C40.2212 59.1674 40.7614 58.333 41.5178 57.6295C42.1618 57.0305 42.893 56.5232 43.5239 55.9112C44.2635 55.1936 44.2092 54.8264 43.4163 54.2461C43.1916 54.0817 43.0624 53.8696 43.2459 53.6033C43.5426 53.1735 43.8984 52.7727 44.4825 52.9483C45.2511 53.1791 45.6499 53.7687 45.7585 54.5414C45.9148 55.658 45.4402 56.5662 44.74 57.3762C44.3702 57.8042 43.9611 58.1994 43.5651 58.6049C42.7385 59.4533 42.6121 60.3026 43.2019 61.3416C43.6756 62.176 44.4011 62.7918 45.1004 63.4271C45.8699 64.127 46.631 64.8352 47.115 65.7808C47.2638 66.0723 47.4361 66.4507 47.1402 66.6329C46.7592 66.8684 46.6431 66.4395 46.4915 66.1685C45.9626 65.2211 45.1032 64.6493 44.168 64.169C43.273 63.7102 42.3453 63.3141 41.5178 62.7292C40.6584 62.1218 40.1576 61.3444 40.2465 60.3167L40.2484 60.3185ZM44.5874 53.9032C45.1116 55.2861 44.3739 56.1532 43.4387 56.9408C43.0053 57.3062 42.5522 57.6491 42.1291 58.0256C41.2491 58.8077 40.7417 59.7626 41.0338 60.9604C41.3137 62.1116 42.4006 62.3536 43.2777 62.9338C43.3208 62.5787 43.142 62.476 43.025 62.3377C41.7668 60.8418 41.8192 59.373 43.1551 57.9845C43.6569 57.4631 44.1521 56.9296 44.5939 56.3569C45.2343 55.5272 45.2352 54.6601 44.5874 53.9014V53.9032Z" fill="black"/>
<path d="M62.2688 60.4373C62.9643 60.9362 63.6683 61.0063 64.3863 61.0512C64.6821 61.0698 65.1193 61.0166 65.0716 61.4763C65.0332 61.85 64.6456 61.7762 64.3732 61.7463C62.8454 61.5772 61.4478 61.1829 60.8486 59.5422C60.6399 58.9694 60.1699 59.2488 59.8058 59.1806C59.5231 59.1273 59.0728 59.3076 59.054 58.8507C59.0353 58.3752 59.4772 58.506 59.7646 58.5078C62.1274 58.5247 64.4893 58.5461 66.8521 58.5788C67.1367 58.5826 67.5729 58.4462 67.5814 58.9255C67.5889 59.3964 67.162 59.2852 66.868 59.3039C66.2689 59.3422 65.7278 59.1787 65.2326 59.9056C64.8441 60.4765 63.8452 60.3139 63.0954 60.3233C62.852 60.3261 62.6048 60.1934 62.2688 60.4363V60.4373Z" fill="black"/>
<path d="M51.4521 60.196C50.7472 60.2988 50.0638 60.3249 49.3879 60.1717C48.962 60.0754 48.5257 59.9829 48.5454 59.3569C48.566 58.6851 47.994 59.0729 47.7019 58.9673C47.4361 58.8711 46.9483 59.0878 46.9549 58.6347C46.9624 58.146 47.437 58.2824 47.7609 58.2871C49.7465 58.3207 51.732 58.3478 53.7167 58.4048C54.078 58.4151 54.7015 58.1983 54.6865 58.8085C54.6734 59.3448 54.0808 59.128 53.7569 59.1065C53.1615 59.0682 52.8423 59.1448 52.6832 59.8493C52.4912 60.6996 50.7144 61.6545 49.8382 61.5442C49.6117 61.5162 49.3664 61.4583 49.3439 61.1948C49.3112 60.8033 49.6351 60.8696 49.8747 60.8528C50.4682 60.8098 51.0355 60.7033 51.4531 60.1969L51.4521 60.196Z" fill="black"/>
<path d="M53.0942 63.4729C52.6552 63.4729 52.5344 63.471 52.4137 63.4729C52.1281 63.4785 51.778 63.5215 51.7986 63.1066C51.8136 62.7899 52.1338 62.7759 52.3846 62.7619C53.4865 62.7002 54.5874 62.6395 55.6902 62.5937C55.971 62.5825 56.3249 62.5862 56.3464 62.9627C56.3726 63.4178 55.9635 63.3253 55.7229 63.2926C55.0517 63.201 54.6445 63.5262 54.1895 63.9746C52.9426 65.2043 51.6301 66.3685 50.3335 67.5486C49.99 67.8606 49.5659 68.1017 49.1765 67.6738C48.714 67.1655 49.2289 66.8964 49.5425 66.6161C50.6528 65.6238 51.7715 64.6418 53.0952 63.4729H53.0942Z" fill="black"/>
<path d="M48.0943 69.1791C47.819 68.8783 47.0926 69.1165 47.1871 68.5905C47.2386 68.3064 47.571 67.7458 48.0278 67.6935C48.435 67.6468 48.905 67.9486 48.905 68.3503C48.905 68.7026 48.4809 68.9764 48.0943 69.1791Z" fill="black"/>
<path d="M65.7873 17.5186C68.9075 17.4728 72.0155 17.5868 75.0729 18.2904C75.2873 18.3399 75.5045 18.396 75.7057 18.4819C75.9679 18.5941 76.2281 18.7352 76.2487 19.0715C76.273 19.4602 76.0025 19.6415 75.6955 19.7443C75.2498 19.8938 74.7949 20.0853 74.3352 20.1133C69.2979 20.4263 64.2614 20.4376 59.2334 19.9498C58.7719 19.905 58.3113 19.7489 57.875 19.5789C57.5446 19.4499 57.128 19.3528 57.1374 18.8417C57.1486 18.2624 57.6447 18.24 57.9995 18.1297C59.4234 17.6868 60.9138 17.6504 62.3826 17.5354C63.5106 17.4476 64.6518 17.5177 65.7873 17.5177V17.5186ZM75.1141 19.1033C69.5253 18.0204 63.9263 17.9568 58.3178 18.8725C63.9066 19.9722 69.5047 20.118 75.1141 19.1033Z" fill="black"/>
</g>
<defs>
<clipPath id="clip0_334_2678">
<rect width="71.6093" height="71.9304" fill="white" transform="translate(27 27)"/>
</clipPath>
<clipPath id="clip1_334_2678">
<rect width="113.217" height="61.3124" fill="white" transform="translate(4.70557 16)"/>
</clipPath>
</defs>
</svg>
