<svg width="425" height="41" viewBox="0 0 425 41" fill="none" xmlns="http://www.w3.org/2000/svg">
<path d="M0 39.8304L8.28873 0.89006H14.6305L19.4146 26.702C19.7136 28.3708 19.8665 29.845 19.8874 31.1245C19.9083 32.4039 19.7692 33.8225 19.4702 35.3801H21.4728C21.8414 33.5652 22.2516 32.0632 22.6967 30.8741C23.1417 29.6851 23.8301 28.3361 24.7549 26.8132L40.498 0.89006H47.2847L39.0516 39.8304H35.1576L40.3867 15.298C40.8665 12.9963 41.4645 11.0771 42.1669 9.54039C42.8692 8.00363 43.7245 6.45297 44.7258 4.89536L42.8344 3.78277L20.9722 39.8304H18.1907L11.4596 3.8384L9.40132 4.22781C9.73509 5.97317 9.90198 7.64204 9.90198 9.23442C9.90198 10.8268 9.6586 12.7738 9.1788 15.0755L3.89404 39.8304H0Z" fill="#FD5201"/>
<path d="M51.293 39.8304L59.5817 0.89006H63.4757L55.187 39.8304H51.293Z" fill="#FD5201"/>
<path d="M67.4258 39.8304L75.7145 0.89006H79.6086L72.1543 36.1589H93.0708L92.2364 39.8304H67.4258Z" fill="#FD5201"/>
<path d="M94.5664 39.8304L117.486 0.89006H122.882L129.001 39.8304H124.829L120.49 10.6252C120.302 9.36654 120.211 8.19833 120.211 7.12052C120.211 6.04271 120.302 4.87449 120.49 3.61589H118.543C118.244 4.91622 117.896 6.09138 117.486 7.14833C117.075 8.20529 116.505 9.42217 115.761 10.792L99.1836 39.8304H94.5664ZM104.023 28.4265L106.193 24.8662H124.161L124.829 28.4265H104.023Z" fill="#FD5201"/>
<path d="M136.68 39.8304L144.968 0.89006H150.754L165.551 35.4914L167.387 34.6569C167.199 33.9129 167.053 33.1897 166.942 32.4874C166.831 31.7851 166.803 30.895 166.858 29.8172C166.914 28.7394 167.13 27.4043 167.498 25.8119L172.839 0.89006H176.677L168.444 39.8304H163.382L148.084 4.17218L146.248 4.95098C146.616 6.25131 146.783 7.58641 146.749 8.95628C146.714 10.3261 146.47 12.0367 146.025 14.0742L140.574 39.8304H136.68Z" fill="#FD5201"/>
<path d="M199.545 40.5536C196.13 40.5536 193.092 39.8513 190.421 38.4397C187.751 37.0281 185.665 34.9977 184.163 32.3483C182.661 29.699 181.91 26.5907 181.91 23.0304C181.91 18.9487 182.821 15.152 184.636 11.6265C186.451 8.10098 188.968 5.31258 192.174 3.2543C195.379 1.19602 198.933 0.166885 202.827 0.166885C206.241 0.166885 209.28 0.88311 211.95 2.30861C214.62 3.7341 216.706 5.77847 218.208 8.42781C219.71 11.0771 220.461 14.1646 220.461 17.6901C220.461 21.8414 219.55 25.6659 217.735 29.1496C215.92 32.6334 213.417 35.4079 210.225 37.4662C207.034 39.5245 203.473 40.5536 199.545 40.5536ZM199.489 36.9933C202.681 36.9933 205.573 36.1102 208.167 34.351C210.761 32.5917 212.791 30.2275 214.258 27.2583C215.726 24.2891 216.456 21.0834 216.456 17.6344C216.456 14.9642 215.9 12.5791 214.787 10.4861C213.674 8.39304 212.11 6.73807 210.086 5.53509C208.063 4.33211 205.664 3.72715 202.882 3.72715C199.656 3.72715 196.756 4.61026 194.176 6.36953C191.597 8.1288 189.587 10.5069 188.141 13.4901C186.694 16.4732 185.971 19.6718 185.971 23.0861C185.971 25.7563 186.52 28.1414 187.612 30.2344C188.704 32.3275 190.275 33.9824 192.313 35.1854C194.35 36.3884 196.742 36.9933 199.489 36.9933Z" fill="#FD5201"/>
<path d="M241.21 40.7205C237.573 40.7205 234.499 40.1851 231.975 39.1073C229.451 38.0294 227.504 36.6039 226.134 34.8238C224.764 33.0437 223.888 31.041 223.52 28.8159L231.975 26.5351C232.163 27.7589 232.643 28.9271 233.422 30.0397C234.2 31.1523 235.25 32.0632 236.565 32.7655C237.879 33.4679 239.409 33.8225 241.154 33.8225C243.379 33.8225 245.124 33.3983 246.383 32.543C247.642 31.6877 248.274 30.5404 248.274 29.094C248.274 27.9814 247.857 27.0844 247.023 26.396C246.188 25.7076 244.86 25.1235 243.045 24.6437L238.873 23.4755C236.502 22.8427 234.562 22.1056 233.06 21.2503C231.558 20.395 230.383 19.2546 229.527 17.8291C228.672 16.4036 228.248 14.5401 228.248 12.2384C228.248 9.93675 228.881 7.89933 230.139 6.00794C231.398 4.11655 233.234 2.64238 235.647 1.58543C238.06 0.528476 240.876 0 244.102 0C247.329 0 250.089 0.493708 252.391 1.47417C254.693 2.45463 256.487 3.76192 257.787 5.39602C259.087 7.03013 259.957 8.86589 260.402 10.9033L251.946 13.1285C251.612 11.9394 251.091 10.8755 250.388 9.92979C249.686 8.9841 248.782 8.24006 247.69 7.70463C246.599 7.1692 245.326 6.89801 243.88 6.89801C242.545 6.89801 241.383 7.09271 240.403 7.48211C239.422 7.87152 238.678 8.42781 238.178 9.15099C237.677 9.87416 237.427 10.6599 237.427 11.5152C237.427 12.5513 237.761 13.3997 238.428 14.0463C239.096 14.693 240.187 15.2424 241.71 15.6874L246.606 17.0225C249.909 17.9473 252.558 19.2755 254.561 21C256.563 22.7245 257.585 25.054 257.62 27.9814C257.62 30.6864 256.932 32.995 255.562 34.9073C254.192 36.8195 252.273 38.2659 249.804 39.2463C247.336 40.2268 244.471 40.7205 241.21 40.7205Z" fill="#FD5201"/>
<path d="M261.844 39.8304L270.132 0.89006H284.04C287.454 0.89006 290.291 1.39768 292.551 2.41986C294.811 3.44205 296.452 4.81887 297.474 6.56423C298.496 8.30959 299.004 10.2705 299.004 12.4609C299.004 15.2076 298.316 17.6275 296.946 19.7205C295.576 21.8136 293.657 23.4268 291.188 24.5602C288.72 25.6937 285.91 26.2569 282.76 26.2569H273.303L270.411 39.8304H261.844ZM282.649 19.1364C283.984 19.1364 285.229 18.8791 286.376 18.3576C287.524 17.8361 288.414 17.1059 289.046 16.1602C289.679 15.2146 289.992 14.095 289.992 12.7947C289.992 11.9394 289.77 11.1536 289.325 10.4305C288.879 9.70727 288.177 9.12317 287.211 8.67813C286.244 8.2331 285.131 8.01059 283.873 8.01059H277.142L274.805 19.1364H282.649Z" fill="#FD5201"/>
<path d="M320.748 40.7205C316.554 40.7205 312.987 39.9486 310.039 38.4119C307.091 36.8751 304.893 34.7751 303.447 32.1258C302.001 29.4765 301.277 26.5003 301.277 23.1973C301.277 18.8235 302.272 14.8599 304.253 11.3205C306.235 7.78112 308.982 5.00662 312.487 3.00397C315.991 1.00132 319.892 0 324.197 0C328.501 0 331.936 0.771854 334.85 2.30861C337.763 3.84536 339.947 5.93145 341.414 8.56688C342.881 11.2023 343.611 14.1854 343.611 17.5232C343.611 21.897 342.617 25.8467 340.635 29.3722C338.653 32.8977 335.927 35.6652 332.457 37.6887C328.988 39.7122 325.087 40.7205 320.748 40.7205ZM320.748 33.4887C323.529 33.4887 325.942 32.7586 327.979 31.2914C330.017 29.8242 331.623 27.8493 332.791 25.3669C333.959 22.8844 334.544 20.2281 334.544 17.4119C334.544 15.444 334.126 13.6848 333.292 12.1271C332.457 10.5695 331.282 9.36655 329.759 8.51125C328.237 7.65595 326.387 7.23178 324.197 7.23178C321.526 7.23178 319.134 7.96191 317.02 9.42913C314.906 10.8963 313.286 12.8573 312.153 15.3258C311.019 17.7944 310.456 20.4367 310.456 23.253C310.456 25.2208 310.853 26.9871 311.652 28.5655C312.452 30.144 313.627 31.3539 315.185 32.2092C316.742 33.0645 318.599 33.4887 320.748 33.4887Z" fill="#FD5201"/>
<path d="M346.34 39.8304L354.629 0.89006H371.54C374.175 0.89006 376.484 1.25165 378.466 1.97483C380.447 2.69801 381.977 3.77582 383.055 5.20132C384.133 6.62681 384.668 8.39999 384.668 10.5139C384.668 13.0728 383.98 15.0824 382.61 16.5497C381.24 18.0169 379.495 19.0251 377.381 19.5814C375.267 20.1377 373.007 20.3811 370.594 20.3046L369.927 23.4198C372.228 23.4546 374.015 23.6632 375.295 24.0318C376.574 24.4003 377.569 25.1096 378.271 26.1457C378.973 27.1818 379.418 28.6838 379.606 30.6516L380.719 39.8304H371.595L370.817 31.1523C370.705 29.5599 370.49 28.343 370.177 27.5086C369.864 26.6741 369.294 26.0622 368.48 25.6728C367.667 25.2834 366.478 25.0887 364.92 25.0887H358.078L354.962 39.8304H346.34ZM368.258 18.1351C370.629 18.1351 372.458 17.5996 373.737 16.5218C375.017 15.444 375.656 14.0742 375.656 12.4053C375.656 10.9242 375.149 9.81853 374.127 9.09535C373.104 8.37217 371.651 8.01059 369.76 8.01059H361.638L359.524 18.1351H368.258Z" fill="#FD5201"/>
<path d="M394.905 39.8304L401.636 8.01059H388.508L390.065 0.89006H425L423.443 8.01059H410.259L403.528 39.8304H394.905Z" fill="#FD5201"/>
</svg>
