<svg width="318" height="200" viewBox="0 0 318 200" fill="none" xmlns="http://www.w3.org/2000/svg">
<path d="M228.002 11L230.862 3.24072H231.848L234.697 11H233.711L233.001 9.00476H229.698L228.977 11H228.002ZM229.975 8.251H232.724L231.35 4.4157L229.975 8.251ZM235.795 11V5.502H236.638L236.715 6.55504C236.885 6.19294 237.144 5.90474 237.491 5.69044C237.838 5.47613 238.267 5.36898 238.777 5.36898V6.34443H238.522C238.197 6.34443 237.898 6.40355 237.624 6.52179C237.351 6.63264 237.133 6.82477 236.97 7.09819C236.808 7.37161 236.726 7.74849 236.726 8.22883V11H235.795ZM242.11 11.133C241.564 11.133 241.083 11.0074 240.669 10.7561C240.263 10.5049 239.945 10.1613 239.716 9.72526C239.494 9.28926 239.384 8.79415 239.384 8.23991C239.384 7.68568 239.498 7.19426 239.727 6.76565C239.956 6.32965 240.274 5.98972 240.681 5.74586C241.087 5.49461 241.567 5.36898 242.122 5.36898C242.572 5.36898 242.971 5.46135 243.319 5.6461C243.666 5.83084 243.936 6.08949 244.128 6.42203V3.01903H245.059V11H244.217L244.128 10.0911C243.95 10.3571 243.696 10.5973 243.363 10.8116C243.03 11.0259 242.613 11.133 242.11 11.133ZM242.21 10.3238C242.58 10.3238 242.905 10.2389 243.186 10.0689C243.474 9.89153 243.696 9.64767 243.851 9.3373C244.013 9.02693 244.095 8.66483 244.095 8.251C244.095 7.83717 244.013 7.47507 243.851 7.1647C243.696 6.85433 243.474 6.61416 243.186 6.4442C242.905 6.26684 242.58 6.17816 242.21 6.17816C241.848 6.17816 241.523 6.26684 241.235 6.4442C240.954 6.61416 240.732 6.85433 240.57 7.1647C240.414 7.47507 240.337 7.83717 240.337 8.251C240.337 8.66483 240.414 9.02693 240.57 9.3373C240.732 9.64767 240.954 9.89153 241.235 10.0689C241.523 10.2389 241.848 10.3238 242.21 10.3238ZM248.583 11.133C247.933 11.133 247.416 10.9372 247.031 10.5455C246.647 10.1465 246.455 9.53682 246.455 8.71656V5.502H247.386V8.61679C247.386 9.76221 247.855 10.3349 248.794 10.3349C249.274 10.3349 249.669 10.165 249.98 9.82502C250.298 9.4777 250.456 8.98628 250.456 8.35076V5.502H251.388V11H250.545L250.479 10.0135C250.309 10.3608 250.054 10.6342 249.714 10.8337C249.381 11.0333 249.004 11.133 248.583 11.133ZM253.485 4.28268C253.301 4.28268 253.146 4.22356 253.02 4.10533C252.902 3.9797 252.843 3.82452 252.843 3.63977C252.843 3.46242 252.902 3.31462 253.02 3.19638C253.146 3.07815 253.301 3.01903 253.485 3.01903C253.663 3.01903 253.814 3.07815 253.94 3.19638C254.066 3.31462 254.128 3.46242 254.128 3.63977C254.128 3.82452 254.066 3.9797 253.94 4.10533C253.814 4.22356 253.663 4.28268 253.485 4.28268ZM253.02 11V5.502H253.951V11H253.02ZM255.572 11V5.502H256.415L256.47 6.48853C256.647 6.14121 256.902 5.86779 257.235 5.66827C257.568 5.46874 257.944 5.36898 258.366 5.36898C259.016 5.36898 259.533 5.56851 259.917 5.96755C260.309 6.35921 260.505 6.96518 260.505 7.78544V11H259.574V7.8852C259.574 6.73979 259.101 6.16708 258.155 6.16708C257.682 6.16708 257.287 6.34074 256.969 6.68806C256.659 7.02799 256.503 7.51571 256.503 8.15124V11H255.572ZM264.421 11.133C263.903 11.133 263.438 11.0148 263.024 10.7783C262.61 10.5418 262.281 10.2093 262.038 9.78068C261.801 9.34469 261.683 8.83479 261.683 8.251C261.683 7.66721 261.805 7.16101 262.049 6.7324C262.293 6.2964 262.621 5.96016 263.035 5.72369C263.456 5.48722 263.926 5.36898 264.443 5.36898C264.96 5.36898 265.426 5.48722 265.84 5.72369C266.253 5.96016 266.579 6.2964 266.815 6.7324C267.059 7.16101 267.181 7.66721 267.181 8.251C267.181 8.83479 267.059 9.34469 266.815 9.78068C266.571 10.2093 266.239 10.5418 265.817 10.7783C265.404 11.0148 264.938 11.133 264.421 11.133ZM264.421 10.3349C264.739 10.3349 265.034 10.2573 265.308 10.1021C265.581 9.94696 265.803 9.71418 265.973 9.40381C266.143 9.09343 266.228 8.70917 266.228 8.251C266.228 7.79283 266.143 7.40856 265.973 7.09819C265.81 6.78782 265.592 6.55504 265.319 6.39986C265.045 6.24467 264.753 6.16708 264.443 6.16708C264.125 6.16708 263.83 6.24467 263.556 6.39986C263.283 6.55504 263.061 6.78782 262.891 7.09819C262.721 7.40856 262.636 7.79283 262.636 8.251C262.636 8.70917 262.721 9.09343 262.891 9.40381C263.061 9.71418 263.279 9.94696 263.545 10.1021C263.819 10.2573 264.11 10.3349 264.421 10.3349ZM271.343 8.17341V7.38639H273.46V5.36898H274.291V7.38639H276.408V8.17341H274.291V10.2019H273.46V8.17341H271.343ZM228.434 27.4386V19.502H229.277L229.365 20.4109C229.543 20.1449 229.794 19.9047 230.119 19.6904C230.452 19.4761 230.873 19.369 231.383 19.369C231.93 19.369 232.406 19.4946 232.813 19.7459C233.219 19.9971 233.533 20.3407 233.755 20.7767C233.984 21.2127 234.099 21.7078 234.099 22.2621C234.099 22.8163 233.984 23.3114 233.755 23.7474C233.533 24.176 233.215 24.516 232.802 24.7672C232.395 25.0111 231.919 25.133 231.372 25.133C230.921 25.133 230.518 25.0406 230.163 24.8559C229.816 24.6712 229.55 24.4125 229.365 24.08V27.4386H228.434ZM231.272 24.3238C231.641 24.3238 231.967 24.2389 232.247 24.0689C232.528 23.8915 232.75 23.6477 232.912 23.3373C233.075 23.0269 233.156 22.6648 233.156 22.251C233.156 21.8372 233.075 21.4751 232.912 21.1647C232.75 20.8543 232.528 20.6142 232.247 20.4442C231.967 20.2668 231.641 20.1782 231.272 20.1782C230.902 20.1782 230.577 20.2668 230.297 20.4442C230.016 20.6142 229.794 20.8543 229.631 21.1647C229.469 21.4751 229.388 21.8372 229.388 22.251C229.388 22.6648 229.469 23.0269 229.631 23.3373C229.794 23.6477 230.016 23.8915 230.297 24.0689C230.577 24.2389 230.902 24.3238 231.272 24.3238ZM237.9 25.133C237.383 25.133 236.917 25.0148 236.503 24.7783C236.089 24.5418 235.76 24.2093 235.517 23.7807C235.28 23.3447 235.162 22.8348 235.162 22.251C235.162 21.6672 235.284 21.161 235.528 20.7324C235.772 20.2964 236.1 19.9602 236.514 19.7237C236.935 19.4872 237.405 19.369 237.922 19.369C238.439 19.369 238.905 19.4872 239.319 19.7237C239.732 19.9602 240.058 20.2964 240.294 20.7324C240.538 21.161 240.66 21.6672 240.66 22.251C240.66 22.8348 240.538 23.3447 240.294 23.7807C240.05 24.2093 239.718 24.5418 239.296 24.7783C238.883 25.0148 238.417 25.133 237.9 25.133ZM237.9 24.3349C238.218 24.3349 238.513 24.2573 238.787 24.1021C239.06 23.947 239.282 23.7142 239.452 23.4038C239.622 23.0934 239.707 22.7092 239.707 22.251C239.707 21.7928 239.622 21.4086 239.452 21.0982C239.289 20.7878 239.071 20.555 238.798 20.3999C238.524 20.2447 238.232 20.1671 237.922 20.1671C237.604 20.1671 237.309 20.2447 237.035 20.3999C236.762 20.555 236.54 20.7878 236.37 21.0982C236.2 21.4086 236.115 21.7928 236.115 22.251C236.115 22.7092 236.2 23.0934 236.37 23.4038C236.54 23.7142 236.758 23.947 237.024 24.1021C237.298 24.2573 237.589 24.3349 237.9 24.3349ZM242.857 25L241.25 19.502H242.181L243.345 23.8139L244.631 19.502H245.684L246.981 23.8139L248.134 19.502H249.076L247.469 25H246.515L245.163 20.4664L243.811 25H242.857ZM252.372 25.133C251.847 25.133 251.382 25.0148 250.975 24.7783C250.569 24.5344 250.247 24.1982 250.011 23.7696C249.782 23.341 249.667 22.8348 249.667 22.251C249.667 21.6746 249.782 21.1721 250.011 20.7435C250.24 20.3075 250.558 19.9712 250.964 19.7348C251.378 19.4909 251.855 19.369 252.394 19.369C252.926 19.369 253.384 19.4909 253.769 19.7348C254.16 19.9712 254.46 20.2853 254.666 20.677C254.873 21.0686 254.977 21.4899 254.977 21.9406C254.977 22.0219 254.973 22.1032 254.966 22.1845C254.966 22.2658 254.966 22.3582 254.966 22.4616H250.587C250.609 22.8828 250.706 23.2338 250.875 23.5147C251.053 23.7881 251.271 23.995 251.529 24.1354C251.796 24.2758 252.076 24.346 252.372 24.346C252.756 24.346 253.078 24.2573 253.336 24.08C253.595 23.9026 253.783 23.6624 253.902 23.3595H254.822C254.674 23.8694 254.389 24.2943 253.968 24.6342C253.554 24.9667 253.022 25.133 252.372 25.133ZM252.372 20.156C251.929 20.156 251.533 20.2927 251.186 20.5661C250.846 20.8322 250.65 21.2238 250.598 21.7411H254.057C254.035 21.246 253.865 20.858 253.547 20.5772C253.229 20.2964 252.837 20.156 252.372 20.156ZM256.211 25V19.502H257.053L257.131 20.555C257.301 20.1929 257.56 19.9047 257.907 19.6904C258.254 19.4761 258.683 19.369 259.193 19.369V20.3444H258.938C258.613 20.3444 258.313 20.4036 258.04 20.5218C257.766 20.6326 257.548 20.8248 257.386 21.0982C257.223 21.3716 257.142 21.7485 257.142 22.2288V25H256.211ZM263.171 27.4386V19.502H264.014L264.102 20.4109C264.28 20.1449 264.531 19.9047 264.856 19.6904C265.189 19.4761 265.61 19.369 266.12 19.369C266.667 19.369 267.143 19.4946 267.55 19.7459C267.956 19.9971 268.27 20.3407 268.492 20.7767C268.721 21.2127 268.836 21.7078 268.836 22.2621C268.836 22.8163 268.721 23.3114 268.492 23.7474C268.27 24.176 267.953 24.516 267.539 24.7672C267.132 25.0111 266.656 25.133 266.109 25.133C265.658 25.133 265.255 25.0406 264.901 24.8559C264.553 24.6712 264.287 24.4125 264.102 24.08V27.4386H263.171ZM266.009 24.3238C266.378 24.3238 266.704 24.2389 266.984 24.0689C267.265 23.8915 267.487 23.6477 267.65 23.3373C267.812 23.0269 267.893 22.6648 267.893 22.251C267.893 21.8372 267.812 21.4751 267.65 21.1647C267.487 20.8543 267.265 20.6142 266.984 20.4442C266.704 20.2668 266.378 20.1782 266.009 20.1782C265.64 20.1782 265.314 20.2668 265.034 20.4442C264.753 20.6142 264.531 20.8543 264.368 21.1647C264.206 21.4751 264.125 21.8372 264.125 22.251C264.125 22.6648 264.206 23.0269 264.368 23.3373C264.531 23.6477 264.753 23.8915 265.034 24.0689C265.314 24.2389 265.64 24.3238 266.009 24.3238ZM270.132 25V17.019H271.063V25H270.132ZM274.418 25.133C273.96 25.133 273.579 25.0554 273.276 24.9002C272.973 24.7451 272.748 24.5381 272.6 24.2795C272.452 24.0209 272.378 23.74 272.378 23.4371C272.378 22.8754 272.593 22.4431 273.021 22.1402C273.45 21.8372 274.034 21.6857 274.773 21.6857H276.258V21.6192C276.258 21.1388 276.132 20.7767 275.881 20.5329C275.63 20.2816 275.294 20.156 274.872 20.156C274.51 20.156 274.196 20.2484 273.93 20.4331C273.672 20.6105 273.509 20.8728 273.442 21.2201H272.489C272.526 20.8211 272.659 20.4848 272.888 20.2114C273.125 19.938 273.417 19.7311 273.764 19.5907C274.111 19.4429 274.481 19.369 274.872 19.369C275.641 19.369 276.217 19.5759 276.602 19.9897C276.993 20.3962 277.189 20.9393 277.189 21.6192V25H276.358L276.302 24.0135C276.147 24.3238 275.918 24.5899 275.615 24.8116C275.32 25.0259 274.92 25.133 274.418 25.133ZM274.562 24.346C274.917 24.346 275.22 24.2536 275.471 24.0689C275.73 23.8841 275.925 23.644 276.058 23.3484C276.191 23.0528 276.258 22.7424 276.258 22.4173V22.4062H274.85C274.303 22.4062 273.915 22.5023 273.686 22.6944C273.465 22.8791 273.354 23.1119 273.354 23.3927C273.354 23.6809 273.457 23.9137 273.664 24.0911C273.878 24.261 274.178 24.346 274.562 24.346ZM281.113 25.133C280.589 25.133 280.116 25.0148 279.694 24.7783C279.281 24.5344 278.952 24.1982 278.708 23.7696C278.471 23.3336 278.353 22.8274 278.353 22.251C278.353 21.6746 278.471 21.1721 278.708 20.7435C278.952 20.3075 279.281 19.9712 279.694 19.7348C280.116 19.4909 280.589 19.369 281.113 19.369C281.764 19.369 282.31 19.5389 282.754 19.8789C283.205 20.2188 283.489 20.6733 283.607 21.2423H282.654C282.58 20.9024 282.399 20.64 282.111 20.4553C281.823 20.2631 281.486 20.1671 281.102 20.1671C280.792 20.1671 280.5 20.2447 280.226 20.3999C279.953 20.555 279.731 20.7878 279.561 21.0982C279.391 21.4086 279.306 21.7928 279.306 22.251C279.306 22.7092 279.391 23.0934 279.561 23.4038C279.731 23.7142 279.953 23.9507 280.226 24.1132C280.5 24.2684 280.792 24.346 281.102 24.346C281.486 24.346 281.823 24.2536 282.111 24.0689C282.399 23.8768 282.58 23.607 282.654 23.2597H283.607C283.496 23.8139 283.216 24.2647 282.765 24.612C282.314 24.9594 281.764 25.133 281.113 25.133ZM287.38 25.133C286.855 25.133 286.389 25.0148 285.983 24.7783C285.576 24.5344 285.255 24.1982 285.019 23.7696C284.789 23.341 284.675 22.8348 284.675 22.251C284.675 21.6746 284.789 21.1721 285.019 20.7435C285.248 20.3075 285.565 19.9712 285.972 19.7348C286.386 19.4909 286.862 19.369 287.402 19.369C287.934 19.369 288.392 19.4909 288.776 19.7348C289.168 19.9712 289.467 20.2853 289.674 20.677C289.881 21.0686 289.984 21.4899 289.984 21.9406C289.984 22.0219 289.981 22.1032 289.973 22.1845C289.973 22.2658 289.973 22.3582 289.973 22.4616H285.595C285.617 22.8828 285.713 23.2338 285.883 23.5147C286.061 23.7881 286.279 23.995 286.537 24.1354C286.803 24.2758 287.084 24.346 287.38 24.346C287.764 24.346 288.085 24.2573 288.344 24.08C288.603 23.9026 288.791 23.6624 288.909 23.3595H289.829C289.682 23.8694 289.397 24.2943 288.976 24.6342C288.562 24.9667 288.03 25.133 287.38 25.133ZM287.38 20.156C286.936 20.156 286.541 20.2927 286.194 20.5661C285.854 20.8322 285.658 21.2238 285.606 21.7411H289.064C289.042 21.246 288.872 20.858 288.555 20.5772C288.237 20.2964 287.845 20.156 287.38 20.156ZM291.219 25V19.502H292.061L292.128 20.3001C292.305 20.0045 292.541 19.7754 292.837 19.6128C293.133 19.4503 293.465 19.369 293.835 19.369C294.271 19.369 294.644 19.4577 294.954 19.635C295.272 19.8124 295.516 20.0821 295.686 20.4442C295.878 20.1117 296.14 19.8493 296.473 19.6572C296.813 19.465 297.178 19.369 297.57 19.369C298.228 19.369 298.752 19.5685 299.144 19.9676C299.536 20.3592 299.732 20.9652 299.732 21.7854V25H298.812V21.8852C298.812 21.3162 298.697 20.8876 298.468 20.5994C298.239 20.3112 297.91 20.1671 297.481 20.1671C297.038 20.1671 296.669 20.3407 296.373 20.6881C296.085 21.028 295.941 21.5157 295.941 22.1512V25H295.01V21.8852C295.01 21.3162 294.895 20.8876 294.666 20.5994C294.437 20.3112 294.108 20.1671 293.679 20.1671C293.243 20.1671 292.878 20.3407 292.582 20.6881C292.294 21.028 292.15 21.5157 292.15 22.1512V25H291.219ZM303.606 25.133C303.081 25.133 302.616 25.0148 302.209 24.7783C301.803 24.5344 301.482 24.1982 301.245 23.7696C301.016 23.341 300.901 22.8348 300.901 22.251C300.901 21.6746 301.016 21.1721 301.245 20.7435C301.474 20.3075 301.792 19.9712 302.198 19.7348C302.612 19.4909 303.089 19.369 303.628 19.369C304.16 19.369 304.618 19.4909 305.003 19.7348C305.394 19.9712 305.694 20.2853 305.901 20.677C306.108 21.0686 306.211 21.4899 306.211 21.9406C306.211 22.0219 306.207 22.1032 306.2 22.1845C306.2 22.2658 306.2 22.3582 306.2 22.4616H301.821C301.844 22.8828 301.94 23.2338 302.11 23.5147C302.287 23.7881 302.505 23.995 302.764 24.1354C303.03 24.2758 303.31 24.346 303.606 24.346C303.99 24.346 304.312 24.2573 304.57 24.08C304.829 23.9026 305.018 23.6624 305.136 23.3595H306.056C305.908 23.8694 305.623 24.2943 305.202 24.6342C304.788 24.9667 304.256 25.133 303.606 25.133ZM303.606 20.156C303.163 20.156 302.767 20.2927 302.42 20.5661C302.08 20.8322 301.884 21.2238 301.833 21.7411H305.291C305.269 21.246 305.099 20.858 304.781 20.5772C304.463 20.2964 304.072 20.156 303.606 20.156ZM307.445 25V19.502H308.288L308.343 20.4885C308.52 20.1412 308.775 19.8678 309.108 19.6683C309.44 19.4687 309.817 19.369 310.238 19.369C310.889 19.369 311.406 19.5685 311.79 19.9676C312.182 20.3592 312.378 20.9652 312.378 21.7854V25H311.447V21.8852C311.447 20.7398 310.974 20.1671 310.028 20.1671C309.555 20.1671 309.16 20.3407 308.842 20.6881C308.531 21.028 308.376 21.5157 308.376 22.1512V25H307.445ZM315.961 25C315.459 25 315.063 24.8781 314.775 24.6342C314.487 24.3903 314.343 23.9507 314.343 23.3151V20.289H313.389V19.502H314.343L314.465 18.1829H315.274V19.502H316.892V20.289H315.274V23.3151C315.274 23.6624 315.344 23.8989 315.484 24.0245C315.625 24.1428 315.872 24.2019 316.227 24.2019H316.804V25H315.961ZM230.418 40.6073C230.019 40.223 229.65 39.7648 229.31 39.2328C228.97 38.7081 228.697 38.1169 228.49 37.4592C228.29 36.7941 228.19 36.0773 228.19 35.3088C228.19 34.5403 228.29 33.8271 228.49 33.1695C228.697 32.5044 228.97 31.9095 229.31 31.3848C229.65 30.8528 230.019 30.3946 230.418 30.0103H231.372V30.099C230.692 30.7641 230.145 31.5437 229.731 32.4379C229.325 33.3246 229.122 34.2816 229.122 35.3088C229.122 36.336 229.328 37.2967 229.742 38.1908C230.156 39.0776 230.699 39.8535 231.372 40.5186V40.6073H230.418ZM233.124 32.2827C232.939 32.2827 232.784 32.2236 232.658 32.1053C232.54 31.9797 232.481 31.8245 232.481 31.6398C232.481 31.4624 232.54 31.3146 232.658 31.1964C232.784 31.0781 232.939 31.019 233.124 31.019C233.301 31.019 233.453 31.0781 233.578 31.1964C233.704 31.3146 233.767 31.4624 233.767 31.6398C233.767 31.8245 233.704 31.9797 233.578 32.1053C233.453 32.2236 233.301 32.2827 233.124 32.2827ZM232.658 39V33.502H233.589V39H232.658ZM235.211 39V33.502H236.053L236.109 34.4885C236.286 34.1412 236.541 33.8678 236.873 33.6683C237.206 33.4687 237.583 33.369 238.004 33.369C238.654 33.369 239.172 33.5685 239.556 33.9676C239.948 34.3592 240.143 34.9652 240.143 35.7854V39H239.212V35.8852C239.212 34.7398 238.739 34.1671 237.793 34.1671C237.32 34.1671 236.925 34.3407 236.607 34.6881C236.297 35.028 236.142 35.5157 236.142 36.1512V39H235.211ZM243.66 39.133C243.002 39.133 242.456 38.9667 242.02 38.6342C241.584 38.3017 241.329 37.8509 241.255 37.2819H242.208C242.267 37.5701 242.419 37.8213 242.663 38.0356C242.914 38.2425 243.25 38.346 243.671 38.346C244.063 38.346 244.351 38.2647 244.536 38.1021C244.721 37.9322 244.813 37.7327 244.813 37.5036C244.813 37.171 244.691 36.9493 244.447 36.8385C244.211 36.7276 243.874 36.6279 243.438 36.5392C243.143 36.4801 242.847 36.3951 242.552 36.2843C242.256 36.1734 242.009 36.0182 241.809 35.8187C241.609 35.6118 241.51 35.3421 241.51 35.0095C241.51 34.5292 241.687 34.1375 242.042 33.8345C242.404 33.5242 242.892 33.369 243.505 33.369C244.089 33.369 244.565 33.5168 244.935 33.8124C245.312 34.1006 245.53 34.5144 245.589 35.0539H244.669C244.632 34.773 244.51 34.555 244.303 34.3999C244.104 34.2373 243.834 34.156 243.494 34.156C243.161 34.156 242.903 34.2262 242.718 34.3666C242.541 34.507 242.452 34.6918 242.452 34.9208C242.452 35.1425 242.566 35.3162 242.796 35.4418C243.032 35.5674 243.35 35.6746 243.749 35.7633C244.089 35.8372 244.41 35.9295 244.713 36.0404C245.024 36.1438 245.275 36.3027 245.467 36.517C245.666 36.7239 245.766 37.0269 245.766 37.426C245.774 37.9211 245.585 38.3312 245.201 38.6564C244.824 38.9741 244.31 39.133 243.66 39.133ZM247.662 32.2827C247.477 32.2827 247.322 32.2236 247.196 32.1053C247.078 31.9797 247.019 31.8245 247.019 31.6398C247.019 31.4624 247.078 31.3146 247.196 31.1964C247.322 31.0781 247.477 31.019 247.662 31.019C247.839 31.019 247.991 31.0781 248.116 31.1964C248.242 31.3146 248.305 31.4624 248.305 31.6398C248.305 31.8245 248.242 31.9797 248.116 32.1053C247.991 32.2236 247.839 32.2827 247.662 32.2827ZM247.196 39V33.502H248.127V39H247.196ZM252.243 39.133C251.696 39.133 251.215 39.0074 250.802 38.7561C250.395 38.5049 250.077 38.1613 249.848 37.7253C249.627 37.2893 249.516 36.7941 249.516 36.2399C249.516 35.6857 249.63 35.1943 249.859 34.7657C250.088 34.3297 250.406 33.9897 250.813 33.7459C251.219 33.4946 251.699 33.369 252.254 33.369C252.704 33.369 253.103 33.4614 253.451 33.6461C253.798 33.8308 254.068 34.0895 254.26 34.422V31.019H255.191V39H254.349L254.26 38.0911C254.083 38.3571 253.828 38.5973 253.495 38.8116C253.163 39.0259 252.745 39.133 252.243 39.133ZM252.342 38.3238C252.712 38.3238 253.037 38.2389 253.318 38.0689C253.606 37.8915 253.828 37.6477 253.983 37.3373C254.145 37.0269 254.227 36.6648 254.227 36.251C254.227 35.8372 254.145 35.4751 253.983 35.1647C253.828 34.8543 253.606 34.6142 253.318 34.4442C253.037 34.2668 252.712 34.1782 252.342 34.1782C251.98 34.1782 251.655 34.2668 251.367 34.4442C251.086 34.6142 250.864 34.8543 250.702 35.1647C250.547 35.4751 250.469 35.8372 250.469 36.251C250.469 36.6648 250.547 37.0269 250.702 37.3373C250.864 37.6477 251.086 37.8915 251.367 38.0689C251.655 38.2389 251.98 38.3238 252.342 38.3238ZM259.181 39.133C258.656 39.133 258.191 39.0148 257.784 38.7783C257.378 38.5344 257.056 38.1982 256.82 37.7696C256.591 37.341 256.476 36.8348 256.476 36.251C256.476 35.6746 256.591 35.1721 256.82 34.7435C257.049 34.3075 257.367 33.9712 257.773 33.7348C258.187 33.4909 258.663 33.369 259.203 33.369C259.735 33.369 260.193 33.4909 260.577 33.7348C260.969 33.9712 261.268 34.2853 261.475 34.677C261.682 35.0686 261.786 35.4899 261.786 35.9406C261.786 36.0219 261.782 36.1032 261.775 36.1845C261.775 36.2658 261.775 36.3582 261.775 36.4616H257.396C257.418 36.8828 257.514 37.2338 257.684 37.5147C257.862 37.7881 258.08 37.995 258.338 38.1354C258.604 38.2758 258.885 38.346 259.181 38.346C259.565 38.346 259.886 38.2573 260.145 38.08C260.404 37.9026 260.592 37.6624 260.71 37.3595H261.63C261.483 37.8694 261.198 38.2943 260.777 38.6342C260.363 38.9667 259.831 39.133 259.181 39.133ZM259.181 34.156C258.737 34.156 258.342 34.2927 257.995 34.5661C257.655 34.8322 257.459 35.2238 257.407 35.7411H260.866C260.843 35.246 260.673 34.858 260.356 34.5772C260.038 34.2964 259.646 34.156 259.181 34.156ZM267.96 39.133C267.309 39.133 266.792 38.9372 266.408 38.5455C266.024 38.1465 265.831 37.5368 265.831 36.7166V33.502H266.763V36.6168C266.763 37.7622 267.232 38.3349 268.17 38.3349C268.651 38.3349 269.046 38.165 269.356 37.825C269.674 37.4777 269.833 36.9863 269.833 36.3508V33.502H270.764V39H269.922L269.855 38.0135C269.685 38.3608 269.43 38.6342 269.09 38.8337C268.758 39.0333 268.381 39.133 267.96 39.133ZM272.297 39V33.502H273.139L273.206 34.3001C273.383 34.0045 273.619 33.7754 273.915 33.6128C274.211 33.4503 274.543 33.369 274.913 33.369C275.349 33.369 275.722 33.4577 276.032 33.635C276.35 33.8124 276.594 34.0821 276.764 34.4442C276.956 34.1117 277.218 33.8493 277.551 33.6572C277.891 33.465 278.257 33.369 278.648 33.369C279.306 33.369 279.831 33.5685 280.222 33.9676C280.614 34.3592 280.81 34.9652 280.81 35.7854V39H279.89V35.8852C279.89 35.3162 279.775 34.8876 279.546 34.5994C279.317 34.3112 278.988 34.1671 278.56 34.1671C278.116 34.1671 277.747 34.3407 277.451 34.6881C277.163 35.028 277.019 35.5157 277.019 36.1512V39H276.088V35.8852C276.088 35.3162 275.973 34.8876 275.744 34.5994C275.515 34.3112 275.186 34.1671 274.758 34.1671C274.322 34.1671 273.956 34.3407 273.66 34.6881C273.372 35.028 273.228 35.5157 273.228 36.1512V39H272.297ZM285.15 39.133C284.699 39.133 284.296 39.0406 283.942 38.8559C283.594 38.6712 283.328 38.4125 283.143 38.08L283.055 39H282.212V31.019H283.143V34.4109C283.321 34.1449 283.572 33.9047 283.897 33.6904C284.23 33.4761 284.651 33.369 285.161 33.369C285.708 33.369 286.184 33.4946 286.591 33.7459C286.997 33.9971 287.311 34.3407 287.533 34.7767C287.762 35.2127 287.877 35.7078 287.877 36.2621C287.877 36.8163 287.762 37.3114 287.533 37.7474C287.311 38.176 286.993 38.516 286.58 38.7672C286.173 39.0111 285.697 39.133 285.15 39.133ZM285.05 38.3238C285.419 38.3238 285.745 38.2389 286.025 38.0689C286.306 37.8915 286.528 37.6477 286.691 37.3373C286.853 37.0269 286.934 36.6648 286.934 36.251C286.934 35.8372 286.853 35.4751 286.691 35.1647C286.528 34.8543 286.306 34.6142 286.025 34.4442C285.745 34.2668 285.419 34.1782 285.05 34.1782C284.68 34.1782 284.355 34.2668 284.075 34.4442C283.794 34.6142 283.572 34.8543 283.409 35.1647C283.247 35.4751 283.166 35.8372 283.166 36.251C283.166 36.6648 283.247 37.0269 283.409 37.3373C283.572 37.6477 283.794 37.8915 284.075 38.0689C284.355 38.2389 284.68 38.3238 285.05 38.3238ZM289.173 39V33.502H290.015L290.093 34.555C290.263 34.1929 290.521 33.9047 290.869 33.6904C291.216 33.4761 291.645 33.369 292.154 33.369V34.3444H291.9C291.574 34.3444 291.275 34.4036 291.002 34.5218C290.728 34.6326 290.51 34.8248 290.348 35.0982C290.185 35.3716 290.104 35.7485 290.104 36.2288V39H289.173ZM295.466 39.133C294.941 39.133 294.476 39.0148 294.069 38.7783C293.663 38.5344 293.341 38.1982 293.105 37.7696C292.876 37.341 292.761 36.8348 292.761 36.251C292.761 35.6746 292.876 35.1721 293.105 34.7435C293.334 34.3075 293.652 33.9712 294.058 33.7348C294.472 33.4909 294.948 33.369 295.488 33.369C296.02 33.369 296.478 33.4909 296.862 33.7348C297.254 33.9712 297.553 34.2853 297.76 34.677C297.967 35.0686 298.071 35.4899 298.071 35.9406C298.071 36.0219 298.067 36.1032 298.06 36.1845C298.06 36.2658 298.06 36.3582 298.06 36.4616H293.681C293.703 36.8828 293.799 37.2338 293.969 37.5147C294.147 37.7881 294.365 37.995 294.623 38.1354C294.889 38.2758 295.17 38.346 295.466 38.346C295.85 38.346 296.171 38.2573 296.43 38.08C296.689 37.9026 296.877 37.6624 296.995 37.3595H297.915C297.768 37.8694 297.483 38.2943 297.062 38.6342C296.648 38.9667 296.116 39.133 295.466 39.133ZM295.466 34.156C295.022 34.156 294.627 34.2927 294.28 34.5661C293.94 34.8322 293.744 35.2238 293.692 35.7411H297.151C297.128 35.246 296.959 34.858 296.641 34.5772C296.323 34.2964 295.931 34.156 295.466 34.156ZM299.305 39V31.019H300.236V39H299.305ZM301.762 39V31.019H302.693V39H301.762ZM306.048 39.133C305.59 39.133 305.21 39.0554 304.907 38.9002C304.604 38.7451 304.378 38.5381 304.23 38.2795C304.083 38.0209 304.009 37.74 304.009 37.4371C304.009 36.8754 304.223 36.4431 304.652 36.1402C305.08 35.8372 305.664 35.6857 306.403 35.6857H307.888V35.6192C307.888 35.1388 307.763 34.7767 307.511 34.5329C307.26 34.2816 306.924 34.156 306.503 34.156C306.141 34.156 305.827 34.2484 305.561 34.4331C305.302 34.6105 305.139 34.8728 305.073 35.2201H304.12C304.156 34.8211 304.289 34.4848 304.519 34.2114C304.755 33.938 305.047 33.7311 305.394 33.5907C305.742 33.4429 306.111 33.369 306.503 33.369C307.271 33.369 307.848 33.5759 308.232 33.9897C308.624 34.3962 308.819 34.9393 308.819 35.6192V39H307.988L307.933 38.0135C307.777 38.3238 307.548 38.5899 307.245 38.8116C306.95 39.0259 306.551 39.133 306.048 39.133ZM306.192 38.346C306.547 38.346 306.85 38.2536 307.101 38.0689C307.36 37.8841 307.556 37.644 307.689 37.3484C307.822 37.0528 307.888 36.7424 307.888 36.4173V36.4062H306.481C305.934 36.4062 305.546 36.5023 305.317 36.6944C305.095 36.8791 304.984 37.1119 304.984 37.3927C304.984 37.6809 305.088 37.9137 305.295 38.0911C305.509 38.261 305.808 38.346 306.192 38.346ZM309.817 33.7126L310.46 31.2407H311.502L310.482 33.7126H309.817ZM314.206 39.133C313.548 39.133 313.001 38.9667 312.565 38.6342C312.129 38.3017 311.874 37.8509 311.801 37.2819H312.754C312.813 37.5701 312.964 37.8213 313.208 38.0356C313.46 38.2425 313.796 38.346 314.217 38.346C314.609 38.346 314.897 38.2647 315.082 38.1021C315.266 37.9322 315.359 37.7327 315.359 37.5036C315.359 37.171 315.237 36.9493 314.993 36.8385C314.756 36.7276 314.42 36.6279 313.984 36.5392C313.689 36.4801 313.393 36.3951 313.097 36.2843C312.802 36.1734 312.554 36.0182 312.355 35.8187C312.155 35.6118 312.055 35.3421 312.055 35.0095C312.055 34.5292 312.233 34.1375 312.588 33.8345C312.95 33.5242 313.437 33.369 314.051 33.369C314.635 33.369 315.111 33.5168 315.481 33.8124C315.858 34.1006 316.076 34.5144 316.135 35.0539H315.215C315.178 34.773 315.056 34.555 314.849 34.3999C314.649 34.2373 314.38 34.156 314.04 34.156C313.707 34.156 313.448 34.2262 313.264 34.3666C313.086 34.507 312.998 34.6918 312.998 34.9208C312.998 35.1425 313.112 35.3162 313.341 35.4418C313.578 35.5674 313.896 35.6746 314.295 35.7633C314.635 35.8372 314.956 35.9295 315.259 36.0404C315.569 36.1438 315.821 36.3027 316.013 36.517C316.212 36.7239 316.312 37.0269 316.312 37.426C316.319 37.9211 316.131 38.3312 315.747 38.6564C315.37 38.9741 314.856 39.133 314.206 39.133ZM230.54 53.133C229.883 53.133 229.336 52.9667 228.9 52.6342C228.464 52.3017 228.209 51.8509 228.135 51.2819H229.088C229.147 51.5701 229.299 51.8213 229.543 52.0356C229.794 52.2425 230.13 52.346 230.551 52.346C230.943 52.346 231.231 52.2647 231.416 52.1021C231.601 51.9322 231.693 51.7327 231.693 51.5036C231.693 51.171 231.571 50.9493 231.327 50.8385C231.091 50.7276 230.755 50.6279 230.319 50.5392C230.023 50.4801 229.727 50.3951 229.432 50.2843C229.136 50.1734 228.889 50.0182 228.689 49.8187C228.49 49.6118 228.39 49.3421 228.39 49.0095C228.39 48.5292 228.567 48.1375 228.922 47.8345C229.284 47.5242 229.772 47.369 230.385 47.369C230.969 47.369 231.446 47.5168 231.815 47.8124C232.192 48.1006 232.41 48.5144 232.469 49.0539H231.549C231.512 48.773 231.39 48.555 231.183 48.3999C230.984 48.2373 230.714 48.156 230.374 48.156C230.042 48.156 229.783 48.2262 229.598 48.3666C229.421 48.507 229.332 48.6918 229.332 48.9208C229.332 49.1425 229.447 49.3162 229.676 49.4418C229.912 49.5674 230.23 49.6746 230.629 49.7633C230.969 49.8372 231.29 49.9295 231.593 50.0404C231.904 50.1438 232.155 50.3027 232.347 50.517C232.547 50.7239 232.646 51.0269 232.646 51.426C232.654 51.9211 232.465 52.3312 232.081 52.6564C231.704 52.9741 231.191 53.133 230.54 53.133ZM235.983 53.133C235.333 53.133 234.815 52.9372 234.431 52.5455C234.047 52.1465 233.855 51.5368 233.855 50.7166V47.502H234.786V50.6168C234.786 51.7622 235.255 52.3349 236.194 52.3349C236.674 52.3349 237.069 52.165 237.38 51.825C237.697 51.4777 237.856 50.9863 237.856 50.3508V47.502H238.787V53H237.945L237.878 52.0135C237.708 52.3608 237.454 52.6342 237.114 52.8337C236.781 53.0333 236.404 53.133 235.983 53.133ZM240.32 55.4386V47.502H241.162L241.251 48.4109C241.428 48.1449 241.68 47.9047 242.005 47.6904C242.337 47.4761 242.759 47.369 243.269 47.369C243.815 47.369 244.292 47.4946 244.698 47.7459C245.105 47.9971 245.419 48.3407 245.641 48.7767C245.87 49.2127 245.984 49.7078 245.984 50.2621C245.984 50.8163 245.87 51.3114 245.641 51.7474C245.419 52.176 245.101 52.516 244.687 52.7672C244.281 53.0111 243.804 53.133 243.257 53.133C242.807 53.133 242.404 53.0406 242.049 52.8559C241.702 52.6712 241.436 52.4125 241.251 52.08V55.4386H240.32ZM243.158 52.3238C243.527 52.3238 243.852 52.2389 244.133 52.0689C244.414 51.8915 244.636 51.6477 244.798 51.3373C244.961 51.0269 245.042 50.6648 245.042 50.251C245.042 49.8372 244.961 49.4751 244.798 49.1647C244.636 48.8543 244.414 48.6142 244.133 48.4442C243.852 48.2668 243.527 48.1782 243.158 48.1782C242.788 48.1782 242.463 48.2668 242.182 48.4442C241.901 48.6142 241.68 48.8543 241.517 49.1647C241.355 49.4751 241.273 49.8372 241.273 50.251C241.273 50.6648 241.355 51.0269 241.517 51.3373C241.68 51.6477 241.901 51.8915 242.182 52.0689C242.463 52.2389 242.788 52.3238 243.158 52.3238ZM247.28 55.4386V47.502H248.123L248.212 48.4109C248.389 48.1449 248.64 47.9047 248.965 47.6904C249.298 47.4761 249.719 47.369 250.229 47.369C250.776 47.369 251.252 47.4946 251.659 47.7459C252.065 47.9971 252.379 48.3407 252.601 48.7767C252.83 49.2127 252.945 49.7078 252.945 50.2621C252.945 50.8163 252.83 51.3114 252.601 51.7474C252.379 52.176 252.062 52.516 251.648 52.7672C251.241 53.0111 250.765 53.133 250.218 53.133C249.767 53.133 249.364 53.0406 249.01 52.8559C248.662 52.6712 248.396 52.4125 248.212 52.08V55.4386H247.28ZM250.118 52.3238C250.488 52.3238 250.813 52.2389 251.094 52.0689C251.374 51.8915 251.596 51.6477 251.759 51.3373C251.921 51.0269 252.002 50.6648 252.002 50.251C252.002 49.8372 251.921 49.4751 251.759 49.1647C251.596 48.8543 251.374 48.6142 251.094 48.4442C250.813 48.2668 250.488 48.1782 250.118 48.1782C249.749 48.1782 249.423 48.2668 249.143 48.4442C248.862 48.6142 248.64 48.8543 248.478 49.1647C248.315 49.4751 248.234 49.8372 248.234 50.251C248.234 50.6648 248.315 51.0269 248.478 51.3373C248.64 51.6477 248.862 51.8915 249.143 52.0689C249.423 52.2389 249.749 52.3238 250.118 52.3238ZM256.746 53.133C256.229 53.133 255.763 53.0148 255.349 52.7783C254.935 52.5418 254.607 52.2093 254.363 51.7807C254.126 51.3447 254.008 50.8348 254.008 50.251C254.008 49.6672 254.13 49.161 254.374 48.7324C254.618 48.2964 254.947 47.9602 255.36 47.7237C255.782 47.4872 256.251 47.369 256.768 47.369C257.285 47.369 257.751 47.4872 258.165 47.7237C258.579 47.9602 258.904 48.2964 259.14 48.7324C259.384 49.161 259.506 49.6672 259.506 50.251C259.506 50.8348 259.384 51.3447 259.14 51.7807C258.896 52.2093 258.564 52.5418 258.143 52.7783C257.729 53.0148 257.263 53.133 256.746 53.133ZM256.746 52.3349C257.064 52.3349 257.359 52.2573 257.633 52.1021C257.906 51.947 258.128 51.7142 258.298 51.4038C258.468 51.0934 258.553 50.7092 258.553 50.251C258.553 49.7928 258.468 49.4086 258.298 49.0982C258.135 48.7878 257.917 48.555 257.644 48.3999C257.37 48.2447 257.078 48.1671 256.768 48.1671C256.45 48.1671 256.155 48.2447 255.881 48.3999C255.608 48.555 255.386 48.7878 255.216 49.0982C255.046 49.4086 254.961 49.7928 254.961 50.251C254.961 50.7092 255.046 51.0934 255.216 51.4038C255.386 51.7142 255.604 51.947 255.87 52.1021C256.144 52.2573 256.436 52.3349 256.746 52.3349ZM260.801 53V47.502H261.643L261.721 48.555C261.891 48.1929 262.149 47.9047 262.497 47.6904C262.844 47.4761 263.273 47.369 263.782 47.369V48.3444H263.528C263.202 48.3444 262.903 48.4036 262.63 48.5218C262.356 48.6326 262.138 48.8248 261.976 49.0982C261.813 49.3716 261.732 49.7485 261.732 50.2288V53H260.801ZM267 53C266.498 53 266.102 52.8781 265.814 52.6342C265.526 52.3903 265.382 51.9507 265.382 51.3151V48.289H264.428V47.502H265.382L265.504 46.1829H266.313V47.502H267.931V48.289H266.313V51.3151C266.313 51.6624 266.383 51.8989 266.523 52.0245C266.664 52.1428 266.911 52.2019 267.266 52.2019H267.843V53H267ZM268.771 54.6073V54.5186C269.443 53.8535 269.986 53.0776 270.4 52.1908C270.821 51.2967 271.032 50.336 271.032 49.3088C271.032 48.2816 270.825 47.3246 270.411 46.4379C269.997 45.5437 269.454 44.7641 268.782 44.099V44.0103H269.724C270.13 44.3946 270.5 44.8528 270.832 45.3848C271.172 45.9095 271.442 46.5044 271.642 47.1695C271.848 47.8271 271.952 48.5403 271.952 49.3088C271.952 50.0773 271.848 50.7941 271.642 51.4592C271.442 52.1169 271.172 52.7081 270.832 53.2328C270.5 53.7648 270.13 54.223 269.724 54.6073H268.771Z" fill="black"/>
<path d="M124.525 14.4658L125.265 169.54H122.789L123.527 14.4658H124.525Z" fill="#D9D9D9" stroke="black" stroke-width="0.110847"/>
<g filter="url(#filter0_i_375_153)">
<path d="M110.171 23.2778C69.6751 20.4697 15.8281 72.2352 0.802246 94.774C22.9325 90.3507 33.5239 92.8746 54.7477 100.871C77.218 51.1125 89.8394 22.7559 110.171 23.2778Z" fill="black"/>
</g>
<path d="M110.171 23.2778C69.6751 20.4697 15.8281 72.2352 0.802246 94.774C22.9325 90.3507 33.5239 92.8746 54.7477 100.871C77.218 51.1125 89.8394 22.7559 110.171 23.2778Z" stroke="black" stroke-width="0.738979"/>
<g filter="url(#filter1_i_375_153)">
<path d="M137.883 23.4628C178.379 20.6546 233.334 72.2353 248.36 94.7742C226.23 90.3508 215.454 92.8748 194.23 100.871C172.637 60.429 161.061 24.5596 137.883 23.4628Z" fill="black"/>
</g>
<path d="M137.883 23.4628C178.379 20.6546 233.334 72.2353 248.36 94.7742C226.23 90.3508 215.454 92.8748 194.23 100.871C172.637 60.429 161.061 24.5596 137.883 23.4628Z" stroke="black" stroke-width="0.738979"/>
<path d="M105.368 23.4627C114.605 22.1695 117.191 26.4186 123.842 26.4186C129.384 26.4186 132.525 22.9085 140.1 23.4627C158.759 25.8644 172.248 55.9901 194.23 100.871C140.374 94.5127 110.459 91.9933 54.7476 100.871C76.1344 50.5663 90.4033 27.3423 105.368 23.4627Z" fill="black" stroke="black" stroke-width="0.738979"/>
<rect x="121.256" y="169.226" width="5.54234" height="29.9286" rx="0.738979" fill="black" stroke="black" stroke-width="0.738979"/>
<path d="M181.693 27.7043C181.513 27.9513 181.566 28.2981 181.814 28.4788L185.84 31.4233C186.087 31.6039 186.434 31.5501 186.614 31.303C186.795 31.056 186.741 30.7092 186.494 30.5285L182.915 27.9112L185.532 24.3323C185.713 24.0852 185.659 23.7384 185.412 23.5577C185.165 23.377 184.818 23.4309 184.638 23.6779L181.693 27.7043ZM182.141 28.0314L182.226 28.5791L219.994 22.7174L219.909 22.1697L219.824 21.6221L182.056 27.4838L182.141 28.0314Z" fill="black"/>
<path d="M181.667 36.5794C164.079 44.2648 95.9453 47.1099 66.9404 36.5794L75.9929 31.0371C89.4423 35.1754 160.236 36.5794 171.875 31.0371C175.866 33.1062 180.066 35.5941 181.667 36.5794Z" fill="#27981D" stroke="black" stroke-width="0.369489"/>
<defs>
<filter id="filter0_i_375_153" x="0" y="22.7988" width="110.197" height="80.018" filterUnits="userSpaceOnUse" color-interpolation-filters="sRGB">
<feFlood flood-opacity="0" result="BackgroundImageFix"/>
<feBlend mode="normal" in="SourceGraphic" in2="BackgroundImageFix" result="shape"/>
<feColorMatrix in="SourceAlpha" type="matrix" values="0 0 0 0 0 0 0 0 0 0 0 0 0 0 0 0 0 0 127 0" result="hardAlpha"/>
<feOffset dy="1.47796"/>
<feGaussianBlur stdDeviation="11.8237"/>
<feComposite in2="hardAlpha" operator="arithmetic" k2="-1" k3="1"/>
<feColorMatrix type="matrix" values="0 0 0 0 1 0 0 0 0 1 0 0 0 0 1 0 0 0 0.25 0"/>
<feBlend mode="normal" in2="shape" result="effect1_innerShadow_375_153"/>
</filter>
<filter id="filter1_i_375_153" x="137.857" y="22.9834" width="111.305" height="79.8256" filterUnits="userSpaceOnUse" color-interpolation-filters="sRGB">
<feFlood flood-opacity="0" result="BackgroundImageFix"/>
<feBlend mode="normal" in="SourceGraphic" in2="BackgroundImageFix" result="shape"/>
<feColorMatrix in="SourceAlpha" type="matrix" values="0 0 0 0 0 0 0 0 0 0 0 0 0 0 0 0 0 0 127 0" result="hardAlpha"/>
<feOffset dy="1.47796"/>
<feGaussianBlur stdDeviation="11.8237"/>
<feComposite in2="hardAlpha" operator="arithmetic" k2="-1" k3="1"/>
<feColorMatrix type="matrix" values="0 0 0 0 1 0 0 0 0 1 0 0 0 0 1 0 0 0 0.25 0"/>
<feBlend mode="normal" in2="shape" result="effect1_innerShadow_375_153"/>
</filter>
</defs>
</svg>
