<svg width="1033" height="120" viewBox="0 0 1033 120" fill="none" xmlns="http://www.w3.org/2000/svg">
<path d="M59.998 0V120" stroke="black" stroke-width="1.11685"/>
<path d="M0 60L120 60" stroke="black" stroke-width="1.11685"/>
<path d="M17.5742 17.5732L102.427 102.426" stroke="black" stroke-width="1.11685"/>
<path d="M17.5742 102.426L102.427 17.5732" stroke="black" stroke-width="1.11685"/>
<rect x="160" y="6.5" width="873" height="107" rx="20" fill="#E1E1E1"/>
<path d="M205.09 53.5V38.1H206.85V53.5H205.09ZM220.959 52.202C222.785 52.202 223.775 51.498 224.215 49.232L225.931 49.694C225.293 52.4 223.445 53.72 220.981 53.72C217.813 53.72 215.635 51.564 215.635 48.33C215.635 45.096 217.813 42.94 220.981 42.94C223.445 42.94 225.293 44.26 225.931 46.966L224.215 47.428C223.775 45.162 222.785 44.458 220.959 44.458C218.517 44.458 217.373 45.69 217.373 48.33C217.373 50.97 218.517 52.202 220.959 52.202ZM233.248 42.94C236.218 42.94 238.594 45.096 238.594 48.33C238.594 51.564 236.218 53.72 233.248 53.72C230.278 53.72 227.902 51.564 227.902 48.33C227.902 45.096 230.278 42.94 233.248 42.94ZM233.248 52.18C235.69 52.18 236.856 50.948 236.856 48.33C236.856 45.712 235.69 44.48 233.248 44.48C230.806 44.48 229.64 45.712 229.64 48.33C229.64 50.948 230.806 52.18 233.248 52.18ZM254.372 42.94C256.858 42.94 258.244 44.48 258.244 47.142V53.5H256.55V47.252C256.55 45.404 255.538 44.48 254.02 44.48C251.688 44.48 250.698 46.306 250.698 49.32V53.5H249.004V47.098C249.004 45.404 247.992 44.48 246.452 44.48C244.428 44.48 243.152 46.042 243.152 48.726V53.5H241.458V43.16H243.152V45.712C243.658 44.084 244.758 42.94 246.936 42.94C248.982 42.94 250.258 43.974 250.61 45.866C251.182 43.996 252.414 42.94 254.372 42.94ZM274.782 42.94C277.268 42.94 278.654 44.48 278.654 47.142V53.5H276.96V47.252C276.96 45.404 275.948 44.48 274.43 44.48C272.098 44.48 271.108 46.306 271.108 49.32V53.5H269.414V47.098C269.414 45.404 268.402 44.48 266.862 44.48C264.838 44.48 263.562 46.042 263.562 48.726V53.5H261.868V43.16H263.562V45.712C264.068 44.084 265.168 42.94 267.346 42.94C269.392 42.94 270.668 43.974 271.02 45.866C271.592 43.996 272.824 42.94 274.782 42.94ZM289.714 43.16H291.408V53.5H289.714V50.948C289.208 52.576 288.108 53.72 285.93 53.72C283.51 53.72 282.168 52.268 282.168 49.672V43.16H283.862V49.562C283.862 51.256 284.874 52.18 286.414 52.18C288.438 52.18 289.714 50.618 289.714 47.934V43.16ZM300.625 42.94C303.045 42.94 304.387 44.392 304.387 46.988V53.5H302.693V47.098C302.693 45.404 301.681 44.48 300.141 44.48C298.117 44.48 296.841 46.042 296.841 48.726V53.5H295.147V43.16H296.841V45.712C297.347 44.084 298.447 42.94 300.625 42.94ZM308.896 40.608C308.104 40.608 307.642 40.146 307.62 39.354C307.598 38.584 308.06 38.166 308.896 38.166C309.666 38.166 310.106 38.584 310.128 39.354C310.15 40.146 309.71 40.608 308.896 40.608ZM308.016 53.5V43.16H309.71V53.5H308.016ZM317.896 52.202C319.722 52.202 320.712 51.498 321.152 49.232L322.868 49.694C322.23 52.4 320.382 53.72 317.918 53.72C314.75 53.72 312.572 51.564 312.572 48.33C312.572 45.096 314.75 42.94 317.918 42.94C320.382 42.94 322.23 44.26 322.868 46.966L321.152 47.428C320.712 45.162 319.722 44.458 317.896 44.458C315.454 44.458 314.31 45.69 314.31 48.33C314.31 50.97 315.454 52.202 317.896 52.202ZM333.706 43.16H335.4V53.5H333.706V51.388C332.936 52.862 331.572 53.72 329.79 53.72C326.82 53.72 324.84 51.564 324.84 48.33C324.84 45.096 326.82 42.94 329.79 42.94C331.572 42.94 332.936 43.798 333.706 45.272V43.16ZM330.186 52.18C332.65 52.18 333.794 50.948 333.794 48.33C333.794 45.712 332.65 44.48 330.186 44.48C327.722 44.48 326.578 45.712 326.578 48.33C326.578 50.948 327.722 52.18 330.186 52.18ZM344.933 44.7H341.633V51.96H344.559V53.5H342.469C340.951 53.5 339.939 52.488 339.939 50.97V44.7H337.607V43.16H339.939V39.904H341.633V43.16H344.933V44.7ZM355.964 48.044C355.964 48.352 355.964 48.484 355.942 48.858H347.912C348.022 51.3 349.012 52.268 351.278 52.268C352.972 52.268 353.654 51.85 354.138 50.486L355.722 51.102C354.996 52.928 353.214 53.72 351.278 53.72C348.176 53.72 346.174 51.608 346.174 48.33C346.174 45.118 348.308 42.94 351.19 42.94C353.984 42.94 355.964 44.876 355.964 48.044ZM351.168 44.37C349.188 44.37 348.132 45.36 347.934 47.472H354.27C354.138 45.25 353.258 44.37 351.168 44.37ZM370.152 42.94C373.122 42.94 375.102 45.096 375.102 48.33C375.102 51.564 373.122 53.72 370.152 53.72C368.37 53.72 367.006 52.862 366.236 51.388V53.5H364.542V38.1H366.236V45.272C367.006 43.798 368.37 42.94 370.152 42.94ZM369.756 52.18C372.22 52.18 373.364 50.948 373.364 48.33C373.364 45.712 372.22 44.48 369.756 44.48C367.292 44.48 366.148 45.712 366.148 48.33C366.148 50.948 367.292 52.18 369.756 52.18ZM384.927 43.16H386.841L381.913 55.304C381.297 56.778 380.637 57.24 379.097 57.24H376.787V55.7H380.461L380.813 54.666L376.215 43.16H378.129L380.681 50.09L381.539 52.576L382.419 50.068L384.927 43.16ZM397.493 53.72C394.457 53.72 392.785 52.092 392.587 50.53L395.689 49.716C395.821 50.992 396.503 51.278 397.713 51.278C398.549 51.278 399.187 50.926 399.187 50.332C399.187 49.76 398.879 49.43 397.603 49.254L395.909 49.012C393.797 48.704 392.763 47.472 392.763 45.646C392.763 43.49 394.413 42.28 397.317 42.28C400.705 42.28 401.827 43.688 402.135 45.316L399.275 45.976C399.165 44.92 398.791 44.568 397.427 44.568C396.569 44.568 396.107 44.92 396.107 45.514C396.107 45.998 396.393 46.35 397.515 46.482L399.495 46.724C401.409 46.966 402.531 48.198 402.531 50.002C402.531 52.378 400.727 53.72 397.493 53.72ZM411.84 45.426H408.804V50.574H411.62V53.5H409.2C406.956 53.5 405.46 52.004 405.46 49.76V45.426H403.502V42.5H405.46V39.31H408.804V42.5H411.84V45.426ZM424.219 47.912C424.219 48.286 424.219 48.572 424.197 49.056H416.717C416.915 50.552 417.619 51.168 419.027 51.168C420.083 51.168 420.589 50.838 421.117 49.782L423.977 50.794C423.229 52.686 421.579 53.72 418.939 53.72C415.529 53.72 413.241 51.476 413.241 48.088C413.241 44.612 415.485 42.28 418.829 42.28C422.063 42.28 424.219 44.524 424.219 47.912ZM418.895 44.722C417.553 44.722 416.893 45.338 416.717 46.878H420.919C420.897 45.272 420.237 44.722 418.895 44.722ZM434.152 42.5H437.496V53.5H434.152V51.036C433.536 52.774 432.282 53.72 430.522 53.72C427.376 53.72 425.638 51.432 425.638 48.022C425.638 44.568 427.288 42.28 430.302 42.28C432.172 42.28 433.514 43.248 434.152 45.052V42.5ZM431.578 50.684C433.404 50.684 434.262 49.826 434.262 48.022C434.262 46.174 433.404 45.316 431.578 45.316C429.818 45.316 428.982 46.174 428.982 48.022C428.982 49.826 429.818 50.684 431.578 50.684ZM440.35 53.5V38.1H443.694V53.5H440.35ZM448.209 41.07C446.867 41.07 446.119 40.344 446.119 39.024C446.119 37.748 446.867 37.044 448.209 37.044C449.573 37.044 450.343 37.748 450.343 39.024C450.343 40.344 449.573 41.07 448.209 41.07ZM446.559 53.5V42.5H449.903V53.5H446.559ZM459.588 42.28C462.206 42.28 463.46 43.842 463.46 47.076V53.5H460.116V47.274C460.116 45.932 459.5 45.316 458.268 45.316C456.948 45.316 456.112 46.174 456.112 48.154V53.5H452.768V42.5H456.112V44.986C456.64 43.182 457.784 42.28 459.588 42.28ZM473.587 42.5H476.909V51.762C476.909 55.37 474.731 57.46 471.013 57.46C468.219 57.46 466.019 56.426 465.535 54.556L468.747 53.28C469.055 54.556 469.957 54.82 471.211 54.82C472.729 54.82 473.587 54.16 473.587 52.532V50.464C472.905 51.96 471.629 52.774 469.913 52.774C467.141 52.774 465.491 50.662 465.491 47.494C465.491 44.37 467.075 42.302 469.803 42.302C471.585 42.302 472.905 43.182 473.587 44.722V42.5ZM471.233 49.87C472.883 49.87 473.675 49.122 473.675 47.538C473.675 45.954 472.883 45.206 471.233 45.206C469.627 45.206 468.857 45.954 468.857 47.538C468.857 49.122 469.627 49.87 471.233 49.87ZM481.402 49.518C482.788 49.518 483.558 50.244 483.558 51.542C483.558 51.938 483.514 52.444 482.986 53.39L481.27 56.448H478.52L481.182 53.654C480.016 53.632 479.29 52.84 479.29 51.542C479.29 50.244 480.06 49.518 481.402 49.518ZM497.705 42.94C500.675 42.94 502.655 45.096 502.655 48.33C502.655 51.564 500.675 53.72 497.705 53.72C495.923 53.72 494.559 52.862 493.789 51.388V53.5H492.095V38.1H493.789V45.272C494.559 43.798 495.923 42.94 497.705 42.94ZM497.309 52.18C499.773 52.18 500.917 50.948 500.917 48.33C500.917 45.712 499.773 44.48 497.309 44.48C494.845 44.48 493.701 45.712 493.701 48.33C493.701 50.948 494.845 52.18 497.309 52.18ZM512.958 43.16H514.652V53.5H512.958V50.948C512.452 52.576 511.352 53.72 509.174 53.72C506.754 53.72 505.412 52.268 505.412 49.672V43.16H507.106V49.562C507.106 51.256 508.118 52.18 509.658 52.18C511.682 52.18 512.958 50.618 512.958 47.934V43.16ZM524.177 44.7H520.877V51.96H523.803V53.5H521.713C520.195 53.5 519.183 52.488 519.183 50.97V44.7H516.851V43.16H519.183V39.904H520.877V43.16H524.177V44.7ZM540.213 43.16H541.907V53.5H540.213V51.388C539.443 52.862 538.079 53.72 536.297 53.72C533.327 53.72 531.347 51.564 531.347 48.33C531.347 45.096 533.327 42.94 536.297 42.94C538.079 42.94 539.443 43.798 540.213 45.272V43.16ZM536.693 52.18C539.157 52.18 540.301 50.948 540.301 48.33C540.301 45.712 539.157 44.48 536.693 44.48C534.229 44.48 533.085 45.712 533.085 48.33C533.085 50.948 534.229 52.18 536.693 52.18ZM545.655 53.5V38.1H547.349V53.5H545.655ZM554.567 53.72C552.323 53.72 550.651 52.664 550.167 50.53L551.839 49.98C552.125 51.652 552.961 52.224 554.677 52.224C556.239 52.224 556.987 51.784 556.987 50.816C556.987 49.936 556.679 49.628 555.425 49.386L553.401 48.99C551.905 48.704 550.519 47.956 550.519 46.042C550.519 44.172 552.037 42.94 554.325 42.94C556.305 42.94 558.043 43.732 558.483 46.218L556.811 46.68C556.591 44.722 555.755 44.436 554.391 44.436C552.917 44.436 552.235 44.898 552.235 45.91C552.235 46.746 552.543 47.142 553.489 47.318L556.085 47.824C557.603 48.11 558.659 48.88 558.659 50.53C558.659 52.444 557.031 53.72 554.567 53.72ZM565.912 42.94C568.882 42.94 571.258 45.096 571.258 48.33C571.258 51.564 568.882 53.72 565.912 53.72C562.942 53.72 560.566 51.564 560.566 48.33C560.566 45.096 562.942 42.94 565.912 42.94ZM565.912 52.18C568.354 52.18 569.52 50.948 569.52 48.33C569.52 45.712 568.354 44.48 565.912 44.48C563.47 44.48 562.304 45.712 562.304 48.33C562.304 50.948 563.47 52.18 565.912 52.18ZM585.447 42.94C588.417 42.94 590.397 45.096 590.397 48.33C590.397 51.564 588.417 53.72 585.447 53.72C583.665 53.72 582.301 52.862 581.531 51.388V53.5H579.837V38.1H581.531V45.272C582.301 43.798 583.665 42.94 585.447 42.94ZM585.051 52.18C587.515 52.18 588.659 50.948 588.659 48.33C588.659 45.712 587.515 44.48 585.051 44.48C582.587 44.48 581.443 45.712 581.443 48.33C581.443 50.948 582.587 52.18 585.051 52.18ZM600.222 43.16H602.136L597.208 55.304C596.592 56.778 595.932 57.24 594.392 57.24H592.082V55.7H595.756L596.108 54.666L591.51 43.16H593.424L595.976 50.09L596.834 52.576L597.714 50.068L600.222 43.16ZM616.308 42.5H619.63V51.762C619.63 55.37 617.452 57.46 613.734 57.46C610.94 57.46 608.74 56.426 608.256 54.556L611.468 53.28C611.776 54.556 612.678 54.82 613.932 54.82C615.45 54.82 616.308 54.16 616.308 52.532V50.464C615.626 51.96 614.35 52.774 612.634 52.774C609.862 52.774 608.212 50.662 608.212 47.494C608.212 44.37 609.796 42.302 612.524 42.302C614.306 42.302 615.626 43.182 616.308 44.722V42.5ZM613.954 49.87C615.604 49.87 616.396 49.122 616.396 47.538C616.396 45.954 615.604 45.206 613.954 45.206C612.348 45.206 611.578 45.954 611.578 47.538C611.578 49.122 612.348 49.87 613.954 49.87ZM624.144 41.07C622.802 41.07 622.054 40.344 622.054 39.024C622.054 37.748 622.802 37.044 624.144 37.044C625.508 37.044 626.278 37.748 626.278 39.024C626.278 40.344 625.508 41.07 624.144 41.07ZM622.494 53.5V42.5H625.838V53.5H622.494ZM635.897 42.5H639.505L635.413 53.5H631.563L627.471 42.5H631.079L633.499 50.64L635.897 42.5ZM642.793 41.07C641.451 41.07 640.703 40.344 640.703 39.024C640.703 37.748 641.451 37.044 642.793 37.044C644.157 37.044 644.927 37.748 644.927 39.024C644.927 40.344 644.157 41.07 642.793 41.07ZM641.143 53.5V42.5H644.487V53.5H641.143ZM654.172 42.28C656.79 42.28 658.044 43.842 658.044 47.076V53.5H654.7V47.274C654.7 45.932 654.084 45.316 652.852 45.316C651.532 45.316 650.696 46.174 650.696 48.154V53.5H647.352V42.5H650.696V44.986C651.224 43.182 652.368 42.28 654.172 42.28ZM668.171 42.5H671.493V51.762C671.493 55.37 669.315 57.46 665.597 57.46C662.803 57.46 660.603 56.426 660.119 54.556L663.331 53.28C663.639 54.556 664.541 54.82 665.795 54.82C667.313 54.82 668.171 54.16 668.171 52.532V50.464C667.489 51.96 666.213 52.774 664.497 52.774C661.725 52.774 660.075 50.662 660.075 47.494C660.075 44.37 661.659 42.302 664.387 42.302C666.169 42.302 667.489 43.182 668.171 44.722V42.5ZM665.817 49.87C667.467 49.87 668.259 49.122 668.259 47.538C668.259 45.954 667.467 45.206 665.817 45.206C664.211 45.206 663.441 45.954 663.441 47.538C663.441 49.122 664.211 49.87 665.817 49.87ZM686.622 42.28C689.636 42.28 691.286 44.568 691.286 48.022C691.286 51.432 689.548 53.72 686.402 53.72C684.642 53.72 683.388 52.774 682.772 51.036V53.5H679.428V38.1H682.772V45.052C683.41 43.248 684.752 42.28 686.622 42.28ZM685.346 50.684C687.106 50.684 687.942 49.826 687.942 48.022C687.942 46.174 687.106 45.316 685.346 45.316C683.52 45.316 682.662 46.174 682.662 48.022C682.662 49.826 683.52 50.684 685.346 50.684ZM701.202 42.5H704.546V53.5H701.202V51.036C700.586 52.774 699.332 53.72 697.572 53.72C694.426 53.72 692.688 51.432 692.688 48.022C692.688 44.568 694.338 42.28 697.352 42.28C699.222 42.28 700.564 43.248 701.202 45.052V42.5ZM698.628 50.684C700.454 50.684 701.312 49.826 701.312 48.022C701.312 46.174 700.454 45.316 698.628 45.316C696.868 45.316 696.032 46.174 696.032 48.022C696.032 49.826 696.868 50.684 698.628 50.684ZM712.505 50.684C713.913 50.684 714.551 50.156 714.859 48.572L718.115 49.32C717.323 52.576 715.035 53.72 712.505 53.72C709.029 53.72 706.675 51.432 706.675 48.022C706.675 44.568 709.029 42.28 712.505 42.28C715.211 42.28 717.389 43.6 718.115 46.68L714.859 47.428C714.573 45.844 713.935 45.316 712.505 45.316C710.811 45.316 710.019 46.174 710.019 48.022C710.019 49.826 710.811 50.684 712.505 50.684ZM731.534 42.5L727.354 47.054L731.534 53.5H727.552L725.264 49.32L723.592 51.146V53.5H720.248V38.1H723.592V48.066L725.066 45.536L727.376 42.5H731.534ZM745.338 44.7H742.038V51.96H744.964V53.5H742.874C741.356 53.5 740.344 52.488 740.344 50.97V44.7H738.012V43.16H740.344V39.904H742.038V43.16H745.338V44.7ZM751.924 42.94C754.894 42.94 757.27 45.096 757.27 48.33C757.27 51.564 754.894 53.72 751.924 53.72C748.954 53.72 746.578 51.564 746.578 48.33C746.578 45.096 748.954 42.94 751.924 42.94ZM751.924 52.18C754.366 52.18 755.532 50.948 755.532 48.33C755.532 45.712 754.366 44.48 751.924 44.48C749.482 44.48 748.316 45.712 748.316 48.33C748.316 50.948 749.482 52.18 751.924 52.18ZM771.635 44.7H768.335V51.96H771.261V53.5H769.171C767.653 53.5 766.641 52.488 766.641 50.97V44.7H764.309V43.16H766.641V39.904H768.335V43.16H771.635V44.7ZM779.448 42.94C781.868 42.94 783.21 44.392 783.21 46.988V53.5H781.516V47.098C781.516 45.404 780.504 44.48 778.964 44.48C776.94 44.48 775.664 46.042 775.664 48.726V53.5H773.97V38.1H775.664V45.712C776.17 44.084 777.27 42.94 779.448 42.94ZM795.749 48.044C795.749 48.352 795.749 48.484 795.727 48.858H787.697C787.807 51.3 788.797 52.268 791.063 52.268C792.757 52.268 793.439 51.85 793.923 50.486L795.507 51.102C794.781 52.928 792.999 53.72 791.063 53.72C787.961 53.72 785.959 51.608 785.959 48.33C785.959 45.118 788.093 42.94 790.975 42.94C793.769 42.94 795.749 44.876 795.749 48.044ZM790.953 44.37C788.973 44.37 787.917 45.36 787.719 47.472H794.055C793.923 45.25 793.043 44.37 790.953 44.37ZM808.771 52.202C810.597 52.202 811.587 51.498 812.027 49.232L813.743 49.694C813.105 52.4 811.257 53.72 808.793 53.72C805.625 53.72 803.447 51.564 803.447 48.33C803.447 45.096 805.625 42.94 808.793 42.94C811.257 42.94 813.105 44.26 813.743 46.966L812.027 47.428C811.587 45.162 810.597 44.458 808.771 44.458C806.329 44.458 805.185 45.69 805.185 48.33C805.185 50.97 806.329 52.202 808.771 52.202ZM821.061 42.94C824.031 42.94 826.407 45.096 826.407 48.33C826.407 51.564 824.031 53.72 821.061 53.72C818.091 53.72 815.715 51.564 815.715 48.33C815.715 45.096 818.091 42.94 821.061 42.94ZM821.061 52.18C823.503 52.18 824.669 50.948 824.669 48.33C824.669 45.712 823.503 44.48 821.061 44.48C818.619 44.48 817.453 45.712 817.453 48.33C817.453 50.948 818.619 52.18 821.061 52.18ZM842.184 42.94C844.67 42.94 846.056 44.48 846.056 47.142V53.5H844.362V47.252C844.362 45.404 843.35 44.48 841.832 44.48C839.5 44.48 838.51 46.306 838.51 49.32V53.5H836.816V47.098C836.816 45.404 835.804 44.48 834.264 44.48C832.24 44.48 830.964 46.042 830.964 48.726V53.5H829.27V43.16H830.964V45.712C831.47 44.084 832.57 42.94 834.748 42.94C836.794 42.94 838.07 43.974 838.422 45.866C838.994 43.996 840.226 42.94 842.184 42.94ZM862.595 42.94C865.081 42.94 866.467 44.48 866.467 47.142V53.5H864.773V47.252C864.773 45.404 863.761 44.48 862.243 44.48C859.911 44.48 858.921 46.306 858.921 49.32V53.5H857.227V47.098C857.227 45.404 856.215 44.48 854.675 44.48C852.651 44.48 851.375 46.042 851.375 48.726V53.5H849.681V43.16H851.375V45.712C851.881 44.084 852.981 42.94 855.159 42.94C857.205 42.94 858.481 43.974 858.833 45.866C859.405 43.996 860.637 42.94 862.595 42.94ZM877.527 43.16H879.221V53.5H877.527V50.948C877.021 52.576 875.921 53.72 873.743 53.72C871.323 53.72 869.981 52.268 869.981 49.672V43.16H871.675V49.562C871.675 51.256 872.687 52.18 874.227 52.18C876.251 52.18 877.527 50.618 877.527 47.934V43.16ZM888.438 42.94C890.858 42.94 892.2 44.392 892.2 46.988V53.5H890.506V47.098C890.506 45.404 889.494 44.48 887.954 44.48C885.93 44.48 884.654 46.042 884.654 48.726V53.5H882.96V43.16H884.654V45.712C885.16 44.084 886.26 42.94 888.438 42.94ZM896.709 40.608C895.917 40.608 895.455 40.146 895.433 39.354C895.411 38.584 895.873 38.166 896.709 38.166C897.479 38.166 897.919 38.584 897.941 39.354C897.963 40.146 897.523 40.608 896.709 40.608ZM895.829 53.5V43.16H897.523V53.5H895.829ZM907.051 44.7H903.751V51.96H906.677V53.5H904.587C903.069 53.5 902.057 52.488 902.057 50.97V44.7H899.725V43.16H902.057V39.904H903.751V43.16H907.051V44.7ZM916.558 43.16H918.472L913.544 55.304C912.928 56.778 912.268 57.24 910.728 57.24H908.418V55.7H912.092L912.444 54.666L907.846 43.16H909.76L912.312 50.09L913.17 52.576L914.05 50.068L916.558 43.16ZM212.856 71.16H214.55V81.5H212.856V79.388C212.086 80.862 210.722 81.72 208.94 81.72C205.97 81.72 203.99 79.564 203.99 76.33C203.99 73.096 205.97 70.94 208.94 70.94C210.722 70.94 212.086 71.798 212.856 73.272V71.16ZM209.336 80.18C211.8 80.18 212.944 78.948 212.944 76.33C212.944 73.712 211.8 72.48 209.336 72.48C206.872 72.48 205.728 73.712 205.728 76.33C205.728 78.948 206.872 80.18 209.336 80.18ZM223.776 70.94C226.196 70.94 227.538 72.392 227.538 74.988V81.5H225.844V75.098C225.844 73.404 224.832 72.48 223.292 72.48C221.268 72.48 219.992 74.042 219.992 76.726V81.5H218.298V71.16H219.992V73.712C220.498 72.084 221.598 70.94 223.776 70.94ZM239.153 66.1H240.847V81.5H239.153V79.388C238.383 80.862 237.019 81.72 235.237 81.72C232.267 81.72 230.287 79.564 230.287 76.33C230.287 73.096 232.267 70.94 235.237 70.94C237.019 70.94 238.383 71.798 239.153 73.272V66.1ZM235.633 80.18C238.097 80.18 239.241 78.948 239.241 76.33C239.241 73.712 238.097 72.48 235.633 72.48C233.169 72.48 232.025 73.712 232.025 76.33C232.025 78.948 233.169 80.18 235.633 80.18ZM253.785 81.72C251.541 81.72 249.869 80.664 249.385 78.53L251.057 77.98C251.343 79.652 252.179 80.224 253.895 80.224C255.457 80.224 256.205 79.784 256.205 78.816C256.205 77.936 255.897 77.628 254.643 77.386L252.619 76.99C251.123 76.704 249.737 75.956 249.737 74.042C249.737 72.172 251.255 70.94 253.543 70.94C255.523 70.94 257.261 71.732 257.701 74.218L256.029 74.68C255.809 72.722 254.973 72.436 253.609 72.436C252.135 72.436 251.453 72.898 251.453 73.91C251.453 74.746 251.761 75.142 252.707 75.318L255.303 75.824C256.821 76.11 257.877 76.88 257.877 78.53C257.877 80.444 256.249 81.72 253.785 81.72ZM268.101 71.16H269.795V81.5H268.101V78.948C267.595 80.576 266.495 81.72 264.317 81.72C261.897 81.72 260.555 80.268 260.555 77.672V71.16H262.249V77.562C262.249 79.256 263.261 80.18 264.801 80.18C266.825 80.18 268.101 78.618 268.101 75.934V71.16ZM279.144 70.94C282.114 70.94 284.094 73.096 284.094 76.33C284.094 79.564 282.114 81.72 279.144 81.72C277.362 81.72 275.998 80.862 275.228 79.388V85.24H273.534V71.16H275.228V73.272C275.998 71.798 277.362 70.94 279.144 70.94ZM278.748 80.18C281.212 80.18 282.356 78.948 282.356 76.33C282.356 73.712 281.212 72.48 278.748 72.48C276.284 72.48 275.14 73.712 275.14 76.33C275.14 78.948 276.284 80.18 278.748 80.18ZM292.572 70.94C295.542 70.94 297.522 73.096 297.522 76.33C297.522 79.564 295.542 81.72 292.572 81.72C290.79 81.72 289.426 80.862 288.656 79.388V85.24H286.962V71.16H288.656V73.272C289.426 71.798 290.79 70.94 292.572 70.94ZM292.176 80.18C294.64 80.18 295.784 78.948 295.784 76.33C295.784 73.712 294.64 72.48 292.176 72.48C289.712 72.48 288.568 73.712 288.568 76.33C288.568 78.948 289.712 80.18 292.176 80.18ZM304.856 70.94C307.826 70.94 310.202 73.096 310.202 76.33C310.202 79.564 307.826 81.72 304.856 81.72C301.886 81.72 299.51 79.564 299.51 76.33C299.51 73.096 301.886 70.94 304.856 70.94ZM304.856 80.18C307.298 80.18 308.464 78.948 308.464 76.33C308.464 73.712 307.298 72.48 304.856 72.48C302.414 72.48 301.248 73.712 301.248 76.33C301.248 78.948 302.414 80.18 304.856 80.18ZM318.147 70.962C318.653 70.962 319.071 70.984 319.357 71.116V72.832C319.159 72.722 318.807 72.568 317.927 72.568C315.705 72.568 314.759 74.57 314.759 76.792V81.5H313.065V71.16H314.759V74.108C315.133 72.392 316.057 70.962 318.147 70.962ZM327.424 72.7H324.124V79.96H327.05V81.5H324.96C323.442 81.5 322.43 80.488 322.43 78.97V72.7H320.098V71.16H322.43V67.904H324.124V71.16H327.424V72.7ZM330.639 68.608C329.847 68.608 329.385 68.146 329.363 67.354C329.341 66.584 329.803 66.166 330.639 66.166C331.409 66.166 331.849 66.584 331.871 67.354C331.893 68.146 331.453 68.608 330.639 68.608ZM329.759 81.5V71.16H331.453V81.5H329.759ZM340.672 70.94C343.092 70.94 344.434 72.392 344.434 74.988V81.5H342.74V75.098C342.74 73.404 341.728 72.48 340.188 72.48C338.164 72.48 336.888 74.042 336.888 76.726V81.5H335.194V71.16H336.888V73.712C337.394 72.084 338.494 70.94 340.672 70.94ZM355.675 71.16H357.369V81.016C357.369 83.678 355.455 85.46 352.331 85.46C349.691 85.46 348.041 84.514 347.315 82.534L348.943 81.764C349.537 83.524 350.219 83.964 352.331 83.964C354.707 83.964 355.675 83.018 355.675 81.016V78.882C354.971 80.246 353.673 81.082 351.957 81.082C349.185 81.082 347.183 78.992 347.183 76.022C347.183 73.03 349.185 70.94 351.957 70.94C353.673 70.94 354.971 71.776 355.675 73.14V71.16ZM352.331 79.52C354.685 79.52 355.807 78.398 355.807 76.022C355.807 73.624 354.707 72.48 352.375 72.48C350.021 72.48 348.921 73.624 348.921 76.022C348.921 78.398 350.021 79.52 352.331 79.52ZM372.605 72.7H369.305V79.96H372.231V81.5H370.141C368.623 81.5 367.611 80.488 367.611 78.97V72.7H365.279V71.16H367.611V67.904H369.305V71.16H372.605V72.7ZM380.418 70.94C382.838 70.94 384.18 72.392 384.18 74.988V81.5H382.486V75.098C382.486 73.404 381.474 72.48 379.934 72.48C377.91 72.48 376.634 74.042 376.634 76.726V81.5H374.94V66.1H376.634V73.712C377.14 72.084 378.24 70.94 380.418 70.94ZM396.719 76.044C396.719 76.352 396.719 76.484 396.697 76.858H388.667C388.777 79.3 389.767 80.268 392.033 80.268C393.727 80.268 394.409 79.85 394.893 78.486L396.477 79.102C395.751 80.928 393.969 81.72 392.033 81.72C388.931 81.72 386.929 79.608 386.929 76.33C386.929 73.118 389.063 70.94 391.945 70.94C394.739 70.94 396.719 72.876 396.719 76.044ZM391.923 72.37C389.943 72.37 388.887 73.36 388.689 75.472H395.025C394.893 73.25 394.013 72.37 391.923 72.37ZM414.208 76.044C414.208 76.352 414.208 76.484 414.186 76.858H406.156C406.266 79.3 407.256 80.268 409.522 80.268C411.216 80.268 411.898 79.85 412.382 78.486L413.966 79.102C413.24 80.928 411.458 81.72 409.522 81.72C406.42 81.72 404.418 79.608 404.418 76.33C404.418 73.118 406.552 70.94 409.434 70.94C412.228 70.94 414.208 72.876 414.208 76.044ZM409.412 72.37C407.432 72.37 406.376 73.36 406.178 75.472H412.514C412.382 73.25 411.502 72.37 409.412 72.37ZM422.549 70.94C424.969 70.94 426.311 72.392 426.311 74.988V81.5H424.617V75.098C424.617 73.404 423.605 72.48 422.065 72.48C420.041 72.48 418.765 74.042 418.765 76.726V81.5H417.071V71.16H418.765V73.712C419.271 72.084 420.371 70.94 422.549 70.94ZM436.683 71.16H438.597L434.417 81.5H432.151L427.971 71.16H429.885L433.295 80.4L436.683 71.16ZM441.67 68.608C440.878 68.608 440.416 68.146 440.394 67.354C440.372 66.584 440.834 66.166 441.67 66.166C442.44 66.166 442.88 66.584 442.902 67.354C442.924 68.146 442.484 68.608 441.67 68.608ZM440.79 81.5V71.16H442.484V81.5H440.79ZM451.307 70.962C451.813 70.962 452.231 70.984 452.517 71.116V72.832C452.319 72.722 451.967 72.568 451.087 72.568C448.865 72.568 447.919 74.57 447.919 76.792V81.5H446.225V71.16H447.919V74.108C448.293 72.392 449.217 70.962 451.307 70.962ZM458.834 70.94C461.804 70.94 464.18 73.096 464.18 76.33C464.18 79.564 461.804 81.72 458.834 81.72C455.864 81.72 453.488 79.564 453.488 76.33C453.488 73.096 455.864 70.94 458.834 70.94ZM458.834 80.18C461.276 80.18 462.442 78.948 462.442 76.33C462.442 73.712 461.276 72.48 458.834 72.48C456.392 72.48 455.226 73.712 455.226 76.33C455.226 78.948 456.392 80.18 458.834 80.18ZM472.522 70.94C474.942 70.94 476.284 72.392 476.284 74.988V81.5H474.59V75.098C474.59 73.404 473.578 72.48 472.038 72.48C470.014 72.48 468.738 74.042 468.738 76.726V81.5H467.044V71.16H468.738V73.712C469.244 72.084 470.344 70.94 472.522 70.94ZM492.827 70.94C495.313 70.94 496.699 72.48 496.699 75.142V81.5H495.005V75.252C495.005 73.404 493.993 72.48 492.475 72.48C490.143 72.48 489.153 74.306 489.153 77.32V81.5H487.459V75.098C487.459 73.404 486.447 72.48 484.907 72.48C482.883 72.48 481.607 74.042 481.607 76.726V81.5H479.913V71.16H481.607V73.712C482.113 72.084 483.213 70.94 485.391 70.94C487.437 70.94 488.713 71.974 489.065 73.866C489.637 71.996 490.869 70.94 492.827 70.94ZM509.233 76.044C509.233 76.352 509.233 76.484 509.211 76.858H501.181C501.291 79.3 502.281 80.268 504.547 80.268C506.241 80.268 506.923 79.85 507.407 78.486L508.991 79.102C508.265 80.928 506.483 81.72 504.547 81.72C501.445 81.72 499.443 79.608 499.443 76.33C499.443 73.118 501.577 70.94 504.459 70.94C507.253 70.94 509.233 72.876 509.233 76.044ZM504.437 72.37C502.457 72.37 501.401 73.36 501.203 75.472H507.539C507.407 73.25 506.527 72.37 504.437 72.37ZM517.575 70.94C519.995 70.94 521.337 72.392 521.337 74.988V81.5H519.643V75.098C519.643 73.404 518.631 72.48 517.091 72.48C515.067 72.48 513.791 74.042 513.791 76.726V81.5H512.097V71.16H513.791V73.712C514.297 72.084 515.397 70.94 517.575 70.94ZM530.429 72.7H527.129V79.96H530.055V81.5H527.965C526.447 81.5 525.435 80.488 525.435 78.97V72.7H523.103V71.16H525.435V67.904H527.129V71.16H530.429V72.7ZM538.699 81.5V66.1H540.459V81.5H538.699ZM550.124 81.5V66.1H551.818V81.5H550.124ZM556.439 68.608C555.647 68.608 555.185 68.146 555.163 67.354C555.141 66.584 555.603 66.166 556.439 66.166C557.209 66.166 557.649 66.584 557.671 67.354C557.693 68.146 557.253 68.608 556.439 68.608ZM555.559 81.5V71.16H557.253V81.5H555.559ZM568.167 71.16H570.081L565.901 81.5H563.635L559.455 71.16H561.369L564.779 80.4L568.167 71.16ZM580.969 76.044C580.969 76.352 580.969 76.484 580.947 76.858H572.917C573.027 79.3 574.017 80.268 576.283 80.268C577.977 80.268 578.659 79.85 579.143 78.486L580.727 79.102C580.001 80.928 578.219 81.72 576.283 81.72C573.181 81.72 571.179 79.608 571.179 76.33C571.179 73.118 573.313 70.94 576.195 70.94C578.989 70.94 580.969 72.876 580.969 76.044ZM576.173 72.37C574.193 72.37 573.137 73.36 572.939 75.472H579.275C579.143 73.25 578.263 72.37 576.173 72.37ZM590.428 68.608C589.636 68.608 589.174 68.146 589.152 67.354C589.13 66.584 589.592 66.166 590.428 66.166C591.198 66.166 591.638 66.584 591.66 67.354C591.682 68.146 591.242 68.608 590.428 68.608ZM589.548 81.5V71.16H591.242V81.5H589.548ZM600.461 70.94C602.881 70.94 604.223 72.392 604.223 74.988V81.5H602.529V75.098C602.529 73.404 601.517 72.48 599.977 72.48C597.953 72.48 596.677 74.042 596.677 76.726V81.5H594.983V71.16H596.677V73.712C597.183 72.084 598.283 70.94 600.461 70.94ZM608.666 81.588C607.852 81.588 607.39 81.126 607.368 80.312C607.346 79.476 607.808 79.014 608.666 79.014C609.48 79.014 609.942 79.476 609.964 80.312C609.986 81.126 609.524 81.588 608.666 81.588Z" fill="black"/>
</svg>
