<svg width="1033" height="120" viewBox="0 0 1033 120" fill="none" xmlns="http://www.w3.org/2000/svg">
<rect y="6.5" width="873" height="107" rx="20" fill="#E1E1E1"/>
<path d="M64.668 39.1H66.538L62.732 54.5H60.444L56.704 43.038L56 40.574L55.274 43.06L51.556 54.5H49.246L45.44 39.1H47.354L49.884 49.902L50.456 52.74L51.27 49.88L54.724 39.1H57.232L60.708 49.902L61.544 52.85L62.138 49.902L64.668 39.1ZM77.0925 49.044C77.0925 49.352 77.0925 49.484 77.0705 49.858H69.0405C69.1505 52.3 70.1405 53.268 72.4065 53.268C74.1005 53.268 74.7825 52.85 75.2665 51.486L76.8505 52.102C76.1245 53.928 74.3425 54.72 72.4065 54.72C69.3045 54.72 67.3025 52.608 67.3025 49.33C67.3025 46.118 69.4365 43.94 72.3185 43.94C75.1125 43.94 77.0925 45.876 77.0925 49.044ZM72.2965 45.37C70.3165 45.37 69.2605 46.36 69.0625 48.472H75.3985C75.2665 46.25 74.3865 45.37 72.2965 45.37ZM90.1148 53.202C91.9408 53.202 92.9308 52.498 93.3708 50.232L95.0868 50.694C94.4488 53.4 92.6008 54.72 90.1368 54.72C86.9688 54.72 84.7908 52.564 84.7908 49.33C84.7908 46.096 86.9688 43.94 90.1368 43.94C92.6008 43.94 94.4488 45.26 95.0868 47.966L93.3708 48.428C92.9308 46.162 91.9408 45.458 90.1148 45.458C87.6728 45.458 86.5288 46.69 86.5288 49.33C86.5288 51.97 87.6728 53.202 90.1148 53.202ZM102.404 43.94C105.374 43.94 107.75 46.096 107.75 49.33C107.75 52.564 105.374 54.72 102.404 54.72C99.4344 54.72 97.0584 52.564 97.0584 49.33C97.0584 46.096 99.4344 43.94 102.404 43.94ZM102.404 53.18C104.846 53.18 106.012 51.948 106.012 49.33C106.012 46.712 104.846 45.48 102.404 45.48C99.9624 45.48 98.7964 46.712 98.7964 49.33C98.7964 51.948 99.9624 53.18 102.404 53.18ZM123.528 43.94C126.014 43.94 127.4 45.48 127.4 48.142V54.5H125.706V48.252C125.706 46.404 124.694 45.48 123.176 45.48C120.844 45.48 119.854 47.306 119.854 50.32V54.5H118.16V48.098C118.16 46.404 117.148 45.48 115.608 45.48C113.584 45.48 112.308 47.042 112.308 49.726V54.5H110.614V44.16H112.308V46.712C112.814 45.084 113.914 43.94 116.092 43.94C118.138 43.94 119.414 44.974 119.766 46.866C120.338 44.996 121.57 43.94 123.528 43.94ZM143.938 43.94C146.424 43.94 147.81 45.48 147.81 48.142V54.5H146.116V48.252C146.116 46.404 145.104 45.48 143.586 45.48C141.254 45.48 140.264 47.306 140.264 50.32V54.5H138.57V48.098C138.57 46.404 137.558 45.48 136.018 45.48C133.994 45.48 132.718 47.042 132.718 49.726V54.5H131.024V44.16H132.718V46.712C133.224 45.084 134.324 43.94 136.502 43.94C138.548 43.94 139.824 44.974 140.176 46.866C140.748 44.996 141.98 43.94 143.938 43.94ZM158.87 44.16H160.564V54.5H158.87V51.948C158.364 53.576 157.264 54.72 155.086 54.72C152.666 54.72 151.324 53.268 151.324 50.672V44.16H153.018V50.562C153.018 52.256 154.03 53.18 155.57 53.18C157.594 53.18 158.87 51.618 158.87 48.934V44.16ZM169.782 43.94C172.202 43.94 173.544 45.392 173.544 47.988V54.5H171.85V48.098C171.85 46.404 170.838 45.48 169.298 45.48C167.274 45.48 165.998 47.042 165.998 49.726V54.5H164.304V44.16H165.998V46.712C166.504 45.084 167.604 43.94 169.782 43.94ZM178.053 41.608C177.261 41.608 176.799 41.146 176.777 40.354C176.755 39.584 177.217 39.166 178.053 39.166C178.823 39.166 179.263 39.584 179.285 40.354C179.307 41.146 178.867 41.608 178.053 41.608ZM177.173 54.5V44.16H178.867V54.5H177.173ZM187.052 53.202C188.878 53.202 189.868 52.498 190.308 50.232L192.024 50.694C191.386 53.4 189.538 54.72 187.074 54.72C183.906 54.72 181.728 52.564 181.728 49.33C181.728 46.096 183.906 43.94 187.074 43.94C189.538 43.94 191.386 45.26 192.024 47.966L190.308 48.428C189.868 46.162 188.878 45.458 187.052 45.458C184.61 45.458 183.466 46.69 183.466 49.33C183.466 51.97 184.61 53.202 187.052 53.202ZM202.862 44.16H204.556V54.5H202.862V52.388C202.092 53.862 200.728 54.72 198.946 54.72C195.976 54.72 193.996 52.564 193.996 49.33C193.996 46.096 195.976 43.94 198.946 43.94C200.728 43.94 202.092 44.798 202.862 46.272V44.16ZM199.342 53.18C201.806 53.18 202.95 51.948 202.95 49.33C202.95 46.712 201.806 45.48 199.342 45.48C196.878 45.48 195.734 46.712 195.734 49.33C195.734 51.948 196.878 53.18 199.342 53.18ZM214.09 45.7H210.79V52.96H213.716V54.5H211.626C210.108 54.5 209.096 53.488 209.096 51.97V45.7H206.764V44.16H209.096V40.904H210.79V44.16H214.09V45.7ZM225.12 49.044C225.12 49.352 225.12 49.484 225.098 49.858H217.068C217.178 52.3 218.168 53.268 220.434 53.268C222.128 53.268 222.81 52.85 223.294 51.486L224.878 52.102C224.152 53.928 222.37 54.72 220.434 54.72C217.332 54.72 215.33 52.608 215.33 49.33C215.33 46.118 217.464 43.94 220.346 43.94C223.14 43.94 225.12 45.876 225.12 49.044ZM220.324 45.37C218.344 45.37 217.288 46.36 217.09 48.472H223.426C223.294 46.25 222.414 45.37 220.324 45.37ZM246.018 44.16H247.932L245.006 54.5H242.96L240.65 47.944L240.078 46.052L239.484 47.988L237.174 54.5H235.15L232.202 44.16H234.116L235.766 50.826L236.272 53.202L236.976 50.804L239.154 44.16H240.958L243.136 50.782L243.862 53.29L244.39 50.804L246.018 44.16ZM251.057 41.608C250.265 41.608 249.803 41.146 249.781 40.354C249.759 39.584 250.221 39.166 251.057 39.166C251.827 39.166 252.267 39.584 252.289 40.354C252.311 41.146 251.871 41.608 251.057 41.608ZM250.177 54.5V44.16H251.871V54.5H250.177ZM261.398 45.7H258.098V52.96H261.024V54.5H258.934C257.416 54.5 256.404 53.488 256.404 51.97V45.7H254.072V44.16H256.404V40.904H258.098V44.16H261.398V45.7ZM269.211 43.94C271.631 43.94 272.973 45.392 272.973 47.988V54.5H271.279V48.098C271.279 46.404 270.267 45.48 268.727 45.48C266.703 45.48 265.427 47.042 265.427 49.726V54.5H263.733V39.1H265.427V46.712C265.933 45.084 267.033 43.94 269.211 43.94ZM292.129 48.912C292.129 49.286 292.129 49.572 292.107 50.056H284.627C284.825 51.552 285.529 52.168 286.937 52.168C287.993 52.168 288.499 51.838 289.027 50.782L291.887 51.794C291.139 53.686 289.489 54.72 286.849 54.72C283.439 54.72 281.151 52.476 281.151 49.088C281.151 45.612 283.395 43.28 286.739 43.28C289.973 43.28 292.129 45.524 292.129 48.912ZM286.805 45.722C285.463 45.722 284.803 46.338 284.627 47.878H288.829C288.807 46.272 288.147 45.722 286.805 45.722ZM294.274 54.5V39.1H297.618V54.5H294.274ZM310.735 48.912C310.735 49.286 310.735 49.572 310.713 50.056H303.233C303.431 51.552 304.135 52.168 305.543 52.168C306.599 52.168 307.105 51.838 307.633 50.782L310.493 51.794C309.745 53.686 308.095 54.72 305.455 54.72C302.045 54.72 299.757 52.476 299.757 49.088C299.757 45.612 302.001 43.28 305.345 43.28C308.579 43.28 310.735 45.524 310.735 48.912ZM305.411 45.722C304.069 45.722 303.409 46.338 303.233 47.878H307.435C307.413 46.272 306.753 45.722 305.411 45.722ZM317.983 51.684C319.391 51.684 320.029 51.156 320.337 49.572L323.593 50.32C322.801 53.576 320.513 54.72 317.983 54.72C314.507 54.72 312.153 52.432 312.153 49.022C312.153 45.568 314.507 43.28 317.983 43.28C320.689 43.28 322.867 44.6 323.593 47.68L320.337 48.428C320.051 46.844 319.413 46.316 317.983 46.316C316.289 46.316 315.497 47.174 315.497 49.022C315.497 50.826 316.289 51.684 317.983 51.684ZM333.053 46.426H330.017V51.574H332.833V54.5H330.413C328.169 54.5 326.673 53.004 326.673 50.76V46.426H324.715V43.5H326.673V40.31H330.017V43.5H333.053V46.426ZM341.56 43.324C341.912 43.324 342.462 43.324 342.902 43.5V46.602C342.396 46.426 342.066 46.382 341.45 46.382C339.91 46.382 338.524 47.174 338.524 50.166V54.5H335.18V43.5H338.524V46.624C338.766 45.018 339.492 43.324 341.56 43.324ZM346.412 42.07C345.07 42.07 344.322 41.344 344.322 40.024C344.322 38.748 345.07 38.044 346.412 38.044C347.776 38.044 348.546 38.748 348.546 40.024C348.546 41.344 347.776 42.07 346.412 42.07ZM344.762 54.5V43.5H348.106V54.5H344.762ZM356.075 51.684C357.483 51.684 358.121 51.156 358.429 49.572L361.685 50.32C360.893 53.576 358.605 54.72 356.075 54.72C352.599 54.72 350.245 52.432 350.245 49.022C350.245 45.568 352.599 43.28 356.075 43.28C358.781 43.28 360.959 44.6 361.685 47.68L358.429 48.428C358.143 46.844 357.505 46.316 356.075 46.316C354.381 46.316 353.589 47.174 353.589 49.022C353.589 50.826 354.381 51.684 356.075 51.684ZM371.607 43.5H374.951V54.5H371.607V52.036C370.991 53.774 369.737 54.72 367.977 54.72C364.831 54.72 363.093 52.432 363.093 49.022C363.093 45.568 364.743 43.28 367.757 43.28C369.627 43.28 370.969 44.248 371.607 46.052V43.5ZM369.033 51.684C370.859 51.684 371.717 50.826 371.717 49.022C371.717 47.174 370.859 46.316 369.033 46.316C367.273 46.316 366.437 47.174 366.437 49.022C366.437 50.826 367.273 51.684 369.033 51.684ZM377.805 54.5V39.1H381.149V54.5H377.805ZM390.734 42.07C389.392 42.07 388.644 41.344 388.644 40.024C388.644 38.748 389.392 38.044 390.734 38.044C392.098 38.044 392.868 38.748 392.868 40.024C392.868 41.344 392.098 42.07 390.734 42.07ZM389.084 54.5V43.5H392.428V54.5H389.084ZM409.681 43.28C412.167 43.28 413.333 44.82 413.333 48.076V54.5H409.989V48.274C409.989 47.02 409.395 46.316 408.141 46.316C406.821 46.316 405.985 47.152 405.985 49.594V54.5H402.641V48.274C402.641 46.932 402.025 46.316 400.793 46.316C399.473 46.316 398.637 47.174 398.637 49.154V54.5H395.293V43.5H398.637V45.986C399.165 44.182 400.309 43.28 402.113 43.28C404.071 43.28 405.281 44.16 405.743 45.964C406.469 44.116 407.833 43.28 409.681 43.28ZM423.284 43.28C426.298 43.28 427.948 45.568 427.948 49.022C427.948 52.432 426.21 54.72 423.064 54.72C421.304 54.72 420.05 53.774 419.434 52.036V58.24H416.09V43.5H419.434V46.052C420.072 44.248 421.414 43.28 423.284 43.28ZM422.008 51.684C423.768 51.684 424.604 50.826 424.604 49.022C424.604 47.174 423.768 46.316 422.008 46.316C420.182 46.316 419.324 47.174 419.324 49.022C419.324 50.826 420.182 51.684 422.008 51.684ZM437.314 43.5H440.658V54.5H437.314V52.014C436.786 53.818 435.642 54.72 433.838 54.72C431.22 54.72 429.966 53.158 429.966 49.924V43.5H433.31V49.726C433.31 51.068 433.926 51.684 435.158 51.684C436.478 51.684 437.314 50.826 437.314 48.846V43.5ZM443.526 54.5V39.1H446.87V54.5H443.526ZM453.585 54.72C450.549 54.72 448.877 53.092 448.679 51.53L451.781 50.716C451.913 51.992 452.595 52.278 453.805 52.278C454.641 52.278 455.279 51.926 455.279 51.332C455.279 50.76 454.971 50.43 453.695 50.254L452.001 50.012C449.889 49.704 448.855 48.472 448.855 46.646C448.855 44.49 450.505 43.28 453.409 43.28C456.797 43.28 457.919 44.688 458.227 46.316L455.367 46.976C455.257 45.92 454.883 45.568 453.519 45.568C452.661 45.568 452.199 45.92 452.199 46.514C452.199 46.998 452.485 47.35 453.607 47.482L455.587 47.724C457.501 47.966 458.623 49.198 458.623 51.002C458.623 53.378 456.819 54.72 453.585 54.72ZM470.858 48.912C470.858 49.286 470.858 49.572 470.836 50.056H463.356C463.554 51.552 464.258 52.168 465.666 52.168C466.722 52.168 467.228 51.838 467.756 50.782L470.616 51.794C469.868 53.686 468.218 54.72 465.578 54.72C462.168 54.72 459.88 52.476 459.88 49.088C459.88 45.612 462.124 43.28 465.468 43.28C468.702 43.28 470.858 45.524 470.858 48.912ZM465.534 45.722C464.192 45.722 463.532 46.338 463.356 47.878H467.558C467.536 46.272 466.876 45.722 465.534 45.722ZM476.852 54.72C473.816 54.72 472.144 53.092 471.946 51.53L475.048 50.716C475.18 51.992 475.862 52.278 477.072 52.278C477.908 52.278 478.546 51.926 478.546 51.332C478.546 50.76 478.238 50.43 476.962 50.254L475.268 50.012C473.156 49.704 472.122 48.472 472.122 46.646C472.122 44.49 473.772 43.28 476.676 43.28C480.064 43.28 481.186 44.688 481.494 46.316L478.634 46.976C478.524 45.92 478.15 45.568 476.786 45.568C475.928 45.568 475.466 45.92 475.466 46.514C475.466 46.998 475.752 47.35 476.874 47.482L478.854 47.724C480.768 47.966 481.89 49.198 481.89 51.002C481.89 53.378 480.086 54.72 476.852 54.72ZM485.501 50.518C486.887 50.518 487.657 51.244 487.657 52.542C487.657 52.938 487.613 53.444 487.085 54.39L485.369 57.448H482.619L485.281 54.654C484.115 54.632 483.389 53.84 483.389 52.542C483.389 51.244 484.159 50.518 485.501 50.518ZM508.514 44.16H510.428L507.502 54.5H505.456L503.146 47.944L502.574 46.052L501.98 47.988L499.67 54.5H497.646L494.698 44.16H496.612L498.262 50.826L498.768 53.202L499.472 50.804L501.65 44.16H503.454L505.632 50.782L506.358 53.29L506.886 50.804L508.514 44.16ZM521.368 49.044C521.368 49.352 521.368 49.484 521.346 49.858H513.316C513.426 52.3 514.416 53.268 516.682 53.268C518.376 53.268 519.058 52.85 519.542 51.486L521.126 52.102C520.4 53.928 518.618 54.72 516.682 54.72C513.58 54.72 511.578 52.608 511.578 49.33C511.578 46.118 513.712 43.94 516.594 43.94C519.388 43.94 521.368 45.876 521.368 49.044ZM516.572 45.37C514.592 45.37 513.536 46.36 513.338 48.472H519.674C519.542 46.25 518.662 45.37 516.572 45.37ZM535.776 44.16V45.7H532.432V54.5H530.738V45.7H528.516V44.16H530.738V41.63C530.738 40.112 531.75 39.1 533.268 39.1H535.578V40.64H532.432V44.16H535.776ZM542.232 43.94C545.202 43.94 547.578 46.096 547.578 49.33C547.578 52.564 545.202 54.72 542.232 54.72C539.262 54.72 536.886 52.564 536.886 49.33C536.886 46.096 539.262 43.94 542.232 43.94ZM542.232 53.18C544.674 53.18 545.84 51.948 545.84 49.33C545.84 46.712 544.674 45.48 542.232 45.48C539.79 45.48 538.624 46.712 538.624 49.33C538.624 51.948 539.79 53.18 542.232 53.18ZM555.524 43.962C556.03 43.962 556.448 43.984 556.734 44.116V45.832C556.536 45.722 556.184 45.568 555.304 45.568C553.082 45.568 552.136 47.57 552.136 49.792V54.5H550.442V44.16H552.136V47.108C552.51 45.392 553.434 43.962 555.524 43.962ZM571.929 43.94C574.415 43.94 575.801 45.48 575.801 48.142V54.5H574.107V48.252C574.107 46.404 573.095 45.48 571.577 45.48C569.245 45.48 568.255 47.306 568.255 50.32V54.5H566.561V48.098C566.561 46.404 565.549 45.48 564.009 45.48C561.985 45.48 560.709 47.042 560.709 49.726V54.5H559.015V44.16H560.709V46.712C561.215 45.084 562.315 43.94 564.493 43.94C566.539 43.94 567.815 44.974 568.167 46.866C568.739 44.996 569.971 43.94 571.929 43.94ZM593.126 44.16H594.82V54.5H593.126V52.388C592.356 53.862 590.992 54.72 589.21 54.72C586.24 54.72 584.26 52.564 584.26 49.33C584.26 46.096 586.24 43.94 589.21 43.94C590.992 43.94 592.356 44.798 593.126 46.272V44.16ZM589.606 53.18C592.07 53.18 593.214 51.948 593.214 49.33C593.214 46.712 592.07 45.48 589.606 45.48C587.142 45.48 585.998 46.712 585.998 49.33C585.998 51.948 587.142 53.18 589.606 53.18ZM608.946 51.684C610.354 51.684 610.992 51.156 611.3 49.572L614.556 50.32C613.764 53.576 611.476 54.72 608.946 54.72C605.47 54.72 603.116 52.432 603.116 49.022C603.116 45.568 605.47 43.28 608.946 43.28C611.652 43.28 613.83 44.6 614.556 47.68L611.3 48.428C611.014 46.844 610.376 46.316 608.946 46.316C607.252 46.316 606.46 47.174 606.46 49.022C606.46 50.826 607.252 51.684 608.946 51.684ZM621.948 43.28C625.204 43.28 627.932 45.458 627.932 49.022C627.932 52.564 625.204 54.72 621.948 54.72C618.692 54.72 615.964 52.564 615.964 49.022C615.964 45.458 618.692 43.28 621.948 43.28ZM621.948 51.684C623.752 51.684 624.588 50.826 624.588 49.022C624.588 47.174 623.752 46.316 621.948 46.316C620.144 46.316 619.308 47.174 619.308 49.022C619.308 50.826 620.144 51.684 621.948 51.684ZM630.075 54.5V39.1H633.419V54.5H630.075ZM636.284 54.5V39.1H639.628V54.5H636.284ZM652.745 48.912C652.745 49.286 652.745 49.572 652.723 50.056H645.243C645.441 51.552 646.145 52.168 647.553 52.168C648.609 52.168 649.115 51.838 649.643 50.782L652.503 51.794C651.755 53.686 650.105 54.72 647.465 54.72C644.055 54.72 641.767 52.476 641.767 49.088C641.767 45.612 644.011 43.28 647.355 43.28C650.589 43.28 652.745 45.524 652.745 48.912ZM647.421 45.722C646.079 45.722 645.419 46.338 645.243 47.878H649.445C649.423 46.272 648.763 45.722 647.421 45.722ZM659.993 51.684C661.401 51.684 662.039 51.156 662.347 49.572L665.603 50.32C664.811 53.576 662.523 54.72 659.993 54.72C656.517 54.72 654.163 52.432 654.163 49.022C654.163 45.568 656.517 43.28 659.993 43.28C662.699 43.28 664.877 44.6 665.603 47.68L662.347 48.428C662.061 46.844 661.423 46.316 659.993 46.316C658.299 46.316 657.507 47.174 657.507 49.022C657.507 50.826 658.299 51.684 659.993 51.684ZM675.063 46.426H672.027V51.574H674.843V54.5H672.423C670.179 54.5 668.683 53.004 668.683 50.76V46.426H666.725V43.5H668.683V40.31H672.027V43.5H675.063V46.426ZM678.84 42.07C677.498 42.07 676.75 41.344 676.75 40.024C676.75 38.748 677.498 38.044 678.84 38.044C680.204 38.044 680.974 38.748 680.974 40.024C680.974 41.344 680.204 42.07 678.84 42.07ZM677.19 54.5V43.5H680.534V54.5H677.19ZM690.593 43.5H694.201L690.109 54.5H686.259L682.167 43.5H685.775L688.195 51.64L690.593 43.5ZM705.661 48.912C705.661 49.286 705.661 49.572 705.639 50.056H698.159C698.357 51.552 699.061 52.168 700.469 52.168C701.525 52.168 702.031 51.838 702.559 50.782L705.419 51.794C704.671 53.686 703.021 54.72 700.381 54.72C696.971 54.72 694.683 52.476 694.683 49.088C694.683 45.612 696.927 43.28 700.271 43.28C703.505 43.28 705.661 45.524 705.661 48.912ZM700.337 45.722C698.995 45.722 698.335 46.338 698.159 47.878H702.361C702.339 46.272 701.679 45.722 700.337 45.722ZM720.069 43.28C723.083 43.28 724.733 45.568 724.733 49.022C724.733 52.432 722.995 54.72 719.849 54.72C718.089 54.72 716.835 53.774 716.219 52.036V54.5H712.875V39.1H716.219V46.052C716.857 44.248 718.199 43.28 720.069 43.28ZM718.793 51.684C720.553 51.684 721.389 50.826 721.389 49.022C721.389 47.174 720.553 46.316 718.793 46.316C716.967 46.316 716.109 47.174 716.109 49.022C716.109 50.826 716.967 51.684 718.793 51.684ZM733.242 43.324C733.594 43.324 734.144 43.324 734.584 43.5V46.602C734.078 46.426 733.748 46.382 733.132 46.382C731.592 46.382 730.206 47.174 730.206 50.166V54.5H726.862V43.5H730.206V46.624C730.448 45.018 731.174 43.324 733.242 43.324ZM744.017 43.5H747.361V54.5H744.017V52.036C743.401 53.774 742.147 54.72 740.387 54.72C737.241 54.72 735.503 52.432 735.503 49.022C735.503 45.568 737.153 43.28 740.167 43.28C742.037 43.28 743.379 44.248 744.017 46.052V43.5ZM741.443 51.684C743.269 51.684 744.127 50.826 744.127 49.022C744.127 47.174 743.269 46.316 741.443 46.316C739.683 46.316 738.847 47.174 738.847 49.022C738.847 50.826 739.683 51.684 741.443 51.684ZM751.865 42.07C750.523 42.07 749.775 41.344 749.775 40.024C749.775 38.748 750.523 38.044 751.865 38.044C753.229 38.044 753.999 38.748 753.999 40.024C753.999 41.344 753.229 42.07 751.865 42.07ZM750.215 54.5V43.5H753.559V54.5H750.215ZM763.244 43.28C765.862 43.28 767.116 44.842 767.116 48.076V54.5H763.772V48.274C763.772 46.932 763.156 46.316 761.924 46.316C760.604 46.316 759.768 47.174 759.768 49.154V54.5H756.424V43.5H759.768V45.986C760.296 44.182 761.44 43.28 763.244 43.28ZM771.501 50.518C772.887 50.518 773.657 51.244 773.657 52.542C773.657 52.938 773.613 53.444 773.085 54.39L771.369 57.448H768.619L771.281 54.654C770.115 54.632 769.389 53.84 769.389 52.542C769.389 51.244 770.159 50.518 771.501 50.518ZM59.19 72.16H61.104L58.178 82.5H56.132L53.822 75.944L53.25 74.052L52.656 75.988L50.346 82.5H48.322L45.374 72.16H47.288L48.938 78.826L49.444 81.202L50.148 78.804L52.326 72.16H54.13L56.308 78.782L57.034 81.29L57.562 78.804L59.19 72.16ZM68.8265 71.94C71.2465 71.94 72.5885 73.392 72.5885 75.988V82.5H70.8945V76.098C70.8945 74.404 69.8825 73.48 68.3425 73.48C66.3185 73.48 65.0425 75.042 65.0425 77.726V82.5H63.3485V67.1H65.0425V74.712C65.5485 73.084 66.6485 71.94 68.8265 71.94ZM77.0977 69.608C76.3057 69.608 75.8437 69.146 75.8217 68.354C75.7997 67.584 76.2617 67.166 77.0977 67.166C77.8677 67.166 78.3077 67.584 78.3297 68.354C78.3517 69.146 77.9117 69.608 77.0977 69.608ZM76.2177 82.5V72.16H77.9117V82.5H76.2177ZM86.0972 81.202C87.9232 81.202 88.9132 80.498 89.3532 78.232L91.0692 78.694C90.4312 81.4 88.5832 82.72 86.1192 82.72C82.9512 82.72 80.7732 80.564 80.7732 77.33C80.7732 74.096 82.9512 71.94 86.1192 71.94C88.5832 71.94 90.4312 73.26 91.0692 75.966L89.3532 76.428C88.9132 74.162 87.9232 73.458 86.0972 73.458C83.6552 73.458 82.5112 74.69 82.5112 77.33C82.5112 79.97 83.6552 81.202 86.0972 81.202ZM99.3988 71.94C101.819 71.94 103.161 73.392 103.161 75.988V82.5H101.467V76.098C101.467 74.404 100.455 73.48 98.9148 73.48C96.8908 73.48 95.6148 75.042 95.6148 77.726V82.5H93.9208V67.1H95.6148V74.712C96.1208 73.084 97.2208 71.94 99.3988 71.94ZM120.491 72.16H122.185V82.5H120.491V80.388C119.721 81.862 118.357 82.72 116.575 82.72C113.605 82.72 111.625 80.564 111.625 77.33C111.625 74.096 113.605 71.94 116.575 71.94C118.357 71.94 119.721 72.798 120.491 74.272V72.16ZM116.971 81.18C119.435 81.18 120.579 79.948 120.579 77.33C120.579 74.712 119.435 73.48 116.971 73.48C114.507 73.48 113.363 74.712 113.363 77.33C113.363 79.948 114.507 81.18 116.971 81.18ZM125.933 82.5V67.1H127.627V82.5H125.933ZM131.368 82.5V67.1H133.062V82.5H131.368ZM141.27 71.94C144.24 71.94 146.616 74.096 146.616 77.33C146.616 80.564 144.24 82.72 141.27 82.72C138.3 82.72 135.924 80.564 135.924 77.33C135.924 74.096 138.3 71.94 141.27 71.94ZM141.27 81.18C143.712 81.18 144.878 79.948 144.878 77.33C144.878 74.712 143.712 73.48 141.27 73.48C138.828 73.48 137.662 74.712 137.662 77.33C137.662 79.948 138.828 81.18 141.27 81.18ZM161.37 72.16H163.284L160.358 82.5H158.312L156.002 75.944L155.43 74.052L154.836 75.988L152.526 82.5H150.502L147.554 72.16H149.468L151.118 78.826L151.624 81.202L152.328 78.804L154.506 72.16H156.31L158.488 78.782L159.214 81.29L159.742 78.804L161.37 72.16ZM169.004 82.72C166.76 82.72 165.088 81.664 164.604 79.53L166.276 78.98C166.562 80.652 167.398 81.224 169.114 81.224C170.676 81.224 171.424 80.784 171.424 79.816C171.424 78.936 171.116 78.628 169.862 78.386L167.838 77.99C166.342 77.704 164.956 76.956 164.956 75.042C164.956 73.172 166.474 71.94 168.762 71.94C170.742 71.94 172.48 72.732 172.92 75.218L171.248 75.68C171.028 73.722 170.192 73.436 168.828 73.436C167.354 73.436 166.672 73.898 166.672 74.91C166.672 75.746 166.98 76.142 167.926 76.318L170.522 76.824C172.04 77.11 173.096 77.88 173.096 79.53C173.096 81.444 171.468 82.72 169.004 82.72ZM189.035 72.16H190.729V82.5H189.035V79.948C188.529 81.576 187.429 82.72 185.251 82.72C182.831 82.72 181.489 81.268 181.489 78.672V72.16H183.183V78.562C183.183 80.256 184.195 81.18 185.735 81.18C187.759 81.18 189.035 79.618 189.035 76.934V72.16ZM197.944 82.72C195.7 82.72 194.028 81.664 193.544 79.53L195.216 78.98C195.502 80.652 196.338 81.224 198.054 81.224C199.616 81.224 200.364 80.784 200.364 79.816C200.364 78.936 200.056 78.628 198.802 78.386L196.778 77.99C195.282 77.704 193.896 76.956 193.896 75.042C193.896 73.172 195.414 71.94 197.702 71.94C199.682 71.94 201.42 72.732 201.86 75.218L200.188 75.68C199.968 73.722 199.132 73.436 197.768 73.436C196.294 73.436 195.612 73.898 195.612 74.91C195.612 75.746 195.92 76.142 196.866 76.318L199.462 76.824C200.98 77.11 202.036 77.88 202.036 79.53C202.036 81.444 200.408 82.72 197.944 82.72ZM216.324 73.7H213.024V80.96H215.95V82.5H213.86C212.342 82.5 211.33 81.488 211.33 79.97V73.7H208.998V72.16H211.33V68.904H213.024V72.16H216.324V73.7ZM222.91 71.94C225.88 71.94 228.256 74.096 228.256 77.33C228.256 80.564 225.88 82.72 222.91 82.72C219.94 82.72 217.564 80.564 217.564 77.33C217.564 74.096 219.94 71.94 222.91 71.94ZM222.91 81.18C225.352 81.18 226.518 79.948 226.518 77.33C226.518 74.712 225.352 73.48 222.91 73.48C220.468 73.48 219.302 74.712 219.302 77.33C219.302 79.948 220.468 81.18 222.91 81.18ZM241.279 81.202C243.105 81.202 244.095 80.498 244.535 78.232L246.251 78.694C245.613 81.4 243.765 82.72 241.301 82.72C238.133 82.72 235.955 80.564 235.955 77.33C235.955 74.096 238.133 71.94 241.301 71.94C243.765 71.94 245.613 73.26 246.251 75.966L244.535 76.428C244.095 74.162 243.105 73.458 241.279 73.458C238.837 73.458 237.693 74.69 237.693 77.33C237.693 79.97 238.837 81.202 241.279 81.202ZM253.568 71.94C256.538 71.94 258.914 74.096 258.914 77.33C258.914 80.564 256.538 82.72 253.568 82.72C250.598 82.72 248.222 80.564 248.222 77.33C248.222 74.096 250.598 71.94 253.568 71.94ZM253.568 81.18C256.01 81.18 257.176 79.948 257.176 77.33C257.176 74.712 256.01 73.48 253.568 73.48C251.126 73.48 249.96 74.712 249.96 77.33C249.96 79.948 251.126 81.18 253.568 81.18ZM274.692 71.94C277.178 71.94 278.564 73.48 278.564 76.142V82.5H276.87V76.252C276.87 74.404 275.858 73.48 274.34 73.48C272.008 73.48 271.018 75.306 271.018 78.32V82.5H269.324V76.098C269.324 74.404 268.312 73.48 266.772 73.48C264.748 73.48 263.472 75.042 263.472 77.726V82.5H261.778V72.16H263.472V74.712C263.978 73.084 265.078 71.94 267.256 71.94C269.302 71.94 270.578 72.974 270.93 74.866C271.502 72.996 272.734 71.94 274.692 71.94ZM295.102 71.94C297.588 71.94 298.974 73.48 298.974 76.142V82.5H297.28V76.252C297.28 74.404 296.268 73.48 294.75 73.48C292.418 73.48 291.428 75.306 291.428 78.32V82.5H289.734V76.098C289.734 74.404 288.722 73.48 287.182 73.48C285.158 73.48 283.882 75.042 283.882 77.726V82.5H282.188V72.16H283.882V74.712C284.388 73.084 285.488 71.94 287.666 71.94C289.712 71.94 290.988 72.974 291.34 74.866C291.912 72.996 293.144 71.94 295.102 71.94ZM310.035 72.16H311.729V82.5H310.035V79.948C309.529 81.576 308.429 82.72 306.251 82.72C303.831 82.72 302.489 81.268 302.489 78.672V72.16H304.183V78.562C304.183 80.256 305.195 81.18 306.735 81.18C308.759 81.18 310.035 79.618 310.035 76.934V72.16ZM320.946 71.94C323.366 71.94 324.708 73.392 324.708 75.988V82.5H323.014V76.098C323.014 74.404 322.002 73.48 320.462 73.48C318.438 73.48 317.162 75.042 317.162 77.726V82.5H315.468V72.16H317.162V74.712C317.668 73.084 318.768 71.94 320.946 71.94ZM329.217 69.608C328.425 69.608 327.963 69.146 327.941 68.354C327.919 67.584 328.381 67.166 329.217 67.166C329.987 67.166 330.427 67.584 330.449 68.354C330.471 69.146 330.031 69.608 329.217 69.608ZM328.337 82.5V72.16H330.031V82.5H328.337ZM338.216 81.202C340.042 81.202 341.032 80.498 341.472 78.232L343.188 78.694C342.55 81.4 340.702 82.72 338.238 82.72C335.07 82.72 332.892 80.564 332.892 77.33C332.892 74.096 335.07 71.94 338.238 71.94C340.702 71.94 342.55 73.26 343.188 75.966L341.472 76.428C341.032 74.162 340.042 73.458 338.216 73.458C335.774 73.458 334.63 74.69 334.63 77.33C334.63 79.97 335.774 81.202 338.216 81.202ZM354.026 72.16H355.72V82.5H354.026V80.388C353.256 81.862 351.892 82.72 350.11 82.72C347.14 82.72 345.16 80.564 345.16 77.33C345.16 74.096 347.14 71.94 350.11 71.94C351.892 71.94 353.256 72.798 354.026 74.272V72.16ZM350.506 81.18C352.97 81.18 354.114 79.948 354.114 77.33C354.114 74.712 352.97 73.48 350.506 73.48C348.042 73.48 346.898 74.712 346.898 77.33C346.898 79.948 348.042 81.18 350.506 81.18ZM365.254 73.7H361.954V80.96H364.88V82.5H362.79C361.272 82.5 360.26 81.488 360.26 79.97V73.7H357.928V72.16H360.26V68.904H361.954V72.16H365.254V73.7ZM376.284 77.044C376.284 77.352 376.284 77.484 376.262 77.858H368.232C368.342 80.3 369.332 81.268 371.598 81.268C373.292 81.268 373.974 80.85 374.458 79.486L376.042 80.102C375.316 81.928 373.534 82.72 371.598 82.72C368.496 82.72 366.494 80.608 366.494 77.33C366.494 74.118 368.628 71.94 371.51 71.94C374.304 71.94 376.284 73.876 376.284 77.044ZM371.488 73.37C369.508 73.37 368.452 74.36 368.254 76.472H374.59C374.458 74.25 373.578 73.37 371.488 73.37ZM393.772 77.044C393.772 77.352 393.772 77.484 393.75 77.858H385.72C385.83 80.3 386.82 81.268 389.086 81.268C390.78 81.268 391.462 80.85 391.946 79.486L393.53 80.102C392.804 81.928 391.022 82.72 389.086 82.72C385.984 82.72 383.982 80.608 383.982 77.33C383.982 74.118 386.116 71.94 388.998 71.94C391.792 71.94 393.772 73.876 393.772 77.044ZM388.976 73.37C386.996 73.37 385.94 74.36 385.742 76.472H392.078C391.946 74.25 391.066 73.37 388.976 73.37ZM403.593 72.16H405.507L401.327 82.5H399.061L394.881 72.16H396.795L400.205 81.4L403.593 72.16ZM416.395 77.044C416.395 77.352 416.395 77.484 416.373 77.858H408.343C408.453 80.3 409.443 81.268 411.709 81.268C413.403 81.268 414.085 80.85 414.569 79.486L416.153 80.102C415.427 81.928 413.645 82.72 411.709 82.72C408.607 82.72 406.605 80.608 406.605 77.33C406.605 74.118 408.739 71.94 411.621 71.94C414.415 71.94 416.395 73.876 416.395 77.044ZM411.599 73.37C409.619 73.37 408.563 74.36 408.365 76.472H414.701C414.569 74.25 413.689 73.37 411.599 73.37ZM424.737 71.94C427.157 71.94 428.499 73.392 428.499 75.988V82.5H426.805V76.098C426.805 74.404 425.793 73.48 424.253 73.48C422.229 73.48 420.953 75.042 420.953 77.726V82.5H419.259V72.16H420.953V74.712C421.459 73.084 422.559 71.94 424.737 71.94ZM438.723 69.608C437.931 69.608 437.469 69.146 437.447 68.354C437.425 67.584 437.887 67.166 438.723 67.166C439.493 67.166 439.933 67.584 439.955 68.354C439.977 69.146 439.537 69.608 438.723 69.608ZM437.843 82.5V72.16H439.537V82.5H437.843ZM449.108 72.16V73.7H445.764V82.5H444.07V73.7H441.848V72.16H444.07V69.63C444.07 68.112 445.082 67.1 446.6 67.1H448.91V68.64H445.764V72.16H449.108ZM469.133 72.16H471.047L468.121 82.5H466.075L463.765 75.944L463.193 74.052L462.599 75.988L460.289 82.5H458.265L455.317 72.16H457.231L458.881 78.826L459.387 81.202L460.091 78.804L462.269 72.16H464.073L466.251 78.782L466.977 81.29L467.505 78.804L469.133 72.16ZM481.987 77.044C481.987 77.352 481.987 77.484 481.965 77.858H473.935C474.045 80.3 475.035 81.268 477.301 81.268C478.995 81.268 479.677 80.85 480.161 79.486L481.745 80.102C481.019 81.928 479.237 82.72 477.301 82.72C474.199 82.72 472.197 80.608 472.197 77.33C472.197 74.118 474.331 71.94 477.213 71.94C480.007 71.94 481.987 73.876 481.987 77.044ZM477.191 73.37C475.211 73.37 474.155 74.36 473.957 76.472H480.293C480.161 74.25 479.281 73.37 477.191 73.37ZM498.551 72.16H500.245V82.5H498.551V80.388C497.781 81.862 496.417 82.72 494.635 82.72C491.665 82.72 489.685 80.564 489.685 77.33C489.685 74.096 491.665 71.94 494.635 71.94C496.417 71.94 497.781 72.798 498.551 74.272V72.16ZM495.031 81.18C497.495 81.18 498.639 79.948 498.639 77.33C498.639 74.712 497.495 73.48 495.031 73.48C492.567 73.48 491.423 74.712 491.423 77.33C491.423 79.948 492.567 81.18 495.031 81.18ZM509.075 71.962C509.581 71.962 509.999 71.984 510.285 72.116V73.832C510.087 73.722 509.735 73.568 508.855 73.568C506.633 73.568 505.687 75.57 505.687 77.792V82.5H503.993V72.16H505.687V75.108C506.061 73.392 506.985 71.962 509.075 71.962ZM521.046 77.044C521.046 77.352 521.046 77.484 521.024 77.858H512.994C513.104 80.3 514.094 81.268 516.36 81.268C518.054 81.268 518.736 80.85 519.22 79.486L520.804 80.102C520.078 81.928 518.296 82.72 516.36 82.72C513.258 82.72 511.256 80.608 511.256 77.33C511.256 74.118 513.39 71.94 516.272 71.94C519.066 71.94 521.046 73.876 521.046 77.044ZM516.25 73.37C514.27 73.37 513.214 74.36 513.016 76.472H519.352C519.22 74.25 518.34 73.37 516.25 73.37ZM537.61 72.16H539.304V82.5H537.61V80.388C536.84 81.862 535.476 82.72 533.694 82.72C530.724 82.72 528.744 80.564 528.744 77.33C528.744 74.096 530.724 71.94 533.694 71.94C535.476 71.94 536.84 72.798 537.61 74.272V72.16ZM534.09 81.18C536.554 81.18 537.698 79.948 537.698 77.33C537.698 74.712 536.554 73.48 534.09 73.48C531.626 73.48 530.482 74.712 530.482 77.33C530.482 79.948 531.626 81.18 534.09 81.18ZM548.662 71.94C551.632 71.94 553.612 74.096 553.612 77.33C553.612 80.564 551.632 82.72 548.662 82.72C546.88 82.72 545.516 81.862 544.746 80.388V86.24H543.052V72.16H544.746V74.272C545.516 72.798 546.88 71.94 548.662 71.94ZM548.266 81.18C550.73 81.18 551.874 79.948 551.874 77.33C551.874 74.712 550.73 73.48 548.266 73.48C545.802 73.48 544.658 74.712 544.658 77.33C544.658 79.948 545.802 81.18 548.266 81.18ZM564.465 72.16H566.159V82.5H564.465V80.388C563.695 81.862 562.331 82.72 560.549 82.72C557.579 82.72 555.599 80.564 555.599 77.33C555.599 74.096 557.579 71.94 560.549 71.94C562.331 71.94 563.695 72.798 564.465 74.272V72.16ZM560.945 81.18C563.409 81.18 564.553 79.948 564.553 77.33C564.553 74.712 563.409 73.48 560.945 73.48C558.481 73.48 557.337 74.712 557.337 77.33C557.337 79.948 558.481 81.18 560.945 81.18ZM574.989 71.962C575.495 71.962 575.913 71.984 576.199 72.116V73.832C576.001 73.722 575.649 73.568 574.769 73.568C572.547 73.568 571.601 75.57 571.601 77.792V82.5H569.907V72.16H571.601V75.108C571.975 73.392 572.899 71.962 574.989 71.962ZM584.265 73.7H580.965V80.96H583.891V82.5H581.801C580.283 82.5 579.271 81.488 579.271 79.97V73.7H576.939V72.16H579.271V68.904H580.965V72.16H584.265V73.7ZM587.414 80.014C588.228 80.014 588.69 80.476 588.712 81.268C588.712 81.532 588.69 81.884 588.382 82.434L586.49 85.778H584.598L587.392 82.588C586.622 82.566 586.094 81.994 586.072 81.268C586.05 80.476 586.534 80.014 587.414 80.014ZM605.629 72.16H607.323V82.5H605.629V80.388C604.859 81.862 603.495 82.72 601.713 82.72C598.743 82.72 596.763 80.564 596.763 77.33C596.763 74.096 598.743 71.94 601.713 71.94C603.495 71.94 604.859 72.798 605.629 74.272V72.16ZM602.109 81.18C604.573 81.18 605.717 79.948 605.717 77.33C605.717 74.712 604.573 73.48 602.109 73.48C599.645 73.48 598.501 74.712 598.501 77.33C598.501 79.948 599.645 81.18 602.109 81.18ZM614.547 82.72C612.303 82.72 610.631 81.664 610.147 79.53L611.819 78.98C612.105 80.652 612.941 81.224 614.657 81.224C616.219 81.224 616.967 80.784 616.967 79.816C616.967 78.936 616.659 78.628 615.405 78.386L613.381 77.99C611.885 77.704 610.499 76.956 610.499 75.042C610.499 73.172 612.017 71.94 614.305 71.94C616.285 71.94 618.023 72.732 618.463 75.218L616.791 75.68C616.571 73.722 615.735 73.436 614.371 73.436C612.897 73.436 612.215 73.898 612.215 74.91C612.215 75.746 612.523 76.142 613.469 76.318L616.065 76.824C617.583 77.11 618.639 77.88 618.639 79.53C618.639 81.444 617.011 82.72 614.547 82.72ZM631.607 71.94C634.577 71.94 636.953 74.096 636.953 77.33C636.953 80.564 634.577 82.72 631.607 82.72C628.637 82.72 626.261 80.564 626.261 77.33C626.261 74.096 628.637 71.94 631.607 71.94ZM631.607 81.18C634.049 81.18 635.215 79.948 635.215 77.33C635.215 74.712 634.049 73.48 631.607 73.48C629.165 73.48 627.999 74.712 627.999 77.33C627.999 79.948 629.165 81.18 631.607 81.18ZM645.295 71.94C647.715 71.94 649.057 73.392 649.057 75.988V82.5H647.363V76.098C647.363 74.404 646.351 73.48 644.811 73.48C642.787 73.48 641.511 75.042 641.511 77.726V82.5H639.817V72.16H641.511V74.712C642.017 73.084 643.117 71.94 645.295 71.94ZM661.596 77.044C661.596 77.352 661.596 77.484 661.574 77.858H653.544C653.654 80.3 654.644 81.268 656.91 81.268C658.604 81.268 659.286 80.85 659.77 79.486L661.354 80.102C660.628 81.928 658.846 82.72 656.91 82.72C653.808 82.72 651.806 80.608 651.806 77.33C651.806 74.118 653.94 71.94 656.822 71.94C659.616 71.94 661.596 73.876 661.596 77.044ZM656.8 73.37C654.82 73.37 653.764 74.36 653.566 76.472H659.902C659.77 74.25 658.89 73.37 656.8 73.37ZM664.608 82.588C663.794 82.588 663.332 82.126 663.31 81.312C663.288 80.476 663.75 80.014 664.608 80.014C665.422 80.014 665.884 80.476 665.906 81.312C665.928 82.126 665.466 82.588 664.608 82.588Z" fill="black"/>
<rect x="913.558" y="0.558426" width="118.883" height="118.883" stroke="black" stroke-width="1.11685"/>
<path d="M1002.44 30.5586V88.3301H943.559V30.5586H1002.44Z" stroke="black" stroke-width="1.11685"/>
<rect x="832" y="60.6311" width="48" height="48" rx="6" transform="rotate(-45 832 60.6311)" fill="#E1E1E1"/>
</svg>
