<svg width="1032" height="120" viewBox="0 0 1032 120" fill="none" xmlns="http://www.w3.org/2000/svg">
<rect y="6.5" width="873" height="107" rx="20" fill="#E1E1E1"/>
<path d="M64.668 39.1H66.538L62.732 54.5H60.444L56.704 43.038L56 40.574L55.274 43.06L51.556 54.5H49.246L45.44 39.1H47.354L49.884 49.902L50.456 52.74L51.27 49.88L54.724 39.1H57.232L60.708 49.902L61.544 52.85L62.138 49.902L64.668 39.1ZM77.0925 49.044C77.0925 49.352 77.0925 49.484 77.0705 49.858H69.0405C69.1505 52.3 70.1405 53.268 72.4065 53.268C74.1005 53.268 74.7825 52.85 75.2665 51.486L76.8505 52.102C76.1245 53.928 74.3425 54.72 72.4065 54.72C69.3045 54.72 67.3025 52.608 67.3025 49.33C67.3025 46.118 69.4365 43.94 72.3185 43.94C75.1125 43.94 77.0925 45.876 77.0925 49.044ZM72.2965 45.37C70.3165 45.37 69.2605 46.36 69.0625 48.472H75.3985C75.2665 46.25 74.3865 45.37 72.2965 45.37ZM91.5008 44.16V45.7H88.1568V54.5H86.4628V45.7H84.2408V44.16H86.4628V41.63C86.4628 40.112 87.4748 39.1 88.9928 39.1H91.3028V40.64H88.1568V44.16H91.5008ZM102.401 49.044C102.401 49.352 102.401 49.484 102.379 49.858H94.3491C94.4591 52.3 95.4491 53.268 97.7151 53.268C99.4091 53.268 100.091 52.85 100.575 51.486L102.159 52.102C101.433 53.928 99.6511 54.72 97.7151 54.72C94.6131 54.72 92.6111 52.608 92.6111 49.33C92.6111 46.118 94.7451 43.94 97.6271 43.94C100.421 43.94 102.401 45.876 102.401 49.044ZM97.6051 45.37C95.6251 45.37 94.5691 46.36 94.3711 48.472H100.707C100.575 46.25 99.6951 45.37 97.6051 45.37ZM114.175 49.044C114.175 49.352 114.175 49.484 114.153 49.858H106.123C106.233 52.3 107.223 53.268 109.489 53.268C111.183 53.268 111.865 52.85 112.349 51.486L113.933 52.102C113.207 53.928 111.425 54.72 109.489 54.72C106.387 54.72 104.385 52.608 104.385 49.33C104.385 46.118 106.519 43.94 109.401 43.94C112.195 43.94 114.175 45.876 114.175 49.044ZM109.379 45.37C107.399 45.37 106.343 46.36 106.145 48.472H112.481C112.349 46.25 111.469 45.37 109.379 45.37ZM117.038 54.5V39.1H118.732V54.5H117.038ZM133.974 45.7H130.674V52.96H133.6V54.5H131.51C129.992 54.5 128.98 53.488 128.98 51.97V45.7H126.648V44.16H128.98V40.904H130.674V44.16H133.974V45.7ZM141.787 43.94C144.207 43.94 145.549 45.392 145.549 47.988V54.5H143.855V48.098C143.855 46.404 142.843 45.48 141.303 45.48C139.279 45.48 138.003 47.042 138.003 49.726V54.5H136.309V39.1H138.003V46.712C138.509 45.084 139.609 43.94 141.787 43.94ZM158.089 49.044C158.089 49.352 158.089 49.484 158.067 49.858H150.037C150.147 52.3 151.137 53.268 153.403 53.268C155.097 53.268 155.779 52.85 156.263 51.486L157.847 52.102C157.121 53.928 155.339 54.72 153.403 54.72C150.301 54.72 148.299 52.608 148.299 49.33C148.299 46.118 150.433 43.94 153.315 43.94C156.109 43.94 158.089 45.876 158.089 49.044ZM153.293 45.37C151.313 45.37 150.257 46.36 150.059 48.472H156.395C156.263 46.25 155.383 45.37 153.293 45.37ZM170.077 54.72C167.041 54.72 165.369 53.092 165.171 51.53L168.273 50.716C168.405 51.992 169.087 52.278 170.297 52.278C171.133 52.278 171.771 51.926 171.771 51.332C171.771 50.76 171.463 50.43 170.187 50.254L168.493 50.012C166.381 49.704 165.347 48.472 165.347 46.646C165.347 44.49 166.997 43.28 169.901 43.28C173.289 43.28 174.411 44.688 174.719 46.316L171.859 46.976C171.749 45.92 171.375 45.568 170.011 45.568C169.153 45.568 168.691 45.92 168.691 46.514C168.691 46.998 168.977 47.35 170.099 47.482L172.079 47.724C173.993 47.966 175.115 49.198 175.115 51.002C175.115 53.378 173.311 54.72 170.077 54.72ZM182.202 51.684C183.61 51.684 184.248 51.156 184.556 49.572L187.812 50.32C187.02 53.576 184.732 54.72 182.202 54.72C178.726 54.72 176.372 52.432 176.372 49.022C176.372 45.568 178.726 43.28 182.202 43.28C184.908 43.28 187.086 44.6 187.812 47.68L184.556 48.428C184.27 46.844 183.632 46.316 182.202 46.316C180.508 46.316 179.716 47.174 179.716 49.022C179.716 50.826 180.508 51.684 182.202 51.684ZM195.204 43.28C198.46 43.28 201.188 45.458 201.188 49.022C201.188 52.564 198.46 54.72 195.204 54.72C191.948 54.72 189.22 52.564 189.22 49.022C189.22 45.458 191.948 43.28 195.204 43.28ZM195.204 51.684C197.008 51.684 197.844 50.826 197.844 49.022C197.844 47.174 197.008 46.316 195.204 46.316C193.4 46.316 192.564 47.174 192.564 49.022C192.564 50.826 193.4 51.684 195.204 51.684ZM209.71 43.324C210.062 43.324 210.612 43.324 211.052 43.5V46.602C210.546 46.426 210.216 46.382 209.6 46.382C208.06 46.382 206.674 47.174 206.674 50.166V54.5H203.33V43.5H206.674V46.624C206.916 45.018 207.642 43.324 209.71 43.324ZM217.802 51.684C219.21 51.684 219.848 51.156 220.156 49.572L223.412 50.32C222.62 53.576 220.332 54.72 217.802 54.72C214.326 54.72 211.972 52.432 211.972 49.022C211.972 45.568 214.326 43.28 217.802 43.28C220.508 43.28 222.686 44.6 223.412 47.68L220.156 48.428C219.87 46.844 219.232 46.316 217.802 46.316C216.108 46.316 215.316 47.174 215.316 49.022C215.316 50.826 216.108 51.684 217.802 51.684ZM232.365 43.28C234.983 43.28 236.237 44.842 236.237 48.076V54.5H232.893V48.274C232.893 46.932 232.277 46.316 231.045 46.316C229.725 46.316 228.889 47.174 228.889 49.154V54.5H225.545V39.1H228.889V45.986C229.417 44.182 230.561 43.28 232.365 43.28ZM240.644 42.07C239.302 42.07 238.554 41.344 238.554 40.024C238.554 38.748 239.302 38.044 240.644 38.044C242.008 38.044 242.778 38.748 242.778 40.024C242.778 41.344 242.008 42.07 240.644 42.07ZM238.994 54.5V43.5H242.338V54.5H238.994ZM252.023 43.28C254.641 43.28 255.895 44.842 255.895 48.076V54.5H252.551V48.274C252.551 46.932 251.935 46.316 250.703 46.316C249.383 46.316 248.547 47.174 248.547 49.154V54.5H245.203V43.5H248.547V45.986C249.075 44.182 250.219 43.28 252.023 43.28ZM266.023 43.5H269.345V52.762C269.345 56.37 267.167 58.46 263.449 58.46C260.655 58.46 258.455 57.426 257.971 55.556L261.183 54.28C261.491 55.556 262.393 55.82 263.647 55.82C265.165 55.82 266.023 55.16 266.023 53.532V51.464C265.341 52.96 264.065 53.774 262.349 53.774C259.577 53.774 257.927 51.662 257.927 48.494C257.927 45.37 259.511 43.302 262.239 43.302C264.021 43.302 265.341 44.182 266.023 45.722V43.5ZM263.669 50.87C265.319 50.87 266.111 50.122 266.111 48.538C266.111 46.954 265.319 46.206 263.669 46.206C262.063 46.206 261.293 46.954 261.293 48.538C261.293 50.122 262.063 50.87 263.669 50.87ZM284.1 43.28C286.718 43.28 287.972 44.842 287.972 48.076V54.5H284.628V48.274C284.628 46.932 284.012 46.316 282.78 46.316C281.46 46.316 280.624 47.174 280.624 49.154V54.5H277.28V39.1H280.624V45.986C281.152 44.182 282.296 43.28 284.1 43.28ZM300.981 48.912C300.981 49.286 300.981 49.572 300.959 50.056H293.479C293.677 51.552 294.381 52.168 295.789 52.168C296.845 52.168 297.351 51.838 297.879 50.782L300.739 51.794C299.991 53.686 298.341 54.72 295.701 54.72C292.291 54.72 290.003 52.476 290.003 49.088C290.003 45.612 292.247 43.28 295.591 43.28C298.825 43.28 300.981 45.524 300.981 48.912ZM295.657 45.722C294.315 45.722 293.655 46.338 293.479 47.878H297.681C297.659 46.272 296.999 45.722 295.657 45.722ZM310.913 43.5H314.257V54.5H310.913V52.036C310.297 53.774 309.043 54.72 307.283 54.72C304.137 54.72 302.399 52.432 302.399 49.022C302.399 45.568 304.049 43.28 307.063 43.28C308.933 43.28 310.275 44.248 310.913 46.052V43.5ZM308.339 51.684C310.165 51.684 311.023 50.826 311.023 49.022C311.023 47.174 310.165 46.316 308.339 46.316C306.579 46.316 305.743 47.174 305.743 49.022C305.743 50.826 306.579 51.684 308.339 51.684ZM324.438 46.426H321.402V51.574H324.218V54.5H321.798C319.554 54.5 318.058 53.004 318.058 50.76V46.426H316.1V43.5H318.058V40.31H321.402V43.5H324.438V46.426ZM328.193 50.518C329.579 50.518 330.349 51.244 330.349 52.542C330.349 52.938 330.305 53.444 329.777 54.39L328.061 57.448H325.311L327.973 54.654C326.807 54.632 326.081 53.84 326.081 52.542C326.081 51.244 326.851 50.518 328.193 50.518ZM347.796 49.044C347.796 49.352 347.796 49.484 347.774 49.858H339.744C339.854 52.3 340.844 53.268 343.11 53.268C344.804 53.268 345.486 52.85 345.97 51.486L347.554 52.102C346.828 53.928 345.046 54.72 343.11 54.72C340.008 54.72 338.006 52.608 338.006 49.33C338.006 46.118 340.14 43.94 343.022 43.94C345.816 43.94 347.796 45.876 347.796 49.044ZM343 45.37C341.02 45.37 339.964 46.36 339.766 48.472H346.102C345.97 46.25 345.09 45.37 343 45.37ZM357.616 44.16H359.53L355.35 54.5H353.084L348.904 44.16H350.818L354.228 53.4L357.616 44.16ZM370.419 49.044C370.419 49.352 370.419 49.484 370.397 49.858H362.367C362.477 52.3 363.467 53.268 365.733 53.268C367.427 53.268 368.109 52.85 368.593 51.486L370.177 52.102C369.451 53.928 367.669 54.72 365.733 54.72C362.631 54.72 360.629 52.608 360.629 49.33C360.629 46.118 362.763 43.94 365.645 43.94C368.439 43.94 370.419 45.876 370.419 49.044ZM365.623 45.37C363.643 45.37 362.587 46.36 362.389 48.472H368.725C368.593 46.25 367.713 45.37 365.623 45.37ZM378.364 43.962C378.87 43.962 379.288 43.984 379.574 44.116V45.832C379.376 45.722 379.024 45.568 378.144 45.568C375.922 45.568 374.976 47.57 374.976 49.792V54.5H373.282V44.16H374.976V47.108C375.35 45.392 376.274 43.962 378.364 43.962ZM389.026 44.16H390.94L386.012 56.304C385.396 57.778 384.736 58.24 383.196 58.24H380.886V56.7H384.56L384.912 55.666L380.314 44.16H382.228L384.78 51.09L385.638 53.576L386.518 51.068L389.026 44.16ZM406.169 39.1H407.863V54.5H406.169V52.388C405.399 53.862 404.035 54.72 402.253 54.72C399.283 54.72 397.303 52.564 397.303 49.33C397.303 46.096 399.283 43.94 402.253 43.94C404.035 43.94 405.399 44.798 406.169 46.272V39.1ZM402.649 53.18C405.113 53.18 406.257 51.948 406.257 49.33C406.257 46.712 405.113 45.48 402.649 45.48C400.185 45.48 399.041 46.712 399.041 49.33C399.041 51.948 400.185 53.18 402.649 53.18ZM419.596 44.16H421.29V54.5H419.596V52.388C418.826 53.862 417.462 54.72 415.68 54.72C412.71 54.72 410.73 52.564 410.73 49.33C410.73 46.096 412.71 43.94 415.68 43.94C417.462 43.94 418.826 44.798 419.596 46.272V44.16ZM416.076 53.18C418.54 53.18 419.684 51.948 419.684 49.33C419.684 46.712 418.54 45.48 416.076 45.48C413.612 45.48 412.468 46.712 412.468 49.33C412.468 51.948 413.612 53.18 416.076 53.18ZM432.21 44.16H434.124L429.196 56.304C428.58 57.778 427.92 58.24 426.38 58.24H424.07V56.7H427.744L428.096 55.666L423.498 44.16H425.412L427.964 51.09L428.822 53.576L429.702 51.068L432.21 44.16ZM442.246 41.608C441.454 41.608 440.992 41.146 440.97 40.354C440.948 39.584 441.41 39.166 442.246 39.166C443.016 39.166 443.456 39.584 443.478 40.354C443.5 41.146 443.06 41.608 442.246 41.608ZM441.366 54.5V44.16H443.06V54.5H441.366ZM452.588 45.7H449.288V52.96H452.214V54.5H450.124C448.606 54.5 447.594 53.488 447.594 51.97V45.7H445.262V44.16H447.594V40.904H449.288V44.16H452.588V45.7ZM468.25 44.16H469.944V54.016C469.944 56.678 468.03 58.46 464.906 58.46C462.266 58.46 460.616 57.514 459.89 55.534L461.518 54.764C462.112 56.524 462.794 56.964 464.906 56.964C467.282 56.964 468.25 56.018 468.25 54.016V51.882C467.546 53.246 466.248 54.082 464.532 54.082C461.76 54.082 459.758 51.992 459.758 49.022C459.758 46.03 461.76 43.94 464.532 43.94C466.248 43.94 467.546 44.776 468.25 46.14V44.16ZM464.906 52.52C467.26 52.52 468.382 51.398 468.382 49.022C468.382 46.624 467.282 45.48 464.95 45.48C462.596 45.48 461.496 46.624 461.496 49.022C461.496 51.398 462.596 52.52 464.906 52.52ZM482.589 49.044C482.589 49.352 482.589 49.484 482.567 49.858H474.537C474.647 52.3 475.637 53.268 477.903 53.268C479.597 53.268 480.279 52.85 480.763 51.486L482.347 52.102C481.621 53.928 479.839 54.72 477.903 54.72C474.801 54.72 472.799 52.608 472.799 49.33C472.799 46.118 474.933 43.94 477.815 43.94C480.609 43.94 482.589 45.876 482.589 49.044ZM477.793 45.37C475.813 45.37 474.757 46.36 474.559 48.472H480.895C480.763 46.25 479.883 45.37 477.793 45.37ZM491.238 45.7H487.938V52.96H490.864V54.5H488.774C487.256 54.5 486.244 53.488 486.244 51.97V45.7H483.912V44.16H486.244V40.904H487.938V44.16H491.238V45.7ZM497.049 54.72C494.805 54.72 493.133 53.664 492.649 51.53L494.321 50.98C494.607 52.652 495.443 53.224 497.159 53.224C498.721 53.224 499.469 52.784 499.469 51.816C499.469 50.936 499.161 50.628 497.907 50.386L495.883 49.99C494.387 49.704 493.001 48.956 493.001 47.042C493.001 45.172 494.519 43.94 496.807 43.94C498.787 43.94 500.525 44.732 500.965 47.218L499.293 47.68C499.073 45.722 498.237 45.436 496.873 45.436C495.399 45.436 494.717 45.898 494.717 46.91C494.717 47.746 495.025 48.142 495.971 48.318L498.567 48.824C500.085 49.11 501.141 49.88 501.141 51.53C501.141 53.444 499.513 54.72 497.049 54.72ZM515.121 43.94C517.541 43.94 518.883 45.392 518.883 47.988V54.5H517.189V48.098C517.189 46.404 516.177 45.48 514.637 45.48C512.613 45.48 511.337 47.042 511.337 49.726V54.5H509.643V39.1H511.337V46.712C511.843 45.084 512.943 43.94 515.121 43.94ZM530.499 44.16H532.193V54.5H530.499V52.388C529.729 53.862 528.365 54.72 526.583 54.72C523.613 54.72 521.633 52.564 521.633 49.33C521.633 46.096 523.613 43.94 526.583 43.94C528.365 43.94 529.729 44.798 530.499 46.272V44.16ZM526.979 53.18C529.443 53.18 530.587 51.948 530.587 49.33C530.587 46.712 529.443 45.48 526.979 45.48C524.515 45.48 523.371 46.712 523.371 49.33C523.371 51.948 524.515 53.18 526.979 53.18ZM541.022 43.962C541.528 43.962 541.946 43.984 542.232 44.116V45.832C542.034 45.722 541.682 45.568 540.802 45.568C538.58 45.568 537.634 47.57 537.634 49.792V54.5H535.94V44.16H537.634V47.108C538.008 45.392 538.932 43.962 541.022 43.962ZM552.069 39.1H553.763V54.5H552.069V52.388C551.299 53.862 549.935 54.72 548.153 54.72C545.183 54.72 543.203 52.564 543.203 49.33C543.203 46.096 545.183 43.94 548.153 43.94C549.935 43.94 551.299 44.798 552.069 46.272V39.1ZM548.549 53.18C551.013 53.18 552.157 51.948 552.157 49.33C552.157 46.712 551.013 45.48 548.549 45.48C546.085 45.48 544.941 46.712 544.941 49.33C544.941 51.948 546.085 53.18 548.549 53.18ZM566.421 49.044C566.421 49.352 566.421 49.484 566.399 49.858H558.369C558.479 52.3 559.469 53.268 561.735 53.268C563.429 53.268 564.111 52.85 564.595 51.486L566.179 52.102C565.453 53.928 563.671 54.72 561.735 54.72C558.633 54.72 556.631 52.608 556.631 49.33C556.631 46.118 558.765 43.94 561.647 43.94C564.441 43.94 566.421 45.876 566.421 49.044ZM561.625 45.37C559.645 45.37 558.589 46.36 558.391 48.472H564.727C564.595 46.25 563.715 45.37 561.625 45.37ZM574.366 43.962C574.872 43.962 575.29 43.984 575.576 44.116V45.832C575.378 45.722 575.026 45.568 574.146 45.568C571.924 45.568 570.978 47.57 570.978 49.792V54.5H569.284V44.16H570.978V47.108C571.352 45.392 572.276 43.962 574.366 43.962ZM589.401 44.16V45.7H586.057V54.5H584.363V45.7H582.141V44.16H584.363V41.63C584.363 40.112 585.375 39.1 586.893 39.1H589.203V40.64H586.057V44.16H589.401ZM595.857 43.94C598.827 43.94 601.203 46.096 601.203 49.33C601.203 52.564 598.827 54.72 595.857 54.72C592.887 54.72 590.511 52.564 590.511 49.33C590.511 46.096 592.887 43.94 595.857 43.94ZM595.857 53.18C598.299 53.18 599.465 51.948 599.465 49.33C599.465 46.712 598.299 45.48 595.857 45.48C593.415 45.48 592.249 46.712 592.249 49.33C592.249 51.948 593.415 53.18 595.857 53.18ZM609.149 43.962C609.655 43.962 610.073 43.984 610.359 44.116V45.832C610.161 45.722 609.809 45.568 608.929 45.568C606.707 45.568 605.761 47.57 605.761 49.792V54.5H604.067V44.16H605.761V47.108C606.135 45.392 607.059 43.962 609.149 43.962ZM625.79 44.16H627.484V54.5H625.79V51.948C625.284 53.576 624.184 54.72 622.006 54.72C619.586 54.72 618.244 53.268 618.244 50.672V44.16H619.938V50.562C619.938 52.256 620.95 53.18 622.49 53.18C624.514 53.18 625.79 51.618 625.79 48.934V44.16ZM634.7 54.72C632.456 54.72 630.784 53.664 630.3 51.53L631.972 50.98C632.258 52.652 633.094 53.224 634.81 53.224C636.372 53.224 637.12 52.784 637.12 51.816C637.12 50.936 636.812 50.628 635.558 50.386L633.534 49.99C632.038 49.704 630.652 48.956 630.652 47.042C630.652 45.172 632.17 43.94 634.458 43.94C636.438 43.94 638.176 44.732 638.616 47.218L636.944 47.68C636.724 45.722 635.888 45.436 634.524 45.436C633.05 45.436 632.368 45.898 632.368 46.91C632.368 47.746 632.676 48.142 633.622 48.318L636.218 48.824C637.736 49.11 638.792 49.88 638.792 51.53C638.792 53.444 637.164 54.72 634.7 54.72ZM653.08 45.7H649.78V52.96H652.706V54.5H650.616C649.098 54.5 648.086 53.488 648.086 51.97V45.7H645.754V44.16H648.086V40.904H649.78V44.16H653.08V45.7ZM659.666 43.94C662.636 43.94 665.012 46.096 665.012 49.33C665.012 52.564 662.636 54.72 659.666 54.72C656.696 54.72 654.32 52.564 654.32 49.33C654.32 46.096 656.696 43.94 659.666 43.94ZM659.666 53.18C662.108 53.18 663.274 51.948 663.274 49.33C663.274 46.712 662.108 45.48 659.666 45.48C657.224 45.48 656.058 46.712 656.058 49.33C656.058 51.948 657.224 53.18 659.666 53.18ZM686.505 43.94C688.991 43.94 690.377 45.48 690.377 48.142V54.5H688.683V48.252C688.683 46.404 687.671 45.48 686.153 45.48C683.821 45.48 682.831 47.306 682.831 50.32V54.5H681.137V48.098C681.137 46.404 680.125 45.48 678.585 45.48C676.561 45.48 675.285 47.042 675.285 49.726V54.5H673.591V44.16H675.285V46.712C675.791 45.084 676.891 43.94 679.069 43.94C681.115 43.94 682.391 44.974 682.743 46.866C683.315 44.996 684.547 43.94 686.505 43.94ZM698.467 43.94C701.437 43.94 703.813 46.096 703.813 49.33C703.813 52.564 701.437 54.72 698.467 54.72C695.497 54.72 693.121 52.564 693.121 49.33C693.121 46.096 695.497 43.94 698.467 43.94ZM698.467 53.18C700.909 53.18 702.075 51.948 702.075 49.33C702.075 46.712 700.909 45.48 698.467 45.48C696.025 45.48 694.859 46.712 694.859 49.33C694.859 51.948 696.025 53.18 698.467 53.18ZM713.634 44.16H715.548L711.368 54.5H709.102L704.922 44.16H706.836L710.246 53.4L713.634 44.16ZM726.436 49.044C726.436 49.352 726.436 49.484 726.414 49.858H718.384C718.494 52.3 719.484 53.268 721.75 53.268C723.444 53.268 724.126 52.85 724.61 51.486L726.194 52.102C725.468 53.928 723.686 54.72 721.75 54.72C718.648 54.72 716.646 52.608 716.646 49.33C716.646 46.118 718.78 43.94 721.662 43.94C724.456 43.94 726.436 45.876 726.436 49.044ZM721.64 45.37C719.66 45.37 718.604 46.36 718.406 48.472H724.742C724.61 46.25 723.73 45.37 721.64 45.37ZM743.001 44.16H744.695V54.5H743.001V52.388C742.231 53.862 740.867 54.72 739.085 54.72C736.115 54.72 734.135 52.564 734.135 49.33C734.135 46.096 736.115 43.94 739.085 43.94C740.867 43.94 742.231 44.798 743.001 46.272V44.16ZM739.481 53.18C741.945 53.18 743.089 51.948 743.089 49.33C743.089 46.712 741.945 45.48 739.481 45.48C737.017 45.48 735.873 46.712 735.873 49.33C735.873 51.948 737.017 53.18 739.481 53.18ZM753.524 43.962C754.03 43.962 754.448 43.984 754.734 44.116V45.832C754.536 45.722 754.184 45.568 753.304 45.568C751.082 45.568 750.136 47.57 750.136 49.792V54.5H748.442V44.16H750.136V47.108C750.51 45.392 751.434 43.962 753.524 43.962ZM761.051 43.94C764.021 43.94 766.397 46.096 766.397 49.33C766.397 52.564 764.021 54.72 761.051 54.72C758.081 54.72 755.705 52.564 755.705 49.33C755.705 46.096 758.081 43.94 761.051 43.94ZM761.051 53.18C763.493 53.18 764.659 51.948 764.659 49.33C764.659 46.712 763.493 45.48 761.051 45.48C758.609 45.48 757.443 46.712 757.443 49.33C757.443 51.948 758.609 53.18 761.051 53.18ZM776.697 44.16H778.391V54.5H776.697V51.948C776.191 53.576 775.091 54.72 772.913 54.72C770.493 54.72 769.151 53.268 769.151 50.672V44.16H770.845V50.562C770.845 52.256 771.857 53.18 773.397 53.18C775.421 53.18 776.697 51.618 776.697 48.934V44.16ZM787.608 43.94C790.028 43.94 791.37 45.392 791.37 47.988V54.5H789.676V48.098C789.676 46.404 788.664 45.48 787.124 45.48C785.1 45.48 783.824 47.042 783.824 49.726V54.5H782.13V44.16H783.824V46.712C784.33 45.084 785.43 43.94 787.608 43.94ZM802.985 39.1H804.679V54.5H802.985V52.388C802.215 53.862 800.851 54.72 799.069 54.72C796.099 54.72 794.119 52.564 794.119 49.33C794.119 46.096 796.099 43.94 799.069 43.94C800.851 43.94 802.215 44.798 802.985 46.272V39.1ZM799.465 53.18C801.929 53.18 803.073 51.948 803.073 49.33C803.073 46.712 801.929 45.48 799.465 45.48C797.001 45.48 795.857 46.712 795.857 49.33C795.857 51.948 797.001 53.18 799.465 53.18ZM54.856 72.16H56.55V82.5H54.856V80.388C54.086 81.862 52.722 82.72 50.94 82.72C47.97 82.72 45.99 80.564 45.99 77.33C45.99 74.096 47.97 71.94 50.94 71.94C52.722 71.94 54.086 72.798 54.856 74.272V72.16ZM51.336 81.18C53.8 81.18 54.944 79.948 54.944 77.33C54.944 74.712 53.8 73.48 51.336 73.48C48.872 73.48 47.728 74.712 47.728 77.33C47.728 79.948 48.872 81.18 51.336 81.18ZM65.7757 71.94C68.1957 71.94 69.5377 73.392 69.5377 75.988V82.5H67.8437V76.098C67.8437 74.404 66.8317 73.48 65.2917 73.48C63.2677 73.48 61.9917 75.042 61.9917 77.726V82.5H60.2977V72.16H61.9917V74.712C62.4977 73.084 63.5977 71.94 65.7757 71.94ZM81.1529 67.1H82.8469V82.5H81.1529V80.388C80.3829 81.862 79.0189 82.72 77.2369 82.72C74.2669 82.72 72.2869 80.564 72.2869 77.33C72.2869 74.096 74.2669 71.94 77.2369 71.94C79.0189 71.94 80.3829 72.798 81.1529 74.272V67.1ZM77.6329 81.18C80.0969 81.18 81.2409 79.948 81.2409 77.33C81.2409 74.712 80.0969 73.48 77.6329 73.48C75.1689 73.48 74.0249 74.712 74.0249 77.33C74.0249 79.948 75.1689 81.18 77.6329 81.18ZM98.1395 72.16V73.7H94.7955V82.5H93.1015V73.7H90.8795V72.16H93.1015V69.63C93.1015 68.112 94.1135 67.1 95.6315 67.1H97.9415V68.64H94.7955V72.16H98.1395ZM101.439 69.608C100.647 69.608 100.185 69.146 100.163 68.354C100.141 67.584 100.603 67.166 101.439 67.166C102.209 67.166 102.649 67.584 102.671 68.354C102.693 69.146 102.253 69.608 101.439 69.608ZM100.559 82.5V72.16H102.253V82.5H100.559ZM111.473 71.94C113.893 71.94 115.235 73.392 115.235 75.988V82.5H113.541V76.098C113.541 74.404 112.529 73.48 110.989 73.48C108.965 73.48 107.689 75.042 107.689 77.726V82.5H105.995V72.16H107.689V74.712C108.195 73.084 109.295 71.94 111.473 71.94ZM126.85 67.1H128.544V82.5H126.85V80.388C126.08 81.862 124.716 82.72 122.934 82.72C119.964 82.72 117.984 80.564 117.984 77.33C117.984 74.096 119.964 71.94 122.934 71.94C124.716 71.94 126.08 72.798 126.85 74.272V67.1ZM123.33 81.18C125.794 81.18 126.938 79.948 126.938 77.33C126.938 74.712 125.794 73.48 123.33 73.48C120.866 73.48 119.722 74.712 119.722 77.33C119.722 79.948 120.866 81.18 123.33 81.18ZM146.917 77.044C146.917 77.352 146.917 77.484 146.895 77.858H138.865C138.975 80.3 139.965 81.268 142.231 81.268C143.925 81.268 144.607 80.85 145.091 79.486L146.675 80.102C145.949 81.928 144.167 82.72 142.231 82.72C139.129 82.72 137.127 80.608 137.127 77.33C137.127 74.118 139.261 71.94 142.143 71.94C144.937 71.94 146.917 73.876 146.917 77.044ZM142.121 73.37C140.141 73.37 139.085 74.36 138.887 76.472H145.223C145.091 74.25 144.211 73.37 142.121 73.37ZM155.258 71.94C157.678 71.94 159.02 73.392 159.02 75.988V82.5H157.326V76.098C157.326 74.404 156.314 73.48 154.774 73.48C152.75 73.48 151.474 75.042 151.474 77.726V82.5H149.78V72.16H151.474V74.712C151.98 73.084 153.08 71.94 155.258 71.94ZM167.115 71.94C170.085 71.94 172.461 74.096 172.461 77.33C172.461 80.564 170.085 82.72 167.115 82.72C164.145 82.72 161.769 80.564 161.769 77.33C161.769 74.096 164.145 71.94 167.115 71.94ZM167.115 81.18C169.557 81.18 170.723 79.948 170.723 77.33C170.723 74.712 169.557 73.48 167.115 73.48C164.673 73.48 163.507 74.712 163.507 77.33C163.507 79.948 164.673 81.18 167.115 81.18ZM182.761 72.16H184.455V82.5H182.761V79.948C182.255 81.576 181.155 82.72 178.977 82.72C176.557 82.72 175.215 81.268 175.215 78.672V72.16H176.909V78.562C176.909 80.256 177.921 81.18 179.461 81.18C181.485 81.18 182.761 79.618 182.761 76.934V72.16ZM195.806 72.16H197.5V82.016C197.5 84.678 195.586 86.46 192.462 86.46C189.822 86.46 188.172 85.514 187.446 83.534L189.074 82.764C189.668 84.524 190.35 84.964 192.462 84.964C194.838 84.964 195.806 84.018 195.806 82.016V79.882C195.102 81.246 193.804 82.082 192.088 82.082C189.316 82.082 187.314 79.992 187.314 77.022C187.314 74.03 189.316 71.94 192.088 71.94C193.804 71.94 195.102 72.776 195.806 74.14V72.16ZM192.462 80.52C194.816 80.52 195.938 79.398 195.938 77.022C195.938 74.624 194.838 73.48 192.506 73.48C190.152 73.48 189.052 74.624 189.052 77.022C189.052 79.398 190.152 80.52 192.462 80.52ZM206.713 71.94C209.133 71.94 210.475 73.392 210.475 75.988V82.5H208.781V76.098C208.781 74.404 207.769 73.48 206.229 73.48C204.205 73.48 202.929 75.042 202.929 77.726V82.5H201.235V67.1H202.929V74.712C203.435 73.084 204.535 71.94 206.713 71.94ZM232.139 72.16H234.053L231.127 82.5H229.081L226.771 75.944L226.199 74.052L225.605 75.988L223.295 82.5H221.271L218.323 72.16H220.237L221.887 78.826L222.393 81.202L223.097 78.804L225.275 72.16H227.079L229.257 78.782L229.983 81.29L230.511 78.804L232.139 72.16ZM244.069 72.16H245.763V82.5H244.069V80.388C243.299 81.862 241.935 82.72 240.153 82.72C237.183 82.72 235.203 80.564 235.203 77.33C235.203 74.096 237.183 71.94 240.153 71.94C241.935 71.94 243.299 72.798 244.069 74.272V72.16ZM240.549 81.18C243.013 81.18 244.157 79.948 244.157 77.33C244.157 74.712 243.013 73.48 240.549 73.48C238.085 73.48 236.941 74.712 236.941 77.33C236.941 79.948 238.085 81.18 240.549 81.18ZM255.297 73.7H251.997V80.96H254.923V82.5H252.833C251.315 82.5 250.303 81.488 250.303 79.97V73.7H247.971V72.16H250.303V68.904H251.997V72.16H255.297V73.7ZM266.327 77.044C266.327 77.352 266.327 77.484 266.305 77.858H258.275C258.385 80.3 259.375 81.268 261.641 81.268C263.335 81.268 264.017 80.85 264.501 79.486L266.085 80.102C265.359 81.928 263.577 82.72 261.641 82.72C258.539 82.72 256.537 80.608 256.537 77.33C256.537 74.118 258.671 71.94 261.553 71.94C264.347 71.94 266.327 73.876 266.327 77.044ZM261.531 73.37C259.551 73.37 258.495 74.36 258.297 76.472H264.633C264.501 74.25 263.621 73.37 261.531 73.37ZM274.272 71.962C274.778 71.962 275.196 71.984 275.482 72.116V73.832C275.284 73.722 274.932 73.568 274.052 73.568C271.83 73.568 270.884 75.57 270.884 77.792V82.5H269.19V72.16H270.884V75.108C271.258 73.392 272.182 71.962 274.272 71.962ZM289.263 73.7H285.963V80.96H288.889V82.5H286.799C285.281 82.5 284.269 81.488 284.269 79.97V73.7H281.937V72.16H284.269V68.904H285.963V72.16H289.263V73.7ZM295.85 71.94C298.82 71.94 301.196 74.096 301.196 77.33C301.196 80.564 298.82 82.72 295.85 82.72C292.88 82.72 290.504 80.564 290.504 77.33C290.504 74.096 292.88 71.94 295.85 71.94ZM295.85 81.18C298.292 81.18 299.458 79.948 299.458 77.33C299.458 74.712 298.292 73.48 295.85 73.48C293.408 73.48 292.242 74.712 292.242 77.33C292.242 79.948 293.408 81.18 295.85 81.18ZM313.25 82.72C311.006 82.72 309.334 81.664 308.85 79.53L310.522 78.98C310.808 80.652 311.644 81.224 313.36 81.224C314.922 81.224 315.67 80.784 315.67 79.816C315.67 78.936 315.362 78.628 314.108 78.386L312.084 77.99C310.588 77.704 309.202 76.956 309.202 75.042C309.202 73.172 310.72 71.94 313.008 71.94C314.988 71.94 316.726 72.732 317.166 75.218L315.494 75.68C315.274 73.722 314.438 73.436 313.074 73.436C311.6 73.436 310.918 73.898 310.918 74.91C310.918 75.746 311.226 76.142 312.172 76.318L314.768 76.824C316.286 77.11 317.342 77.88 317.342 79.53C317.342 81.444 315.714 82.72 313.25 82.72ZM327.566 72.16H329.26V82.5H327.566V79.948C327.06 81.576 325.96 82.72 323.782 82.72C321.362 82.72 320.02 81.268 320.02 78.672V72.16H321.714V78.562C321.714 80.256 322.726 81.18 324.266 81.18C326.29 81.18 327.566 79.618 327.566 76.934V72.16ZM338.081 71.962C338.587 71.962 339.005 71.984 339.291 72.116V73.832C339.093 73.722 338.741 73.568 337.861 73.568C335.639 73.568 334.693 75.57 334.693 77.792V82.5H332.999V72.16H334.693V75.108C335.067 73.392 335.991 71.962 338.081 71.962ZM348.743 72.16H350.657L346.477 82.5H344.211L340.031 72.16H341.945L345.355 81.4L348.743 72.16ZM353.73 69.608C352.938 69.608 352.476 69.146 352.454 68.354C352.432 67.584 352.894 67.166 353.73 67.166C354.5 67.166 354.94 67.584 354.962 68.354C354.984 69.146 354.544 69.608 353.73 69.608ZM352.85 82.5V72.16H354.544V82.5H352.85ZM365.458 72.16H367.372L363.192 82.5H360.926L356.746 72.16H358.66L362.07 81.4L365.458 72.16ZM378.26 77.044C378.26 77.352 378.26 77.484 378.238 77.858H370.208C370.318 80.3 371.308 81.268 373.574 81.268C375.268 81.268 375.95 80.85 376.434 79.486L378.018 80.102C377.292 81.928 375.51 82.72 373.574 82.72C370.472 82.72 368.47 80.608 368.47 77.33C368.47 74.118 370.604 71.94 373.486 71.94C376.28 71.94 378.26 73.876 378.26 77.044ZM373.464 73.37C371.484 73.37 370.428 74.36 370.23 76.472H376.566C376.434 74.25 375.554 73.37 373.464 73.37ZM381.272 82.588C380.458 82.588 379.996 82.126 379.974 81.312C379.952 80.476 380.414 80.014 381.272 80.014C382.086 80.014 382.548 80.476 382.57 81.312C382.592 82.126 382.13 82.588 381.272 82.588Z" fill="black"/>
<path d="M972.454 0.5C1005.01 0.5 1031.41 27.1347 1031.41 60C1031.41 92.8653 1005.01 119.5 972.454 119.5C939.899 119.5 913.5 92.8651 913.5 60C913.5 27.1349 939.899 0.500241 972.454 0.5Z" stroke="black"/>
<circle cx="972.998" cy="91.6366" r="27.8636" stroke="black"/>
<circle cx="973.001" cy="75.2724" r="44.2273" stroke="black"/>
</svg>
