<svg width="1007" height="120" viewBox="0 0 1007 120" fill="none" xmlns="http://www.w3.org/2000/svg">
<path d="M67.2246 0V120" stroke="black" stroke-width="1.11683"/>
<path d="M33.8906 0V120" stroke="black" stroke-width="1.11683"/>
<path d="M0.558594 0V120" stroke="black" stroke-width="1.11683"/>
<rect x="133.225" y="6.5" width="873" height="107" rx="20" fill="#E1E1E1"/>
<path d="M193.977 37.1H196.991V52.5H195.209V38.288L194.571 40.444L189.687 52.5H187.619L182.713 40.444L182.097 38.398V52.5H180.315V37.1H183.329L187.091 46.582L188.653 51.004L190.215 46.56L193.977 37.1ZM208.128 42.16H210.042L205.114 54.304C204.498 55.778 203.838 56.24 202.298 56.24H199.988V54.7H203.662L204.014 53.666L199.416 42.16H201.33L203.882 49.09L204.74 51.576L205.62 49.068L208.128 42.16ZM223.114 42.16V43.7H219.77V52.5H218.076V43.7H215.854V42.16H218.076V39.63C218.076 38.112 219.088 37.1 220.606 37.1H222.916V38.64H219.77V42.16H223.114ZM233.09 42.16H234.784V52.5H233.09V50.388C232.32 51.862 230.956 52.72 229.174 52.72C226.204 52.72 224.224 50.564 224.224 47.33C224.224 44.096 226.204 41.94 229.174 41.94C230.956 41.94 232.32 42.798 233.09 44.272V42.16ZM229.57 51.18C232.034 51.18 233.178 49.948 233.178 47.33C233.178 44.712 232.034 43.48 229.57 43.48C227.106 43.48 225.962 44.712 225.962 47.33C225.962 49.948 227.106 51.18 229.57 51.18ZM245.704 42.16H247.618L243.438 52.5H241.172L236.992 42.16H238.906L242.316 51.4L245.704 42.16ZM254.063 41.94C257.033 41.94 259.409 44.096 259.409 47.33C259.409 50.564 257.033 52.72 254.063 52.72C251.093 52.72 248.717 50.564 248.717 47.33C248.717 44.096 251.093 41.94 254.063 41.94ZM254.063 51.18C256.505 51.18 257.671 49.948 257.671 47.33C257.671 44.712 256.505 43.48 254.063 43.48C251.621 43.48 250.455 44.712 250.455 47.33C250.455 49.948 251.621 51.18 254.063 51.18ZM267.354 41.962C267.86 41.962 268.278 41.984 268.564 42.116V43.832C268.366 43.722 268.014 43.568 267.134 43.568C264.912 43.568 263.966 45.57 263.966 47.792V52.5H262.272V42.16H263.966V45.108C264.34 43.392 265.264 41.962 267.354 41.962ZM271.725 39.608C270.933 39.608 270.471 39.146 270.449 38.354C270.427 37.584 270.889 37.166 271.725 37.166C272.495 37.166 272.935 37.584 272.957 38.354C272.979 39.146 272.539 39.608 271.725 39.608ZM270.845 52.5V42.16H272.539V52.5H270.845ZM282.066 43.7H278.766V50.96H281.692V52.5H279.602C278.084 52.5 277.072 51.488 277.072 49.97V43.7H274.74V42.16H277.072V38.904H278.766V42.16H282.066V43.7ZM293.096 47.044C293.096 47.352 293.096 47.484 293.074 47.858H285.044C285.154 50.3 286.144 51.268 288.41 51.268C290.104 51.268 290.786 50.85 291.27 49.486L292.854 50.102C292.128 51.928 290.346 52.72 288.41 52.72C285.308 52.72 283.306 50.608 283.306 47.33C283.306 44.118 285.44 41.94 288.322 41.94C291.116 41.94 293.096 43.876 293.096 47.044ZM288.3 43.37C286.32 43.37 285.264 44.36 285.066 46.472H291.402C291.27 44.25 290.39 43.37 288.3 43.37ZM305.151 52.72C302.907 52.72 301.235 51.664 300.751 49.53L302.423 48.98C302.709 50.652 303.545 51.224 305.261 51.224C306.823 51.224 307.571 50.784 307.571 49.816C307.571 48.936 307.263 48.628 306.009 48.386L303.985 47.99C302.489 47.704 301.103 46.956 301.103 45.042C301.103 43.172 302.621 41.94 304.909 41.94C306.889 41.94 308.627 42.732 309.067 45.218L307.395 45.68C307.175 43.722 306.339 43.436 304.975 43.436C303.501 43.436 302.819 43.898 302.819 44.91C302.819 45.746 303.127 46.142 304.073 46.318L306.669 46.824C308.187 47.11 309.243 47.88 309.243 49.53C309.243 51.444 307.615 52.72 305.151 52.72ZM320.94 47.044C320.94 47.352 320.94 47.484 320.918 47.858H312.888C312.998 50.3 313.988 51.268 316.254 51.268C317.948 51.268 318.63 50.85 319.114 49.486L320.698 50.102C319.972 51.928 318.19 52.72 316.254 52.72C313.152 52.72 311.15 50.608 311.15 47.33C311.15 44.118 313.284 41.94 316.166 41.94C318.96 41.94 320.94 43.876 320.94 47.044ZM316.144 43.37C314.164 43.37 313.108 44.36 312.91 46.472H319.246C319.114 44.25 318.234 43.37 316.144 43.37ZM331.79 42.16H333.484V52.5H331.79V50.388C331.02 51.862 329.656 52.72 327.874 52.72C324.904 52.72 322.924 50.564 322.924 47.33C322.924 44.096 324.904 41.94 327.874 41.94C329.656 41.94 331.02 42.798 331.79 44.272V42.16ZM328.27 51.18C330.734 51.18 331.878 49.948 331.878 47.33C331.878 44.712 330.734 43.48 328.27 43.48C325.806 43.48 324.662 44.712 324.662 47.33C324.662 49.948 325.806 51.18 328.27 51.18ZM340.707 52.72C338.463 52.72 336.791 51.664 336.307 49.53L337.979 48.98C338.265 50.652 339.101 51.224 340.817 51.224C342.379 51.224 343.127 50.784 343.127 49.816C343.127 48.936 342.819 48.628 341.565 48.386L339.541 47.99C338.045 47.704 336.659 46.956 336.659 45.042C336.659 43.172 338.177 41.94 340.465 41.94C342.445 41.94 344.183 42.732 344.623 45.218L342.951 45.68C342.731 43.722 341.895 43.436 340.531 43.436C339.057 43.436 338.375 43.898 338.375 44.91C338.375 45.746 338.683 46.142 339.629 46.318L342.225 46.824C343.743 47.11 344.799 47.88 344.799 49.53C344.799 51.444 343.171 52.72 340.707 52.72ZM352.053 41.94C355.023 41.94 357.399 44.096 357.399 47.33C357.399 50.564 355.023 52.72 352.053 52.72C349.083 52.72 346.707 50.564 346.707 47.33C346.707 44.096 349.083 41.94 352.053 41.94ZM352.053 51.18C354.495 51.18 355.661 49.948 355.661 47.33C355.661 44.712 354.495 43.48 352.053 43.48C349.611 43.48 348.445 44.712 348.445 47.33C348.445 49.948 349.611 51.18 352.053 51.18ZM365.741 41.94C368.161 41.94 369.503 43.392 369.503 45.988V52.5H367.809V46.098C367.809 44.404 366.797 43.48 365.257 43.48C363.233 43.48 361.957 45.042 361.957 47.726V52.5H360.263V42.16H361.957V44.712C362.463 43.084 363.563 41.94 365.741 41.94ZM376.608 52.72C374.364 52.72 372.692 51.664 372.208 49.53L373.88 48.98C374.166 50.652 375.002 51.224 376.718 51.224C378.28 51.224 379.028 50.784 379.028 49.816C379.028 48.936 378.72 48.628 377.466 48.386L375.442 47.99C373.946 47.704 372.56 46.956 372.56 45.042C372.56 43.172 374.078 41.94 376.366 41.94C378.346 41.94 380.084 42.732 380.524 45.218L378.852 45.68C378.632 43.722 377.796 43.436 376.432 43.436C374.958 43.436 374.276 43.898 374.276 44.91C374.276 45.746 374.584 46.142 375.53 46.318L378.126 46.824C379.644 47.11 380.7 47.88 380.7 49.53C380.7 51.444 379.072 52.72 376.608 52.72ZM397.188 42.16H398.882V52.5H397.188V50.388C396.418 51.862 395.054 52.72 393.272 52.72C390.302 52.72 388.322 50.564 388.322 47.33C388.322 44.096 390.302 41.94 393.272 41.94C395.054 41.94 396.418 42.798 397.188 44.272V42.16ZM393.668 51.18C396.132 51.18 397.276 49.948 397.276 47.33C397.276 44.712 396.132 43.48 393.668 43.48C391.204 43.48 390.06 44.712 390.06 47.33C390.06 49.948 391.204 51.18 393.668 51.18ZM407.712 41.962C408.218 41.962 408.636 41.984 408.922 42.116V43.832C408.724 43.722 408.372 43.568 407.492 43.568C405.27 43.568 404.324 45.57 404.324 47.792V52.5H402.63V42.16H404.324V45.108C404.698 43.392 405.622 41.962 407.712 41.962ZM419.682 47.044C419.682 47.352 419.682 47.484 419.66 47.858H411.63C411.74 50.3 412.73 51.268 414.996 51.268C416.69 51.268 417.372 50.85 417.856 49.486L419.44 50.102C418.714 51.928 416.932 52.72 414.996 52.72C411.894 52.72 409.892 50.608 409.892 47.33C409.892 44.118 412.026 41.94 414.908 41.94C417.702 41.94 419.682 43.876 419.682 47.044ZM414.886 43.37C412.906 43.37 411.85 44.36 411.652 46.472H417.988C417.856 44.25 416.976 43.37 414.886 43.37ZM436.247 42.16H437.941V52.5H436.247V50.388C435.477 51.862 434.113 52.72 432.331 52.72C429.361 52.72 427.381 50.564 427.381 47.33C427.381 44.096 429.361 41.94 432.331 41.94C434.113 41.94 435.477 42.798 436.247 44.272V42.16ZM432.727 51.18C435.191 51.18 436.335 49.948 436.335 47.33C436.335 44.712 435.191 43.48 432.727 43.48C430.263 43.48 429.119 44.712 429.119 47.33C429.119 49.948 430.263 51.18 432.727 51.18ZM449.124 42.16H450.818V52.5H449.124V49.948C448.618 51.576 447.518 52.72 445.34 52.72C442.92 52.72 441.578 51.268 441.578 48.672V42.16H443.272V48.562C443.272 50.256 444.284 51.18 445.824 51.18C447.848 51.18 449.124 49.618 449.124 46.934V42.16ZM460.344 43.7H457.044V50.96H459.97V52.5H457.88C456.362 52.5 455.35 51.488 455.35 49.97V43.7H453.018V42.16H455.35V38.904H457.044V42.16H460.344V43.7ZM470.115 42.16H471.809V52.5H470.115V49.948C469.609 51.576 468.509 52.72 466.331 52.72C463.911 52.72 462.569 51.268 462.569 48.672V42.16H464.263V48.562C464.263 50.256 465.275 51.18 466.815 51.18C468.839 51.18 470.115 49.618 470.115 46.934V42.16ZM488.462 41.94C490.948 41.94 492.334 43.48 492.334 46.142V52.5H490.64V46.252C490.64 44.404 489.628 43.48 488.11 43.48C485.778 43.48 484.788 45.306 484.788 48.32V52.5H483.094V46.098C483.094 44.404 482.082 43.48 480.542 43.48C478.518 43.48 477.242 45.042 477.242 47.726V52.5H475.548V42.16H477.242V44.712C477.748 43.084 478.848 41.94 481.026 41.94C483.072 41.94 484.348 42.974 484.7 44.866C485.272 42.996 486.504 41.94 488.462 41.94ZM501.436 41.94C503.856 41.94 505.198 43.392 505.198 45.988V52.5H503.504V46.098C503.504 44.404 502.492 43.48 500.952 43.48C498.928 43.48 497.652 45.042 497.652 47.726V52.5H495.958V42.16H497.652V44.712C498.158 43.084 499.258 41.94 501.436 41.94ZM522.528 42.16H524.222V52.5H522.528V50.388C521.758 51.862 520.394 52.72 518.612 52.72C515.642 52.72 513.662 50.564 513.662 47.33C513.662 44.096 515.642 41.94 518.612 41.94C520.394 41.94 521.758 42.798 522.528 44.272V42.16ZM519.008 51.18C521.472 51.18 522.616 49.948 522.616 47.33C522.616 44.712 521.472 43.48 519.008 43.48C516.544 43.48 515.4 44.712 515.4 47.33C515.4 49.948 516.544 51.18 519.008 51.18ZM533.448 41.94C535.868 41.94 537.21 43.392 537.21 45.988V52.5H535.516V46.098C535.516 44.404 534.504 43.48 532.964 43.48C530.94 43.48 529.664 45.042 529.664 47.726V52.5H527.97V42.16H529.664V44.712C530.17 43.084 531.27 41.94 533.448 41.94ZM548.825 37.1H550.519V52.5H548.825V50.388C548.055 51.862 546.691 52.72 544.909 52.72C541.939 52.72 539.959 50.564 539.959 47.33C539.959 44.096 541.939 41.94 544.909 41.94C546.691 41.94 548.055 42.798 548.825 44.272V37.1ZM545.305 51.18C547.769 51.18 548.913 49.948 548.913 47.33C548.913 44.712 547.769 43.48 545.305 43.48C542.841 43.48 541.697 44.712 541.697 47.33C541.697 49.948 542.841 51.18 545.305 51.18ZM563.457 52.72C561.213 52.72 559.541 51.664 559.057 49.53L560.729 48.98C561.015 50.652 561.851 51.224 563.567 51.224C565.129 51.224 565.877 50.784 565.877 49.816C565.877 48.936 565.569 48.628 564.315 48.386L562.291 47.99C560.795 47.704 559.409 46.956 559.409 45.042C559.409 43.172 560.927 41.94 563.215 41.94C565.195 41.94 566.933 42.732 567.373 45.218L565.701 45.68C565.481 43.722 564.645 43.436 563.281 43.436C561.807 43.436 561.125 43.898 561.125 44.91C561.125 45.746 561.433 46.142 562.379 46.318L564.975 46.824C566.493 47.11 567.549 47.88 567.549 49.53C567.549 51.444 565.921 52.72 563.457 52.72ZM577.773 42.16H579.467V52.5H577.773V49.948C577.267 51.576 576.167 52.72 573.989 52.72C571.569 52.72 570.227 51.268 570.227 48.672V42.16H571.921V48.562C571.921 50.256 572.933 51.18 574.473 51.18C576.497 51.18 577.773 49.618 577.773 46.934V42.16ZM596.12 41.94C598.606 41.94 599.992 43.48 599.992 46.142V52.5H598.298V46.252C598.298 44.404 597.286 43.48 595.768 43.48C593.436 43.48 592.446 45.306 592.446 48.32V52.5H590.752V46.098C590.752 44.404 589.74 43.48 588.2 43.48C586.176 43.48 584.9 45.042 584.9 47.726V52.5H583.206V42.16H584.9V44.712C585.406 43.084 586.506 41.94 588.684 41.94C590.73 41.94 592.006 42.974 592.358 44.866C592.93 42.996 594.162 41.94 596.12 41.94ZM616.53 41.94C619.016 41.94 620.402 43.48 620.402 46.142V52.5H618.708V46.252C618.708 44.404 617.696 43.48 616.178 43.48C613.846 43.48 612.856 45.306 612.856 48.32V52.5H611.162V46.098C611.162 44.404 610.15 43.48 608.61 43.48C606.586 43.48 605.31 45.042 605.31 47.726V52.5H603.616V42.16H605.31V44.712C605.816 43.084 606.916 41.94 609.094 41.94C611.14 41.94 612.416 42.974 612.768 44.866C613.34 42.996 614.572 41.94 616.53 41.94ZM632.936 47.044C632.936 47.352 632.936 47.484 632.914 47.858H624.884C624.994 50.3 625.984 51.268 628.25 51.268C629.944 51.268 630.626 50.85 631.11 49.486L632.694 50.102C631.968 51.928 630.186 52.72 628.25 52.72C625.148 52.72 623.146 50.608 623.146 47.33C623.146 44.118 625.28 41.94 628.162 41.94C630.956 41.94 632.936 43.876 632.936 47.044ZM628.14 43.37C626.16 43.37 625.104 44.36 624.906 46.472H631.242C631.11 44.25 630.23 43.37 628.14 43.37ZM640.882 41.962C641.388 41.962 641.806 41.984 642.092 42.116V43.832C641.894 43.722 641.542 43.568 640.662 43.568C638.44 43.568 637.494 45.57 637.494 47.792V52.5H635.8V42.16H637.494V45.108C637.868 43.392 638.792 41.962 640.882 41.962ZM643.209 50.014C644.023 50.014 644.485 50.476 644.507 51.268C644.507 51.532 644.485 51.884 644.177 52.434L642.285 55.778H640.393L643.187 52.588C642.417 52.566 641.889 51.994 641.867 51.268C641.845 50.476 642.329 50.014 643.209 50.014ZM665.758 42.16H667.672L664.746 52.5H662.7L660.39 45.944L659.818 44.052L659.224 45.988L656.914 52.5H654.89L651.942 42.16H653.856L655.506 48.826L656.012 51.202L656.716 48.804L658.894 42.16H660.698L662.876 48.782L663.602 51.29L664.13 48.804L665.758 42.16ZM675.395 41.94C677.815 41.94 679.157 43.392 679.157 45.988V52.5H677.463V46.098C677.463 44.404 676.451 43.48 674.911 43.48C672.887 43.48 671.611 45.042 671.611 47.726V52.5H669.917V37.1H671.611V44.712C672.117 43.084 673.217 41.94 675.395 41.94ZM691.696 47.044C691.696 47.352 691.696 47.484 691.674 47.858H683.644C683.754 50.3 684.744 51.268 687.01 51.268C688.704 51.268 689.386 50.85 689.87 49.486L691.454 50.102C690.728 51.928 688.946 52.72 687.01 52.72C683.908 52.72 681.906 50.608 681.906 47.33C681.906 44.118 684.04 41.94 686.922 41.94C689.716 41.94 691.696 43.876 691.696 47.044ZM686.9 43.37C684.92 43.37 683.864 44.36 683.666 46.472H690.002C689.87 44.25 688.99 43.37 686.9 43.37ZM699.641 41.962C700.147 41.962 700.565 41.984 700.851 42.116V43.832C700.653 43.722 700.301 43.568 699.421 43.568C697.199 43.568 696.253 45.57 696.253 47.792V52.5H694.559V42.16H696.253V45.108C696.627 43.392 697.551 41.962 699.641 41.962ZM711.612 47.044C711.612 47.352 711.612 47.484 711.59 47.858H703.56C703.67 50.3 704.66 51.268 706.926 51.268C708.62 51.268 709.302 50.85 709.786 49.486L711.37 50.102C710.644 51.928 708.862 52.72 706.926 52.72C703.824 52.72 701.822 50.608 701.822 47.33C701.822 44.118 703.956 41.94 706.838 41.94C709.632 41.94 711.612 43.876 711.612 47.044ZM706.816 43.37C704.836 43.37 703.78 44.36 703.582 46.472H709.918C709.786 44.25 708.906 43.37 706.816 43.37ZM720.41 52.5V37.1H722.17V52.5H720.41ZM736.279 51.202C738.105 51.202 739.095 50.498 739.535 48.232L741.251 48.694C740.613 51.4 738.765 52.72 736.301 52.72C733.133 52.72 730.955 50.564 730.955 47.33C730.955 44.096 733.133 41.94 736.301 41.94C738.765 41.94 740.613 43.26 741.251 45.966L739.535 46.428C739.095 44.162 738.105 43.458 736.279 43.458C733.837 43.458 732.693 44.69 732.693 47.33C732.693 49.97 733.837 51.202 736.279 51.202ZM752.088 42.16H753.782V52.5H752.088V50.388C751.318 51.862 749.954 52.72 748.172 52.72C745.202 52.72 743.222 50.564 743.222 47.33C743.222 44.096 745.202 41.94 748.172 41.94C749.954 41.94 751.318 42.798 752.088 44.272V42.16ZM748.568 51.18C751.032 51.18 752.176 49.948 752.176 47.33C752.176 44.712 751.032 43.48 748.568 43.48C746.104 43.48 744.96 44.712 744.96 47.33C744.96 49.948 746.104 51.18 748.568 51.18ZM763.008 41.94C765.428 41.94 766.77 43.392 766.77 45.988V52.5H765.076V46.098C765.076 44.404 764.064 43.48 762.524 43.48C760.5 43.48 759.224 45.042 759.224 47.726V52.5H757.53V42.16H759.224V44.712C759.73 43.084 760.83 41.94 763.008 41.94ZM781.944 42.16V43.7H778.6V52.5H776.906V43.7H774.684V42.16H776.906V39.63C776.906 38.112 777.918 37.1 779.436 37.1H781.746V38.64H778.6V42.16H781.944ZM792.844 47.044C792.844 47.352 792.844 47.484 792.822 47.858H784.792C784.902 50.3 785.892 51.268 788.158 51.268C789.852 51.268 790.534 50.85 791.018 49.486L792.602 50.102C791.876 51.928 790.094 52.72 788.158 52.72C785.056 52.72 783.054 50.608 783.054 47.33C783.054 44.118 785.188 41.94 788.07 41.94C790.864 41.94 792.844 43.876 792.844 47.044ZM788.048 43.37C786.068 43.37 785.012 44.36 784.814 46.472H791.15C791.018 44.25 790.138 43.37 788.048 43.37ZM804.618 47.044C804.618 47.352 804.618 47.484 804.596 47.858H796.566C796.676 50.3 797.666 51.268 799.932 51.268C801.626 51.268 802.308 50.85 802.792 49.486L804.376 50.102C803.65 51.928 801.868 52.72 799.932 52.72C796.83 52.72 794.828 50.608 794.828 47.33C794.828 44.118 796.962 41.94 799.844 41.94C802.638 41.94 804.618 43.876 804.618 47.044ZM799.822 43.37C797.842 43.37 796.786 44.36 796.588 46.472H802.924C802.792 44.25 801.912 43.37 799.822 43.37ZM807.481 52.5V37.1H809.175V52.5H807.481ZM824.418 43.7H821.118V50.96H824.044V52.5H821.954C820.436 52.5 819.424 51.488 819.424 49.97V43.7H817.092V42.16H819.424V38.904H821.118V42.16H824.418V43.7ZM832.231 41.94C834.651 41.94 835.993 43.392 835.993 45.988V52.5H834.299V46.098C834.299 44.404 833.287 43.48 831.747 43.48C829.723 43.48 828.447 45.042 828.447 47.726V52.5H826.753V37.1H828.447V44.712C828.953 43.084 830.053 41.94 832.231 41.94ZM848.532 47.044C848.532 47.352 848.532 47.484 848.51 47.858H840.48C840.59 50.3 841.58 51.268 843.846 51.268C845.54 51.268 846.222 50.85 846.706 49.486L848.29 50.102C847.564 51.928 845.782 52.72 843.846 52.72C840.744 52.72 838.742 50.608 838.742 47.33C838.742 44.118 840.876 41.94 843.758 41.94C846.552 41.94 848.532 43.876 848.532 47.044ZM843.736 43.37C841.756 43.37 840.7 44.36 840.502 46.472H846.838C846.706 44.25 845.826 43.37 843.736 43.37ZM862.192 41.962C862.698 41.962 863.116 41.984 863.402 42.116V43.832C863.204 43.722 862.852 43.568 861.972 43.568C859.75 43.568 858.804 45.57 858.804 47.792V52.5H857.11V42.16H858.804V45.108C859.178 43.392 860.102 41.962 862.192 41.962ZM873.239 42.16H874.933V52.5H873.239V50.388C872.469 51.862 871.105 52.72 869.323 52.72C866.353 52.72 864.373 50.564 864.373 47.33C864.373 44.096 866.353 41.94 869.323 41.94C871.105 41.94 872.469 42.798 873.239 44.272V42.16ZM869.719 51.18C872.183 51.18 873.327 49.948 873.327 47.33C873.327 44.712 872.183 43.48 869.719 43.48C867.255 43.48 866.111 44.712 866.111 47.33C866.111 49.948 867.255 51.18 869.719 51.18ZM879.561 39.608C878.769 39.608 878.307 39.146 878.285 38.354C878.263 37.584 878.725 37.166 879.561 37.166C880.331 37.166 880.771 37.584 880.793 38.354C880.815 39.146 880.375 39.608 879.561 39.608ZM878.681 52.5V42.16H880.375V52.5H878.681ZM889.594 41.94C892.014 41.94 893.356 43.392 893.356 45.988V52.5H891.662V46.098C891.662 44.404 890.65 43.48 889.11 43.48C887.086 43.48 885.81 45.042 885.81 47.726V52.5H884.116V42.16H885.81V44.712C886.316 43.084 887.416 41.94 889.594 41.94ZM188.081 70.16H189.775V80.5H188.081V78.388C187.311 79.862 185.947 80.72 184.165 80.72C181.195 80.72 179.215 78.564 179.215 75.33C179.215 72.096 181.195 69.94 184.165 69.94C185.947 69.94 187.311 70.798 188.081 72.272V70.16ZM184.561 79.18C187.025 79.18 188.169 77.948 188.169 75.33C188.169 72.712 187.025 71.48 184.561 71.48C182.097 71.48 180.953 72.712 180.953 75.33C180.953 77.948 182.097 79.18 184.561 79.18ZM199 69.94C201.42 69.94 202.762 71.392 202.762 73.988V80.5H201.068V74.098C201.068 72.404 200.056 71.48 198.516 71.48C196.492 71.48 195.216 73.042 195.216 75.726V80.5H193.522V70.16H195.216V72.712C195.722 71.084 196.822 69.94 199 69.94ZM214.377 65.1H216.071V80.5H214.377V78.388C213.607 79.862 212.243 80.72 210.461 80.72C207.491 80.72 205.511 78.564 205.511 75.33C205.511 72.096 207.491 69.94 210.461 69.94C212.243 69.94 213.607 70.798 214.377 72.272V65.1ZM210.857 79.18C213.321 79.18 214.465 77.948 214.465 75.33C214.465 72.712 213.321 71.48 210.857 71.48C208.393 71.48 207.249 72.712 207.249 75.33C207.249 77.948 208.393 79.18 210.857 79.18ZM225.754 80.5V65.1H227.514V80.5H225.754ZM242.965 71.7H239.665V78.96H242.591V80.5H240.501C238.983 80.5 237.971 79.488 237.971 77.97V71.7H235.639V70.16H237.971V66.904H239.665V70.16H242.965V71.7ZM250.382 69.962C250.888 69.962 251.306 69.984 251.592 70.116V71.832C251.394 71.722 251.042 71.568 250.162 71.568C247.94 71.568 246.994 73.57 246.994 75.792V80.5H245.3V70.16H246.994V73.108C247.368 71.392 248.292 69.962 250.382 69.962ZM261.044 70.16H262.958L258.03 82.304C257.414 83.778 256.754 84.24 255.214 84.24H252.904V82.7H256.578L256.93 81.666L252.332 70.16H254.246L256.798 77.09L257.656 79.576L258.536 77.068L261.044 70.16ZM275.986 71.7H272.686V78.96H275.612V80.5H273.522C272.004 80.5 270.992 79.488 270.992 77.97V71.7H268.66V70.16H270.992V66.904H272.686V70.16H275.986V71.7ZM282.572 69.94C285.542 69.94 287.918 72.096 287.918 75.33C287.918 78.564 285.542 80.72 282.572 80.72C279.602 80.72 277.226 78.564 277.226 75.33C277.226 72.096 279.602 69.94 282.572 69.94ZM282.572 79.18C285.014 79.18 286.18 77.948 286.18 75.33C286.18 72.712 285.014 71.48 282.572 71.48C280.13 71.48 278.964 72.712 278.964 75.33C278.964 77.948 280.13 79.18 282.572 79.18ZM301.975 69.94C304.395 69.94 305.737 71.392 305.737 73.988V80.5H304.043V74.098C304.043 72.404 303.031 71.48 301.491 71.48C299.467 71.48 298.191 73.042 298.191 75.726V80.5H296.497V65.1H298.191V72.712C298.697 71.084 299.797 69.94 301.975 69.94ZM318.276 75.044C318.276 75.352 318.276 75.484 318.254 75.858H310.224C310.334 78.3 311.324 79.268 313.59 79.268C315.284 79.268 315.966 78.85 316.45 77.486L318.034 78.102C317.308 79.928 315.526 80.72 313.59 80.72C310.488 80.72 308.486 78.608 308.486 75.33C308.486 72.118 310.62 69.94 313.502 69.94C316.296 69.94 318.276 71.876 318.276 75.044ZM313.48 71.37C311.5 71.37 310.444 72.36 310.246 74.472H316.582C316.45 72.25 315.57 71.37 313.48 71.37ZM321.14 80.5V65.1H322.834V80.5H321.14ZM332.185 69.94C335.155 69.94 337.135 72.096 337.135 75.33C337.135 78.564 335.155 80.72 332.185 80.72C330.403 80.72 329.039 79.862 328.269 78.388V84.24H326.575V70.16H328.269V72.272C329.039 70.798 330.403 69.94 332.185 69.94ZM331.789 79.18C334.253 79.18 335.397 77.948 335.397 75.33C335.397 72.712 334.253 71.48 331.789 71.48C329.325 71.48 328.181 72.712 328.181 75.33C328.181 77.948 329.325 79.18 331.789 79.18ZM350.184 69.94C353.154 69.94 355.53 72.096 355.53 75.33C355.53 78.564 353.154 80.72 350.184 80.72C347.214 80.72 344.838 78.564 344.838 75.33C344.838 72.096 347.214 69.94 350.184 69.94ZM350.184 79.18C352.626 79.18 353.792 77.948 353.792 75.33C353.792 72.712 352.626 71.48 350.184 71.48C347.742 71.48 346.576 72.712 346.576 75.33C346.576 77.948 347.742 79.18 350.184 79.18ZM364.179 71.7H360.879V78.96H363.805V80.5H361.715C360.197 80.5 359.185 79.488 359.185 77.97V71.7H356.853V70.16H359.185V66.904H360.879V70.16H364.179V71.7ZM371.993 69.94C374.413 69.94 375.755 71.392 375.755 73.988V80.5H374.061V74.098C374.061 72.404 373.049 71.48 371.509 71.48C369.485 71.48 368.209 73.042 368.209 75.726V80.5H366.515V65.1H368.209V72.712C368.715 71.084 369.815 69.94 371.993 69.94ZM388.294 75.044C388.294 75.352 388.294 75.484 388.272 75.858H380.242C380.352 78.3 381.342 79.268 383.608 79.268C385.302 79.268 385.984 78.85 386.468 77.486L388.052 78.102C387.326 79.928 385.544 80.72 383.608 80.72C380.506 80.72 378.504 78.608 378.504 75.33C378.504 72.118 380.638 69.94 383.52 69.94C386.314 69.94 388.294 71.876 388.294 75.044ZM383.498 71.37C381.518 71.37 380.462 72.36 380.264 74.472H386.6C386.468 72.25 385.588 71.37 383.498 71.37ZM396.239 69.962C396.745 69.962 397.163 69.984 397.449 70.116V71.832C397.251 71.722 396.899 71.568 396.019 71.568C393.797 71.568 392.851 73.57 392.851 75.792V80.5H391.157V70.16H392.851V73.108C393.225 71.392 394.149 69.962 396.239 69.962ZM402.991 80.72C400.747 80.72 399.075 79.664 398.591 77.53L400.263 76.98C400.549 78.652 401.385 79.224 403.101 79.224C404.663 79.224 405.411 78.784 405.411 77.816C405.411 76.936 405.103 76.628 403.849 76.386L401.825 75.99C400.329 75.704 398.943 74.956 398.943 73.042C398.943 71.172 400.461 69.94 402.749 69.94C404.729 69.94 406.467 70.732 406.907 73.218L405.235 73.68C405.015 71.722 404.179 71.436 402.815 71.436C401.341 71.436 400.659 71.898 400.659 72.91C400.659 73.746 400.967 74.142 401.913 74.318L404.509 74.824C406.027 75.11 407.083 75.88 407.083 77.53C407.083 79.444 405.455 80.72 402.991 80.72ZM421.195 69.94C424.165 69.94 426.145 72.096 426.145 75.33C426.145 78.564 424.165 80.72 421.195 80.72C419.413 80.72 418.049 79.862 417.279 78.388V80.5H415.585V65.1H417.279V72.272C418.049 70.798 419.413 69.94 421.195 69.94ZM420.799 79.18C423.263 79.18 424.407 77.948 424.407 75.33C424.407 72.712 423.263 71.48 420.799 71.48C418.335 71.48 417.191 72.712 417.191 75.33C417.191 77.948 418.335 79.18 420.799 79.18ZM435.97 70.16H437.884L432.956 82.304C432.34 83.778 431.68 84.24 430.14 84.24H427.83V82.7H431.504L431.856 81.666L427.258 70.16H429.172L431.724 77.09L432.582 79.576L433.462 77.068L435.97 70.16ZM452.056 69.5H455.378V78.762C455.378 82.37 453.2 84.46 449.482 84.46C446.688 84.46 444.488 83.426 444.004 81.556L447.216 80.28C447.524 81.556 448.426 81.82 449.68 81.82C451.198 81.82 452.056 81.16 452.056 79.532V77.464C451.374 78.96 450.098 79.774 448.382 79.774C445.61 79.774 443.96 77.662 443.96 74.494C443.96 71.37 445.544 69.302 448.272 69.302C450.054 69.302 451.374 70.182 452.056 71.722V69.5ZM449.702 76.87C451.352 76.87 452.144 76.122 452.144 74.538C452.144 72.954 451.352 72.206 449.702 72.206C448.096 72.206 447.326 72.954 447.326 74.538C447.326 76.122 448.096 76.87 449.702 76.87ZM465.481 69.5H468.825V80.5H465.481V78.014C464.953 79.818 463.809 80.72 462.005 80.72C459.387 80.72 458.133 79.158 458.133 75.924V69.5H461.477V75.726C461.477 77.068 462.093 77.684 463.325 77.684C464.645 77.684 465.481 76.826 465.481 74.846V69.5ZM473.342 68.07C472 68.07 471.252 67.344 471.252 66.024C471.252 64.748 472 64.044 473.342 64.044C474.706 64.044 475.476 64.748 475.476 66.024C475.476 67.344 474.706 68.07 473.342 68.07ZM471.692 80.5V69.5H475.036V80.5H471.692ZM485.689 65.1H489.033V80.5H485.689V78.036C485.073 79.774 483.819 80.72 482.059 80.72C478.913 80.72 477.175 78.432 477.175 75.022C477.175 71.568 478.825 69.28 481.839 69.28C483.709 69.28 485.051 70.248 485.689 72.052V65.1ZM483.115 77.684C484.941 77.684 485.799 76.826 485.799 75.022C485.799 73.174 484.941 72.316 483.115 72.316C481.355 72.316 480.519 73.174 480.519 75.022C480.519 76.826 481.355 77.684 483.115 77.684ZM493.537 68.07C492.195 68.07 491.447 67.344 491.447 66.024C491.447 64.748 492.195 64.044 493.537 64.044C494.901 64.044 495.671 64.748 495.671 66.024C495.671 67.344 494.901 68.07 493.537 68.07ZM491.887 80.5V69.5H495.231V80.5H491.887ZM504.916 69.28C507.534 69.28 508.788 70.842 508.788 74.076V80.5H505.444V74.274C505.444 72.932 504.828 72.316 503.596 72.316C502.276 72.316 501.44 73.174 501.44 75.154V80.5H498.096V69.5H501.44V71.986C501.968 70.182 503.112 69.28 504.916 69.28ZM518.915 69.5H522.237V78.762C522.237 82.37 520.059 84.46 516.341 84.46C513.547 84.46 511.347 83.426 510.863 81.556L514.075 80.28C514.383 81.556 515.285 81.82 516.539 81.82C518.057 81.82 518.915 81.16 518.915 79.532V77.464C518.233 78.96 516.957 79.774 515.241 79.774C512.469 79.774 510.819 77.662 510.819 74.494C510.819 71.37 512.403 69.302 515.131 69.302C516.913 69.302 518.233 70.182 518.915 71.722V69.5ZM516.561 76.87C518.211 76.87 519.003 76.122 519.003 74.538C519.003 72.954 518.211 72.206 516.561 72.206C514.955 72.206 514.185 72.954 514.185 74.538C514.185 76.122 514.955 76.87 516.561 76.87ZM537.498 72.426H534.462V77.574H537.278V80.5H534.858C532.614 80.5 531.118 79.004 531.118 76.76V72.426H529.16V69.5H531.118V66.31H534.462V69.5H537.498V72.426ZM546.445 69.28C549.063 69.28 550.317 70.842 550.317 74.076V80.5H546.973V74.274C546.973 72.932 546.357 72.316 545.125 72.316C543.805 72.316 542.969 73.174 542.969 75.154V80.5H539.625V65.1H542.969V71.986C543.497 70.182 544.641 69.28 546.445 69.28ZM563.327 74.912C563.327 75.286 563.327 75.572 563.305 76.056H555.825C556.023 77.552 556.727 78.168 558.135 78.168C559.191 78.168 559.697 77.838 560.225 76.782L563.085 77.794C562.337 79.686 560.687 80.72 558.047 80.72C554.637 80.72 552.349 78.476 552.349 75.088C552.349 71.612 554.593 69.28 557.937 69.28C561.171 69.28 563.327 71.524 563.327 74.912ZM558.003 71.722C556.661 71.722 556.001 72.338 555.825 73.878H560.027C560.005 72.272 559.345 71.722 558.003 71.722ZM579.859 69.28C582.345 69.28 583.511 70.82 583.511 74.076V80.5H580.167V74.274C580.167 73.02 579.573 72.316 578.319 72.316C576.999 72.316 576.163 73.152 576.163 75.594V80.5H572.819V74.274C572.819 72.932 572.203 72.316 570.971 72.316C569.651 72.316 568.815 73.174 568.815 75.154V80.5H565.471V69.5H568.815V71.986C569.343 70.182 570.487 69.28 572.291 69.28C574.249 69.28 575.459 70.16 575.921 71.964C576.647 70.116 578.011 69.28 579.859 69.28ZM598.664 72.426H595.628V77.574H598.444V80.5H596.024C593.78 80.5 592.284 79.004 592.284 76.76V72.426H590.326V69.5H592.284V66.31H595.628V69.5H598.664V72.426ZM606.049 69.28C609.305 69.28 612.033 71.458 612.033 75.022C612.033 78.564 609.305 80.72 606.049 80.72C602.793 80.72 600.065 78.564 600.065 75.022C600.065 71.458 602.793 69.28 606.049 69.28ZM606.049 77.684C607.853 77.684 608.689 76.826 608.689 75.022C608.689 73.174 607.853 72.316 606.049 72.316C604.245 72.316 603.409 73.174 603.409 75.022C603.409 76.826 604.245 77.684 606.049 77.684ZM632.71 69.5H636.23L632.996 80.5H629.498L627.738 75.44L627.166 73.35L626.572 75.44L624.79 80.5H621.358L618.058 69.5H621.644L623.008 75.462L623.272 77.002L623.668 75.462L625.538 69.5H628.772L630.62 75.462L631.038 77.09L631.324 75.462L632.71 69.5ZM645.468 69.5H648.812V80.5H645.468V78.036C644.852 79.774 643.598 80.72 641.838 80.72C638.692 80.72 636.954 78.432 636.954 75.022C636.954 71.568 638.604 69.28 641.618 69.28C643.488 69.28 644.83 70.248 645.468 72.052V69.5ZM642.894 77.684C644.72 77.684 645.578 76.826 645.578 75.022C645.578 73.174 644.72 72.316 642.894 72.316C641.134 72.316 640.298 73.174 640.298 75.022C640.298 76.826 641.134 77.684 642.894 77.684ZM658.992 72.426H655.956V77.574H658.772V80.5H656.352C654.108 80.5 652.612 79.004 652.612 76.76V72.426H650.654V69.5H652.612V66.31H655.956V69.5H658.992V72.426ZM671.371 74.912C671.371 75.286 671.371 75.572 671.349 76.056H663.869C664.067 77.552 664.771 78.168 666.179 78.168C667.235 78.168 667.741 77.838 668.269 76.782L671.129 77.794C670.381 79.686 668.731 80.72 666.091 80.72C662.681 80.72 660.393 78.476 660.393 75.088C660.393 71.612 662.637 69.28 665.981 69.28C669.215 69.28 671.371 71.524 671.371 74.912ZM666.047 71.722C664.705 71.722 664.045 72.338 663.869 73.878H668.071C668.049 72.272 667.389 71.722 666.047 71.722ZM679.896 69.324C680.248 69.324 680.798 69.324 681.238 69.5V72.602C680.732 72.426 680.402 72.382 679.786 72.382C678.246 72.382 676.86 73.174 676.86 76.166V80.5H673.516V69.5H676.86V72.624C677.102 71.018 677.828 69.324 679.896 69.324ZM682.298 80.632C680.956 80.632 680.186 79.884 680.186 78.542C680.186 77.244 680.956 76.518 682.298 76.518C683.684 76.518 684.454 77.244 684.454 78.542C684.454 79.884 683.684 80.632 682.298 80.632Z" fill="black"/>
</svg>
