<svg width="822" height="730" viewBox="0 0 822 730" fill="none" xmlns="http://www.w3.org/2000/svg">
<path fill-rule="evenodd" clip-rule="evenodd" d="M1.65522 699.067C-4.3097 713.864 6.58328 730 22.5378 730C31.7295 730 39.9983 724.413 43.4276 715.885L65.2821 661.536L65.2997 661.482L125.59 511.567L202.047 316.596C214.641 284.474 259.979 284.143 273.04 316.077L336.35 470.868L352.325 511.567L387.881 600.434L430.477 706.062C436.31 720.527 450.344 730 465.941 730H792.524C813.393 730 827.323 708.525 818.877 689.491C818.827 689.376 818.68 689.31 818.629 689.196L518.101 22.524C511.921 8.81435 498.279 0 483.24 0H307.611C291.978 0 277.919 9.51582 272.11 24.0293L16.3456 663.028C16.0071 663.845 15.6314 664.643 15.2187 665.419L1.65522 699.067Z" fill="#1F1F1A"/>
</svg>
