<svg width="369" height="733" viewBox="0 0 369 733" fill="none" xmlns="http://www.w3.org/2000/svg">
<path d="M369 36.761C369 15.4491 351.645 -2.0368 330.411 0.191942C295.196 3.88825 260.628 12.6324 227.79 26.2096C183.021 44.7198 142.342 71.8507 108.078 106.053C73.8128 140.255 46.6324 180.86 28.0884 225.547C9.54446 270.235 -4.23631e-06 318.131 0 366.5C4.23631e-06 414.869 9.54448 462.765 28.0885 507.453C46.6325 552.14 73.8128 592.745 108.078 626.947C142.342 661.149 183.021 688.28 227.79 706.79C260.628 720.368 295.196 729.112 330.411 732.808C351.645 735.037 369 717.551 369 696.239L369 36.761Z" fill="#1F1F1A"/>
</svg>
